<?xml version="1.0" encoding="UTF-8" standalone="no"?>
<!DOCTYPE svg PUBLIC "-//W3C//DTD SVG 1.1//EN"
 "http://www.w3.org/Graphics/SVG/1.1/DTD/svg11.dtd">
<!-- Generated by graphviz version 2.43.0 (0)
 -->
<!-- Title: buttons.c Pages: 1 -->
<svg width="293pt" height="192pt"
 viewBox="0.00 0.00 293.12 192.00" xmlns="http://www.w3.org/2000/svg" xmlns:xlink="http://www.w3.org/1999/xlink">
<g id="graph0" class="graph" transform="scale(1 1) rotate(0) translate(4 188)">
<title>buttons.c</title>
<!-- Node1 -->
<g id="Node000001" class="node">
<title>Node1</title>
<g id="a_Node000001"><a xlink:title="Contains functions to check the button state in non&#45;blocking mode.">
<polygon fill="#999999" stroke="#666666" points="188.12,-184 126.12,-184 126.12,-165 188.12,-165 188.12,-184"/>
<text text-anchor="middle" x="157.12" y="-172" font-family="Helvetica,sans-Serif" font-size="10.00">buttons.c</text>
</a>
</g>
</g>
<!-- Node2 -->
<g id="Node000002" class="node">
<title>Node2</title>
<g id="a_Node000002"><a xlink:title=" ">
<polygon fill="#e0e0e0" stroke="#999999" points="150.62,-19 97.62,-19 97.62,0 150.62,0 150.62,-19"/>
<text text-anchor="middle" x="124.12" y="-7" font-family="Helvetica,sans-Serif" font-size="10.00">stdint.h</text>
</a>
</g>
</g>
<!-- Node1&#45;&gt;Node2 -->
<g id="edge1_Node000001_Node000002" class="edge">
<title>Node1&#45;&gt;Node2</title>
<g id="a_edge1_Node000001_Node000002"><a xlink:title=" ">
<path fill="none" stroke="#63b8ff" d="M126.01,-174.23C90.91,-173.17 35.21,-165.37 8.12,-129 -23.53,-86.52 50.24,-43.89 94.24,-23.27"/>
<polygon fill="#63b8ff" stroke="#63b8ff" points="95.75,-26.43 103.39,-19.09 92.84,-20.06 95.75,-26.43"/>
</a>
</g>
</g>
<!-- Node3 -->
<g id="Node000003" class="node">
<title>Node3</title>
<g id="a_Node000003"><a xlink:href="../../d1/daf/clock__and__timers_8h.html" target="_top" xlink:title="Contains clocks and timer functions prototypes.">
<polygon fill="white" stroke="#666666" points="128.62,-129 17.62,-129 17.62,-110 128.62,-110 128.62,-129"/>
<text text-anchor="middle" x="73.12" y="-117" font-family="Helvetica,sans-Serif" font-size="10.00">clock_and_timers.h</text>
</a>
</g>
</g>
<!-- Node1&#45;&gt;Node3 -->
<g id="edge2_Node000001_Node000003" class="edge">
<title>Node1&#45;&gt;Node3</title>
<g id="a_edge2_Node000001_Node000003"><a xlink:title=" ">
<path fill="none" stroke="#63b8ff" d="M143.62,-164.98C130.72,-156.84 111.01,-144.41 95.71,-134.76"/>
<polygon fill="#63b8ff" stroke="#63b8ff" points="97.18,-131.55 86.86,-129.17 93.45,-137.47 97.18,-131.55"/>
</a>
</g>
</g>
<!-- Node4 -->
<g id="Node000004" class="node">
<title>Node4</title>
<g id="a_Node000004"><a xlink:href="../../d7/dae/gpio__exti_8h.html" target="_top" xlink:title="Contains GPIO and EXTI hardware abstraction layer prototypes.">
<polygon fill="white" stroke="#666666" points="159.62,-74 88.62,-74 88.62,-55 159.62,-55 159.62,-74"/>
<text text-anchor="middle" x="124.12" y="-62" font-family="Helvetica,sans-Serif" font-size="10.00">gpio_exti.h</text>
</a>
</g>
</g>
<!-- Node1&#45;&gt;Node4 -->
<g id="edge3_Node000001_Node000004" class="edge">
<title>Node1&#45;&gt;Node4</title>
<g id="a_edge3_Node000001_Node000004"><a xlink:title=" ">
<path fill="none" stroke="#63b8ff" d="M154.42,-164.66C149.05,-147.09 136.93,-107.45 129.75,-83.95"/>
<polygon fill="#63b8ff" stroke="#63b8ff" points="133.03,-82.7 126.76,-74.16 126.34,-84.74 133.03,-82.7"/>
</a>
</g>
</g>
<!-- Node5 -->
<g id="Node000005" class="node">
<title>Node5</title>
<g id="a_Node000005"><a xlink:href="../../d8/de2/main__outputs_8h.html" target="_top" xlink:title="Contains functions prototypes for controlling main outputs.">
<polygon fill="white" stroke="#666666" points="270.12,-74 178.12,-74 178.12,-55 270.12,-55 270.12,-74"/>
<text text-anchor="middle" x="224.12" y="-62" font-family="Helvetica,sans-Serif" font-size="10.00">main_outputs.h</text>
</a>
</g>
</g>
<!-- Node1&#45;&gt;Node5 -->
<g id="edge5_Node000001_Node000005" class="edge">
<title>Node1&#45;&gt;Node5</title>
<g id="a_edge5_Node000001_Node000005"><a xlink:title=" ">
<path fill="none" stroke="#63b8ff" d="M162.6,-164.66C173.7,-146.77 198.99,-106 213.45,-82.69"/>
<polygon fill="#63b8ff" stroke="#63b8ff" points="216.45,-84.5 218.74,-74.16 210.5,-80.81 216.45,-84.5"/>
</a>
</g>
</g>
<!-- Node6 -->
<g id="Node000006" class="node">
<title>Node6</title>
<g id="a_Node000006"><a xlink:href="../../de/d05/buttons_8h.html" target="_top" xlink:title="Contains functions prototypes to check the button state in non&#45;blocking mode.">
<polygon fill="white" stroke="#666666" points="285.12,-129 223.12,-129 223.12,-110 285.12,-110 285.12,-129"/>
<text text-anchor="middle" x="254.12" y="-117" font-family="Helvetica,sans-Serif" font-size="10.00">buttons.h</text>
</a>
</g>
</g>
<!-- Node1&#45;&gt;Node6 -->
<g id="edge7_Node000001_Node000006" class="edge">
<title>Node1&#45;&gt;Node6</title>
<g id="a_edge7_Node000001_Node000006"><a xlink:title=" ">
<path fill="none" stroke="#63b8ff" d="M172.7,-164.98C187.88,-156.69 211.21,-143.94 229.01,-134.22"/>
<polygon fill="#63b8ff" stroke="#63b8ff" points="231.15,-137.04 238.25,-129.17 227.79,-130.89 231.15,-137.04"/>
</a>
</g>
</g>
<!-- Node4&#45;&gt;Node2 -->
<g id="edge4_Node000004_Node000002" class="edge">
<title>Node4&#45;&gt;Node2</title>
<g id="a_edge4_Node000004_Node000002"><a xlink:title=" ">
<path fill="none" stroke="#63b8ff" d="M124.12,-54.75C124.12,-47.8 124.12,-37.85 124.12,-29.13"/>
<polygon fill="#63b8ff" stroke="#63b8ff" points="127.62,-29.09 124.12,-19.09 120.62,-29.09 127.62,-29.09"/>
</a>
</g>
</g>
<!-- Node5&#45;&gt;Node2 -->
<g id="edge6_Node000005_Node000002" class="edge">
<title>Node5&#45;&gt;Node2</title>
<g id="a_edge6_Node000005_Node000002"><a xlink:title=" ">
<path fill="none" stroke="#63b8ff" d="M208.05,-54.98C192.25,-46.61 167.9,-33.7 149.49,-23.95"/>
<polygon fill="#63b8ff" stroke="#63b8ff" points="150.95,-20.76 140.47,-19.17 147.67,-26.95 150.95,-20.76"/>
</a>
</g>
</g>
<!-- Node6&#45;&gt;Node5 -->
<g id="edge8_Node000006_Node000005" class="edge">
<title>Node6&#45;&gt;Node5</title>
<g id="a_edge8_Node000006_Node000005"><a xlink:title=" ">
<path fill="none" stroke="#63b8ff" d="M249.16,-109.75C245.06,-102.49 239.09,-91.95 234.01,-82.98"/>
<polygon fill="#63b8ff" stroke="#63b8ff" points="236.95,-81.07 228.98,-74.09 230.86,-84.52 236.95,-81.07"/>
</a>
</g>
</g>
</g>
</svg>
