<?xml version="1.0" encoding="UTF-8" standalone="no"?>
<!DOCTYPE svg PUBLIC "-//W3C//DTD SVG 1.1//EN"
 "http://www.w3.org/Graphics/SVG/1.1/DTD/svg11.dtd">
<!-- Generated by graphviz version 2.43.0 (0)
 -->
<!-- Title: clock_and_timers.c Pages: 1 -->
<svg width="361pt" height="82pt"
 viewBox="0.00 0.00 361.00 82.00" xmlns="http://www.w3.org/2000/svg" xmlns:xlink="http://www.w3.org/1999/xlink">
<g id="graph0" class="graph" transform="scale(1 1) rotate(0) translate(4 78)">
<title>clock_and_timers.c</title>
<!-- Node1 -->
<g id="Node000001" class="node">
<title>Node1</title>
<g id="a_Node000001"><a xlink:title="Contains functions for clock system Project uses HSI without PLL. Clock is ~8Mhz for core and buses.">
<polygon fill="#999999" stroke="#666666" points="196.5,-74 86.5,-74 86.5,-55 196.5,-55 196.5,-74"/>
<text text-anchor="middle" x="141.5" y="-62" font-family="Helvetica,sans-Serif" font-size="10.00">clock_and_timers.c</text>
</a>
</g>
</g>
<!-- Node2 -->
<g id="Node000002" class="node">
<title>Node2</title>
<g id="a_Node000002"><a xlink:title=" ">
<polygon fill="#e0e0e0" stroke="#999999" points="53,-19 0,-19 0,0 53,0 53,-19"/>
<text text-anchor="middle" x="26.5" y="-7" font-family="Helvetica,sans-Serif" font-size="10.00">stdint.h</text>
</a>
</g>
</g>
<!-- Node1&#45;&gt;Node2 -->
<g id="edge1_Node000001_Node000002" class="edge">
<title>Node1&#45;&gt;Node2</title>
<g id="a_edge1_Node000001_Node000002"><a xlink:title=" ">
<path fill="none" stroke="#63b8ff" d="M123.02,-54.98C104.52,-46.46 75.82,-33.23 54.52,-23.41"/>
<polygon fill="#63b8ff" stroke="#63b8ff" points="55.86,-20.18 45.31,-19.17 52.93,-26.53 55.86,-20.18"/>
</a>
</g>
</g>
<!-- Node3 -->
<g id="Node000003" class="node">
<title>Node3</title>
<g id="a_Node000003"><a xlink:title=" ">
<polygon fill="#e0e0e0" stroke="#999999" points="127.5,-19 71.5,-19 71.5,0 127.5,0 127.5,-19"/>
<text text-anchor="middle" x="99.5" y="-7" font-family="Helvetica,sans-Serif" font-size="10.00">stddef.h</text>
</a>
</g>
</g>
<!-- Node1&#45;&gt;Node3 -->
<g id="edge2_Node000001_Node000003" class="edge">
<title>Node1&#45;&gt;Node3</title>
<g id="a_edge2_Node000001_Node000003"><a xlink:title=" ">
<path fill="none" stroke="#63b8ff" d="M134.56,-54.75C128.63,-47.26 119.93,-36.28 112.68,-27.13"/>
<polygon fill="#63b8ff" stroke="#63b8ff" points="115.26,-24.75 106.31,-19.09 109.77,-29.1 115.26,-24.75"/>
</a>
</g>
</g>
<!-- Node4 -->
<g id="Node000004" class="node">
<title>Node4</title>
<g id="a_Node000004"><a xlink:title=" ">
<polygon fill="#e0e0e0" stroke="#999999" points="223.5,-19 145.5,-19 145.5,0 223.5,0 223.5,-19"/>
<text text-anchor="middle" x="184.5" y="-7" font-family="Helvetica,sans-Serif" font-size="10.00">stm32f0xx.h</text>
</a>
</g>
</g>
<!-- Node1&#45;&gt;Node4 -->
<g id="edge3_Node000001_Node000004" class="edge">
<title>Node1&#45;&gt;Node4</title>
<g id="a_edge3_Node000001_Node000004"><a xlink:title=" ">
<path fill="none" stroke="#63b8ff" d="M148.6,-54.75C154.67,-47.26 163.59,-36.28 171.01,-27.13"/>
<polygon fill="#63b8ff" stroke="#63b8ff" points="173.95,-29.06 177.53,-19.09 168.51,-24.65 173.95,-29.06"/>
</a>
</g>
</g>
<!-- Node5 -->
<g id="Node000005" class="node">
<title>Node5</title>
<g id="a_Node000005"><a xlink:href="../../d1/daf/clock__and__timers_8h.html" target="_top" xlink:title="Contains clocks and timer functions prototypes.">
<polygon fill="white" stroke="#666666" points="353,-19 242,-19 242,0 353,0 353,-19"/>
<text text-anchor="middle" x="297.5" y="-7" font-family="Helvetica,sans-Serif" font-size="10.00">clock_and_timers.h</text>
</a>
</g>
</g>
<!-- Node1&#45;&gt;Node5 -->
<g id="edge4_Node000001_Node000005" class="edge">
<title>Node1&#45;&gt;Node5</title>
<g id="a_edge4_Node000001_Node000005"><a xlink:title=" ">
<path fill="none" stroke="#63b8ff" d="M166.56,-54.98C192.53,-46.16 233.31,-32.31 262.46,-22.41"/>
<polygon fill="#63b8ff" stroke="#63b8ff" points="263.9,-25.61 272.24,-19.08 261.65,-18.99 263.9,-25.61"/>
</a>
</g>
</g>
</g>
</svg>
