<?xml version="1.0" encoding="UTF-8" standalone="no"?>
<!DOCTYPE svg PUBLIC "-//W3C//DTD SVG 1.1//EN"
 "http://www.w3.org/Graphics/SVG/1.1/DTD/svg11.dtd">
<!-- Generated by graphviz version 2.43.0 (0)
 -->
<!-- Title: Blink_Led Pages: 1 -->
<svg width="197pt" height="101pt"
 viewBox="0.00 0.00 197.00 101.00" xmlns="http://www.w3.org/2000/svg" xmlns:xlink="http://www.w3.org/1999/xlink">
<g id="graph0" class="graph" transform="scale(1 1) rotate(0) translate(4 97)">
<title>Blink_Led</title>
<!-- Node1 -->
<g id="Node000001" class="node">
<title>Node1</title>
<g id="a_Node000001"><a xlink:title="Pass&#45;through function for led blinking Blinking is done according to the selected mode using the Blin...">
<polygon fill="#999999" stroke="#666666" points="64,-56 0,-56 0,-37 64,-37 64,-56"/>
<text text-anchor="middle" x="32" y="-44" font-family="Helvetica,sans-Serif" font-size="10.00">Blink_Led</text>
</a>
</g>
</g>
<!-- Node2 -->
<g id="Node000002" class="node">
<title>Node2</title>
<g id="a_Node000002"><a xlink:href="../../de/d3c/main__outputs_8c.html#a812635e7cb53ee129e91f95de7cd4c14" target="_top" xlink:title=" ">
<polygon fill="white" stroke="#666666" points="177,-93 112,-93 112,-74 177,-74 177,-93"/>
<text text-anchor="middle" x="144.5" y="-81" font-family="Helvetica,sans-Serif" font-size="10.00">Get_State</text>
</a>
</g>
</g>
<!-- Node1&#45;&gt;Node2 -->
<g id="edge1_Node000001_Node000002" class="edge">
<title>Node1&#45;&gt;Node2</title>
<g id="a_edge1_Node000001_Node000002"><a xlink:title=" ">
<path fill="none" stroke="#63b8ff" d="M61.46,-56.03C74.76,-60.48 90.79,-65.85 105.14,-70.66"/>
<polygon fill="#63b8ff" stroke="#63b8ff" points="104.16,-74.02 114.76,-73.88 106.38,-67.38 104.16,-74.02"/>
</a>
</g>
</g>
<!-- Node3 -->
<g id="Node000003" class="node">
<title>Node3</title>
<g id="a_Node000003"><a xlink:href="../../db/de5/clock__and__timers_8c.html#a8a4e699fbe055adaac0e209980ed3288" target="_top" xlink:title="Checks if timer timeout has expired.">
<polygon fill="white" stroke="#666666" points="189,-56 100,-56 100,-37 189,-37 189,-56"/>
<text text-anchor="middle" x="144.5" y="-44" font-family="Helvetica,sans-Serif" font-size="10.00">IsExpiredTimer</text>
</a>
</g>
</g>
<!-- Node1&#45;&gt;Node3 -->
<g id="edge2_Node000001_Node000003" class="edge">
<title>Node1&#45;&gt;Node3</title>
<g id="a_edge2_Node000001_Node000003"><a xlink:title=" ">
<path fill="none" stroke="#63b8ff" d="M64.07,-46.5C72.06,-46.5 80.88,-46.5 89.65,-46.5"/>
<polygon fill="#63b8ff" stroke="#63b8ff" points="89.88,-50 99.88,-46.5 89.88,-43 89.88,-50"/>
</a>
</g>
</g>
<!-- Node4 -->
<g id="Node000004" class="node">
<title>Node4</title>
<g id="a_Node000004"><a xlink:href="../../db/de5/clock__and__timers_8c.html#aa9cb67dffbf08af7059377c84e10d7e4" target="_top" xlink:title="Resets software timer.">
<polygon fill="white" stroke="#666666" points="180.5,-19 108.5,-19 108.5,0 180.5,0 180.5,-19"/>
<text text-anchor="middle" x="144.5" y="-7" font-family="Helvetica,sans-Serif" font-size="10.00">ResetTimer</text>
</a>
</g>
</g>
<!-- Node1&#45;&gt;Node4 -->
<g id="edge3_Node000001_Node000004" class="edge">
<title>Node1&#45;&gt;Node4</title>
<g id="a_edge3_Node000001_Node000004"><a xlink:title=" ">
<path fill="none" stroke="#63b8ff" d="M61.46,-36.97C74.76,-32.52 90.79,-27.15 105.14,-22.34"/>
<polygon fill="#63b8ff" stroke="#63b8ff" points="106.38,-25.62 114.76,-19.12 104.16,-18.98 106.38,-25.62"/>
</a>
</g>
</g>
</g>
</svg>
