<?xml version="1.0" encoding="UTF-8" standalone="no"?>
<!DOCTYPE svg PUBLIC "-//W3C//DTD SVG 1.1//EN"
 "http://www.w3.org/Graphics/SVG/1.1/DTD/svg11.dtd">
<!-- Generated by graphviz version 2.43.0 (0)
 -->
<!-- Title: Control_Outs Pages: 1 -->
<svg width="216pt" height="175pt"
 viewBox="0.00 0.00 216.00 175.00" xmlns="http://www.w3.org/2000/svg" xmlns:xlink="http://www.w3.org/1999/xlink">

<svg id="main" version="1.1" xmlns="http://www.w3.org/2000/svg" xmlns:xlink="http://www.w3.org/1999/xlink" xml:space="preserve">

<style type="text/css"><![CDATA[
.node, .edge {opacity: 0.7;}
.node.selected, .edge.selected {opacity: 1;}
.edge:hover path { stroke: red; }
.edge:hover polygon { stroke: red; fill: red; }
]]></style>
<script type="application/ecmascript" xlink:href="../../svg.min.js"/>
<svg id="graph" class="graph">
<g id="graph0" class="graph" transform="scale(1 1) rotate(0) translate(4 171)">
<title>Control_Outs</title>
<!-- Node1 -->
<g id="Node000001" class="node">
<title>Node1</title>
<g id="a_Node000001"><a xlink:title="Controls outputs for the current time.">
<polygon fill="#999999" stroke="#666666" points="80,-93 0,-93 0,-74 80,-74 80,-93"/>
<text text-anchor="middle" x="40" y="-81" font-family="Helvetica,sans-Serif" font-size="10.00">Control_Outs</text>
</a>
</g>
</g>
<!-- Node2 -->
<g id="Node000002" class="node">
<title>Node2</title>
<g id="a_Node000002"><a xlink:href="../../de/d3c/main__outputs_8c.html#a812635e7cb53ee129e91f95de7cd4c14" target="_top" xlink:title=" ">
<polygon fill="white" stroke="#666666" points="194.5,-167 129.5,-167 129.5,-148 194.5,-148 194.5,-167"/>
<text text-anchor="middle" x="162" y="-155" font-family="Helvetica,sans-Serif" font-size="10.00">Get_State</text>
</a>
</g>
</g>
<!-- Node1&#45;&gt;Node2 -->
<g id="edge1_Node000001_Node000002" class="edge">
<title>Node1&#45;&gt;Node2</title>
<g id="a_edge1_Node000001_Node000002"><a xlink:title=" ">
<path fill="none" stroke="#63b8ff" d="M52.05,-93.22C66.14,-105.25 91.62,-125.83 116,-139.5 118.7,-141.01 121.56,-142.47 124.47,-143.84"/>
<polygon fill="#63b8ff" stroke="#63b8ff" points="123.25,-147.13 133.82,-147.96 126.07,-140.72 123.25,-147.13"/>
</a>
</g>
</g>
<!-- Node3 -->
<g id="Node000003" class="node">
<title>Node3</title>
<g id="a_Node000003"><a xlink:href="../../d2/da8/gpio__exti_8c.html#a2eaab98c926e448a6e93701b03612772" target="_top" xlink:title=" ">
<polygon fill="white" stroke="#666666" points="208,-130 116,-130 116,-111 208,-111 208,-130"/>
<text text-anchor="middle" x="162" y="-118" font-family="Helvetica,sans-Serif" font-size="10.00">Gpio_Reset_Pin</text>
</a>
</g>
</g>
<!-- Node1&#45;&gt;Node3 -->
<g id="edge2_Node000001_Node000003" class="edge">
<title>Node1&#45;&gt;Node3</title>
<g id="a_edge2_Node000001_Node000003"><a xlink:title=" ">
<path fill="none" stroke="#63b8ff" d="M71.9,-93.03C86.49,-97.52 104.1,-102.95 119.79,-107.8"/>
<polygon fill="#63b8ff" stroke="#63b8ff" points="119.2,-111.27 129.78,-110.88 121.26,-104.58 119.2,-111.27"/>
</a>
</g>
</g>
<!-- Node4 -->
<g id="Node000004" class="node">
<title>Node4</title>
<g id="a_Node000004"><a xlink:href="../../d2/da8/gpio__exti_8c.html#a0975a2cf0136c0695f87e6260079ff83" target="_top" xlink:title=" ">
<polygon fill="white" stroke="#666666" points="202,-93 122,-93 122,-74 202,-74 202,-93"/>
<text text-anchor="middle" x="162" y="-81" font-family="Helvetica,sans-Serif" font-size="10.00">Gpio_Set_Pin</text>
</a>
</g>
</g>
<!-- Node1&#45;&gt;Node4 -->
<g id="edge3_Node000001_Node000004" class="edge">
<title>Node1&#45;&gt;Node4</title>
<g id="a_edge3_Node000001_Node000004"><a xlink:title=" ">
<path fill="none" stroke="#63b8ff" d="M80.29,-83.5C90.24,-83.5 101.05,-83.5 111.43,-83.5"/>
<polygon fill="#63b8ff" stroke="#63b8ff" points="111.62,-87 121.62,-83.5 111.62,-80 111.62,-87"/>
</a>
</g>
</g>
<!-- Node5 -->
<g id="Node000005" class="node">
<title>Node5</title>
<g id="a_Node000005"><a xlink:href="../../db/de5/clock__and__timers_8c.html#a0916a7747db1d64daf21e3862c550fb0" target="_top" xlink:title=" ">
<polygon fill="white" stroke="#666666" points="196.5,-56 127.5,-56 127.5,-37 196.5,-37 196.5,-56"/>
<text text-anchor="middle" x="162" y="-44" font-family="Helvetica,sans-Serif" font-size="10.00">ReadTimer</text>
</a>
</g>
</g>
<!-- Node1&#45;&gt;Node5 -->
<g id="edge4_Node000001_Node000005" class="edge">
<title>Node1&#45;&gt;Node5</title>
<g id="a_edge4_Node000001_Node000005"><a xlink:title=" ">
<path fill="none" stroke="#63b8ff" d="M71.9,-73.97C86.49,-69.48 104.1,-64.05 119.79,-59.2"/>
<polygon fill="#63b8ff" stroke="#63b8ff" points="121.26,-62.42 129.78,-56.12 119.2,-55.73 121.26,-62.42"/>
</a>
</g>
</g>
<!-- Node6 -->
<g id="Node000006" class="node">
<title>Node6</title>
<g id="a_Node000006"><a xlink:href="../../db/de5/clock__and__timers_8c.html#aa9cb67dffbf08af7059377c84e10d7e4" target="_top" xlink:title="Resets software timer.">
<polygon fill="white" stroke="#666666" points="198,-19 126,-19 126,0 198,0 198,-19"/>
<text text-anchor="middle" x="162" y="-7" font-family="Helvetica,sans-Serif" font-size="10.00">ResetTimer</text>
</a>
</g>
</g>
<!-- Node1&#45;&gt;Node6 -->
<g id="edge5_Node000001_Node000006" class="edge">
<title>Node1&#45;&gt;Node6</title>
<g id="a_edge5_Node000001_Node000006"><a xlink:title=" ">
<path fill="none" stroke="#63b8ff" d="M52.62,-73.64C66.89,-61.86 92.13,-42.05 116,-28.5 119.21,-26.68 122.64,-24.92 126.1,-23.27"/>
<polygon fill="#63b8ff" stroke="#63b8ff" points="127.59,-26.44 135.28,-19.14 124.72,-20.05 127.59,-26.44"/>
</a>
</g>
</g>
</g>
</svg>
</svg>

<style type='text/css'>
<![CDATA[
[data-mouse-over-selected='false'] { opacity: 0.7; }
[data-mouse-over-selected='true']  { opacity: 1.0; }
]]>
</style>
<script type="application/ecmascript"><![CDATA[
document.addEventListener('DOMContentLoaded', (event) => {
  highlightEdges();
  highlightAdjacentNodes();
});
]]></script>
</svg>
