<?xml version="1.0" encoding="UTF-8" standalone="no"?>
<!DOCTYPE svg PUBLIC "-//W3C//DTD SVG 1.1//EN"
 "http://www.w3.org/Graphics/SVG/1.1/DTD/svg11.dtd">
<!-- Generated by graphviz version 2.43.0 (0)
 -->
<!-- Title: mainCycleRun Pages: 1 -->
<svg width="366pt" height="212pt"
 viewBox="0.00 0.00 366.00 212.00" xmlns="http://www.w3.org/2000/svg" xmlns:xlink="http://www.w3.org/1999/xlink">
<g id="graph0" class="graph" transform="scale(1 1) rotate(0) translate(4 208)">
<title>mainCycleRun</title>
<!-- Node1 -->
<g id="Node000001" class="node">
<title>Node1</title>
<g id="a_Node000001"><a xlink:title="This function is called in while(1). Waiting for the end of the tick is done after it.">
<polygon fill="#999999" stroke="#666666" points="87,-129 0,-129 0,-110 87,-110 87,-129"/>
<text text-anchor="middle" x="43.5" y="-117" font-family="Helvetica,sans-Serif" font-size="10.00">mainCycleRun</text>
</a>
</g>
</g>
<!-- Node2 -->
<g id="Node000002" class="node">
<title>Node2</title>
<g id="a_Node000002"><a xlink:href="../../d6/dcc/led__control_8c.html#a872fed270274a9aa12e27f960c6f4310" target="_top" xlink:title="Pass&#45;through function for led blinking Blinking is done according to the selected mode using the Blin...">
<polygon fill="white" stroke="#666666" points="208.5,-148 144.5,-148 144.5,-129 208.5,-129 208.5,-148"/>
<text text-anchor="middle" x="176.5" y="-136" font-family="Helvetica,sans-Serif" font-size="10.00">Blink_Led</text>
</a>
</g>
</g>
<!-- Node1&#45;&gt;Node2 -->
<g id="edge1_Node000001_Node000002" class="edge">
<title>Node1&#45;&gt;Node2</title>
<g id="a_edge1_Node000001_Node000002"><a xlink:title=" ">
<path fill="none" stroke="#63b8ff" d="M87.03,-125.67C102.21,-127.87 119.27,-130.34 134.33,-132.53"/>
<polygon fill="#63b8ff" stroke="#63b8ff" points="133.98,-136.02 144.38,-133.99 134.99,-129.09 133.98,-136.02"/>
</a>
</g>
</g>
<!-- Node6 -->
<g id="Node000006" class="node">
<title>Node6</title>
<g id="a_Node000006"><a xlink:href="../../d4/dfb/buttons_8c.html#a9a427615b5b0180063d3cd746028d630" target="_top" xlink:title=" ">
<polygon fill="white" stroke="#666666" points="230,-185 123,-185 123,-166 230,-166 230,-185"/>
<text text-anchor="middle" x="176.5" y="-173" font-family="Helvetica,sans-Serif" font-size="10.00">Buttons_Get_State</text>
</a>
</g>
</g>
<!-- Node1&#45;&gt;Node6 -->
<g id="edge5_Node000001_Node000006" class="edge">
<title>Node1&#45;&gt;Node6</title>
<g id="a_edge5_Node000001_Node000006"><a xlink:title=" ">
<path fill="none" stroke="#63b8ff" d="M62.61,-129.04C78.35,-137.14 101.86,-148.8 123,-157.5 127.17,-159.22 131.57,-160.91 135.98,-162.53"/>
<polygon fill="#63b8ff" stroke="#63b8ff" points="134.96,-165.88 145.56,-165.93 137.31,-159.28 134.96,-165.88"/>
</a>
</g>
</g>
<!-- Node7 -->
<g id="Node000007" class="node">
<title>Node7</title>
<g id="a_Node000007"><a xlink:href="../../de/d3c/main__outputs_8c.html#ae519b4ef0866735b739fb95362a031f9" target="_top" xlink:title="Controls outputs for the current time.">
<polygon fill="white" stroke="#666666" points="216.5,-111 136.5,-111 136.5,-92 216.5,-92 216.5,-111"/>
<text text-anchor="middle" x="176.5" y="-99" font-family="Helvetica,sans-Serif" font-size="10.00">Control_Outs</text>
</a>
</g>
</g>
<!-- Node1&#45;&gt;Node7 -->
<g id="edge8_Node000001_Node000007" class="edge">
<title>Node1&#45;&gt;Node7</title>
<g id="a_edge8_Node000001_Node000007"><a xlink:title=" ">
<path fill="none" stroke="#63b8ff" d="M87.03,-113.66C99.53,-111.94 113.3,-110.05 126.19,-108.28"/>
<polygon fill="#63b8ff" stroke="#63b8ff" points="126.86,-111.72 136.29,-106.89 125.9,-104.78 126.86,-111.72"/>
</a>
</g>
</g>
<!-- Node11 -->
<g id="Node000011" class="node">
<title>Node11</title>
<g id="a_Node000011"><a xlink:href="../../de/d3c/main__outputs_8c.html#a504328a660a224b76949cb1c90b80e78" target="_top" xlink:title=" ">
<polygon fill="white" stroke="#666666" points="208,-74 145,-74 145,-55 208,-55 208,-74"/>
<text text-anchor="middle" x="176.5" y="-62" font-family="Helvetica,sans-Serif" font-size="10.00">Set_State</text>
</a>
</g>
</g>
<!-- Node1&#45;&gt;Node11 -->
<g id="edge14_Node000001_Node000011" class="edge">
<title>Node1&#45;&gt;Node11</title>
<g id="a_edge14_Node000001_Node000011"><a xlink:title=" ">
<path fill="none" stroke="#63b8ff" d="M64.3,-109.87C80.06,-102.34 102.74,-91.79 123,-83.5 127.87,-81.51 133.02,-79.51 138.14,-77.59"/>
<polygon fill="#63b8ff" stroke="#63b8ff" points="139.64,-80.77 147.82,-74.03 137.22,-74.2 139.64,-80.77"/>
</a>
</g>
</g>
<!-- Node3 -->
<g id="Node000003" class="node">
<title>Node3</title>
<g id="a_Node000003"><a xlink:href="../../de/d3c/main__outputs_8c.html#a812635e7cb53ee129e91f95de7cd4c14" target="_top" xlink:title=" ">
<polygon fill="white" stroke="#666666" points="344.5,-130 279.5,-130 279.5,-111 344.5,-111 344.5,-130"/>
<text text-anchor="middle" x="312" y="-118" font-family="Helvetica,sans-Serif" font-size="10.00">Get_State</text>
</a>
</g>
</g>
<!-- Node2&#45;&gt;Node3 -->
<g id="edge2_Node000002_Node000003" class="edge">
<title>Node2&#45;&gt;Node3</title>
<g id="a_edge2_Node000002_Node000003"><a xlink:title=" ">
<path fill="none" stroke="#63b8ff" d="M208.8,-134.28C226.83,-131.85 249.72,-128.76 269.27,-126.13"/>
<polygon fill="#63b8ff" stroke="#63b8ff" points="269.99,-129.56 279.43,-124.76 269.06,-122.62 269.99,-129.56"/>
</a>
</g>
</g>
<!-- Node4 -->
<g id="Node000004" class="node">
<title>Node4</title>
<g id="a_Node000004"><a xlink:href="../../db/de5/clock__and__timers_8c.html#a8a4e699fbe055adaac0e209980ed3288" target="_top" xlink:title="Checks if timer timeout has expired.">
<polygon fill="white" stroke="#666666" points="356.5,-204 267.5,-204 267.5,-185 356.5,-185 356.5,-204"/>
<text text-anchor="middle" x="312" y="-192" font-family="Helvetica,sans-Serif" font-size="10.00">IsExpiredTimer</text>
</a>
</g>
</g>
<!-- Node2&#45;&gt;Node4 -->
<g id="edge3_Node000002_Node000004" class="edge">
<title>Node2&#45;&gt;Node4</title>
<g id="a_edge3_Node000002_Node000004"><a xlink:title=" ">
<path fill="none" stroke="#63b8ff" d="M206.12,-148.05C213.95,-150.88 222.38,-154.13 230,-157.5 246.55,-164.82 249.58,-168.91 266,-176.5 269.23,-177.99 272.62,-179.48 276.03,-180.93"/>
<polygon fill="#63b8ff" stroke="#63b8ff" points="274.99,-184.29 285.57,-184.87 277.66,-177.82 274.99,-184.29"/>
</a>
</g>
</g>
<!-- Node5 -->
<g id="Node000005" class="node">
<title>Node5</title>
<g id="a_Node000005"><a xlink:href="../../db/de5/clock__and__timers_8c.html#aa9cb67dffbf08af7059377c84e10d7e4" target="_top" xlink:title="Resets software timer.">
<polygon fill="white" stroke="#666666" points="348,-167 276,-167 276,-148 348,-148 348,-167"/>
<text text-anchor="middle" x="312" y="-155" font-family="Helvetica,sans-Serif" font-size="10.00">ResetTimer</text>
</a>
</g>
</g>
<!-- Node2&#45;&gt;Node5 -->
<g id="edge4_Node000002_Node000005" class="edge">
<title>Node2&#45;&gt;Node5</title>
<g id="a_edge4_Node000002_Node000005"><a xlink:title=" ">
<path fill="none" stroke="#63b8ff" d="M208.8,-142.95C225.71,-145.36 246.89,-148.38 265.58,-151.04"/>
<polygon fill="#63b8ff" stroke="#63b8ff" points="265.27,-154.53 275.66,-152.47 266.25,-147.6 265.27,-154.53"/>
</a>
</g>
</g>
<!-- Node6&#45;&gt;Node4 -->
<g id="edge6_Node000006_Node000004" class="edge">
<title>Node6&#45;&gt;Node4</title>
<g id="a_edge6_Node000006_Node000004"><a xlink:title=" ">
<path fill="none" stroke="#63b8ff" d="M230.26,-183.01C239.06,-184.26 248.2,-185.56 257.03,-186.82"/>
<polygon fill="#63b8ff" stroke="#63b8ff" points="256.82,-190.32 267.22,-188.27 257.81,-183.39 256.82,-190.32"/>
</a>
</g>
</g>
<!-- Node6&#45;&gt;Node5 -->
<g id="edge7_Node000006_Node000005" class="edge">
<title>Node6&#45;&gt;Node5</title>
<g id="a_edge7_Node000006_Node000005"><a xlink:title=" ">
<path fill="none" stroke="#63b8ff" d="M230.26,-168.39C241.98,-166.81 254.3,-165.14 265.69,-163.61"/>
<polygon fill="#63b8ff" stroke="#63b8ff" points="266.4,-167.05 275.84,-162.24 265.46,-160.11 266.4,-167.05"/>
</a>
</g>
</g>
<!-- Node7&#45;&gt;Node3 -->
<g id="edge9_Node000007_Node000003" class="edge">
<title>Node7&#45;&gt;Node3</title>
<g id="a_edge9_Node000007_Node000003"><a xlink:title=" ">
<path fill="none" stroke="#63b8ff" d="M216.83,-107.1C233.27,-109.44 252.38,-112.16 269.08,-114.53"/>
<polygon fill="#63b8ff" stroke="#63b8ff" points="268.73,-118.02 279.12,-115.96 269.71,-111.09 268.73,-118.02"/>
</a>
</g>
</g>
<!-- Node7&#45;&gt;Node5 -->
<g id="edge13_Node000007_Node000005" class="edge">
<title>Node7&#45;&gt;Node5</title>
<g id="a_edge13_Node000007_Node000005"><a xlink:title=" ">
<path fill="none" stroke="#63b8ff" d="M206.12,-111.05C213.95,-113.88 222.38,-117.13 230,-120.5 246.55,-127.82 249.58,-131.91 266,-139.5 269.23,-140.99 272.62,-142.48 276.03,-143.93"/>
<polygon fill="#63b8ff" stroke="#63b8ff" points="274.99,-147.29 285.57,-147.87 277.66,-140.82 274.99,-147.29"/>
</a>
</g>
</g>
<!-- Node8 -->
<g id="Node000008" class="node">
<title>Node8</title>
<g id="a_Node000008"><a xlink:href="../../d2/da8/gpio__exti_8c.html#a2eaab98c926e448a6e93701b03612772" target="_top" xlink:title=" ">
<polygon fill="white" stroke="#666666" points="358,-93 266,-93 266,-74 358,-74 358,-93"/>
<text text-anchor="middle" x="312" y="-81" font-family="Helvetica,sans-Serif" font-size="10.00">Gpio_Reset_Pin</text>
</a>
</g>
</g>
<!-- Node7&#45;&gt;Node8 -->
<g id="edge10_Node000007_Node000008" class="edge">
<title>Node7&#45;&gt;Node8</title>
<g id="a_edge10_Node000007_Node000008"><a xlink:title=" ">
<path fill="none" stroke="#63b8ff" d="M216.83,-96.2C228.97,-94.56 242.57,-92.73 255.58,-90.97"/>
<polygon fill="#63b8ff" stroke="#63b8ff" points="256.41,-94.39 265.85,-89.59 255.47,-87.46 256.41,-94.39"/>
</a>
</g>
</g>
<!-- Node9 -->
<g id="Node000009" class="node">
<title>Node9</title>
<g id="a_Node000009"><a xlink:href="../../d2/da8/gpio__exti_8c.html#a0975a2cf0136c0695f87e6260079ff83" target="_top" xlink:title=" ">
<polygon fill="white" stroke="#666666" points="352,-56 272,-56 272,-37 352,-37 352,-56"/>
<text text-anchor="middle" x="312" y="-44" font-family="Helvetica,sans-Serif" font-size="10.00">Gpio_Set_Pin</text>
</a>
</g>
</g>
<!-- Node7&#45;&gt;Node9 -->
<g id="edge11_Node000007_Node000009" class="edge">
<title>Node7&#45;&gt;Node9</title>
<g id="a_edge11_Node000007_Node000009"><a xlink:title=" ">
<path fill="none" stroke="#63b8ff" d="M207.47,-92C214.9,-89.43 222.8,-86.52 230,-83.5 246.5,-76.58 249.75,-72.98 266,-65.5 269.9,-63.7 274.02,-61.88 278.11,-60.1"/>
<polygon fill="#63b8ff" stroke="#63b8ff" points="279.7,-63.23 287.52,-56.08 276.95,-56.79 279.7,-63.23"/>
</a>
</g>
</g>
<!-- Node10 -->
<g id="Node000010" class="node">
<title>Node10</title>
<g id="a_Node000010"><a xlink:href="../../db/de5/clock__and__timers_8c.html#a0916a7747db1d64daf21e3862c550fb0" target="_top" xlink:title=" ">
<polygon fill="white" stroke="#666666" points="346.5,-19 277.5,-19 277.5,0 346.5,0 346.5,-19"/>
<text text-anchor="middle" x="312" y="-7" font-family="Helvetica,sans-Serif" font-size="10.00">ReadTimer</text>
</a>
</g>
</g>
<!-- Node7&#45;&gt;Node10 -->
<g id="edge12_Node000007_Node000010" class="edge">
<title>Node7&#45;&gt;Node10</title>
<g id="a_edge12_Node000007_Node000010"><a xlink:title=" ">
<path fill="none" stroke="#63b8ff" d="M215.52,-91.92C220.68,-89.66 225.68,-86.89 230,-83.5 253.29,-65.25 243.18,-46.33 266,-27.5 267.51,-26.25 269.11,-25.09 270.79,-23.99"/>
<polygon fill="#63b8ff" stroke="#63b8ff" points="272.52,-27.03 279.57,-19.12 269.13,-20.91 272.52,-27.03"/>
</a>
</g>
</g>
</g>
</svg>
