<?xml version="1.0" encoding="UTF-8" standalone="no"?>
<!DOCTYPE svg PUBLIC "-//W3C//DTD SVG 1.1//EN"
 "http://www.w3.org/Graphics/SVG/1.1/DTD/svg11.dtd">
<!-- Generated by graphviz version 2.43.0 (0)
 -->
<!-- Title: main Pages: 1 -->
<!--zoomable 468 -->

<svg id="main" version="1.1" xmlns="http://www.w3.org/2000/svg" xmlns:xlink="http://www.w3.org/1999/xlink" xml:space="preserve" onload="init(evt)">

<style type="text/css"><![CDATA[
.node, .edge {opacity: 0.7;}
.node.selected, .edge.selected {opacity: 1;}
.edge:hover path { stroke: red; }
.edge:hover polygon { stroke: red; fill: red; }
]]></style>

<defs>
  <circle id="rim" cx="0" cy="0" r="7"/>
  <circle id="rim2" cx="0" cy="0" r="3.5"/>
  <g id="zoomPlus">
    <use xlink:href="#rim" fill="#404040"><set attributeName="fill" to="#808080" begin="zoomplus.mouseover" end="zoomplus.mouseout"/></use>
    <path d="M-4,0h8M0,-4v8" fill="none" stroke="white" stroke-width="1.5" pointer-events="none"/>
  </g>
  <g id="zoomMin">
    <use xlink:href="#rim" fill="#404040"><set attributeName="fill" to="#808080" begin="zoomminus.mouseover" end="zoomminus.mouseout"/></use>
    <path d="M-4,0h8" fill="none" stroke="white" stroke-width="1.5" pointer-events="none"/>
  </g>
  <g id="arrowUp" transform="translate(30 24)">
    <use xlink:href="#rim"/>
    <path pointer-events="none" fill="none" stroke="white" stroke-width="1.5" d="M0,-3.0v7 M-2.5,-0.5L0,-3.0L2.5,-0.5"/>
  </g>
  <g id="arrowRight" transform="rotate(90) translate(36 -43)">
    <use xlink:href="#rim"/>
    <path pointer-events="none" fill="none" stroke="white" stroke-width="1.5" d="M0,-3.0v7 M-2.5,-0.5L0,-3.0L2.5,-0.5"/>
  </g>
  <g id="arrowDown" transform="rotate(180) translate(-30 -48)">
    <use xlink:href="#rim"/>
    <path pointer-events="none" fill="none" stroke="white" stroke-width="1.5" d="M0,-3.0v7 M-2.5,-0.5L0,-3.0L2.5,-0.5"/>
  </g>
  <g id="arrowLeft" transform="rotate(270) translate(-36 17)">
    <use xlink:href="#rim"/>
    <path pointer-events="none" fill="none" stroke="white" stroke-width="1.5" d="M0,-3.0v7 M-2.5,-0.5L0,-3.0L2.5,-0.5"/>
  </g>
  <g id="resetDef">
    <use xlink:href="#rim2" fill="#404040"><set attributeName="fill" to="#808080" begin="reset.mouseover" end="reset.mouseout"/></use>
  </g>
</defs>
<script type="application/ecmascript">
var viewWidth = 453;
var viewHeight = 468;
var sectionId = 'dynsection-1';
</script>
<script type="application/ecmascript" xlink:href="../../svg.min.js"/>
<svg id="graph" class="graph">
<g id="viewport">
<title>main</title>
<!-- Node1 -->
<g id="Node000001" class="node">
<title>Node1</title>
<g id="a_Node000001"><a xlink:title=" ">
<polygon fill="#999999" stroke="#666666" points="41,-225 0,-225 0,-206 41,-206 41,-225"/>
<text text-anchor="middle" x="20.5" y="-213" font-family="Helvetica,sans-Serif" font-size="10.00">main</text>
</a>
</g>
</g>
<!-- Node2 -->
<g id="Node000002" class="node">
<title>Node2</title>
<g id="a_Node000002"><a xlink:href="../../d4/dfb/buttons_8c.html#a9a427615b5b0180063d3cd746028d630" target="_top" xlink:title=" ">
<polygon fill="white" stroke="#666666" points="312,-432 205,-432 205,-413 312,-413 312,-432"/>
<text text-anchor="middle" x="258.5" y="-420" font-family="Helvetica,sans-Serif" font-size="10.00">Buttons_Get_State</text>
</a>
</g>
</g>
<!-- Node1&#45;&gt;Node2 -->
<g id="edge1_Node000001_Node000002" class="edge">
<title>Node1&#45;&gt;Node2</title>
<g id="a_edge1_Node000001_Node000002"><a xlink:title=" ">
<path fill="none" stroke="#63b8ff" d="M22.15,-225.29C24.45,-252.09 34.57,-327.32 77,-367.5 108.77,-397.59 156.52,-411.25 194.93,-417.44"/>
<polygon fill="#63b8ff" stroke="#63b8ff" points="194.58,-420.92 204.99,-418.92 195.61,-414 194.58,-420.92"/>
</a>
</g>
</g>
<!-- Node3 -->
<g id="Node000003" class="node">
<title>Node3</title>
<g id="a_Node000003"><a xlink:href="../../db/de5/clock__and__timers_8c.html#a8a4e699fbe055adaac0e209980ed3288" target="_top" xlink:title="Checks if timer timeout has expired.">
<polygon fill="white" stroke="#666666" points="443.5,-413 354.5,-413 354.5,-394 443.5,-394 443.5,-413"/>
<text text-anchor="middle" x="399" y="-401" font-family="Helvetica,sans-Serif" font-size="10.00">IsExpiredTimer</text>
</a>
</g>
</g>
<!-- Node1&#45;&gt;Node3 -->
<g id="edge9_Node000001_Node000003" class="edge">
<title>Node1&#45;&gt;Node3</title>
<g id="a_edge9_Node000001_Node000003"><a xlink:title=" ">
<path fill="none" stroke="#63b8ff" d="M21.39,-225.2C21.6,-255.75 26.47,-351.02 77,-402.5 152.7,-479.62 211.52,-465.01 317,-441.5 337.21,-436.99 358.34,-426.87 373.95,-418.21"/>
<polygon fill="#63b8ff" stroke="#63b8ff" points="375.97,-421.09 382.9,-413.07 372.49,-415.02 375.97,-421.09"/>
</a>
</g>
</g>
<!-- Node4 -->
<g id="Node000004" class="node">
<title>Node4</title>
<g id="a_Node000004"><a xlink:href="../../db/de5/clock__and__timers_8c.html#aa9cb67dffbf08af7059377c84e10d7e4" target="_top" xlink:title="Resets software timer.">
<polygon fill="white" stroke="#666666" points="435,-320 363,-320 363,-301 435,-301 435,-320"/>
<text text-anchor="middle" x="399" y="-308" font-family="Helvetica,sans-Serif" font-size="10.00">ResetTimer</text>
</a>
</g>
</g>
<!-- Node1&#45;&gt;Node4 -->
<g id="edge28_Node000001_Node000004" class="edge">
<title>Node1&#45;&gt;Node4</title>
<g id="a_edge28_Node000001_Node000004"><a xlink:title=" ">
<path fill="none" stroke="#63b8ff" d="M30.28,-225.18C40.43,-235.7 58.18,-252.14 77,-260.5 168.8,-301.26 288.22,-309.51 352.41,-310.75"/>
<polygon fill="#63b8ff" stroke="#63b8ff" points="352.55,-314.26 362.6,-310.9 352.65,-307.26 352.55,-314.26"/>
</a>
</g>
</g>
<!-- Node5 -->
<g id="Node000005" class="node">
<title>Node5</title>
<g id="a_Node000005"><a xlink:href="../../d4/dfb/buttons_8c.html#af7729d2806386775a7708fa4450842ea" target="_top" xlink:title=" ">
<polygon fill="white" stroke="#666666" points="164,-130 77,-130 77,-111 164,-111 164,-130"/>
<text text-anchor="middle" x="120.5" y="-118" font-family="Helvetica,sans-Serif" font-size="10.00">Buttons_Reset</text>
</a>
</g>
</g>
<!-- Node1&#45;&gt;Node5 -->
<g id="edge4_Node000001_Node000005" class="edge">
<title>Node1&#45;&gt;Node5</title>
<g id="a_edge4_Node000001_Node000005"><a xlink:title=" ">
<path fill="none" stroke="#63b8ff" d="M27.32,-205.79C36.47,-191.12 55.42,-163.08 77,-144.5 80.81,-141.22 85.14,-138.17 89.55,-135.42"/>
<polygon fill="#63b8ff" stroke="#63b8ff" points="91.64,-138.25 98.54,-130.22 88.13,-132.19 91.64,-138.25"/>
</a>
</g>
</g>
<!-- Node6 -->
<g id="Node000006" class="node">
<title>Node6</title>
<g id="a_Node000006"><a xlink:href="../../db/de5/clock__and__timers_8c.html#a0ae8e42c5650e01d9e023233a4acd643" target="_top" xlink:title="inits HSI as a main clock. PLL will not be used. Core/systick frequency is ~8Mhz">
<polygon fill="white" stroke="#666666" points="163.5,-93 77.5,-93 77.5,-74 163.5,-74 163.5,-93"/>
<text text-anchor="middle" x="120.5" y="-81" font-family="Helvetica,sans-Serif" font-size="10.00">Clock_HSI_Init</text>
</a>
</g>
</g>
<!-- Node1&#45;&gt;Node6 -->
<g id="edge5_Node000001_Node000006" class="edge">
<title>Node1&#45;&gt;Node6</title>
<g id="a_edge5_Node000001_Node000006"><a xlink:title=" ">
<path fill="none" stroke="#63b8ff" d="M23.72,-205.87C29.15,-184.34 45.06,-131.8 77,-101.5 78.09,-100.47 79.25,-99.49 80.46,-98.56"/>
<polygon fill="#63b8ff" stroke="#63b8ff" points="82.43,-101.46 89.04,-93.18 78.71,-95.52 82.43,-101.46"/>
</a>
</g>
</g>
<!-- Node7 -->
<g id="Node000007" class="node">
<title>Node7</title>
<g id="a_Node000007"><a xlink:href="../../d2/da8/gpio__exti_8c.html#ade791aabc006cd8fde8672093b7a0b54" target="_top" xlink:title=" ">
<polygon fill="white" stroke="#666666" points="313.5,-133 203.5,-133 203.5,-114 313.5,-114 313.5,-133"/>
<text text-anchor="middle" x="258.5" y="-121" font-family="Helvetica,sans-Serif" font-size="10.00">Exti_Clear_Pending</text>
</a>
</g>
</g>
<!-- Node1&#45;&gt;Node7 -->
<g id="edge6_Node000001_Node000007" class="edge">
<title>Node1&#45;&gt;Node7</title>
<g id="a_edge6_Node000001_Node000007"><a xlink:title=" ">
<path fill="none" stroke="#63b8ff" d="M33.18,-205.9C43.98,-197.43 60.77,-185.25 77,-177.5 116.93,-158.43 165.06,-144.44 201.58,-135.48"/>
<polygon fill="#63b8ff" stroke="#63b8ff" points="202.65,-138.82 211.55,-133.08 201.01,-132.01 202.65,-138.82"/>
</a>
</g>
</g>
<!-- Node8 -->
<g id="Node000008" class="node">
<title>Node8</title>
<g id="a_Node000008"><a xlink:href="../../de/d3c/main__outputs_8c.html#a812635e7cb53ee129e91f95de7cd4c14" target="_top" xlink:title=" ">
<polygon fill="white" stroke="#666666" points="431.5,-282 366.5,-282 366.5,-263 431.5,-263 431.5,-282"/>
<text text-anchor="middle" x="399" y="-270" font-family="Helvetica,sans-Serif" font-size="10.00">Get_State</text>
</a>
</g>
</g>
<!-- Node1&#45;&gt;Node8 -->
<g id="edge7_Node000001_Node000008" class="edge">
<title>Node1&#45;&gt;Node8</title>
<g id="a_edge7_Node000001_Node000008"><a xlink:title=" ">
<path fill="none" stroke="#63b8ff" d="M41.13,-224.71C51.57,-229.24 64.75,-234.38 77,-237.5 175.09,-262.48 294.49,-269.63 356.35,-271.68"/>
<polygon fill="#63b8ff" stroke="#63b8ff" points="356.39,-275.18 366.49,-271.99 356.6,-268.19 356.39,-275.18"/>
</a>
</g>
</g>
<!-- Node9 -->
<g id="Node000009" class="node">
<title>Node9</title>
<g id="a_Node000009"><a xlink:href="../../d2/da8/gpio__exti_8c.html#aec6c2e01969e7a086f7dc11853dad378" target="_top" xlink:title=" ">
<polygon fill="white" stroke="#666666" points="150.5,-56 90.5,-56 90.5,-37 150.5,-37 150.5,-56"/>
<text text-anchor="middle" x="120.5" y="-44" font-family="Helvetica,sans-Serif" font-size="10.00">Gpio_Init</text>
</a>
</g>
</g>
<!-- Node1&#45;&gt;Node9 -->
<g id="edge8_Node000001_Node000009" class="edge">
<title>Node1&#45;&gt;Node9</title>
<g id="a_edge8_Node000001_Node000009"><a xlink:title=" ">
<path fill="none" stroke="#63b8ff" d="M22.44,-205.62C25.45,-179.25 37.12,-106.36 77,-64.5 78.41,-63.02 79.96,-61.66 81.61,-60.4"/>
<polygon fill="#63b8ff" stroke="#63b8ff" points="83.77,-63.18 90.48,-54.98 80.13,-57.21 83.77,-63.18"/>
</a>
</g>
</g>
<!-- Node10 -->
<g id="Node000010" class="node">
<title>Node10</title>
<g id="a_Node000010"><a xlink:href="../../d4/de7/main__cycle_8c.html#a61c0ad60ef186b36d35490496fa55b2e" target="_top" xlink:title="This function is called before main cycle and makes 5s pause to connect debugger if needed.">
<polygon fill="white" stroke="#666666" points="310,-244 207,-244 207,-225 310,-225 310,-244"/>
<text text-anchor="middle" x="258.5" y="-232" font-family="Helvetica,sans-Serif" font-size="10.00">mainCyclePreRun</text>
</a>
</g>
</g>
<!-- Node1&#45;&gt;Node10 -->
<g id="edge10_Node000001_Node000010" class="edge">
<title>Node1&#45;&gt;Node10</title>
<g id="a_edge10_Node000001_Node000010"><a xlink:title=" ">
<path fill="none" stroke="#63b8ff" d="M41.22,-217.09C75.07,-219.81 145.58,-225.49 196.91,-229.62"/>
<polygon fill="#63b8ff" stroke="#63b8ff" points="196.66,-233.11 206.91,-230.43 197.22,-226.14 196.66,-233.11"/>
</a>
</g>
</g>
<!-- Node13 -->
<g id="Node000013" class="node">
<title>Node13</title>
<g id="a_Node000013"><a xlink:href="../../d4/de7/main__cycle_8c.html#a09fab8d670027fea8e527344d46080c0" target="_top" xlink:title="This function is called in while(1). Waiting for the end of the tick is done after it.">
<polygon fill="white" stroke="#666666" points="164,-358 77,-358 77,-339 164,-339 164,-358"/>
<text text-anchor="middle" x="120.5" y="-346" font-family="Helvetica,sans-Serif" font-size="10.00">mainCycleRun</text>
</a>
</g>
</g>
<!-- Node1&#45;&gt;Node13 -->
<g id="edge15_Node000001_Node000013" class="edge">
<title>Node1&#45;&gt;Node13</title>
<g id="a_edge15_Node000001_Node000013"><a xlink:title=" ">
<path fill="none" stroke="#63b8ff" d="M24.28,-225.07C30.62,-245.54 47.92,-294.14 77,-324.5 80.34,-327.99 84.3,-331.11 88.44,-333.86"/>
<polygon fill="#63b8ff" stroke="#63b8ff" points="86.66,-336.88 97.04,-338.98 90.23,-330.86 86.66,-336.88"/>
</a>
</g>
</g>
<!-- Node18 -->
<g id="Node000018" class="node">
<title>Node18</title>
<g id="a_Node000018"><a xlink:href="../../d9/dbd/sleep_8c.html#a9d242999dabcff15124542c1bc7debd0" target="_top" xlink:title=" ">
<polygon fill="white" stroke="#666666" points="151,-206 90,-206 90,-187 151,-187 151,-206"/>
<text text-anchor="middle" x="120.5" y="-194" font-family="Helvetica,sans-Serif" font-size="10.00">Sleep_on</text>
</a>
</g>
</g>
<!-- Node1&#45;&gt;Node18 -->
<g id="edge29_Node000001_Node000018" class="edge">
<title>Node1&#45;&gt;Node18</title>
<g id="a_edge29_Node000001_Node000018"><a xlink:title=" ">
<path fill="none" stroke="#63b8ff" d="M41.33,-211.66C52.38,-209.51 66.55,-206.77 79.78,-204.2"/>
<polygon fill="#63b8ff" stroke="#63b8ff" points="80.5,-207.63 89.65,-202.29 79.16,-200.76 80.5,-207.63"/>
</a>
</g>
</g>
<!-- Node20 -->
<g id="Node000020" class="node">
<title>Node20</title>
<g id="a_Node000020"><a xlink:href="../../db/de5/clock__and__timers_8c.html#a9d8ff82df314e04855d2ccb1d1a4016b" target="_top" xlink:title="Inits systick timer interrupt for 1ms period.">
<polygon fill="white" stroke="#666666" points="157,-19 84,-19 84,0 157,0 157,-19"/>
<text text-anchor="middle" x="120.5" y="-7" font-family="Helvetica,sans-Serif" font-size="10.00">Systick_Init</text>
</a>
</g>
</g>
<!-- Node1&#45;&gt;Node20 -->
<g id="edge33_Node000001_Node000020" class="edge">
<title>Node1&#45;&gt;Node20</title>
<g id="a_edge33_Node000001_Node000020"><a xlink:title=" ">
<path fill="none" stroke="#63b8ff" d="M21.59,-205.95C22.36,-175.82 28.74,-81.58 77,-27.5 77.75,-26.66 78.54,-25.86 79.37,-25.1"/>
<polygon fill="#63b8ff" stroke="#63b8ff" points="81.58,-27.82 87.68,-19.16 77.51,-22.13 81.58,-27.82"/>
</a>
</g>
</g>
<!-- Node2&#45;&gt;Node3 -->
<g id="edge2_Node000002_Node000003" class="edge">
<title>Node2&#45;&gt;Node3</title>
<g id="a_edge2_Node000002_Node000003"><a xlink:title=" ">
<path fill="none" stroke="#63b8ff" d="M312.26,-415.26C322.8,-413.82 333.88,-412.3 344.45,-410.85"/>
<polygon fill="#63b8ff" stroke="#63b8ff" points="344.96,-414.31 354.4,-409.48 344.01,-407.37 344.96,-414.31"/>
</a>
</g>
</g>
<!-- Node2&#45;&gt;Node4 -->
<g id="edge3_Node000002_Node000004" class="edge">
<title>Node2&#45;&gt;Node4</title>
<g id="a_edge3_Node000002_Node000004"><a xlink:title=" ">
<path fill="none" stroke="#63b8ff" d="M300.08,-412.95C306.01,-410.67 311.84,-407.89 317,-404.5 347.44,-384.49 373.01,-349.9 386.86,-328.72"/>
<polygon fill="#63b8ff" stroke="#63b8ff" points="389.97,-330.36 392.37,-320.04 384.06,-326.6 389.97,-330.36"/>
</a>
</g>
</g>
<!-- Node10&#45;&gt;Node3 -->
<g id="edge13_Node000010_Node000003" class="edge">
<title>Node10&#45;&gt;Node3</title>
<g id="a_edge13_Node000010_Node000003"><a xlink:title=" ">
<path fill="none" stroke="#63b8ff" d="M267.34,-244.07C289.71,-271.36 354.08,-349.9 383.28,-385.54"/>
<polygon fill="#63b8ff" stroke="#63b8ff" points="380.85,-388.1 389.9,-393.61 386.27,-383.66 380.85,-388.1"/>
</a>
</g>
</g>
<!-- Node10&#45;&gt;Node4 -->
<g id="edge14_Node000010_Node000004" class="edge">
<title>Node10&#45;&gt;Node4</title>
<g id="a_edge14_Node000010_Node000004"><a xlink:title=" ">
<path fill="none" stroke="#63b8ff" d="M274.4,-244.19C292.59,-255.85 324.45,-275.68 353,-290.5 357.04,-292.6 361.34,-294.68 365.62,-296.68"/>
<polygon fill="#63b8ff" stroke="#63b8ff" points="364.3,-299.92 374.85,-300.86 367.18,-293.54 364.3,-299.92"/>
</a>
</g>
</g>
<!-- Node11 -->
<g id="Node000011" class="node">
<title>Node11</title>
<g id="a_Node000011"><a xlink:href="../../d2/da8/gpio__exti_8c.html#a2eaab98c926e448a6e93701b03612772" target="_top" xlink:title=" ">
<polygon fill="white" stroke="#666666" points="445,-170 353,-170 353,-151 445,-151 445,-170"/>
<text text-anchor="middle" x="399" y="-158" font-family="Helvetica,sans-Serif" font-size="10.00">Gpio_Reset_Pin</text>
</a>
</g>
</g>
<!-- Node10&#45;&gt;Node11 -->
<g id="edge11_Node000010_Node000011" class="edge">
<title>Node10&#45;&gt;Node11</title>
<g id="a_edge11_Node000010_Node000011"><a xlink:title=" ">
<path fill="none" stroke="#63b8ff" d="M297.18,-224.95C304.04,-222.41 310.94,-219.29 317,-215.5 336.45,-203.33 333.93,-191.26 353,-178.5 355.14,-177.07 357.41,-175.72 359.76,-174.46"/>
<polygon fill="#63b8ff" stroke="#63b8ff" points="361.51,-177.5 369.01,-170.01 358.48,-171.19 361.51,-177.5"/>
</a>
</g>
</g>
<!-- Node12 -->
<g id="Node000012" class="node">
<title>Node12</title>
<g id="a_Node000012"><a xlink:href="../../d2/da8/gpio__exti_8c.html#a0975a2cf0136c0695f87e6260079ff83" target="_top" xlink:title=" ">
<polygon fill="white" stroke="#666666" points="439,-244 359,-244 359,-225 439,-225 439,-244"/>
<text text-anchor="middle" x="399" y="-232" font-family="Helvetica,sans-Serif" font-size="10.00">Gpio_Set_Pin</text>
</a>
</g>
</g>
<!-- Node10&#45;&gt;Node12 -->
<g id="edge12_Node000010_Node000012" class="edge">
<title>Node10&#45;&gt;Node12</title>
<g id="a_edge12_Node000010_Node000012"><a xlink:title=" ">
<path fill="none" stroke="#63b8ff" d="M310.29,-234.5C322.83,-234.5 336.25,-234.5 348.72,-234.5"/>
<polygon fill="#63b8ff" stroke="#63b8ff" points="348.94,-238 358.94,-234.5 348.94,-231 348.94,-238"/>
</a>
</g>
</g>
<!-- Node13&#45;&gt;Node2 -->
<g id="edge20_Node000013_Node000002" class="edge">
<title>Node13&#45;&gt;Node2</title>
<g id="a_edge20_Node000013_Node000002"><a xlink:title=" ">
<path fill="none" stroke="#63b8ff" d="M132.47,-358.06C147.03,-370.32 173.92,-391.53 200,-404.5 203.59,-406.28 207.38,-407.94 211.25,-409.46"/>
<polygon fill="#63b8ff" stroke="#63b8ff" points="210.34,-412.85 220.93,-412.97 212.72,-406.27 210.34,-412.85"/>
</a>
</g>
</g>
<!-- Node14 -->
<g id="Node000014" class="node">
<title>Node14</title>
<g id="a_Node000014"><a xlink:href="../../d6/dcc/led__control_8c.html#a872fed270274a9aa12e27f960c6f4310" target="_top" xlink:title="Pass&#45;through function for led blinking Blinking is done according to the selected mode using the Blin...">
<polygon fill="white" stroke="#666666" points="290.5,-395 226.5,-395 226.5,-376 290.5,-376 290.5,-395"/>
<text text-anchor="middle" x="258.5" y="-383" font-family="Helvetica,sans-Serif" font-size="10.00">Blink_Led</text>
</a>
</g>
</g>
<!-- Node13&#45;&gt;Node14 -->
<g id="edge16_Node000013_Node000014" class="edge">
<title>Node13&#45;&gt;Node14</title>
<g id="a_edge16_Node000013_Node000014"><a xlink:title=" ">
<path fill="none" stroke="#63b8ff" d="M156.52,-358.03C174.89,-363.02 197.48,-369.17 216.64,-374.38"/>
<polygon fill="#63b8ff" stroke="#63b8ff" points="215.74,-377.77 226.31,-377.01 217.58,-371.01 215.74,-377.77"/>
</a>
</g>
</g>
<!-- Node15 -->
<g id="Node000015" class="node">
<title>Node15</title>
<g id="a_Node000015"><a xlink:href="../../de/d3c/main__outputs_8c.html#ae519b4ef0866735b739fb95362a031f9" target="_top" xlink:title="Controls outputs for the current time.">
<polygon fill="white" stroke="#666666" points="298.5,-207 218.5,-207 218.5,-188 298.5,-188 298.5,-207"/>
<text text-anchor="middle" x="258.5" y="-195" font-family="Helvetica,sans-Serif" font-size="10.00">Control_Outs</text>
</a>
</g>
</g>
<!-- Node13&#45;&gt;Node15 -->
<g id="edge21_Node000013_Node000015" class="edge">
<title>Node13&#45;&gt;Node15</title>
<g id="a_edge21_Node000013_Node000015"><a xlink:title=" ">
<path fill="none" stroke="#63b8ff" d="M124.48,-338.83C132.5,-314.39 156.93,-249.65 200,-215.5 202.79,-213.29 205.85,-211.35 209.07,-209.64"/>
<polygon fill="#63b8ff" stroke="#63b8ff" points="210.74,-212.73 218.43,-205.44 207.88,-206.34 210.74,-212.73"/>
</a>
</g>
</g>
<!-- Node17 -->
<g id="Node000017" class="node">
<title>Node17</title>
<g id="a_Node000017"><a xlink:href="../../de/d3c/main__outputs_8c.html#a504328a660a224b76949cb1c90b80e78" target="_top" xlink:title=" ">
<polygon fill="white" stroke="#666666" points="290,-358 227,-358 227,-339 290,-339 290,-358"/>
<text text-anchor="middle" x="258.5" y="-346" font-family="Helvetica,sans-Serif" font-size="10.00">Set_State</text>
</a>
</g>
</g>
<!-- Node13&#45;&gt;Node17 -->
<g id="edge27_Node000013_Node000017" class="edge">
<title>Node13&#45;&gt;Node17</title>
<g id="a_edge27_Node000013_Node000017"><a xlink:title=" ">
<path fill="none" stroke="#63b8ff" d="M164.16,-348.5C180.77,-348.5 199.74,-348.5 216.22,-348.5"/>
<polygon fill="#63b8ff" stroke="#63b8ff" points="216.64,-352 226.64,-348.5 216.64,-345 216.64,-352"/>
</a>
</g>
</g>
<!-- Node14&#45;&gt;Node3 -->
<g id="edge18_Node000014_Node000003" class="edge">
<title>Node14&#45;&gt;Node3</title>
<g id="a_edge18_Node000014_Node000003"><a xlink:title=" ">
<path fill="none" stroke="#63b8ff" d="M290.58,-389.54C306.46,-391.6 326.24,-394.17 344.48,-396.54"/>
<polygon fill="#63b8ff" stroke="#63b8ff" points="344.05,-400.02 354.42,-397.84 344.95,-393.08 344.05,-400.02"/>
</a>
</g>
</g>
<!-- Node14&#45;&gt;Node4 -->
<g id="edge19_Node000014_Node000004" class="edge">
<title>Node14&#45;&gt;Node4</title>
<g id="a_edge19_Node000014_Node000004"><a xlink:title=" ">
<path fill="none" stroke="#63b8ff" d="M290.62,-377.68C299.37,-374.97 308.74,-371.57 317,-367.5 339.77,-356.27 363.22,-339.03 378.99,-326.45"/>
<polygon fill="#63b8ff" stroke="#63b8ff" points="381.36,-329.04 386.91,-320.01 376.94,-323.6 381.36,-329.04"/>
</a>
</g>
</g>
<!-- Node14&#45;&gt;Node8 -->
<g id="edge17_Node000014_Node000008" class="edge">
<title>Node14&#45;&gt;Node8</title>
<g id="a_edge17_Node000014_Node000008"><a xlink:title=" ">
<path fill="none" stroke="#63b8ff" d="M290.52,-380.75C299.86,-378.09 309.58,-373.95 317,-367.5 345.2,-342.97 326.01,-317.36 353,-291.5 354.47,-290.09 356.06,-288.78 357.73,-287.56"/>
<polygon fill="#63b8ff" stroke="#63b8ff" points="359.88,-290.35 366.64,-282.2 356.27,-284.36 359.88,-290.35"/>
</a>
</g>
</g>
<!-- Node15&#45;&gt;Node4 -->
<g id="edge26_Node000015_Node000004" class="edge">
<title>Node15&#45;&gt;Node4</title>
<g id="a_edge26_Node000015_Node000004"><a xlink:title=" ">
<path fill="none" stroke="#63b8ff" d="M298.58,-204.95C305.24,-207.5 311.7,-210.91 317,-215.5 344.96,-239.69 326.47,-264.74 353,-290.5 354.88,-292.32 356.95,-294 359.15,-295.53"/>
<polygon fill="#63b8ff" stroke="#63b8ff" points="357.66,-298.72 368.05,-300.77 361.21,-292.68 357.66,-298.72"/>
</a>
</g>
</g>
<!-- Node15&#45;&gt;Node8 -->
<g id="edge22_Node000015_Node000008" class="edge">
<title>Node15&#45;&gt;Node8</title>
<g id="a_edge22_Node000015_Node000008"><a xlink:title=" ">
<path fill="none" stroke="#63b8ff" d="M298.69,-206.88C305.05,-209.21 311.39,-212.05 317,-215.5 336.55,-227.52 334.18,-239.38 353,-252.5 356.06,-254.63 359.37,-256.61 362.78,-258.44"/>
<polygon fill="#63b8ff" stroke="#63b8ff" points="361.34,-261.63 371.86,-262.9 364.43,-255.35 361.34,-261.63"/>
</a>
</g>
</g>
<!-- Node15&#45;&gt;Node11 -->
<g id="edge23_Node000015_Node000011" class="edge">
<title>Node15&#45;&gt;Node11</title>
<g id="a_edge23_Node000015_Node000011"><a xlink:title=" ">
<path fill="none" stroke="#63b8ff" d="M295.17,-187.97C312.56,-183.33 333.68,-177.68 352.25,-172.72"/>
<polygon fill="#63b8ff" stroke="#63b8ff" points="353.21,-176.09 361.97,-170.12 351.41,-169.32 353.21,-176.09"/>
</a>
</g>
</g>
<!-- Node15&#45;&gt;Node12 -->
<g id="edge24_Node000015_Node000012" class="edge">
<title>Node15&#45;&gt;Node12</title>
<g id="a_edge24_Node000015_Node000012"><a xlink:title=" ">
<path fill="none" stroke="#63b8ff" d="M295.17,-207.03C312.56,-211.67 333.68,-217.32 352.25,-222.28"/>
<polygon fill="#63b8ff" stroke="#63b8ff" points="351.41,-225.68 361.97,-224.88 353.21,-218.91 351.41,-225.68"/>
</a>
</g>
</g>
<!-- Node16 -->
<g id="Node000016" class="node">
<title>Node16</title>
<g id="a_Node000016"><a xlink:href="../../db/de5/clock__and__timers_8c.html#a0916a7747db1d64daf21e3862c550fb0" target="_top" xlink:title=" ">
<polygon fill="white" stroke="#666666" points="433.5,-207 364.5,-207 364.5,-188 433.5,-188 433.5,-207"/>
<text text-anchor="middle" x="399" y="-195" font-family="Helvetica,sans-Serif" font-size="10.00">ReadTimer</text>
</a>
</g>
</g>
<!-- Node15&#45;&gt;Node16 -->
<g id="edge25_Node000015_Node000016" class="edge">
<title>Node15&#45;&gt;Node16</title>
<g id="a_edge25_Node000015_Node000016"><a xlink:title=" ">
<path fill="none" stroke="#63b8ff" d="M298.82,-197.5C316.07,-197.5 336.38,-197.5 354.12,-197.5"/>
<polygon fill="#63b8ff" stroke="#63b8ff" points="354.22,-201 364.22,-197.5 354.22,-194 354.22,-201"/>
</a>
</g>
</g>
<!-- Node18&#45;&gt;Node7 -->
<g id="edge30_Node000018_Node000007" class="edge">
<title>Node18&#45;&gt;Node7</title>
<g id="a_edge30_Node000018_Node000007"><a xlink:title=" ">
<path fill="none" stroke="#63b8ff" d="M140.18,-186.99C147.78,-182.85 156.51,-177.76 164,-172.5 181.28,-160.36 181.54,-151.76 200,-141.5 203.06,-139.8 206.31,-138.23 209.64,-136.8"/>
<polygon fill="#63b8ff" stroke="#63b8ff" points="211.11,-139.98 219.16,-133.09 208.58,-133.46 211.11,-139.98"/>
</a>
</g>
</g>
<!-- Node19 -->
<g id="Node000019" class="node">
<title>Node19</title>
<g id="a_Node000019"><a xlink:href="../../d2/da8/gpio__exti_8c.html#a2ad13e4a65086eb7203938837ff05111" target="_top" xlink:title=" ">
<polygon fill="white" stroke="#666666" points="317,-170 200,-170 200,-151 317,-151 317,-170"/>
<text text-anchor="middle" x="258.5" y="-158" font-family="Helvetica,sans-Serif" font-size="10.00">Gpio_Reset_all_Outs</text>
</a>
</g>
</g>
<!-- Node18&#45;&gt;Node19 -->
<g id="edge31_Node000018_Node000019" class="edge">
<title>Node18&#45;&gt;Node19</title>
<g id="a_edge31_Node000018_Node000019"><a xlink:title=" ">
<path fill="none" stroke="#63b8ff" d="M151.01,-188.69C168.65,-184.02 191.45,-177.98 211.42,-172.7"/>
<polygon fill="#63b8ff" stroke="#63b8ff" points="212.5,-176.03 221.27,-170.09 210.7,-169.27 212.5,-176.03"/>
</a>
</g>
</g>
<!-- Node19&#45;&gt;Node11 -->
<g id="edge32_Node000019_Node000011" class="edge">
<title>Node19&#45;&gt;Node11</title>
<g id="a_edge32_Node000019_Node000011"><a xlink:title=" ">
<path fill="none" stroke="#63b8ff" d="M317.03,-160.5C325.49,-160.5 334.18,-160.5 342.59,-160.5"/>
<polygon fill="#63b8ff" stroke="#63b8ff" points="342.67,-164 352.67,-160.5 342.67,-157 342.67,-164"/>
</a>
</g>
</g>
</g>
</svg>

<g id="navigator" transform="translate(0 0)" fill="#404254">
  <rect fill="#f2f5e9" fill-opacity="0.5" stroke="#606060" stroke-width=".5" x="0" y="0" width="60" height="60"/>
  <use id="zoomplus" xlink:href="#zoomPlus" x="17" y="9" onmousedown="handleZoom(evt,'in')"/>
  <use id="zoomminus" xlink:href="#zoomMin" x="42" y="9" onmousedown="handleZoom(evt,'out')"/>
  <use id="reset" xlink:href="#resetDef" x="30" y="36" onmousedown="handleReset()"/>
   <use id="arrowup" xlink:href="#arrowUp" x="0" y="0" onmousedown="handlePan(0,-1)"/>
  <use id="arrowright" xlink:href="#arrowRight" x="0" y="0" onmousedown="handlePan(1,0)"/>
  <use id="arrowdown" xlink:href="#arrowDown" x="0" y="0" onmousedown="handlePan(0,1)"/>
  <use id="arrowleft" xlink:href="#arrowLeft" x="0" y="0" onmousedown="handlePan(-1,0)"/>
</g>
<svg viewBox="0 0 15 15" width="100%" height="30px" preserveAspectRatio="xMaxYMin meet">
 <g id="arrow_out" transform="scale(0.3 0.3)">
  <a xlink:href="main_8c_a6288eba0f8e8ad3ab1544ad731eb7667_cgraph_org.svg" target="_base">
   <rect id="button" ry="5" rx="5" y="6" x="6" height="38" width="38"
        fill="#f2f5e9" fill-opacity="0.5" stroke="#606060" stroke-width="1.0"/>
   <path id="arrow"
     d="M 11.500037,31.436501 C 11.940474,20.09759 22.043105,11.32322 32.158766,21.979434 L 37.068811,17.246167 C 37.068811,17.246167 37.088388,32 37.088388,32 L 22.160133,31.978069 C 22.160133,31.978069 26.997745,27.140456 26.997745,27.140456 C 18.528582,18.264221 13.291696,25.230495 11.500037,31.436501 z"
     style="fill:#404040;"/>
  </a>
 </g>
</svg>

<style type='text/css'>
<![CDATA[
[data-mouse-over-selected='false'] { opacity: 0.7; }
[data-mouse-over-selected='true']  { opacity: 1.0; }
]]>
</style>
<script type="application/ecmascript"><![CDATA[
document.addEventListener('DOMContentLoaded', (event) => {
  highlightEdges();
  highlightAdjacentNodes();
});
]]></script>
</svg>
