<?xml version="1.0" encoding="UTF-8" standalone="no"?>
<!DOCTYPE svg PUBLIC "-//W3C//DTD SVG 1.1//EN"
 "http://www.w3.org/Graphics/SVG/1.1/DTD/svg11.dtd">
<!-- Generated by graphviz version 2.43.0 (0)
 -->
<!-- Title: led_control.c Pages: 1 -->
<svg width="389pt" height="192pt"
 viewBox="0.00 0.00 389.00 192.00" xmlns="http://www.w3.org/2000/svg" xmlns:xlink="http://www.w3.org/1999/xlink">
<g id="graph0" class="graph" transform="scale(1 1) rotate(0) translate(4 188)">
<title>led_control.c</title>
<!-- Node1 -->
<g id="Node000001" class="node">
<title>Node1</title>
<g id="a_Node000001"><a xlink:title="Contains led blinking functions.">
<polygon fill="#999999" stroke="#666666" points="231.5,-184 152.5,-184 152.5,-165 231.5,-165 231.5,-184"/>
<text text-anchor="middle" x="192" y="-172" font-family="Helvetica,sans-Serif" font-size="10.00">led_control.c</text>
</a>
</g>
</g>
<!-- Node2 -->
<g id="Node000002" class="node">
<title>Node2</title>
<g id="a_Node000002"><a xlink:href="../../dc/df9/led__control_8h.html" target="_top" xlink:title="Contains led blinking function prototypes.">
<polygon fill="white" stroke="#666666" points="80,-129 0,-129 0,-110 80,-110 80,-129"/>
<text text-anchor="middle" x="40" y="-117" font-family="Helvetica,sans-Serif" font-size="10.00">led_control.h</text>
</a>
</g>
</g>
<!-- Node1&#45;&gt;Node2 -->
<g id="edge1_Node000001_Node000002" class="edge">
<title>Node1&#45;&gt;Node2</title>
<g id="a_edge1_Node000001_Node000002"><a xlink:title=" ">
<path fill="none" stroke="#63b8ff" d="M167.58,-164.98C142.28,-156.16 102.55,-142.31 74.14,-132.41"/>
<polygon fill="#63b8ff" stroke="#63b8ff" points="75.21,-129.07 64.61,-129.08 72.9,-135.68 75.21,-129.07"/>
</a>
</g>
</g>
<!-- Node3 -->
<g id="Node000003" class="node">
<title>Node3</title>
<g id="a_Node000003"><a xlink:title=" ">
<polygon fill="#e0e0e0" stroke="#999999" points="261.5,-19 208.5,-19 208.5,0 261.5,0 261.5,-19"/>
<text text-anchor="middle" x="235" y="-7" font-family="Helvetica,sans-Serif" font-size="10.00">stdint.h</text>
</a>
</g>
</g>
<!-- Node1&#45;&gt;Node3 -->
<g id="edge2_Node000001_Node000003" class="edge">
<title>Node1&#45;&gt;Node3</title>
<g id="a_edge2_Node000001_Node000003"><a xlink:title=" ">
<path fill="none" stroke="#63b8ff" d="M171.19,-164.89C148.71,-154.16 117.44,-134.25 128,-110 144.86,-71.31 185,-40.88 211.04,-24.32"/>
<polygon fill="#63b8ff" stroke="#63b8ff" points="212.92,-27.27 219.6,-19.05 209.25,-21.31 212.92,-27.27"/>
</a>
</g>
</g>
<!-- Node4 -->
<g id="Node000004" class="node">
<title>Node4</title>
<g id="a_Node000004"><a xlink:href="../../d1/daf/clock__and__timers_8h.html" target="_top" xlink:title="Contains clocks and timer functions prototypes.">
<polygon fill="white" stroke="#666666" points="247.5,-129 136.5,-129 136.5,-110 247.5,-110 247.5,-129"/>
<text text-anchor="middle" x="192" y="-117" font-family="Helvetica,sans-Serif" font-size="10.00">clock_and_timers.h</text>
</a>
</g>
</g>
<!-- Node1&#45;&gt;Node4 -->
<g id="edge3_Node000001_Node000004" class="edge">
<title>Node1&#45;&gt;Node4</title>
<g id="a_edge3_Node000001_Node000004"><a xlink:title=" ">
<path fill="none" stroke="#63b8ff" d="M192,-164.75C192,-157.8 192,-147.85 192,-139.13"/>
<polygon fill="#63b8ff" stroke="#63b8ff" points="195.5,-139.09 192,-129.09 188.5,-139.09 195.5,-139.09"/>
</a>
</g>
</g>
<!-- Node5 -->
<g id="Node000005" class="node">
<title>Node5</title>
<g id="a_Node000005"><a xlink:href="../../db/da0/led_8h.html" target="_top" xlink:title="contains functions to turn LED on and off">
<polygon fill="white" stroke="#666666" points="306.5,-129 265.5,-129 265.5,-110 306.5,-110 306.5,-129"/>
<text text-anchor="middle" x="286" y="-117" font-family="Helvetica,sans-Serif" font-size="10.00">led.h</text>
</a>
</g>
</g>
<!-- Node1&#45;&gt;Node5 -->
<g id="edge4_Node000001_Node000005" class="edge">
<title>Node1&#45;&gt;Node5</title>
<g id="a_edge4_Node000001_Node000005"><a xlink:title=" ">
<path fill="none" stroke="#63b8ff" d="M207.1,-164.98C221.82,-156.69 244.42,-143.94 261.67,-134.22"/>
<polygon fill="#63b8ff" stroke="#63b8ff" points="263.63,-137.13 270.62,-129.17 260.19,-131.03 263.63,-137.13"/>
</a>
</g>
</g>
<!-- Node7 -->
<g id="Node000007" class="node">
<title>Node7</title>
<g id="a_Node000007"><a xlink:href="../../d8/de2/main__outputs_8h.html" target="_top" xlink:title="Contains functions prototypes for controlling main outputs.">
<polygon fill="white" stroke="#666666" points="381,-74 289,-74 289,-55 381,-55 381,-74"/>
<text text-anchor="middle" x="335" y="-62" font-family="Helvetica,sans-Serif" font-size="10.00">main_outputs.h</text>
</a>
</g>
</g>
<!-- Node1&#45;&gt;Node7 -->
<g id="edge7_Node000001_Node000007" class="edge">
<title>Node1&#45;&gt;Node7</title>
<g id="a_edge7_Node000001_Node000007"><a xlink:title=" ">
<path fill="none" stroke="#63b8ff" d="M231.74,-168.69C258.96,-163.37 293.98,-152.24 316,-129 327.49,-116.87 332.06,-98.08 333.86,-84.08"/>
<polygon fill="#63b8ff" stroke="#63b8ff" points="337.35,-84.38 334.79,-74.1 330.38,-83.73 337.35,-84.38"/>
</a>
</g>
</g>
<!-- Node6 -->
<g id="Node000006" class="node">
<title>Node6</title>
<g id="a_Node000006"><a xlink:href="../../d7/dae/gpio__exti_8h.html" target="_top" xlink:title="Contains GPIO and EXTI hardware abstraction layer prototypes.">
<polygon fill="white" stroke="#666666" points="270.5,-74 199.5,-74 199.5,-55 270.5,-55 270.5,-74"/>
<text text-anchor="middle" x="235" y="-62" font-family="Helvetica,sans-Serif" font-size="10.00">gpio_exti.h</text>
</a>
</g>
</g>
<!-- Node5&#45;&gt;Node6 -->
<g id="edge5_Node000005_Node000006" class="edge">
<title>Node5&#45;&gt;Node6</title>
<g id="a_edge5_Node000005_Node000006"><a xlink:title=" ">
<path fill="none" stroke="#63b8ff" d="M277.58,-109.75C270.23,-102.11 259.37,-90.82 250.46,-81.56"/>
<polygon fill="#63b8ff" stroke="#63b8ff" points="252.72,-78.87 243.26,-74.09 247.68,-83.72 252.72,-78.87"/>
</a>
</g>
</g>
<!-- Node6&#45;&gt;Node3 -->
<g id="edge6_Node000006_Node000003" class="edge">
<title>Node6&#45;&gt;Node3</title>
<g id="a_edge6_Node000006_Node000003"><a xlink:title=" ">
<path fill="none" stroke="#63b8ff" d="M235,-54.75C235,-47.8 235,-37.85 235,-29.13"/>
<polygon fill="#63b8ff" stroke="#63b8ff" points="238.5,-29.09 235,-19.09 231.5,-29.09 238.5,-29.09"/>
</a>
</g>
</g>
<!-- Node7&#45;&gt;Node3 -->
<g id="edge8_Node000007_Node000003" class="edge">
<title>Node7&#45;&gt;Node3</title>
<g id="a_edge8_Node000007_Node000003"><a xlink:title=" ">
<path fill="none" stroke="#63b8ff" d="M318.93,-54.98C303.14,-46.61 278.78,-33.7 260.37,-23.95"/>
<polygon fill="#63b8ff" stroke="#63b8ff" points="261.83,-20.76 251.36,-19.17 258.56,-26.95 261.83,-20.76"/>
</a>
</g>
</g>
</g>
</svg>
