M48
; DRILL file {KiCad 7.0.11-7.0.11~ubuntu22.04.1} date чт, 19-вер-2024 02:02:44 +0300
; FORMAT={-:-/ absolute / metric / decimal}
; #@! TF.CreationDate,2024-09-19T02:02:44+03:00
; #@! TF.GenerationSoftware,Kicad,Pcbnew,7.0.11-7.0.11~ubuntu22.04.1
; #@! TF.FileFunction,Plated,1,2,PTH
FMAT,2
METRIC
; #@! TA.AperFunction,Plated,PTH,ViaDrill
T1C0.500
; #@! TA.AperFunction,Plated,PTH,ComponentDrill
T2C1.000
; #@! TA.AperFunction,Plated,PTH,ComponentDrill
T3C1.097
; #@! TA.AperFunction,Plated,PTH,ComponentDrill
T4C1.100
; #@! TA.AperFunction,Plated,PTH,ComponentDrill
T5C1.200
%
G90
G05
T1
X34.0Y-74.0
X35.0Y-67.0
X38.925Y-65.087
X40.0Y-42.0
X41.0Y-71.0
X53.911Y-64.325
X57.0Y-78.0
X58.0Y-42.0
X70.04Y-64.008
X73.0Y-42.0
X82.0Y-83.0
X86.169Y-65.596
X89.0Y-42.0
X94.996Y-82.931
X101.79Y-65.405
X104.0Y-42.0
X105.093Y-63.754
X109.0Y-50.0
X109.0Y-56.0
X109.0Y-64.0
X109.0Y-72.0
T2
X36.159Y-44.999
X36.159Y-47.539
X36.159Y-50.079
X52.159Y-44.999
X52.159Y-47.539
X52.159Y-50.079
X68.159Y-44.999
X68.159Y-47.539
X68.159Y-50.079
X84.159Y-44.999
X84.159Y-47.539
X84.159Y-50.079
X100.159Y-44.999
X100.159Y-47.539
X100.159Y-50.079
T3
X38.227Y-78.613
X40.767Y-78.613
X43.307Y-78.613
X45.847Y-78.613
X48.387Y-78.613
X50.927Y-78.613
X63.182Y-78.676
X65.722Y-78.676
X68.263Y-78.676
X70.802Y-78.676
X73.343Y-78.676
X75.882Y-78.676
T4
X30.008Y-60.457
X30.307Y-43.932
X30.307Y-49.012
X35.088Y-60.457
X46.008Y-60.457
X46.307Y-43.932
X46.307Y-49.012
X51.088Y-60.457
X62.008Y-60.457
X62.307Y-43.932
X62.307Y-49.012
X67.088Y-60.457
X78.008Y-60.457
X78.307Y-43.932
X78.307Y-49.012
X83.088Y-60.457
X94.008Y-60.457
X94.307Y-43.932
X94.307Y-49.012
X99.088Y-60.457
T5
X86.042Y-78.676
X89.542Y-78.676
M30
