G04 #@! TF.GenerationSoftware,KiCad,Pcbnew,7.0.11-7.0.11~ubuntu22.04.1*
G04 #@! TF.CreationDate,2024-09-19T02:02:40+03:00*
G04 #@! TF.ProjectId,psg14a_power,70736731-3461-45f7-906f-7765722e6b69,rev?*
G04 #@! TF.SameCoordinates,Original*
G04 #@! TF.FileFunction,Copper,L2,Bot*
G04 #@! TF.FilePolarity,Positive*
%FSLAX46Y46*%
G04 Gerber Fmt 4.6, Leading zero omitted, Abs format (unit mm)*
G04 Created by KiCad (PCBNEW 7.0.11-7.0.11~ubuntu22.04.1) date 2024-09-19 02:02:40*
%MOMM*%
%LPD*%
G01*
G04 APERTURE LIST*
G04 #@! TA.AperFunction,ComponentPad*
%ADD10O,2.200000X2.200000*%
G04 #@! TD*
G04 #@! TA.AperFunction,ComponentPad*
%ADD11R,2.200000X2.200000*%
G04 #@! TD*
G04 #@! TA.AperFunction,ComponentPad*
%ADD12R,1.998980X1.998980*%
G04 #@! TD*
G04 #@! TA.AperFunction,ComponentPad*
%ADD13O,1.998980X1.998980*%
G04 #@! TD*
G04 #@! TA.AperFunction,ComponentPad*
%ADD14O,1.800000X1.800000*%
G04 #@! TD*
G04 #@! TA.AperFunction,ComponentPad*
%ADD15R,1.800000X1.800000*%
G04 #@! TD*
G04 #@! TA.AperFunction,ComponentPad*
%ADD16R,2.400000X2.400000*%
G04 #@! TD*
G04 #@! TA.AperFunction,ComponentPad*
%ADD17C,2.400000*%
G04 #@! TD*
G04 #@! TA.AperFunction,ViaPad*
%ADD18C,1.000000*%
G04 #@! TD*
G04 #@! TA.AperFunction,Conductor*
%ADD19C,0.400000*%
G04 #@! TD*
G04 APERTURE END LIST*
D10*
X94307280Y-43931840D03*
D11*
X94307280Y-49011840D03*
D10*
X78307280Y-43931840D03*
D11*
X78307280Y-49011840D03*
D10*
X62307280Y-43931840D03*
D11*
X62307280Y-49011840D03*
D10*
X46307280Y-43931840D03*
D11*
X46307280Y-49011840D03*
D10*
X30307280Y-43931840D03*
D11*
X30307280Y-49011840D03*
D12*
X38227000Y-78613000D03*
D13*
X40767000Y-78613000D03*
X43307000Y-78613000D03*
X45847000Y-78613000D03*
X48387000Y-78613000D03*
X50927000Y-78613000D03*
D12*
X63182500Y-78676500D03*
D13*
X65722500Y-78676500D03*
X68262500Y-78676500D03*
X70802500Y-78676500D03*
X73342500Y-78676500D03*
X75882500Y-78676500D03*
D14*
X36159440Y-44998640D03*
X36159440Y-47538640D03*
D15*
X36159440Y-50078640D03*
D14*
X52159440Y-44998640D03*
X52159440Y-47538640D03*
D15*
X52159440Y-50078640D03*
D14*
X68159440Y-44998640D03*
X68159440Y-47538640D03*
D15*
X68159440Y-50078640D03*
D14*
X84159440Y-44998640D03*
X84159440Y-47538640D03*
D15*
X84159440Y-50078640D03*
D14*
X100159440Y-44998640D03*
X100159440Y-47538640D03*
D15*
X100159440Y-50078640D03*
D11*
X78007560Y-60457080D03*
D10*
X83087560Y-60457080D03*
D11*
X62007560Y-60457080D03*
D10*
X67087560Y-60457080D03*
D11*
X46007560Y-60457080D03*
D10*
X51087560Y-60457080D03*
D11*
X30007560Y-60457080D03*
D10*
X35087560Y-60457080D03*
D11*
X94007560Y-60457080D03*
D10*
X99087560Y-60457080D03*
D16*
X86042500Y-78676500D03*
D17*
X89542500Y-78676500D03*
D18*
X89000000Y-42000000D03*
X109000000Y-72000000D03*
X109000000Y-56000000D03*
X41000000Y-71000000D03*
X82000000Y-83000000D03*
X40000000Y-42000000D03*
X57000000Y-78000000D03*
X104000000Y-42000000D03*
X58000000Y-42000000D03*
X73000000Y-42000000D03*
X109000000Y-64000000D03*
X105092500Y-63754000D03*
X35000000Y-67000000D03*
X34000000Y-74000000D03*
X109000000Y-50000000D03*
X94996000Y-82931000D03*
X101790500Y-65405000D03*
X70040500Y-64008000D03*
X53911500Y-64325500D03*
X38925500Y-65087500D03*
X86169500Y-65595500D03*
D19*
X85304980Y-62674500D02*
X96870140Y-62674500D01*
X54924114Y-62738000D02*
X64806640Y-62738000D01*
X36643194Y-60457080D02*
X38924114Y-62738000D01*
X104592501Y-63254001D02*
X104275001Y-63254001D01*
X96870140Y-62674500D02*
X99087560Y-60457080D01*
X105092500Y-63754000D02*
X104592501Y-63254001D01*
X52643194Y-60457080D02*
X54924114Y-62738000D01*
X51087560Y-60457080D02*
X52643194Y-60457080D01*
X48806640Y-62738000D02*
X51087560Y-60457080D01*
X35087560Y-60457080D02*
X36643194Y-60457080D01*
X70924114Y-62738000D02*
X80806640Y-62738000D01*
X101478080Y-60457080D02*
X99087560Y-60457080D01*
X67087560Y-60457080D02*
X68643194Y-60457080D01*
X68643194Y-60457080D02*
X70924114Y-62738000D01*
X83087560Y-60457080D02*
X85304980Y-62674500D01*
X64806640Y-62738000D02*
X67087560Y-60457080D01*
X104275001Y-63254001D02*
X101478080Y-60457080D01*
X38924114Y-62738000D02*
X48806640Y-62738000D01*
X80806640Y-62738000D02*
X83087560Y-60457080D01*
X101790500Y-70866000D02*
X101790500Y-65405000D01*
X48387000Y-78613000D02*
X54165500Y-72834500D01*
X99822000Y-72834500D02*
X101790500Y-70866000D01*
X64643000Y-72834500D02*
X99822000Y-72834500D01*
X64452500Y-72834500D02*
X64643000Y-72834500D01*
X54165500Y-72834500D02*
X64643000Y-72834500D01*
X57912000Y-64008000D02*
X70040500Y-64008000D01*
X43307000Y-78613000D02*
X57912000Y-64008000D01*
X40767000Y-78613000D02*
X53911500Y-65468500D01*
X53911500Y-65468500D02*
X53911500Y-64325500D01*
X38925500Y-65087500D02*
X38227000Y-65786000D01*
X38227000Y-65786000D02*
X38227000Y-78613000D01*
X45847000Y-78613000D02*
X58864500Y-65595500D01*
X58864500Y-65595500D02*
X86169500Y-65595500D01*
X81472120Y-58492520D02*
X81472120Y-48534320D01*
X82467800Y-47538640D02*
X84159440Y-47538640D01*
X78007560Y-60457080D02*
X79507560Y-60457080D01*
X81472120Y-48534320D02*
X82467800Y-47538640D01*
X79507560Y-60457080D02*
X81472120Y-58492520D01*
X34467800Y-47538640D02*
X36159440Y-47538640D01*
X27559000Y-71818500D02*
X27559000Y-60716160D01*
X63182500Y-78676500D02*
X63182500Y-80075990D01*
X27299920Y-60457080D02*
X30007560Y-60457080D01*
X38544500Y-82804000D02*
X27559000Y-71818500D01*
X33472120Y-58492520D02*
X33472120Y-48534320D01*
X27559000Y-60716160D02*
X27299920Y-60457080D01*
X33472120Y-48534320D02*
X34467800Y-47538640D01*
X30007560Y-60457080D02*
X31507560Y-60457080D01*
X31507560Y-60457080D02*
X33472120Y-58492520D01*
X60454490Y-82804000D02*
X38544500Y-82804000D01*
X63182500Y-80075990D02*
X60454490Y-82804000D01*
X50467800Y-47538640D02*
X52159440Y-47538640D01*
X49472120Y-58492520D02*
X49472120Y-48534320D01*
X46007560Y-60457080D02*
X47507560Y-60457080D01*
X49472120Y-48534320D02*
X50467800Y-47538640D01*
X47507560Y-60457080D02*
X49472120Y-58492520D01*
X65472120Y-58492520D02*
X65472120Y-48534320D01*
X65472120Y-48534320D02*
X66467800Y-47538640D01*
X66467800Y-47538640D02*
X68159440Y-47538640D01*
X62007560Y-60457080D02*
X63507560Y-60457080D01*
X63507560Y-60457080D02*
X65472120Y-58492520D01*
X94007560Y-60457080D02*
X95507560Y-60457080D01*
X97472120Y-58492520D02*
X97472120Y-48534320D01*
X98467800Y-47538640D02*
X100159440Y-47538640D01*
X95507560Y-60457080D02*
X97472120Y-58492520D01*
X97472120Y-48534320D02*
X98467800Y-47538640D01*
G04 #@! TA.AperFunction,Conductor*
G36*
X31738530Y-77000000D02*
G01*
X28000000Y-77000000D01*
X28000000Y-73261470D01*
X31738530Y-77000000D01*
G37*
G04 #@! TD.AperFunction*
G04 #@! TA.AperFunction,Conductor*
G36*
X57000000Y-63918030D02*
G01*
X43918030Y-77000000D01*
X43381970Y-77000000D01*
X54394656Y-65987312D01*
X54400163Y-65982127D01*
X54445715Y-65941773D01*
X54480280Y-65891695D01*
X54484751Y-65885619D01*
X54522275Y-65837726D01*
X54526454Y-65828439D01*
X54537662Y-65808565D01*
X54543454Y-65800175D01*
X54565024Y-65743294D01*
X54567925Y-65736291D01*
X54592888Y-65680829D01*
X54594725Y-65670800D01*
X54600849Y-65648835D01*
X54604465Y-65639301D01*
X54611801Y-65578882D01*
X54612935Y-65571430D01*
X54623901Y-65511593D01*
X54620230Y-65450900D01*
X54620000Y-65443293D01*
X54620000Y-65096982D01*
X54640002Y-65028861D01*
X54648601Y-65017048D01*
X54675128Y-64984725D01*
X54754095Y-64888504D01*
X54847741Y-64713304D01*
X54905408Y-64523201D01*
X54919786Y-64377226D01*
X54924880Y-64325503D01*
X54924880Y-64325496D01*
X54905409Y-64127805D01*
X54905408Y-64127803D01*
X54905408Y-64127799D01*
X54847741Y-63937696D01*
X54754095Y-63762496D01*
X54628068Y-63608932D01*
X54474504Y-63482905D01*
X54299304Y-63389259D01*
X54109201Y-63331592D01*
X54109200Y-63331591D01*
X54109194Y-63331590D01*
X53911503Y-63312120D01*
X53911497Y-63312120D01*
X53713805Y-63331590D01*
X53523695Y-63389259D01*
X53348495Y-63482905D01*
X53194932Y-63608932D01*
X53068905Y-63762495D01*
X52975259Y-63937695D01*
X52917590Y-64127805D01*
X52898120Y-64325496D01*
X52898120Y-64325503D01*
X52917590Y-64523194D01*
X52975259Y-64713304D01*
X53068905Y-64888504D01*
X53174399Y-65017048D01*
X53202153Y-65082395D01*
X53203000Y-65096982D01*
X53203000Y-65122840D01*
X53182998Y-65190961D01*
X53166095Y-65211935D01*
X41378030Y-77000000D01*
X38935500Y-77000000D01*
X38935500Y-66214094D01*
X38955502Y-66145973D01*
X39009158Y-66099480D01*
X39049150Y-66088701D01*
X39086479Y-66085024D01*
X39123193Y-66081409D01*
X39123194Y-66081408D01*
X39123201Y-66081408D01*
X39313304Y-66023741D01*
X39488504Y-65930095D01*
X39642068Y-65804068D01*
X39768095Y-65650504D01*
X39861741Y-65475304D01*
X39919408Y-65285201D01*
X39935400Y-65122840D01*
X39938880Y-65087503D01*
X39938880Y-65087496D01*
X39919409Y-64889805D01*
X39919408Y-64889803D01*
X39919408Y-64889799D01*
X39861741Y-64699696D01*
X39768095Y-64524496D01*
X39642068Y-64370932D01*
X39488504Y-64244905D01*
X39313304Y-64151259D01*
X39123201Y-64093592D01*
X39123200Y-64093591D01*
X39123194Y-64093590D01*
X38925503Y-64074120D01*
X38925497Y-64074120D01*
X38727805Y-64093590D01*
X38537695Y-64151259D01*
X38362495Y-64244905D01*
X38208932Y-64370932D01*
X38082905Y-64524495D01*
X37989259Y-64699695D01*
X37931590Y-64889805D01*
X37915292Y-65055289D01*
X37888710Y-65121121D01*
X37878994Y-65132034D01*
X37743856Y-65267172D01*
X37738316Y-65272388D01*
X37692784Y-65312726D01*
X37658237Y-65362774D01*
X37653731Y-65368898D01*
X37616228Y-65416769D01*
X37616222Y-65416779D01*
X37612035Y-65426080D01*
X37600846Y-65445921D01*
X37595045Y-65454326D01*
X37573482Y-65511183D01*
X37570570Y-65518211D01*
X37545613Y-65573665D01*
X37545609Y-65573678D01*
X37543770Y-65583711D01*
X37537651Y-65605661D01*
X37534034Y-65615199D01*
X37526705Y-65675554D01*
X37525561Y-65683071D01*
X37514598Y-65742906D01*
X37518270Y-65803608D01*
X37518500Y-65811216D01*
X37518500Y-77000000D01*
X33742470Y-77000000D01*
X28304405Y-71561935D01*
X28270379Y-71499623D01*
X28267500Y-71472840D01*
X28267500Y-63000000D01*
X57000000Y-63000000D01*
X57000000Y-63918030D01*
G37*
G04 #@! TD.AperFunction*
G04 #@! TA.AperFunction,Conductor*
G36*
X57000000Y-72126000D02*
G01*
X54190718Y-72126000D01*
X54183110Y-72125770D01*
X54173367Y-72125180D01*
X54122407Y-72122098D01*
X54122406Y-72122098D01*
X54062571Y-72133061D01*
X54055054Y-72134205D01*
X53994699Y-72141534D01*
X53985161Y-72145151D01*
X53963211Y-72151270D01*
X53953178Y-72153109D01*
X53953165Y-72153113D01*
X53897711Y-72178070D01*
X53890683Y-72180982D01*
X53833826Y-72202545D01*
X53825421Y-72208346D01*
X53805580Y-72219535D01*
X53796279Y-72223722D01*
X53796269Y-72223728D01*
X53748398Y-72261231D01*
X53742274Y-72265737D01*
X53692226Y-72300284D01*
X53651888Y-72345816D01*
X53646672Y-72351356D01*
X48998030Y-77000000D01*
X48461970Y-77000000D01*
X57000000Y-68461970D01*
X57000000Y-72126000D01*
G37*
G04 #@! TD.AperFunction*
G04 #@! TA.AperFunction,Conductor*
G36*
X57000000Y-77000000D02*
G01*
X51001970Y-77000000D01*
X54422065Y-73579905D01*
X54484377Y-73545879D01*
X54511160Y-73543000D01*
X57000000Y-73543000D01*
X57000000Y-77000000D01*
G37*
G04 #@! TD.AperFunction*
G04 #@! TA.AperFunction,Conductor*
G36*
X111004487Y-41000321D02*
G01*
X111062731Y-41004486D01*
X111275648Y-41019714D01*
X111293435Y-41022272D01*
X111554657Y-41079098D01*
X111571896Y-41084158D01*
X111822392Y-41177589D01*
X111838738Y-41185054D01*
X112073374Y-41313175D01*
X112088498Y-41322895D01*
X112302509Y-41483102D01*
X112316095Y-41494875D01*
X112505124Y-41683904D01*
X112516897Y-41697490D01*
X112677104Y-41911501D01*
X112686824Y-41926625D01*
X112814945Y-42161261D01*
X112822413Y-42177613D01*
X112915838Y-42428095D01*
X112920902Y-42445345D01*
X112977726Y-42706560D01*
X112980285Y-42724354D01*
X112999679Y-42995511D01*
X113000000Y-43004500D01*
X113000000Y-82995499D01*
X112999679Y-83004488D01*
X112980285Y-83275645D01*
X112977726Y-83293439D01*
X112920902Y-83554654D01*
X112915838Y-83571904D01*
X112822413Y-83822386D01*
X112814945Y-83838738D01*
X112686824Y-84073374D01*
X112677104Y-84088498D01*
X112516897Y-84302509D01*
X112505124Y-84316095D01*
X112316095Y-84505124D01*
X112302509Y-84516897D01*
X112088498Y-84677104D01*
X112073374Y-84686824D01*
X111838738Y-84814945D01*
X111822386Y-84822413D01*
X111571904Y-84915838D01*
X111554654Y-84920902D01*
X111293439Y-84977726D01*
X111275645Y-84980285D01*
X111004488Y-84999679D01*
X110995499Y-85000000D01*
X29004501Y-85000000D01*
X28995512Y-84999679D01*
X28724354Y-84980285D01*
X28706560Y-84977726D01*
X28445345Y-84920902D01*
X28428095Y-84915838D01*
X28177613Y-84822413D01*
X28161261Y-84814945D01*
X27926625Y-84686824D01*
X27911501Y-84677104D01*
X27697490Y-84516897D01*
X27683904Y-84505124D01*
X27494875Y-84316095D01*
X27483102Y-84302509D01*
X27322895Y-84088498D01*
X27313175Y-84073374D01*
X27185054Y-83838738D01*
X27177589Y-83822392D01*
X27084158Y-83571896D01*
X27079097Y-83554654D01*
X27068391Y-83505438D01*
X27022272Y-83293435D01*
X27019714Y-83275644D01*
X27000321Y-83004487D01*
X27000000Y-82995499D01*
X27000000Y-81067765D01*
X28145788Y-81067765D01*
X28175412Y-81337014D01*
X28243928Y-81599090D01*
X28349869Y-81848389D01*
X28349870Y-81848390D01*
X28490982Y-82079610D01*
X28664255Y-82287820D01*
X28865998Y-82468582D01*
X29091910Y-82618044D01*
X29337176Y-82733020D01*
X29596569Y-82811060D01*
X29596572Y-82811060D01*
X29596574Y-82811061D01*
X29864557Y-82850500D01*
X29864561Y-82850500D01*
X30067631Y-82850500D01*
X30270156Y-82835677D01*
X30270160Y-82835676D01*
X30270161Y-82835676D01*
X30380665Y-82811060D01*
X30534553Y-82776780D01*
X30787558Y-82680014D01*
X31023777Y-82547441D01*
X31238177Y-82381888D01*
X31426186Y-82186881D01*
X31583799Y-81966579D01*
X31707656Y-81725675D01*
X31795118Y-81469305D01*
X31844319Y-81202933D01*
X31854212Y-80932235D01*
X31839338Y-80797058D01*
X31824587Y-80662985D01*
X31780170Y-80493090D01*
X31756072Y-80400912D01*
X31733091Y-80346834D01*
X31650130Y-80151610D01*
X31635037Y-80126879D01*
X31509018Y-79920390D01*
X31335745Y-79712180D01*
X31335741Y-79712177D01*
X31335740Y-79712175D01*
X31134012Y-79531427D01*
X31134002Y-79531418D01*
X30908090Y-79381956D01*
X30662824Y-79266980D01*
X30442184Y-79200599D01*
X30403425Y-79188938D01*
X30135442Y-79149500D01*
X30135439Y-79149500D01*
X29932369Y-79149500D01*
X29729839Y-79164323D01*
X29729838Y-79164323D01*
X29465456Y-79223217D01*
X29465441Y-79223222D01*
X29212441Y-79319986D01*
X28976229Y-79452555D01*
X28976225Y-79452557D01*
X28761818Y-79618116D01*
X28573815Y-79813117D01*
X28573810Y-79813123D01*
X28416203Y-80033417D01*
X28416196Y-80033427D01*
X28292343Y-80274324D01*
X28292342Y-80274327D01*
X28204883Y-80530689D01*
X28204880Y-80530702D01*
X28155681Y-80797058D01*
X28155680Y-80797069D01*
X28145788Y-81067765D01*
X27000000Y-81067765D01*
X27000000Y-72565660D01*
X27020002Y-72497539D01*
X27073658Y-72451046D01*
X27143932Y-72440942D01*
X27208512Y-72470436D01*
X27215095Y-72476565D01*
X38025671Y-83287141D01*
X38030887Y-83292682D01*
X38071224Y-83338212D01*
X38071227Y-83338215D01*
X38121268Y-83372756D01*
X38127399Y-83377267D01*
X38175274Y-83414775D01*
X38184570Y-83418958D01*
X38204435Y-83430163D01*
X38212820Y-83435951D01*
X38212822Y-83435952D01*
X38212825Y-83435954D01*
X38212829Y-83435955D01*
X38212832Y-83435957D01*
X38269676Y-83457515D01*
X38276708Y-83460427D01*
X38332171Y-83485389D01*
X38342204Y-83487227D01*
X38364168Y-83493351D01*
X38373695Y-83496964D01*
X38373697Y-83496964D01*
X38373699Y-83496965D01*
X38434105Y-83504299D01*
X38441542Y-83505431D01*
X38501407Y-83516402D01*
X38562110Y-83512730D01*
X38569718Y-83512500D01*
X60429272Y-83512500D01*
X60436880Y-83512730D01*
X60497583Y-83516402D01*
X60557441Y-83505432D01*
X60564888Y-83504299D01*
X60625291Y-83496965D01*
X60634820Y-83493350D01*
X60656794Y-83487226D01*
X60666819Y-83485389D01*
X60722287Y-83460423D01*
X60729292Y-83457522D01*
X60786165Y-83435954D01*
X60794556Y-83430161D01*
X60814412Y-83418961D01*
X60823716Y-83414775D01*
X60871630Y-83377235D01*
X60877685Y-83372780D01*
X60927763Y-83338215D01*
X60968117Y-83292663D01*
X60973302Y-83287156D01*
X63192693Y-81067765D01*
X108145788Y-81067765D01*
X108175412Y-81337014D01*
X108243928Y-81599090D01*
X108349869Y-81848389D01*
X108349870Y-81848390D01*
X108490982Y-82079610D01*
X108664255Y-82287820D01*
X108865998Y-82468582D01*
X109091910Y-82618044D01*
X109337176Y-82733020D01*
X109596569Y-82811060D01*
X109596572Y-82811060D01*
X109596574Y-82811061D01*
X109864557Y-82850500D01*
X109864561Y-82850500D01*
X110067631Y-82850500D01*
X110270156Y-82835677D01*
X110270160Y-82835676D01*
X110270161Y-82835676D01*
X110380665Y-82811060D01*
X110534553Y-82776780D01*
X110787558Y-82680014D01*
X111023777Y-82547441D01*
X111238177Y-82381888D01*
X111426186Y-82186881D01*
X111583799Y-81966579D01*
X111707656Y-81725675D01*
X111795118Y-81469305D01*
X111844319Y-81202933D01*
X111854212Y-80932235D01*
X111839338Y-80797058D01*
X111824587Y-80662985D01*
X111780170Y-80493090D01*
X111756072Y-80400912D01*
X111733091Y-80346834D01*
X111650130Y-80151610D01*
X111635037Y-80126879D01*
X111509018Y-79920390D01*
X111335745Y-79712180D01*
X111335741Y-79712177D01*
X111335740Y-79712175D01*
X111134012Y-79531427D01*
X111134002Y-79531418D01*
X110908090Y-79381956D01*
X110662824Y-79266980D01*
X110442184Y-79200599D01*
X110403425Y-79188938D01*
X110135442Y-79149500D01*
X110135439Y-79149500D01*
X109932369Y-79149500D01*
X109729839Y-79164323D01*
X109729838Y-79164323D01*
X109465456Y-79223217D01*
X109465441Y-79223222D01*
X109212441Y-79319986D01*
X108976229Y-79452555D01*
X108976225Y-79452557D01*
X108761818Y-79618116D01*
X108573815Y-79813117D01*
X108573810Y-79813123D01*
X108416203Y-80033417D01*
X108416196Y-80033427D01*
X108292343Y-80274324D01*
X108292342Y-80274327D01*
X108204883Y-80530689D01*
X108204880Y-80530702D01*
X108155681Y-80797058D01*
X108155680Y-80797069D01*
X108145788Y-81067765D01*
X63192693Y-81067765D01*
X63665656Y-80594802D01*
X63671163Y-80589617D01*
X63716715Y-80549263D01*
X63751280Y-80499185D01*
X63755735Y-80493130D01*
X63793275Y-80445216D01*
X63797461Y-80435912D01*
X63808661Y-80416056D01*
X63814454Y-80407665D01*
X63836022Y-80350792D01*
X63838923Y-80343787D01*
X63863889Y-80288319D01*
X63863989Y-80287775D01*
X63864171Y-80287412D01*
X63866159Y-80281036D01*
X63867219Y-80281366D01*
X63895944Y-80224377D01*
X63957102Y-80188318D01*
X63987925Y-80184490D01*
X64230622Y-80184490D01*
X64230628Y-80184490D01*
X64230635Y-80184489D01*
X64230639Y-80184489D01*
X64291186Y-80177980D01*
X64291189Y-80177979D01*
X64291191Y-80177979D01*
X64428194Y-80126879D01*
X64434091Y-80122465D01*
X64545251Y-80039251D01*
X64638280Y-79914980D01*
X64640485Y-79916631D01*
X64680606Y-79876495D01*
X64749977Y-79861389D01*
X64816502Y-79886186D01*
X64822830Y-79891247D01*
X64833385Y-79900262D01*
X65035770Y-80024284D01*
X65255065Y-80115118D01*
X65485869Y-80170530D01*
X65722500Y-80189153D01*
X65959131Y-80170530D01*
X66189935Y-80115118D01*
X66409230Y-80024284D01*
X66611615Y-79900262D01*
X66792107Y-79746107D01*
X66896689Y-79623656D01*
X66956139Y-79584848D01*
X67027134Y-79584340D01*
X67087133Y-79622296D01*
X67088283Y-79623625D01*
X67103662Y-79641631D01*
X67192892Y-79746107D01*
X67373381Y-79900259D01*
X67373385Y-79900262D01*
X67575770Y-80024284D01*
X67795065Y-80115118D01*
X68025869Y-80170530D01*
X68262500Y-80189153D01*
X68499131Y-80170530D01*
X68729935Y-80115118D01*
X68949230Y-80024284D01*
X69151615Y-79900262D01*
X69332107Y-79746107D01*
X69436689Y-79623656D01*
X69496139Y-79584848D01*
X69567134Y-79584340D01*
X69627133Y-79622296D01*
X69628283Y-79623625D01*
X69643662Y-79641631D01*
X69732892Y-79746107D01*
X69913381Y-79900259D01*
X69913385Y-79900262D01*
X70115770Y-80024284D01*
X70335065Y-80115118D01*
X70565869Y-80170530D01*
X70802500Y-80189153D01*
X71039131Y-80170530D01*
X71269935Y-80115118D01*
X71489230Y-80024284D01*
X71691615Y-79900262D01*
X71872107Y-79746107D01*
X71976689Y-79623656D01*
X72036139Y-79584848D01*
X72107134Y-79584340D01*
X72167133Y-79622296D01*
X72168283Y-79623625D01*
X72183662Y-79641631D01*
X72272892Y-79746107D01*
X72453381Y-79900259D01*
X72453385Y-79900262D01*
X72655770Y-80024284D01*
X72875065Y-80115118D01*
X73105869Y-80170530D01*
X73342500Y-80189153D01*
X73579131Y-80170530D01*
X73809935Y-80115118D01*
X74029230Y-80024284D01*
X74231615Y-79900262D01*
X74412107Y-79746107D01*
X74517018Y-79623271D01*
X74576468Y-79584463D01*
X74647463Y-79583955D01*
X74707462Y-79621911D01*
X74708640Y-79623272D01*
X74813247Y-79745752D01*
X74993676Y-79899853D01*
X74993683Y-79899858D01*
X75195996Y-80023834D01*
X75415221Y-80114641D01*
X75628500Y-80165844D01*
X75628500Y-79164159D01*
X75661866Y-79184450D01*
X75807091Y-79225140D01*
X75920028Y-79225140D01*
X76031913Y-79209762D01*
X76136500Y-79164333D01*
X76136500Y-80165843D01*
X76349778Y-80114641D01*
X76569003Y-80023834D01*
X76730129Y-79925097D01*
X84334500Y-79925097D01*
X84341005Y-79985593D01*
X84392055Y-80122464D01*
X84392055Y-80122465D01*
X84479595Y-80239404D01*
X84596534Y-80326944D01*
X84733406Y-80377994D01*
X84793902Y-80384499D01*
X84793915Y-80384500D01*
X85788500Y-80384500D01*
X85788500Y-79220724D01*
X85885869Y-79261056D01*
X86003177Y-79276500D01*
X86081823Y-79276500D01*
X86199131Y-79261056D01*
X86296500Y-79220724D01*
X86296500Y-80384500D01*
X87291085Y-80384500D01*
X87291097Y-80384499D01*
X87351593Y-80377994D01*
X87488464Y-80326944D01*
X87488465Y-80326944D01*
X87605404Y-80239404D01*
X87692944Y-80122465D01*
X87692944Y-80122464D01*
X87743994Y-79985593D01*
X87750499Y-79925097D01*
X87750500Y-79925085D01*
X87750500Y-79452939D01*
X87770502Y-79384818D01*
X87824158Y-79338325D01*
X87894432Y-79328221D01*
X87959012Y-79357715D01*
X87993790Y-79406907D01*
X87998872Y-79419858D01*
X87998876Y-79419866D01*
X88126910Y-79641627D01*
X88126912Y-79641630D01*
X88126913Y-79641631D01*
X88286569Y-79841834D01*
X88474281Y-80016005D01*
X88474287Y-80016009D01*
X88685845Y-80160248D01*
X88685852Y-80160252D01*
X88685855Y-80160254D01*
X88773412Y-80202419D01*
X88916560Y-80271356D01*
X88916573Y-80271361D01*
X89161246Y-80346832D01*
X89161248Y-80346832D01*
X89161257Y-80346835D01*
X89414466Y-80385000D01*
X89414470Y-80385000D01*
X89670530Y-80385000D01*
X89670534Y-80385000D01*
X89923743Y-80346835D01*
X89933686Y-80343768D01*
X90168429Y-80271360D01*
X90168430Y-80271359D01*
X90168435Y-80271358D01*
X90399146Y-80160254D01*
X90610719Y-80016005D01*
X90798431Y-79841834D01*
X90958087Y-79641631D01*
X91086122Y-79419869D01*
X91086127Y-79419858D01*
X91162547Y-79225140D01*
X91179674Y-79181501D01*
X91236655Y-78931853D01*
X91255791Y-78676500D01*
X91236655Y-78421147D01*
X91179674Y-78171499D01*
X91142390Y-78076500D01*
X91086125Y-77933137D01*
X91086123Y-77933133D01*
X90958089Y-77711372D01*
X90891899Y-77628372D01*
X90798431Y-77511166D01*
X90610719Y-77336995D01*
X90399146Y-77192746D01*
X90399143Y-77192745D01*
X90399141Y-77192743D01*
X90399140Y-77192742D01*
X90168436Y-77081642D01*
X90168429Y-77081639D01*
X89923753Y-77006167D01*
X89923745Y-77006165D01*
X89923743Y-77006165D01*
X89670534Y-76968000D01*
X89414466Y-76968000D01*
X89161257Y-77006165D01*
X89161255Y-77006165D01*
X89161246Y-77006167D01*
X88916573Y-77081638D01*
X88916560Y-77081643D01*
X88685852Y-77192747D01*
X88685845Y-77192751D01*
X88474287Y-77336990D01*
X88474282Y-77336994D01*
X88286570Y-77511165D01*
X88126910Y-77711372D01*
X87998876Y-77933133D01*
X87998876Y-77933134D01*
X87993790Y-77946094D01*
X87950282Y-78002198D01*
X87883350Y-78025874D01*
X87814242Y-78009604D01*
X87764901Y-77958555D01*
X87750500Y-77900060D01*
X87750500Y-77427914D01*
X87750499Y-77427902D01*
X87743994Y-77367406D01*
X87692944Y-77230535D01*
X87692944Y-77230534D01*
X87605404Y-77113595D01*
X87488465Y-77026055D01*
X87351593Y-76975005D01*
X87291097Y-76968500D01*
X86296500Y-76968500D01*
X86296500Y-78132275D01*
X86199131Y-78091944D01*
X86081823Y-78076500D01*
X86003177Y-78076500D01*
X85885869Y-78091944D01*
X85788500Y-78132275D01*
X85788500Y-76968500D01*
X84793902Y-76968500D01*
X84733406Y-76975005D01*
X84596535Y-77026055D01*
X84596534Y-77026055D01*
X84479595Y-77113595D01*
X84392055Y-77230534D01*
X84392055Y-77230535D01*
X84341005Y-77367406D01*
X84334500Y-77427902D01*
X84334500Y-78422500D01*
X85498275Y-78422500D01*
X85457944Y-78519869D01*
X85437323Y-78676500D01*
X85457944Y-78833131D01*
X85498275Y-78930500D01*
X84334500Y-78930500D01*
X84334500Y-79925097D01*
X76730129Y-79925097D01*
X76771316Y-79899858D01*
X76771323Y-79899853D01*
X76951752Y-79745752D01*
X77105853Y-79565323D01*
X77105858Y-79565316D01*
X77229834Y-79363003D01*
X77320641Y-79143778D01*
X77371844Y-78930500D01*
X76374487Y-78930500D01*
X76424715Y-78789174D01*
X76435007Y-78638707D01*
X76404322Y-78491044D01*
X76368805Y-78422500D01*
X77371844Y-78422500D01*
X77320641Y-78209221D01*
X77229834Y-77989996D01*
X77105858Y-77787683D01*
X77105853Y-77787676D01*
X76951752Y-77607247D01*
X76771323Y-77453146D01*
X76771316Y-77453141D01*
X76569003Y-77329165D01*
X76349775Y-77238357D01*
X76349776Y-77238357D01*
X76136500Y-77187153D01*
X76136500Y-78188840D01*
X76103134Y-78168550D01*
X75957909Y-78127860D01*
X75844972Y-78127860D01*
X75733087Y-78143238D01*
X75628500Y-78188666D01*
X75628500Y-77187153D01*
X75415224Y-77238357D01*
X75195996Y-77329165D01*
X74993683Y-77453141D01*
X74993676Y-77453146D01*
X74813250Y-77607245D01*
X74708640Y-77729728D01*
X74649189Y-77768537D01*
X74578195Y-77769043D01*
X74518196Y-77731087D01*
X74517018Y-77729728D01*
X74412107Y-77606893D01*
X74412105Y-77606891D01*
X74412104Y-77606890D01*
X74231618Y-77452740D01*
X74231616Y-77452739D01*
X74231615Y-77452738D01*
X74029230Y-77328716D01*
X73875924Y-77265215D01*
X73809933Y-77237881D01*
X73652048Y-77199976D01*
X73579131Y-77182470D01*
X73579132Y-77182470D01*
X73342500Y-77163847D01*
X73105868Y-77182470D01*
X72875066Y-77237881D01*
X72655771Y-77328715D01*
X72453383Y-77452739D01*
X72453381Y-77452740D01*
X72272892Y-77606892D01*
X72168311Y-77729342D01*
X72108861Y-77768152D01*
X72037866Y-77768658D01*
X71977867Y-77730702D01*
X71976689Y-77729342D01*
X71872107Y-77606892D01*
X71691618Y-77452740D01*
X71691616Y-77452739D01*
X71691615Y-77452738D01*
X71489230Y-77328716D01*
X71335924Y-77265215D01*
X71269933Y-77237881D01*
X71112048Y-77199976D01*
X71039131Y-77182470D01*
X71039132Y-77182470D01*
X70802500Y-77163847D01*
X70565868Y-77182470D01*
X70335066Y-77237881D01*
X70115771Y-77328715D01*
X69913383Y-77452739D01*
X69913381Y-77452740D01*
X69732892Y-77606892D01*
X69628311Y-77729342D01*
X69568861Y-77768152D01*
X69497866Y-77768658D01*
X69437867Y-77730702D01*
X69436689Y-77729342D01*
X69332107Y-77606892D01*
X69151618Y-77452740D01*
X69151616Y-77452739D01*
X69151615Y-77452738D01*
X68949230Y-77328716D01*
X68795924Y-77265215D01*
X68729933Y-77237881D01*
X68572048Y-77199976D01*
X68499131Y-77182470D01*
X68499132Y-77182470D01*
X68262500Y-77163847D01*
X68025868Y-77182470D01*
X67795066Y-77237881D01*
X67575771Y-77328715D01*
X67373383Y-77452739D01*
X67373381Y-77452740D01*
X67192892Y-77606892D01*
X67088311Y-77729342D01*
X67028861Y-77768152D01*
X66957866Y-77768658D01*
X66897867Y-77730702D01*
X66896689Y-77729342D01*
X66792107Y-77606892D01*
X66611618Y-77452740D01*
X66611616Y-77452739D01*
X66611615Y-77452738D01*
X66409230Y-77328716D01*
X66255924Y-77265215D01*
X66189933Y-77237881D01*
X66032048Y-77199976D01*
X65959131Y-77182470D01*
X65959132Y-77182470D01*
X65722500Y-77163847D01*
X65485868Y-77182470D01*
X65255066Y-77237881D01*
X65035771Y-77328715D01*
X64833383Y-77452739D01*
X64833382Y-77452739D01*
X64822842Y-77461742D01*
X64758052Y-77490772D01*
X64687852Y-77480165D01*
X64639161Y-77437359D01*
X64638280Y-77438020D01*
X64635137Y-77433822D01*
X64634531Y-77433289D01*
X64633768Y-77431993D01*
X64545251Y-77313748D01*
X64428197Y-77226122D01*
X64428192Y-77226120D01*
X64291194Y-77175021D01*
X64291186Y-77175019D01*
X64230639Y-77168510D01*
X64230628Y-77168510D01*
X62134372Y-77168510D01*
X62134360Y-77168510D01*
X62073813Y-77175019D01*
X62073805Y-77175021D01*
X61936807Y-77226120D01*
X61936802Y-77226122D01*
X61819748Y-77313748D01*
X61732122Y-77430802D01*
X61732120Y-77430807D01*
X61681021Y-77567805D01*
X61681019Y-77567813D01*
X61674510Y-77628360D01*
X61674510Y-79724639D01*
X61681019Y-79785186D01*
X61681021Y-79785194D01*
X61732120Y-79922192D01*
X61732122Y-79922197D01*
X61819747Y-80039249D01*
X61819748Y-80039249D01*
X61819749Y-80039251D01*
X61851980Y-80063379D01*
X61930678Y-80122292D01*
X61973224Y-80179128D01*
X61978288Y-80249944D01*
X61944263Y-80312255D01*
X60197923Y-82058596D01*
X60135613Y-82092620D01*
X60108830Y-82095500D01*
X38890160Y-82095500D01*
X38822039Y-82075498D01*
X38801065Y-82058595D01*
X37078016Y-80335546D01*
X37043990Y-80273234D01*
X37049055Y-80202419D01*
X37091602Y-80145583D01*
X37158122Y-80120772D01*
X37175484Y-80121086D01*
X37175499Y-80120809D01*
X37178866Y-80120989D01*
X37178872Y-80120990D01*
X37178878Y-80120990D01*
X39275122Y-80120990D01*
X39275128Y-80120990D01*
X39275135Y-80120989D01*
X39275139Y-80120989D01*
X39335686Y-80114480D01*
X39335689Y-80114479D01*
X39335691Y-80114479D01*
X39472694Y-80063379D01*
X39512719Y-80033417D01*
X39589751Y-79975751D01*
X39682780Y-79851480D01*
X39684985Y-79853131D01*
X39725106Y-79812995D01*
X39794477Y-79797889D01*
X39861002Y-79822686D01*
X39867330Y-79827747D01*
X39877885Y-79836762D01*
X40080270Y-79960784D01*
X40299565Y-80051618D01*
X40530369Y-80107030D01*
X40767000Y-80125653D01*
X41003631Y-80107030D01*
X41234435Y-80051618D01*
X41453730Y-79960784D01*
X41656115Y-79836762D01*
X41836607Y-79682607D01*
X41941189Y-79560156D01*
X42000639Y-79521348D01*
X42071634Y-79520840D01*
X42131633Y-79558796D01*
X42132783Y-79560125D01*
X42153136Y-79583955D01*
X42237392Y-79682607D01*
X42417881Y-79836759D01*
X42417885Y-79836762D01*
X42620270Y-79960784D01*
X42839565Y-80051618D01*
X43070369Y-80107030D01*
X43307000Y-80125653D01*
X43543631Y-80107030D01*
X43774435Y-80051618D01*
X43993730Y-79960784D01*
X44196115Y-79836762D01*
X44376607Y-79682607D01*
X44481189Y-79560156D01*
X44540639Y-79521348D01*
X44611634Y-79520840D01*
X44671633Y-79558796D01*
X44672783Y-79560125D01*
X44693136Y-79583955D01*
X44777392Y-79682607D01*
X44957881Y-79836759D01*
X44957885Y-79836762D01*
X45160270Y-79960784D01*
X45379565Y-80051618D01*
X45610369Y-80107030D01*
X45847000Y-80125653D01*
X46083631Y-80107030D01*
X46314435Y-80051618D01*
X46533730Y-79960784D01*
X46736115Y-79836762D01*
X46916607Y-79682607D01*
X47021189Y-79560156D01*
X47080639Y-79521348D01*
X47151634Y-79520840D01*
X47211633Y-79558796D01*
X47212783Y-79560125D01*
X47233136Y-79583955D01*
X47317392Y-79682607D01*
X47497881Y-79836759D01*
X47497885Y-79836762D01*
X47700270Y-79960784D01*
X47919565Y-80051618D01*
X48150369Y-80107030D01*
X48387000Y-80125653D01*
X48623631Y-80107030D01*
X48854435Y-80051618D01*
X49073730Y-79960784D01*
X49276115Y-79836762D01*
X49456607Y-79682607D01*
X49561518Y-79559771D01*
X49620968Y-79520963D01*
X49691963Y-79520455D01*
X49751962Y-79558411D01*
X49753140Y-79559772D01*
X49857747Y-79682252D01*
X50038176Y-79836353D01*
X50038183Y-79836358D01*
X50240496Y-79960334D01*
X50459721Y-80051141D01*
X50673000Y-80102344D01*
X50673000Y-79100659D01*
X50706366Y-79120950D01*
X50851591Y-79161640D01*
X50964528Y-79161640D01*
X51076413Y-79146262D01*
X51181000Y-79100833D01*
X51181000Y-80102343D01*
X51394278Y-80051141D01*
X51613503Y-79960334D01*
X51815816Y-79836358D01*
X51815823Y-79836353D01*
X51996252Y-79682252D01*
X52150353Y-79501823D01*
X52150358Y-79501816D01*
X52274334Y-79299503D01*
X52365141Y-79080278D01*
X52416344Y-78867000D01*
X51418987Y-78867000D01*
X51469215Y-78725674D01*
X51479507Y-78575207D01*
X51448822Y-78427544D01*
X51413305Y-78359000D01*
X52416344Y-78359000D01*
X52365141Y-78145721D01*
X52274334Y-77926496D01*
X52150358Y-77724183D01*
X52150353Y-77724176D01*
X51996252Y-77543747D01*
X51815823Y-77389646D01*
X51815816Y-77389641D01*
X51613503Y-77265665D01*
X51394280Y-77174859D01*
X51158739Y-77118311D01*
X51159091Y-77116840D01*
X51101017Y-77089308D01*
X51063491Y-77029039D01*
X51064507Y-76958050D01*
X51095784Y-76906184D01*
X54422065Y-73579905D01*
X54484377Y-73545879D01*
X54511160Y-73543000D01*
X64409641Y-73543000D01*
X64600141Y-73543000D01*
X99796782Y-73543000D01*
X99804390Y-73543230D01*
X99865093Y-73546902D01*
X99924951Y-73535932D01*
X99932398Y-73534799D01*
X99992801Y-73527465D01*
X100002330Y-73523850D01*
X100024304Y-73517726D01*
X100034329Y-73515889D01*
X100089797Y-73490923D01*
X100096802Y-73488022D01*
X100153675Y-73466454D01*
X100162066Y-73460661D01*
X100181922Y-73449461D01*
X100191226Y-73445275D01*
X100239140Y-73407735D01*
X100245195Y-73403280D01*
X100295273Y-73368715D01*
X100335612Y-73323181D01*
X100340810Y-73317659D01*
X102273665Y-71384804D01*
X102279172Y-71379619D01*
X102324715Y-71339273D01*
X102359278Y-71289197D01*
X102363754Y-71283115D01*
X102401275Y-71235226D01*
X102405461Y-71225922D01*
X102416661Y-71206066D01*
X102422454Y-71197675D01*
X102444032Y-71140775D01*
X102446918Y-71133809D01*
X102471888Y-71078330D01*
X102473724Y-71068308D01*
X102479851Y-71046329D01*
X102483465Y-71036801D01*
X102490798Y-70976397D01*
X102491935Y-70968927D01*
X102502901Y-70909093D01*
X102499230Y-70848400D01*
X102499000Y-70840793D01*
X102499000Y-66176482D01*
X102519002Y-66108361D01*
X102527601Y-66096548D01*
X102534041Y-66088701D01*
X102633095Y-65968004D01*
X102726741Y-65792804D01*
X102784408Y-65602701D01*
X102785118Y-65595500D01*
X102803880Y-65405003D01*
X102803880Y-65404996D01*
X102784409Y-65207305D01*
X102784408Y-65207303D01*
X102784408Y-65207299D01*
X102726741Y-65017196D01*
X102633095Y-64841996D01*
X102507068Y-64688432D01*
X102353504Y-64562405D01*
X102178304Y-64468759D01*
X101988201Y-64411092D01*
X101988200Y-64411091D01*
X101988194Y-64411090D01*
X101790503Y-64391620D01*
X101790497Y-64391620D01*
X101592805Y-64411090D01*
X101402695Y-64468759D01*
X101227495Y-64562405D01*
X101073932Y-64688432D01*
X100947905Y-64841995D01*
X100854259Y-65017195D01*
X100796590Y-65207305D01*
X100777120Y-65404996D01*
X100777120Y-65405003D01*
X100796590Y-65602694D01*
X100796591Y-65602700D01*
X100796592Y-65602701D01*
X100854259Y-65792804D01*
X100947905Y-65968004D01*
X101040974Y-66081409D01*
X101053399Y-66096548D01*
X101081153Y-66161895D01*
X101082000Y-66176482D01*
X101082000Y-70520339D01*
X101061998Y-70588460D01*
X101045095Y-70609434D01*
X99565435Y-72089095D01*
X99503123Y-72123120D01*
X99476340Y-72126000D01*
X54190718Y-72126000D01*
X54183110Y-72125770D01*
X54173367Y-72125180D01*
X54122407Y-72122098D01*
X54122406Y-72122098D01*
X54062571Y-72133061D01*
X54055054Y-72134205D01*
X53994699Y-72141534D01*
X53985161Y-72145151D01*
X53963211Y-72151270D01*
X53953178Y-72153109D01*
X53953165Y-72153113D01*
X53897711Y-72178070D01*
X53890683Y-72180982D01*
X53833826Y-72202545D01*
X53825421Y-72208346D01*
X53805580Y-72219535D01*
X53796279Y-72223722D01*
X53796269Y-72223728D01*
X53748398Y-72261231D01*
X53742274Y-72265737D01*
X53692226Y-72300284D01*
X53651888Y-72345816D01*
X53646672Y-72351356D01*
X48879504Y-77118524D01*
X48817192Y-77152550D01*
X48760996Y-77151948D01*
X48682875Y-77133193D01*
X48623631Y-77118970D01*
X48623628Y-77118969D01*
X48618818Y-77117815D01*
X48619194Y-77116245D01*
X48561446Y-77088860D01*
X48523928Y-77028586D01*
X48524951Y-76957597D01*
X48556226Y-76905742D01*
X59121065Y-66340905D01*
X59183377Y-66306879D01*
X59210160Y-66304000D01*
X85398018Y-66304000D01*
X85466139Y-66324002D01*
X85477947Y-66332597D01*
X85606496Y-66438095D01*
X85781696Y-66531741D01*
X85971799Y-66589408D01*
X85971803Y-66589408D01*
X85971805Y-66589409D01*
X86169497Y-66608880D01*
X86169500Y-66608880D01*
X86169503Y-66608880D01*
X86367194Y-66589409D01*
X86367195Y-66589408D01*
X86367201Y-66589408D01*
X86557304Y-66531741D01*
X86732504Y-66438095D01*
X86886068Y-66312068D01*
X87012095Y-66158504D01*
X87105741Y-65983304D01*
X87163408Y-65793201D01*
X87174996Y-65675554D01*
X87182880Y-65595503D01*
X87182880Y-65595496D01*
X87163409Y-65397805D01*
X87163408Y-65397803D01*
X87163408Y-65397799D01*
X87105741Y-65207696D01*
X87012095Y-65032496D01*
X86886068Y-64878932D01*
X86732504Y-64752905D01*
X86557304Y-64659259D01*
X86367201Y-64601592D01*
X86367200Y-64601591D01*
X86367194Y-64601590D01*
X86169503Y-64582120D01*
X86169497Y-64582120D01*
X85971805Y-64601590D01*
X85781695Y-64659259D01*
X85606495Y-64752905D01*
X85561103Y-64790158D01*
X85477950Y-64858399D01*
X85412605Y-64886153D01*
X85398018Y-64887000D01*
X70890168Y-64887000D01*
X70822047Y-64866998D01*
X70775554Y-64813342D01*
X70765450Y-64743068D01*
X70792769Y-64681066D01*
X70883095Y-64571004D01*
X70976741Y-64395804D01*
X71034408Y-64205701D01*
X71053880Y-64008000D01*
X71034408Y-63810299D01*
X70976741Y-63620196D01*
X70883095Y-63444996D01*
X70757068Y-63291432D01*
X70603504Y-63165405D01*
X70428304Y-63071759D01*
X70238201Y-63014092D01*
X70238200Y-63014091D01*
X70238194Y-63014090D01*
X70040503Y-62994620D01*
X70040497Y-62994620D01*
X69842805Y-63014090D01*
X69652695Y-63071759D01*
X69477495Y-63165405D01*
X69393100Y-63234666D01*
X69348950Y-63270899D01*
X69283605Y-63298653D01*
X69269018Y-63299500D01*
X57937218Y-63299500D01*
X57929610Y-63299270D01*
X57919410Y-63298653D01*
X57868907Y-63295598D01*
X57868906Y-63295598D01*
X57809071Y-63306561D01*
X57801554Y-63307705D01*
X57741199Y-63315034D01*
X57731661Y-63318651D01*
X57709711Y-63324770D01*
X57699678Y-63326609D01*
X57699665Y-63326613D01*
X57644211Y-63351570D01*
X57637183Y-63354482D01*
X57580326Y-63376045D01*
X57571921Y-63381846D01*
X57552080Y-63393035D01*
X57542779Y-63397222D01*
X57542769Y-63397228D01*
X57494898Y-63434731D01*
X57488774Y-63439237D01*
X57438726Y-63473784D01*
X57398388Y-63519316D01*
X57393172Y-63524856D01*
X43799504Y-77118524D01*
X43737192Y-77152550D01*
X43680996Y-77151948D01*
X43602875Y-77133193D01*
X43543631Y-77118970D01*
X43543628Y-77118969D01*
X43538818Y-77117815D01*
X43539194Y-77116245D01*
X43481446Y-77088860D01*
X43443928Y-77028586D01*
X43444951Y-76957597D01*
X43476226Y-76905742D01*
X54394656Y-65987312D01*
X54400163Y-65982127D01*
X54445715Y-65941773D01*
X54480280Y-65891695D01*
X54484751Y-65885619D01*
X54522275Y-65837726D01*
X54526454Y-65828439D01*
X54537662Y-65808565D01*
X54543454Y-65800175D01*
X54565024Y-65743294D01*
X54567925Y-65736291D01*
X54592888Y-65680829D01*
X54594725Y-65670800D01*
X54600849Y-65648835D01*
X54604465Y-65639301D01*
X54611801Y-65578882D01*
X54612935Y-65571430D01*
X54623901Y-65511593D01*
X54620230Y-65450900D01*
X54620000Y-65443293D01*
X54620000Y-65096982D01*
X54640002Y-65028861D01*
X54648601Y-65017048D01*
X54754095Y-64888504D01*
X54847741Y-64713304D01*
X54905408Y-64523201D01*
X54920406Y-64370932D01*
X54924880Y-64325503D01*
X54924880Y-64325496D01*
X54905409Y-64127805D01*
X54905408Y-64127803D01*
X54905408Y-64127799D01*
X54847741Y-63937696D01*
X54754095Y-63762496D01*
X54628068Y-63608932D01*
X54474504Y-63482905D01*
X54299304Y-63389259D01*
X54109201Y-63331592D01*
X54109200Y-63331591D01*
X54109194Y-63331590D01*
X53911503Y-63312120D01*
X53911497Y-63312120D01*
X53713805Y-63331590D01*
X53523695Y-63389259D01*
X53348495Y-63482905D01*
X53194932Y-63608932D01*
X53068905Y-63762495D01*
X52975259Y-63937695D01*
X52917590Y-64127805D01*
X52898120Y-64325496D01*
X52898120Y-64325503D01*
X52917590Y-64523194D01*
X52917591Y-64523200D01*
X52917592Y-64523201D01*
X52975259Y-64713304D01*
X53068905Y-64888504D01*
X53147869Y-64984722D01*
X53174399Y-65017048D01*
X53202153Y-65082395D01*
X53203000Y-65096982D01*
X53203000Y-65122839D01*
X53182998Y-65190960D01*
X53166095Y-65211934D01*
X41259504Y-77118524D01*
X41197192Y-77152550D01*
X41140996Y-77151948D01*
X41003631Y-77118970D01*
X40767000Y-77100347D01*
X40530368Y-77118970D01*
X40299566Y-77174381D01*
X40080271Y-77265215D01*
X39877883Y-77389239D01*
X39877882Y-77389239D01*
X39867342Y-77398242D01*
X39802552Y-77427272D01*
X39732352Y-77416665D01*
X39683661Y-77373859D01*
X39682780Y-77374520D01*
X39679637Y-77370322D01*
X39679031Y-77369789D01*
X39678268Y-77368493D01*
X39589751Y-77250248D01*
X39472697Y-77162622D01*
X39472692Y-77162620D01*
X39335694Y-77111521D01*
X39335686Y-77111519D01*
X39275139Y-77105010D01*
X39275128Y-77105010D01*
X39061500Y-77105010D01*
X38993379Y-77085008D01*
X38946886Y-77031352D01*
X38935500Y-76979010D01*
X38935500Y-66214094D01*
X38955502Y-66145973D01*
X39009158Y-66099480D01*
X39049150Y-66088701D01*
X39086479Y-66085024D01*
X39123193Y-66081409D01*
X39123194Y-66081408D01*
X39123201Y-66081408D01*
X39313304Y-66023741D01*
X39488504Y-65930095D01*
X39642068Y-65804068D01*
X39768095Y-65650504D01*
X39861741Y-65475304D01*
X39919408Y-65285201D01*
X39926625Y-65211934D01*
X39938880Y-65087503D01*
X39938880Y-65087496D01*
X39919409Y-64889805D01*
X39919408Y-64889803D01*
X39919408Y-64889799D01*
X39861741Y-64699696D01*
X39768095Y-64524496D01*
X39642068Y-64370932D01*
X39488504Y-64244905D01*
X39313304Y-64151259D01*
X39123201Y-64093592D01*
X39123200Y-64093591D01*
X39123194Y-64093590D01*
X38925503Y-64074120D01*
X38925497Y-64074120D01*
X38727805Y-64093590D01*
X38537695Y-64151259D01*
X38362495Y-64244905D01*
X38208932Y-64370932D01*
X38082905Y-64524495D01*
X37989259Y-64699695D01*
X37931590Y-64889805D01*
X37915292Y-65055289D01*
X37888710Y-65121121D01*
X37878994Y-65132034D01*
X37743856Y-65267172D01*
X37738316Y-65272388D01*
X37692784Y-65312726D01*
X37658237Y-65362774D01*
X37653731Y-65368898D01*
X37616228Y-65416769D01*
X37616222Y-65416779D01*
X37612035Y-65426080D01*
X37600846Y-65445921D01*
X37595045Y-65454326D01*
X37573482Y-65511183D01*
X37570570Y-65518211D01*
X37545613Y-65573665D01*
X37545609Y-65573678D01*
X37543770Y-65583711D01*
X37537651Y-65605661D01*
X37534034Y-65615199D01*
X37526705Y-65675554D01*
X37525561Y-65683071D01*
X37514598Y-65742906D01*
X37518270Y-65803608D01*
X37518500Y-65811216D01*
X37518500Y-76979010D01*
X37498498Y-77047131D01*
X37444842Y-77093624D01*
X37392500Y-77105010D01*
X37178860Y-77105010D01*
X37118313Y-77111519D01*
X37118305Y-77111521D01*
X36981307Y-77162620D01*
X36981302Y-77162622D01*
X36864248Y-77250248D01*
X36776622Y-77367302D01*
X36776620Y-77367307D01*
X36725521Y-77504305D01*
X36725519Y-77504313D01*
X36719010Y-77564860D01*
X36719010Y-79661122D01*
X36719191Y-79664501D01*
X36717898Y-79664570D01*
X36706218Y-79729293D01*
X36657837Y-79781253D01*
X36589045Y-79798808D01*
X36521683Y-79776384D01*
X36504453Y-79761983D01*
X28304405Y-71561935D01*
X28270379Y-71499623D01*
X28267500Y-71472840D01*
X28267500Y-61929150D01*
X28287502Y-61861029D01*
X28341158Y-61814536D01*
X28411432Y-61804432D01*
X28476012Y-61833926D01*
X28494368Y-61853641D01*
X28544298Y-61920341D01*
X28661352Y-62007967D01*
X28661354Y-62007968D01*
X28661356Y-62007969D01*
X28720435Y-62030004D01*
X28798355Y-62059068D01*
X28798363Y-62059070D01*
X28858910Y-62065579D01*
X28858915Y-62065579D01*
X28858922Y-62065580D01*
X28858928Y-62065580D01*
X31156192Y-62065580D01*
X31156198Y-62065580D01*
X31156205Y-62065579D01*
X31156209Y-62065579D01*
X31216756Y-62059070D01*
X31216759Y-62059069D01*
X31216761Y-62059069D01*
X31353764Y-62007969D01*
X31470821Y-61920341D01*
X31558449Y-61803284D01*
X31609549Y-61666281D01*
X31616060Y-61605718D01*
X31616060Y-61262504D01*
X31636062Y-61194383D01*
X31689718Y-61147890D01*
X31719360Y-61138566D01*
X31719496Y-61138540D01*
X31719889Y-61138469D01*
X31775357Y-61113503D01*
X31782362Y-61110602D01*
X31839235Y-61089034D01*
X31847626Y-61083241D01*
X31867482Y-61072041D01*
X31876786Y-61067855D01*
X31924700Y-61030315D01*
X31930755Y-61025860D01*
X31980833Y-60991295D01*
X32021172Y-60945761D01*
X32026370Y-60940239D01*
X33544281Y-59422328D01*
X33606591Y-59388304D01*
X33677406Y-59393369D01*
X33734242Y-59435916D01*
X33759053Y-59502436D01*
X33743962Y-59571810D01*
X33740807Y-59577259D01*
X33650392Y-59724804D01*
X33553531Y-59958645D01*
X33494849Y-60203080D01*
X34594129Y-60203080D01*
X34544001Y-60344127D01*
X34533683Y-60494966D01*
X34564444Y-60642995D01*
X34599723Y-60711080D01*
X33494849Y-60711080D01*
X33553531Y-60955514D01*
X33650390Y-61189352D01*
X33782637Y-61405159D01*
X33947017Y-61597622D01*
X34139480Y-61762002D01*
X34355287Y-61894249D01*
X34589125Y-61991108D01*
X34833560Y-62049790D01*
X34833560Y-60946331D01*
X34866379Y-60966289D01*
X35011964Y-61007080D01*
X35125182Y-61007080D01*
X35237343Y-60991664D01*
X35341560Y-60946396D01*
X35341560Y-62049789D01*
X35585994Y-61991108D01*
X35819832Y-61894249D01*
X36035639Y-61762002D01*
X36218610Y-61605729D01*
X44399060Y-61605729D01*
X44405569Y-61666276D01*
X44405571Y-61666284D01*
X44456670Y-61803282D01*
X44456672Y-61803287D01*
X44544298Y-61920341D01*
X44661352Y-62007967D01*
X44661354Y-62007968D01*
X44661356Y-62007969D01*
X44720435Y-62030004D01*
X44798355Y-62059068D01*
X44798363Y-62059070D01*
X44858910Y-62065579D01*
X44858915Y-62065579D01*
X44858922Y-62065580D01*
X44858928Y-62065580D01*
X47156192Y-62065580D01*
X47156198Y-62065580D01*
X47156205Y-62065579D01*
X47156209Y-62065579D01*
X47216756Y-62059070D01*
X47216759Y-62059069D01*
X47216761Y-62059069D01*
X47353764Y-62007969D01*
X47470821Y-61920341D01*
X47558449Y-61803284D01*
X47609549Y-61666281D01*
X47616060Y-61605718D01*
X47616060Y-61262504D01*
X47636062Y-61194383D01*
X47689718Y-61147890D01*
X47719360Y-61138566D01*
X47719496Y-61138540D01*
X47719889Y-61138469D01*
X47775357Y-61113503D01*
X47782362Y-61110602D01*
X47839235Y-61089034D01*
X47847626Y-61083241D01*
X47867482Y-61072041D01*
X47876786Y-61067855D01*
X47924700Y-61030315D01*
X47930755Y-61025860D01*
X47980833Y-60991295D01*
X48021172Y-60945761D01*
X48026370Y-60940239D01*
X49544281Y-59422328D01*
X49606591Y-59388304D01*
X49677406Y-59393369D01*
X49734242Y-59435916D01*
X49759053Y-59502436D01*
X49743962Y-59571810D01*
X49740807Y-59577259D01*
X49650392Y-59724804D01*
X49553531Y-59958645D01*
X49494849Y-60203080D01*
X50594129Y-60203080D01*
X50544001Y-60344127D01*
X50533683Y-60494966D01*
X50564444Y-60642995D01*
X50599723Y-60711080D01*
X49494849Y-60711080D01*
X49553531Y-60955514D01*
X49650390Y-61189352D01*
X49782637Y-61405159D01*
X49947017Y-61597622D01*
X50139480Y-61762002D01*
X50355287Y-61894249D01*
X50589125Y-61991108D01*
X50833560Y-62049790D01*
X50833560Y-60946331D01*
X50866379Y-60966289D01*
X51011964Y-61007080D01*
X51125182Y-61007080D01*
X51237343Y-60991664D01*
X51341560Y-60946396D01*
X51341560Y-62049790D01*
X51585994Y-61991108D01*
X51819832Y-61894249D01*
X52035639Y-61762002D01*
X52218610Y-61605729D01*
X60399060Y-61605729D01*
X60405569Y-61666276D01*
X60405571Y-61666284D01*
X60456670Y-61803282D01*
X60456672Y-61803287D01*
X60544298Y-61920341D01*
X60661352Y-62007967D01*
X60661354Y-62007968D01*
X60661356Y-62007969D01*
X60720435Y-62030004D01*
X60798355Y-62059068D01*
X60798363Y-62059070D01*
X60858910Y-62065579D01*
X60858915Y-62065579D01*
X60858922Y-62065580D01*
X60858928Y-62065580D01*
X63156192Y-62065580D01*
X63156198Y-62065580D01*
X63156205Y-62065579D01*
X63156209Y-62065579D01*
X63216756Y-62059070D01*
X63216759Y-62059069D01*
X63216761Y-62059069D01*
X63353764Y-62007969D01*
X63470821Y-61920341D01*
X63558449Y-61803284D01*
X63609549Y-61666281D01*
X63616060Y-61605718D01*
X63616060Y-61262504D01*
X63636062Y-61194383D01*
X63689718Y-61147890D01*
X63719360Y-61138566D01*
X63719496Y-61138540D01*
X63719889Y-61138469D01*
X63775357Y-61113503D01*
X63782362Y-61110602D01*
X63839235Y-61089034D01*
X63847626Y-61083241D01*
X63867482Y-61072041D01*
X63876786Y-61067855D01*
X63924700Y-61030315D01*
X63930755Y-61025860D01*
X63980833Y-60991295D01*
X64021172Y-60945761D01*
X64026370Y-60940239D01*
X65544281Y-59422328D01*
X65606591Y-59388304D01*
X65677406Y-59393369D01*
X65734242Y-59435916D01*
X65759053Y-59502436D01*
X65743962Y-59571810D01*
X65740807Y-59577259D01*
X65650392Y-59724804D01*
X65553531Y-59958645D01*
X65494849Y-60203080D01*
X66594129Y-60203080D01*
X66544001Y-60344127D01*
X66533683Y-60494966D01*
X66564444Y-60642995D01*
X66599723Y-60711080D01*
X65494849Y-60711080D01*
X65553531Y-60955514D01*
X65650390Y-61189352D01*
X65782637Y-61405159D01*
X65947017Y-61597622D01*
X66139480Y-61762002D01*
X66355287Y-61894249D01*
X66589125Y-61991108D01*
X66833560Y-62049790D01*
X66833560Y-60946331D01*
X66866379Y-60966289D01*
X67011964Y-61007080D01*
X67125182Y-61007080D01*
X67237343Y-60991664D01*
X67341560Y-60946396D01*
X67341560Y-62049789D01*
X67585994Y-61991108D01*
X67819832Y-61894249D01*
X68035639Y-61762002D01*
X68218610Y-61605729D01*
X76399060Y-61605729D01*
X76405569Y-61666276D01*
X76405571Y-61666284D01*
X76456670Y-61803282D01*
X76456672Y-61803287D01*
X76544298Y-61920341D01*
X76661352Y-62007967D01*
X76661354Y-62007968D01*
X76661356Y-62007969D01*
X76720435Y-62030004D01*
X76798355Y-62059068D01*
X76798363Y-62059070D01*
X76858910Y-62065579D01*
X76858915Y-62065579D01*
X76858922Y-62065580D01*
X76858928Y-62065580D01*
X79156192Y-62065580D01*
X79156198Y-62065580D01*
X79156205Y-62065579D01*
X79156209Y-62065579D01*
X79216756Y-62059070D01*
X79216759Y-62059069D01*
X79216761Y-62059069D01*
X79353764Y-62007969D01*
X79470821Y-61920341D01*
X79558449Y-61803284D01*
X79609549Y-61666281D01*
X79616060Y-61605718D01*
X79616060Y-61262504D01*
X79636062Y-61194383D01*
X79689718Y-61147890D01*
X79719360Y-61138566D01*
X79719496Y-61138540D01*
X79719889Y-61138469D01*
X79775357Y-61113503D01*
X79782362Y-61110602D01*
X79839235Y-61089034D01*
X79847626Y-61083241D01*
X79867482Y-61072041D01*
X79876786Y-61067855D01*
X79924700Y-61030315D01*
X79930755Y-61025860D01*
X79980833Y-60991295D01*
X80021172Y-60945761D01*
X80026370Y-60940239D01*
X81544281Y-59422328D01*
X81606591Y-59388304D01*
X81677406Y-59393369D01*
X81734242Y-59435916D01*
X81759053Y-59502436D01*
X81743962Y-59571810D01*
X81740807Y-59577259D01*
X81650392Y-59724804D01*
X81553531Y-59958645D01*
X81494849Y-60203080D01*
X82594129Y-60203080D01*
X82544001Y-60344127D01*
X82533683Y-60494966D01*
X82564444Y-60642995D01*
X82599723Y-60711080D01*
X81494849Y-60711080D01*
X81553531Y-60955514D01*
X81650390Y-61189352D01*
X81782637Y-61405159D01*
X81947017Y-61597622D01*
X82139480Y-61762002D01*
X82355287Y-61894249D01*
X82589125Y-61991108D01*
X82833560Y-62049790D01*
X82833560Y-60946331D01*
X82866379Y-60966289D01*
X83011964Y-61007080D01*
X83125182Y-61007080D01*
X83237343Y-60991664D01*
X83341560Y-60946396D01*
X83341560Y-62049789D01*
X83585994Y-61991108D01*
X83819832Y-61894249D01*
X84035639Y-61762002D01*
X84218610Y-61605729D01*
X92399060Y-61605729D01*
X92405569Y-61666276D01*
X92405571Y-61666284D01*
X92456670Y-61803282D01*
X92456672Y-61803287D01*
X92544298Y-61920341D01*
X92661352Y-62007967D01*
X92661354Y-62007968D01*
X92661356Y-62007969D01*
X92720435Y-62030004D01*
X92798355Y-62059068D01*
X92798363Y-62059070D01*
X92858910Y-62065579D01*
X92858915Y-62065579D01*
X92858922Y-62065580D01*
X92858928Y-62065580D01*
X95156192Y-62065580D01*
X95156198Y-62065580D01*
X95156205Y-62065579D01*
X95156209Y-62065579D01*
X95216756Y-62059070D01*
X95216759Y-62059069D01*
X95216761Y-62059069D01*
X95353764Y-62007969D01*
X95470821Y-61920341D01*
X95558449Y-61803284D01*
X95609549Y-61666281D01*
X95616060Y-61605718D01*
X95616060Y-61262504D01*
X95636062Y-61194383D01*
X95689718Y-61147890D01*
X95719360Y-61138566D01*
X95719496Y-61138540D01*
X95719889Y-61138469D01*
X95775357Y-61113503D01*
X95782362Y-61110602D01*
X95839235Y-61089034D01*
X95847626Y-61083241D01*
X95867482Y-61072041D01*
X95876786Y-61067855D01*
X95924700Y-61030315D01*
X95930755Y-61025860D01*
X95980833Y-60991295D01*
X96021172Y-60945761D01*
X96026370Y-60940239D01*
X97544281Y-59422328D01*
X97606591Y-59388304D01*
X97677406Y-59393369D01*
X97734242Y-59435916D01*
X97759053Y-59502436D01*
X97743962Y-59571810D01*
X97740807Y-59577259D01*
X97650392Y-59724804D01*
X97553531Y-59958645D01*
X97494849Y-60203080D01*
X98594129Y-60203080D01*
X98544001Y-60344127D01*
X98533683Y-60494966D01*
X98564444Y-60642995D01*
X98599723Y-60711080D01*
X97494849Y-60711080D01*
X97553531Y-60955514D01*
X97650390Y-61189352D01*
X97782637Y-61405159D01*
X97947017Y-61597622D01*
X98139480Y-61762002D01*
X98355287Y-61894249D01*
X98589125Y-61991108D01*
X98833560Y-62049790D01*
X98833560Y-60946331D01*
X98866379Y-60966289D01*
X99011964Y-61007080D01*
X99125182Y-61007080D01*
X99237343Y-60991664D01*
X99341560Y-60946396D01*
X99341560Y-62049790D01*
X99585994Y-61991108D01*
X99819832Y-61894249D01*
X100035639Y-61762002D01*
X100228102Y-61597622D01*
X100392482Y-61405159D01*
X100524729Y-61189352D01*
X100621588Y-60955514D01*
X100680271Y-60711080D01*
X99580991Y-60711080D01*
X99631119Y-60570033D01*
X99641437Y-60419194D01*
X99610676Y-60271165D01*
X99575397Y-60203080D01*
X100680271Y-60203080D01*
X100621588Y-59958645D01*
X100524729Y-59724807D01*
X100392482Y-59509000D01*
X100228102Y-59316537D01*
X100035639Y-59152157D01*
X99819832Y-59019910D01*
X99585994Y-58923051D01*
X99341560Y-58864368D01*
X99341560Y-59967828D01*
X99308741Y-59947871D01*
X99163156Y-59907080D01*
X99049938Y-59907080D01*
X98937777Y-59922496D01*
X98833560Y-59967763D01*
X98833560Y-58864368D01*
X98589125Y-58923051D01*
X98355284Y-59019912D01*
X98193738Y-59118907D01*
X98125205Y-59137445D01*
X98057528Y-59115988D01*
X98012195Y-59061349D01*
X98003599Y-58990875D01*
X98024205Y-58939902D01*
X98040895Y-58915723D01*
X98045374Y-58909635D01*
X98082895Y-58861746D01*
X98087081Y-58852442D01*
X98098281Y-58832586D01*
X98104074Y-58824195D01*
X98125652Y-58767295D01*
X98128538Y-58760329D01*
X98153508Y-58704850D01*
X98155344Y-58694828D01*
X98161471Y-58672849D01*
X98165085Y-58663321D01*
X98172418Y-58602917D01*
X98173555Y-58595447D01*
X98184521Y-58535613D01*
X98180850Y-58474920D01*
X98180620Y-58467313D01*
X98180620Y-48879980D01*
X98200622Y-48811859D01*
X98217525Y-48790885D01*
X98724365Y-48284045D01*
X98786677Y-48250019D01*
X98813460Y-48247140D01*
X98871677Y-48247140D01*
X98939798Y-48267142D01*
X98977160Y-48304224D01*
X99044127Y-48406725D01*
X99129281Y-48499226D01*
X99160702Y-48562891D01*
X99152715Y-48633437D01*
X99107856Y-48688466D01*
X99080615Y-48702619D01*
X99013233Y-48727752D01*
X99013232Y-48727752D01*
X98896178Y-48815378D01*
X98808552Y-48932432D01*
X98808550Y-48932437D01*
X98757451Y-49069435D01*
X98757449Y-49069443D01*
X98750940Y-49129990D01*
X98750940Y-51027289D01*
X98757449Y-51087836D01*
X98757451Y-51087844D01*
X98808550Y-51224842D01*
X98808552Y-51224847D01*
X98896178Y-51341901D01*
X99013232Y-51429527D01*
X99013234Y-51429528D01*
X99013236Y-51429529D01*
X99072315Y-51451564D01*
X99150235Y-51480628D01*
X99150243Y-51480630D01*
X99210790Y-51487139D01*
X99210795Y-51487139D01*
X99210802Y-51487140D01*
X99210808Y-51487140D01*
X101108072Y-51487140D01*
X101108078Y-51487140D01*
X101108085Y-51487139D01*
X101108089Y-51487139D01*
X101168636Y-51480630D01*
X101168639Y-51480629D01*
X101168641Y-51480629D01*
X101305644Y-51429529D01*
X101422701Y-51341901D01*
X101510329Y-51224844D01*
X101561429Y-51087841D01*
X101567940Y-51027278D01*
X101567940Y-49130002D01*
X101567939Y-49129990D01*
X101561430Y-49069443D01*
X101561428Y-49069435D01*
X101510329Y-48932437D01*
X101510327Y-48932432D01*
X101422701Y-48815378D01*
X101305647Y-48727752D01*
X101305644Y-48727751D01*
X101238264Y-48702619D01*
X101181429Y-48660072D01*
X101156619Y-48593551D01*
X101171711Y-48524178D01*
X101189596Y-48499228D01*
X101274754Y-48406723D01*
X101402424Y-48211309D01*
X101496189Y-47997547D01*
X101553491Y-47771266D01*
X101572767Y-47538640D01*
X101553491Y-47306014D01*
X101496189Y-47079733D01*
X101402424Y-46865971D01*
X101396726Y-46857250D01*
X101274754Y-46670556D01*
X101116665Y-46498826D01*
X101116661Y-46498823D01*
X101116660Y-46498822D01*
X100948669Y-46368069D01*
X100907201Y-46310447D01*
X100903467Y-46239549D01*
X100938657Y-46177887D01*
X100948657Y-46169220D01*
X101116660Y-46038458D01*
X101274754Y-45866723D01*
X101402424Y-45671309D01*
X101496189Y-45457547D01*
X101553491Y-45231266D01*
X101567039Y-45067765D01*
X108145788Y-45067765D01*
X108175412Y-45337014D01*
X108243928Y-45599090D01*
X108349869Y-45848389D01*
X108394923Y-45922211D01*
X108490982Y-46079610D01*
X108664255Y-46287820D01*
X108664257Y-46287822D01*
X108664259Y-46287824D01*
X108753821Y-46368071D01*
X108865998Y-46468582D01*
X109091910Y-46618044D01*
X109337176Y-46733020D01*
X109596569Y-46811060D01*
X109596572Y-46811060D01*
X109596574Y-46811061D01*
X109864557Y-46850500D01*
X109864561Y-46850500D01*
X110067631Y-46850500D01*
X110270156Y-46835677D01*
X110270160Y-46835676D01*
X110270161Y-46835676D01*
X110380665Y-46811060D01*
X110534553Y-46776780D01*
X110787558Y-46680014D01*
X111023777Y-46547441D01*
X111238177Y-46381888D01*
X111426186Y-46186881D01*
X111583799Y-45966579D01*
X111635139Y-45866723D01*
X111707656Y-45725675D01*
X111707657Y-45725672D01*
X111775964Y-45525449D01*
X111795118Y-45469305D01*
X111837996Y-45237168D01*
X111844318Y-45202941D01*
X111844319Y-45202930D01*
X111849077Y-45072737D01*
X111854212Y-44932235D01*
X111824736Y-44664342D01*
X111824587Y-44662985D01*
X111756071Y-44400909D01*
X111650130Y-44151610D01*
X111637281Y-44130556D01*
X111509018Y-43920390D01*
X111335745Y-43712180D01*
X111335741Y-43712177D01*
X111335740Y-43712175D01*
X111134012Y-43531427D01*
X111134002Y-43531418D01*
X110908090Y-43381956D01*
X110662824Y-43266980D01*
X110437996Y-43199339D01*
X110403425Y-43188938D01*
X110135442Y-43149500D01*
X110135439Y-43149500D01*
X109932369Y-43149500D01*
X109729839Y-43164323D01*
X109729838Y-43164323D01*
X109465456Y-43223217D01*
X109465441Y-43223222D01*
X109212441Y-43319986D01*
X108976229Y-43452555D01*
X108976225Y-43452557D01*
X108761818Y-43618116D01*
X108573815Y-43813117D01*
X108573810Y-43813123D01*
X108416203Y-44033417D01*
X108416196Y-44033427D01*
X108292343Y-44274324D01*
X108292342Y-44274327D01*
X108204883Y-44530689D01*
X108204880Y-44530702D01*
X108155681Y-44797058D01*
X108155680Y-44797069D01*
X108145788Y-45067765D01*
X101567039Y-45067765D01*
X101572767Y-44998640D01*
X101553491Y-44766014D01*
X101496189Y-44539733D01*
X101402424Y-44325971D01*
X101274754Y-44130556D01*
X101116665Y-43958826D01*
X101116661Y-43958822D01*
X101024558Y-43887136D01*
X100932457Y-43815450D01*
X100727167Y-43704353D01*
X100727164Y-43704352D01*
X100727163Y-43704351D01*
X100506395Y-43628561D01*
X100506388Y-43628559D01*
X100407851Y-43612116D01*
X100276152Y-43590140D01*
X100042728Y-43590140D01*
X99927506Y-43609367D01*
X99812491Y-43628559D01*
X99812484Y-43628561D01*
X99591716Y-43704351D01*
X99591713Y-43704353D01*
X99386425Y-43815449D01*
X99386423Y-43815450D01*
X99202218Y-43958822D01*
X99202214Y-43958826D01*
X99044125Y-44130556D01*
X98916455Y-44325971D01*
X98822692Y-44539729D01*
X98822689Y-44539736D01*
X98765390Y-44766006D01*
X98765389Y-44766012D01*
X98765389Y-44766014D01*
X98746113Y-44998640D01*
X98763041Y-45202933D01*
X98765390Y-45231273D01*
X98822689Y-45457543D01*
X98822692Y-45457550D01*
X98916455Y-45671308D01*
X99044125Y-45866723D01*
X99202214Y-46038453D01*
X99202225Y-46038463D01*
X99370206Y-46169209D01*
X99411677Y-46226834D01*
X99415410Y-46297732D01*
X99380220Y-46359394D01*
X99370206Y-46368071D01*
X99202225Y-46498816D01*
X99202219Y-46498821D01*
X99044128Y-46670554D01*
X99044127Y-46670554D01*
X98977160Y-46773056D01*
X98923156Y-46819144D01*
X98871677Y-46830140D01*
X98493005Y-46830140D01*
X98485398Y-46829910D01*
X98424707Y-46826239D01*
X98424706Y-46826239D01*
X98424705Y-46826239D01*
X98364886Y-46837199D01*
X98357371Y-46838343D01*
X98326934Y-46842039D01*
X98296999Y-46845675D01*
X98296997Y-46845675D01*
X98296995Y-46845676D01*
X98287453Y-46849294D01*
X98265506Y-46855412D01*
X98255477Y-46857250D01*
X98255465Y-46857254D01*
X98200020Y-46882207D01*
X98192992Y-46885118D01*
X98136126Y-46906685D01*
X98136120Y-46906688D01*
X98127726Y-46912482D01*
X98107875Y-46923678D01*
X98098577Y-46927863D01*
X98098572Y-46927865D01*
X98050699Y-46965371D01*
X98044574Y-46969877D01*
X97994526Y-47004424D01*
X97954188Y-47049956D01*
X97948972Y-47055496D01*
X96988976Y-48015492D01*
X96983436Y-48020708D01*
X96937904Y-48061046D01*
X96903357Y-48111094D01*
X96898851Y-48117218D01*
X96861348Y-48165089D01*
X96861342Y-48165099D01*
X96857155Y-48174400D01*
X96845966Y-48194241D01*
X96840165Y-48202646D01*
X96818602Y-48259503D01*
X96815690Y-48266531D01*
X96790733Y-48321985D01*
X96790729Y-48321998D01*
X96788890Y-48332031D01*
X96782771Y-48353981D01*
X96779154Y-48363519D01*
X96771825Y-48423874D01*
X96770681Y-48431391D01*
X96759718Y-48491226D01*
X96763390Y-48551928D01*
X96763620Y-48559536D01*
X96763620Y-58146859D01*
X96743618Y-58214980D01*
X96726719Y-58235949D01*
X96202363Y-58760306D01*
X95776773Y-59185896D01*
X95714461Y-59219921D01*
X95643645Y-59214856D01*
X95586810Y-59172309D01*
X95569623Y-59140834D01*
X95561444Y-59118907D01*
X95558449Y-59110876D01*
X95558447Y-59110874D01*
X95558447Y-59110872D01*
X95470821Y-58993818D01*
X95353767Y-58906192D01*
X95353762Y-58906190D01*
X95216764Y-58855091D01*
X95216756Y-58855089D01*
X95156209Y-58848580D01*
X95156198Y-58848580D01*
X92858922Y-58848580D01*
X92858910Y-58848580D01*
X92798363Y-58855089D01*
X92798355Y-58855091D01*
X92661357Y-58906190D01*
X92661352Y-58906192D01*
X92544298Y-58993818D01*
X92456672Y-59110872D01*
X92456670Y-59110877D01*
X92405571Y-59247875D01*
X92405569Y-59247883D01*
X92399060Y-59308430D01*
X92399060Y-61605729D01*
X84218610Y-61605729D01*
X84228102Y-61597622D01*
X84392482Y-61405159D01*
X84524729Y-61189352D01*
X84621588Y-60955514D01*
X84680271Y-60711080D01*
X83580991Y-60711080D01*
X83631119Y-60570033D01*
X83641437Y-60419194D01*
X83610676Y-60271165D01*
X83575397Y-60203080D01*
X84680271Y-60203080D01*
X84621588Y-59958645D01*
X84524729Y-59724807D01*
X84392482Y-59509000D01*
X84228102Y-59316537D01*
X84035639Y-59152157D01*
X83819832Y-59019910D01*
X83585994Y-58923051D01*
X83341560Y-58864368D01*
X83341560Y-59967828D01*
X83308741Y-59947871D01*
X83163156Y-59907080D01*
X83049938Y-59907080D01*
X82937777Y-59922496D01*
X82833560Y-59967763D01*
X82833560Y-58864368D01*
X82589125Y-58923051D01*
X82355284Y-59019912D01*
X82193738Y-59118907D01*
X82125205Y-59137445D01*
X82057528Y-59115988D01*
X82012195Y-59061349D01*
X82003599Y-58990875D01*
X82024205Y-58939902D01*
X82040895Y-58915723D01*
X82045374Y-58909635D01*
X82082895Y-58861746D01*
X82087081Y-58852442D01*
X82098281Y-58832586D01*
X82104074Y-58824195D01*
X82125652Y-58767295D01*
X82128538Y-58760329D01*
X82153508Y-58704850D01*
X82155344Y-58694828D01*
X82161471Y-58672849D01*
X82165085Y-58663321D01*
X82172418Y-58602917D01*
X82173555Y-58595447D01*
X82184521Y-58535613D01*
X82180850Y-58474920D01*
X82180620Y-58467313D01*
X82180620Y-48879980D01*
X82200622Y-48811859D01*
X82217525Y-48790885D01*
X82724365Y-48284045D01*
X82786677Y-48250019D01*
X82813460Y-48247140D01*
X82871677Y-48247140D01*
X82939798Y-48267142D01*
X82977160Y-48304224D01*
X83044127Y-48406725D01*
X83129281Y-48499226D01*
X83160702Y-48562891D01*
X83152715Y-48633437D01*
X83107856Y-48688466D01*
X83080615Y-48702619D01*
X83013233Y-48727752D01*
X83013232Y-48727752D01*
X82896178Y-48815378D01*
X82808552Y-48932432D01*
X82808550Y-48932437D01*
X82757451Y-49069435D01*
X82757449Y-49069443D01*
X82750940Y-49129990D01*
X82750940Y-51027289D01*
X82757449Y-51087836D01*
X82757451Y-51087844D01*
X82808550Y-51224842D01*
X82808552Y-51224847D01*
X82896178Y-51341901D01*
X83013232Y-51429527D01*
X83013234Y-51429528D01*
X83013236Y-51429529D01*
X83072315Y-51451564D01*
X83150235Y-51480628D01*
X83150243Y-51480630D01*
X83210790Y-51487139D01*
X83210795Y-51487139D01*
X83210802Y-51487140D01*
X83210808Y-51487140D01*
X85108072Y-51487140D01*
X85108078Y-51487140D01*
X85108085Y-51487139D01*
X85108089Y-51487139D01*
X85168636Y-51480630D01*
X85168639Y-51480629D01*
X85168641Y-51480629D01*
X85305644Y-51429529D01*
X85422701Y-51341901D01*
X85510329Y-51224844D01*
X85561429Y-51087841D01*
X85567940Y-51027278D01*
X85567940Y-50160489D01*
X92698780Y-50160489D01*
X92705289Y-50221036D01*
X92705291Y-50221044D01*
X92756390Y-50358042D01*
X92756392Y-50358047D01*
X92844018Y-50475101D01*
X92961072Y-50562727D01*
X92961074Y-50562728D01*
X92961076Y-50562729D01*
X93020155Y-50584764D01*
X93098075Y-50613828D01*
X93098083Y-50613830D01*
X93158630Y-50620339D01*
X93158635Y-50620339D01*
X93158642Y-50620340D01*
X93158648Y-50620340D01*
X95455912Y-50620340D01*
X95455918Y-50620340D01*
X95455925Y-50620339D01*
X95455929Y-50620339D01*
X95516476Y-50613830D01*
X95516479Y-50613829D01*
X95516481Y-50613829D01*
X95653484Y-50562729D01*
X95770541Y-50475101D01*
X95858169Y-50358044D01*
X95909269Y-50221041D01*
X95915780Y-50160478D01*
X95915780Y-47863202D01*
X95915779Y-47863190D01*
X95909270Y-47802643D01*
X95909268Y-47802635D01*
X95858169Y-47665637D01*
X95858167Y-47665632D01*
X95770541Y-47548578D01*
X95653487Y-47460952D01*
X95653482Y-47460950D01*
X95516484Y-47409851D01*
X95516476Y-47409849D01*
X95455929Y-47403340D01*
X95455918Y-47403340D01*
X93158642Y-47403340D01*
X93158630Y-47403340D01*
X93098083Y-47409849D01*
X93098075Y-47409851D01*
X92961077Y-47460950D01*
X92961072Y-47460952D01*
X92844018Y-47548578D01*
X92756392Y-47665632D01*
X92756390Y-47665637D01*
X92705291Y-47802635D01*
X92705289Y-47802643D01*
X92698780Y-47863190D01*
X92698780Y-50160489D01*
X85567940Y-50160489D01*
X85567940Y-49130002D01*
X85567939Y-49129990D01*
X85561430Y-49069443D01*
X85561428Y-49069435D01*
X85510329Y-48932437D01*
X85510327Y-48932432D01*
X85422701Y-48815378D01*
X85305647Y-48727752D01*
X85305644Y-48727751D01*
X85238264Y-48702619D01*
X85181429Y-48660072D01*
X85156619Y-48593551D01*
X85171711Y-48524178D01*
X85189596Y-48499228D01*
X85274754Y-48406723D01*
X85402424Y-48211309D01*
X85496189Y-47997547D01*
X85553491Y-47771266D01*
X85572767Y-47538640D01*
X85553491Y-47306014D01*
X85496189Y-47079733D01*
X85402424Y-46865971D01*
X85396726Y-46857250D01*
X85274754Y-46670556D01*
X85116665Y-46498826D01*
X85116661Y-46498823D01*
X85116660Y-46498822D01*
X84948669Y-46368069D01*
X84907201Y-46310447D01*
X84903467Y-46239549D01*
X84938657Y-46177887D01*
X84948657Y-46169220D01*
X85116660Y-46038458D01*
X85274754Y-45866723D01*
X85402424Y-45671309D01*
X85496189Y-45457547D01*
X85553491Y-45231266D01*
X85572767Y-44998640D01*
X85553491Y-44766014D01*
X85496189Y-44539733D01*
X85402424Y-44325971D01*
X85274754Y-44130556D01*
X85116665Y-43958826D01*
X85116661Y-43958822D01*
X85081994Y-43931840D01*
X92693806Y-43931840D01*
X92713671Y-44184242D01*
X92772774Y-44430429D01*
X92869101Y-44662982D01*
X92869664Y-44664342D01*
X93001952Y-44880216D01*
X93166382Y-45072738D01*
X93358904Y-45237168D01*
X93574778Y-45369456D01*
X93808689Y-45466345D01*
X94054877Y-45525449D01*
X94307280Y-45545314D01*
X94559683Y-45525449D01*
X94805871Y-45466345D01*
X95039782Y-45369456D01*
X95255656Y-45237168D01*
X95448178Y-45072738D01*
X95612608Y-44880216D01*
X95744896Y-44664342D01*
X95841785Y-44430431D01*
X95900889Y-44184243D01*
X95920754Y-43931840D01*
X95900889Y-43679437D01*
X95841785Y-43433249D01*
X95744896Y-43199338D01*
X95612608Y-42983464D01*
X95448178Y-42790942D01*
X95255656Y-42626512D01*
X95039782Y-42494224D01*
X94880162Y-42428107D01*
X94805869Y-42397334D01*
X94637457Y-42356902D01*
X94559683Y-42338231D01*
X94307280Y-42318366D01*
X94054877Y-42338231D01*
X93808690Y-42397334D01*
X93574779Y-42494223D01*
X93358905Y-42626511D01*
X93166382Y-42790942D01*
X93001951Y-42983465D01*
X92869663Y-43199339D01*
X92772774Y-43433250D01*
X92713671Y-43679437D01*
X92693806Y-43931840D01*
X85081994Y-43931840D01*
X85024558Y-43887136D01*
X84932457Y-43815450D01*
X84727167Y-43704353D01*
X84727164Y-43704352D01*
X84727163Y-43704351D01*
X84506395Y-43628561D01*
X84506388Y-43628559D01*
X84407851Y-43612116D01*
X84276152Y-43590140D01*
X84042728Y-43590140D01*
X83927506Y-43609367D01*
X83812491Y-43628559D01*
X83812484Y-43628561D01*
X83591716Y-43704351D01*
X83591713Y-43704353D01*
X83386425Y-43815449D01*
X83386423Y-43815450D01*
X83202218Y-43958822D01*
X83202214Y-43958826D01*
X83044125Y-44130556D01*
X82916455Y-44325971D01*
X82822692Y-44539729D01*
X82822689Y-44539736D01*
X82765390Y-44766006D01*
X82765389Y-44766012D01*
X82765389Y-44766014D01*
X82746113Y-44998640D01*
X82763041Y-45202933D01*
X82765390Y-45231273D01*
X82822689Y-45457543D01*
X82822692Y-45457550D01*
X82916455Y-45671308D01*
X83044125Y-45866723D01*
X83202214Y-46038453D01*
X83202225Y-46038463D01*
X83370206Y-46169209D01*
X83411677Y-46226834D01*
X83415410Y-46297732D01*
X83380220Y-46359394D01*
X83370206Y-46368071D01*
X83202225Y-46498816D01*
X83202219Y-46498821D01*
X83044128Y-46670554D01*
X83044127Y-46670554D01*
X82977160Y-46773056D01*
X82923156Y-46819144D01*
X82871677Y-46830140D01*
X82493005Y-46830140D01*
X82485398Y-46829910D01*
X82424707Y-46826239D01*
X82424706Y-46826239D01*
X82424705Y-46826239D01*
X82364886Y-46837199D01*
X82357371Y-46838343D01*
X82326934Y-46842039D01*
X82296999Y-46845675D01*
X82296997Y-46845675D01*
X82296995Y-46845676D01*
X82287453Y-46849294D01*
X82265506Y-46855412D01*
X82255477Y-46857250D01*
X82255465Y-46857254D01*
X82200020Y-46882207D01*
X82192992Y-46885118D01*
X82136126Y-46906685D01*
X82136120Y-46906688D01*
X82127726Y-46912482D01*
X82107875Y-46923678D01*
X82098577Y-46927863D01*
X82098572Y-46927865D01*
X82050699Y-46965371D01*
X82044574Y-46969877D01*
X81994526Y-47004424D01*
X81954188Y-47049956D01*
X81948972Y-47055496D01*
X80988976Y-48015492D01*
X80983436Y-48020708D01*
X80937904Y-48061046D01*
X80903357Y-48111094D01*
X80898851Y-48117218D01*
X80861348Y-48165089D01*
X80861342Y-48165099D01*
X80857155Y-48174400D01*
X80845966Y-48194241D01*
X80840165Y-48202646D01*
X80818602Y-48259503D01*
X80815690Y-48266531D01*
X80790733Y-48321985D01*
X80790729Y-48321998D01*
X80788890Y-48332031D01*
X80782771Y-48353981D01*
X80779154Y-48363519D01*
X80771825Y-48423874D01*
X80770681Y-48431391D01*
X80759718Y-48491226D01*
X80763390Y-48551928D01*
X80763620Y-48559536D01*
X80763620Y-58146859D01*
X80743618Y-58214980D01*
X80726719Y-58235949D01*
X80202363Y-58760306D01*
X79776773Y-59185896D01*
X79714461Y-59219921D01*
X79643645Y-59214856D01*
X79586810Y-59172309D01*
X79569623Y-59140834D01*
X79561444Y-59118907D01*
X79558449Y-59110876D01*
X79558447Y-59110874D01*
X79558447Y-59110872D01*
X79470821Y-58993818D01*
X79353767Y-58906192D01*
X79353762Y-58906190D01*
X79216764Y-58855091D01*
X79216756Y-58855089D01*
X79156209Y-58848580D01*
X79156198Y-58848580D01*
X76858922Y-58848580D01*
X76858910Y-58848580D01*
X76798363Y-58855089D01*
X76798355Y-58855091D01*
X76661357Y-58906190D01*
X76661352Y-58906192D01*
X76544298Y-58993818D01*
X76456672Y-59110872D01*
X76456670Y-59110877D01*
X76405571Y-59247875D01*
X76405569Y-59247883D01*
X76399060Y-59308430D01*
X76399060Y-61605729D01*
X68218610Y-61605729D01*
X68228102Y-61597622D01*
X68392482Y-61405159D01*
X68524729Y-61189352D01*
X68621588Y-60955514D01*
X68680271Y-60711080D01*
X67580991Y-60711080D01*
X67631119Y-60570033D01*
X67641437Y-60419194D01*
X67610676Y-60271165D01*
X67575397Y-60203080D01*
X68680271Y-60203080D01*
X68621588Y-59958645D01*
X68524729Y-59724807D01*
X68392482Y-59509000D01*
X68228102Y-59316537D01*
X68035639Y-59152157D01*
X67819832Y-59019910D01*
X67585994Y-58923051D01*
X67341560Y-58864368D01*
X67341560Y-59967828D01*
X67308741Y-59947871D01*
X67163156Y-59907080D01*
X67049938Y-59907080D01*
X66937777Y-59922496D01*
X66833560Y-59967763D01*
X66833560Y-58864368D01*
X66589125Y-58923051D01*
X66355284Y-59019912D01*
X66193738Y-59118907D01*
X66125205Y-59137445D01*
X66057528Y-59115988D01*
X66012195Y-59061349D01*
X66003599Y-58990875D01*
X66024205Y-58939902D01*
X66040895Y-58915723D01*
X66045374Y-58909635D01*
X66082895Y-58861746D01*
X66087081Y-58852442D01*
X66098281Y-58832586D01*
X66104074Y-58824195D01*
X66125652Y-58767295D01*
X66128538Y-58760329D01*
X66153508Y-58704850D01*
X66155344Y-58694828D01*
X66161471Y-58672849D01*
X66165085Y-58663321D01*
X66172418Y-58602917D01*
X66173555Y-58595447D01*
X66184521Y-58535613D01*
X66180850Y-58474920D01*
X66180620Y-58467313D01*
X66180620Y-48879980D01*
X66200622Y-48811859D01*
X66217525Y-48790885D01*
X66724365Y-48284045D01*
X66786677Y-48250019D01*
X66813460Y-48247140D01*
X66871677Y-48247140D01*
X66939798Y-48267142D01*
X66977160Y-48304224D01*
X67044127Y-48406725D01*
X67129281Y-48499226D01*
X67160702Y-48562891D01*
X67152715Y-48633437D01*
X67107856Y-48688466D01*
X67080615Y-48702619D01*
X67013233Y-48727752D01*
X67013232Y-48727752D01*
X66896178Y-48815378D01*
X66808552Y-48932432D01*
X66808550Y-48932437D01*
X66757451Y-49069435D01*
X66757449Y-49069443D01*
X66750940Y-49129990D01*
X66750940Y-51027289D01*
X66757449Y-51087836D01*
X66757451Y-51087844D01*
X66808550Y-51224842D01*
X66808552Y-51224847D01*
X66896178Y-51341901D01*
X67013232Y-51429527D01*
X67013234Y-51429528D01*
X67013236Y-51429529D01*
X67072315Y-51451564D01*
X67150235Y-51480628D01*
X67150243Y-51480630D01*
X67210790Y-51487139D01*
X67210795Y-51487139D01*
X67210802Y-51487140D01*
X67210808Y-51487140D01*
X69108072Y-51487140D01*
X69108078Y-51487140D01*
X69108085Y-51487139D01*
X69108089Y-51487139D01*
X69168636Y-51480630D01*
X69168639Y-51480629D01*
X69168641Y-51480629D01*
X69305644Y-51429529D01*
X69422701Y-51341901D01*
X69510329Y-51224844D01*
X69561429Y-51087841D01*
X69567940Y-51027278D01*
X69567940Y-50160489D01*
X76698780Y-50160489D01*
X76705289Y-50221036D01*
X76705291Y-50221044D01*
X76756390Y-50358042D01*
X76756392Y-50358047D01*
X76844018Y-50475101D01*
X76961072Y-50562727D01*
X76961074Y-50562728D01*
X76961076Y-50562729D01*
X77020155Y-50584764D01*
X77098075Y-50613828D01*
X77098083Y-50613830D01*
X77158630Y-50620339D01*
X77158635Y-50620339D01*
X77158642Y-50620340D01*
X77158648Y-50620340D01*
X79455912Y-50620340D01*
X79455918Y-50620340D01*
X79455925Y-50620339D01*
X79455929Y-50620339D01*
X79516476Y-50613830D01*
X79516479Y-50613829D01*
X79516481Y-50613829D01*
X79653484Y-50562729D01*
X79770541Y-50475101D01*
X79858169Y-50358044D01*
X79909269Y-50221041D01*
X79915780Y-50160478D01*
X79915780Y-47863202D01*
X79915779Y-47863190D01*
X79909270Y-47802643D01*
X79909268Y-47802635D01*
X79858169Y-47665637D01*
X79858167Y-47665632D01*
X79770541Y-47548578D01*
X79653487Y-47460952D01*
X79653482Y-47460950D01*
X79516484Y-47409851D01*
X79516476Y-47409849D01*
X79455929Y-47403340D01*
X79455918Y-47403340D01*
X77158642Y-47403340D01*
X77158630Y-47403340D01*
X77098083Y-47409849D01*
X77098075Y-47409851D01*
X76961077Y-47460950D01*
X76961072Y-47460952D01*
X76844018Y-47548578D01*
X76756392Y-47665632D01*
X76756390Y-47665637D01*
X76705291Y-47802635D01*
X76705289Y-47802643D01*
X76698780Y-47863190D01*
X76698780Y-50160489D01*
X69567940Y-50160489D01*
X69567940Y-49130002D01*
X69567939Y-49129990D01*
X69561430Y-49069443D01*
X69561428Y-49069435D01*
X69510329Y-48932437D01*
X69510327Y-48932432D01*
X69422701Y-48815378D01*
X69305647Y-48727752D01*
X69305644Y-48727751D01*
X69238264Y-48702619D01*
X69181429Y-48660072D01*
X69156619Y-48593551D01*
X69171711Y-48524178D01*
X69189596Y-48499228D01*
X69274754Y-48406723D01*
X69402424Y-48211309D01*
X69496189Y-47997547D01*
X69553491Y-47771266D01*
X69572767Y-47538640D01*
X69553491Y-47306014D01*
X69496189Y-47079733D01*
X69402424Y-46865971D01*
X69396726Y-46857250D01*
X69274754Y-46670556D01*
X69116665Y-46498826D01*
X69116661Y-46498823D01*
X69116660Y-46498822D01*
X68948669Y-46368069D01*
X68907201Y-46310447D01*
X68903467Y-46239549D01*
X68938657Y-46177887D01*
X68948657Y-46169220D01*
X69116660Y-46038458D01*
X69274754Y-45866723D01*
X69402424Y-45671309D01*
X69496189Y-45457547D01*
X69553491Y-45231266D01*
X69572767Y-44998640D01*
X69553491Y-44766014D01*
X69496189Y-44539733D01*
X69402424Y-44325971D01*
X69274754Y-44130556D01*
X69116665Y-43958826D01*
X69116661Y-43958822D01*
X69081994Y-43931840D01*
X76693806Y-43931840D01*
X76713671Y-44184242D01*
X76772774Y-44430429D01*
X76869101Y-44662982D01*
X76869664Y-44664342D01*
X77001952Y-44880216D01*
X77166382Y-45072738D01*
X77358904Y-45237168D01*
X77574778Y-45369456D01*
X77808689Y-45466345D01*
X78054877Y-45525449D01*
X78307280Y-45545314D01*
X78559683Y-45525449D01*
X78805871Y-45466345D01*
X79039782Y-45369456D01*
X79255656Y-45237168D01*
X79448178Y-45072738D01*
X79612608Y-44880216D01*
X79744896Y-44664342D01*
X79841785Y-44430431D01*
X79900889Y-44184243D01*
X79920754Y-43931840D01*
X79900889Y-43679437D01*
X79841785Y-43433249D01*
X79744896Y-43199338D01*
X79612608Y-42983464D01*
X79448178Y-42790942D01*
X79255656Y-42626512D01*
X79039782Y-42494224D01*
X78880162Y-42428107D01*
X78805869Y-42397334D01*
X78637457Y-42356902D01*
X78559683Y-42338231D01*
X78307280Y-42318366D01*
X78054877Y-42338231D01*
X77808690Y-42397334D01*
X77574779Y-42494223D01*
X77358905Y-42626511D01*
X77166382Y-42790942D01*
X77001951Y-42983465D01*
X76869663Y-43199339D01*
X76772774Y-43433250D01*
X76713671Y-43679437D01*
X76693806Y-43931840D01*
X69081994Y-43931840D01*
X69024558Y-43887136D01*
X68932457Y-43815450D01*
X68727167Y-43704353D01*
X68727164Y-43704352D01*
X68727163Y-43704351D01*
X68506395Y-43628561D01*
X68506388Y-43628559D01*
X68407851Y-43612116D01*
X68276152Y-43590140D01*
X68042728Y-43590140D01*
X67927506Y-43609367D01*
X67812491Y-43628559D01*
X67812484Y-43628561D01*
X67591716Y-43704351D01*
X67591713Y-43704353D01*
X67386425Y-43815449D01*
X67386423Y-43815450D01*
X67202218Y-43958822D01*
X67202214Y-43958826D01*
X67044125Y-44130556D01*
X66916455Y-44325971D01*
X66822692Y-44539729D01*
X66822689Y-44539736D01*
X66765390Y-44766006D01*
X66765389Y-44766012D01*
X66765389Y-44766014D01*
X66746113Y-44998640D01*
X66763041Y-45202933D01*
X66765390Y-45231273D01*
X66822689Y-45457543D01*
X66822692Y-45457550D01*
X66916455Y-45671308D01*
X67044125Y-45866723D01*
X67202214Y-46038453D01*
X67202225Y-46038463D01*
X67370206Y-46169209D01*
X67411677Y-46226834D01*
X67415410Y-46297732D01*
X67380220Y-46359394D01*
X67370206Y-46368071D01*
X67202225Y-46498816D01*
X67202219Y-46498821D01*
X67044128Y-46670554D01*
X67044127Y-46670554D01*
X66977160Y-46773056D01*
X66923156Y-46819144D01*
X66871677Y-46830140D01*
X66493005Y-46830140D01*
X66485398Y-46829910D01*
X66424707Y-46826239D01*
X66424706Y-46826239D01*
X66424705Y-46826239D01*
X66364886Y-46837199D01*
X66357371Y-46838343D01*
X66326934Y-46842039D01*
X66296999Y-46845675D01*
X66296997Y-46845675D01*
X66296995Y-46845676D01*
X66287453Y-46849294D01*
X66265506Y-46855412D01*
X66255477Y-46857250D01*
X66255465Y-46857254D01*
X66200020Y-46882207D01*
X66192992Y-46885118D01*
X66136126Y-46906685D01*
X66136120Y-46906688D01*
X66127726Y-46912482D01*
X66107875Y-46923678D01*
X66098577Y-46927863D01*
X66098572Y-46927865D01*
X66050699Y-46965371D01*
X66044574Y-46969877D01*
X65994526Y-47004424D01*
X65954188Y-47049956D01*
X65948972Y-47055496D01*
X64988976Y-48015492D01*
X64983436Y-48020708D01*
X64937904Y-48061046D01*
X64903357Y-48111094D01*
X64898851Y-48117218D01*
X64861348Y-48165089D01*
X64861342Y-48165099D01*
X64857155Y-48174400D01*
X64845966Y-48194241D01*
X64840165Y-48202646D01*
X64818602Y-48259503D01*
X64815690Y-48266531D01*
X64790733Y-48321985D01*
X64790729Y-48321998D01*
X64788890Y-48332031D01*
X64782771Y-48353981D01*
X64779154Y-48363519D01*
X64771825Y-48423874D01*
X64770681Y-48431391D01*
X64759718Y-48491226D01*
X64763390Y-48551928D01*
X64763620Y-48559536D01*
X64763620Y-58146859D01*
X64743618Y-58214980D01*
X64726719Y-58235949D01*
X64202363Y-58760306D01*
X63776773Y-59185896D01*
X63714461Y-59219921D01*
X63643645Y-59214856D01*
X63586810Y-59172309D01*
X63569623Y-59140834D01*
X63561444Y-59118907D01*
X63558449Y-59110876D01*
X63558447Y-59110874D01*
X63558447Y-59110872D01*
X63470821Y-58993818D01*
X63353767Y-58906192D01*
X63353762Y-58906190D01*
X63216764Y-58855091D01*
X63216756Y-58855089D01*
X63156209Y-58848580D01*
X63156198Y-58848580D01*
X60858922Y-58848580D01*
X60858910Y-58848580D01*
X60798363Y-58855089D01*
X60798355Y-58855091D01*
X60661357Y-58906190D01*
X60661352Y-58906192D01*
X60544298Y-58993818D01*
X60456672Y-59110872D01*
X60456670Y-59110877D01*
X60405571Y-59247875D01*
X60405569Y-59247883D01*
X60399060Y-59308430D01*
X60399060Y-61605729D01*
X52218610Y-61605729D01*
X52228102Y-61597622D01*
X52392482Y-61405159D01*
X52524729Y-61189352D01*
X52621588Y-60955514D01*
X52680271Y-60711080D01*
X51580991Y-60711080D01*
X51631119Y-60570033D01*
X51641437Y-60419194D01*
X51610676Y-60271165D01*
X51575397Y-60203080D01*
X52680271Y-60203080D01*
X52621588Y-59958645D01*
X52524729Y-59724807D01*
X52392482Y-59509000D01*
X52228102Y-59316537D01*
X52035639Y-59152157D01*
X51819832Y-59019910D01*
X51585994Y-58923051D01*
X51341560Y-58864368D01*
X51341560Y-59967828D01*
X51308741Y-59947871D01*
X51163156Y-59907080D01*
X51049938Y-59907080D01*
X50937777Y-59922496D01*
X50833560Y-59967763D01*
X50833560Y-58864368D01*
X50589125Y-58923051D01*
X50355284Y-59019912D01*
X50193738Y-59118907D01*
X50125205Y-59137445D01*
X50057528Y-59115988D01*
X50012195Y-59061349D01*
X50003599Y-58990875D01*
X50024205Y-58939902D01*
X50040895Y-58915723D01*
X50045374Y-58909635D01*
X50082895Y-58861746D01*
X50087081Y-58852442D01*
X50098281Y-58832586D01*
X50104074Y-58824195D01*
X50125652Y-58767295D01*
X50128538Y-58760329D01*
X50153508Y-58704850D01*
X50155344Y-58694828D01*
X50161471Y-58672849D01*
X50165085Y-58663321D01*
X50172418Y-58602917D01*
X50173555Y-58595447D01*
X50184521Y-58535613D01*
X50180850Y-58474920D01*
X50180620Y-58467313D01*
X50180620Y-48879980D01*
X50200622Y-48811859D01*
X50217525Y-48790885D01*
X50724365Y-48284045D01*
X50786677Y-48250019D01*
X50813460Y-48247140D01*
X50871677Y-48247140D01*
X50939798Y-48267142D01*
X50977160Y-48304224D01*
X51044127Y-48406725D01*
X51129281Y-48499226D01*
X51160702Y-48562891D01*
X51152715Y-48633437D01*
X51107856Y-48688466D01*
X51080615Y-48702619D01*
X51013233Y-48727752D01*
X51013232Y-48727752D01*
X50896178Y-48815378D01*
X50808552Y-48932432D01*
X50808550Y-48932437D01*
X50757451Y-49069435D01*
X50757449Y-49069443D01*
X50750940Y-49129990D01*
X50750940Y-51027289D01*
X50757449Y-51087836D01*
X50757451Y-51087844D01*
X50808550Y-51224842D01*
X50808552Y-51224847D01*
X50896178Y-51341901D01*
X51013232Y-51429527D01*
X51013234Y-51429528D01*
X51013236Y-51429529D01*
X51072315Y-51451564D01*
X51150235Y-51480628D01*
X51150243Y-51480630D01*
X51210790Y-51487139D01*
X51210795Y-51487139D01*
X51210802Y-51487140D01*
X51210808Y-51487140D01*
X53108072Y-51487140D01*
X53108078Y-51487140D01*
X53108085Y-51487139D01*
X53108089Y-51487139D01*
X53168636Y-51480630D01*
X53168639Y-51480629D01*
X53168641Y-51480629D01*
X53305644Y-51429529D01*
X53422701Y-51341901D01*
X53510329Y-51224844D01*
X53561429Y-51087841D01*
X53567940Y-51027278D01*
X53567940Y-50160489D01*
X60698780Y-50160489D01*
X60705289Y-50221036D01*
X60705291Y-50221044D01*
X60756390Y-50358042D01*
X60756392Y-50358047D01*
X60844018Y-50475101D01*
X60961072Y-50562727D01*
X60961074Y-50562728D01*
X60961076Y-50562729D01*
X61020155Y-50584764D01*
X61098075Y-50613828D01*
X61098083Y-50613830D01*
X61158630Y-50620339D01*
X61158635Y-50620339D01*
X61158642Y-50620340D01*
X61158648Y-50620340D01*
X63455912Y-50620340D01*
X63455918Y-50620340D01*
X63455925Y-50620339D01*
X63455929Y-50620339D01*
X63516476Y-50613830D01*
X63516479Y-50613829D01*
X63516481Y-50613829D01*
X63653484Y-50562729D01*
X63770541Y-50475101D01*
X63858169Y-50358044D01*
X63909269Y-50221041D01*
X63915780Y-50160478D01*
X63915780Y-47863202D01*
X63915779Y-47863190D01*
X63909270Y-47802643D01*
X63909268Y-47802635D01*
X63858169Y-47665637D01*
X63858167Y-47665632D01*
X63770541Y-47548578D01*
X63653487Y-47460952D01*
X63653482Y-47460950D01*
X63516484Y-47409851D01*
X63516476Y-47409849D01*
X63455929Y-47403340D01*
X63455918Y-47403340D01*
X61158642Y-47403340D01*
X61158630Y-47403340D01*
X61098083Y-47409849D01*
X61098075Y-47409851D01*
X60961077Y-47460950D01*
X60961072Y-47460952D01*
X60844018Y-47548578D01*
X60756392Y-47665632D01*
X60756390Y-47665637D01*
X60705291Y-47802635D01*
X60705289Y-47802643D01*
X60698780Y-47863190D01*
X60698780Y-50160489D01*
X53567940Y-50160489D01*
X53567940Y-49130002D01*
X53567939Y-49129990D01*
X53561430Y-49069443D01*
X53561428Y-49069435D01*
X53510329Y-48932437D01*
X53510327Y-48932432D01*
X53422701Y-48815378D01*
X53305647Y-48727752D01*
X53305644Y-48727751D01*
X53238264Y-48702619D01*
X53181429Y-48660072D01*
X53156619Y-48593551D01*
X53171711Y-48524178D01*
X53189596Y-48499228D01*
X53274754Y-48406723D01*
X53402424Y-48211309D01*
X53496189Y-47997547D01*
X53553491Y-47771266D01*
X53572767Y-47538640D01*
X53553491Y-47306014D01*
X53496189Y-47079733D01*
X53402424Y-46865971D01*
X53396726Y-46857250D01*
X53274754Y-46670556D01*
X53116665Y-46498826D01*
X53116661Y-46498823D01*
X53116660Y-46498822D01*
X52948669Y-46368069D01*
X52907201Y-46310447D01*
X52903467Y-46239549D01*
X52938657Y-46177887D01*
X52948657Y-46169220D01*
X53116660Y-46038458D01*
X53274754Y-45866723D01*
X53402424Y-45671309D01*
X53496189Y-45457547D01*
X53553491Y-45231266D01*
X53572767Y-44998640D01*
X53553491Y-44766014D01*
X53496189Y-44539733D01*
X53402424Y-44325971D01*
X53274754Y-44130556D01*
X53116665Y-43958826D01*
X53116661Y-43958822D01*
X53081994Y-43931840D01*
X60693806Y-43931840D01*
X60713671Y-44184242D01*
X60772774Y-44430429D01*
X60869101Y-44662982D01*
X60869664Y-44664342D01*
X61001952Y-44880216D01*
X61166382Y-45072738D01*
X61358904Y-45237168D01*
X61574778Y-45369456D01*
X61808689Y-45466345D01*
X62054877Y-45525449D01*
X62307280Y-45545314D01*
X62559683Y-45525449D01*
X62805871Y-45466345D01*
X63039782Y-45369456D01*
X63255656Y-45237168D01*
X63448178Y-45072738D01*
X63612608Y-44880216D01*
X63744896Y-44664342D01*
X63841785Y-44430431D01*
X63900889Y-44184243D01*
X63920754Y-43931840D01*
X63900889Y-43679437D01*
X63841785Y-43433249D01*
X63744896Y-43199338D01*
X63612608Y-42983464D01*
X63448178Y-42790942D01*
X63255656Y-42626512D01*
X63039782Y-42494224D01*
X62880162Y-42428107D01*
X62805869Y-42397334D01*
X62637457Y-42356902D01*
X62559683Y-42338231D01*
X62307280Y-42318366D01*
X62054877Y-42338231D01*
X61808690Y-42397334D01*
X61574779Y-42494223D01*
X61358905Y-42626511D01*
X61166382Y-42790942D01*
X61001951Y-42983465D01*
X60869663Y-43199339D01*
X60772774Y-43433250D01*
X60713671Y-43679437D01*
X60693806Y-43931840D01*
X53081994Y-43931840D01*
X53024558Y-43887136D01*
X52932457Y-43815450D01*
X52727167Y-43704353D01*
X52727164Y-43704352D01*
X52727163Y-43704351D01*
X52506395Y-43628561D01*
X52506388Y-43628559D01*
X52407851Y-43612116D01*
X52276152Y-43590140D01*
X52042728Y-43590140D01*
X51927506Y-43609367D01*
X51812491Y-43628559D01*
X51812484Y-43628561D01*
X51591716Y-43704351D01*
X51591713Y-43704353D01*
X51386425Y-43815449D01*
X51386423Y-43815450D01*
X51202218Y-43958822D01*
X51202214Y-43958826D01*
X51044125Y-44130556D01*
X50916455Y-44325971D01*
X50822692Y-44539729D01*
X50822689Y-44539736D01*
X50765390Y-44766006D01*
X50765389Y-44766012D01*
X50765389Y-44766014D01*
X50746113Y-44998640D01*
X50763041Y-45202933D01*
X50765390Y-45231273D01*
X50822689Y-45457543D01*
X50822692Y-45457550D01*
X50916455Y-45671308D01*
X51044125Y-45866723D01*
X51202214Y-46038453D01*
X51202225Y-46038463D01*
X51370206Y-46169209D01*
X51411677Y-46226834D01*
X51415410Y-46297732D01*
X51380220Y-46359394D01*
X51370206Y-46368071D01*
X51202225Y-46498816D01*
X51202219Y-46498821D01*
X51044128Y-46670554D01*
X51044127Y-46670554D01*
X50977160Y-46773056D01*
X50923156Y-46819144D01*
X50871677Y-46830140D01*
X50493005Y-46830140D01*
X50485398Y-46829910D01*
X50424707Y-46826239D01*
X50424706Y-46826239D01*
X50424705Y-46826239D01*
X50364886Y-46837199D01*
X50357371Y-46838343D01*
X50326934Y-46842039D01*
X50296999Y-46845675D01*
X50296997Y-46845675D01*
X50296995Y-46845676D01*
X50287453Y-46849294D01*
X50265506Y-46855412D01*
X50255477Y-46857250D01*
X50255465Y-46857254D01*
X50200020Y-46882207D01*
X50192992Y-46885118D01*
X50136126Y-46906685D01*
X50136120Y-46906688D01*
X50127726Y-46912482D01*
X50107875Y-46923678D01*
X50098577Y-46927863D01*
X50098572Y-46927865D01*
X50050699Y-46965371D01*
X50044574Y-46969877D01*
X49994526Y-47004424D01*
X49954188Y-47049956D01*
X49948972Y-47055496D01*
X48988976Y-48015492D01*
X48983436Y-48020708D01*
X48937904Y-48061046D01*
X48903357Y-48111094D01*
X48898851Y-48117218D01*
X48861348Y-48165089D01*
X48861342Y-48165099D01*
X48857155Y-48174400D01*
X48845966Y-48194241D01*
X48840165Y-48202646D01*
X48818602Y-48259503D01*
X48815690Y-48266531D01*
X48790733Y-48321985D01*
X48790729Y-48321998D01*
X48788890Y-48332031D01*
X48782771Y-48353981D01*
X48779154Y-48363519D01*
X48771825Y-48423874D01*
X48770681Y-48431391D01*
X48759718Y-48491226D01*
X48763390Y-48551928D01*
X48763620Y-48559536D01*
X48763620Y-58146859D01*
X48743618Y-58214980D01*
X48726719Y-58235949D01*
X48202363Y-58760306D01*
X47776773Y-59185896D01*
X47714461Y-59219921D01*
X47643645Y-59214856D01*
X47586810Y-59172309D01*
X47569623Y-59140834D01*
X47561444Y-59118907D01*
X47558449Y-59110876D01*
X47558447Y-59110874D01*
X47558447Y-59110872D01*
X47470821Y-58993818D01*
X47353767Y-58906192D01*
X47353762Y-58906190D01*
X47216764Y-58855091D01*
X47216756Y-58855089D01*
X47156209Y-58848580D01*
X47156198Y-58848580D01*
X44858922Y-58848580D01*
X44858910Y-58848580D01*
X44798363Y-58855089D01*
X44798355Y-58855091D01*
X44661357Y-58906190D01*
X44661352Y-58906192D01*
X44544298Y-58993818D01*
X44456672Y-59110872D01*
X44456670Y-59110877D01*
X44405571Y-59247875D01*
X44405569Y-59247883D01*
X44399060Y-59308430D01*
X44399060Y-61605729D01*
X36218610Y-61605729D01*
X36228102Y-61597622D01*
X36392482Y-61405159D01*
X36524729Y-61189352D01*
X36621588Y-60955514D01*
X36680271Y-60711080D01*
X35580991Y-60711080D01*
X35631119Y-60570033D01*
X35641437Y-60419194D01*
X35610676Y-60271165D01*
X35575397Y-60203080D01*
X36680271Y-60203080D01*
X36621588Y-59958645D01*
X36524729Y-59724807D01*
X36392482Y-59509000D01*
X36228102Y-59316537D01*
X36035639Y-59152157D01*
X35819832Y-59019910D01*
X35585994Y-58923051D01*
X35341560Y-58864368D01*
X35341560Y-59967828D01*
X35308741Y-59947871D01*
X35163156Y-59907080D01*
X35049938Y-59907080D01*
X34937777Y-59922496D01*
X34833560Y-59967763D01*
X34833560Y-58864368D01*
X34589125Y-58923051D01*
X34355284Y-59019912D01*
X34193738Y-59118907D01*
X34125205Y-59137445D01*
X34057528Y-59115988D01*
X34012195Y-59061349D01*
X34003599Y-58990875D01*
X34024205Y-58939902D01*
X34040895Y-58915723D01*
X34045374Y-58909635D01*
X34082895Y-58861746D01*
X34087081Y-58852442D01*
X34098281Y-58832586D01*
X34104074Y-58824195D01*
X34125652Y-58767295D01*
X34128538Y-58760329D01*
X34153508Y-58704850D01*
X34155344Y-58694828D01*
X34161471Y-58672849D01*
X34165085Y-58663321D01*
X34172418Y-58602917D01*
X34173555Y-58595447D01*
X34184521Y-58535613D01*
X34180850Y-58474920D01*
X34180620Y-58467313D01*
X34180620Y-48879980D01*
X34200622Y-48811859D01*
X34217525Y-48790885D01*
X34724365Y-48284045D01*
X34786677Y-48250019D01*
X34813460Y-48247140D01*
X34871677Y-48247140D01*
X34939798Y-48267142D01*
X34977160Y-48304224D01*
X35044127Y-48406725D01*
X35129281Y-48499226D01*
X35160702Y-48562891D01*
X35152715Y-48633437D01*
X35107856Y-48688466D01*
X35080615Y-48702619D01*
X35013233Y-48727752D01*
X35013232Y-48727752D01*
X34896178Y-48815378D01*
X34808552Y-48932432D01*
X34808550Y-48932437D01*
X34757451Y-49069435D01*
X34757449Y-49069443D01*
X34750940Y-49129990D01*
X34750940Y-51027289D01*
X34757449Y-51087836D01*
X34757451Y-51087844D01*
X34808550Y-51224842D01*
X34808552Y-51224847D01*
X34896178Y-51341901D01*
X35013232Y-51429527D01*
X35013234Y-51429528D01*
X35013236Y-51429529D01*
X35072315Y-51451564D01*
X35150235Y-51480628D01*
X35150243Y-51480630D01*
X35210790Y-51487139D01*
X35210795Y-51487139D01*
X35210802Y-51487140D01*
X35210808Y-51487140D01*
X37108072Y-51487140D01*
X37108078Y-51487140D01*
X37108085Y-51487139D01*
X37108089Y-51487139D01*
X37168636Y-51480630D01*
X37168639Y-51480629D01*
X37168641Y-51480629D01*
X37305644Y-51429529D01*
X37422701Y-51341901D01*
X37510329Y-51224844D01*
X37561429Y-51087841D01*
X37567940Y-51027278D01*
X37567940Y-50160489D01*
X44698780Y-50160489D01*
X44705289Y-50221036D01*
X44705291Y-50221044D01*
X44756390Y-50358042D01*
X44756392Y-50358047D01*
X44844018Y-50475101D01*
X44961072Y-50562727D01*
X44961074Y-50562728D01*
X44961076Y-50562729D01*
X45020155Y-50584764D01*
X45098075Y-50613828D01*
X45098083Y-50613830D01*
X45158630Y-50620339D01*
X45158635Y-50620339D01*
X45158642Y-50620340D01*
X45158648Y-50620340D01*
X47455912Y-50620340D01*
X47455918Y-50620340D01*
X47455925Y-50620339D01*
X47455929Y-50620339D01*
X47516476Y-50613830D01*
X47516479Y-50613829D01*
X47516481Y-50613829D01*
X47653484Y-50562729D01*
X47770541Y-50475101D01*
X47858169Y-50358044D01*
X47909269Y-50221041D01*
X47915780Y-50160478D01*
X47915780Y-47863202D01*
X47915779Y-47863190D01*
X47909270Y-47802643D01*
X47909268Y-47802635D01*
X47858169Y-47665637D01*
X47858167Y-47665632D01*
X47770541Y-47548578D01*
X47653487Y-47460952D01*
X47653482Y-47460950D01*
X47516484Y-47409851D01*
X47516476Y-47409849D01*
X47455929Y-47403340D01*
X47455918Y-47403340D01*
X45158642Y-47403340D01*
X45158630Y-47403340D01*
X45098083Y-47409849D01*
X45098075Y-47409851D01*
X44961077Y-47460950D01*
X44961072Y-47460952D01*
X44844018Y-47548578D01*
X44756392Y-47665632D01*
X44756390Y-47665637D01*
X44705291Y-47802635D01*
X44705289Y-47802643D01*
X44698780Y-47863190D01*
X44698780Y-50160489D01*
X37567940Y-50160489D01*
X37567940Y-49130002D01*
X37567939Y-49129990D01*
X37561430Y-49069443D01*
X37561428Y-49069435D01*
X37510329Y-48932437D01*
X37510327Y-48932432D01*
X37422701Y-48815378D01*
X37305647Y-48727752D01*
X37305644Y-48727751D01*
X37238264Y-48702619D01*
X37181429Y-48660072D01*
X37156619Y-48593551D01*
X37171711Y-48524178D01*
X37189596Y-48499228D01*
X37274754Y-48406723D01*
X37402424Y-48211309D01*
X37496189Y-47997547D01*
X37553491Y-47771266D01*
X37572767Y-47538640D01*
X37553491Y-47306014D01*
X37496189Y-47079733D01*
X37402424Y-46865971D01*
X37396726Y-46857250D01*
X37274754Y-46670556D01*
X37116665Y-46498826D01*
X37116661Y-46498823D01*
X37116660Y-46498822D01*
X36948669Y-46368069D01*
X36907201Y-46310447D01*
X36903467Y-46239549D01*
X36938657Y-46177887D01*
X36948657Y-46169220D01*
X37116660Y-46038458D01*
X37274754Y-45866723D01*
X37402424Y-45671309D01*
X37496189Y-45457547D01*
X37553491Y-45231266D01*
X37572767Y-44998640D01*
X37553491Y-44766014D01*
X37496189Y-44539733D01*
X37402424Y-44325971D01*
X37274754Y-44130556D01*
X37116665Y-43958826D01*
X37116661Y-43958822D01*
X37081994Y-43931840D01*
X44693806Y-43931840D01*
X44713671Y-44184242D01*
X44772774Y-44430429D01*
X44869101Y-44662982D01*
X44869664Y-44664342D01*
X45001952Y-44880216D01*
X45166382Y-45072738D01*
X45358904Y-45237168D01*
X45574778Y-45369456D01*
X45808689Y-45466345D01*
X46054877Y-45525449D01*
X46307280Y-45545314D01*
X46559683Y-45525449D01*
X46805871Y-45466345D01*
X47039782Y-45369456D01*
X47255656Y-45237168D01*
X47448178Y-45072738D01*
X47612608Y-44880216D01*
X47744896Y-44664342D01*
X47841785Y-44430431D01*
X47900889Y-44184243D01*
X47920754Y-43931840D01*
X47900889Y-43679437D01*
X47841785Y-43433249D01*
X47744896Y-43199338D01*
X47612608Y-42983464D01*
X47448178Y-42790942D01*
X47255656Y-42626512D01*
X47039782Y-42494224D01*
X46880162Y-42428107D01*
X46805869Y-42397334D01*
X46637457Y-42356902D01*
X46559683Y-42338231D01*
X46307280Y-42318366D01*
X46054877Y-42338231D01*
X45808690Y-42397334D01*
X45574779Y-42494223D01*
X45358905Y-42626511D01*
X45166382Y-42790942D01*
X45001951Y-42983465D01*
X44869663Y-43199339D01*
X44772774Y-43433250D01*
X44713671Y-43679437D01*
X44693806Y-43931840D01*
X37081994Y-43931840D01*
X37024558Y-43887136D01*
X36932457Y-43815450D01*
X36727167Y-43704353D01*
X36727164Y-43704352D01*
X36727163Y-43704351D01*
X36506395Y-43628561D01*
X36506388Y-43628559D01*
X36407851Y-43612116D01*
X36276152Y-43590140D01*
X36042728Y-43590140D01*
X35927506Y-43609367D01*
X35812491Y-43628559D01*
X35812484Y-43628561D01*
X35591716Y-43704351D01*
X35591713Y-43704353D01*
X35386425Y-43815449D01*
X35386423Y-43815450D01*
X35202218Y-43958822D01*
X35202214Y-43958826D01*
X35044125Y-44130556D01*
X34916455Y-44325971D01*
X34822692Y-44539729D01*
X34822689Y-44539736D01*
X34765390Y-44766006D01*
X34765389Y-44766012D01*
X34765389Y-44766014D01*
X34746113Y-44998640D01*
X34763041Y-45202933D01*
X34765390Y-45231273D01*
X34822689Y-45457543D01*
X34822692Y-45457550D01*
X34916455Y-45671308D01*
X35044125Y-45866723D01*
X35202214Y-46038453D01*
X35202225Y-46038463D01*
X35370206Y-46169209D01*
X35411677Y-46226834D01*
X35415410Y-46297732D01*
X35380220Y-46359394D01*
X35370206Y-46368071D01*
X35202225Y-46498816D01*
X35202219Y-46498821D01*
X35044128Y-46670554D01*
X35044127Y-46670554D01*
X34977160Y-46773056D01*
X34923156Y-46819144D01*
X34871677Y-46830140D01*
X34493005Y-46830140D01*
X34485398Y-46829910D01*
X34424707Y-46826239D01*
X34424706Y-46826239D01*
X34424705Y-46826239D01*
X34364886Y-46837199D01*
X34357371Y-46838343D01*
X34326934Y-46842039D01*
X34296999Y-46845675D01*
X34296997Y-46845675D01*
X34296995Y-46845676D01*
X34287453Y-46849294D01*
X34265506Y-46855412D01*
X34255477Y-46857250D01*
X34255465Y-46857254D01*
X34200020Y-46882207D01*
X34192992Y-46885118D01*
X34136126Y-46906685D01*
X34136120Y-46906688D01*
X34127726Y-46912482D01*
X34107875Y-46923678D01*
X34098577Y-46927863D01*
X34098572Y-46927865D01*
X34050699Y-46965371D01*
X34044574Y-46969877D01*
X33994526Y-47004424D01*
X33954188Y-47049956D01*
X33948972Y-47055496D01*
X32988976Y-48015492D01*
X32983436Y-48020708D01*
X32937904Y-48061046D01*
X32903357Y-48111094D01*
X32898851Y-48117218D01*
X32861348Y-48165089D01*
X32861342Y-48165099D01*
X32857155Y-48174400D01*
X32845966Y-48194241D01*
X32840165Y-48202646D01*
X32818602Y-48259503D01*
X32815690Y-48266531D01*
X32790733Y-48321985D01*
X32790729Y-48321998D01*
X32788890Y-48332031D01*
X32782771Y-48353981D01*
X32779154Y-48363519D01*
X32771825Y-48423874D01*
X32770681Y-48431391D01*
X32759718Y-48491226D01*
X32763390Y-48551928D01*
X32763620Y-48559536D01*
X32763620Y-58146859D01*
X32743618Y-58214980D01*
X32726719Y-58235949D01*
X32202363Y-58760306D01*
X31776773Y-59185896D01*
X31714461Y-59219921D01*
X31643645Y-59214856D01*
X31586810Y-59172309D01*
X31569623Y-59140834D01*
X31561444Y-59118907D01*
X31558449Y-59110876D01*
X31558447Y-59110874D01*
X31558447Y-59110872D01*
X31470821Y-58993818D01*
X31353767Y-58906192D01*
X31353762Y-58906190D01*
X31216764Y-58855091D01*
X31216756Y-58855089D01*
X31156209Y-58848580D01*
X31156198Y-58848580D01*
X28858922Y-58848580D01*
X28858910Y-58848580D01*
X28798363Y-58855089D01*
X28798355Y-58855091D01*
X28661357Y-58906190D01*
X28661352Y-58906192D01*
X28544298Y-58993818D01*
X28456672Y-59110872D01*
X28456670Y-59110877D01*
X28405571Y-59247875D01*
X28405569Y-59247883D01*
X28399060Y-59308430D01*
X28399060Y-59622580D01*
X28379058Y-59690701D01*
X28325402Y-59737194D01*
X28273060Y-59748580D01*
X27375755Y-59748580D01*
X27353043Y-59746516D01*
X27343013Y-59744678D01*
X27282310Y-59748350D01*
X27274702Y-59748580D01*
X27257058Y-59748580D01*
X27239531Y-59750707D01*
X27231967Y-59751394D01*
X27171269Y-59755066D01*
X27163475Y-59757495D01*
X27092488Y-59758659D01*
X27032141Y-59721259D01*
X27001593Y-59657170D01*
X27000000Y-59637197D01*
X27000000Y-50160489D01*
X28698780Y-50160489D01*
X28705289Y-50221036D01*
X28705291Y-50221044D01*
X28756390Y-50358042D01*
X28756392Y-50358047D01*
X28844018Y-50475101D01*
X28961072Y-50562727D01*
X28961074Y-50562728D01*
X28961076Y-50562729D01*
X29020155Y-50584764D01*
X29098075Y-50613828D01*
X29098083Y-50613830D01*
X29158630Y-50620339D01*
X29158635Y-50620339D01*
X29158642Y-50620340D01*
X29158648Y-50620340D01*
X31455912Y-50620340D01*
X31455918Y-50620340D01*
X31455925Y-50620339D01*
X31455929Y-50620339D01*
X31516476Y-50613830D01*
X31516479Y-50613829D01*
X31516481Y-50613829D01*
X31653484Y-50562729D01*
X31770541Y-50475101D01*
X31858169Y-50358044D01*
X31909269Y-50221041D01*
X31915780Y-50160478D01*
X31915780Y-47863202D01*
X31915779Y-47863190D01*
X31909270Y-47802643D01*
X31909268Y-47802635D01*
X31858169Y-47665637D01*
X31858167Y-47665632D01*
X31770541Y-47548578D01*
X31653487Y-47460952D01*
X31653482Y-47460950D01*
X31516484Y-47409851D01*
X31516476Y-47409849D01*
X31455929Y-47403340D01*
X31455918Y-47403340D01*
X29158642Y-47403340D01*
X29158630Y-47403340D01*
X29098083Y-47409849D01*
X29098075Y-47409851D01*
X28961077Y-47460950D01*
X28961072Y-47460952D01*
X28844018Y-47548578D01*
X28756392Y-47665632D01*
X28756390Y-47665637D01*
X28705291Y-47802635D01*
X28705289Y-47802643D01*
X28698780Y-47863190D01*
X28698780Y-50160489D01*
X27000000Y-50160489D01*
X27000000Y-43931840D01*
X28693806Y-43931840D01*
X28713671Y-44184242D01*
X28772774Y-44430429D01*
X28869101Y-44662982D01*
X28869664Y-44664342D01*
X29001952Y-44880216D01*
X29166382Y-45072738D01*
X29358904Y-45237168D01*
X29574778Y-45369456D01*
X29808689Y-45466345D01*
X30054877Y-45525449D01*
X30307280Y-45545314D01*
X30559683Y-45525449D01*
X30805871Y-45466345D01*
X31039782Y-45369456D01*
X31255656Y-45237168D01*
X31448178Y-45072738D01*
X31612608Y-44880216D01*
X31744896Y-44664342D01*
X31841785Y-44430431D01*
X31900889Y-44184243D01*
X31920754Y-43931840D01*
X31900889Y-43679437D01*
X31841785Y-43433249D01*
X31744896Y-43199338D01*
X31612608Y-42983464D01*
X31448178Y-42790942D01*
X31255656Y-42626512D01*
X31039782Y-42494224D01*
X30880162Y-42428107D01*
X30805869Y-42397334D01*
X30637457Y-42356902D01*
X30559683Y-42338231D01*
X30307280Y-42318366D01*
X30054877Y-42338231D01*
X29808690Y-42397334D01*
X29574779Y-42494223D01*
X29358905Y-42626511D01*
X29166382Y-42790942D01*
X29001951Y-42983465D01*
X28869663Y-43199339D01*
X28772774Y-43433250D01*
X28713671Y-43679437D01*
X28693806Y-43931840D01*
X27000000Y-43931840D01*
X27000000Y-43004500D01*
X27000321Y-42995512D01*
X27019714Y-42724355D01*
X27022272Y-42706566D01*
X27079098Y-42445338D01*
X27084157Y-42428107D01*
X27177591Y-42177601D01*
X27185050Y-42161268D01*
X27313178Y-41926620D01*
X27322891Y-41911506D01*
X27483108Y-41697482D01*
X27494868Y-41683911D01*
X27683911Y-41494868D01*
X27697482Y-41483108D01*
X27911506Y-41322891D01*
X27926620Y-41313178D01*
X28161268Y-41185050D01*
X28177601Y-41177591D01*
X28428107Y-41084157D01*
X28445338Y-41079098D01*
X28706566Y-41022272D01*
X28724349Y-41019714D01*
X28946128Y-41003852D01*
X28995513Y-41000321D01*
X29004501Y-41000000D01*
X110995499Y-41000000D01*
X111004487Y-41000321D01*
G37*
G04 #@! TD.AperFunction*
M02*
