M48
;DRILL file {KiCad 5.0.2-bee76a0~70~ubuntu16.04.1} date сб, 22-гру-2018 18:20:39 +0200
;FORMAT={3:3/ absolute / metric / suppress leading zeros}
FMAT,2
METRIC,TZ
T1C0.500
T2C1.000
T3C1.097
T4C1.100
T5C1.200
T6C3.200
%
G90
G05
T1
X34000Y-74000
X35000Y-67000
X38926Y-65087
X40000Y-42000
X41000Y-71000
X53912Y-64325
X57000Y-78000
X58000Y-42000
X70041Y-64008
X73000Y-42000
X82000Y-83000
X86169Y-65596
X89000Y-42000
X94996Y-82931
X101791Y-65405
X104000Y-42000
X105093Y-63754
X109000Y-50000
X109000Y-56000
X109000Y-64000
X109000Y-72000
T2
X68159Y-44999
X68159Y-47539
X68159Y-50079
X84159Y-44999
X84159Y-47539
X84159Y-50079
X100159Y-44999
X100159Y-47539
X100159Y-50079
X52159Y-44999
X52159Y-47539
X52159Y-50079
X36159Y-44999
X36159Y-47539
X36159Y-50079
T3
X63182Y-78676
X65722Y-78676
X68263Y-78676
X70803Y-78676
X73343Y-78676
X75882Y-78676
X38227Y-78613
X40767Y-78613
X43307Y-78613
X45847Y-78613
X48387Y-78613
X50927Y-78613
T4
X30008Y-60457
X35088Y-60457
X30307Y-43932
X30307Y-49012
X62307Y-43932
X62307Y-49012
X94307Y-43932
X94307Y-49012
X78307Y-43932
X78307Y-49012
X46008Y-60457
X51088Y-60457
X62008Y-60457
X67088Y-60457
X78008Y-60457
X83088Y-60457
X46307Y-43932
X46307Y-49012
X94008Y-60457
X99088Y-60457
T5
X86043Y-78676
X89543Y-78676
T6
X30000Y-81000
X110000Y-45000
X110000Y-81000
T0
M30
