G04 #@! TF.GenerationSoftware,KiCad,Pcbnew,7.0.11-7.0.11~ubuntu22.04.1*
G04 #@! TF.CreationDate,2024-09-19T02:02:40+03:00*
G04 #@! TF.ProjectId,psg14a_power,70736731-3461-45f7-906f-7765722e6b69,rev?*
G04 #@! TF.SameCoordinates,Original*
G04 #@! TF.FileFunction,Legend,Top*
G04 #@! TF.FilePolarity,Positive*
%FSLAX46Y46*%
G04 Gerber Fmt 4.6, Leading zero omitted, Abs format (unit mm)*
G04 Created by KiCad (PCBNEW 7.0.11-7.0.11~ubuntu22.04.1) date 2024-09-19 02:02:40*
%MOMM*%
%LPD*%
G01*
G04 APERTURE LIST*
%ADD10C,0.250000*%
%ADD11C,0.300000*%
%ADD12C,0.150000*%
%ADD13C,0.120000*%
G04 APERTURE END LIST*
D10*
X62834072Y-83667500D02*
X62719786Y-83738928D01*
X62719786Y-83738928D02*
X62491214Y-83738928D01*
X62491214Y-83738928D02*
X62376929Y-83667500D01*
X62376929Y-83667500D02*
X62319786Y-83596071D01*
X62319786Y-83596071D02*
X62262643Y-83453214D01*
X62262643Y-83453214D02*
X62262643Y-83024642D01*
X62262643Y-83024642D02*
X62319786Y-82881785D01*
X62319786Y-82881785D02*
X62376929Y-82810357D01*
X62376929Y-82810357D02*
X62491214Y-82738928D01*
X62491214Y-82738928D02*
X62719786Y-82738928D01*
X62719786Y-82738928D02*
X62834072Y-82810357D01*
X63176928Y-82738928D02*
X63748357Y-82738928D01*
X63462643Y-82738928D02*
X63462643Y-83738928D01*
X64148357Y-83738928D02*
X64148357Y-82738928D01*
X64148357Y-82738928D02*
X64605500Y-82738928D01*
X65919786Y-83738928D02*
X65919786Y-82738928D01*
X65919786Y-82738928D02*
X66434072Y-82738928D01*
X66434072Y-82738928D02*
X66434072Y-83738928D01*
X66834071Y-82738928D02*
X67405500Y-82738928D01*
X67119786Y-82738928D02*
X67119786Y-83738928D01*
X69234072Y-83667500D02*
X69119786Y-83738928D01*
X69119786Y-83738928D02*
X68891214Y-83738928D01*
X68891214Y-83738928D02*
X68776929Y-83667500D01*
X68776929Y-83667500D02*
X68719786Y-83596071D01*
X68719786Y-83596071D02*
X68662643Y-83453214D01*
X68662643Y-83453214D02*
X68662643Y-83024642D01*
X68662643Y-83024642D02*
X68719786Y-82881785D01*
X68719786Y-82881785D02*
X68776929Y-82810357D01*
X68776929Y-82810357D02*
X68891214Y-82738928D01*
X68891214Y-82738928D02*
X69119786Y-82738928D01*
X69119786Y-82738928D02*
X69234072Y-82810357D01*
X70034071Y-83238928D02*
X70205500Y-83310357D01*
X70205500Y-83310357D02*
X70262643Y-83453214D01*
X70262643Y-83453214D02*
X70262643Y-83524642D01*
X70262643Y-83524642D02*
X70205500Y-83667500D01*
X70205500Y-83667500D02*
X70091214Y-83738928D01*
X70091214Y-83738928D02*
X69748357Y-83738928D01*
X69748357Y-83738928D02*
X69748357Y-82738928D01*
X69748357Y-82738928D02*
X70034071Y-82738928D01*
X70034071Y-82738928D02*
X70148357Y-82810357D01*
X70148357Y-82810357D02*
X70205500Y-82953214D01*
X70205500Y-82953214D02*
X70205500Y-83024642D01*
X70205500Y-83024642D02*
X70148357Y-83167500D01*
X70148357Y-83167500D02*
X70034071Y-83238928D01*
X70034071Y-83238928D02*
X69748357Y-83238928D01*
X72205500Y-82738928D02*
X72205500Y-83738928D01*
X71919785Y-82167500D02*
X71634071Y-83238928D01*
X71634071Y-83238928D02*
X72376928Y-83238928D01*
X74319785Y-82238928D02*
X73748357Y-82238928D01*
X73748357Y-82238928D02*
X73691214Y-82953214D01*
X73691214Y-82953214D02*
X73748357Y-82881785D01*
X73748357Y-82881785D02*
X73862643Y-82810357D01*
X73862643Y-82810357D02*
X74148357Y-82810357D01*
X74148357Y-82810357D02*
X74262643Y-82881785D01*
X74262643Y-82881785D02*
X74319785Y-82953214D01*
X74319785Y-82953214D02*
X74376928Y-83096071D01*
X74376928Y-83096071D02*
X74376928Y-83453214D01*
X74376928Y-83453214D02*
X74319785Y-83596071D01*
X74319785Y-83596071D02*
X74262643Y-83667500D01*
X74262643Y-83667500D02*
X74148357Y-83738928D01*
X74148357Y-83738928D02*
X73862643Y-83738928D01*
X73862643Y-83738928D02*
X73748357Y-83667500D01*
X73748357Y-83667500D02*
X73691214Y-83596071D01*
X76034071Y-82238928D02*
X76262643Y-82238928D01*
X76262643Y-82238928D02*
X76376928Y-82310357D01*
X76376928Y-82310357D02*
X76491214Y-82453214D01*
X76491214Y-82453214D02*
X76548357Y-82738928D01*
X76548357Y-82738928D02*
X76548357Y-83238928D01*
X76548357Y-83238928D02*
X76491214Y-83524642D01*
X76491214Y-83524642D02*
X76376928Y-83667500D01*
X76376928Y-83667500D02*
X76262643Y-83738928D01*
X76262643Y-83738928D02*
X76034071Y-83738928D01*
X76034071Y-83738928D02*
X75919786Y-83667500D01*
X75919786Y-83667500D02*
X75805500Y-83524642D01*
X75805500Y-83524642D02*
X75748357Y-83238928D01*
X75748357Y-83238928D02*
X75748357Y-82738928D01*
X75748357Y-82738928D02*
X75805500Y-82453214D01*
X75805500Y-82453214D02*
X75919786Y-82310357D01*
X75919786Y-82310357D02*
X76034071Y-82238928D01*
D11*
X41545213Y-73743114D02*
X41759499Y-73814542D01*
X41759499Y-73814542D02*
X41830928Y-73885971D01*
X41830928Y-73885971D02*
X41902356Y-74028828D01*
X41902356Y-74028828D02*
X41902356Y-74243114D01*
X41902356Y-74243114D02*
X41830928Y-74385971D01*
X41830928Y-74385971D02*
X41759499Y-74457400D01*
X41759499Y-74457400D02*
X41616642Y-74528828D01*
X41616642Y-74528828D02*
X41045213Y-74528828D01*
X41045213Y-74528828D02*
X41045213Y-73028828D01*
X41045213Y-73028828D02*
X41545213Y-73028828D01*
X41545213Y-73028828D02*
X41688071Y-73100257D01*
X41688071Y-73100257D02*
X41759499Y-73171685D01*
X41759499Y-73171685D02*
X41830928Y-73314542D01*
X41830928Y-73314542D02*
X41830928Y-73457400D01*
X41830928Y-73457400D02*
X41759499Y-73600257D01*
X41759499Y-73600257D02*
X41688071Y-73671685D01*
X41688071Y-73671685D02*
X41545213Y-73743114D01*
X41545213Y-73743114D02*
X41045213Y-73743114D01*
X42402356Y-74528828D02*
X43188071Y-73528828D01*
X42402356Y-73528828D02*
X43188071Y-74528828D01*
X43973785Y-74528828D02*
X43830928Y-74457400D01*
X43830928Y-74457400D02*
X43759499Y-74385971D01*
X43759499Y-74385971D02*
X43688071Y-74243114D01*
X43688071Y-74243114D02*
X43688071Y-73814542D01*
X43688071Y-73814542D02*
X43759499Y-73671685D01*
X43759499Y-73671685D02*
X43830928Y-73600257D01*
X43830928Y-73600257D02*
X43973785Y-73528828D01*
X43973785Y-73528828D02*
X44188071Y-73528828D01*
X44188071Y-73528828D02*
X44330928Y-73600257D01*
X44330928Y-73600257D02*
X44402357Y-73671685D01*
X44402357Y-73671685D02*
X44473785Y-73814542D01*
X44473785Y-73814542D02*
X44473785Y-74243114D01*
X44473785Y-74243114D02*
X44402357Y-74385971D01*
X44402357Y-74385971D02*
X44330928Y-74457400D01*
X44330928Y-74457400D02*
X44188071Y-74528828D01*
X44188071Y-74528828D02*
X43973785Y-74528828D01*
X45830928Y-73671685D02*
X45759500Y-73600257D01*
X45759500Y-73600257D02*
X45616642Y-73528828D01*
X45616642Y-73528828D02*
X45330928Y-73528828D01*
X45330928Y-73528828D02*
X45188071Y-73600257D01*
X45188071Y-73600257D02*
X45116642Y-73671685D01*
X45116642Y-73671685D02*
X45045214Y-73814542D01*
X45045214Y-73814542D02*
X45045214Y-74243114D01*
X45045214Y-74243114D02*
X45116642Y-74385971D01*
X45116642Y-74385971D02*
X45188071Y-74457400D01*
X45188071Y-74457400D02*
X45330928Y-74528828D01*
X45330928Y-74528828D02*
X45545214Y-74528828D01*
X45545214Y-74528828D02*
X45688071Y-74457400D01*
X45688071Y-74457400D02*
X45759500Y-74385971D01*
X45759500Y-74385971D02*
X45830928Y-74243114D01*
X45830928Y-74243114D02*
X45830928Y-73314542D01*
X45830928Y-73314542D02*
X45759500Y-73171685D01*
X45759500Y-73171685D02*
X45688071Y-73100257D01*
X45688071Y-73100257D02*
X45545214Y-73028828D01*
X45545214Y-73028828D02*
X45259500Y-73028828D01*
X45259500Y-73028828D02*
X45116642Y-73100257D01*
X47473785Y-73528828D02*
X47473785Y-74528828D01*
X46473785Y-73528828D02*
X46473785Y-74528828D01*
X46473785Y-74528828D02*
X46830928Y-74528828D01*
X46830928Y-74528828D02*
X46973785Y-74457400D01*
X46973785Y-74457400D02*
X47045214Y-74314542D01*
X47045214Y-74314542D02*
X47045214Y-74100257D01*
X47045214Y-74100257D02*
X46973785Y-73957400D01*
X46973785Y-73957400D02*
X46830928Y-73885971D01*
X46830928Y-73885971D02*
X46473785Y-73885971D01*
X65643570Y-73489114D02*
X65857856Y-73560542D01*
X65857856Y-73560542D02*
X65929285Y-73631971D01*
X65929285Y-73631971D02*
X66000713Y-73774828D01*
X66000713Y-73774828D02*
X66000713Y-73989114D01*
X66000713Y-73989114D02*
X65929285Y-74131971D01*
X65929285Y-74131971D02*
X65857856Y-74203400D01*
X65857856Y-74203400D02*
X65714999Y-74274828D01*
X65714999Y-74274828D02*
X65143570Y-74274828D01*
X65143570Y-74274828D02*
X65143570Y-72774828D01*
X65143570Y-72774828D02*
X65643570Y-72774828D01*
X65643570Y-72774828D02*
X65786428Y-72846257D01*
X65786428Y-72846257D02*
X65857856Y-72917685D01*
X65857856Y-72917685D02*
X65929285Y-73060542D01*
X65929285Y-73060542D02*
X65929285Y-73203400D01*
X65929285Y-73203400D02*
X65857856Y-73346257D01*
X65857856Y-73346257D02*
X65786428Y-73417685D01*
X65786428Y-73417685D02*
X65643570Y-73489114D01*
X65643570Y-73489114D02*
X65143570Y-73489114D01*
X67643570Y-73274828D02*
X67643570Y-74274828D01*
X66643570Y-73274828D02*
X66643570Y-74274828D01*
X66643570Y-74274828D02*
X67000713Y-74274828D01*
X67000713Y-74274828D02*
X67143570Y-74203400D01*
X67143570Y-74203400D02*
X67214999Y-74060542D01*
X67214999Y-74060542D02*
X67214999Y-73846257D01*
X67214999Y-73846257D02*
X67143570Y-73703400D01*
X67143570Y-73703400D02*
X67000713Y-73631971D01*
X67000713Y-73631971D02*
X66643570Y-73631971D01*
X68214999Y-74274828D02*
X69000714Y-73274828D01*
X68214999Y-73274828D02*
X69000714Y-74274828D01*
X69786428Y-74274828D02*
X69643571Y-74203400D01*
X69643571Y-74203400D02*
X69572142Y-74131971D01*
X69572142Y-74131971D02*
X69500714Y-73989114D01*
X69500714Y-73989114D02*
X69500714Y-73560542D01*
X69500714Y-73560542D02*
X69572142Y-73417685D01*
X69572142Y-73417685D02*
X69643571Y-73346257D01*
X69643571Y-73346257D02*
X69786428Y-73274828D01*
X69786428Y-73274828D02*
X70000714Y-73274828D01*
X70000714Y-73274828D02*
X70143571Y-73346257D01*
X70143571Y-73346257D02*
X70215000Y-73417685D01*
X70215000Y-73417685D02*
X70286428Y-73560542D01*
X70286428Y-73560542D02*
X70286428Y-73989114D01*
X70286428Y-73989114D02*
X70215000Y-74131971D01*
X70215000Y-74131971D02*
X70143571Y-74203400D01*
X70143571Y-74203400D02*
X70000714Y-74274828D01*
X70000714Y-74274828D02*
X69786428Y-74274828D01*
X71643571Y-73417685D02*
X71572143Y-73346257D01*
X71572143Y-73346257D02*
X71429285Y-73274828D01*
X71429285Y-73274828D02*
X71143571Y-73274828D01*
X71143571Y-73274828D02*
X71000714Y-73346257D01*
X71000714Y-73346257D02*
X70929285Y-73417685D01*
X70929285Y-73417685D02*
X70857857Y-73560542D01*
X70857857Y-73560542D02*
X70857857Y-73989114D01*
X70857857Y-73989114D02*
X70929285Y-74131971D01*
X70929285Y-74131971D02*
X71000714Y-74203400D01*
X71000714Y-74203400D02*
X71143571Y-74274828D01*
X71143571Y-74274828D02*
X71357857Y-74274828D01*
X71357857Y-74274828D02*
X71500714Y-74203400D01*
X71500714Y-74203400D02*
X71572143Y-74131971D01*
X71572143Y-74131971D02*
X71643571Y-73989114D01*
X71643571Y-73989114D02*
X71643571Y-73060542D01*
X71643571Y-73060542D02*
X71572143Y-72917685D01*
X71572143Y-72917685D02*
X71500714Y-72846257D01*
X71500714Y-72846257D02*
X71357857Y-72774828D01*
X71357857Y-72774828D02*
X71072143Y-72774828D01*
X71072143Y-72774828D02*
X70929285Y-72846257D01*
X73286428Y-73274828D02*
X73286428Y-74274828D01*
X72286428Y-73274828D02*
X72286428Y-74274828D01*
X72286428Y-74274828D02*
X72643571Y-74274828D01*
X72643571Y-74274828D02*
X72786428Y-74203400D01*
X72786428Y-74203400D02*
X72857857Y-74060542D01*
X72857857Y-74060542D02*
X72857857Y-73846257D01*
X72857857Y-73846257D02*
X72786428Y-73703400D01*
X72786428Y-73703400D02*
X72643571Y-73631971D01*
X72643571Y-73631971D02*
X72286428Y-73631971D01*
X82169071Y-78783400D02*
X83311929Y-78783400D01*
X90932071Y-78211900D02*
X92074929Y-78211900D01*
X91503500Y-78783328D02*
X91503500Y-77640471D01*
X109510957Y-53626857D02*
X109510957Y-52912572D01*
X110153814Y-52698286D02*
X110225242Y-52769714D01*
X110225242Y-52769714D02*
X110296671Y-52984000D01*
X110296671Y-52984000D02*
X110296671Y-53126857D01*
X110296671Y-53126857D02*
X110225242Y-53341143D01*
X110225242Y-53341143D02*
X110082385Y-53484000D01*
X110082385Y-53484000D02*
X109939528Y-53555429D01*
X109939528Y-53555429D02*
X109653814Y-53626857D01*
X109653814Y-53626857D02*
X109439528Y-53626857D01*
X109439528Y-53626857D02*
X109153814Y-53555429D01*
X109153814Y-53555429D02*
X109010957Y-53484000D01*
X109010957Y-53484000D02*
X108868100Y-53341143D01*
X108868100Y-53341143D02*
X108796671Y-53126857D01*
X108796671Y-53126857D02*
X108796671Y-52984000D01*
X108796671Y-52984000D02*
X108868100Y-52769714D01*
X108868100Y-52769714D02*
X108939528Y-52698286D01*
X108796671Y-54269714D02*
X109796671Y-54269714D01*
X109796671Y-54269714D02*
X109010957Y-54698286D01*
X109010957Y-54698286D02*
X109796671Y-55126857D01*
X109796671Y-55126857D02*
X108796671Y-55126857D01*
X109796671Y-55698286D02*
X108796671Y-56055429D01*
X109796671Y-56412572D02*
X108796671Y-56055429D01*
X108796671Y-56055429D02*
X108439528Y-55912572D01*
X108439528Y-55912572D02*
X108368100Y-55841143D01*
X108368100Y-55841143D02*
X108296671Y-55698286D01*
X108796671Y-57555429D02*
X109796671Y-57555429D01*
X109796671Y-57555429D02*
X109796671Y-57341143D01*
X109796671Y-57341143D02*
X109725242Y-57198286D01*
X109725242Y-57198286D02*
X109582385Y-57126858D01*
X109582385Y-57126858D02*
X109010957Y-57055429D01*
X109010957Y-57055429D02*
X108868100Y-56984000D01*
X108868100Y-56984000D02*
X108796671Y-56841143D01*
X109225242Y-58555429D02*
X108796671Y-58198286D01*
X108796671Y-58841143D02*
X109796671Y-58841143D01*
X109796671Y-58841143D02*
X109796671Y-58412572D01*
X109796671Y-58412572D02*
X109725242Y-58269714D01*
X109725242Y-58269714D02*
X109582385Y-58198286D01*
X109582385Y-58198286D02*
X109439528Y-58198286D01*
X109439528Y-58198286D02*
X109296671Y-58269714D01*
X109296671Y-58269714D02*
X109225242Y-58412572D01*
X109225242Y-58412572D02*
X109225242Y-58841143D01*
X109796671Y-59341143D02*
X109796671Y-60055428D01*
X109796671Y-59698286D02*
X108796671Y-59698286D01*
X108796671Y-60769714D02*
X108868100Y-60626857D01*
X108868100Y-60626857D02*
X108939528Y-60555428D01*
X108939528Y-60555428D02*
X109082385Y-60484000D01*
X109082385Y-60484000D02*
X109510957Y-60484000D01*
X109510957Y-60484000D02*
X109653814Y-60555428D01*
X109653814Y-60555428D02*
X109725242Y-60626857D01*
X109725242Y-60626857D02*
X109796671Y-60769714D01*
X109796671Y-60769714D02*
X109796671Y-60984000D01*
X109796671Y-60984000D02*
X109725242Y-61126857D01*
X109725242Y-61126857D02*
X109653814Y-61198286D01*
X109653814Y-61198286D02*
X109510957Y-61269714D01*
X109510957Y-61269714D02*
X109082385Y-61269714D01*
X109082385Y-61269714D02*
X108939528Y-61198286D01*
X108939528Y-61198286D02*
X108868100Y-61126857D01*
X108868100Y-61126857D02*
X108796671Y-60984000D01*
X108796671Y-60984000D02*
X108796671Y-60769714D01*
X109796671Y-61912571D02*
X108296671Y-61912571D01*
X109725242Y-61912571D02*
X109796671Y-62055429D01*
X109796671Y-62055429D02*
X109796671Y-62341143D01*
X109796671Y-62341143D02*
X109725242Y-62484000D01*
X109725242Y-62484000D02*
X109653814Y-62555429D01*
X109653814Y-62555429D02*
X109510957Y-62626857D01*
X109510957Y-62626857D02*
X109082385Y-62626857D01*
X109082385Y-62626857D02*
X108939528Y-62555429D01*
X108939528Y-62555429D02*
X108868100Y-62484000D01*
X108868100Y-62484000D02*
X108796671Y-62341143D01*
X108796671Y-62341143D02*
X108796671Y-62055429D01*
X108796671Y-62055429D02*
X108868100Y-61912571D01*
X108796671Y-64412571D02*
X110296671Y-64412571D01*
X110296671Y-64412571D02*
X110296671Y-65269714D01*
X110296671Y-65269714D02*
X108796671Y-65269714D01*
X108939528Y-66841143D02*
X108868100Y-66769715D01*
X108868100Y-66769715D02*
X108796671Y-66555429D01*
X108796671Y-66555429D02*
X108796671Y-66412572D01*
X108796671Y-66412572D02*
X108868100Y-66198286D01*
X108868100Y-66198286D02*
X109010957Y-66055429D01*
X109010957Y-66055429D02*
X109153814Y-65984000D01*
X109153814Y-65984000D02*
X109439528Y-65912572D01*
X109439528Y-65912572D02*
X109653814Y-65912572D01*
X109653814Y-65912572D02*
X109939528Y-65984000D01*
X109939528Y-65984000D02*
X110082385Y-66055429D01*
X110082385Y-66055429D02*
X110225242Y-66198286D01*
X110225242Y-66198286D02*
X110296671Y-66412572D01*
X110296671Y-66412572D02*
X110296671Y-66555429D01*
X110296671Y-66555429D02*
X110225242Y-66769715D01*
X110225242Y-66769715D02*
X110153814Y-66841143D01*
X108796671Y-67484000D02*
X110296671Y-67484000D01*
X110296671Y-67484000D02*
X110296671Y-68269715D01*
X108796671Y-69555429D02*
X108796671Y-68698286D01*
X108796671Y-69126857D02*
X110296671Y-69126857D01*
X110296671Y-69126857D02*
X110082385Y-68984000D01*
X110082385Y-68984000D02*
X109939528Y-68841143D01*
X109939528Y-68841143D02*
X109868100Y-68698286D01*
X109796671Y-70841143D02*
X108796671Y-70841143D01*
X110368100Y-70484000D02*
X109296671Y-70126857D01*
X109296671Y-70126857D02*
X109296671Y-71055428D01*
X109225242Y-71555428D02*
X109225242Y-72269714D01*
X108796671Y-71412571D02*
X110296671Y-71912571D01*
X110296671Y-71912571D02*
X108796671Y-72412571D01*
X106381671Y-45948286D02*
X107095957Y-45448286D01*
X106381671Y-45091143D02*
X107881671Y-45091143D01*
X107881671Y-45091143D02*
X107881671Y-45662572D01*
X107881671Y-45662572D02*
X107810242Y-45805429D01*
X107810242Y-45805429D02*
X107738814Y-45876858D01*
X107738814Y-45876858D02*
X107595957Y-45948286D01*
X107595957Y-45948286D02*
X107381671Y-45948286D01*
X107381671Y-45948286D02*
X107238814Y-45876858D01*
X107238814Y-45876858D02*
X107167385Y-45805429D01*
X107167385Y-45805429D02*
X107095957Y-45662572D01*
X107095957Y-45662572D02*
X107095957Y-45091143D01*
X106453100Y-47162572D02*
X106381671Y-47019715D01*
X106381671Y-47019715D02*
X106381671Y-46734001D01*
X106381671Y-46734001D02*
X106453100Y-46591143D01*
X106453100Y-46591143D02*
X106595957Y-46519715D01*
X106595957Y-46519715D02*
X107167385Y-46519715D01*
X107167385Y-46519715D02*
X107310242Y-46591143D01*
X107310242Y-46591143D02*
X107381671Y-46734001D01*
X107381671Y-46734001D02*
X107381671Y-47019715D01*
X107381671Y-47019715D02*
X107310242Y-47162572D01*
X107310242Y-47162572D02*
X107167385Y-47234001D01*
X107167385Y-47234001D02*
X107024528Y-47234001D01*
X107024528Y-47234001D02*
X106881671Y-46519715D01*
X107381671Y-47876857D02*
X106381671Y-47876857D01*
X107238814Y-47876857D02*
X107310242Y-47948286D01*
X107310242Y-47948286D02*
X107381671Y-48091143D01*
X107381671Y-48091143D02*
X107381671Y-48305429D01*
X107381671Y-48305429D02*
X107310242Y-48448286D01*
X107310242Y-48448286D02*
X107167385Y-48519715D01*
X107167385Y-48519715D02*
X106381671Y-48519715D01*
X106381671Y-49876858D02*
X107167385Y-49876858D01*
X107167385Y-49876858D02*
X107310242Y-49805429D01*
X107310242Y-49805429D02*
X107381671Y-49662572D01*
X107381671Y-49662572D02*
X107381671Y-49376858D01*
X107381671Y-49376858D02*
X107310242Y-49234000D01*
X106453100Y-49876858D02*
X106381671Y-49734000D01*
X106381671Y-49734000D02*
X106381671Y-49376858D01*
X106381671Y-49376858D02*
X106453100Y-49234000D01*
X106453100Y-49234000D02*
X106595957Y-49162572D01*
X106595957Y-49162572D02*
X106738814Y-49162572D01*
X106738814Y-49162572D02*
X106881671Y-49234000D01*
X106881671Y-49234000D02*
X106953100Y-49376858D01*
X106953100Y-49376858D02*
X106953100Y-49734000D01*
X106953100Y-49734000D02*
X107024528Y-49876858D01*
X107381671Y-51234001D02*
X106381671Y-51234001D01*
X107381671Y-50591143D02*
X106595957Y-50591143D01*
X106595957Y-50591143D02*
X106453100Y-50662572D01*
X106453100Y-50662572D02*
X106381671Y-50805429D01*
X106381671Y-50805429D02*
X106381671Y-51019715D01*
X106381671Y-51019715D02*
X106453100Y-51162572D01*
X106453100Y-51162572D02*
X106524528Y-51234001D01*
X106381671Y-52162572D02*
X106453100Y-52019715D01*
X106453100Y-52019715D02*
X106595957Y-51948286D01*
X106595957Y-51948286D02*
X107881671Y-51948286D01*
X107381671Y-52519715D02*
X107381671Y-53091143D01*
X107881671Y-52734000D02*
X106595957Y-52734000D01*
X106595957Y-52734000D02*
X106453100Y-52805429D01*
X106453100Y-52805429D02*
X106381671Y-52948286D01*
X106381671Y-52948286D02*
X106381671Y-53091143D01*
X106524528Y-55591143D02*
X106453100Y-55519715D01*
X106453100Y-55519715D02*
X106381671Y-55305429D01*
X106381671Y-55305429D02*
X106381671Y-55162572D01*
X106381671Y-55162572D02*
X106453100Y-54948286D01*
X106453100Y-54948286D02*
X106595957Y-54805429D01*
X106595957Y-54805429D02*
X106738814Y-54734000D01*
X106738814Y-54734000D02*
X107024528Y-54662572D01*
X107024528Y-54662572D02*
X107238814Y-54662572D01*
X107238814Y-54662572D02*
X107524528Y-54734000D01*
X107524528Y-54734000D02*
X107667385Y-54805429D01*
X107667385Y-54805429D02*
X107810242Y-54948286D01*
X107810242Y-54948286D02*
X107881671Y-55162572D01*
X107881671Y-55162572D02*
X107881671Y-55305429D01*
X107881671Y-55305429D02*
X107810242Y-55519715D01*
X107810242Y-55519715D02*
X107738814Y-55591143D01*
X106381671Y-56448286D02*
X106453100Y-56305429D01*
X106453100Y-56305429D02*
X106595957Y-56234000D01*
X106595957Y-56234000D02*
X107881671Y-56234000D01*
X107381671Y-57662572D02*
X106381671Y-57662572D01*
X107381671Y-57019714D02*
X106595957Y-57019714D01*
X106595957Y-57019714D02*
X106453100Y-57091143D01*
X106453100Y-57091143D02*
X106381671Y-57234000D01*
X106381671Y-57234000D02*
X106381671Y-57448286D01*
X106381671Y-57448286D02*
X106453100Y-57591143D01*
X106453100Y-57591143D02*
X106524528Y-57662572D01*
X106381671Y-58376857D02*
X107881671Y-58376857D01*
X107310242Y-58376857D02*
X107381671Y-58519715D01*
X107381671Y-58519715D02*
X107381671Y-58805429D01*
X107381671Y-58805429D02*
X107310242Y-58948286D01*
X107310242Y-58948286D02*
X107238814Y-59019715D01*
X107238814Y-59019715D02*
X107095957Y-59091143D01*
X107095957Y-59091143D02*
X106667385Y-59091143D01*
X106667385Y-59091143D02*
X106524528Y-59019715D01*
X106524528Y-59019715D02*
X106453100Y-58948286D01*
X106453100Y-58948286D02*
X106381671Y-58805429D01*
X106381671Y-58805429D02*
X106381671Y-58519715D01*
X106381671Y-58519715D02*
X106453100Y-58376857D01*
X106381671Y-60876857D02*
X107881671Y-60876857D01*
X106381671Y-61734000D02*
X107238814Y-61091143D01*
X107881671Y-61734000D02*
X107024528Y-60876857D01*
X106381671Y-62376857D02*
X107881671Y-62376857D01*
X106381671Y-63019715D02*
X107167385Y-63019715D01*
X107167385Y-63019715D02*
X107310242Y-62948286D01*
X107310242Y-62948286D02*
X107381671Y-62805429D01*
X107381671Y-62805429D02*
X107381671Y-62591143D01*
X107381671Y-62591143D02*
X107310242Y-62448286D01*
X107310242Y-62448286D02*
X107238814Y-62376857D01*
X106381671Y-64376858D02*
X107167385Y-64376858D01*
X107167385Y-64376858D02*
X107310242Y-64305429D01*
X107310242Y-64305429D02*
X107381671Y-64162572D01*
X107381671Y-64162572D02*
X107381671Y-63876858D01*
X107381671Y-63876858D02*
X107310242Y-63734000D01*
X106453100Y-64376858D02*
X106381671Y-64234000D01*
X106381671Y-64234000D02*
X106381671Y-63876858D01*
X106381671Y-63876858D02*
X106453100Y-63734000D01*
X106453100Y-63734000D02*
X106595957Y-63662572D01*
X106595957Y-63662572D02*
X106738814Y-63662572D01*
X106738814Y-63662572D02*
X106881671Y-63734000D01*
X106881671Y-63734000D02*
X106953100Y-63876858D01*
X106953100Y-63876858D02*
X106953100Y-64234000D01*
X106953100Y-64234000D02*
X107024528Y-64376858D01*
X106381671Y-65091143D02*
X107381671Y-65091143D01*
X107095957Y-65091143D02*
X107238814Y-65162572D01*
X107238814Y-65162572D02*
X107310242Y-65234001D01*
X107310242Y-65234001D02*
X107381671Y-65376858D01*
X107381671Y-65376858D02*
X107381671Y-65519715D01*
X106381671Y-66019714D02*
X107881671Y-66019714D01*
X106953100Y-66162572D02*
X106381671Y-66591143D01*
X107381671Y-66591143D02*
X106810242Y-66019714D01*
X106381671Y-67234000D02*
X107381671Y-67234000D01*
X107881671Y-67234000D02*
X107810242Y-67162572D01*
X107810242Y-67162572D02*
X107738814Y-67234000D01*
X107738814Y-67234000D02*
X107810242Y-67305429D01*
X107810242Y-67305429D02*
X107881671Y-67234000D01*
X107881671Y-67234000D02*
X107738814Y-67234000D01*
X107381671Y-67805429D02*
X106381671Y-68162572D01*
X106381671Y-68162572D02*
X107381671Y-68519715D01*
X105810242Y-70662572D02*
X105881671Y-70591143D01*
X105881671Y-70591143D02*
X106095957Y-70448286D01*
X106095957Y-70448286D02*
X106238814Y-70376858D01*
X106238814Y-70376858D02*
X106453100Y-70305429D01*
X106453100Y-70305429D02*
X106810242Y-70234000D01*
X106810242Y-70234000D02*
X107095957Y-70234000D01*
X107095957Y-70234000D02*
X107453100Y-70305429D01*
X107453100Y-70305429D02*
X107667385Y-70376858D01*
X107667385Y-70376858D02*
X107810242Y-70448286D01*
X107810242Y-70448286D02*
X108024528Y-70591143D01*
X108024528Y-70591143D02*
X108095957Y-70662572D01*
X106524528Y-72091143D02*
X106453100Y-72019715D01*
X106453100Y-72019715D02*
X106381671Y-71805429D01*
X106381671Y-71805429D02*
X106381671Y-71662572D01*
X106381671Y-71662572D02*
X106453100Y-71448286D01*
X106453100Y-71448286D02*
X106595957Y-71305429D01*
X106595957Y-71305429D02*
X106738814Y-71234000D01*
X106738814Y-71234000D02*
X107024528Y-71162572D01*
X107024528Y-71162572D02*
X107238814Y-71162572D01*
X107238814Y-71162572D02*
X107524528Y-71234000D01*
X107524528Y-71234000D02*
X107667385Y-71305429D01*
X107667385Y-71305429D02*
X107810242Y-71448286D01*
X107810242Y-71448286D02*
X107881671Y-71662572D01*
X107881671Y-71662572D02*
X107881671Y-71805429D01*
X107881671Y-71805429D02*
X107810242Y-72019715D01*
X107810242Y-72019715D02*
X107738814Y-72091143D01*
X105810242Y-72591143D02*
X105881671Y-72662572D01*
X105881671Y-72662572D02*
X106095957Y-72805429D01*
X106095957Y-72805429D02*
X106238814Y-72876858D01*
X106238814Y-72876858D02*
X106453100Y-72948286D01*
X106453100Y-72948286D02*
X106810242Y-73019715D01*
X106810242Y-73019715D02*
X107095957Y-73019715D01*
X107095957Y-73019715D02*
X107453100Y-72948286D01*
X107453100Y-72948286D02*
X107667385Y-72876858D01*
X107667385Y-72876858D02*
X107810242Y-72805429D01*
X107810242Y-72805429D02*
X108024528Y-72662572D01*
X108024528Y-72662572D02*
X108095957Y-72591143D01*
X107738814Y-74805429D02*
X107810242Y-74876857D01*
X107810242Y-74876857D02*
X107881671Y-75019715D01*
X107881671Y-75019715D02*
X107881671Y-75376857D01*
X107881671Y-75376857D02*
X107810242Y-75519715D01*
X107810242Y-75519715D02*
X107738814Y-75591143D01*
X107738814Y-75591143D02*
X107595957Y-75662572D01*
X107595957Y-75662572D02*
X107453100Y-75662572D01*
X107453100Y-75662572D02*
X107238814Y-75591143D01*
X107238814Y-75591143D02*
X106381671Y-74734000D01*
X106381671Y-74734000D02*
X106381671Y-75662572D01*
X107881671Y-76591143D02*
X107881671Y-76734000D01*
X107881671Y-76734000D02*
X107810242Y-76876857D01*
X107810242Y-76876857D02*
X107738814Y-76948286D01*
X107738814Y-76948286D02*
X107595957Y-77019714D01*
X107595957Y-77019714D02*
X107310242Y-77091143D01*
X107310242Y-77091143D02*
X106953100Y-77091143D01*
X106953100Y-77091143D02*
X106667385Y-77019714D01*
X106667385Y-77019714D02*
X106524528Y-76948286D01*
X106524528Y-76948286D02*
X106453100Y-76876857D01*
X106453100Y-76876857D02*
X106381671Y-76734000D01*
X106381671Y-76734000D02*
X106381671Y-76591143D01*
X106381671Y-76591143D02*
X106453100Y-76448286D01*
X106453100Y-76448286D02*
X106524528Y-76376857D01*
X106524528Y-76376857D02*
X106667385Y-76305428D01*
X106667385Y-76305428D02*
X106953100Y-76234000D01*
X106953100Y-76234000D02*
X107310242Y-76234000D01*
X107310242Y-76234000D02*
X107595957Y-76305428D01*
X107595957Y-76305428D02*
X107738814Y-76376857D01*
X107738814Y-76376857D02*
X107810242Y-76448286D01*
X107810242Y-76448286D02*
X107881671Y-76591143D01*
X106381671Y-78519714D02*
X106381671Y-77662571D01*
X106381671Y-78091142D02*
X107881671Y-78091142D01*
X107881671Y-78091142D02*
X107667385Y-77948285D01*
X107667385Y-77948285D02*
X107524528Y-77805428D01*
X107524528Y-77805428D02*
X107453100Y-77662571D01*
X107238814Y-79376856D02*
X107310242Y-79233999D01*
X107310242Y-79233999D02*
X107381671Y-79162570D01*
X107381671Y-79162570D02*
X107524528Y-79091142D01*
X107524528Y-79091142D02*
X107595957Y-79091142D01*
X107595957Y-79091142D02*
X107738814Y-79162570D01*
X107738814Y-79162570D02*
X107810242Y-79233999D01*
X107810242Y-79233999D02*
X107881671Y-79376856D01*
X107881671Y-79376856D02*
X107881671Y-79662570D01*
X107881671Y-79662570D02*
X107810242Y-79805428D01*
X107810242Y-79805428D02*
X107738814Y-79876856D01*
X107738814Y-79876856D02*
X107595957Y-79948285D01*
X107595957Y-79948285D02*
X107524528Y-79948285D01*
X107524528Y-79948285D02*
X107381671Y-79876856D01*
X107381671Y-79876856D02*
X107310242Y-79805428D01*
X107310242Y-79805428D02*
X107238814Y-79662570D01*
X107238814Y-79662570D02*
X107238814Y-79376856D01*
X107238814Y-79376856D02*
X107167385Y-79233999D01*
X107167385Y-79233999D02*
X107095957Y-79162570D01*
X107095957Y-79162570D02*
X106953100Y-79091142D01*
X106953100Y-79091142D02*
X106667385Y-79091142D01*
X106667385Y-79091142D02*
X106524528Y-79162570D01*
X106524528Y-79162570D02*
X106453100Y-79233999D01*
X106453100Y-79233999D02*
X106381671Y-79376856D01*
X106381671Y-79376856D02*
X106381671Y-79662570D01*
X106381671Y-79662570D02*
X106453100Y-79805428D01*
X106453100Y-79805428D02*
X106524528Y-79876856D01*
X106524528Y-79876856D02*
X106667385Y-79948285D01*
X106667385Y-79948285D02*
X106953100Y-79948285D01*
X106953100Y-79948285D02*
X107095957Y-79876856D01*
X107095957Y-79876856D02*
X107167385Y-79805428D01*
X107167385Y-79805428D02*
X107238814Y-79662570D01*
D10*
X37434072Y-83794500D02*
X37319786Y-83865928D01*
X37319786Y-83865928D02*
X37091214Y-83865928D01*
X37091214Y-83865928D02*
X36976929Y-83794500D01*
X36976929Y-83794500D02*
X36919786Y-83723071D01*
X36919786Y-83723071D02*
X36862643Y-83580214D01*
X36862643Y-83580214D02*
X36862643Y-83151642D01*
X36862643Y-83151642D02*
X36919786Y-83008785D01*
X36919786Y-83008785D02*
X36976929Y-82937357D01*
X36976929Y-82937357D02*
X37091214Y-82865928D01*
X37091214Y-82865928D02*
X37319786Y-82865928D01*
X37319786Y-82865928D02*
X37434072Y-82937357D01*
X37776928Y-82865928D02*
X38348357Y-82865928D01*
X38062643Y-82865928D02*
X38062643Y-83865928D01*
X38748357Y-83865928D02*
X38748357Y-82865928D01*
X38748357Y-82865928D02*
X39205500Y-82865928D01*
X40519786Y-83865928D02*
X40519786Y-82865928D01*
X40519786Y-82865928D02*
X41034072Y-82865928D01*
X41034072Y-82865928D02*
X41034072Y-83865928D01*
X41434071Y-82865928D02*
X42005500Y-82865928D01*
X41719786Y-82865928D02*
X41719786Y-83865928D01*
X43834072Y-83794500D02*
X43719786Y-83865928D01*
X43719786Y-83865928D02*
X43491214Y-83865928D01*
X43491214Y-83865928D02*
X43376929Y-83794500D01*
X43376929Y-83794500D02*
X43319786Y-83723071D01*
X43319786Y-83723071D02*
X43262643Y-83580214D01*
X43262643Y-83580214D02*
X43262643Y-83151642D01*
X43262643Y-83151642D02*
X43319786Y-83008785D01*
X43319786Y-83008785D02*
X43376929Y-82937357D01*
X43376929Y-82937357D02*
X43491214Y-82865928D01*
X43491214Y-82865928D02*
X43719786Y-82865928D01*
X43719786Y-82865928D02*
X43834072Y-82937357D01*
X44634071Y-83365928D02*
X44805500Y-83437357D01*
X44805500Y-83437357D02*
X44862643Y-83580214D01*
X44862643Y-83580214D02*
X44862643Y-83651642D01*
X44862643Y-83651642D02*
X44805500Y-83794500D01*
X44805500Y-83794500D02*
X44691214Y-83865928D01*
X44691214Y-83865928D02*
X44348357Y-83865928D01*
X44348357Y-83865928D02*
X44348357Y-82865928D01*
X44348357Y-82865928D02*
X44634071Y-82865928D01*
X44634071Y-82865928D02*
X44748357Y-82937357D01*
X44748357Y-82937357D02*
X44805500Y-83080214D01*
X44805500Y-83080214D02*
X44805500Y-83151642D01*
X44805500Y-83151642D02*
X44748357Y-83294500D01*
X44748357Y-83294500D02*
X44634071Y-83365928D01*
X44634071Y-83365928D02*
X44348357Y-83365928D01*
X46805500Y-82865928D02*
X46805500Y-83865928D01*
X46519785Y-82294500D02*
X46234071Y-83365928D01*
X46234071Y-83365928D02*
X46976928Y-83365928D01*
X48919785Y-82365928D02*
X48348357Y-82365928D01*
X48348357Y-82365928D02*
X48291214Y-83080214D01*
X48291214Y-83080214D02*
X48348357Y-83008785D01*
X48348357Y-83008785D02*
X48462643Y-82937357D01*
X48462643Y-82937357D02*
X48748357Y-82937357D01*
X48748357Y-82937357D02*
X48862643Y-83008785D01*
X48862643Y-83008785D02*
X48919785Y-83080214D01*
X48919785Y-83080214D02*
X48976928Y-83223071D01*
X48976928Y-83223071D02*
X48976928Y-83580214D01*
X48976928Y-83580214D02*
X48919785Y-83723071D01*
X48919785Y-83723071D02*
X48862643Y-83794500D01*
X48862643Y-83794500D02*
X48748357Y-83865928D01*
X48748357Y-83865928D02*
X48462643Y-83865928D01*
X48462643Y-83865928D02*
X48348357Y-83794500D01*
X48348357Y-83794500D02*
X48291214Y-83723071D01*
X50634071Y-82365928D02*
X50862643Y-82365928D01*
X50862643Y-82365928D02*
X50976928Y-82437357D01*
X50976928Y-82437357D02*
X51091214Y-82580214D01*
X51091214Y-82580214D02*
X51148357Y-82865928D01*
X51148357Y-82865928D02*
X51148357Y-83365928D01*
X51148357Y-83365928D02*
X51091214Y-83651642D01*
X51091214Y-83651642D02*
X50976928Y-83794500D01*
X50976928Y-83794500D02*
X50862643Y-83865928D01*
X50862643Y-83865928D02*
X50634071Y-83865928D01*
X50634071Y-83865928D02*
X50519786Y-83794500D01*
X50519786Y-83794500D02*
X50405500Y-83651642D01*
X50405500Y-83651642D02*
X50348357Y-83365928D01*
X50348357Y-83365928D02*
X50348357Y-82865928D01*
X50348357Y-82865928D02*
X50405500Y-82580214D01*
X50405500Y-82580214D02*
X50519786Y-82437357D01*
X50519786Y-82437357D02*
X50634071Y-82365928D01*
D12*
X92071464Y-47686125D02*
X91071464Y-47686125D01*
X91071464Y-47686125D02*
X91071464Y-47448030D01*
X91071464Y-47448030D02*
X91119083Y-47305173D01*
X91119083Y-47305173D02*
X91214321Y-47209935D01*
X91214321Y-47209935D02*
X91309559Y-47162316D01*
X91309559Y-47162316D02*
X91500035Y-47114697D01*
X91500035Y-47114697D02*
X91642892Y-47114697D01*
X91642892Y-47114697D02*
X91833368Y-47162316D01*
X91833368Y-47162316D02*
X91928606Y-47209935D01*
X91928606Y-47209935D02*
X92023845Y-47305173D01*
X92023845Y-47305173D02*
X92071464Y-47448030D01*
X92071464Y-47448030D02*
X92071464Y-47686125D01*
X92071464Y-46162316D02*
X92071464Y-46733744D01*
X92071464Y-46448030D02*
X91071464Y-46448030D01*
X91071464Y-46448030D02*
X91214321Y-46543268D01*
X91214321Y-46543268D02*
X91309559Y-46638506D01*
X91309559Y-46638506D02*
X91357178Y-46733744D01*
X91071464Y-45828982D02*
X91071464Y-45209935D01*
X91071464Y-45209935D02*
X91452416Y-45543268D01*
X91452416Y-45543268D02*
X91452416Y-45400411D01*
X91452416Y-45400411D02*
X91500035Y-45305173D01*
X91500035Y-45305173D02*
X91547654Y-45257554D01*
X91547654Y-45257554D02*
X91642892Y-45209935D01*
X91642892Y-45209935D02*
X91880987Y-45209935D01*
X91880987Y-45209935D02*
X91976225Y-45257554D01*
X91976225Y-45257554D02*
X92023845Y-45305173D01*
X92023845Y-45305173D02*
X92071464Y-45400411D01*
X92071464Y-45400411D02*
X92071464Y-45686125D01*
X92071464Y-45686125D02*
X92023845Y-45781363D01*
X92023845Y-45781363D02*
X91976225Y-45828982D01*
X76071464Y-47686125D02*
X75071464Y-47686125D01*
X75071464Y-47686125D02*
X75071464Y-47448030D01*
X75071464Y-47448030D02*
X75119083Y-47305173D01*
X75119083Y-47305173D02*
X75214321Y-47209935D01*
X75214321Y-47209935D02*
X75309559Y-47162316D01*
X75309559Y-47162316D02*
X75500035Y-47114697D01*
X75500035Y-47114697D02*
X75642892Y-47114697D01*
X75642892Y-47114697D02*
X75833368Y-47162316D01*
X75833368Y-47162316D02*
X75928606Y-47209935D01*
X75928606Y-47209935D02*
X76023845Y-47305173D01*
X76023845Y-47305173D02*
X76071464Y-47448030D01*
X76071464Y-47448030D02*
X76071464Y-47686125D01*
X76071464Y-46162316D02*
X76071464Y-46733744D01*
X76071464Y-46448030D02*
X75071464Y-46448030D01*
X75071464Y-46448030D02*
X75214321Y-46543268D01*
X75214321Y-46543268D02*
X75309559Y-46638506D01*
X75309559Y-46638506D02*
X75357178Y-46733744D01*
X75071464Y-45543268D02*
X75071464Y-45448030D01*
X75071464Y-45448030D02*
X75119083Y-45352792D01*
X75119083Y-45352792D02*
X75166702Y-45305173D01*
X75166702Y-45305173D02*
X75261940Y-45257554D01*
X75261940Y-45257554D02*
X75452416Y-45209935D01*
X75452416Y-45209935D02*
X75690511Y-45209935D01*
X75690511Y-45209935D02*
X75880987Y-45257554D01*
X75880987Y-45257554D02*
X75976225Y-45305173D01*
X75976225Y-45305173D02*
X76023845Y-45352792D01*
X76023845Y-45352792D02*
X76071464Y-45448030D01*
X76071464Y-45448030D02*
X76071464Y-45543268D01*
X76071464Y-45543268D02*
X76023845Y-45638506D01*
X76023845Y-45638506D02*
X75976225Y-45686125D01*
X75976225Y-45686125D02*
X75880987Y-45733744D01*
X75880987Y-45733744D02*
X75690511Y-45781363D01*
X75690511Y-45781363D02*
X75452416Y-45781363D01*
X75452416Y-45781363D02*
X75261940Y-45733744D01*
X75261940Y-45733744D02*
X75166702Y-45686125D01*
X75166702Y-45686125D02*
X75119083Y-45638506D01*
X75119083Y-45638506D02*
X75071464Y-45543268D01*
X60071464Y-47209934D02*
X59071464Y-47209934D01*
X59071464Y-47209934D02*
X59071464Y-46971839D01*
X59071464Y-46971839D02*
X59119083Y-46828982D01*
X59119083Y-46828982D02*
X59214321Y-46733744D01*
X59214321Y-46733744D02*
X59309559Y-46686125D01*
X59309559Y-46686125D02*
X59500035Y-46638506D01*
X59500035Y-46638506D02*
X59642892Y-46638506D01*
X59642892Y-46638506D02*
X59833368Y-46686125D01*
X59833368Y-46686125D02*
X59928606Y-46733744D01*
X59928606Y-46733744D02*
X60023845Y-46828982D01*
X60023845Y-46828982D02*
X60071464Y-46971839D01*
X60071464Y-46971839D02*
X60071464Y-47209934D01*
X59071464Y-46305172D02*
X59071464Y-45638506D01*
X59071464Y-45638506D02*
X60071464Y-46067077D01*
X44071464Y-47209934D02*
X43071464Y-47209934D01*
X43071464Y-47209934D02*
X43071464Y-46971839D01*
X43071464Y-46971839D02*
X43119083Y-46828982D01*
X43119083Y-46828982D02*
X43214321Y-46733744D01*
X43214321Y-46733744D02*
X43309559Y-46686125D01*
X43309559Y-46686125D02*
X43500035Y-46638506D01*
X43500035Y-46638506D02*
X43642892Y-46638506D01*
X43642892Y-46638506D02*
X43833368Y-46686125D01*
X43833368Y-46686125D02*
X43928606Y-46733744D01*
X43928606Y-46733744D02*
X44023845Y-46828982D01*
X44023845Y-46828982D02*
X44071464Y-46971839D01*
X44071464Y-46971839D02*
X44071464Y-47209934D01*
X43404797Y-45781363D02*
X44071464Y-45781363D01*
X43023845Y-46019458D02*
X43738130Y-46257553D01*
X43738130Y-46257553D02*
X43738130Y-45638506D01*
X28071464Y-47209934D02*
X27071464Y-47209934D01*
X27071464Y-47209934D02*
X27071464Y-46971839D01*
X27071464Y-46971839D02*
X27119083Y-46828982D01*
X27119083Y-46828982D02*
X27214321Y-46733744D01*
X27214321Y-46733744D02*
X27309559Y-46686125D01*
X27309559Y-46686125D02*
X27500035Y-46638506D01*
X27500035Y-46638506D02*
X27642892Y-46638506D01*
X27642892Y-46638506D02*
X27833368Y-46686125D01*
X27833368Y-46686125D02*
X27928606Y-46733744D01*
X27928606Y-46733744D02*
X28023845Y-46828982D01*
X28023845Y-46828982D02*
X28071464Y-46971839D01*
X28071464Y-46971839D02*
X28071464Y-47209934D01*
X28071464Y-45686125D02*
X28071464Y-46257553D01*
X28071464Y-45971839D02*
X27071464Y-45971839D01*
X27071464Y-45971839D02*
X27214321Y-46067077D01*
X27214321Y-46067077D02*
X27309559Y-46162315D01*
X27309559Y-46162315D02*
X27357178Y-46257553D01*
X37258666Y-73368819D02*
X37258666Y-74083104D01*
X37258666Y-74083104D02*
X37211047Y-74225961D01*
X37211047Y-74225961D02*
X37115809Y-74321200D01*
X37115809Y-74321200D02*
X36972952Y-74368819D01*
X36972952Y-74368819D02*
X36877714Y-74368819D01*
X37687238Y-73464057D02*
X37734857Y-73416438D01*
X37734857Y-73416438D02*
X37830095Y-73368819D01*
X37830095Y-73368819D02*
X38068190Y-73368819D01*
X38068190Y-73368819D02*
X38163428Y-73416438D01*
X38163428Y-73416438D02*
X38211047Y-73464057D01*
X38211047Y-73464057D02*
X38258666Y-73559295D01*
X38258666Y-73559295D02*
X38258666Y-73654533D01*
X38258666Y-73654533D02*
X38211047Y-73797390D01*
X38211047Y-73797390D02*
X37639619Y-74368819D01*
X37639619Y-74368819D02*
X38258666Y-74368819D01*
X62849166Y-73114819D02*
X62849166Y-73829104D01*
X62849166Y-73829104D02*
X62801547Y-73971961D01*
X62801547Y-73971961D02*
X62706309Y-74067200D01*
X62706309Y-74067200D02*
X62563452Y-74114819D01*
X62563452Y-74114819D02*
X62468214Y-74114819D01*
X63230119Y-73114819D02*
X63849166Y-73114819D01*
X63849166Y-73114819D02*
X63515833Y-73495771D01*
X63515833Y-73495771D02*
X63658690Y-73495771D01*
X63658690Y-73495771D02*
X63753928Y-73543390D01*
X63753928Y-73543390D02*
X63801547Y-73591009D01*
X63801547Y-73591009D02*
X63849166Y-73686247D01*
X63849166Y-73686247D02*
X63849166Y-73924342D01*
X63849166Y-73924342D02*
X63801547Y-74019580D01*
X63801547Y-74019580D02*
X63753928Y-74067200D01*
X63753928Y-74067200D02*
X63658690Y-74114819D01*
X63658690Y-74114819D02*
X63372976Y-74114819D01*
X63372976Y-74114819D02*
X63277738Y-74067200D01*
X63277738Y-74067200D02*
X63230119Y-74019580D01*
X33089497Y-47633878D02*
X33041878Y-47729116D01*
X33041878Y-47729116D02*
X32946640Y-47824354D01*
X32946640Y-47824354D02*
X32803782Y-47967211D01*
X32803782Y-47967211D02*
X32756163Y-48062449D01*
X32756163Y-48062449D02*
X32756163Y-48157687D01*
X32994259Y-48110068D02*
X32946640Y-48205306D01*
X32946640Y-48205306D02*
X32851401Y-48300544D01*
X32851401Y-48300544D02*
X32660925Y-48348163D01*
X32660925Y-48348163D02*
X32327592Y-48348163D01*
X32327592Y-48348163D02*
X32137116Y-48300544D01*
X32137116Y-48300544D02*
X32041878Y-48205306D01*
X32041878Y-48205306D02*
X31994259Y-48110068D01*
X31994259Y-48110068D02*
X31994259Y-47919592D01*
X31994259Y-47919592D02*
X32041878Y-47824354D01*
X32041878Y-47824354D02*
X32137116Y-47729116D01*
X32137116Y-47729116D02*
X32327592Y-47681497D01*
X32327592Y-47681497D02*
X32660925Y-47681497D01*
X32660925Y-47681497D02*
X32851401Y-47729116D01*
X32851401Y-47729116D02*
X32946640Y-47824354D01*
X32946640Y-47824354D02*
X32994259Y-47919592D01*
X32994259Y-47919592D02*
X32994259Y-48110068D01*
X32994259Y-46729116D02*
X32994259Y-47300544D01*
X32994259Y-47014830D02*
X31994259Y-47014830D01*
X31994259Y-47014830D02*
X32137116Y-47110068D01*
X32137116Y-47110068D02*
X32232354Y-47205306D01*
X32232354Y-47205306D02*
X32279973Y-47300544D01*
X49089497Y-47633878D02*
X49041878Y-47729116D01*
X49041878Y-47729116D02*
X48946640Y-47824354D01*
X48946640Y-47824354D02*
X48803782Y-47967211D01*
X48803782Y-47967211D02*
X48756163Y-48062449D01*
X48756163Y-48062449D02*
X48756163Y-48157687D01*
X48994259Y-48110068D02*
X48946640Y-48205306D01*
X48946640Y-48205306D02*
X48851401Y-48300544D01*
X48851401Y-48300544D02*
X48660925Y-48348163D01*
X48660925Y-48348163D02*
X48327592Y-48348163D01*
X48327592Y-48348163D02*
X48137116Y-48300544D01*
X48137116Y-48300544D02*
X48041878Y-48205306D01*
X48041878Y-48205306D02*
X47994259Y-48110068D01*
X47994259Y-48110068D02*
X47994259Y-47919592D01*
X47994259Y-47919592D02*
X48041878Y-47824354D01*
X48041878Y-47824354D02*
X48137116Y-47729116D01*
X48137116Y-47729116D02*
X48327592Y-47681497D01*
X48327592Y-47681497D02*
X48660925Y-47681497D01*
X48660925Y-47681497D02*
X48851401Y-47729116D01*
X48851401Y-47729116D02*
X48946640Y-47824354D01*
X48946640Y-47824354D02*
X48994259Y-47919592D01*
X48994259Y-47919592D02*
X48994259Y-48110068D01*
X48089497Y-47300544D02*
X48041878Y-47252925D01*
X48041878Y-47252925D02*
X47994259Y-47157687D01*
X47994259Y-47157687D02*
X47994259Y-46919592D01*
X47994259Y-46919592D02*
X48041878Y-46824354D01*
X48041878Y-46824354D02*
X48089497Y-46776735D01*
X48089497Y-46776735D02*
X48184735Y-46729116D01*
X48184735Y-46729116D02*
X48279973Y-46729116D01*
X48279973Y-46729116D02*
X48422830Y-46776735D01*
X48422830Y-46776735D02*
X48994259Y-47348163D01*
X48994259Y-47348163D02*
X48994259Y-46729116D01*
X65089497Y-47633878D02*
X65041878Y-47729116D01*
X65041878Y-47729116D02*
X64946640Y-47824354D01*
X64946640Y-47824354D02*
X64803782Y-47967211D01*
X64803782Y-47967211D02*
X64756163Y-48062449D01*
X64756163Y-48062449D02*
X64756163Y-48157687D01*
X64994259Y-48110068D02*
X64946640Y-48205306D01*
X64946640Y-48205306D02*
X64851401Y-48300544D01*
X64851401Y-48300544D02*
X64660925Y-48348163D01*
X64660925Y-48348163D02*
X64327592Y-48348163D01*
X64327592Y-48348163D02*
X64137116Y-48300544D01*
X64137116Y-48300544D02*
X64041878Y-48205306D01*
X64041878Y-48205306D02*
X63994259Y-48110068D01*
X63994259Y-48110068D02*
X63994259Y-47919592D01*
X63994259Y-47919592D02*
X64041878Y-47824354D01*
X64041878Y-47824354D02*
X64137116Y-47729116D01*
X64137116Y-47729116D02*
X64327592Y-47681497D01*
X64327592Y-47681497D02*
X64660925Y-47681497D01*
X64660925Y-47681497D02*
X64851401Y-47729116D01*
X64851401Y-47729116D02*
X64946640Y-47824354D01*
X64946640Y-47824354D02*
X64994259Y-47919592D01*
X64994259Y-47919592D02*
X64994259Y-48110068D01*
X63994259Y-47348163D02*
X63994259Y-46729116D01*
X63994259Y-46729116D02*
X64375211Y-47062449D01*
X64375211Y-47062449D02*
X64375211Y-46919592D01*
X64375211Y-46919592D02*
X64422830Y-46824354D01*
X64422830Y-46824354D02*
X64470449Y-46776735D01*
X64470449Y-46776735D02*
X64565687Y-46729116D01*
X64565687Y-46729116D02*
X64803782Y-46729116D01*
X64803782Y-46729116D02*
X64899020Y-46776735D01*
X64899020Y-46776735D02*
X64946640Y-46824354D01*
X64946640Y-46824354D02*
X64994259Y-46919592D01*
X64994259Y-46919592D02*
X64994259Y-47205306D01*
X64994259Y-47205306D02*
X64946640Y-47300544D01*
X64946640Y-47300544D02*
X64899020Y-47348163D01*
X81089497Y-47633878D02*
X81041878Y-47729116D01*
X81041878Y-47729116D02*
X80946640Y-47824354D01*
X80946640Y-47824354D02*
X80803782Y-47967211D01*
X80803782Y-47967211D02*
X80756163Y-48062449D01*
X80756163Y-48062449D02*
X80756163Y-48157687D01*
X80994259Y-48110068D02*
X80946640Y-48205306D01*
X80946640Y-48205306D02*
X80851401Y-48300544D01*
X80851401Y-48300544D02*
X80660925Y-48348163D01*
X80660925Y-48348163D02*
X80327592Y-48348163D01*
X80327592Y-48348163D02*
X80137116Y-48300544D01*
X80137116Y-48300544D02*
X80041878Y-48205306D01*
X80041878Y-48205306D02*
X79994259Y-48110068D01*
X79994259Y-48110068D02*
X79994259Y-47919592D01*
X79994259Y-47919592D02*
X80041878Y-47824354D01*
X80041878Y-47824354D02*
X80137116Y-47729116D01*
X80137116Y-47729116D02*
X80327592Y-47681497D01*
X80327592Y-47681497D02*
X80660925Y-47681497D01*
X80660925Y-47681497D02*
X80851401Y-47729116D01*
X80851401Y-47729116D02*
X80946640Y-47824354D01*
X80946640Y-47824354D02*
X80994259Y-47919592D01*
X80994259Y-47919592D02*
X80994259Y-48110068D01*
X80327592Y-46824354D02*
X80994259Y-46824354D01*
X79946640Y-47062449D02*
X80660925Y-47300544D01*
X80660925Y-47300544D02*
X80660925Y-46681497D01*
X97089497Y-47633878D02*
X97041878Y-47729116D01*
X97041878Y-47729116D02*
X96946640Y-47824354D01*
X96946640Y-47824354D02*
X96803782Y-47967211D01*
X96803782Y-47967211D02*
X96756163Y-48062449D01*
X96756163Y-48062449D02*
X96756163Y-48157687D01*
X96994259Y-48110068D02*
X96946640Y-48205306D01*
X96946640Y-48205306D02*
X96851401Y-48300544D01*
X96851401Y-48300544D02*
X96660925Y-48348163D01*
X96660925Y-48348163D02*
X96327592Y-48348163D01*
X96327592Y-48348163D02*
X96137116Y-48300544D01*
X96137116Y-48300544D02*
X96041878Y-48205306D01*
X96041878Y-48205306D02*
X95994259Y-48110068D01*
X95994259Y-48110068D02*
X95994259Y-47919592D01*
X95994259Y-47919592D02*
X96041878Y-47824354D01*
X96041878Y-47824354D02*
X96137116Y-47729116D01*
X96137116Y-47729116D02*
X96327592Y-47681497D01*
X96327592Y-47681497D02*
X96660925Y-47681497D01*
X96660925Y-47681497D02*
X96851401Y-47729116D01*
X96851401Y-47729116D02*
X96946640Y-47824354D01*
X96946640Y-47824354D02*
X96994259Y-47919592D01*
X96994259Y-47919592D02*
X96994259Y-48110068D01*
X95994259Y-46776735D02*
X95994259Y-47252925D01*
X95994259Y-47252925D02*
X96470449Y-47300544D01*
X96470449Y-47300544D02*
X96422830Y-47252925D01*
X96422830Y-47252925D02*
X96375211Y-47157687D01*
X96375211Y-47157687D02*
X96375211Y-46919592D01*
X96375211Y-46919592D02*
X96422830Y-46824354D01*
X96422830Y-46824354D02*
X96470449Y-46776735D01*
X96470449Y-46776735D02*
X96565687Y-46729116D01*
X96565687Y-46729116D02*
X96803782Y-46729116D01*
X96803782Y-46729116D02*
X96899020Y-46776735D01*
X96899020Y-46776735D02*
X96946640Y-46824354D01*
X96946640Y-46824354D02*
X96994259Y-46919592D01*
X96994259Y-46919592D02*
X96994259Y-47157687D01*
X96994259Y-47157687D02*
X96946640Y-47252925D01*
X96946640Y-47252925D02*
X96899020Y-47300544D01*
X49478099Y-54548066D02*
X49001908Y-54881399D01*
X49478099Y-55119494D02*
X48478099Y-55119494D01*
X48478099Y-55119494D02*
X48478099Y-54738542D01*
X48478099Y-54738542D02*
X48525718Y-54643304D01*
X48525718Y-54643304D02*
X48573337Y-54595685D01*
X48573337Y-54595685D02*
X48668575Y-54548066D01*
X48668575Y-54548066D02*
X48811432Y-54548066D01*
X48811432Y-54548066D02*
X48906670Y-54595685D01*
X48906670Y-54595685D02*
X48954289Y-54643304D01*
X48954289Y-54643304D02*
X49001908Y-54738542D01*
X49001908Y-54738542D02*
X49001908Y-55119494D01*
X48478099Y-53643304D02*
X48478099Y-54119494D01*
X48478099Y-54119494D02*
X48954289Y-54167113D01*
X48954289Y-54167113D02*
X48906670Y-54119494D01*
X48906670Y-54119494D02*
X48859051Y-54024256D01*
X48859051Y-54024256D02*
X48859051Y-53786161D01*
X48859051Y-53786161D02*
X48906670Y-53690923D01*
X48906670Y-53690923D02*
X48954289Y-53643304D01*
X48954289Y-53643304D02*
X49049527Y-53595685D01*
X49049527Y-53595685D02*
X49287622Y-53595685D01*
X49287622Y-53595685D02*
X49382860Y-53643304D01*
X49382860Y-53643304D02*
X49430480Y-53690923D01*
X49430480Y-53690923D02*
X49478099Y-53786161D01*
X49478099Y-53786161D02*
X49478099Y-54024256D01*
X49478099Y-54024256D02*
X49430480Y-54119494D01*
X49430480Y-54119494D02*
X49382860Y-54167113D01*
X97478099Y-55024257D02*
X97001908Y-55357590D01*
X97478099Y-55595685D02*
X96478099Y-55595685D01*
X96478099Y-55595685D02*
X96478099Y-55214733D01*
X96478099Y-55214733D02*
X96525718Y-55119495D01*
X96525718Y-55119495D02*
X96573337Y-55071876D01*
X96573337Y-55071876D02*
X96668575Y-55024257D01*
X96668575Y-55024257D02*
X96811432Y-55024257D01*
X96811432Y-55024257D02*
X96906670Y-55071876D01*
X96906670Y-55071876D02*
X96954289Y-55119495D01*
X96954289Y-55119495D02*
X97001908Y-55214733D01*
X97001908Y-55214733D02*
X97001908Y-55595685D01*
X97478099Y-54071876D02*
X97478099Y-54643304D01*
X97478099Y-54357590D02*
X96478099Y-54357590D01*
X96478099Y-54357590D02*
X96620956Y-54452828D01*
X96620956Y-54452828D02*
X96716194Y-54548066D01*
X96716194Y-54548066D02*
X96763813Y-54643304D01*
X96811432Y-53214733D02*
X97478099Y-53214733D01*
X96430480Y-53452828D02*
X97144765Y-53690923D01*
X97144765Y-53690923D02*
X97144765Y-53071876D01*
X99369262Y-54604339D02*
X99035929Y-54128148D01*
X98797834Y-54604339D02*
X98797834Y-53604339D01*
X98797834Y-53604339D02*
X99178786Y-53604339D01*
X99178786Y-53604339D02*
X99274024Y-53651958D01*
X99274024Y-53651958D02*
X99321643Y-53699577D01*
X99321643Y-53699577D02*
X99369262Y-53794815D01*
X99369262Y-53794815D02*
X99369262Y-53937672D01*
X99369262Y-53937672D02*
X99321643Y-54032910D01*
X99321643Y-54032910D02*
X99274024Y-54080529D01*
X99274024Y-54080529D02*
X99178786Y-54128148D01*
X99178786Y-54128148D02*
X98797834Y-54128148D01*
X100321643Y-54604339D02*
X99750215Y-54604339D01*
X100035929Y-54604339D02*
X100035929Y-53604339D01*
X100035929Y-53604339D02*
X99940691Y-53747196D01*
X99940691Y-53747196D02*
X99845453Y-53842434D01*
X99845453Y-53842434D02*
X99750215Y-53890053D01*
X100654977Y-53604339D02*
X101274024Y-53604339D01*
X101274024Y-53604339D02*
X100940691Y-53985291D01*
X100940691Y-53985291D02*
X101083548Y-53985291D01*
X101083548Y-53985291D02*
X101178786Y-54032910D01*
X101178786Y-54032910D02*
X101226405Y-54080529D01*
X101226405Y-54080529D02*
X101274024Y-54175767D01*
X101274024Y-54175767D02*
X101274024Y-54413862D01*
X101274024Y-54413862D02*
X101226405Y-54509100D01*
X101226405Y-54509100D02*
X101178786Y-54556720D01*
X101178786Y-54556720D02*
X101083548Y-54604339D01*
X101083548Y-54604339D02*
X100797834Y-54604339D01*
X100797834Y-54604339D02*
X100702596Y-54556720D01*
X100702596Y-54556720D02*
X100654977Y-54509100D01*
X80971502Y-63423219D02*
X80638169Y-62947028D01*
X80400074Y-63423219D02*
X80400074Y-62423219D01*
X80400074Y-62423219D02*
X80781026Y-62423219D01*
X80781026Y-62423219D02*
X80876264Y-62470838D01*
X80876264Y-62470838D02*
X80923883Y-62518457D01*
X80923883Y-62518457D02*
X80971502Y-62613695D01*
X80971502Y-62613695D02*
X80971502Y-62756552D01*
X80971502Y-62756552D02*
X80923883Y-62851790D01*
X80923883Y-62851790D02*
X80876264Y-62899409D01*
X80876264Y-62899409D02*
X80781026Y-62947028D01*
X80781026Y-62947028D02*
X80400074Y-62947028D01*
X81923883Y-63423219D02*
X81352455Y-63423219D01*
X81638169Y-63423219D02*
X81638169Y-62423219D01*
X81638169Y-62423219D02*
X81542931Y-62566076D01*
X81542931Y-62566076D02*
X81447693Y-62661314D01*
X81447693Y-62661314D02*
X81352455Y-62708933D01*
X82304836Y-62518457D02*
X82352455Y-62470838D01*
X82352455Y-62470838D02*
X82447693Y-62423219D01*
X82447693Y-62423219D02*
X82685788Y-62423219D01*
X82685788Y-62423219D02*
X82781026Y-62470838D01*
X82781026Y-62470838D02*
X82828645Y-62518457D01*
X82828645Y-62518457D02*
X82876264Y-62613695D01*
X82876264Y-62613695D02*
X82876264Y-62708933D01*
X82876264Y-62708933D02*
X82828645Y-62851790D01*
X82828645Y-62851790D02*
X82257217Y-63423219D01*
X82257217Y-63423219D02*
X82876264Y-63423219D01*
X81478099Y-55024257D02*
X81001908Y-55357590D01*
X81478099Y-55595685D02*
X80478099Y-55595685D01*
X80478099Y-55595685D02*
X80478099Y-55214733D01*
X80478099Y-55214733D02*
X80525718Y-55119495D01*
X80525718Y-55119495D02*
X80573337Y-55071876D01*
X80573337Y-55071876D02*
X80668575Y-55024257D01*
X80668575Y-55024257D02*
X80811432Y-55024257D01*
X80811432Y-55024257D02*
X80906670Y-55071876D01*
X80906670Y-55071876D02*
X80954289Y-55119495D01*
X80954289Y-55119495D02*
X81001908Y-55214733D01*
X81001908Y-55214733D02*
X81001908Y-55595685D01*
X81478099Y-54071876D02*
X81478099Y-54643304D01*
X81478099Y-54357590D02*
X80478099Y-54357590D01*
X80478099Y-54357590D02*
X80620956Y-54452828D01*
X80620956Y-54452828D02*
X80716194Y-54548066D01*
X80716194Y-54548066D02*
X80763813Y-54643304D01*
X81478099Y-53119495D02*
X81478099Y-53690923D01*
X81478099Y-53405209D02*
X80478099Y-53405209D01*
X80478099Y-53405209D02*
X80620956Y-53500447D01*
X80620956Y-53500447D02*
X80716194Y-53595685D01*
X80716194Y-53595685D02*
X80763813Y-53690923D01*
X83369262Y-54604339D02*
X83035929Y-54128148D01*
X82797834Y-54604339D02*
X82797834Y-53604339D01*
X82797834Y-53604339D02*
X83178786Y-53604339D01*
X83178786Y-53604339D02*
X83274024Y-53651958D01*
X83274024Y-53651958D02*
X83321643Y-53699577D01*
X83321643Y-53699577D02*
X83369262Y-53794815D01*
X83369262Y-53794815D02*
X83369262Y-53937672D01*
X83369262Y-53937672D02*
X83321643Y-54032910D01*
X83321643Y-54032910D02*
X83274024Y-54080529D01*
X83274024Y-54080529D02*
X83178786Y-54128148D01*
X83178786Y-54128148D02*
X82797834Y-54128148D01*
X84321643Y-54604339D02*
X83750215Y-54604339D01*
X84035929Y-54604339D02*
X84035929Y-53604339D01*
X84035929Y-53604339D02*
X83940691Y-53747196D01*
X83940691Y-53747196D02*
X83845453Y-53842434D01*
X83845453Y-53842434D02*
X83750215Y-53890053D01*
X84940691Y-53604339D02*
X85035929Y-53604339D01*
X85035929Y-53604339D02*
X85131167Y-53651958D01*
X85131167Y-53651958D02*
X85178786Y-53699577D01*
X85178786Y-53699577D02*
X85226405Y-53794815D01*
X85226405Y-53794815D02*
X85274024Y-53985291D01*
X85274024Y-53985291D02*
X85274024Y-54223386D01*
X85274024Y-54223386D02*
X85226405Y-54413862D01*
X85226405Y-54413862D02*
X85178786Y-54509100D01*
X85178786Y-54509100D02*
X85131167Y-54556720D01*
X85131167Y-54556720D02*
X85035929Y-54604339D01*
X85035929Y-54604339D02*
X84940691Y-54604339D01*
X84940691Y-54604339D02*
X84845453Y-54556720D01*
X84845453Y-54556720D02*
X84797834Y-54509100D01*
X84797834Y-54509100D02*
X84750215Y-54413862D01*
X84750215Y-54413862D02*
X84702596Y-54223386D01*
X84702596Y-54223386D02*
X84702596Y-53985291D01*
X84702596Y-53985291D02*
X84750215Y-53794815D01*
X84750215Y-53794815D02*
X84797834Y-53699577D01*
X84797834Y-53699577D02*
X84845453Y-53651958D01*
X84845453Y-53651958D02*
X84940691Y-53604339D01*
X65447693Y-63423219D02*
X65114360Y-62947028D01*
X64876265Y-63423219D02*
X64876265Y-62423219D01*
X64876265Y-62423219D02*
X65257217Y-62423219D01*
X65257217Y-62423219D02*
X65352455Y-62470838D01*
X65352455Y-62470838D02*
X65400074Y-62518457D01*
X65400074Y-62518457D02*
X65447693Y-62613695D01*
X65447693Y-62613695D02*
X65447693Y-62756552D01*
X65447693Y-62756552D02*
X65400074Y-62851790D01*
X65400074Y-62851790D02*
X65352455Y-62899409D01*
X65352455Y-62899409D02*
X65257217Y-62947028D01*
X65257217Y-62947028D02*
X64876265Y-62947028D01*
X65923884Y-63423219D02*
X66114360Y-63423219D01*
X66114360Y-63423219D02*
X66209598Y-63375600D01*
X66209598Y-63375600D02*
X66257217Y-63327980D01*
X66257217Y-63327980D02*
X66352455Y-63185123D01*
X66352455Y-63185123D02*
X66400074Y-62994647D01*
X66400074Y-62994647D02*
X66400074Y-62613695D01*
X66400074Y-62613695D02*
X66352455Y-62518457D01*
X66352455Y-62518457D02*
X66304836Y-62470838D01*
X66304836Y-62470838D02*
X66209598Y-62423219D01*
X66209598Y-62423219D02*
X66019122Y-62423219D01*
X66019122Y-62423219D02*
X65923884Y-62470838D01*
X65923884Y-62470838D02*
X65876265Y-62518457D01*
X65876265Y-62518457D02*
X65828646Y-62613695D01*
X65828646Y-62613695D02*
X65828646Y-62851790D01*
X65828646Y-62851790D02*
X65876265Y-62947028D01*
X65876265Y-62947028D02*
X65923884Y-62994647D01*
X65923884Y-62994647D02*
X66019122Y-63042266D01*
X66019122Y-63042266D02*
X66209598Y-63042266D01*
X66209598Y-63042266D02*
X66304836Y-62994647D01*
X66304836Y-62994647D02*
X66352455Y-62947028D01*
X66352455Y-62947028D02*
X66400074Y-62851790D01*
X65478099Y-54548066D02*
X65001908Y-54881399D01*
X65478099Y-55119494D02*
X64478099Y-55119494D01*
X64478099Y-55119494D02*
X64478099Y-54738542D01*
X64478099Y-54738542D02*
X64525718Y-54643304D01*
X64525718Y-54643304D02*
X64573337Y-54595685D01*
X64573337Y-54595685D02*
X64668575Y-54548066D01*
X64668575Y-54548066D02*
X64811432Y-54548066D01*
X64811432Y-54548066D02*
X64906670Y-54595685D01*
X64906670Y-54595685D02*
X64954289Y-54643304D01*
X64954289Y-54643304D02*
X65001908Y-54738542D01*
X65001908Y-54738542D02*
X65001908Y-55119494D01*
X64906670Y-53976637D02*
X64859051Y-54071875D01*
X64859051Y-54071875D02*
X64811432Y-54119494D01*
X64811432Y-54119494D02*
X64716194Y-54167113D01*
X64716194Y-54167113D02*
X64668575Y-54167113D01*
X64668575Y-54167113D02*
X64573337Y-54119494D01*
X64573337Y-54119494D02*
X64525718Y-54071875D01*
X64525718Y-54071875D02*
X64478099Y-53976637D01*
X64478099Y-53976637D02*
X64478099Y-53786161D01*
X64478099Y-53786161D02*
X64525718Y-53690923D01*
X64525718Y-53690923D02*
X64573337Y-53643304D01*
X64573337Y-53643304D02*
X64668575Y-53595685D01*
X64668575Y-53595685D02*
X64716194Y-53595685D01*
X64716194Y-53595685D02*
X64811432Y-53643304D01*
X64811432Y-53643304D02*
X64859051Y-53690923D01*
X64859051Y-53690923D02*
X64906670Y-53786161D01*
X64906670Y-53786161D02*
X64906670Y-53976637D01*
X64906670Y-53976637D02*
X64954289Y-54071875D01*
X64954289Y-54071875D02*
X65001908Y-54119494D01*
X65001908Y-54119494D02*
X65097146Y-54167113D01*
X65097146Y-54167113D02*
X65287622Y-54167113D01*
X65287622Y-54167113D02*
X65382860Y-54119494D01*
X65382860Y-54119494D02*
X65430480Y-54071875D01*
X65430480Y-54071875D02*
X65478099Y-53976637D01*
X65478099Y-53976637D02*
X65478099Y-53786161D01*
X65478099Y-53786161D02*
X65430480Y-53690923D01*
X65430480Y-53690923D02*
X65382860Y-53643304D01*
X65382860Y-53643304D02*
X65287622Y-53595685D01*
X65287622Y-53595685D02*
X65097146Y-53595685D01*
X65097146Y-53595685D02*
X65001908Y-53643304D01*
X65001908Y-53643304D02*
X64954289Y-53690923D01*
X64954289Y-53690923D02*
X64906670Y-53786161D01*
X67845453Y-54604339D02*
X67512120Y-54128148D01*
X67274025Y-54604339D02*
X67274025Y-53604339D01*
X67274025Y-53604339D02*
X67654977Y-53604339D01*
X67654977Y-53604339D02*
X67750215Y-53651958D01*
X67750215Y-53651958D02*
X67797834Y-53699577D01*
X67797834Y-53699577D02*
X67845453Y-53794815D01*
X67845453Y-53794815D02*
X67845453Y-53937672D01*
X67845453Y-53937672D02*
X67797834Y-54032910D01*
X67797834Y-54032910D02*
X67750215Y-54080529D01*
X67750215Y-54080529D02*
X67654977Y-54128148D01*
X67654977Y-54128148D02*
X67274025Y-54128148D01*
X68178787Y-53604339D02*
X68845453Y-53604339D01*
X68845453Y-53604339D02*
X68416882Y-54604339D01*
X49447693Y-63423219D02*
X49114360Y-62947028D01*
X48876265Y-63423219D02*
X48876265Y-62423219D01*
X48876265Y-62423219D02*
X49257217Y-62423219D01*
X49257217Y-62423219D02*
X49352455Y-62470838D01*
X49352455Y-62470838D02*
X49400074Y-62518457D01*
X49400074Y-62518457D02*
X49447693Y-62613695D01*
X49447693Y-62613695D02*
X49447693Y-62756552D01*
X49447693Y-62756552D02*
X49400074Y-62851790D01*
X49400074Y-62851790D02*
X49352455Y-62899409D01*
X49352455Y-62899409D02*
X49257217Y-62947028D01*
X49257217Y-62947028D02*
X48876265Y-62947028D01*
X50304836Y-62423219D02*
X50114360Y-62423219D01*
X50114360Y-62423219D02*
X50019122Y-62470838D01*
X50019122Y-62470838D02*
X49971503Y-62518457D01*
X49971503Y-62518457D02*
X49876265Y-62661314D01*
X49876265Y-62661314D02*
X49828646Y-62851790D01*
X49828646Y-62851790D02*
X49828646Y-63232742D01*
X49828646Y-63232742D02*
X49876265Y-63327980D01*
X49876265Y-63327980D02*
X49923884Y-63375600D01*
X49923884Y-63375600D02*
X50019122Y-63423219D01*
X50019122Y-63423219D02*
X50209598Y-63423219D01*
X50209598Y-63423219D02*
X50304836Y-63375600D01*
X50304836Y-63375600D02*
X50352455Y-63327980D01*
X50352455Y-63327980D02*
X50400074Y-63232742D01*
X50400074Y-63232742D02*
X50400074Y-62994647D01*
X50400074Y-62994647D02*
X50352455Y-62899409D01*
X50352455Y-62899409D02*
X50304836Y-62851790D01*
X50304836Y-62851790D02*
X50209598Y-62804171D01*
X50209598Y-62804171D02*
X50019122Y-62804171D01*
X50019122Y-62804171D02*
X49923884Y-62851790D01*
X49923884Y-62851790D02*
X49876265Y-62899409D01*
X49876265Y-62899409D02*
X49828646Y-62994647D01*
X51845453Y-54604339D02*
X51512120Y-54128148D01*
X51274025Y-54604339D02*
X51274025Y-53604339D01*
X51274025Y-53604339D02*
X51654977Y-53604339D01*
X51654977Y-53604339D02*
X51750215Y-53651958D01*
X51750215Y-53651958D02*
X51797834Y-53699577D01*
X51797834Y-53699577D02*
X51845453Y-53794815D01*
X51845453Y-53794815D02*
X51845453Y-53937672D01*
X51845453Y-53937672D02*
X51797834Y-54032910D01*
X51797834Y-54032910D02*
X51750215Y-54080529D01*
X51750215Y-54080529D02*
X51654977Y-54128148D01*
X51654977Y-54128148D02*
X51274025Y-54128148D01*
X52702596Y-53937672D02*
X52702596Y-54604339D01*
X52464501Y-53556720D02*
X52226406Y-54271005D01*
X52226406Y-54271005D02*
X52845453Y-54271005D01*
X33447693Y-63423219D02*
X33114360Y-62947028D01*
X32876265Y-63423219D02*
X32876265Y-62423219D01*
X32876265Y-62423219D02*
X33257217Y-62423219D01*
X33257217Y-62423219D02*
X33352455Y-62470838D01*
X33352455Y-62470838D02*
X33400074Y-62518457D01*
X33400074Y-62518457D02*
X33447693Y-62613695D01*
X33447693Y-62613695D02*
X33447693Y-62756552D01*
X33447693Y-62756552D02*
X33400074Y-62851790D01*
X33400074Y-62851790D02*
X33352455Y-62899409D01*
X33352455Y-62899409D02*
X33257217Y-62947028D01*
X33257217Y-62947028D02*
X32876265Y-62947028D01*
X33781027Y-62423219D02*
X34400074Y-62423219D01*
X34400074Y-62423219D02*
X34066741Y-62804171D01*
X34066741Y-62804171D02*
X34209598Y-62804171D01*
X34209598Y-62804171D02*
X34304836Y-62851790D01*
X34304836Y-62851790D02*
X34352455Y-62899409D01*
X34352455Y-62899409D02*
X34400074Y-62994647D01*
X34400074Y-62994647D02*
X34400074Y-63232742D01*
X34400074Y-63232742D02*
X34352455Y-63327980D01*
X34352455Y-63327980D02*
X34304836Y-63375600D01*
X34304836Y-63375600D02*
X34209598Y-63423219D01*
X34209598Y-63423219D02*
X33923884Y-63423219D01*
X33923884Y-63423219D02*
X33828646Y-63375600D01*
X33828646Y-63375600D02*
X33781027Y-63327980D01*
X33478099Y-54548066D02*
X33001908Y-54881399D01*
X33478099Y-55119494D02*
X32478099Y-55119494D01*
X32478099Y-55119494D02*
X32478099Y-54738542D01*
X32478099Y-54738542D02*
X32525718Y-54643304D01*
X32525718Y-54643304D02*
X32573337Y-54595685D01*
X32573337Y-54595685D02*
X32668575Y-54548066D01*
X32668575Y-54548066D02*
X32811432Y-54548066D01*
X32811432Y-54548066D02*
X32906670Y-54595685D01*
X32906670Y-54595685D02*
X32954289Y-54643304D01*
X32954289Y-54643304D02*
X33001908Y-54738542D01*
X33001908Y-54738542D02*
X33001908Y-55119494D01*
X32573337Y-54167113D02*
X32525718Y-54119494D01*
X32525718Y-54119494D02*
X32478099Y-54024256D01*
X32478099Y-54024256D02*
X32478099Y-53786161D01*
X32478099Y-53786161D02*
X32525718Y-53690923D01*
X32525718Y-53690923D02*
X32573337Y-53643304D01*
X32573337Y-53643304D02*
X32668575Y-53595685D01*
X32668575Y-53595685D02*
X32763813Y-53595685D01*
X32763813Y-53595685D02*
X32906670Y-53643304D01*
X32906670Y-53643304D02*
X33478099Y-54214732D01*
X33478099Y-54214732D02*
X33478099Y-53595685D01*
X35845453Y-54604339D02*
X35512120Y-54128148D01*
X35274025Y-54604339D02*
X35274025Y-53604339D01*
X35274025Y-53604339D02*
X35654977Y-53604339D01*
X35654977Y-53604339D02*
X35750215Y-53651958D01*
X35750215Y-53651958D02*
X35797834Y-53699577D01*
X35797834Y-53699577D02*
X35845453Y-53794815D01*
X35845453Y-53794815D02*
X35845453Y-53937672D01*
X35845453Y-53937672D02*
X35797834Y-54032910D01*
X35797834Y-54032910D02*
X35750215Y-54080529D01*
X35750215Y-54080529D02*
X35654977Y-54128148D01*
X35654977Y-54128148D02*
X35274025Y-54128148D01*
X36797834Y-54604339D02*
X36226406Y-54604339D01*
X36512120Y-54604339D02*
X36512120Y-53604339D01*
X36512120Y-53604339D02*
X36416882Y-53747196D01*
X36416882Y-53747196D02*
X36321644Y-53842434D01*
X36321644Y-53842434D02*
X36226406Y-53890053D01*
X96971502Y-63423219D02*
X96638169Y-62947028D01*
X96400074Y-63423219D02*
X96400074Y-62423219D01*
X96400074Y-62423219D02*
X96781026Y-62423219D01*
X96781026Y-62423219D02*
X96876264Y-62470838D01*
X96876264Y-62470838D02*
X96923883Y-62518457D01*
X96923883Y-62518457D02*
X96971502Y-62613695D01*
X96971502Y-62613695D02*
X96971502Y-62756552D01*
X96971502Y-62756552D02*
X96923883Y-62851790D01*
X96923883Y-62851790D02*
X96876264Y-62899409D01*
X96876264Y-62899409D02*
X96781026Y-62947028D01*
X96781026Y-62947028D02*
X96400074Y-62947028D01*
X97923883Y-63423219D02*
X97352455Y-63423219D01*
X97638169Y-63423219D02*
X97638169Y-62423219D01*
X97638169Y-62423219D02*
X97542931Y-62566076D01*
X97542931Y-62566076D02*
X97447693Y-62661314D01*
X97447693Y-62661314D02*
X97352455Y-62708933D01*
X98828645Y-62423219D02*
X98352455Y-62423219D01*
X98352455Y-62423219D02*
X98304836Y-62899409D01*
X98304836Y-62899409D02*
X98352455Y-62851790D01*
X98352455Y-62851790D02*
X98447693Y-62804171D01*
X98447693Y-62804171D02*
X98685788Y-62804171D01*
X98685788Y-62804171D02*
X98781026Y-62851790D01*
X98781026Y-62851790D02*
X98828645Y-62899409D01*
X98828645Y-62899409D02*
X98876264Y-62994647D01*
X98876264Y-62994647D02*
X98876264Y-63232742D01*
X98876264Y-63232742D02*
X98828645Y-63327980D01*
X98828645Y-63327980D02*
X98781026Y-63375600D01*
X98781026Y-63375600D02*
X98685788Y-63423219D01*
X98685788Y-63423219D02*
X98447693Y-63423219D01*
X98447693Y-63423219D02*
X98352455Y-63375600D01*
X98352455Y-63375600D02*
X98304836Y-63327980D01*
X28162939Y-66757774D02*
X27162939Y-66757774D01*
X27162939Y-66757774D02*
X27162939Y-66519679D01*
X27162939Y-66519679D02*
X27210558Y-66376822D01*
X27210558Y-66376822D02*
X27305796Y-66281584D01*
X27305796Y-66281584D02*
X27401034Y-66233965D01*
X27401034Y-66233965D02*
X27591510Y-66186346D01*
X27591510Y-66186346D02*
X27734367Y-66186346D01*
X27734367Y-66186346D02*
X27924843Y-66233965D01*
X27924843Y-66233965D02*
X28020081Y-66281584D01*
X28020081Y-66281584D02*
X28115320Y-66376822D01*
X28115320Y-66376822D02*
X28162939Y-66519679D01*
X28162939Y-66519679D02*
X28162939Y-66757774D01*
X27258177Y-65805393D02*
X27210558Y-65757774D01*
X27210558Y-65757774D02*
X27162939Y-65662536D01*
X27162939Y-65662536D02*
X27162939Y-65424441D01*
X27162939Y-65424441D02*
X27210558Y-65329203D01*
X27210558Y-65329203D02*
X27258177Y-65281584D01*
X27258177Y-65281584D02*
X27353415Y-65233965D01*
X27353415Y-65233965D02*
X27448653Y-65233965D01*
X27448653Y-65233965D02*
X27591510Y-65281584D01*
X27591510Y-65281584D02*
X28162939Y-65853012D01*
X28162939Y-65853012D02*
X28162939Y-65233965D01*
X92162939Y-67233965D02*
X91162939Y-67233965D01*
X91162939Y-67233965D02*
X91162939Y-66995870D01*
X91162939Y-66995870D02*
X91210558Y-66853013D01*
X91210558Y-66853013D02*
X91305796Y-66757775D01*
X91305796Y-66757775D02*
X91401034Y-66710156D01*
X91401034Y-66710156D02*
X91591510Y-66662537D01*
X91591510Y-66662537D02*
X91734367Y-66662537D01*
X91734367Y-66662537D02*
X91924843Y-66710156D01*
X91924843Y-66710156D02*
X92020081Y-66757775D01*
X92020081Y-66757775D02*
X92115320Y-66853013D01*
X92115320Y-66853013D02*
X92162939Y-66995870D01*
X92162939Y-66995870D02*
X92162939Y-67233965D01*
X92162939Y-65710156D02*
X92162939Y-66281584D01*
X92162939Y-65995870D02*
X91162939Y-65995870D01*
X91162939Y-65995870D02*
X91305796Y-66091108D01*
X91305796Y-66091108D02*
X91401034Y-66186346D01*
X91401034Y-66186346D02*
X91448653Y-66281584D01*
X91496272Y-64853013D02*
X92162939Y-64853013D01*
X91115320Y-65091108D02*
X91829605Y-65329203D01*
X91829605Y-65329203D02*
X91829605Y-64710156D01*
X76162939Y-67233965D02*
X75162939Y-67233965D01*
X75162939Y-67233965D02*
X75162939Y-66995870D01*
X75162939Y-66995870D02*
X75210558Y-66853013D01*
X75210558Y-66853013D02*
X75305796Y-66757775D01*
X75305796Y-66757775D02*
X75401034Y-66710156D01*
X75401034Y-66710156D02*
X75591510Y-66662537D01*
X75591510Y-66662537D02*
X75734367Y-66662537D01*
X75734367Y-66662537D02*
X75924843Y-66710156D01*
X75924843Y-66710156D02*
X76020081Y-66757775D01*
X76020081Y-66757775D02*
X76115320Y-66853013D01*
X76115320Y-66853013D02*
X76162939Y-66995870D01*
X76162939Y-66995870D02*
X76162939Y-67233965D01*
X76162939Y-65710156D02*
X76162939Y-66281584D01*
X76162939Y-65995870D02*
X75162939Y-65995870D01*
X75162939Y-65995870D02*
X75305796Y-66091108D01*
X75305796Y-66091108D02*
X75401034Y-66186346D01*
X75401034Y-66186346D02*
X75448653Y-66281584D01*
X76162939Y-64757775D02*
X76162939Y-65329203D01*
X76162939Y-65043489D02*
X75162939Y-65043489D01*
X75162939Y-65043489D02*
X75305796Y-65138727D01*
X75305796Y-65138727D02*
X75401034Y-65233965D01*
X75401034Y-65233965D02*
X75448653Y-65329203D01*
X44162939Y-66757774D02*
X43162939Y-66757774D01*
X43162939Y-66757774D02*
X43162939Y-66519679D01*
X43162939Y-66519679D02*
X43210558Y-66376822D01*
X43210558Y-66376822D02*
X43305796Y-66281584D01*
X43305796Y-66281584D02*
X43401034Y-66233965D01*
X43401034Y-66233965D02*
X43591510Y-66186346D01*
X43591510Y-66186346D02*
X43734367Y-66186346D01*
X43734367Y-66186346D02*
X43924843Y-66233965D01*
X43924843Y-66233965D02*
X44020081Y-66281584D01*
X44020081Y-66281584D02*
X44115320Y-66376822D01*
X44115320Y-66376822D02*
X44162939Y-66519679D01*
X44162939Y-66519679D02*
X44162939Y-66757774D01*
X43162939Y-65281584D02*
X43162939Y-65757774D01*
X43162939Y-65757774D02*
X43639129Y-65805393D01*
X43639129Y-65805393D02*
X43591510Y-65757774D01*
X43591510Y-65757774D02*
X43543891Y-65662536D01*
X43543891Y-65662536D02*
X43543891Y-65424441D01*
X43543891Y-65424441D02*
X43591510Y-65329203D01*
X43591510Y-65329203D02*
X43639129Y-65281584D01*
X43639129Y-65281584D02*
X43734367Y-65233965D01*
X43734367Y-65233965D02*
X43972462Y-65233965D01*
X43972462Y-65233965D02*
X44067700Y-65281584D01*
X44067700Y-65281584D02*
X44115320Y-65329203D01*
X44115320Y-65329203D02*
X44162939Y-65424441D01*
X44162939Y-65424441D02*
X44162939Y-65662536D01*
X44162939Y-65662536D02*
X44115320Y-65757774D01*
X44115320Y-65757774D02*
X44067700Y-65805393D01*
X60162939Y-66757774D02*
X59162939Y-66757774D01*
X59162939Y-66757774D02*
X59162939Y-66519679D01*
X59162939Y-66519679D02*
X59210558Y-66376822D01*
X59210558Y-66376822D02*
X59305796Y-66281584D01*
X59305796Y-66281584D02*
X59401034Y-66233965D01*
X59401034Y-66233965D02*
X59591510Y-66186346D01*
X59591510Y-66186346D02*
X59734367Y-66186346D01*
X59734367Y-66186346D02*
X59924843Y-66233965D01*
X59924843Y-66233965D02*
X60020081Y-66281584D01*
X60020081Y-66281584D02*
X60115320Y-66376822D01*
X60115320Y-66376822D02*
X60162939Y-66519679D01*
X60162939Y-66519679D02*
X60162939Y-66757774D01*
X59591510Y-65614917D02*
X59543891Y-65710155D01*
X59543891Y-65710155D02*
X59496272Y-65757774D01*
X59496272Y-65757774D02*
X59401034Y-65805393D01*
X59401034Y-65805393D02*
X59353415Y-65805393D01*
X59353415Y-65805393D02*
X59258177Y-65757774D01*
X59258177Y-65757774D02*
X59210558Y-65710155D01*
X59210558Y-65710155D02*
X59162939Y-65614917D01*
X59162939Y-65614917D02*
X59162939Y-65424441D01*
X59162939Y-65424441D02*
X59210558Y-65329203D01*
X59210558Y-65329203D02*
X59258177Y-65281584D01*
X59258177Y-65281584D02*
X59353415Y-65233965D01*
X59353415Y-65233965D02*
X59401034Y-65233965D01*
X59401034Y-65233965D02*
X59496272Y-65281584D01*
X59496272Y-65281584D02*
X59543891Y-65329203D01*
X59543891Y-65329203D02*
X59591510Y-65424441D01*
X59591510Y-65424441D02*
X59591510Y-65614917D01*
X59591510Y-65614917D02*
X59639129Y-65710155D01*
X59639129Y-65710155D02*
X59686748Y-65757774D01*
X59686748Y-65757774D02*
X59781986Y-65805393D01*
X59781986Y-65805393D02*
X59972462Y-65805393D01*
X59972462Y-65805393D02*
X60067700Y-65757774D01*
X60067700Y-65757774D02*
X60115320Y-65710155D01*
X60115320Y-65710155D02*
X60162939Y-65614917D01*
X60162939Y-65614917D02*
X60162939Y-65424441D01*
X60162939Y-65424441D02*
X60115320Y-65329203D01*
X60115320Y-65329203D02*
X60067700Y-65281584D01*
X60067700Y-65281584D02*
X59972462Y-65233965D01*
X59972462Y-65233965D02*
X59781986Y-65233965D01*
X59781986Y-65233965D02*
X59686748Y-65281584D01*
X59686748Y-65281584D02*
X59639129Y-65329203D01*
X59639129Y-65329203D02*
X59591510Y-65424441D01*
X79333274Y-58221264D02*
X79333274Y-57221264D01*
X79333274Y-57221264D02*
X79571369Y-57221264D01*
X79571369Y-57221264D02*
X79714226Y-57268883D01*
X79714226Y-57268883D02*
X79809464Y-57364121D01*
X79809464Y-57364121D02*
X79857083Y-57459359D01*
X79857083Y-57459359D02*
X79904702Y-57649835D01*
X79904702Y-57649835D02*
X79904702Y-57792692D01*
X79904702Y-57792692D02*
X79857083Y-57983168D01*
X79857083Y-57983168D02*
X79809464Y-58078406D01*
X79809464Y-58078406D02*
X79714226Y-58173645D01*
X79714226Y-58173645D02*
X79571369Y-58221264D01*
X79571369Y-58221264D02*
X79333274Y-58221264D01*
X80857083Y-58221264D02*
X80285655Y-58221264D01*
X80571369Y-58221264D02*
X80571369Y-57221264D01*
X80571369Y-57221264D02*
X80476131Y-57364121D01*
X80476131Y-57364121D02*
X80380893Y-57459359D01*
X80380893Y-57459359D02*
X80285655Y-57506978D01*
X81238036Y-57316502D02*
X81285655Y-57268883D01*
X81285655Y-57268883D02*
X81380893Y-57221264D01*
X81380893Y-57221264D02*
X81618988Y-57221264D01*
X81618988Y-57221264D02*
X81714226Y-57268883D01*
X81714226Y-57268883D02*
X81761845Y-57316502D01*
X81761845Y-57316502D02*
X81809464Y-57411740D01*
X81809464Y-57411740D02*
X81809464Y-57506978D01*
X81809464Y-57506978D02*
X81761845Y-57649835D01*
X81761845Y-57649835D02*
X81190417Y-58221264D01*
X81190417Y-58221264D02*
X81809464Y-58221264D01*
X63809465Y-58221264D02*
X63809465Y-57221264D01*
X63809465Y-57221264D02*
X64047560Y-57221264D01*
X64047560Y-57221264D02*
X64190417Y-57268883D01*
X64190417Y-57268883D02*
X64285655Y-57364121D01*
X64285655Y-57364121D02*
X64333274Y-57459359D01*
X64333274Y-57459359D02*
X64380893Y-57649835D01*
X64380893Y-57649835D02*
X64380893Y-57792692D01*
X64380893Y-57792692D02*
X64333274Y-57983168D01*
X64333274Y-57983168D02*
X64285655Y-58078406D01*
X64285655Y-58078406D02*
X64190417Y-58173645D01*
X64190417Y-58173645D02*
X64047560Y-58221264D01*
X64047560Y-58221264D02*
X63809465Y-58221264D01*
X64857084Y-58221264D02*
X65047560Y-58221264D01*
X65047560Y-58221264D02*
X65142798Y-58173645D01*
X65142798Y-58173645D02*
X65190417Y-58126025D01*
X65190417Y-58126025D02*
X65285655Y-57983168D01*
X65285655Y-57983168D02*
X65333274Y-57792692D01*
X65333274Y-57792692D02*
X65333274Y-57411740D01*
X65333274Y-57411740D02*
X65285655Y-57316502D01*
X65285655Y-57316502D02*
X65238036Y-57268883D01*
X65238036Y-57268883D02*
X65142798Y-57221264D01*
X65142798Y-57221264D02*
X64952322Y-57221264D01*
X64952322Y-57221264D02*
X64857084Y-57268883D01*
X64857084Y-57268883D02*
X64809465Y-57316502D01*
X64809465Y-57316502D02*
X64761846Y-57411740D01*
X64761846Y-57411740D02*
X64761846Y-57649835D01*
X64761846Y-57649835D02*
X64809465Y-57745073D01*
X64809465Y-57745073D02*
X64857084Y-57792692D01*
X64857084Y-57792692D02*
X64952322Y-57840311D01*
X64952322Y-57840311D02*
X65142798Y-57840311D01*
X65142798Y-57840311D02*
X65238036Y-57792692D01*
X65238036Y-57792692D02*
X65285655Y-57745073D01*
X65285655Y-57745073D02*
X65333274Y-57649835D01*
X47809465Y-58221264D02*
X47809465Y-57221264D01*
X47809465Y-57221264D02*
X48047560Y-57221264D01*
X48047560Y-57221264D02*
X48190417Y-57268883D01*
X48190417Y-57268883D02*
X48285655Y-57364121D01*
X48285655Y-57364121D02*
X48333274Y-57459359D01*
X48333274Y-57459359D02*
X48380893Y-57649835D01*
X48380893Y-57649835D02*
X48380893Y-57792692D01*
X48380893Y-57792692D02*
X48333274Y-57983168D01*
X48333274Y-57983168D02*
X48285655Y-58078406D01*
X48285655Y-58078406D02*
X48190417Y-58173645D01*
X48190417Y-58173645D02*
X48047560Y-58221264D01*
X48047560Y-58221264D02*
X47809465Y-58221264D01*
X49238036Y-57221264D02*
X49047560Y-57221264D01*
X49047560Y-57221264D02*
X48952322Y-57268883D01*
X48952322Y-57268883D02*
X48904703Y-57316502D01*
X48904703Y-57316502D02*
X48809465Y-57459359D01*
X48809465Y-57459359D02*
X48761846Y-57649835D01*
X48761846Y-57649835D02*
X48761846Y-58030787D01*
X48761846Y-58030787D02*
X48809465Y-58126025D01*
X48809465Y-58126025D02*
X48857084Y-58173645D01*
X48857084Y-58173645D02*
X48952322Y-58221264D01*
X48952322Y-58221264D02*
X49142798Y-58221264D01*
X49142798Y-58221264D02*
X49238036Y-58173645D01*
X49238036Y-58173645D02*
X49285655Y-58126025D01*
X49285655Y-58126025D02*
X49333274Y-58030787D01*
X49333274Y-58030787D02*
X49333274Y-57792692D01*
X49333274Y-57792692D02*
X49285655Y-57697454D01*
X49285655Y-57697454D02*
X49238036Y-57649835D01*
X49238036Y-57649835D02*
X49142798Y-57602216D01*
X49142798Y-57602216D02*
X48952322Y-57602216D01*
X48952322Y-57602216D02*
X48857084Y-57649835D01*
X48857084Y-57649835D02*
X48809465Y-57697454D01*
X48809465Y-57697454D02*
X48761846Y-57792692D01*
X31809465Y-58221264D02*
X31809465Y-57221264D01*
X31809465Y-57221264D02*
X32047560Y-57221264D01*
X32047560Y-57221264D02*
X32190417Y-57268883D01*
X32190417Y-57268883D02*
X32285655Y-57364121D01*
X32285655Y-57364121D02*
X32333274Y-57459359D01*
X32333274Y-57459359D02*
X32380893Y-57649835D01*
X32380893Y-57649835D02*
X32380893Y-57792692D01*
X32380893Y-57792692D02*
X32333274Y-57983168D01*
X32333274Y-57983168D02*
X32285655Y-58078406D01*
X32285655Y-58078406D02*
X32190417Y-58173645D01*
X32190417Y-58173645D02*
X32047560Y-58221264D01*
X32047560Y-58221264D02*
X31809465Y-58221264D01*
X32714227Y-57221264D02*
X33333274Y-57221264D01*
X33333274Y-57221264D02*
X32999941Y-57602216D01*
X32999941Y-57602216D02*
X33142798Y-57602216D01*
X33142798Y-57602216D02*
X33238036Y-57649835D01*
X33238036Y-57649835D02*
X33285655Y-57697454D01*
X33285655Y-57697454D02*
X33333274Y-57792692D01*
X33333274Y-57792692D02*
X33333274Y-58030787D01*
X33333274Y-58030787D02*
X33285655Y-58126025D01*
X33285655Y-58126025D02*
X33238036Y-58173645D01*
X33238036Y-58173645D02*
X33142798Y-58221264D01*
X33142798Y-58221264D02*
X32857084Y-58221264D01*
X32857084Y-58221264D02*
X32761846Y-58173645D01*
X32761846Y-58173645D02*
X32714227Y-58126025D01*
X95333274Y-58221264D02*
X95333274Y-57221264D01*
X95333274Y-57221264D02*
X95571369Y-57221264D01*
X95571369Y-57221264D02*
X95714226Y-57268883D01*
X95714226Y-57268883D02*
X95809464Y-57364121D01*
X95809464Y-57364121D02*
X95857083Y-57459359D01*
X95857083Y-57459359D02*
X95904702Y-57649835D01*
X95904702Y-57649835D02*
X95904702Y-57792692D01*
X95904702Y-57792692D02*
X95857083Y-57983168D01*
X95857083Y-57983168D02*
X95809464Y-58078406D01*
X95809464Y-58078406D02*
X95714226Y-58173645D01*
X95714226Y-58173645D02*
X95571369Y-58221264D01*
X95571369Y-58221264D02*
X95333274Y-58221264D01*
X96857083Y-58221264D02*
X96285655Y-58221264D01*
X96571369Y-58221264D02*
X96571369Y-57221264D01*
X96571369Y-57221264D02*
X96476131Y-57364121D01*
X96476131Y-57364121D02*
X96380893Y-57459359D01*
X96380893Y-57459359D02*
X96285655Y-57506978D01*
X97761845Y-57221264D02*
X97285655Y-57221264D01*
X97285655Y-57221264D02*
X97238036Y-57697454D01*
X97238036Y-57697454D02*
X97285655Y-57649835D01*
X97285655Y-57649835D02*
X97380893Y-57602216D01*
X97380893Y-57602216D02*
X97618988Y-57602216D01*
X97618988Y-57602216D02*
X97714226Y-57649835D01*
X97714226Y-57649835D02*
X97761845Y-57697454D01*
X97761845Y-57697454D02*
X97809464Y-57792692D01*
X97809464Y-57792692D02*
X97809464Y-58030787D01*
X97809464Y-58030787D02*
X97761845Y-58126025D01*
X97761845Y-58126025D02*
X97714226Y-58173645D01*
X97714226Y-58173645D02*
X97618988Y-58221264D01*
X97618988Y-58221264D02*
X97380893Y-58221264D01*
X97380893Y-58221264D02*
X97285655Y-58173645D01*
X97285655Y-58173645D02*
X97238036Y-58126025D01*
X30720140Y-54415986D02*
X30767760Y-54463605D01*
X30767760Y-54463605D02*
X30815379Y-54606462D01*
X30815379Y-54606462D02*
X30815379Y-54701700D01*
X30815379Y-54701700D02*
X30767760Y-54844557D01*
X30767760Y-54844557D02*
X30672521Y-54939795D01*
X30672521Y-54939795D02*
X30577283Y-54987414D01*
X30577283Y-54987414D02*
X30386807Y-55035033D01*
X30386807Y-55035033D02*
X30243950Y-55035033D01*
X30243950Y-55035033D02*
X30053474Y-54987414D01*
X30053474Y-54987414D02*
X29958236Y-54939795D01*
X29958236Y-54939795D02*
X29862998Y-54844557D01*
X29862998Y-54844557D02*
X29815379Y-54701700D01*
X29815379Y-54701700D02*
X29815379Y-54606462D01*
X29815379Y-54606462D02*
X29862998Y-54463605D01*
X29862998Y-54463605D02*
X29910617Y-54415986D01*
X30815379Y-53463605D02*
X30815379Y-54035033D01*
X30815379Y-53749319D02*
X29815379Y-53749319D01*
X29815379Y-53749319D02*
X29958236Y-53844557D01*
X29958236Y-53844557D02*
X30053474Y-53939795D01*
X30053474Y-53939795D02*
X30101093Y-54035033D01*
X96829262Y-71680180D02*
X96781643Y-71727800D01*
X96781643Y-71727800D02*
X96638786Y-71775419D01*
X96638786Y-71775419D02*
X96543548Y-71775419D01*
X96543548Y-71775419D02*
X96400691Y-71727800D01*
X96400691Y-71727800D02*
X96305453Y-71632561D01*
X96305453Y-71632561D02*
X96257834Y-71537323D01*
X96257834Y-71537323D02*
X96210215Y-71346847D01*
X96210215Y-71346847D02*
X96210215Y-71203990D01*
X96210215Y-71203990D02*
X96257834Y-71013514D01*
X96257834Y-71013514D02*
X96305453Y-70918276D01*
X96305453Y-70918276D02*
X96400691Y-70823038D01*
X96400691Y-70823038D02*
X96543548Y-70775419D01*
X96543548Y-70775419D02*
X96638786Y-70775419D01*
X96638786Y-70775419D02*
X96781643Y-70823038D01*
X96781643Y-70823038D02*
X96829262Y-70870657D01*
X97781643Y-71775419D02*
X97210215Y-71775419D01*
X97495929Y-71775419D02*
X97495929Y-70775419D01*
X97495929Y-70775419D02*
X97400691Y-70918276D01*
X97400691Y-70918276D02*
X97305453Y-71013514D01*
X97305453Y-71013514D02*
X97210215Y-71061133D01*
X98400691Y-70775419D02*
X98495929Y-70775419D01*
X98495929Y-70775419D02*
X98591167Y-70823038D01*
X98591167Y-70823038D02*
X98638786Y-70870657D01*
X98638786Y-70870657D02*
X98686405Y-70965895D01*
X98686405Y-70965895D02*
X98734024Y-71156371D01*
X98734024Y-71156371D02*
X98734024Y-71394466D01*
X98734024Y-71394466D02*
X98686405Y-71584942D01*
X98686405Y-71584942D02*
X98638786Y-71680180D01*
X98638786Y-71680180D02*
X98591167Y-71727800D01*
X98591167Y-71727800D02*
X98495929Y-71775419D01*
X98495929Y-71775419D02*
X98400691Y-71775419D01*
X98400691Y-71775419D02*
X98305453Y-71727800D01*
X98305453Y-71727800D02*
X98257834Y-71680180D01*
X98257834Y-71680180D02*
X98210215Y-71584942D01*
X98210215Y-71584942D02*
X98162596Y-71394466D01*
X98162596Y-71394466D02*
X98162596Y-71156371D01*
X98162596Y-71156371D02*
X98210215Y-70965895D01*
X98210215Y-70965895D02*
X98257834Y-70870657D01*
X98257834Y-70870657D02*
X98305453Y-70823038D01*
X98305453Y-70823038D02*
X98400691Y-70775419D01*
X94720140Y-54415986D02*
X94767760Y-54463605D01*
X94767760Y-54463605D02*
X94815379Y-54606462D01*
X94815379Y-54606462D02*
X94815379Y-54701700D01*
X94815379Y-54701700D02*
X94767760Y-54844557D01*
X94767760Y-54844557D02*
X94672521Y-54939795D01*
X94672521Y-54939795D02*
X94577283Y-54987414D01*
X94577283Y-54987414D02*
X94386807Y-55035033D01*
X94386807Y-55035033D02*
X94243950Y-55035033D01*
X94243950Y-55035033D02*
X94053474Y-54987414D01*
X94053474Y-54987414D02*
X93958236Y-54939795D01*
X93958236Y-54939795D02*
X93862998Y-54844557D01*
X93862998Y-54844557D02*
X93815379Y-54701700D01*
X93815379Y-54701700D02*
X93815379Y-54606462D01*
X93815379Y-54606462D02*
X93862998Y-54463605D01*
X93862998Y-54463605D02*
X93910617Y-54415986D01*
X94815379Y-53939795D02*
X94815379Y-53749319D01*
X94815379Y-53749319D02*
X94767760Y-53654081D01*
X94767760Y-53654081D02*
X94720140Y-53606462D01*
X94720140Y-53606462D02*
X94577283Y-53511224D01*
X94577283Y-53511224D02*
X94386807Y-53463605D01*
X94386807Y-53463605D02*
X94005855Y-53463605D01*
X94005855Y-53463605D02*
X93910617Y-53511224D01*
X93910617Y-53511224D02*
X93862998Y-53558843D01*
X93862998Y-53558843D02*
X93815379Y-53654081D01*
X93815379Y-53654081D02*
X93815379Y-53844557D01*
X93815379Y-53844557D02*
X93862998Y-53939795D01*
X93862998Y-53939795D02*
X93910617Y-53987414D01*
X93910617Y-53987414D02*
X94005855Y-54035033D01*
X94005855Y-54035033D02*
X94243950Y-54035033D01*
X94243950Y-54035033D02*
X94339188Y-53987414D01*
X94339188Y-53987414D02*
X94386807Y-53939795D01*
X94386807Y-53939795D02*
X94434426Y-53844557D01*
X94434426Y-53844557D02*
X94434426Y-53654081D01*
X94434426Y-53654081D02*
X94386807Y-53558843D01*
X94386807Y-53558843D02*
X94339188Y-53511224D01*
X94339188Y-53511224D02*
X94243950Y-53463605D01*
X81305453Y-71680180D02*
X81257834Y-71727800D01*
X81257834Y-71727800D02*
X81114977Y-71775419D01*
X81114977Y-71775419D02*
X81019739Y-71775419D01*
X81019739Y-71775419D02*
X80876882Y-71727800D01*
X80876882Y-71727800D02*
X80781644Y-71632561D01*
X80781644Y-71632561D02*
X80734025Y-71537323D01*
X80734025Y-71537323D02*
X80686406Y-71346847D01*
X80686406Y-71346847D02*
X80686406Y-71203990D01*
X80686406Y-71203990D02*
X80734025Y-71013514D01*
X80734025Y-71013514D02*
X80781644Y-70918276D01*
X80781644Y-70918276D02*
X80876882Y-70823038D01*
X80876882Y-70823038D02*
X81019739Y-70775419D01*
X81019739Y-70775419D02*
X81114977Y-70775419D01*
X81114977Y-70775419D02*
X81257834Y-70823038D01*
X81257834Y-70823038D02*
X81305453Y-70870657D01*
X81876882Y-71203990D02*
X81781644Y-71156371D01*
X81781644Y-71156371D02*
X81734025Y-71108752D01*
X81734025Y-71108752D02*
X81686406Y-71013514D01*
X81686406Y-71013514D02*
X81686406Y-70965895D01*
X81686406Y-70965895D02*
X81734025Y-70870657D01*
X81734025Y-70870657D02*
X81781644Y-70823038D01*
X81781644Y-70823038D02*
X81876882Y-70775419D01*
X81876882Y-70775419D02*
X82067358Y-70775419D01*
X82067358Y-70775419D02*
X82162596Y-70823038D01*
X82162596Y-70823038D02*
X82210215Y-70870657D01*
X82210215Y-70870657D02*
X82257834Y-70965895D01*
X82257834Y-70965895D02*
X82257834Y-71013514D01*
X82257834Y-71013514D02*
X82210215Y-71108752D01*
X82210215Y-71108752D02*
X82162596Y-71156371D01*
X82162596Y-71156371D02*
X82067358Y-71203990D01*
X82067358Y-71203990D02*
X81876882Y-71203990D01*
X81876882Y-71203990D02*
X81781644Y-71251609D01*
X81781644Y-71251609D02*
X81734025Y-71299228D01*
X81734025Y-71299228D02*
X81686406Y-71394466D01*
X81686406Y-71394466D02*
X81686406Y-71584942D01*
X81686406Y-71584942D02*
X81734025Y-71680180D01*
X81734025Y-71680180D02*
X81781644Y-71727800D01*
X81781644Y-71727800D02*
X81876882Y-71775419D01*
X81876882Y-71775419D02*
X82067358Y-71775419D01*
X82067358Y-71775419D02*
X82162596Y-71727800D01*
X82162596Y-71727800D02*
X82210215Y-71680180D01*
X82210215Y-71680180D02*
X82257834Y-71584942D01*
X82257834Y-71584942D02*
X82257834Y-71394466D01*
X82257834Y-71394466D02*
X82210215Y-71299228D01*
X82210215Y-71299228D02*
X82162596Y-71251609D01*
X82162596Y-71251609D02*
X82067358Y-71203990D01*
X78720140Y-54415986D02*
X78767760Y-54463605D01*
X78767760Y-54463605D02*
X78815379Y-54606462D01*
X78815379Y-54606462D02*
X78815379Y-54701700D01*
X78815379Y-54701700D02*
X78767760Y-54844557D01*
X78767760Y-54844557D02*
X78672521Y-54939795D01*
X78672521Y-54939795D02*
X78577283Y-54987414D01*
X78577283Y-54987414D02*
X78386807Y-55035033D01*
X78386807Y-55035033D02*
X78243950Y-55035033D01*
X78243950Y-55035033D02*
X78053474Y-54987414D01*
X78053474Y-54987414D02*
X77958236Y-54939795D01*
X77958236Y-54939795D02*
X77862998Y-54844557D01*
X77862998Y-54844557D02*
X77815379Y-54701700D01*
X77815379Y-54701700D02*
X77815379Y-54606462D01*
X77815379Y-54606462D02*
X77862998Y-54463605D01*
X77862998Y-54463605D02*
X77910617Y-54415986D01*
X77815379Y-54082652D02*
X77815379Y-53415986D01*
X77815379Y-53415986D02*
X78815379Y-53844557D01*
X65305453Y-71680180D02*
X65257834Y-71727800D01*
X65257834Y-71727800D02*
X65114977Y-71775419D01*
X65114977Y-71775419D02*
X65019739Y-71775419D01*
X65019739Y-71775419D02*
X64876882Y-71727800D01*
X64876882Y-71727800D02*
X64781644Y-71632561D01*
X64781644Y-71632561D02*
X64734025Y-71537323D01*
X64734025Y-71537323D02*
X64686406Y-71346847D01*
X64686406Y-71346847D02*
X64686406Y-71203990D01*
X64686406Y-71203990D02*
X64734025Y-71013514D01*
X64734025Y-71013514D02*
X64781644Y-70918276D01*
X64781644Y-70918276D02*
X64876882Y-70823038D01*
X64876882Y-70823038D02*
X65019739Y-70775419D01*
X65019739Y-70775419D02*
X65114977Y-70775419D01*
X65114977Y-70775419D02*
X65257834Y-70823038D01*
X65257834Y-70823038D02*
X65305453Y-70870657D01*
X66162596Y-70775419D02*
X65972120Y-70775419D01*
X65972120Y-70775419D02*
X65876882Y-70823038D01*
X65876882Y-70823038D02*
X65829263Y-70870657D01*
X65829263Y-70870657D02*
X65734025Y-71013514D01*
X65734025Y-71013514D02*
X65686406Y-71203990D01*
X65686406Y-71203990D02*
X65686406Y-71584942D01*
X65686406Y-71584942D02*
X65734025Y-71680180D01*
X65734025Y-71680180D02*
X65781644Y-71727800D01*
X65781644Y-71727800D02*
X65876882Y-71775419D01*
X65876882Y-71775419D02*
X66067358Y-71775419D01*
X66067358Y-71775419D02*
X66162596Y-71727800D01*
X66162596Y-71727800D02*
X66210215Y-71680180D01*
X66210215Y-71680180D02*
X66257834Y-71584942D01*
X66257834Y-71584942D02*
X66257834Y-71346847D01*
X66257834Y-71346847D02*
X66210215Y-71251609D01*
X66210215Y-71251609D02*
X66162596Y-71203990D01*
X66162596Y-71203990D02*
X66067358Y-71156371D01*
X66067358Y-71156371D02*
X65876882Y-71156371D01*
X65876882Y-71156371D02*
X65781644Y-71203990D01*
X65781644Y-71203990D02*
X65734025Y-71251609D01*
X65734025Y-71251609D02*
X65686406Y-71346847D01*
X62720140Y-54415986D02*
X62767760Y-54463605D01*
X62767760Y-54463605D02*
X62815379Y-54606462D01*
X62815379Y-54606462D02*
X62815379Y-54701700D01*
X62815379Y-54701700D02*
X62767760Y-54844557D01*
X62767760Y-54844557D02*
X62672521Y-54939795D01*
X62672521Y-54939795D02*
X62577283Y-54987414D01*
X62577283Y-54987414D02*
X62386807Y-55035033D01*
X62386807Y-55035033D02*
X62243950Y-55035033D01*
X62243950Y-55035033D02*
X62053474Y-54987414D01*
X62053474Y-54987414D02*
X61958236Y-54939795D01*
X61958236Y-54939795D02*
X61862998Y-54844557D01*
X61862998Y-54844557D02*
X61815379Y-54701700D01*
X61815379Y-54701700D02*
X61815379Y-54606462D01*
X61815379Y-54606462D02*
X61862998Y-54463605D01*
X61862998Y-54463605D02*
X61910617Y-54415986D01*
X61815379Y-53511224D02*
X61815379Y-53987414D01*
X61815379Y-53987414D02*
X62291569Y-54035033D01*
X62291569Y-54035033D02*
X62243950Y-53987414D01*
X62243950Y-53987414D02*
X62196331Y-53892176D01*
X62196331Y-53892176D02*
X62196331Y-53654081D01*
X62196331Y-53654081D02*
X62243950Y-53558843D01*
X62243950Y-53558843D02*
X62291569Y-53511224D01*
X62291569Y-53511224D02*
X62386807Y-53463605D01*
X62386807Y-53463605D02*
X62624902Y-53463605D01*
X62624902Y-53463605D02*
X62720140Y-53511224D01*
X62720140Y-53511224D02*
X62767760Y-53558843D01*
X62767760Y-53558843D02*
X62815379Y-53654081D01*
X62815379Y-53654081D02*
X62815379Y-53892176D01*
X62815379Y-53892176D02*
X62767760Y-53987414D01*
X62767760Y-53987414D02*
X62720140Y-54035033D01*
X49305453Y-71680180D02*
X49257834Y-71727800D01*
X49257834Y-71727800D02*
X49114977Y-71775419D01*
X49114977Y-71775419D02*
X49019739Y-71775419D01*
X49019739Y-71775419D02*
X48876882Y-71727800D01*
X48876882Y-71727800D02*
X48781644Y-71632561D01*
X48781644Y-71632561D02*
X48734025Y-71537323D01*
X48734025Y-71537323D02*
X48686406Y-71346847D01*
X48686406Y-71346847D02*
X48686406Y-71203990D01*
X48686406Y-71203990D02*
X48734025Y-71013514D01*
X48734025Y-71013514D02*
X48781644Y-70918276D01*
X48781644Y-70918276D02*
X48876882Y-70823038D01*
X48876882Y-70823038D02*
X49019739Y-70775419D01*
X49019739Y-70775419D02*
X49114977Y-70775419D01*
X49114977Y-70775419D02*
X49257834Y-70823038D01*
X49257834Y-70823038D02*
X49305453Y-70870657D01*
X50162596Y-71108752D02*
X50162596Y-71775419D01*
X49924501Y-70727800D02*
X49686406Y-71442085D01*
X49686406Y-71442085D02*
X50305453Y-71442085D01*
X46720140Y-54415986D02*
X46767760Y-54463605D01*
X46767760Y-54463605D02*
X46815379Y-54606462D01*
X46815379Y-54606462D02*
X46815379Y-54701700D01*
X46815379Y-54701700D02*
X46767760Y-54844557D01*
X46767760Y-54844557D02*
X46672521Y-54939795D01*
X46672521Y-54939795D02*
X46577283Y-54987414D01*
X46577283Y-54987414D02*
X46386807Y-55035033D01*
X46386807Y-55035033D02*
X46243950Y-55035033D01*
X46243950Y-55035033D02*
X46053474Y-54987414D01*
X46053474Y-54987414D02*
X45958236Y-54939795D01*
X45958236Y-54939795D02*
X45862998Y-54844557D01*
X45862998Y-54844557D02*
X45815379Y-54701700D01*
X45815379Y-54701700D02*
X45815379Y-54606462D01*
X45815379Y-54606462D02*
X45862998Y-54463605D01*
X45862998Y-54463605D02*
X45910617Y-54415986D01*
X45815379Y-54082652D02*
X45815379Y-53463605D01*
X45815379Y-53463605D02*
X46196331Y-53796938D01*
X46196331Y-53796938D02*
X46196331Y-53654081D01*
X46196331Y-53654081D02*
X46243950Y-53558843D01*
X46243950Y-53558843D02*
X46291569Y-53511224D01*
X46291569Y-53511224D02*
X46386807Y-53463605D01*
X46386807Y-53463605D02*
X46624902Y-53463605D01*
X46624902Y-53463605D02*
X46720140Y-53511224D01*
X46720140Y-53511224D02*
X46767760Y-53558843D01*
X46767760Y-53558843D02*
X46815379Y-53654081D01*
X46815379Y-53654081D02*
X46815379Y-53939795D01*
X46815379Y-53939795D02*
X46767760Y-54035033D01*
X46767760Y-54035033D02*
X46720140Y-54082652D01*
X33305453Y-71680180D02*
X33257834Y-71727800D01*
X33257834Y-71727800D02*
X33114977Y-71775419D01*
X33114977Y-71775419D02*
X33019739Y-71775419D01*
X33019739Y-71775419D02*
X32876882Y-71727800D01*
X32876882Y-71727800D02*
X32781644Y-71632561D01*
X32781644Y-71632561D02*
X32734025Y-71537323D01*
X32734025Y-71537323D02*
X32686406Y-71346847D01*
X32686406Y-71346847D02*
X32686406Y-71203990D01*
X32686406Y-71203990D02*
X32734025Y-71013514D01*
X32734025Y-71013514D02*
X32781644Y-70918276D01*
X32781644Y-70918276D02*
X32876882Y-70823038D01*
X32876882Y-70823038D02*
X33019739Y-70775419D01*
X33019739Y-70775419D02*
X33114977Y-70775419D01*
X33114977Y-70775419D02*
X33257834Y-70823038D01*
X33257834Y-70823038D02*
X33305453Y-70870657D01*
X33686406Y-70870657D02*
X33734025Y-70823038D01*
X33734025Y-70823038D02*
X33829263Y-70775419D01*
X33829263Y-70775419D02*
X34067358Y-70775419D01*
X34067358Y-70775419D02*
X34162596Y-70823038D01*
X34162596Y-70823038D02*
X34210215Y-70870657D01*
X34210215Y-70870657D02*
X34257834Y-70965895D01*
X34257834Y-70965895D02*
X34257834Y-71061133D01*
X34257834Y-71061133D02*
X34210215Y-71203990D01*
X34210215Y-71203990D02*
X33638787Y-71775419D01*
X33638787Y-71775419D02*
X34257834Y-71775419D01*
X103154819Y-79642857D02*
X102678628Y-79976190D01*
X103154819Y-80214285D02*
X102154819Y-80214285D01*
X102154819Y-80214285D02*
X102154819Y-79833333D01*
X102154819Y-79833333D02*
X102202438Y-79738095D01*
X102202438Y-79738095D02*
X102250057Y-79690476D01*
X102250057Y-79690476D02*
X102345295Y-79642857D01*
X102345295Y-79642857D02*
X102488152Y-79642857D01*
X102488152Y-79642857D02*
X102583390Y-79690476D01*
X102583390Y-79690476D02*
X102631009Y-79738095D01*
X102631009Y-79738095D02*
X102678628Y-79833333D01*
X102678628Y-79833333D02*
X102678628Y-80214285D01*
X103154819Y-78690476D02*
X103154819Y-79261904D01*
X103154819Y-78976190D02*
X102154819Y-78976190D01*
X102154819Y-78976190D02*
X102297676Y-79071428D01*
X102297676Y-79071428D02*
X102392914Y-79166666D01*
X102392914Y-79166666D02*
X102440533Y-79261904D01*
X102154819Y-77833333D02*
X102154819Y-78023809D01*
X102154819Y-78023809D02*
X102202438Y-78119047D01*
X102202438Y-78119047D02*
X102250057Y-78166666D01*
X102250057Y-78166666D02*
X102392914Y-78261904D01*
X102392914Y-78261904D02*
X102583390Y-78309523D01*
X102583390Y-78309523D02*
X102964342Y-78309523D01*
X102964342Y-78309523D02*
X103059580Y-78261904D01*
X103059580Y-78261904D02*
X103107200Y-78214285D01*
X103107200Y-78214285D02*
X103154819Y-78119047D01*
X103154819Y-78119047D02*
X103154819Y-77928571D01*
X103154819Y-77928571D02*
X103107200Y-77833333D01*
X103107200Y-77833333D02*
X103059580Y-77785714D01*
X103059580Y-77785714D02*
X102964342Y-77738095D01*
X102964342Y-77738095D02*
X102726247Y-77738095D01*
X102726247Y-77738095D02*
X102631009Y-77785714D01*
X102631009Y-77785714D02*
X102583390Y-77833333D01*
X102583390Y-77833333D02*
X102535771Y-77928571D01*
X102535771Y-77928571D02*
X102535771Y-78119047D01*
X102535771Y-78119047D02*
X102583390Y-78214285D01*
X102583390Y-78214285D02*
X102631009Y-78261904D01*
X102631009Y-78261904D02*
X102726247Y-78309523D01*
X106154819Y-80214285D02*
X105154819Y-80214285D01*
X105154819Y-80214285D02*
X105154819Y-79976190D01*
X105154819Y-79976190D02*
X105202438Y-79833333D01*
X105202438Y-79833333D02*
X105297676Y-79738095D01*
X105297676Y-79738095D02*
X105392914Y-79690476D01*
X105392914Y-79690476D02*
X105583390Y-79642857D01*
X105583390Y-79642857D02*
X105726247Y-79642857D01*
X105726247Y-79642857D02*
X105916723Y-79690476D01*
X105916723Y-79690476D02*
X106011961Y-79738095D01*
X106011961Y-79738095D02*
X106107200Y-79833333D01*
X106107200Y-79833333D02*
X106154819Y-79976190D01*
X106154819Y-79976190D02*
X106154819Y-80214285D01*
X106154819Y-78690476D02*
X106154819Y-79261904D01*
X106154819Y-78976190D02*
X105154819Y-78976190D01*
X105154819Y-78976190D02*
X105297676Y-79071428D01*
X105297676Y-79071428D02*
X105392914Y-79166666D01*
X105392914Y-79166666D02*
X105440533Y-79261904D01*
X105154819Y-77833333D02*
X105154819Y-78023809D01*
X105154819Y-78023809D02*
X105202438Y-78119047D01*
X105202438Y-78119047D02*
X105250057Y-78166666D01*
X105250057Y-78166666D02*
X105392914Y-78261904D01*
X105392914Y-78261904D02*
X105583390Y-78309523D01*
X105583390Y-78309523D02*
X105964342Y-78309523D01*
X105964342Y-78309523D02*
X106059580Y-78261904D01*
X106059580Y-78261904D02*
X106107200Y-78214285D01*
X106107200Y-78214285D02*
X106154819Y-78119047D01*
X106154819Y-78119047D02*
X106154819Y-77928571D01*
X106154819Y-77928571D02*
X106107200Y-77833333D01*
X106107200Y-77833333D02*
X106059580Y-77785714D01*
X106059580Y-77785714D02*
X105964342Y-77738095D01*
X105964342Y-77738095D02*
X105726247Y-77738095D01*
X105726247Y-77738095D02*
X105631009Y-77785714D01*
X105631009Y-77785714D02*
X105583390Y-77833333D01*
X105583390Y-77833333D02*
X105535771Y-77928571D01*
X105535771Y-77928571D02*
X105535771Y-78119047D01*
X105535771Y-78119047D02*
X105583390Y-78214285D01*
X105583390Y-78214285D02*
X105631009Y-78261904D01*
X105631009Y-78261904D02*
X105726247Y-78309523D01*
X29238095Y-77254819D02*
X29238095Y-76254819D01*
X29238095Y-76731009D02*
X29809523Y-76731009D01*
X29809523Y-77254819D02*
X29809523Y-76254819D01*
X30238095Y-76350057D02*
X30285714Y-76302438D01*
X30285714Y-76302438D02*
X30380952Y-76254819D01*
X30380952Y-76254819D02*
X30619047Y-76254819D01*
X30619047Y-76254819D02*
X30714285Y-76302438D01*
X30714285Y-76302438D02*
X30761904Y-76350057D01*
X30761904Y-76350057D02*
X30809523Y-76445295D01*
X30809523Y-76445295D02*
X30809523Y-76540533D01*
X30809523Y-76540533D02*
X30761904Y-76683390D01*
X30761904Y-76683390D02*
X30190476Y-77254819D01*
X30190476Y-77254819D02*
X30809523Y-77254819D01*
X109238095Y-77254819D02*
X109238095Y-76254819D01*
X109238095Y-76731009D02*
X109809523Y-76731009D01*
X109809523Y-77254819D02*
X109809523Y-76254819D01*
X110809523Y-77254819D02*
X110238095Y-77254819D01*
X110523809Y-77254819D02*
X110523809Y-76254819D01*
X110523809Y-76254819D02*
X110428571Y-76397676D01*
X110428571Y-76397676D02*
X110333333Y-76492914D01*
X110333333Y-76492914D02*
X110238095Y-76540533D01*
X109238095Y-41254819D02*
X109238095Y-40254819D01*
X109238095Y-40731009D02*
X109809523Y-40731009D01*
X109809523Y-41254819D02*
X109809523Y-40254819D01*
X110190476Y-40254819D02*
X110809523Y-40254819D01*
X110809523Y-40254819D02*
X110476190Y-40635771D01*
X110476190Y-40635771D02*
X110619047Y-40635771D01*
X110619047Y-40635771D02*
X110714285Y-40683390D01*
X110714285Y-40683390D02*
X110761904Y-40731009D01*
X110761904Y-40731009D02*
X110809523Y-40826247D01*
X110809523Y-40826247D02*
X110809523Y-41064342D01*
X110809523Y-41064342D02*
X110761904Y-41159580D01*
X110761904Y-41159580D02*
X110714285Y-41207200D01*
X110714285Y-41207200D02*
X110619047Y-41254819D01*
X110619047Y-41254819D02*
X110333333Y-41254819D01*
X110333333Y-41254819D02*
X110238095Y-41207200D01*
X110238095Y-41207200D02*
X110190476Y-41159580D01*
X87459166Y-73831319D02*
X87459166Y-74545604D01*
X87459166Y-74545604D02*
X87411547Y-74688461D01*
X87411547Y-74688461D02*
X87316309Y-74783700D01*
X87316309Y-74783700D02*
X87173452Y-74831319D01*
X87173452Y-74831319D02*
X87078214Y-74831319D01*
X88459166Y-74831319D02*
X87887738Y-74831319D01*
X88173452Y-74831319D02*
X88173452Y-73831319D01*
X88173452Y-73831319D02*
X88078214Y-73974176D01*
X88078214Y-73974176D02*
X87982976Y-74069414D01*
X87982976Y-74069414D02*
X87887738Y-74117033D01*
D13*
X94243780Y-45093157D02*
X94243780Y-47357840D01*
X94243780Y-45879173D02*
X93354780Y-47064507D01*
X93354780Y-45879173D02*
X95132780Y-45879173D01*
X95132780Y-47064507D02*
X94243780Y-45879173D01*
X93354780Y-47064507D02*
X95132780Y-47064507D01*
X95997915Y-49011840D02*
G75*
G03*
X92616645Y-49011840I-1690635J0D01*
G01*
X92616645Y-49011840D02*
G75*
G03*
X95997915Y-49011840I1690635J0D01*
G01*
X78370780Y-45093157D02*
X78370780Y-47357840D01*
X78370780Y-45879173D02*
X77481780Y-47064507D01*
X77481780Y-45879173D02*
X79259780Y-45879173D01*
X79259780Y-47064507D02*
X78370780Y-45879173D01*
X77481780Y-47064507D02*
X79259780Y-47064507D01*
X79997915Y-49011840D02*
G75*
G03*
X76616645Y-49011840I-1690635J0D01*
G01*
X76616645Y-49011840D02*
G75*
G03*
X79997915Y-49011840I1690635J0D01*
G01*
X62243780Y-45093157D02*
X62243780Y-47357840D01*
X62243780Y-45879173D02*
X61354780Y-47064507D01*
X61354780Y-45879173D02*
X63132780Y-45879173D01*
X63132780Y-47064507D02*
X62243780Y-45879173D01*
X61354780Y-47064507D02*
X63132780Y-47064507D01*
X63997915Y-49011840D02*
G75*
G03*
X60616645Y-49011840I-1690635J0D01*
G01*
X60616645Y-49011840D02*
G75*
G03*
X63997915Y-49011840I1690635J0D01*
G01*
X46180280Y-44923824D02*
X46180280Y-47188507D01*
X46180280Y-45709840D02*
X45291280Y-46895174D01*
X45291280Y-45709840D02*
X47069280Y-45709840D01*
X47069280Y-46895174D02*
X46180280Y-45709840D01*
X45291280Y-46895174D02*
X47069280Y-46895174D01*
X47997915Y-49011840D02*
G75*
G03*
X44616645Y-49011840I-1690635J0D01*
G01*
X44616645Y-49011840D02*
G75*
G03*
X47997915Y-49011840I1690635J0D01*
G01*
X31997915Y-49011840D02*
G75*
G03*
X28616645Y-49011840I-1690635J0D01*
G01*
X28616645Y-49011840D02*
G75*
G03*
X31997915Y-49011840I1690635J0D01*
G01*
X31196280Y-46919190D02*
X30307280Y-45733856D01*
X29418280Y-46919190D02*
X31196280Y-46919190D01*
X30307280Y-45733856D02*
X29418280Y-46919190D01*
X29418280Y-45733856D02*
X31196280Y-45733856D01*
X30307280Y-44947840D02*
X30307280Y-47212523D01*
D12*
X36677600Y-81711800D02*
X52476400Y-81711800D01*
X36682680Y-75514200D02*
X36682680Y-81711800D01*
X36880800Y-81711800D02*
X36880800Y-81213960D01*
X39479220Y-81711800D02*
X39479220Y-81213960D01*
X42077640Y-81213960D02*
X42077640Y-81711800D01*
X44574460Y-81213960D02*
X44574460Y-81711800D01*
X47076360Y-81213960D02*
X47076360Y-81711800D01*
X49677320Y-81213960D02*
X49677320Y-81711800D01*
X52273200Y-81213960D02*
X52273200Y-81711800D01*
X52471320Y-81711800D02*
X52471320Y-75514200D01*
X52476400Y-75514200D02*
X36677600Y-75514200D01*
X52476400Y-75912980D02*
X36677600Y-75912980D01*
X52476400Y-81213960D02*
X36677600Y-81213960D01*
X61633100Y-81775300D02*
X77431900Y-81775300D01*
X61638180Y-75577700D02*
X61638180Y-81775300D01*
X61836300Y-81775300D02*
X61836300Y-81277460D01*
X64434720Y-81775300D02*
X64434720Y-81277460D01*
X67033140Y-81277460D02*
X67033140Y-81775300D01*
X69529960Y-81277460D02*
X69529960Y-81775300D01*
X72031860Y-81277460D02*
X72031860Y-81775300D01*
X74632820Y-81277460D02*
X74632820Y-81775300D01*
X77228700Y-81277460D02*
X77228700Y-81775300D01*
X77426820Y-81775300D02*
X77426820Y-75577700D01*
X77431900Y-75577700D02*
X61633100Y-75577700D01*
X77431900Y-75976480D02*
X61633100Y-75976480D01*
X77431900Y-81277460D02*
X61633100Y-81277460D01*
D13*
X33539440Y-42418640D02*
X38180440Y-42418640D01*
X33539440Y-45687640D02*
X35049440Y-45687640D01*
X33539440Y-49388640D02*
X35049440Y-49388640D01*
X38180440Y-52658640D02*
X38180440Y-42418640D01*
X35049440Y-52658640D02*
X35049440Y-42418640D01*
X33539440Y-52658640D02*
X33539440Y-42418640D01*
X33539440Y-52658640D02*
X38180440Y-52658640D01*
X49539440Y-42418640D02*
X54180440Y-42418640D01*
X49539440Y-45687640D02*
X51049440Y-45687640D01*
X49539440Y-49388640D02*
X51049440Y-49388640D01*
X54180440Y-52658640D02*
X54180440Y-42418640D01*
X51049440Y-52658640D02*
X51049440Y-42418640D01*
X49539440Y-52658640D02*
X49539440Y-42418640D01*
X49539440Y-52658640D02*
X54180440Y-52658640D01*
X65539440Y-42418640D02*
X70180440Y-42418640D01*
X65539440Y-45687640D02*
X67049440Y-45687640D01*
X65539440Y-49388640D02*
X67049440Y-49388640D01*
X70180440Y-52658640D02*
X70180440Y-42418640D01*
X67049440Y-52658640D02*
X67049440Y-42418640D01*
X65539440Y-52658640D02*
X65539440Y-42418640D01*
X65539440Y-52658640D02*
X70180440Y-52658640D01*
X81539440Y-42418640D02*
X86180440Y-42418640D01*
X81539440Y-45687640D02*
X83049440Y-45687640D01*
X81539440Y-49388640D02*
X83049440Y-49388640D01*
X86180440Y-52658640D02*
X86180440Y-42418640D01*
X83049440Y-52658640D02*
X83049440Y-42418640D01*
X81539440Y-52658640D02*
X81539440Y-42418640D01*
X81539440Y-52658640D02*
X86180440Y-52658640D01*
X97539440Y-42418640D02*
X102180440Y-42418640D01*
X97539440Y-45687640D02*
X99049440Y-45687640D01*
X97539440Y-49388640D02*
X99049440Y-49388640D01*
X102180440Y-52658640D02*
X102180440Y-42418640D01*
X99049440Y-52658640D02*
X99049440Y-42418640D01*
X97539440Y-52658640D02*
X97539440Y-42418640D01*
X97539440Y-52658640D02*
X102180440Y-52658640D01*
X46443280Y-54981400D02*
X46443280Y-53781400D01*
X48203280Y-53781400D02*
X48203280Y-54981400D01*
X94443280Y-54981400D02*
X94443280Y-53781400D01*
X96203280Y-53781400D02*
X96203280Y-54981400D01*
X100612120Y-56729520D02*
X99412120Y-56729520D01*
X99412120Y-54969520D02*
X100612120Y-54969520D01*
X81014360Y-63788400D02*
X82214360Y-63788400D01*
X82214360Y-65548400D02*
X81014360Y-65548400D01*
X78443280Y-54981400D02*
X78443280Y-53781400D01*
X80203280Y-53781400D02*
X80203280Y-54981400D01*
X84612120Y-56729520D02*
X83412120Y-56729520D01*
X83412120Y-54969520D02*
X84612120Y-54969520D01*
X65014360Y-63788400D02*
X66214360Y-63788400D01*
X66214360Y-65548400D02*
X65014360Y-65548400D01*
X62443280Y-54981400D02*
X62443280Y-53781400D01*
X64203280Y-53781400D02*
X64203280Y-54981400D01*
X68612120Y-56729520D02*
X67412120Y-56729520D01*
X67412120Y-54969520D02*
X68612120Y-54969520D01*
X49014360Y-63788400D02*
X50214360Y-63788400D01*
X50214360Y-65548400D02*
X49014360Y-65548400D01*
X52612120Y-56729520D02*
X51412120Y-56729520D01*
X51412120Y-54969520D02*
X52612120Y-54969520D01*
X33014360Y-63788400D02*
X34214360Y-63788400D01*
X34214360Y-65548400D02*
X33014360Y-65548400D01*
X30443280Y-54981400D02*
X30443280Y-53781400D01*
X32203280Y-53781400D02*
X32203280Y-54981400D01*
X36612120Y-56729520D02*
X35412120Y-56729520D01*
X35412120Y-54969520D02*
X36612120Y-54969520D01*
X97014360Y-63788400D02*
X98214360Y-63788400D01*
X98214360Y-65548400D02*
X97014360Y-65548400D01*
X28658120Y-68219680D02*
X30158120Y-68219680D01*
X28658120Y-68219680D02*
X28658120Y-65019680D01*
X30158120Y-65019680D02*
X30158120Y-68219680D01*
X92658120Y-68219680D02*
X94158120Y-68219680D01*
X92658120Y-68219680D02*
X92658120Y-65019680D01*
X94158120Y-65019680D02*
X94158120Y-68219680D01*
X76658120Y-68219680D02*
X78158120Y-68219680D01*
X76658120Y-68219680D02*
X76658120Y-65019680D01*
X78158120Y-65019680D02*
X78158120Y-68219680D01*
X44658120Y-68219680D02*
X46158120Y-68219680D01*
X44658120Y-68219680D02*
X44658120Y-65019680D01*
X46158120Y-65019680D02*
X46158120Y-68219680D01*
X60658120Y-68219680D02*
X62158120Y-68219680D01*
X60658120Y-68219680D02*
X60658120Y-65019680D01*
X62158120Y-65019680D02*
X62158120Y-68219680D01*
X79698195Y-60457080D02*
X81687560Y-60457080D01*
X79954893Y-59568080D02*
X79954893Y-61346080D01*
X79954893Y-60457080D02*
X81140227Y-59568080D01*
X81140227Y-59568080D02*
X81140227Y-61346080D01*
X81140227Y-61346080D02*
X79954893Y-60457080D01*
X79698195Y-60457080D02*
G75*
G03*
X76316925Y-60457080I-1690635J0D01*
G01*
X76316925Y-60457080D02*
G75*
G03*
X79698195Y-60457080I1690635J0D01*
G01*
X63698195Y-60457080D02*
X65687560Y-60457080D01*
X63954893Y-59568080D02*
X63954893Y-61346080D01*
X63954893Y-60457080D02*
X65140227Y-59568080D01*
X65140227Y-59568080D02*
X65140227Y-61346080D01*
X65140227Y-61346080D02*
X63954893Y-60457080D01*
X63698195Y-60457080D02*
G75*
G03*
X60316925Y-60457080I-1690635J0D01*
G01*
X60316925Y-60457080D02*
G75*
G03*
X63698195Y-60457080I1690635J0D01*
G01*
X47698195Y-60457080D02*
X49687560Y-60457080D01*
X47954893Y-59568080D02*
X47954893Y-61346080D01*
X47954893Y-60457080D02*
X49140227Y-59568080D01*
X49140227Y-59568080D02*
X49140227Y-61346080D01*
X49140227Y-61346080D02*
X47954893Y-60457080D01*
X47698195Y-60457080D02*
G75*
G03*
X44316925Y-60457080I-1690635J0D01*
G01*
X44316925Y-60457080D02*
G75*
G03*
X47698195Y-60457080I1690635J0D01*
G01*
X31698195Y-60457080D02*
X33687560Y-60457080D01*
X31954893Y-59568080D02*
X31954893Y-61346080D01*
X31954893Y-60457080D02*
X33140227Y-59568080D01*
X33140227Y-59568080D02*
X33140227Y-61346080D01*
X33140227Y-61346080D02*
X31954893Y-60457080D01*
X31698195Y-60457080D02*
G75*
G03*
X28316925Y-60457080I-1690635J0D01*
G01*
X28316925Y-60457080D02*
G75*
G03*
X31698195Y-60457080I1690635J0D01*
G01*
X95698195Y-60457080D02*
X97687560Y-60457080D01*
X95954893Y-59568080D02*
X95954893Y-61346080D01*
X95954893Y-60457080D02*
X97140227Y-59568080D01*
X97140227Y-59568080D02*
X97140227Y-61346080D01*
X97140227Y-61346080D02*
X95954893Y-60457080D01*
X95698195Y-60457080D02*
G75*
G03*
X92316925Y-60457080I-1690635J0D01*
G01*
X92316925Y-60457080D02*
G75*
G03*
X95698195Y-60457080I1690635J0D01*
G01*
X29460560Y-54749320D02*
X29460560Y-53749320D01*
X27760560Y-53749320D02*
X27760560Y-54749320D01*
X97972120Y-68720600D02*
X96972120Y-68720600D01*
X96972120Y-70420600D02*
X97972120Y-70420600D01*
X93460560Y-54749320D02*
X93460560Y-53749320D01*
X91760560Y-53749320D02*
X91760560Y-54749320D01*
X81972120Y-68720600D02*
X80972120Y-68720600D01*
X80972120Y-70420600D02*
X81972120Y-70420600D01*
X77460560Y-54749320D02*
X77460560Y-53749320D01*
X75760560Y-53749320D02*
X75760560Y-54749320D01*
X65972120Y-68720600D02*
X64972120Y-68720600D01*
X64972120Y-70420600D02*
X65972120Y-70420600D01*
X61460560Y-54749320D02*
X61460560Y-53749320D01*
X59760560Y-53749320D02*
X59760560Y-54749320D01*
X49972120Y-68720600D02*
X48972120Y-68720600D01*
X48972120Y-70420600D02*
X49972120Y-70420600D01*
X45460560Y-54749320D02*
X45460560Y-53749320D01*
X43760560Y-53749320D02*
X43760560Y-54749320D01*
X33972120Y-68720600D02*
X32972120Y-68720600D01*
X32972120Y-70420600D02*
X33972120Y-70420600D01*
X101880000Y-78400000D02*
X101880000Y-79600000D01*
X100120000Y-79600000D02*
X100120000Y-78400000D01*
X104750000Y-76800000D02*
X103250000Y-76800000D01*
X104750000Y-76800000D02*
X104750000Y-80000000D01*
X103250000Y-80000000D02*
X103250000Y-76800000D01*
D12*
X84292500Y-75576500D02*
X84292500Y-83176500D01*
X84292500Y-81676500D02*
X91292500Y-81676500D01*
X84292500Y-82776500D02*
X91292500Y-82776500D01*
X87792500Y-82776500D02*
X87792500Y-83176500D01*
X91292500Y-75576500D02*
X84292500Y-75576500D01*
X91292500Y-83176500D02*
X91292500Y-75576500D01*
M02*
