<?xml version="1.0" encoding="UTF-8" standalone="no"?>
<!DOCTYPE svg PUBLIC "-//W3C//DTD SVG 1.1//EN"
 "http://www.w3.org/Graphics/SVG/1.1/DTD/svg11.dtd">
<!-- Generated by graphviz version 2.43.0 (0)
 -->
<!-- Title: main_outputs.c Pages: 1 -->
<svg width="542pt" height="137pt"
 viewBox="0.00 0.00 542.00 137.00" xmlns="http://www.w3.org/2000/svg" xmlns:xlink="http://www.w3.org/1999/xlink">
<g id="graph0" class="graph" transform="scale(1 1) rotate(0) translate(4 133)">
<title>main_outputs.c</title>
<!-- Node1 -->
<g id="Node000001" class="node">
<title>Node1</title>
<g id="a_Node000001"><a xlink:title="Contains functions for controlling main outputs.">
<polygon fill="#999999" stroke="#666666" points="241.5,-129 149.5,-129 149.5,-110 241.5,-110 241.5,-129"/>
<text text-anchor="middle" x="195.5" y="-117" font-family="Helvetica,sans-Serif" font-size="10.00">main_outputs.c</text>
</a>
</g>
</g>
<!-- Node2 -->
<g id="Node000002" class="node">
<title>Node2</title>
<g id="a_Node000002"><a xlink:title=" ">
<polygon fill="#e0e0e0" stroke="#999999" points="53,-74 0,-74 0,-55 53,-55 53,-74"/>
<text text-anchor="middle" x="26.5" y="-62" font-family="Helvetica,sans-Serif" font-size="10.00">string.h</text>
</a>
</g>
</g>
<!-- Node1&#45;&gt;Node2 -->
<g id="edge1_Node000001_Node000002" class="edge">
<title>Node1&#45;&gt;Node2</title>
<g id="a_edge1_Node000001_Node000002"><a xlink:title=" ">
<path fill="none" stroke="#63b8ff" d="M168.35,-109.98C139.72,-101.01 94.47,-86.82 62.8,-76.88"/>
<polygon fill="#63b8ff" stroke="#63b8ff" points="63.62,-73.47 53.03,-73.82 61.52,-80.15 63.62,-73.47"/>
</a>
</g>
</g>
<!-- Node3 -->
<g id="Node000003" class="node">
<title>Node3</title>
<g id="a_Node000003"><a xlink:title=" ">
<polygon fill="#e0e0e0" stroke="#999999" points="222,-19 169,-19 169,0 222,0 222,-19"/>
<text text-anchor="middle" x="195.5" y="-7" font-family="Helvetica,sans-Serif" font-size="10.00">stdint.h</text>
</a>
</g>
</g>
<!-- Node1&#45;&gt;Node3 -->
<g id="edge2_Node000001_Node000003" class="edge">
<title>Node1&#45;&gt;Node3</title>
<g id="a_edge2_Node000001_Node000003"><a xlink:title=" ">
<path fill="none" stroke="#63b8ff" d="M159.19,-109.98C125.62,-100.23 83.31,-82.04 100.5,-55 113.27,-34.92 137.74,-23.75 158.65,-17.62"/>
<polygon fill="#63b8ff" stroke="#63b8ff" points="159.78,-20.94 168.56,-15 157.99,-14.17 159.78,-20.94"/>
</a>
</g>
</g>
<!-- Node4 -->
<g id="Node000004" class="node">
<title>Node4</title>
<g id="a_Node000004"><a xlink:href="../../d7/dae/gpio__exti_8h.html" target="_top" xlink:title="Contains GPIO and EXTI hardware abstraction layer prototypes.">
<polygon fill="white" stroke="#666666" points="181,-74 110,-74 110,-55 181,-55 181,-74"/>
<text text-anchor="middle" x="145.5" y="-62" font-family="Helvetica,sans-Serif" font-size="10.00">gpio_exti.h</text>
</a>
</g>
</g>
<!-- Node1&#45;&gt;Node4 -->
<g id="edge3_Node000001_Node000004" class="edge">
<title>Node1&#45;&gt;Node4</title>
<g id="a_edge3_Node000001_Node000004"><a xlink:title=" ">
<path fill="none" stroke="#63b8ff" d="M187.24,-109.75C180.04,-102.11 169.39,-90.82 160.65,-81.56"/>
<polygon fill="#63b8ff" stroke="#63b8ff" points="163.01,-78.96 153.6,-74.09 157.92,-83.76 163.01,-78.96"/>
</a>
</g>
</g>
<!-- Node5 -->
<g id="Node000005" class="node">
<title>Node5</title>
<g id="a_Node000005"><a xlink:href="../../d8/de2/main__outputs_8h.html" target="_top" xlink:title="Contains functions prototypes for controlling main outputs.">
<polygon fill="white" stroke="#666666" points="291.5,-74 199.5,-74 199.5,-55 291.5,-55 291.5,-74"/>
<text text-anchor="middle" x="245.5" y="-62" font-family="Helvetica,sans-Serif" font-size="10.00">main_outputs.h</text>
</a>
</g>
</g>
<!-- Node1&#45;&gt;Node5 -->
<g id="edge5_Node000001_Node000005" class="edge">
<title>Node1&#45;&gt;Node5</title>
<g id="a_edge5_Node000001_Node000005"><a xlink:title=" ">
<path fill="none" stroke="#63b8ff" d="M203.76,-109.75C210.96,-102.11 221.61,-90.82 230.35,-81.56"/>
<polygon fill="#63b8ff" stroke="#63b8ff" points="233.08,-83.76 237.4,-74.09 227.99,-78.96 233.08,-83.76"/>
</a>
</g>
</g>
<!-- Node6 -->
<g id="Node000006" class="node">
<title>Node6</title>
<g id="a_Node000006"><a xlink:href="../../d1/d49/control__tables_8h.html" target="_top" xlink:title="Contains prototypes and types for main outputs control table.">
<polygon fill="white" stroke="#666666" points="405,-74 310,-74 310,-55 405,-55 405,-74"/>
<text text-anchor="middle" x="357.5" y="-62" font-family="Helvetica,sans-Serif" font-size="10.00">control_tables.h</text>
</a>
</g>
</g>
<!-- Node1&#45;&gt;Node6 -->
<g id="edge7_Node000001_Node000006" class="edge">
<title>Node1&#45;&gt;Node6</title>
<g id="a_edge7_Node000001_Node000006"><a xlink:title=" ">
<path fill="none" stroke="#63b8ff" d="M221.53,-109.98C248.61,-101.13 291.21,-87.19 321.51,-77.28"/>
<polygon fill="#63b8ff" stroke="#63b8ff" points="322.85,-80.52 331.27,-74.08 320.68,-73.87 322.85,-80.52"/>
</a>
</g>
</g>
<!-- Node7 -->
<g id="Node000007" class="node">
<title>Node7</title>
<g id="a_Node000007"><a xlink:href="../../d1/daf/clock__and__timers_8h.html" target="_top" xlink:title="Contains clocks and timer functions prototypes.">
<polygon fill="white" stroke="#666666" points="534,-74 423,-74 423,-55 534,-55 534,-74"/>
<text text-anchor="middle" x="478.5" y="-62" font-family="Helvetica,sans-Serif" font-size="10.00">clock_and_timers.h</text>
</a>
</g>
</g>
<!-- Node1&#45;&gt;Node7 -->
<g id="edge9_Node000001_Node000007" class="edge">
<title>Node1&#45;&gt;Node7</title>
<g id="a_edge9_Node000001_Node000007"><a xlink:title=" ">
<path fill="none" stroke="#63b8ff" d="M240.97,-109.98C290.44,-100.72 369.55,-85.9 422.73,-75.94"/>
<polygon fill="#63b8ff" stroke="#63b8ff" points="423.49,-79.36 432.67,-74.08 422.2,-72.48 423.49,-79.36"/>
</a>
</g>
</g>
<!-- Node4&#45;&gt;Node3 -->
<g id="edge4_Node000004_Node000003" class="edge">
<title>Node4&#45;&gt;Node3</title>
<g id="a_edge4_Node000004_Node000003"><a xlink:title=" ">
<path fill="none" stroke="#63b8ff" d="M153.76,-54.75C160.96,-47.11 171.61,-35.82 180.35,-26.56"/>
<polygon fill="#63b8ff" stroke="#63b8ff" points="183.08,-28.76 187.4,-19.09 177.99,-23.96 183.08,-28.76"/>
</a>
</g>
</g>
<!-- Node5&#45;&gt;Node3 -->
<g id="edge6_Node000005_Node000003" class="edge">
<title>Node5&#45;&gt;Node3</title>
<g id="a_edge6_Node000005_Node000003"><a xlink:title=" ">
<path fill="none" stroke="#63b8ff" d="M237.24,-54.75C230.04,-47.11 219.39,-35.82 210.65,-26.56"/>
<polygon fill="#63b8ff" stroke="#63b8ff" points="213.01,-23.96 203.6,-19.09 207.92,-28.76 213.01,-23.96"/>
</a>
</g>
</g>
<!-- Node6&#45;&gt;Node3 -->
<g id="edge8_Node000006_Node000003" class="edge">
<title>Node6&#45;&gt;Node3</title>
<g id="a_edge8_Node000006_Node000003"><a xlink:title=" ">
<path fill="none" stroke="#63b8ff" d="M331.47,-54.98C304.39,-46.13 261.79,-32.19 231.49,-22.28"/>
<polygon fill="#63b8ff" stroke="#63b8ff" points="232.32,-18.87 221.73,-19.08 230.15,-25.52 232.32,-18.87"/>
</a>
</g>
</g>
</g>
</svg>
