G04 #@! TF.GenerationSoftware,KiCad,Pcbnew,5.0.0-fee4fd1~66~ubuntu16.04.1*
G04 #@! TF.CreationDate,2018-10-18T01:49:27+03:00*
G04 #@! TF.ProjectId,psg14_emu,70736731345F656D752E6B696361645F,rev?*
G04 #@! TF.SameCoordinates,Original*
G04 #@! TF.FileFunction,Legend,Bot*
G04 #@! TF.FilePolarity,Positive*
%FSLAX46Y46*%
G04 Gerber Fmt 4.6, Leading zero omitted, Abs format (unit mm)*
G04 Created by KiCad (PCBNEW 5.0.0-fee4fd1~66~ubuntu16.04.1) date Thu Oct 18 01:49:27 2018*
%MOMM*%
%LPD*%
G01*
G04 APERTURE LIST*
%ADD10C,0.300000*%
G04 APERTURE END LIST*
D10*
X95328571Y-88657142D02*
X95114285Y-88728571D01*
X94757142Y-88728571D01*
X94614285Y-88657142D01*
X94542857Y-88585714D01*
X94471428Y-88442857D01*
X94471428Y-88300000D01*
X94542857Y-88157142D01*
X94614285Y-88085714D01*
X94757142Y-88014285D01*
X95042857Y-87942857D01*
X95185714Y-87871428D01*
X95257142Y-87800000D01*
X95328571Y-87657142D01*
X95328571Y-87514285D01*
X95257142Y-87371428D01*
X95185714Y-87300000D01*
X95042857Y-87228571D01*
X94685714Y-87228571D01*
X94471428Y-87300000D01*
X84535714Y-88835714D02*
X84607142Y-88907142D01*
X84821428Y-88978571D01*
X84964285Y-88978571D01*
X85178571Y-88907142D01*
X85321428Y-88764285D01*
X85392857Y-88621428D01*
X85464285Y-88335714D01*
X85464285Y-88121428D01*
X85392857Y-87835714D01*
X85321428Y-87692857D01*
X85178571Y-87550000D01*
X84964285Y-87478571D01*
X84821428Y-87478571D01*
X84607142Y-87550000D01*
X84535714Y-87621428D01*
X89307142Y-87400000D02*
X89450000Y-87328571D01*
X89664285Y-87328571D01*
X89878571Y-87400000D01*
X90021428Y-87542857D01*
X90092857Y-87685714D01*
X90164285Y-87971428D01*
X90164285Y-88185714D01*
X90092857Y-88471428D01*
X90021428Y-88614285D01*
X89878571Y-88757142D01*
X89664285Y-88828571D01*
X89521428Y-88828571D01*
X89307142Y-88757142D01*
X89235714Y-88685714D01*
X89235714Y-88185714D01*
X89521428Y-88185714D01*
X79657142Y-87550000D02*
X79800000Y-87478571D01*
X80014285Y-87478571D01*
X80228571Y-87550000D01*
X80371428Y-87692857D01*
X80442857Y-87835714D01*
X80514285Y-88121428D01*
X80514285Y-88335714D01*
X80442857Y-88621428D01*
X80371428Y-88764285D01*
X80228571Y-88907142D01*
X80014285Y-88978571D01*
X79871428Y-88978571D01*
X79657142Y-88907142D01*
X79585714Y-88835714D01*
X79585714Y-88335714D01*
X79871428Y-88335714D01*
X108064285Y-79150000D02*
X108207142Y-79078571D01*
X108421428Y-79078571D01*
X108635714Y-79150000D01*
X108778571Y-79292857D01*
X108850000Y-79435714D01*
X108921428Y-79721428D01*
X108921428Y-79935714D01*
X108850000Y-80221428D01*
X108778571Y-80364285D01*
X108635714Y-80507142D01*
X108421428Y-80578571D01*
X108278571Y-80578571D01*
X108064285Y-80507142D01*
X107992857Y-80435714D01*
X107992857Y-79935714D01*
X108278571Y-79935714D01*
X107707142Y-80721428D02*
X106564285Y-80721428D01*
X105921428Y-79078571D02*
X105635714Y-79078571D01*
X105492857Y-79150000D01*
X105350000Y-79292857D01*
X105278571Y-79578571D01*
X105278571Y-80078571D01*
X105350000Y-80364285D01*
X105492857Y-80507142D01*
X105635714Y-80578571D01*
X105921428Y-80578571D01*
X106064285Y-80507142D01*
X106207142Y-80364285D01*
X106278571Y-80078571D01*
X106278571Y-79578571D01*
X106207142Y-79292857D01*
X106064285Y-79150000D01*
X105921428Y-79078571D01*
X108450000Y-70328571D02*
X107450000Y-70328571D01*
X108092857Y-71828571D01*
X107814285Y-65228571D02*
X108100000Y-65228571D01*
X108242857Y-65300000D01*
X108314285Y-65371428D01*
X108457142Y-65585714D01*
X108528571Y-65871428D01*
X108528571Y-66442857D01*
X108457142Y-66585714D01*
X108385714Y-66657142D01*
X108242857Y-66728571D01*
X107957142Y-66728571D01*
X107814285Y-66657142D01*
X107742857Y-66585714D01*
X107671428Y-66442857D01*
X107671428Y-66085714D01*
X107742857Y-65942857D01*
X107814285Y-65871428D01*
X107957142Y-65800000D01*
X108242857Y-65800000D01*
X108385714Y-65871428D01*
X108457142Y-65942857D01*
X108528571Y-66085714D01*
X108142857Y-59778571D02*
X108857142Y-59778571D01*
X108928571Y-60492857D01*
X108857142Y-60421428D01*
X108714285Y-60350000D01*
X108357142Y-60350000D01*
X108214285Y-60421428D01*
X108142857Y-60492857D01*
X108071428Y-60635714D01*
X108071428Y-60992857D01*
X108142857Y-61135714D01*
X108214285Y-61207142D01*
X108357142Y-61278571D01*
X108714285Y-61278571D01*
X108857142Y-61207142D01*
X108928571Y-61135714D01*
X107964285Y-54828571D02*
X107964285Y-55828571D01*
X108321428Y-54257142D02*
X108678571Y-55328571D01*
X107750000Y-55328571D01*
X108450000Y-49378571D02*
X107521428Y-49378571D01*
X108021428Y-49950000D01*
X107807142Y-49950000D01*
X107664285Y-50021428D01*
X107592857Y-50092857D01*
X107521428Y-50235714D01*
X107521428Y-50592857D01*
X107592857Y-50735714D01*
X107664285Y-50807142D01*
X107807142Y-50878571D01*
X108235714Y-50878571D01*
X108378571Y-50807142D01*
X108450000Y-50735714D01*
X108778571Y-43821428D02*
X108707142Y-43750000D01*
X108564285Y-43678571D01*
X108207142Y-43678571D01*
X108064285Y-43750000D01*
X107992857Y-43821428D01*
X107921428Y-43964285D01*
X107921428Y-44107142D01*
X107992857Y-44321428D01*
X108850000Y-45178571D01*
X107921428Y-45178571D01*
X107821428Y-40978571D02*
X108678571Y-40978571D01*
X108250000Y-40978571D02*
X108250000Y-39478571D01*
X108392857Y-39692857D01*
X108535714Y-39835714D01*
X108678571Y-39907142D01*
X108321428Y-33478571D02*
X108178571Y-33478571D01*
X108035714Y-33550000D01*
X107964285Y-33621428D01*
X107892857Y-33764285D01*
X107821428Y-34050000D01*
X107821428Y-34407142D01*
X107892857Y-34692857D01*
X107964285Y-34835714D01*
X108035714Y-34907142D01*
X108178571Y-34978571D01*
X108321428Y-34978571D01*
X108464285Y-34907142D01*
X108535714Y-34835714D01*
X108607142Y-34692857D01*
X108678571Y-34407142D01*
X108678571Y-34050000D01*
X108607142Y-33764285D01*
X108535714Y-33621428D01*
X108464285Y-33550000D01*
X108321428Y-33478571D01*
X75342857Y-39114285D02*
X73057142Y-39114285D01*
X74200000Y-40257142D02*
X74200000Y-37971428D01*
X65042857Y-38864285D02*
X62757142Y-38864285D01*
X94107142Y-29964285D02*
X94821428Y-29964285D01*
X95035714Y-29321428D02*
X94964285Y-29250000D01*
X94750000Y-29178571D01*
X94607142Y-29178571D01*
X94392857Y-29250000D01*
X94250000Y-29392857D01*
X94178571Y-29535714D01*
X94107142Y-29821428D01*
X94107142Y-30035714D01*
X94178571Y-30321428D01*
X94250000Y-30464285D01*
X94392857Y-30607142D01*
X94607142Y-30678571D01*
X94750000Y-30678571D01*
X94964285Y-30607142D01*
X95035714Y-30535714D01*
X93464285Y-30678571D02*
X93464285Y-29678571D01*
X93035714Y-30464285D01*
X92607142Y-29678571D01*
X92607142Y-30678571D01*
X92035714Y-29678571D02*
X91678571Y-30678571D01*
X91321428Y-29678571D02*
X91678571Y-30678571D01*
X91821428Y-31035714D01*
X91892857Y-31107142D01*
X92035714Y-31178571D01*
X90178571Y-30678571D02*
X90178571Y-29678571D01*
X90392857Y-29678571D01*
X90535714Y-29750000D01*
X90607142Y-29892857D01*
X90678571Y-30464285D01*
X90750000Y-30607142D01*
X90892857Y-30678571D01*
X89178571Y-30250000D02*
X89535714Y-30678571D01*
X88892857Y-30678571D02*
X88892857Y-29678571D01*
X89321428Y-29678571D01*
X89464285Y-29750000D01*
X89535714Y-29892857D01*
X89535714Y-30035714D01*
X89464285Y-30178571D01*
X89321428Y-30250000D01*
X88892857Y-30250000D01*
X88392857Y-29678571D02*
X87678571Y-29678571D01*
X88035714Y-29678571D02*
X88035714Y-30678571D01*
X86964285Y-30678571D02*
X87107142Y-30607142D01*
X87178571Y-30535714D01*
X87250000Y-30392857D01*
X87250000Y-29964285D01*
X87178571Y-29821428D01*
X87107142Y-29750000D01*
X86964285Y-29678571D01*
X86750000Y-29678571D01*
X86607142Y-29750000D01*
X86535714Y-29821428D01*
X86464285Y-29964285D01*
X86464285Y-30392857D01*
X86535714Y-30535714D01*
X86607142Y-30607142D01*
X86750000Y-30678571D01*
X86964285Y-30678571D01*
X85821428Y-29678571D02*
X85821428Y-31178571D01*
X85821428Y-29750000D02*
X85678571Y-29678571D01*
X85392857Y-29678571D01*
X85250000Y-29750000D01*
X85178571Y-29821428D01*
X85107142Y-29964285D01*
X85107142Y-30392857D01*
X85178571Y-30535714D01*
X85250000Y-30607142D01*
X85392857Y-30678571D01*
X85678571Y-30678571D01*
X85821428Y-30607142D01*
X83321428Y-30678571D02*
X83321428Y-29178571D01*
X82464285Y-29178571D01*
X82464285Y-30678571D01*
X80892857Y-30535714D02*
X80964285Y-30607142D01*
X81178571Y-30678571D01*
X81321428Y-30678571D01*
X81535714Y-30607142D01*
X81678571Y-30464285D01*
X81750000Y-30321428D01*
X81821428Y-30035714D01*
X81821428Y-29821428D01*
X81750000Y-29535714D01*
X81678571Y-29392857D01*
X81535714Y-29250000D01*
X81321428Y-29178571D01*
X81178571Y-29178571D01*
X80964285Y-29250000D01*
X80892857Y-29321428D01*
X80250000Y-30678571D02*
X80250000Y-29178571D01*
X79464285Y-29178571D01*
X78178571Y-30678571D02*
X79035714Y-30678571D01*
X78607142Y-30678571D02*
X78607142Y-29178571D01*
X78750000Y-29392857D01*
X78892857Y-29535714D01*
X79035714Y-29607142D01*
X76892857Y-29678571D02*
X76892857Y-30678571D01*
X77250000Y-29107142D02*
X77607142Y-30178571D01*
X76678571Y-30178571D01*
X76178571Y-30250000D02*
X75464285Y-30250000D01*
X76321428Y-30678571D02*
X75821428Y-29178571D01*
X75321428Y-30678571D01*
X99357142Y-33800000D02*
X99428571Y-33728571D01*
X99571428Y-33514285D01*
X99642857Y-33371428D01*
X99714285Y-33157142D01*
X99785714Y-32800000D01*
X99785714Y-32514285D01*
X99714285Y-32157142D01*
X99642857Y-31942857D01*
X99571428Y-31800000D01*
X99428571Y-31585714D01*
X99357142Y-31514285D01*
X97928571Y-33085714D02*
X98000000Y-33157142D01*
X98214285Y-33228571D01*
X98357142Y-33228571D01*
X98571428Y-33157142D01*
X98714285Y-33014285D01*
X98785714Y-32871428D01*
X98857142Y-32585714D01*
X98857142Y-32371428D01*
X98785714Y-32085714D01*
X98714285Y-31942857D01*
X98571428Y-31800000D01*
X98357142Y-31728571D01*
X98214285Y-31728571D01*
X98000000Y-31800000D01*
X97928571Y-31871428D01*
X97428571Y-33800000D02*
X97357142Y-33728571D01*
X97214285Y-33514285D01*
X97142857Y-33371428D01*
X97071428Y-33157142D01*
X97000000Y-32800000D01*
X97000000Y-32514285D01*
X97071428Y-32157142D01*
X97142857Y-31942857D01*
X97214285Y-31800000D01*
X97357142Y-31585714D01*
X97428571Y-31514285D01*
X94285714Y-33228571D02*
X94785714Y-32514285D01*
X95142857Y-33228571D02*
X95142857Y-31728571D01*
X94571428Y-31728571D01*
X94428571Y-31800000D01*
X94357142Y-31871428D01*
X94285714Y-32014285D01*
X94285714Y-32228571D01*
X94357142Y-32371428D01*
X94428571Y-32442857D01*
X94571428Y-32514285D01*
X95142857Y-32514285D01*
X93071428Y-33157142D02*
X93214285Y-33228571D01*
X93500000Y-33228571D01*
X93642857Y-33157142D01*
X93714285Y-33014285D01*
X93714285Y-32442857D01*
X93642857Y-32300000D01*
X93500000Y-32228571D01*
X93214285Y-32228571D01*
X93071428Y-32300000D01*
X93000000Y-32442857D01*
X93000000Y-32585714D01*
X93714285Y-32728571D01*
X92357142Y-32228571D02*
X92357142Y-33228571D01*
X92357142Y-32371428D02*
X92285714Y-32300000D01*
X92142857Y-32228571D01*
X91928571Y-32228571D01*
X91785714Y-32300000D01*
X91714285Y-32442857D01*
X91714285Y-33228571D01*
X90357142Y-33228571D02*
X90357142Y-32442857D01*
X90428571Y-32300000D01*
X90571428Y-32228571D01*
X90857142Y-32228571D01*
X91000000Y-32300000D01*
X90357142Y-33157142D02*
X90500000Y-33228571D01*
X90857142Y-33228571D01*
X91000000Y-33157142D01*
X91071428Y-33014285D01*
X91071428Y-32871428D01*
X91000000Y-32728571D01*
X90857142Y-32657142D01*
X90500000Y-32657142D01*
X90357142Y-32585714D01*
X89000000Y-32228571D02*
X89000000Y-33228571D01*
X89642857Y-32228571D02*
X89642857Y-33014285D01*
X89571428Y-33157142D01*
X89428571Y-33228571D01*
X89214285Y-33228571D01*
X89071428Y-33157142D01*
X89000000Y-33085714D01*
X88071428Y-33228571D02*
X88214285Y-33157142D01*
X88285714Y-33014285D01*
X88285714Y-31728571D01*
X87714285Y-32228571D02*
X87142857Y-32228571D01*
X87499999Y-31728571D02*
X87499999Y-33014285D01*
X87428571Y-33157142D01*
X87285714Y-33228571D01*
X87142857Y-33228571D01*
X84642857Y-33085714D02*
X84714285Y-33157142D01*
X84928571Y-33228571D01*
X85071428Y-33228571D01*
X85285714Y-33157142D01*
X85428571Y-33014285D01*
X85499999Y-32871428D01*
X85571428Y-32585714D01*
X85571428Y-32371428D01*
X85499999Y-32085714D01*
X85428571Y-31942857D01*
X85285714Y-31800000D01*
X85071428Y-31728571D01*
X84928571Y-31728571D01*
X84714285Y-31800000D01*
X84642857Y-31871428D01*
X83785714Y-33228571D02*
X83928571Y-33157142D01*
X83999999Y-33014285D01*
X83999999Y-31728571D01*
X82571428Y-32228571D02*
X82571428Y-33228571D01*
X83214285Y-32228571D02*
X83214285Y-33014285D01*
X83142857Y-33157142D01*
X82999999Y-33228571D01*
X82785714Y-33228571D01*
X82642857Y-33157142D01*
X82571428Y-33085714D01*
X81857142Y-33228571D02*
X81857142Y-31728571D01*
X81857142Y-32300000D02*
X81714285Y-32228571D01*
X81428571Y-32228571D01*
X81285714Y-32300000D01*
X81214285Y-32371428D01*
X81142857Y-32514285D01*
X81142857Y-32942857D01*
X81214285Y-33085714D01*
X81285714Y-33157142D01*
X81428571Y-33228571D01*
X81714285Y-33228571D01*
X81857142Y-33157142D01*
X79357142Y-33228571D02*
X79357142Y-31728571D01*
X78499999Y-33228571D02*
X79142857Y-32371428D01*
X78499999Y-31728571D02*
X79357142Y-32585714D01*
X77857142Y-33228571D02*
X77857142Y-31728571D01*
X77214285Y-33228571D02*
X77214285Y-32442857D01*
X77285714Y-32300000D01*
X77428571Y-32228571D01*
X77642857Y-32228571D01*
X77785714Y-32300000D01*
X77857142Y-32371428D01*
X75857142Y-33228571D02*
X75857142Y-32442857D01*
X75928571Y-32300000D01*
X76071428Y-32228571D01*
X76357142Y-32228571D01*
X76499999Y-32300000D01*
X75857142Y-33157142D02*
X75999999Y-33228571D01*
X76357142Y-33228571D01*
X76499999Y-33157142D01*
X76571428Y-33014285D01*
X76571428Y-32871428D01*
X76499999Y-32728571D01*
X76357142Y-32657142D01*
X75999999Y-32657142D01*
X75857142Y-32585714D01*
X75142857Y-33228571D02*
X75142857Y-32228571D01*
X75142857Y-32514285D02*
X75071428Y-32371428D01*
X74999999Y-32300000D01*
X74857142Y-32228571D01*
X74714285Y-32228571D01*
X74214285Y-33228571D02*
X74214285Y-31728571D01*
X74071428Y-32657142D02*
X73642857Y-33228571D01*
X73642857Y-32228571D02*
X74214285Y-32800000D01*
X72999999Y-33228571D02*
X72999999Y-32228571D01*
X72999999Y-31728571D02*
X73071428Y-31800000D01*
X72999999Y-31871428D01*
X72928571Y-31800000D01*
X72999999Y-31728571D01*
X72999999Y-31871428D01*
X72428571Y-32228571D02*
X72071428Y-33228571D01*
X71714285Y-32228571D01*
X88107142Y-34278571D02*
X87607142Y-35778571D01*
X87107142Y-34278571D01*
X84678571Y-35778571D02*
X85535714Y-35778571D01*
X85107142Y-35778571D02*
X85107142Y-34278571D01*
X85250000Y-34492857D01*
X85392857Y-34635714D01*
X85535714Y-34707142D01*
X84035714Y-35635714D02*
X83964285Y-35707142D01*
X84035714Y-35778571D01*
X84107142Y-35707142D01*
X84035714Y-35635714D01*
X84035714Y-35778571D01*
X83035714Y-34278571D02*
X82892857Y-34278571D01*
X82750000Y-34350000D01*
X82678571Y-34421428D01*
X82607142Y-34564285D01*
X82535714Y-34850000D01*
X82535714Y-35207142D01*
X82607142Y-35492857D01*
X82678571Y-35635714D01*
X82750000Y-35707142D01*
X82892857Y-35778571D01*
X83035714Y-35778571D01*
X83178571Y-35707142D01*
X83250000Y-35635714D01*
X83321428Y-35492857D01*
X83392857Y-35207142D01*
X83392857Y-34850000D01*
X83321428Y-34564285D01*
X83250000Y-34421428D01*
X83178571Y-34350000D01*
X83035714Y-34278571D01*
M02*
