<?xml version="1.0" encoding="UTF-8" standalone="no"?>
<!DOCTYPE svg PUBLIC "-//W3C//DTD SVG 1.1//EN"
 "http://www.w3.org/Graphics/SVG/1.1/DTD/svg11.dtd">
<!-- Generated by graphviz version 2.43.0 (0)
 -->
<!-- Title: led_control.h Pages: 1 -->
<svg width="186pt" height="82pt"
 viewBox="0.00 0.00 185.50 82.00" xmlns="http://www.w3.org/2000/svg" xmlns:xlink="http://www.w3.org/1999/xlink">
<g id="graph0" class="graph" transform="scale(1 1) rotate(0) translate(4 78)">
<title>led_control.h</title>
<!-- Node1 -->
<g id="Node000001" class="node">
<title>Node1</title>
<g id="a_Node000001"><a xlink:title="Contains led blinking function prototypes.">
<polygon fill="#999999" stroke="#666666" points="128.5,-74 48.5,-74 48.5,-55 128.5,-55 128.5,-74"/>
<text text-anchor="middle" x="88.5" y="-62" font-family="Helvetica,sans-Serif" font-size="10.00">led_control.h</text>
</a>
</g>
</g>
<!-- Node2 -->
<g id="Node000002" class="node">
<title>Node2</title>
<g id="a_Node000002"><a xlink:href="../../d6/dcc/led__control_8c.html" target="_top" xlink:title="Contains led blinking functions.">
<polygon fill="white" stroke="#666666" points="79,-19 0,-19 0,0 79,0 79,-19"/>
<text text-anchor="middle" x="39.5" y="-7" font-family="Helvetica,sans-Serif" font-size="10.00">led_control.c</text>
</a>
</g>
</g>
<!-- Node1&#45;&gt;Node2 -->
<g id="edge1_Node000001_Node000002" class="edge">
<title>Node1&#45;&gt;Node2</title>
<g id="a_edge1_Node000001_Node000002"><a xlink:title=" ">
<path fill="none" stroke="#63b8ff" d="M73.47,-47.24C64.88,-37.95 54.46,-26.68 47.44,-19.09"/>
<polygon fill="#63b8ff" stroke="#63b8ff" points="71.05,-49.78 80.41,-54.75 76.19,-45.03 71.05,-49.78"/>
</a>
</g>
</g>
<!-- Node3 -->
<g id="Node000003" class="node">
<title>Node3</title>
<g id="a_Node000003"><a xlink:href="../../d4/de7/main__cycle_8c.html" target="_top" xlink:title="Contains functions that are called in while(1) main cycle and after it.">
<polygon fill="white" stroke="#666666" points="177.5,-19 97.5,-19 97.5,0 177.5,0 177.5,-19"/>
<text text-anchor="middle" x="137.5" y="-7" font-family="Helvetica,sans-Serif" font-size="10.00">main_cycle.c</text>
</a>
</g>
</g>
<!-- Node1&#45;&gt;Node3 -->
<g id="edge2_Node000001_Node000003" class="edge">
<title>Node1&#45;&gt;Node3</title>
<g id="a_edge2_Node000001_Node000003"><a xlink:title=" ">
<path fill="none" stroke="#63b8ff" d="M103.53,-47.24C112.12,-37.95 122.54,-26.68 129.56,-19.09"/>
<polygon fill="#63b8ff" stroke="#63b8ff" points="100.81,-45.03 96.59,-54.75 105.95,-49.78 100.81,-45.03"/>
</a>
</g>
</g>
</g>
</svg>
