G04 #@! TF.GenerationSoftware,KiCad,Pcbnew,5.0.2-bee76a0~70~ubuntu16.04.1*
G04 #@! TF.CreationDate,2018-12-22T18:20:01+02:00*
G04 #@! TF.ProjectId,psg14a_power,70736731-3461-45f7-906f-7765722e6b69,rev?*
G04 #@! TF.SameCoordinates,Original*
G04 #@! TF.FileFunction,Soldermask,Bot*
G04 #@! TF.FilePolarity,Negative*
%FSLAX46Y46*%
G04 Gerber Fmt 4.6, Leading zero omitted, Abs format (unit mm)*
G04 Created by KiCad (PCBNEW 5.0.2-bee76a0~70~ubuntu16.04.1) date сб, 22-гру-2018 18:20:01 +0200*
%MOMM*%
%LPD*%
G01*
G04 APERTURE LIST*
%ADD10C,0.100000*%
G04 APERTURE END LIST*
D10*
G36*
X110466703Y-79461486D02*
X110757883Y-79582097D01*
X111019944Y-79757201D01*
X111242799Y-79980056D01*
X111417903Y-80242117D01*
X111538514Y-80533297D01*
X111600000Y-80842412D01*
X111600000Y-81157588D01*
X111538514Y-81466703D01*
X111417903Y-81757883D01*
X111242799Y-82019944D01*
X111019944Y-82242799D01*
X110757883Y-82417903D01*
X110466703Y-82538514D01*
X110157588Y-82600000D01*
X109842412Y-82600000D01*
X109533297Y-82538514D01*
X109242117Y-82417903D01*
X108980056Y-82242799D01*
X108757201Y-82019944D01*
X108582097Y-81757883D01*
X108461486Y-81466703D01*
X108400000Y-81157588D01*
X108400000Y-80842412D01*
X108461486Y-80533297D01*
X108582097Y-80242117D01*
X108757201Y-79980056D01*
X108980056Y-79757201D01*
X109242117Y-79582097D01*
X109533297Y-79461486D01*
X109842412Y-79400000D01*
X110157588Y-79400000D01*
X110466703Y-79461486D01*
X110466703Y-79461486D01*
G37*
G36*
X30466703Y-79461486D02*
X30757883Y-79582097D01*
X31019944Y-79757201D01*
X31242799Y-79980056D01*
X31417903Y-80242117D01*
X31538514Y-80533297D01*
X31600000Y-80842412D01*
X31600000Y-81157588D01*
X31538514Y-81466703D01*
X31417903Y-81757883D01*
X31242799Y-82019944D01*
X31019944Y-82242799D01*
X30757883Y-82417903D01*
X30466703Y-82538514D01*
X30157588Y-82600000D01*
X29842412Y-82600000D01*
X29533297Y-82538514D01*
X29242117Y-82417903D01*
X28980056Y-82242799D01*
X28757201Y-82019944D01*
X28582097Y-81757883D01*
X28461486Y-81466703D01*
X28400000Y-81157588D01*
X28400000Y-80842412D01*
X28461486Y-80533297D01*
X28582097Y-80242117D01*
X28757201Y-79980056D01*
X28980056Y-79757201D01*
X29242117Y-79582097D01*
X29533297Y-79461486D01*
X29842412Y-79400000D01*
X30157588Y-79400000D01*
X30466703Y-79461486D01*
X30466703Y-79461486D01*
G37*
G36*
X87242500Y-79876500D02*
X84842500Y-79876500D01*
X84842500Y-77476500D01*
X87242500Y-77476500D01*
X87242500Y-79876500D01*
X87242500Y-79876500D01*
G37*
G36*
X89892526Y-77522615D02*
X90110912Y-77613073D01*
X90307458Y-77744401D01*
X90474599Y-77911542D01*
X90605927Y-78108088D01*
X90696385Y-78326474D01*
X90742500Y-78558309D01*
X90742500Y-78794691D01*
X90696385Y-79026526D01*
X90605927Y-79244912D01*
X90474599Y-79441458D01*
X90307458Y-79608599D01*
X90110912Y-79739927D01*
X89892526Y-79830385D01*
X89660691Y-79876500D01*
X89424309Y-79876500D01*
X89192474Y-79830385D01*
X88974088Y-79739927D01*
X88777542Y-79608599D01*
X88610401Y-79441458D01*
X88479073Y-79244912D01*
X88388615Y-79026526D01*
X88342500Y-78794691D01*
X88342500Y-78558309D01*
X88388615Y-78326474D01*
X88479073Y-78108088D01*
X88610401Y-77911542D01*
X88777542Y-77744401D01*
X88974088Y-77613073D01*
X89192474Y-77522615D01*
X89424309Y-77476500D01*
X89660691Y-77476500D01*
X89892526Y-77522615D01*
X89892526Y-77522615D01*
G37*
G36*
X68437458Y-77689406D02*
X68458435Y-77691472D01*
X68505535Y-77705760D01*
X68646839Y-77748624D01*
X68820474Y-77841433D01*
X68972666Y-77966334D01*
X69097567Y-78118526D01*
X69190376Y-78292161D01*
X69247528Y-78480566D01*
X69266826Y-78676500D01*
X69247528Y-78872434D01*
X69190376Y-79060839D01*
X69097567Y-79234474D01*
X68972666Y-79386666D01*
X68820474Y-79511567D01*
X68646839Y-79604376D01*
X68505535Y-79647240D01*
X68458435Y-79661528D01*
X68437458Y-79663594D01*
X68311600Y-79675990D01*
X68213400Y-79675990D01*
X68087542Y-79663594D01*
X68066565Y-79661528D01*
X68019465Y-79647240D01*
X67878161Y-79604376D01*
X67704526Y-79511567D01*
X67552334Y-79386666D01*
X67427433Y-79234474D01*
X67334624Y-79060839D01*
X67277472Y-78872434D01*
X67258174Y-78676500D01*
X67277472Y-78480566D01*
X67334624Y-78292161D01*
X67427433Y-78118526D01*
X67552334Y-77966334D01*
X67704526Y-77841433D01*
X67878161Y-77748624D01*
X68019465Y-77705760D01*
X68066565Y-77691472D01*
X68087542Y-77689406D01*
X68213400Y-77677010D01*
X68311600Y-77677010D01*
X68437458Y-77689406D01*
X68437458Y-77689406D01*
G37*
G36*
X76057458Y-77689406D02*
X76078435Y-77691472D01*
X76125535Y-77705760D01*
X76266839Y-77748624D01*
X76440474Y-77841433D01*
X76592666Y-77966334D01*
X76717567Y-78118526D01*
X76810376Y-78292161D01*
X76867528Y-78480566D01*
X76886826Y-78676500D01*
X76867528Y-78872434D01*
X76810376Y-79060839D01*
X76717567Y-79234474D01*
X76592666Y-79386666D01*
X76440474Y-79511567D01*
X76266839Y-79604376D01*
X76125535Y-79647240D01*
X76078435Y-79661528D01*
X76057458Y-79663594D01*
X75931600Y-79675990D01*
X75833400Y-79675990D01*
X75707542Y-79663594D01*
X75686565Y-79661528D01*
X75639465Y-79647240D01*
X75498161Y-79604376D01*
X75324526Y-79511567D01*
X75172334Y-79386666D01*
X75047433Y-79234474D01*
X74954624Y-79060839D01*
X74897472Y-78872434D01*
X74878174Y-78676500D01*
X74897472Y-78480566D01*
X74954624Y-78292161D01*
X75047433Y-78118526D01*
X75172334Y-77966334D01*
X75324526Y-77841433D01*
X75498161Y-77748624D01*
X75639465Y-77705760D01*
X75686565Y-77691472D01*
X75707542Y-77689406D01*
X75833400Y-77677010D01*
X75931600Y-77677010D01*
X76057458Y-77689406D01*
X76057458Y-77689406D01*
G37*
G36*
X73517458Y-77689406D02*
X73538435Y-77691472D01*
X73585535Y-77705760D01*
X73726839Y-77748624D01*
X73900474Y-77841433D01*
X74052666Y-77966334D01*
X74177567Y-78118526D01*
X74270376Y-78292161D01*
X74327528Y-78480566D01*
X74346826Y-78676500D01*
X74327528Y-78872434D01*
X74270376Y-79060839D01*
X74177567Y-79234474D01*
X74052666Y-79386666D01*
X73900474Y-79511567D01*
X73726839Y-79604376D01*
X73585535Y-79647240D01*
X73538435Y-79661528D01*
X73517458Y-79663594D01*
X73391600Y-79675990D01*
X73293400Y-79675990D01*
X73167542Y-79663594D01*
X73146565Y-79661528D01*
X73099465Y-79647240D01*
X72958161Y-79604376D01*
X72784526Y-79511567D01*
X72632334Y-79386666D01*
X72507433Y-79234474D01*
X72414624Y-79060839D01*
X72357472Y-78872434D01*
X72338174Y-78676500D01*
X72357472Y-78480566D01*
X72414624Y-78292161D01*
X72507433Y-78118526D01*
X72632334Y-77966334D01*
X72784526Y-77841433D01*
X72958161Y-77748624D01*
X73099465Y-77705760D01*
X73146565Y-77691472D01*
X73167542Y-77689406D01*
X73293400Y-77677010D01*
X73391600Y-77677010D01*
X73517458Y-77689406D01*
X73517458Y-77689406D01*
G37*
G36*
X65897458Y-77689406D02*
X65918435Y-77691472D01*
X65965535Y-77705760D01*
X66106839Y-77748624D01*
X66280474Y-77841433D01*
X66432666Y-77966334D01*
X66557567Y-78118526D01*
X66650376Y-78292161D01*
X66707528Y-78480566D01*
X66726826Y-78676500D01*
X66707528Y-78872434D01*
X66650376Y-79060839D01*
X66557567Y-79234474D01*
X66432666Y-79386666D01*
X66280474Y-79511567D01*
X66106839Y-79604376D01*
X65965535Y-79647240D01*
X65918435Y-79661528D01*
X65897458Y-79663594D01*
X65771600Y-79675990D01*
X65673400Y-79675990D01*
X65547542Y-79663594D01*
X65526565Y-79661528D01*
X65479465Y-79647240D01*
X65338161Y-79604376D01*
X65164526Y-79511567D01*
X65012334Y-79386666D01*
X64887433Y-79234474D01*
X64794624Y-79060839D01*
X64737472Y-78872434D01*
X64718174Y-78676500D01*
X64737472Y-78480566D01*
X64794624Y-78292161D01*
X64887433Y-78118526D01*
X65012334Y-77966334D01*
X65164526Y-77841433D01*
X65338161Y-77748624D01*
X65479465Y-77705760D01*
X65526565Y-77691472D01*
X65547542Y-77689406D01*
X65673400Y-77677010D01*
X65771600Y-77677010D01*
X65897458Y-77689406D01*
X65897458Y-77689406D01*
G37*
G36*
X64181990Y-79675990D02*
X62183010Y-79675990D01*
X62183010Y-77677010D01*
X64181990Y-77677010D01*
X64181990Y-79675990D01*
X64181990Y-79675990D01*
G37*
G36*
X70977458Y-77689406D02*
X70998435Y-77691472D01*
X71045535Y-77705760D01*
X71186839Y-77748624D01*
X71360474Y-77841433D01*
X71512666Y-77966334D01*
X71637567Y-78118526D01*
X71730376Y-78292161D01*
X71787528Y-78480566D01*
X71806826Y-78676500D01*
X71787528Y-78872434D01*
X71730376Y-79060839D01*
X71637567Y-79234474D01*
X71512666Y-79386666D01*
X71360474Y-79511567D01*
X71186839Y-79604376D01*
X71045535Y-79647240D01*
X70998435Y-79661528D01*
X70977458Y-79663594D01*
X70851600Y-79675990D01*
X70753400Y-79675990D01*
X70627542Y-79663594D01*
X70606565Y-79661528D01*
X70559465Y-79647240D01*
X70418161Y-79604376D01*
X70244526Y-79511567D01*
X70092334Y-79386666D01*
X69967433Y-79234474D01*
X69874624Y-79060839D01*
X69817472Y-78872434D01*
X69798174Y-78676500D01*
X69817472Y-78480566D01*
X69874624Y-78292161D01*
X69967433Y-78118526D01*
X70092334Y-77966334D01*
X70244526Y-77841433D01*
X70418161Y-77748624D01*
X70559465Y-77705760D01*
X70606565Y-77691472D01*
X70627542Y-77689406D01*
X70753400Y-77677010D01*
X70851600Y-77677010D01*
X70977458Y-77689406D01*
X70977458Y-77689406D01*
G37*
G36*
X48561958Y-77625906D02*
X48582935Y-77627972D01*
X48630035Y-77642260D01*
X48771339Y-77685124D01*
X48944974Y-77777933D01*
X49097166Y-77902834D01*
X49222067Y-78055026D01*
X49314876Y-78228661D01*
X49372028Y-78417066D01*
X49391326Y-78613000D01*
X49372028Y-78808934D01*
X49314876Y-78997339D01*
X49222067Y-79170974D01*
X49097166Y-79323166D01*
X48944974Y-79448067D01*
X48771339Y-79540876D01*
X48635451Y-79582097D01*
X48582935Y-79598028D01*
X48561958Y-79600094D01*
X48436100Y-79612490D01*
X48337900Y-79612490D01*
X48212042Y-79600094D01*
X48191065Y-79598028D01*
X48138549Y-79582097D01*
X48002661Y-79540876D01*
X47829026Y-79448067D01*
X47676834Y-79323166D01*
X47551933Y-79170974D01*
X47459124Y-78997339D01*
X47401972Y-78808934D01*
X47382674Y-78613000D01*
X47401972Y-78417066D01*
X47459124Y-78228661D01*
X47551933Y-78055026D01*
X47676834Y-77902834D01*
X47829026Y-77777933D01*
X48002661Y-77685124D01*
X48143965Y-77642260D01*
X48191065Y-77627972D01*
X48212042Y-77625906D01*
X48337900Y-77613510D01*
X48436100Y-77613510D01*
X48561958Y-77625906D01*
X48561958Y-77625906D01*
G37*
G36*
X51101958Y-77625906D02*
X51122935Y-77627972D01*
X51170035Y-77642260D01*
X51311339Y-77685124D01*
X51484974Y-77777933D01*
X51637166Y-77902834D01*
X51762067Y-78055026D01*
X51854876Y-78228661D01*
X51912028Y-78417066D01*
X51931326Y-78613000D01*
X51912028Y-78808934D01*
X51854876Y-78997339D01*
X51762067Y-79170974D01*
X51637166Y-79323166D01*
X51484974Y-79448067D01*
X51311339Y-79540876D01*
X51175451Y-79582097D01*
X51122935Y-79598028D01*
X51101958Y-79600094D01*
X50976100Y-79612490D01*
X50877900Y-79612490D01*
X50752042Y-79600094D01*
X50731065Y-79598028D01*
X50678549Y-79582097D01*
X50542661Y-79540876D01*
X50369026Y-79448067D01*
X50216834Y-79323166D01*
X50091933Y-79170974D01*
X49999124Y-78997339D01*
X49941972Y-78808934D01*
X49922674Y-78613000D01*
X49941972Y-78417066D01*
X49999124Y-78228661D01*
X50091933Y-78055026D01*
X50216834Y-77902834D01*
X50369026Y-77777933D01*
X50542661Y-77685124D01*
X50683965Y-77642260D01*
X50731065Y-77627972D01*
X50752042Y-77625906D01*
X50877900Y-77613510D01*
X50976100Y-77613510D01*
X51101958Y-77625906D01*
X51101958Y-77625906D01*
G37*
G36*
X39226490Y-79612490D02*
X37227510Y-79612490D01*
X37227510Y-77613510D01*
X39226490Y-77613510D01*
X39226490Y-79612490D01*
X39226490Y-79612490D01*
G37*
G36*
X40941958Y-77625906D02*
X40962935Y-77627972D01*
X41010035Y-77642260D01*
X41151339Y-77685124D01*
X41324974Y-77777933D01*
X41477166Y-77902834D01*
X41602067Y-78055026D01*
X41694876Y-78228661D01*
X41752028Y-78417066D01*
X41771326Y-78613000D01*
X41752028Y-78808934D01*
X41694876Y-78997339D01*
X41602067Y-79170974D01*
X41477166Y-79323166D01*
X41324974Y-79448067D01*
X41151339Y-79540876D01*
X41015451Y-79582097D01*
X40962935Y-79598028D01*
X40941958Y-79600094D01*
X40816100Y-79612490D01*
X40717900Y-79612490D01*
X40592042Y-79600094D01*
X40571065Y-79598028D01*
X40518549Y-79582097D01*
X40382661Y-79540876D01*
X40209026Y-79448067D01*
X40056834Y-79323166D01*
X39931933Y-79170974D01*
X39839124Y-78997339D01*
X39781972Y-78808934D01*
X39762674Y-78613000D01*
X39781972Y-78417066D01*
X39839124Y-78228661D01*
X39931933Y-78055026D01*
X40056834Y-77902834D01*
X40209026Y-77777933D01*
X40382661Y-77685124D01*
X40523965Y-77642260D01*
X40571065Y-77627972D01*
X40592042Y-77625906D01*
X40717900Y-77613510D01*
X40816100Y-77613510D01*
X40941958Y-77625906D01*
X40941958Y-77625906D01*
G37*
G36*
X43481958Y-77625906D02*
X43502935Y-77627972D01*
X43550035Y-77642260D01*
X43691339Y-77685124D01*
X43864974Y-77777933D01*
X44017166Y-77902834D01*
X44142067Y-78055026D01*
X44234876Y-78228661D01*
X44292028Y-78417066D01*
X44311326Y-78613000D01*
X44292028Y-78808934D01*
X44234876Y-78997339D01*
X44142067Y-79170974D01*
X44017166Y-79323166D01*
X43864974Y-79448067D01*
X43691339Y-79540876D01*
X43555451Y-79582097D01*
X43502935Y-79598028D01*
X43481958Y-79600094D01*
X43356100Y-79612490D01*
X43257900Y-79612490D01*
X43132042Y-79600094D01*
X43111065Y-79598028D01*
X43058549Y-79582097D01*
X42922661Y-79540876D01*
X42749026Y-79448067D01*
X42596834Y-79323166D01*
X42471933Y-79170974D01*
X42379124Y-78997339D01*
X42321972Y-78808934D01*
X42302674Y-78613000D01*
X42321972Y-78417066D01*
X42379124Y-78228661D01*
X42471933Y-78055026D01*
X42596834Y-77902834D01*
X42749026Y-77777933D01*
X42922661Y-77685124D01*
X43063965Y-77642260D01*
X43111065Y-77627972D01*
X43132042Y-77625906D01*
X43257900Y-77613510D01*
X43356100Y-77613510D01*
X43481958Y-77625906D01*
X43481958Y-77625906D01*
G37*
G36*
X46021958Y-77625906D02*
X46042935Y-77627972D01*
X46090035Y-77642260D01*
X46231339Y-77685124D01*
X46404974Y-77777933D01*
X46557166Y-77902834D01*
X46682067Y-78055026D01*
X46774876Y-78228661D01*
X46832028Y-78417066D01*
X46851326Y-78613000D01*
X46832028Y-78808934D01*
X46774876Y-78997339D01*
X46682067Y-79170974D01*
X46557166Y-79323166D01*
X46404974Y-79448067D01*
X46231339Y-79540876D01*
X46095451Y-79582097D01*
X46042935Y-79598028D01*
X46021958Y-79600094D01*
X45896100Y-79612490D01*
X45797900Y-79612490D01*
X45672042Y-79600094D01*
X45651065Y-79598028D01*
X45598549Y-79582097D01*
X45462661Y-79540876D01*
X45289026Y-79448067D01*
X45136834Y-79323166D01*
X45011933Y-79170974D01*
X44919124Y-78997339D01*
X44861972Y-78808934D01*
X44842674Y-78613000D01*
X44861972Y-78417066D01*
X44919124Y-78228661D01*
X45011933Y-78055026D01*
X45136834Y-77902834D01*
X45289026Y-77777933D01*
X45462661Y-77685124D01*
X45603965Y-77642260D01*
X45651065Y-77627972D01*
X45672042Y-77625906D01*
X45797900Y-77613510D01*
X45896100Y-77613510D01*
X46021958Y-77625906D01*
X46021958Y-77625906D01*
G37*
G36*
X83303199Y-59372996D02*
X83510546Y-59435895D01*
X83510548Y-59435896D01*
X83701644Y-59538038D01*
X83869141Y-59675499D01*
X84006602Y-59842996D01*
X84108744Y-60034092D01*
X84171644Y-60241442D01*
X84192882Y-60457080D01*
X84171644Y-60672718D01*
X84108744Y-60880068D01*
X84006602Y-61071164D01*
X83869141Y-61238661D01*
X83701644Y-61376122D01*
X83510548Y-61478264D01*
X83510546Y-61478265D01*
X83303199Y-61541164D01*
X83141598Y-61557080D01*
X83033522Y-61557080D01*
X82871921Y-61541164D01*
X82664574Y-61478265D01*
X82664572Y-61478264D01*
X82473476Y-61376122D01*
X82305979Y-61238661D01*
X82168518Y-61071164D01*
X82066376Y-60880068D01*
X82003476Y-60672718D01*
X81982238Y-60457080D01*
X82003476Y-60241442D01*
X82066376Y-60034092D01*
X82168518Y-59842996D01*
X82305979Y-59675499D01*
X82473476Y-59538038D01*
X82664572Y-59435896D01*
X82664574Y-59435895D01*
X82871921Y-59372996D01*
X83033522Y-59357080D01*
X83141598Y-59357080D01*
X83303199Y-59372996D01*
X83303199Y-59372996D01*
G37*
G36*
X99303199Y-59372996D02*
X99510546Y-59435895D01*
X99510548Y-59435896D01*
X99701644Y-59538038D01*
X99869141Y-59675499D01*
X100006602Y-59842996D01*
X100108744Y-60034092D01*
X100171644Y-60241442D01*
X100192882Y-60457080D01*
X100171644Y-60672718D01*
X100108744Y-60880068D01*
X100006602Y-61071164D01*
X99869141Y-61238661D01*
X99701644Y-61376122D01*
X99510548Y-61478264D01*
X99510546Y-61478265D01*
X99303199Y-61541164D01*
X99141598Y-61557080D01*
X99033522Y-61557080D01*
X98871921Y-61541164D01*
X98664574Y-61478265D01*
X98664572Y-61478264D01*
X98473476Y-61376122D01*
X98305979Y-61238661D01*
X98168518Y-61071164D01*
X98066376Y-60880068D01*
X98003476Y-60672718D01*
X97982238Y-60457080D01*
X98003476Y-60241442D01*
X98066376Y-60034092D01*
X98168518Y-59842996D01*
X98305979Y-59675499D01*
X98473476Y-59538038D01*
X98664572Y-59435896D01*
X98664574Y-59435895D01*
X98871921Y-59372996D01*
X99033522Y-59357080D01*
X99141598Y-59357080D01*
X99303199Y-59372996D01*
X99303199Y-59372996D01*
G37*
G36*
X95107560Y-61557080D02*
X92907560Y-61557080D01*
X92907560Y-59357080D01*
X95107560Y-59357080D01*
X95107560Y-61557080D01*
X95107560Y-61557080D01*
G37*
G36*
X35303199Y-59372996D02*
X35510546Y-59435895D01*
X35510548Y-59435896D01*
X35701644Y-59538038D01*
X35869141Y-59675499D01*
X36006602Y-59842996D01*
X36108744Y-60034092D01*
X36171644Y-60241442D01*
X36192882Y-60457080D01*
X36171644Y-60672718D01*
X36108744Y-60880068D01*
X36006602Y-61071164D01*
X35869141Y-61238661D01*
X35701644Y-61376122D01*
X35510548Y-61478264D01*
X35510546Y-61478265D01*
X35303199Y-61541164D01*
X35141598Y-61557080D01*
X35033522Y-61557080D01*
X34871921Y-61541164D01*
X34664574Y-61478265D01*
X34664572Y-61478264D01*
X34473476Y-61376122D01*
X34305979Y-61238661D01*
X34168518Y-61071164D01*
X34066376Y-60880068D01*
X34003476Y-60672718D01*
X33982238Y-60457080D01*
X34003476Y-60241442D01*
X34066376Y-60034092D01*
X34168518Y-59842996D01*
X34305979Y-59675499D01*
X34473476Y-59538038D01*
X34664572Y-59435896D01*
X34664574Y-59435895D01*
X34871921Y-59372996D01*
X35033522Y-59357080D01*
X35141598Y-59357080D01*
X35303199Y-59372996D01*
X35303199Y-59372996D01*
G37*
G36*
X31107560Y-61557080D02*
X28907560Y-61557080D01*
X28907560Y-59357080D01*
X31107560Y-59357080D01*
X31107560Y-61557080D01*
X31107560Y-61557080D01*
G37*
G36*
X51303199Y-59372996D02*
X51510546Y-59435895D01*
X51510548Y-59435896D01*
X51701644Y-59538038D01*
X51869141Y-59675499D01*
X52006602Y-59842996D01*
X52108744Y-60034092D01*
X52171644Y-60241442D01*
X52192882Y-60457080D01*
X52171644Y-60672718D01*
X52108744Y-60880068D01*
X52006602Y-61071164D01*
X51869141Y-61238661D01*
X51701644Y-61376122D01*
X51510548Y-61478264D01*
X51510546Y-61478265D01*
X51303199Y-61541164D01*
X51141598Y-61557080D01*
X51033522Y-61557080D01*
X50871921Y-61541164D01*
X50664574Y-61478265D01*
X50664572Y-61478264D01*
X50473476Y-61376122D01*
X50305979Y-61238661D01*
X50168518Y-61071164D01*
X50066376Y-60880068D01*
X50003476Y-60672718D01*
X49982238Y-60457080D01*
X50003476Y-60241442D01*
X50066376Y-60034092D01*
X50168518Y-59842996D01*
X50305979Y-59675499D01*
X50473476Y-59538038D01*
X50664572Y-59435896D01*
X50664574Y-59435895D01*
X50871921Y-59372996D01*
X51033522Y-59357080D01*
X51141598Y-59357080D01*
X51303199Y-59372996D01*
X51303199Y-59372996D01*
G37*
G36*
X47107560Y-61557080D02*
X44907560Y-61557080D01*
X44907560Y-59357080D01*
X47107560Y-59357080D01*
X47107560Y-61557080D01*
X47107560Y-61557080D01*
G37*
G36*
X67303199Y-59372996D02*
X67510546Y-59435895D01*
X67510548Y-59435896D01*
X67701644Y-59538038D01*
X67869141Y-59675499D01*
X68006602Y-59842996D01*
X68108744Y-60034092D01*
X68171644Y-60241442D01*
X68192882Y-60457080D01*
X68171644Y-60672718D01*
X68108744Y-60880068D01*
X68006602Y-61071164D01*
X67869141Y-61238661D01*
X67701644Y-61376122D01*
X67510548Y-61478264D01*
X67510546Y-61478265D01*
X67303199Y-61541164D01*
X67141598Y-61557080D01*
X67033522Y-61557080D01*
X66871921Y-61541164D01*
X66664574Y-61478265D01*
X66664572Y-61478264D01*
X66473476Y-61376122D01*
X66305979Y-61238661D01*
X66168518Y-61071164D01*
X66066376Y-60880068D01*
X66003476Y-60672718D01*
X65982238Y-60457080D01*
X66003476Y-60241442D01*
X66066376Y-60034092D01*
X66168518Y-59842996D01*
X66305979Y-59675499D01*
X66473476Y-59538038D01*
X66664572Y-59435896D01*
X66664574Y-59435895D01*
X66871921Y-59372996D01*
X67033522Y-59357080D01*
X67141598Y-59357080D01*
X67303199Y-59372996D01*
X67303199Y-59372996D01*
G37*
G36*
X63107560Y-61557080D02*
X60907560Y-61557080D01*
X60907560Y-59357080D01*
X63107560Y-59357080D01*
X63107560Y-61557080D01*
X63107560Y-61557080D01*
G37*
G36*
X79107560Y-61557080D02*
X76907560Y-61557080D01*
X76907560Y-59357080D01*
X79107560Y-59357080D01*
X79107560Y-61557080D01*
X79107560Y-61557080D01*
G37*
G36*
X53059440Y-50978640D02*
X51259440Y-50978640D01*
X51259440Y-49178640D01*
X53059440Y-49178640D01*
X53059440Y-50978640D01*
X53059440Y-50978640D01*
G37*
G36*
X37059440Y-50978640D02*
X35259440Y-50978640D01*
X35259440Y-49178640D01*
X37059440Y-49178640D01*
X37059440Y-50978640D01*
X37059440Y-50978640D01*
G37*
G36*
X101059440Y-50978640D02*
X99259440Y-50978640D01*
X99259440Y-49178640D01*
X101059440Y-49178640D01*
X101059440Y-50978640D01*
X101059440Y-50978640D01*
G37*
G36*
X69059440Y-50978640D02*
X67259440Y-50978640D01*
X67259440Y-49178640D01*
X69059440Y-49178640D01*
X69059440Y-50978640D01*
X69059440Y-50978640D01*
G37*
G36*
X85059440Y-50978640D02*
X83259440Y-50978640D01*
X83259440Y-49178640D01*
X85059440Y-49178640D01*
X85059440Y-50978640D01*
X85059440Y-50978640D01*
G37*
G36*
X31407280Y-50111840D02*
X29207280Y-50111840D01*
X29207280Y-47911840D01*
X31407280Y-47911840D01*
X31407280Y-50111840D01*
X31407280Y-50111840D01*
G37*
G36*
X95407280Y-50111840D02*
X93207280Y-50111840D01*
X93207280Y-47911840D01*
X95407280Y-47911840D01*
X95407280Y-50111840D01*
X95407280Y-50111840D01*
G37*
G36*
X79407280Y-50111840D02*
X77207280Y-50111840D01*
X77207280Y-47911840D01*
X79407280Y-47911840D01*
X79407280Y-50111840D01*
X79407280Y-50111840D01*
G37*
G36*
X63407280Y-50111840D02*
X61207280Y-50111840D01*
X61207280Y-47911840D01*
X63407280Y-47911840D01*
X63407280Y-50111840D01*
X63407280Y-50111840D01*
G37*
G36*
X47407280Y-50111840D02*
X45207280Y-50111840D01*
X45207280Y-47911840D01*
X47407280Y-47911840D01*
X47407280Y-50111840D01*
X47407280Y-50111840D01*
G37*
G36*
X100335872Y-46651662D02*
X100505521Y-46703125D01*
X100661873Y-46786696D01*
X100798915Y-46899165D01*
X100911384Y-47036207D01*
X100994955Y-47192559D01*
X101046418Y-47362208D01*
X101063794Y-47538640D01*
X101046418Y-47715072D01*
X100994955Y-47884721D01*
X100911384Y-48041073D01*
X100798915Y-48178115D01*
X100661873Y-48290584D01*
X100505521Y-48374155D01*
X100335872Y-48425618D01*
X100203651Y-48438640D01*
X100115229Y-48438640D01*
X99983008Y-48425618D01*
X99813359Y-48374155D01*
X99657007Y-48290584D01*
X99519965Y-48178115D01*
X99407496Y-48041073D01*
X99323925Y-47884721D01*
X99272462Y-47715072D01*
X99255086Y-47538640D01*
X99272462Y-47362208D01*
X99323925Y-47192559D01*
X99407496Y-47036207D01*
X99519965Y-46899165D01*
X99657007Y-46786696D01*
X99813359Y-46703125D01*
X99983008Y-46651662D01*
X100115229Y-46638640D01*
X100203651Y-46638640D01*
X100335872Y-46651662D01*
X100335872Y-46651662D01*
G37*
G36*
X84335872Y-46651662D02*
X84505521Y-46703125D01*
X84661873Y-46786696D01*
X84798915Y-46899165D01*
X84911384Y-47036207D01*
X84994955Y-47192559D01*
X85046418Y-47362208D01*
X85063794Y-47538640D01*
X85046418Y-47715072D01*
X84994955Y-47884721D01*
X84911384Y-48041073D01*
X84798915Y-48178115D01*
X84661873Y-48290584D01*
X84505521Y-48374155D01*
X84335872Y-48425618D01*
X84203651Y-48438640D01*
X84115229Y-48438640D01*
X83983008Y-48425618D01*
X83813359Y-48374155D01*
X83657007Y-48290584D01*
X83519965Y-48178115D01*
X83407496Y-48041073D01*
X83323925Y-47884721D01*
X83272462Y-47715072D01*
X83255086Y-47538640D01*
X83272462Y-47362208D01*
X83323925Y-47192559D01*
X83407496Y-47036207D01*
X83519965Y-46899165D01*
X83657007Y-46786696D01*
X83813359Y-46703125D01*
X83983008Y-46651662D01*
X84115229Y-46638640D01*
X84203651Y-46638640D01*
X84335872Y-46651662D01*
X84335872Y-46651662D01*
G37*
G36*
X52335872Y-46651662D02*
X52505521Y-46703125D01*
X52661873Y-46786696D01*
X52798915Y-46899165D01*
X52911384Y-47036207D01*
X52994955Y-47192559D01*
X53046418Y-47362208D01*
X53063794Y-47538640D01*
X53046418Y-47715072D01*
X52994955Y-47884721D01*
X52911384Y-48041073D01*
X52798915Y-48178115D01*
X52661873Y-48290584D01*
X52505521Y-48374155D01*
X52335872Y-48425618D01*
X52203651Y-48438640D01*
X52115229Y-48438640D01*
X51983008Y-48425618D01*
X51813359Y-48374155D01*
X51657007Y-48290584D01*
X51519965Y-48178115D01*
X51407496Y-48041073D01*
X51323925Y-47884721D01*
X51272462Y-47715072D01*
X51255086Y-47538640D01*
X51272462Y-47362208D01*
X51323925Y-47192559D01*
X51407496Y-47036207D01*
X51519965Y-46899165D01*
X51657007Y-46786696D01*
X51813359Y-46703125D01*
X51983008Y-46651662D01*
X52115229Y-46638640D01*
X52203651Y-46638640D01*
X52335872Y-46651662D01*
X52335872Y-46651662D01*
G37*
G36*
X68335872Y-46651662D02*
X68505521Y-46703125D01*
X68661873Y-46786696D01*
X68798915Y-46899165D01*
X68911384Y-47036207D01*
X68994955Y-47192559D01*
X69046418Y-47362208D01*
X69063794Y-47538640D01*
X69046418Y-47715072D01*
X68994955Y-47884721D01*
X68911384Y-48041073D01*
X68798915Y-48178115D01*
X68661873Y-48290584D01*
X68505521Y-48374155D01*
X68335872Y-48425618D01*
X68203651Y-48438640D01*
X68115229Y-48438640D01*
X67983008Y-48425618D01*
X67813359Y-48374155D01*
X67657007Y-48290584D01*
X67519965Y-48178115D01*
X67407496Y-48041073D01*
X67323925Y-47884721D01*
X67272462Y-47715072D01*
X67255086Y-47538640D01*
X67272462Y-47362208D01*
X67323925Y-47192559D01*
X67407496Y-47036207D01*
X67519965Y-46899165D01*
X67657007Y-46786696D01*
X67813359Y-46703125D01*
X67983008Y-46651662D01*
X68115229Y-46638640D01*
X68203651Y-46638640D01*
X68335872Y-46651662D01*
X68335872Y-46651662D01*
G37*
G36*
X36335872Y-46651662D02*
X36505521Y-46703125D01*
X36661873Y-46786696D01*
X36798915Y-46899165D01*
X36911384Y-47036207D01*
X36994955Y-47192559D01*
X37046418Y-47362208D01*
X37063794Y-47538640D01*
X37046418Y-47715072D01*
X36994955Y-47884721D01*
X36911384Y-48041073D01*
X36798915Y-48178115D01*
X36661873Y-48290584D01*
X36505521Y-48374155D01*
X36335872Y-48425618D01*
X36203651Y-48438640D01*
X36115229Y-48438640D01*
X35983008Y-48425618D01*
X35813359Y-48374155D01*
X35657007Y-48290584D01*
X35519965Y-48178115D01*
X35407496Y-48041073D01*
X35323925Y-47884721D01*
X35272462Y-47715072D01*
X35255086Y-47538640D01*
X35272462Y-47362208D01*
X35323925Y-47192559D01*
X35407496Y-47036207D01*
X35519965Y-46899165D01*
X35657007Y-46786696D01*
X35813359Y-46703125D01*
X35983008Y-46651662D01*
X36115229Y-46638640D01*
X36203651Y-46638640D01*
X36335872Y-46651662D01*
X36335872Y-46651662D01*
G37*
G36*
X110466703Y-43461486D02*
X110757883Y-43582097D01*
X111019944Y-43757201D01*
X111242799Y-43980056D01*
X111417903Y-44242117D01*
X111538514Y-44533297D01*
X111600000Y-44842412D01*
X111600000Y-45157588D01*
X111538514Y-45466703D01*
X111417903Y-45757883D01*
X111242799Y-46019944D01*
X111019944Y-46242799D01*
X110757883Y-46417903D01*
X110466703Y-46538514D01*
X110157588Y-46600000D01*
X109842412Y-46600000D01*
X109533297Y-46538514D01*
X109242117Y-46417903D01*
X108980056Y-46242799D01*
X108757201Y-46019944D01*
X108582097Y-45757883D01*
X108461486Y-45466703D01*
X108400000Y-45157588D01*
X108400000Y-44842412D01*
X108461486Y-44533297D01*
X108582097Y-44242117D01*
X108757201Y-43980056D01*
X108980056Y-43757201D01*
X109242117Y-43582097D01*
X109533297Y-43461486D01*
X109842412Y-43400000D01*
X110157588Y-43400000D01*
X110466703Y-43461486D01*
X110466703Y-43461486D01*
G37*
G36*
X52335872Y-44111662D02*
X52505521Y-44163125D01*
X52661873Y-44246696D01*
X52798915Y-44359165D01*
X52911384Y-44496207D01*
X52994955Y-44652559D01*
X53046418Y-44822208D01*
X53063794Y-44998640D01*
X53046418Y-45175072D01*
X52994955Y-45344721D01*
X52911384Y-45501073D01*
X52798915Y-45638115D01*
X52661873Y-45750584D01*
X52505521Y-45834155D01*
X52335872Y-45885618D01*
X52203651Y-45898640D01*
X52115229Y-45898640D01*
X51983008Y-45885618D01*
X51813359Y-45834155D01*
X51657007Y-45750584D01*
X51519965Y-45638115D01*
X51407496Y-45501073D01*
X51323925Y-45344721D01*
X51272462Y-45175072D01*
X51255086Y-44998640D01*
X51272462Y-44822208D01*
X51323925Y-44652559D01*
X51407496Y-44496207D01*
X51519965Y-44359165D01*
X51657007Y-44246696D01*
X51813359Y-44163125D01*
X51983008Y-44111662D01*
X52115229Y-44098640D01*
X52203651Y-44098640D01*
X52335872Y-44111662D01*
X52335872Y-44111662D01*
G37*
G36*
X36335872Y-44111662D02*
X36505521Y-44163125D01*
X36661873Y-44246696D01*
X36798915Y-44359165D01*
X36911384Y-44496207D01*
X36994955Y-44652559D01*
X37046418Y-44822208D01*
X37063794Y-44998640D01*
X37046418Y-45175072D01*
X36994955Y-45344721D01*
X36911384Y-45501073D01*
X36798915Y-45638115D01*
X36661873Y-45750584D01*
X36505521Y-45834155D01*
X36335872Y-45885618D01*
X36203651Y-45898640D01*
X36115229Y-45898640D01*
X35983008Y-45885618D01*
X35813359Y-45834155D01*
X35657007Y-45750584D01*
X35519965Y-45638115D01*
X35407496Y-45501073D01*
X35323925Y-45344721D01*
X35272462Y-45175072D01*
X35255086Y-44998640D01*
X35272462Y-44822208D01*
X35323925Y-44652559D01*
X35407496Y-44496207D01*
X35519965Y-44359165D01*
X35657007Y-44246696D01*
X35813359Y-44163125D01*
X35983008Y-44111662D01*
X36115229Y-44098640D01*
X36203651Y-44098640D01*
X36335872Y-44111662D01*
X36335872Y-44111662D01*
G37*
G36*
X100335872Y-44111662D02*
X100505521Y-44163125D01*
X100661873Y-44246696D01*
X100798915Y-44359165D01*
X100911384Y-44496207D01*
X100994955Y-44652559D01*
X101046418Y-44822208D01*
X101063794Y-44998640D01*
X101046418Y-45175072D01*
X100994955Y-45344721D01*
X100911384Y-45501073D01*
X100798915Y-45638115D01*
X100661873Y-45750584D01*
X100505521Y-45834155D01*
X100335872Y-45885618D01*
X100203651Y-45898640D01*
X100115229Y-45898640D01*
X99983008Y-45885618D01*
X99813359Y-45834155D01*
X99657007Y-45750584D01*
X99519965Y-45638115D01*
X99407496Y-45501073D01*
X99323925Y-45344721D01*
X99272462Y-45175072D01*
X99255086Y-44998640D01*
X99272462Y-44822208D01*
X99323925Y-44652559D01*
X99407496Y-44496207D01*
X99519965Y-44359165D01*
X99657007Y-44246696D01*
X99813359Y-44163125D01*
X99983008Y-44111662D01*
X100115229Y-44098640D01*
X100203651Y-44098640D01*
X100335872Y-44111662D01*
X100335872Y-44111662D01*
G37*
G36*
X68335872Y-44111662D02*
X68505521Y-44163125D01*
X68661873Y-44246696D01*
X68798915Y-44359165D01*
X68911384Y-44496207D01*
X68994955Y-44652559D01*
X69046418Y-44822208D01*
X69063794Y-44998640D01*
X69046418Y-45175072D01*
X68994955Y-45344721D01*
X68911384Y-45501073D01*
X68798915Y-45638115D01*
X68661873Y-45750584D01*
X68505521Y-45834155D01*
X68335872Y-45885618D01*
X68203651Y-45898640D01*
X68115229Y-45898640D01*
X67983008Y-45885618D01*
X67813359Y-45834155D01*
X67657007Y-45750584D01*
X67519965Y-45638115D01*
X67407496Y-45501073D01*
X67323925Y-45344721D01*
X67272462Y-45175072D01*
X67255086Y-44998640D01*
X67272462Y-44822208D01*
X67323925Y-44652559D01*
X67407496Y-44496207D01*
X67519965Y-44359165D01*
X67657007Y-44246696D01*
X67813359Y-44163125D01*
X67983008Y-44111662D01*
X68115229Y-44098640D01*
X68203651Y-44098640D01*
X68335872Y-44111662D01*
X68335872Y-44111662D01*
G37*
G36*
X84335872Y-44111662D02*
X84505521Y-44163125D01*
X84661873Y-44246696D01*
X84798915Y-44359165D01*
X84911384Y-44496207D01*
X84994955Y-44652559D01*
X85046418Y-44822208D01*
X85063794Y-44998640D01*
X85046418Y-45175072D01*
X84994955Y-45344721D01*
X84911384Y-45501073D01*
X84798915Y-45638115D01*
X84661873Y-45750584D01*
X84505521Y-45834155D01*
X84335872Y-45885618D01*
X84203651Y-45898640D01*
X84115229Y-45898640D01*
X83983008Y-45885618D01*
X83813359Y-45834155D01*
X83657007Y-45750584D01*
X83519965Y-45638115D01*
X83407496Y-45501073D01*
X83323925Y-45344721D01*
X83272462Y-45175072D01*
X83255086Y-44998640D01*
X83272462Y-44822208D01*
X83323925Y-44652559D01*
X83407496Y-44496207D01*
X83519965Y-44359165D01*
X83657007Y-44246696D01*
X83813359Y-44163125D01*
X83983008Y-44111662D01*
X84115229Y-44098640D01*
X84203651Y-44098640D01*
X84335872Y-44111662D01*
X84335872Y-44111662D01*
G37*
G36*
X46522919Y-42847756D02*
X46730266Y-42910655D01*
X46730268Y-42910656D01*
X46921364Y-43012798D01*
X47088861Y-43150259D01*
X47226322Y-43317756D01*
X47303147Y-43461487D01*
X47328465Y-43508854D01*
X47391364Y-43716201D01*
X47412602Y-43931840D01*
X47391364Y-44147479D01*
X47362656Y-44242116D01*
X47328464Y-44354828D01*
X47226322Y-44545924D01*
X47088861Y-44713421D01*
X46921364Y-44850882D01*
X46730268Y-44953024D01*
X46730266Y-44953025D01*
X46522919Y-45015924D01*
X46361318Y-45031840D01*
X46253242Y-45031840D01*
X46091641Y-45015924D01*
X45884294Y-44953025D01*
X45884292Y-44953024D01*
X45693196Y-44850882D01*
X45525699Y-44713421D01*
X45388238Y-44545924D01*
X45286096Y-44354828D01*
X45251905Y-44242116D01*
X45223196Y-44147479D01*
X45201958Y-43931840D01*
X45223196Y-43716201D01*
X45286095Y-43508854D01*
X45311413Y-43461487D01*
X45388238Y-43317756D01*
X45525699Y-43150259D01*
X45693196Y-43012798D01*
X45884292Y-42910656D01*
X45884294Y-42910655D01*
X46091641Y-42847756D01*
X46253242Y-42831840D01*
X46361318Y-42831840D01*
X46522919Y-42847756D01*
X46522919Y-42847756D01*
G37*
G36*
X30522919Y-42847756D02*
X30730266Y-42910655D01*
X30730268Y-42910656D01*
X30921364Y-43012798D01*
X31088861Y-43150259D01*
X31226322Y-43317756D01*
X31303147Y-43461487D01*
X31328465Y-43508854D01*
X31391364Y-43716201D01*
X31412602Y-43931840D01*
X31391364Y-44147479D01*
X31362656Y-44242116D01*
X31328464Y-44354828D01*
X31226322Y-44545924D01*
X31088861Y-44713421D01*
X30921364Y-44850882D01*
X30730268Y-44953024D01*
X30730266Y-44953025D01*
X30522919Y-45015924D01*
X30361318Y-45031840D01*
X30253242Y-45031840D01*
X30091641Y-45015924D01*
X29884294Y-44953025D01*
X29884292Y-44953024D01*
X29693196Y-44850882D01*
X29525699Y-44713421D01*
X29388238Y-44545924D01*
X29286096Y-44354828D01*
X29251905Y-44242116D01*
X29223196Y-44147479D01*
X29201958Y-43931840D01*
X29223196Y-43716201D01*
X29286095Y-43508854D01*
X29311413Y-43461487D01*
X29388238Y-43317756D01*
X29525699Y-43150259D01*
X29693196Y-43012798D01*
X29884292Y-42910656D01*
X29884294Y-42910655D01*
X30091641Y-42847756D01*
X30253242Y-42831840D01*
X30361318Y-42831840D01*
X30522919Y-42847756D01*
X30522919Y-42847756D01*
G37*
G36*
X94522919Y-42847756D02*
X94730266Y-42910655D01*
X94730268Y-42910656D01*
X94921364Y-43012798D01*
X95088861Y-43150259D01*
X95226322Y-43317756D01*
X95303147Y-43461487D01*
X95328465Y-43508854D01*
X95391364Y-43716201D01*
X95412602Y-43931840D01*
X95391364Y-44147479D01*
X95362656Y-44242116D01*
X95328464Y-44354828D01*
X95226322Y-44545924D01*
X95088861Y-44713421D01*
X94921364Y-44850882D01*
X94730268Y-44953024D01*
X94730266Y-44953025D01*
X94522919Y-45015924D01*
X94361318Y-45031840D01*
X94253242Y-45031840D01*
X94091641Y-45015924D01*
X93884294Y-44953025D01*
X93884292Y-44953024D01*
X93693196Y-44850882D01*
X93525699Y-44713421D01*
X93388238Y-44545924D01*
X93286096Y-44354828D01*
X93251905Y-44242116D01*
X93223196Y-44147479D01*
X93201958Y-43931840D01*
X93223196Y-43716201D01*
X93286095Y-43508854D01*
X93311413Y-43461487D01*
X93388238Y-43317756D01*
X93525699Y-43150259D01*
X93693196Y-43012798D01*
X93884292Y-42910656D01*
X93884294Y-42910655D01*
X94091641Y-42847756D01*
X94253242Y-42831840D01*
X94361318Y-42831840D01*
X94522919Y-42847756D01*
X94522919Y-42847756D01*
G37*
G36*
X62522919Y-42847756D02*
X62730266Y-42910655D01*
X62730268Y-42910656D01*
X62921364Y-43012798D01*
X63088861Y-43150259D01*
X63226322Y-43317756D01*
X63303147Y-43461487D01*
X63328465Y-43508854D01*
X63391364Y-43716201D01*
X63412602Y-43931840D01*
X63391364Y-44147479D01*
X63362656Y-44242116D01*
X63328464Y-44354828D01*
X63226322Y-44545924D01*
X63088861Y-44713421D01*
X62921364Y-44850882D01*
X62730268Y-44953024D01*
X62730266Y-44953025D01*
X62522919Y-45015924D01*
X62361318Y-45031840D01*
X62253242Y-45031840D01*
X62091641Y-45015924D01*
X61884294Y-44953025D01*
X61884292Y-44953024D01*
X61693196Y-44850882D01*
X61525699Y-44713421D01*
X61388238Y-44545924D01*
X61286096Y-44354828D01*
X61251905Y-44242116D01*
X61223196Y-44147479D01*
X61201958Y-43931840D01*
X61223196Y-43716201D01*
X61286095Y-43508854D01*
X61311413Y-43461487D01*
X61388238Y-43317756D01*
X61525699Y-43150259D01*
X61693196Y-43012798D01*
X61884292Y-42910656D01*
X61884294Y-42910655D01*
X62091641Y-42847756D01*
X62253242Y-42831840D01*
X62361318Y-42831840D01*
X62522919Y-42847756D01*
X62522919Y-42847756D01*
G37*
G36*
X78522919Y-42847756D02*
X78730266Y-42910655D01*
X78730268Y-42910656D01*
X78921364Y-43012798D01*
X79088861Y-43150259D01*
X79226322Y-43317756D01*
X79303147Y-43461487D01*
X79328465Y-43508854D01*
X79391364Y-43716201D01*
X79412602Y-43931840D01*
X79391364Y-44147479D01*
X79362656Y-44242116D01*
X79328464Y-44354828D01*
X79226322Y-44545924D01*
X79088861Y-44713421D01*
X78921364Y-44850882D01*
X78730268Y-44953024D01*
X78730266Y-44953025D01*
X78522919Y-45015924D01*
X78361318Y-45031840D01*
X78253242Y-45031840D01*
X78091641Y-45015924D01*
X77884294Y-44953025D01*
X77884292Y-44953024D01*
X77693196Y-44850882D01*
X77525699Y-44713421D01*
X77388238Y-44545924D01*
X77286096Y-44354828D01*
X77251905Y-44242116D01*
X77223196Y-44147479D01*
X77201958Y-43931840D01*
X77223196Y-43716201D01*
X77286095Y-43508854D01*
X77311413Y-43461487D01*
X77388238Y-43317756D01*
X77525699Y-43150259D01*
X77693196Y-43012798D01*
X77884292Y-42910656D01*
X77884294Y-42910655D01*
X78091641Y-42847756D01*
X78253242Y-42831840D01*
X78361318Y-42831840D01*
X78522919Y-42847756D01*
X78522919Y-42847756D01*
G37*
M02*
