G04 #@! TF.GenerationSoftware,KiCad,Pcbnew,5.0.2-bee76a0~70~ubuntu16.04.1*
G04 #@! TF.CreationDate,2018-12-22T18:20:01+02:00*
G04 #@! TF.ProjectId,psg14a_power,70736731-3461-45f7-906f-7765722e6b69,rev?*
G04 #@! TF.SameCoordinates,Original*
G04 #@! TF.FileFunction,Legend,Top*
G04 #@! TF.FilePolarity,Positive*
%FSLAX46Y46*%
G04 Gerber Fmt 4.6, Leading zero omitted, Abs format (unit mm)*
G04 Created by KiCad (PCBNEW 5.0.2-bee76a0~70~ubuntu16.04.1) date сб, 22-гру-2018 18:20:01 +0200*
%MOMM*%
%LPD*%
G01*
G04 APERTURE LIST*
%ADD10C,0.300000*%
%ADD11C,0.250000*%
%ADD12C,0.150000*%
%ADD13C,0.120000*%
G04 APERTURE END LIST*
D10*
X90932071Y-78212142D02*
X92074928Y-78212142D01*
X91503500Y-78783571D02*
X91503500Y-77640714D01*
X82169071Y-78783642D02*
X83311928Y-78783642D01*
D11*
X62834071Y-83665142D02*
X62719785Y-83736571D01*
X62491214Y-83736571D01*
X62376928Y-83665142D01*
X62319785Y-83593714D01*
X62262642Y-83450857D01*
X62262642Y-83022285D01*
X62319785Y-82879428D01*
X62376928Y-82808000D01*
X62491214Y-82736571D01*
X62719785Y-82736571D01*
X62834071Y-82808000D01*
X63176928Y-82736571D02*
X63748357Y-82736571D01*
X63462642Y-82736571D02*
X63462642Y-83736571D01*
X64148357Y-83736571D02*
X64148357Y-82736571D01*
X64605500Y-82736571D01*
X65919785Y-83736571D02*
X65919785Y-82736571D01*
X66434071Y-82736571D01*
X66434071Y-83736571D01*
X66834071Y-82736571D02*
X67405500Y-82736571D01*
X67119785Y-82736571D02*
X67119785Y-83736571D01*
X69234071Y-83665142D02*
X69119785Y-83736571D01*
X68891214Y-83736571D01*
X68776928Y-83665142D01*
X68719785Y-83593714D01*
X68662642Y-83450857D01*
X68662642Y-83022285D01*
X68719785Y-82879428D01*
X68776928Y-82808000D01*
X68891214Y-82736571D01*
X69119785Y-82736571D01*
X69234071Y-82808000D01*
X70034071Y-83236571D02*
X70205500Y-83308000D01*
X70262642Y-83450857D01*
X70262642Y-83522285D01*
X70205500Y-83665142D01*
X70091214Y-83736571D01*
X69748357Y-83736571D01*
X69748357Y-82736571D01*
X70034071Y-82736571D01*
X70148357Y-82808000D01*
X70205500Y-82950857D01*
X70205500Y-83022285D01*
X70148357Y-83165142D01*
X70034071Y-83236571D01*
X69748357Y-83236571D01*
X72205500Y-82736571D02*
X72205500Y-83736571D01*
X71919785Y-82165142D02*
X71634071Y-83236571D01*
X72376928Y-83236571D01*
X74319785Y-82236571D02*
X73748357Y-82236571D01*
X73691214Y-82950857D01*
X73748357Y-82879428D01*
X73862642Y-82808000D01*
X74148357Y-82808000D01*
X74262642Y-82879428D01*
X74319785Y-82950857D01*
X74376928Y-83093714D01*
X74376928Y-83450857D01*
X74319785Y-83593714D01*
X74262642Y-83665142D01*
X74148357Y-83736571D01*
X73862642Y-83736571D01*
X73748357Y-83665142D01*
X73691214Y-83593714D01*
X76034071Y-82236571D02*
X76262642Y-82236571D01*
X76376928Y-82308000D01*
X76491214Y-82450857D01*
X76548357Y-82736571D01*
X76548357Y-83236571D01*
X76491214Y-83522285D01*
X76376928Y-83665142D01*
X76262642Y-83736571D01*
X76034071Y-83736571D01*
X75919785Y-83665142D01*
X75805500Y-83522285D01*
X75748357Y-83236571D01*
X75748357Y-82736571D01*
X75805500Y-82450857D01*
X75919785Y-82308000D01*
X76034071Y-82236571D01*
X37434071Y-83792142D02*
X37319785Y-83863571D01*
X37091214Y-83863571D01*
X36976928Y-83792142D01*
X36919785Y-83720714D01*
X36862642Y-83577857D01*
X36862642Y-83149285D01*
X36919785Y-83006428D01*
X36976928Y-82935000D01*
X37091214Y-82863571D01*
X37319785Y-82863571D01*
X37434071Y-82935000D01*
X37776928Y-82863571D02*
X38348357Y-82863571D01*
X38062642Y-82863571D02*
X38062642Y-83863571D01*
X38748357Y-83863571D02*
X38748357Y-82863571D01*
X39205500Y-82863571D01*
X40519785Y-83863571D02*
X40519785Y-82863571D01*
X41034071Y-82863571D01*
X41034071Y-83863571D01*
X41434071Y-82863571D02*
X42005500Y-82863571D01*
X41719785Y-82863571D02*
X41719785Y-83863571D01*
X43834071Y-83792142D02*
X43719785Y-83863571D01*
X43491214Y-83863571D01*
X43376928Y-83792142D01*
X43319785Y-83720714D01*
X43262642Y-83577857D01*
X43262642Y-83149285D01*
X43319785Y-83006428D01*
X43376928Y-82935000D01*
X43491214Y-82863571D01*
X43719785Y-82863571D01*
X43834071Y-82935000D01*
X44634071Y-83363571D02*
X44805500Y-83435000D01*
X44862642Y-83577857D01*
X44862642Y-83649285D01*
X44805500Y-83792142D01*
X44691214Y-83863571D01*
X44348357Y-83863571D01*
X44348357Y-82863571D01*
X44634071Y-82863571D01*
X44748357Y-82935000D01*
X44805500Y-83077857D01*
X44805500Y-83149285D01*
X44748357Y-83292142D01*
X44634071Y-83363571D01*
X44348357Y-83363571D01*
X46805500Y-82863571D02*
X46805500Y-83863571D01*
X46519785Y-82292142D02*
X46234071Y-83363571D01*
X46976928Y-83363571D01*
X48919785Y-82363571D02*
X48348357Y-82363571D01*
X48291214Y-83077857D01*
X48348357Y-83006428D01*
X48462642Y-82935000D01*
X48748357Y-82935000D01*
X48862642Y-83006428D01*
X48919785Y-83077857D01*
X48976928Y-83220714D01*
X48976928Y-83577857D01*
X48919785Y-83720714D01*
X48862642Y-83792142D01*
X48748357Y-83863571D01*
X48462642Y-83863571D01*
X48348357Y-83792142D01*
X48291214Y-83720714D01*
X50634071Y-82363571D02*
X50862642Y-82363571D01*
X50976928Y-82435000D01*
X51091214Y-82577857D01*
X51148357Y-82863571D01*
X51148357Y-83363571D01*
X51091214Y-83649285D01*
X50976928Y-83792142D01*
X50862642Y-83863571D01*
X50634071Y-83863571D01*
X50519785Y-83792142D01*
X50405500Y-83649285D01*
X50348357Y-83363571D01*
X50348357Y-82863571D01*
X50405500Y-82577857D01*
X50519785Y-82435000D01*
X50634071Y-82363571D01*
D10*
X65643571Y-73489357D02*
X65857857Y-73560785D01*
X65929285Y-73632214D01*
X66000714Y-73775071D01*
X66000714Y-73989357D01*
X65929285Y-74132214D01*
X65857857Y-74203642D01*
X65714999Y-74275071D01*
X65143571Y-74275071D01*
X65143571Y-72775071D01*
X65643571Y-72775071D01*
X65786428Y-72846500D01*
X65857857Y-72917928D01*
X65929285Y-73060785D01*
X65929285Y-73203642D01*
X65857857Y-73346500D01*
X65786428Y-73417928D01*
X65643571Y-73489357D01*
X65143571Y-73489357D01*
X67643571Y-73275071D02*
X67643571Y-74275071D01*
X66643571Y-73275071D02*
X66643571Y-74275071D01*
X67000714Y-74275071D01*
X67143571Y-74203642D01*
X67215000Y-74060785D01*
X67215000Y-73846500D01*
X67143571Y-73703642D01*
X67000714Y-73632214D01*
X66643571Y-73632214D01*
X68215000Y-74275071D02*
X69000714Y-73275071D01*
X68215000Y-73275071D02*
X69000714Y-74275071D01*
X69786428Y-74275071D02*
X69643571Y-74203642D01*
X69572142Y-74132214D01*
X69500714Y-73989357D01*
X69500714Y-73560785D01*
X69572142Y-73417928D01*
X69643571Y-73346500D01*
X69786428Y-73275071D01*
X70000714Y-73275071D01*
X70143571Y-73346500D01*
X70215000Y-73417928D01*
X70286428Y-73560785D01*
X70286428Y-73989357D01*
X70215000Y-74132214D01*
X70143571Y-74203642D01*
X70000714Y-74275071D01*
X69786428Y-74275071D01*
X71643571Y-73417928D02*
X71572142Y-73346500D01*
X71429285Y-73275071D01*
X71143571Y-73275071D01*
X71000714Y-73346500D01*
X70929285Y-73417928D01*
X70857857Y-73560785D01*
X70857857Y-73989357D01*
X70929285Y-74132214D01*
X71000714Y-74203642D01*
X71143571Y-74275071D01*
X71357857Y-74275071D01*
X71500714Y-74203642D01*
X71572142Y-74132214D01*
X71643571Y-73989357D01*
X71643571Y-73060785D01*
X71572142Y-72917928D01*
X71500714Y-72846500D01*
X71357857Y-72775071D01*
X71072142Y-72775071D01*
X70929285Y-72846500D01*
X73286428Y-73275071D02*
X73286428Y-74275071D01*
X72286428Y-73275071D02*
X72286428Y-74275071D01*
X72643571Y-74275071D01*
X72786428Y-74203642D01*
X72857857Y-74060785D01*
X72857857Y-73846500D01*
X72786428Y-73703642D01*
X72643571Y-73632214D01*
X72286428Y-73632214D01*
X41545214Y-73743357D02*
X41759500Y-73814785D01*
X41830928Y-73886214D01*
X41902357Y-74029071D01*
X41902357Y-74243357D01*
X41830928Y-74386214D01*
X41759500Y-74457642D01*
X41616642Y-74529071D01*
X41045214Y-74529071D01*
X41045214Y-73029071D01*
X41545214Y-73029071D01*
X41688071Y-73100500D01*
X41759500Y-73171928D01*
X41830928Y-73314785D01*
X41830928Y-73457642D01*
X41759500Y-73600500D01*
X41688071Y-73671928D01*
X41545214Y-73743357D01*
X41045214Y-73743357D01*
X42402357Y-74529071D02*
X43188071Y-73529071D01*
X42402357Y-73529071D02*
X43188071Y-74529071D01*
X43973785Y-74529071D02*
X43830928Y-74457642D01*
X43759500Y-74386214D01*
X43688071Y-74243357D01*
X43688071Y-73814785D01*
X43759500Y-73671928D01*
X43830928Y-73600500D01*
X43973785Y-73529071D01*
X44188071Y-73529071D01*
X44330928Y-73600500D01*
X44402357Y-73671928D01*
X44473785Y-73814785D01*
X44473785Y-74243357D01*
X44402357Y-74386214D01*
X44330928Y-74457642D01*
X44188071Y-74529071D01*
X43973785Y-74529071D01*
X45830928Y-73671928D02*
X45759500Y-73600500D01*
X45616642Y-73529071D01*
X45330928Y-73529071D01*
X45188071Y-73600500D01*
X45116642Y-73671928D01*
X45045214Y-73814785D01*
X45045214Y-74243357D01*
X45116642Y-74386214D01*
X45188071Y-74457642D01*
X45330928Y-74529071D01*
X45545214Y-74529071D01*
X45688071Y-74457642D01*
X45759500Y-74386214D01*
X45830928Y-74243357D01*
X45830928Y-73314785D01*
X45759500Y-73171928D01*
X45688071Y-73100500D01*
X45545214Y-73029071D01*
X45259500Y-73029071D01*
X45116642Y-73100500D01*
X47473785Y-73529071D02*
X47473785Y-74529071D01*
X46473785Y-73529071D02*
X46473785Y-74529071D01*
X46830928Y-74529071D01*
X46973785Y-74457642D01*
X47045214Y-74314785D01*
X47045214Y-74100500D01*
X46973785Y-73957642D01*
X46830928Y-73886214D01*
X46473785Y-73886214D01*
X109578214Y-53626857D02*
X109578214Y-52912571D01*
X110221071Y-52698285D02*
X110292500Y-52769714D01*
X110363928Y-52984000D01*
X110363928Y-53126857D01*
X110292500Y-53341142D01*
X110149642Y-53484000D01*
X110006785Y-53555428D01*
X109721071Y-53626857D01*
X109506785Y-53626857D01*
X109221071Y-53555428D01*
X109078214Y-53484000D01*
X108935357Y-53341142D01*
X108863928Y-53126857D01*
X108863928Y-52984000D01*
X108935357Y-52769714D01*
X109006785Y-52698285D01*
X108863928Y-54269714D02*
X109863928Y-54269714D01*
X109078214Y-54698285D01*
X109863928Y-55126857D01*
X108863928Y-55126857D01*
X109863928Y-55698285D02*
X108863928Y-56055428D01*
X109863928Y-56412571D02*
X108863928Y-56055428D01*
X108506785Y-55912571D01*
X108435357Y-55841142D01*
X108363928Y-55698285D01*
X108863928Y-57555428D02*
X109863928Y-57555428D01*
X109863928Y-57341142D01*
X109792500Y-57198285D01*
X109649642Y-57126857D01*
X109078214Y-57055428D01*
X108935357Y-56984000D01*
X108863928Y-56841142D01*
X109292500Y-58555428D02*
X108863928Y-58198285D01*
X108863928Y-58841142D02*
X109863928Y-58841142D01*
X109863928Y-58412571D01*
X109792500Y-58269714D01*
X109649642Y-58198285D01*
X109506785Y-58198285D01*
X109363928Y-58269714D01*
X109292500Y-58412571D01*
X109292500Y-58841142D01*
X109863928Y-59341142D02*
X109863928Y-60055428D01*
X109863928Y-59698285D02*
X108863928Y-59698285D01*
X108863928Y-60769714D02*
X108935357Y-60626857D01*
X109006785Y-60555428D01*
X109149642Y-60484000D01*
X109578214Y-60484000D01*
X109721071Y-60555428D01*
X109792500Y-60626857D01*
X109863928Y-60769714D01*
X109863928Y-60984000D01*
X109792500Y-61126857D01*
X109721071Y-61198285D01*
X109578214Y-61269714D01*
X109149642Y-61269714D01*
X109006785Y-61198285D01*
X108935357Y-61126857D01*
X108863928Y-60984000D01*
X108863928Y-60769714D01*
X109863928Y-61912571D02*
X108363928Y-61912571D01*
X109792500Y-61912571D02*
X109863928Y-62055428D01*
X109863928Y-62341142D01*
X109792500Y-62484000D01*
X109721071Y-62555428D01*
X109578214Y-62626857D01*
X109149642Y-62626857D01*
X109006785Y-62555428D01*
X108935357Y-62484000D01*
X108863928Y-62341142D01*
X108863928Y-62055428D01*
X108935357Y-61912571D01*
X108863928Y-64412571D02*
X110363928Y-64412571D01*
X110363928Y-65269714D01*
X108863928Y-65269714D01*
X109006785Y-66841142D02*
X108935357Y-66769714D01*
X108863928Y-66555428D01*
X108863928Y-66412571D01*
X108935357Y-66198285D01*
X109078214Y-66055428D01*
X109221071Y-65984000D01*
X109506785Y-65912571D01*
X109721071Y-65912571D01*
X110006785Y-65984000D01*
X110149642Y-66055428D01*
X110292500Y-66198285D01*
X110363928Y-66412571D01*
X110363928Y-66555428D01*
X110292500Y-66769714D01*
X110221071Y-66841142D01*
X108863928Y-67484000D02*
X110363928Y-67484000D01*
X110363928Y-68269714D01*
X108863928Y-69555428D02*
X108863928Y-68698285D01*
X108863928Y-69126857D02*
X110363928Y-69126857D01*
X110149642Y-68984000D01*
X110006785Y-68841142D01*
X109935357Y-68698285D01*
X109863928Y-70841142D02*
X108863928Y-70841142D01*
X110435357Y-70484000D02*
X109363928Y-70126857D01*
X109363928Y-71055428D01*
X109292500Y-71555428D02*
X109292500Y-72269714D01*
X108863928Y-71412571D02*
X110363928Y-71912571D01*
X108863928Y-72412571D01*
X106313928Y-45948285D02*
X107028214Y-45448285D01*
X106313928Y-45091142D02*
X107813928Y-45091142D01*
X107813928Y-45662571D01*
X107742500Y-45805428D01*
X107671071Y-45876857D01*
X107528214Y-45948285D01*
X107313928Y-45948285D01*
X107171071Y-45876857D01*
X107099642Y-45805428D01*
X107028214Y-45662571D01*
X107028214Y-45091142D01*
X106385357Y-47162571D02*
X106313928Y-47019714D01*
X106313928Y-46734000D01*
X106385357Y-46591142D01*
X106528214Y-46519714D01*
X107099642Y-46519714D01*
X107242500Y-46591142D01*
X107313928Y-46734000D01*
X107313928Y-47019714D01*
X107242500Y-47162571D01*
X107099642Y-47234000D01*
X106956785Y-47234000D01*
X106813928Y-46519714D01*
X107313928Y-47876857D02*
X106313928Y-47876857D01*
X107171071Y-47876857D02*
X107242500Y-47948285D01*
X107313928Y-48091142D01*
X107313928Y-48305428D01*
X107242500Y-48448285D01*
X107099642Y-48519714D01*
X106313928Y-48519714D01*
X106313928Y-49876857D02*
X107099642Y-49876857D01*
X107242500Y-49805428D01*
X107313928Y-49662571D01*
X107313928Y-49376857D01*
X107242500Y-49234000D01*
X106385357Y-49876857D02*
X106313928Y-49734000D01*
X106313928Y-49376857D01*
X106385357Y-49234000D01*
X106528214Y-49162571D01*
X106671071Y-49162571D01*
X106813928Y-49234000D01*
X106885357Y-49376857D01*
X106885357Y-49734000D01*
X106956785Y-49876857D01*
X107313928Y-51234000D02*
X106313928Y-51234000D01*
X107313928Y-50591142D02*
X106528214Y-50591142D01*
X106385357Y-50662571D01*
X106313928Y-50805428D01*
X106313928Y-51019714D01*
X106385357Y-51162571D01*
X106456785Y-51234000D01*
X106313928Y-52162571D02*
X106385357Y-52019714D01*
X106528214Y-51948285D01*
X107813928Y-51948285D01*
X107313928Y-52519714D02*
X107313928Y-53091142D01*
X107813928Y-52734000D02*
X106528214Y-52734000D01*
X106385357Y-52805428D01*
X106313928Y-52948285D01*
X106313928Y-53091142D01*
X106456785Y-55591142D02*
X106385357Y-55519714D01*
X106313928Y-55305428D01*
X106313928Y-55162571D01*
X106385357Y-54948285D01*
X106528214Y-54805428D01*
X106671071Y-54734000D01*
X106956785Y-54662571D01*
X107171071Y-54662571D01*
X107456785Y-54734000D01*
X107599642Y-54805428D01*
X107742500Y-54948285D01*
X107813928Y-55162571D01*
X107813928Y-55305428D01*
X107742500Y-55519714D01*
X107671071Y-55591142D01*
X106313928Y-56448285D02*
X106385357Y-56305428D01*
X106528214Y-56234000D01*
X107813928Y-56234000D01*
X107313928Y-57662571D02*
X106313928Y-57662571D01*
X107313928Y-57019714D02*
X106528214Y-57019714D01*
X106385357Y-57091142D01*
X106313928Y-57234000D01*
X106313928Y-57448285D01*
X106385357Y-57591142D01*
X106456785Y-57662571D01*
X106313928Y-58376857D02*
X107813928Y-58376857D01*
X107242500Y-58376857D02*
X107313928Y-58519714D01*
X107313928Y-58805428D01*
X107242500Y-58948285D01*
X107171071Y-59019714D01*
X107028214Y-59091142D01*
X106599642Y-59091142D01*
X106456785Y-59019714D01*
X106385357Y-58948285D01*
X106313928Y-58805428D01*
X106313928Y-58519714D01*
X106385357Y-58376857D01*
X106313928Y-60876857D02*
X107813928Y-60876857D01*
X106313928Y-61734000D02*
X107171071Y-61091142D01*
X107813928Y-61734000D02*
X106956785Y-60876857D01*
X106313928Y-62376857D02*
X107813928Y-62376857D01*
X106313928Y-63019714D02*
X107099642Y-63019714D01*
X107242500Y-62948285D01*
X107313928Y-62805428D01*
X107313928Y-62591142D01*
X107242500Y-62448285D01*
X107171071Y-62376857D01*
X106313928Y-64376857D02*
X107099642Y-64376857D01*
X107242500Y-64305428D01*
X107313928Y-64162571D01*
X107313928Y-63876857D01*
X107242500Y-63734000D01*
X106385357Y-64376857D02*
X106313928Y-64234000D01*
X106313928Y-63876857D01*
X106385357Y-63734000D01*
X106528214Y-63662571D01*
X106671071Y-63662571D01*
X106813928Y-63734000D01*
X106885357Y-63876857D01*
X106885357Y-64234000D01*
X106956785Y-64376857D01*
X106313928Y-65091142D02*
X107313928Y-65091142D01*
X107028214Y-65091142D02*
X107171071Y-65162571D01*
X107242500Y-65234000D01*
X107313928Y-65376857D01*
X107313928Y-65519714D01*
X106313928Y-66019714D02*
X107813928Y-66019714D01*
X106885357Y-66162571D02*
X106313928Y-66591142D01*
X107313928Y-66591142D02*
X106742500Y-66019714D01*
X106313928Y-67234000D02*
X107313928Y-67234000D01*
X107813928Y-67234000D02*
X107742500Y-67162571D01*
X107671071Y-67234000D01*
X107742500Y-67305428D01*
X107813928Y-67234000D01*
X107671071Y-67234000D01*
X107313928Y-67805428D02*
X106313928Y-68162571D01*
X107313928Y-68519714D01*
X105742500Y-70662571D02*
X105813928Y-70591142D01*
X106028214Y-70448285D01*
X106171071Y-70376857D01*
X106385357Y-70305428D01*
X106742500Y-70234000D01*
X107028214Y-70234000D01*
X107385357Y-70305428D01*
X107599642Y-70376857D01*
X107742500Y-70448285D01*
X107956785Y-70591142D01*
X108028214Y-70662571D01*
X106456785Y-72091142D02*
X106385357Y-72019714D01*
X106313928Y-71805428D01*
X106313928Y-71662571D01*
X106385357Y-71448285D01*
X106528214Y-71305428D01*
X106671071Y-71234000D01*
X106956785Y-71162571D01*
X107171071Y-71162571D01*
X107456785Y-71234000D01*
X107599642Y-71305428D01*
X107742500Y-71448285D01*
X107813928Y-71662571D01*
X107813928Y-71805428D01*
X107742500Y-72019714D01*
X107671071Y-72091142D01*
X105742500Y-72591142D02*
X105813928Y-72662571D01*
X106028214Y-72805428D01*
X106171071Y-72876857D01*
X106385357Y-72948285D01*
X106742500Y-73019714D01*
X107028214Y-73019714D01*
X107385357Y-72948285D01*
X107599642Y-72876857D01*
X107742500Y-72805428D01*
X107956785Y-72662571D01*
X108028214Y-72591142D01*
X107671071Y-74805428D02*
X107742500Y-74876857D01*
X107813928Y-75019714D01*
X107813928Y-75376857D01*
X107742500Y-75519714D01*
X107671071Y-75591142D01*
X107528214Y-75662571D01*
X107385357Y-75662571D01*
X107171071Y-75591142D01*
X106313928Y-74734000D01*
X106313928Y-75662571D01*
X107813928Y-76591142D02*
X107813928Y-76734000D01*
X107742500Y-76876857D01*
X107671071Y-76948285D01*
X107528214Y-77019714D01*
X107242500Y-77091142D01*
X106885357Y-77091142D01*
X106599642Y-77019714D01*
X106456785Y-76948285D01*
X106385357Y-76876857D01*
X106313928Y-76734000D01*
X106313928Y-76591142D01*
X106385357Y-76448285D01*
X106456785Y-76376857D01*
X106599642Y-76305428D01*
X106885357Y-76234000D01*
X107242500Y-76234000D01*
X107528214Y-76305428D01*
X107671071Y-76376857D01*
X107742500Y-76448285D01*
X107813928Y-76591142D01*
X106313928Y-78519714D02*
X106313928Y-77662571D01*
X106313928Y-78091142D02*
X107813928Y-78091142D01*
X107599642Y-77948285D01*
X107456785Y-77805428D01*
X107385357Y-77662571D01*
X107171071Y-79376857D02*
X107242500Y-79234000D01*
X107313928Y-79162571D01*
X107456785Y-79091142D01*
X107528214Y-79091142D01*
X107671071Y-79162571D01*
X107742500Y-79234000D01*
X107813928Y-79376857D01*
X107813928Y-79662571D01*
X107742500Y-79805428D01*
X107671071Y-79876857D01*
X107528214Y-79948285D01*
X107456785Y-79948285D01*
X107313928Y-79876857D01*
X107242500Y-79805428D01*
X107171071Y-79662571D01*
X107171071Y-79376857D01*
X107099642Y-79234000D01*
X107028214Y-79162571D01*
X106885357Y-79091142D01*
X106599642Y-79091142D01*
X106456785Y-79162571D01*
X106385357Y-79234000D01*
X106313928Y-79376857D01*
X106313928Y-79662571D01*
X106385357Y-79805428D01*
X106456785Y-79876857D01*
X106599642Y-79948285D01*
X106885357Y-79948285D01*
X107028214Y-79876857D01*
X107099642Y-79805428D01*
X107171071Y-79662571D01*
D12*
G04 #@! TO.C,J1*
X91292500Y-75576500D02*
X84292500Y-75576500D01*
X91292500Y-83176500D02*
X91292500Y-75576500D01*
X84292500Y-75576500D02*
X84292500Y-83176500D01*
X84292500Y-82776500D02*
X91292500Y-82776500D01*
X84292500Y-81676500D02*
X91292500Y-81676500D01*
X87792500Y-82776500D02*
X87792500Y-83176500D01*
D13*
G04 #@! TO.C,D16*
X104750000Y-76800000D02*
X103250000Y-76800000D01*
X104750000Y-76800000D02*
X104750000Y-80000000D01*
X103250000Y-80000000D02*
X103250000Y-76800000D01*
G04 #@! TO.C,R16*
X101880000Y-78400000D02*
X101880000Y-79600000D01*
X100120000Y-79600000D02*
X100120000Y-78400000D01*
G04 #@! TO.C,C2*
X32972120Y-70420600D02*
X33972120Y-70420600D01*
X33972120Y-68720600D02*
X32972120Y-68720600D01*
G04 #@! TO.C,C3*
X43760560Y-53749320D02*
X43760560Y-54749320D01*
X45460560Y-54749320D02*
X45460560Y-53749320D01*
G04 #@! TO.C,C4*
X48972120Y-70420600D02*
X49972120Y-70420600D01*
X49972120Y-68720600D02*
X48972120Y-68720600D01*
G04 #@! TO.C,C5*
X59760560Y-53749320D02*
X59760560Y-54749320D01*
X61460560Y-54749320D02*
X61460560Y-53749320D01*
G04 #@! TO.C,C6*
X64972120Y-70420600D02*
X65972120Y-70420600D01*
X65972120Y-68720600D02*
X64972120Y-68720600D01*
G04 #@! TO.C,C7*
X75760560Y-53749320D02*
X75760560Y-54749320D01*
X77460560Y-54749320D02*
X77460560Y-53749320D01*
G04 #@! TO.C,C8*
X80972120Y-70420600D02*
X81972120Y-70420600D01*
X81972120Y-68720600D02*
X80972120Y-68720600D01*
G04 #@! TO.C,C9*
X91760560Y-53749320D02*
X91760560Y-54749320D01*
X93460560Y-54749320D02*
X93460560Y-53749320D01*
G04 #@! TO.C,C10*
X96972120Y-70420600D02*
X97972120Y-70420600D01*
X97972120Y-68720600D02*
X96972120Y-68720600D01*
G04 #@! TO.C,C1*
X27760560Y-53749320D02*
X27760560Y-54749320D01*
X29460560Y-54749320D02*
X29460560Y-53749320D01*
G04 #@! TO.C,D15*
X95698195Y-60457080D02*
X97687560Y-60457080D01*
X95954893Y-59568080D02*
X95954893Y-61346080D01*
X95954893Y-60457080D02*
X97140227Y-59568080D01*
X97140227Y-59568080D02*
X97140227Y-61346080D01*
X97140227Y-61346080D02*
X95954893Y-60457080D01*
X95698195Y-60457080D02*
G75*
G03X95698195Y-60457080I-1690635J0D01*
G01*
G04 #@! TO.C,D13*
X95997915Y-49011840D02*
G75*
G03X95997915Y-49011840I-1690635J0D01*
G01*
X95196280Y-45879173D02*
X94307280Y-47064507D01*
X93418280Y-45879173D02*
X95196280Y-45879173D01*
X94307280Y-47064507D02*
X93418280Y-45879173D01*
X93418280Y-47064507D02*
X95196280Y-47064507D01*
X94307280Y-47321205D02*
X94307280Y-45331840D01*
G04 #@! TO.C,D1*
X30307280Y-47321205D02*
X30307280Y-45331840D01*
X29418280Y-47064507D02*
X31196280Y-47064507D01*
X30307280Y-47064507D02*
X29418280Y-45879173D01*
X29418280Y-45879173D02*
X31196280Y-45879173D01*
X31196280Y-45879173D02*
X30307280Y-47064507D01*
X31997915Y-49011840D02*
G75*
G03X31997915Y-49011840I-1690635J0D01*
G01*
G04 #@! TO.C,D3*
X31698195Y-60457080D02*
G75*
G03X31698195Y-60457080I-1690635J0D01*
G01*
X33140227Y-61346080D02*
X31954893Y-60457080D01*
X33140227Y-59568080D02*
X33140227Y-61346080D01*
X31954893Y-60457080D02*
X33140227Y-59568080D01*
X31954893Y-59568080D02*
X31954893Y-61346080D01*
X31698195Y-60457080D02*
X33687560Y-60457080D01*
G04 #@! TO.C,D4*
X46307280Y-47321205D02*
X46307280Y-45331840D01*
X45418280Y-47064507D02*
X47196280Y-47064507D01*
X46307280Y-47064507D02*
X45418280Y-45879173D01*
X45418280Y-45879173D02*
X47196280Y-45879173D01*
X47196280Y-45879173D02*
X46307280Y-47064507D01*
X47997915Y-49011840D02*
G75*
G03X47997915Y-49011840I-1690635J0D01*
G01*
G04 #@! TO.C,D6*
X47698195Y-60457080D02*
G75*
G03X47698195Y-60457080I-1690635J0D01*
G01*
X49140227Y-61346080D02*
X47954893Y-60457080D01*
X49140227Y-59568080D02*
X49140227Y-61346080D01*
X47954893Y-60457080D02*
X49140227Y-59568080D01*
X47954893Y-59568080D02*
X47954893Y-61346080D01*
X47698195Y-60457080D02*
X49687560Y-60457080D01*
G04 #@! TO.C,D7*
X62307280Y-47321205D02*
X62307280Y-45331840D01*
X61418280Y-47064507D02*
X63196280Y-47064507D01*
X62307280Y-47064507D02*
X61418280Y-45879173D01*
X61418280Y-45879173D02*
X63196280Y-45879173D01*
X63196280Y-45879173D02*
X62307280Y-47064507D01*
X63997915Y-49011840D02*
G75*
G03X63997915Y-49011840I-1690635J0D01*
G01*
G04 #@! TO.C,D9*
X63698195Y-60457080D02*
G75*
G03X63698195Y-60457080I-1690635J0D01*
G01*
X65140227Y-61346080D02*
X63954893Y-60457080D01*
X65140227Y-59568080D02*
X65140227Y-61346080D01*
X63954893Y-60457080D02*
X65140227Y-59568080D01*
X63954893Y-59568080D02*
X63954893Y-61346080D01*
X63698195Y-60457080D02*
X65687560Y-60457080D01*
G04 #@! TO.C,D10*
X78307280Y-47321205D02*
X78307280Y-45331840D01*
X77418280Y-47064507D02*
X79196280Y-47064507D01*
X78307280Y-47064507D02*
X77418280Y-45879173D01*
X77418280Y-45879173D02*
X79196280Y-45879173D01*
X79196280Y-45879173D02*
X78307280Y-47064507D01*
X79997915Y-49011840D02*
G75*
G03X79997915Y-49011840I-1690635J0D01*
G01*
G04 #@! TO.C,D12*
X79698195Y-60457080D02*
G75*
G03X79698195Y-60457080I-1690635J0D01*
G01*
X81140227Y-61346080D02*
X79954893Y-60457080D01*
X81140227Y-59568080D02*
X81140227Y-61346080D01*
X79954893Y-60457080D02*
X81140227Y-59568080D01*
X79954893Y-59568080D02*
X79954893Y-61346080D01*
X79698195Y-60457080D02*
X81687560Y-60457080D01*
G04 #@! TO.C,D8*
X60658120Y-68219680D02*
X62158120Y-68219680D01*
X60658120Y-68219680D02*
X60658120Y-65019680D01*
X62158120Y-65019680D02*
X62158120Y-68219680D01*
G04 #@! TO.C,D5*
X46158120Y-65019680D02*
X46158120Y-68219680D01*
X44658120Y-68219680D02*
X44658120Y-65019680D01*
X44658120Y-68219680D02*
X46158120Y-68219680D01*
G04 #@! TO.C,D11*
X76658120Y-68219680D02*
X78158120Y-68219680D01*
X76658120Y-68219680D02*
X76658120Y-65019680D01*
X78158120Y-65019680D02*
X78158120Y-68219680D01*
G04 #@! TO.C,D14*
X94158120Y-65019680D02*
X94158120Y-68219680D01*
X92658120Y-68219680D02*
X92658120Y-65019680D01*
X92658120Y-68219680D02*
X94158120Y-68219680D01*
G04 #@! TO.C,D2*
X28658120Y-68219680D02*
X30158120Y-68219680D01*
X28658120Y-68219680D02*
X28658120Y-65019680D01*
X30158120Y-65019680D02*
X30158120Y-68219680D01*
G04 #@! TO.C,R15*
X97014360Y-63788400D02*
X98214360Y-63788400D01*
X98214360Y-65548400D02*
X97014360Y-65548400D01*
G04 #@! TO.C,R1*
X36612120Y-56729520D02*
X35412120Y-56729520D01*
X35412120Y-54969520D02*
X36612120Y-54969520D01*
G04 #@! TO.C,R2*
X32203280Y-53781400D02*
X32203280Y-54981400D01*
X30443280Y-54981400D02*
X30443280Y-53781400D01*
G04 #@! TO.C,R3*
X34214360Y-65548400D02*
X33014360Y-65548400D01*
X33014360Y-63788400D02*
X34214360Y-63788400D01*
G04 #@! TO.C,R4*
X51412120Y-54969520D02*
X52612120Y-54969520D01*
X52612120Y-56729520D02*
X51412120Y-56729520D01*
G04 #@! TO.C,R6*
X50214360Y-65548400D02*
X49014360Y-65548400D01*
X49014360Y-63788400D02*
X50214360Y-63788400D01*
G04 #@! TO.C,R7*
X67412120Y-54969520D02*
X68612120Y-54969520D01*
X68612120Y-56729520D02*
X67412120Y-56729520D01*
G04 #@! TO.C,R8*
X62443280Y-54981400D02*
X62443280Y-53781400D01*
X64203280Y-53781400D02*
X64203280Y-54981400D01*
G04 #@! TO.C,R9*
X65014360Y-63788400D02*
X66214360Y-63788400D01*
X66214360Y-65548400D02*
X65014360Y-65548400D01*
G04 #@! TO.C,R10*
X84612120Y-56729520D02*
X83412120Y-56729520D01*
X83412120Y-54969520D02*
X84612120Y-54969520D01*
G04 #@! TO.C,R11*
X80203280Y-53781400D02*
X80203280Y-54981400D01*
X78443280Y-54981400D02*
X78443280Y-53781400D01*
G04 #@! TO.C,R12*
X82214360Y-65548400D02*
X81014360Y-65548400D01*
X81014360Y-63788400D02*
X82214360Y-63788400D01*
G04 #@! TO.C,R13*
X99412120Y-54969520D02*
X100612120Y-54969520D01*
X100612120Y-56729520D02*
X99412120Y-56729520D01*
G04 #@! TO.C,R14*
X94443280Y-54981400D02*
X94443280Y-53781400D01*
X96203280Y-53781400D02*
X96203280Y-54981400D01*
G04 #@! TO.C,R5*
X48203280Y-53781400D02*
X48203280Y-54981400D01*
X46443280Y-54981400D02*
X46443280Y-53781400D01*
G04 #@! TO.C,Q5*
X97539440Y-45687640D02*
X99049440Y-45687640D01*
X97539440Y-49388640D02*
X99049440Y-49388640D01*
X99049440Y-52658640D02*
X99049440Y-42418640D01*
X97539440Y-42418640D02*
X102180440Y-42418640D01*
X97539440Y-52658640D02*
X102180440Y-52658640D01*
X102180440Y-52658640D02*
X102180440Y-42418640D01*
X97539440Y-52658640D02*
X97539440Y-42418640D01*
G04 #@! TO.C,Q4*
X81539440Y-52658640D02*
X81539440Y-42418640D01*
X86180440Y-52658640D02*
X86180440Y-42418640D01*
X81539440Y-52658640D02*
X86180440Y-52658640D01*
X81539440Y-42418640D02*
X86180440Y-42418640D01*
X83049440Y-52658640D02*
X83049440Y-42418640D01*
X81539440Y-49388640D02*
X83049440Y-49388640D01*
X81539440Y-45687640D02*
X83049440Y-45687640D01*
G04 #@! TO.C,Q3*
X65539440Y-45687640D02*
X67049440Y-45687640D01*
X65539440Y-49388640D02*
X67049440Y-49388640D01*
X67049440Y-52658640D02*
X67049440Y-42418640D01*
X65539440Y-42418640D02*
X70180440Y-42418640D01*
X65539440Y-52658640D02*
X70180440Y-52658640D01*
X70180440Y-52658640D02*
X70180440Y-42418640D01*
X65539440Y-52658640D02*
X65539440Y-42418640D01*
G04 #@! TO.C,Q2*
X49539440Y-52658640D02*
X49539440Y-42418640D01*
X54180440Y-52658640D02*
X54180440Y-42418640D01*
X49539440Y-52658640D02*
X54180440Y-52658640D01*
X49539440Y-42418640D02*
X54180440Y-42418640D01*
X51049440Y-52658640D02*
X51049440Y-42418640D01*
X49539440Y-49388640D02*
X51049440Y-49388640D01*
X49539440Y-45687640D02*
X51049440Y-45687640D01*
G04 #@! TO.C,Q1*
X33539440Y-52658640D02*
X33539440Y-42418640D01*
X38180440Y-52658640D02*
X38180440Y-42418640D01*
X33539440Y-52658640D02*
X38180440Y-52658640D01*
X33539440Y-42418640D02*
X38180440Y-42418640D01*
X35049440Y-52658640D02*
X35049440Y-42418640D01*
X33539440Y-49388640D02*
X35049440Y-49388640D01*
X33539440Y-45687640D02*
X35049440Y-45687640D01*
D12*
G04 #@! TO.C,J3*
X77431900Y-75577700D02*
X61633100Y-75577700D01*
X77431900Y-75976480D02*
X61633100Y-75976480D01*
X61633100Y-81775300D02*
X77431900Y-81775300D01*
X77431900Y-81277460D02*
X61633100Y-81277460D01*
X74632820Y-81277460D02*
X74632820Y-81775300D01*
X72031860Y-81277460D02*
X72031860Y-81775300D01*
X69529960Y-81277460D02*
X69529960Y-81775300D01*
X67033140Y-81277460D02*
X67033140Y-81775300D01*
X61836300Y-81775300D02*
X61836300Y-81277460D01*
X77228700Y-81277460D02*
X77228700Y-81775300D01*
X64434720Y-81775300D02*
X64434720Y-81277460D01*
X77426820Y-81775300D02*
X77426820Y-75577700D01*
X61638180Y-75577700D02*
X61638180Y-81775300D01*
G04 #@! TO.C,J2*
X36682680Y-75514200D02*
X36682680Y-81711800D01*
X52471320Y-81711800D02*
X52471320Y-75514200D01*
X39479220Y-81711800D02*
X39479220Y-81213960D01*
X52273200Y-81213960D02*
X52273200Y-81711800D01*
X36880800Y-81711800D02*
X36880800Y-81213960D01*
X42077640Y-81213960D02*
X42077640Y-81711800D01*
X44574460Y-81213960D02*
X44574460Y-81711800D01*
X47076360Y-81213960D02*
X47076360Y-81711800D01*
X49677320Y-81213960D02*
X49677320Y-81711800D01*
X52476400Y-81213960D02*
X36677600Y-81213960D01*
X36677600Y-81711800D02*
X52476400Y-81711800D01*
X52476400Y-75912980D02*
X36677600Y-75912980D01*
X52476400Y-75514200D02*
X36677600Y-75514200D01*
G04 #@! TO.C,J1*
X87459166Y-73828880D02*
X87459166Y-74543166D01*
X87411547Y-74686023D01*
X87316309Y-74781261D01*
X87173452Y-74828880D01*
X87078214Y-74828880D01*
X88459166Y-74828880D02*
X87887738Y-74828880D01*
X88173452Y-74828880D02*
X88173452Y-73828880D01*
X88078214Y-73971738D01*
X87982976Y-74066976D01*
X87887738Y-74114595D01*
G04 #@! TO.C,H3*
X109238095Y-41252380D02*
X109238095Y-40252380D01*
X109238095Y-40728571D02*
X109809523Y-40728571D01*
X109809523Y-41252380D02*
X109809523Y-40252380D01*
X110190476Y-40252380D02*
X110809523Y-40252380D01*
X110476190Y-40633333D01*
X110619047Y-40633333D01*
X110714285Y-40680952D01*
X110761904Y-40728571D01*
X110809523Y-40823809D01*
X110809523Y-41061904D01*
X110761904Y-41157142D01*
X110714285Y-41204761D01*
X110619047Y-41252380D01*
X110333333Y-41252380D01*
X110238095Y-41204761D01*
X110190476Y-41157142D01*
G04 #@! TO.C,H1*
X109238095Y-77252380D02*
X109238095Y-76252380D01*
X109238095Y-76728571D02*
X109809523Y-76728571D01*
X109809523Y-77252380D02*
X109809523Y-76252380D01*
X110809523Y-77252380D02*
X110238095Y-77252380D01*
X110523809Y-77252380D02*
X110523809Y-76252380D01*
X110428571Y-76395238D01*
X110333333Y-76490476D01*
X110238095Y-76538095D01*
G04 #@! TO.C,H2*
X29238095Y-77252380D02*
X29238095Y-76252380D01*
X29238095Y-76728571D02*
X29809523Y-76728571D01*
X29809523Y-77252380D02*
X29809523Y-76252380D01*
X30238095Y-76347619D02*
X30285714Y-76300000D01*
X30380952Y-76252380D01*
X30619047Y-76252380D01*
X30714285Y-76300000D01*
X30761904Y-76347619D01*
X30809523Y-76442857D01*
X30809523Y-76538095D01*
X30761904Y-76680952D01*
X30190476Y-77252380D01*
X30809523Y-77252380D01*
G04 #@! TO.C,D16*
X106152380Y-80214285D02*
X105152380Y-80214285D01*
X105152380Y-79976190D01*
X105200000Y-79833333D01*
X105295238Y-79738095D01*
X105390476Y-79690476D01*
X105580952Y-79642857D01*
X105723809Y-79642857D01*
X105914285Y-79690476D01*
X106009523Y-79738095D01*
X106104761Y-79833333D01*
X106152380Y-79976190D01*
X106152380Y-80214285D01*
X106152380Y-78690476D02*
X106152380Y-79261904D01*
X106152380Y-78976190D02*
X105152380Y-78976190D01*
X105295238Y-79071428D01*
X105390476Y-79166666D01*
X105438095Y-79261904D01*
X105152380Y-77833333D02*
X105152380Y-78023809D01*
X105200000Y-78119047D01*
X105247619Y-78166666D01*
X105390476Y-78261904D01*
X105580952Y-78309523D01*
X105961904Y-78309523D01*
X106057142Y-78261904D01*
X106104761Y-78214285D01*
X106152380Y-78119047D01*
X106152380Y-77928571D01*
X106104761Y-77833333D01*
X106057142Y-77785714D01*
X105961904Y-77738095D01*
X105723809Y-77738095D01*
X105628571Y-77785714D01*
X105580952Y-77833333D01*
X105533333Y-77928571D01*
X105533333Y-78119047D01*
X105580952Y-78214285D01*
X105628571Y-78261904D01*
X105723809Y-78309523D01*
G04 #@! TO.C,R16*
X103152380Y-79642857D02*
X102676190Y-79976190D01*
X103152380Y-80214285D02*
X102152380Y-80214285D01*
X102152380Y-79833333D01*
X102200000Y-79738095D01*
X102247619Y-79690476D01*
X102342857Y-79642857D01*
X102485714Y-79642857D01*
X102580952Y-79690476D01*
X102628571Y-79738095D01*
X102676190Y-79833333D01*
X102676190Y-80214285D01*
X103152380Y-78690476D02*
X103152380Y-79261904D01*
X103152380Y-78976190D02*
X102152380Y-78976190D01*
X102295238Y-79071428D01*
X102390476Y-79166666D01*
X102438095Y-79261904D01*
X102152380Y-77833333D02*
X102152380Y-78023809D01*
X102200000Y-78119047D01*
X102247619Y-78166666D01*
X102390476Y-78261904D01*
X102580952Y-78309523D01*
X102961904Y-78309523D01*
X103057142Y-78261904D01*
X103104761Y-78214285D01*
X103152380Y-78119047D01*
X103152380Y-77928571D01*
X103104761Y-77833333D01*
X103057142Y-77785714D01*
X102961904Y-77738095D01*
X102723809Y-77738095D01*
X102628571Y-77785714D01*
X102580952Y-77833333D01*
X102533333Y-77928571D01*
X102533333Y-78119047D01*
X102580952Y-78214285D01*
X102628571Y-78261904D01*
X102723809Y-78309523D01*
G04 #@! TO.C,C2*
X33305453Y-71677742D02*
X33257834Y-71725361D01*
X33114977Y-71772980D01*
X33019739Y-71772980D01*
X32876881Y-71725361D01*
X32781643Y-71630123D01*
X32734024Y-71534885D01*
X32686405Y-71344409D01*
X32686405Y-71201552D01*
X32734024Y-71011076D01*
X32781643Y-70915838D01*
X32876881Y-70820600D01*
X33019739Y-70772980D01*
X33114977Y-70772980D01*
X33257834Y-70820600D01*
X33305453Y-70868219D01*
X33686405Y-70868219D02*
X33734024Y-70820600D01*
X33829262Y-70772980D01*
X34067358Y-70772980D01*
X34162596Y-70820600D01*
X34210215Y-70868219D01*
X34257834Y-70963457D01*
X34257834Y-71058695D01*
X34210215Y-71201552D01*
X33638786Y-71772980D01*
X34257834Y-71772980D01*
G04 #@! TO.C,C3*
X46717702Y-54415986D02*
X46765321Y-54463605D01*
X46812940Y-54606462D01*
X46812940Y-54701700D01*
X46765321Y-54844558D01*
X46670083Y-54939796D01*
X46574845Y-54987415D01*
X46384369Y-55035034D01*
X46241512Y-55035034D01*
X46051036Y-54987415D01*
X45955798Y-54939796D01*
X45860560Y-54844558D01*
X45812940Y-54701700D01*
X45812940Y-54606462D01*
X45860560Y-54463605D01*
X45908179Y-54415986D01*
X45812940Y-54082653D02*
X45812940Y-53463605D01*
X46193893Y-53796939D01*
X46193893Y-53654081D01*
X46241512Y-53558843D01*
X46289131Y-53511224D01*
X46384369Y-53463605D01*
X46622464Y-53463605D01*
X46717702Y-53511224D01*
X46765321Y-53558843D01*
X46812940Y-53654081D01*
X46812940Y-53939796D01*
X46765321Y-54035034D01*
X46717702Y-54082653D01*
G04 #@! TO.C,C4*
X49305453Y-71677742D02*
X49257834Y-71725361D01*
X49114977Y-71772980D01*
X49019739Y-71772980D01*
X48876881Y-71725361D01*
X48781643Y-71630123D01*
X48734024Y-71534885D01*
X48686405Y-71344409D01*
X48686405Y-71201552D01*
X48734024Y-71011076D01*
X48781643Y-70915838D01*
X48876881Y-70820600D01*
X49019739Y-70772980D01*
X49114977Y-70772980D01*
X49257834Y-70820600D01*
X49305453Y-70868219D01*
X50162596Y-71106314D02*
X50162596Y-71772980D01*
X49924500Y-70725361D02*
X49686405Y-71439647D01*
X50305453Y-71439647D01*
G04 #@! TO.C,C5*
X62717702Y-54415986D02*
X62765321Y-54463605D01*
X62812940Y-54606462D01*
X62812940Y-54701700D01*
X62765321Y-54844558D01*
X62670083Y-54939796D01*
X62574845Y-54987415D01*
X62384369Y-55035034D01*
X62241512Y-55035034D01*
X62051036Y-54987415D01*
X61955798Y-54939796D01*
X61860560Y-54844558D01*
X61812940Y-54701700D01*
X61812940Y-54606462D01*
X61860560Y-54463605D01*
X61908179Y-54415986D01*
X61812940Y-53511224D02*
X61812940Y-53987415D01*
X62289131Y-54035034D01*
X62241512Y-53987415D01*
X62193893Y-53892177D01*
X62193893Y-53654081D01*
X62241512Y-53558843D01*
X62289131Y-53511224D01*
X62384369Y-53463605D01*
X62622464Y-53463605D01*
X62717702Y-53511224D01*
X62765321Y-53558843D01*
X62812940Y-53654081D01*
X62812940Y-53892177D01*
X62765321Y-53987415D01*
X62717702Y-54035034D01*
G04 #@! TO.C,C6*
X65305453Y-71677742D02*
X65257834Y-71725361D01*
X65114977Y-71772980D01*
X65019739Y-71772980D01*
X64876881Y-71725361D01*
X64781643Y-71630123D01*
X64734024Y-71534885D01*
X64686405Y-71344409D01*
X64686405Y-71201552D01*
X64734024Y-71011076D01*
X64781643Y-70915838D01*
X64876881Y-70820600D01*
X65019739Y-70772980D01*
X65114977Y-70772980D01*
X65257834Y-70820600D01*
X65305453Y-70868219D01*
X66162596Y-70772980D02*
X65972120Y-70772980D01*
X65876881Y-70820600D01*
X65829262Y-70868219D01*
X65734024Y-71011076D01*
X65686405Y-71201552D01*
X65686405Y-71582504D01*
X65734024Y-71677742D01*
X65781643Y-71725361D01*
X65876881Y-71772980D01*
X66067358Y-71772980D01*
X66162596Y-71725361D01*
X66210215Y-71677742D01*
X66257834Y-71582504D01*
X66257834Y-71344409D01*
X66210215Y-71249171D01*
X66162596Y-71201552D01*
X66067358Y-71153933D01*
X65876881Y-71153933D01*
X65781643Y-71201552D01*
X65734024Y-71249171D01*
X65686405Y-71344409D01*
G04 #@! TO.C,C7*
X78717702Y-54415986D02*
X78765321Y-54463605D01*
X78812940Y-54606462D01*
X78812940Y-54701700D01*
X78765321Y-54844558D01*
X78670083Y-54939796D01*
X78574845Y-54987415D01*
X78384369Y-55035034D01*
X78241512Y-55035034D01*
X78051036Y-54987415D01*
X77955798Y-54939796D01*
X77860560Y-54844558D01*
X77812940Y-54701700D01*
X77812940Y-54606462D01*
X77860560Y-54463605D01*
X77908179Y-54415986D01*
X77812940Y-54082653D02*
X77812940Y-53415986D01*
X78812940Y-53844558D01*
G04 #@! TO.C,C8*
X81305453Y-71677742D02*
X81257834Y-71725361D01*
X81114977Y-71772980D01*
X81019739Y-71772980D01*
X80876881Y-71725361D01*
X80781643Y-71630123D01*
X80734024Y-71534885D01*
X80686405Y-71344409D01*
X80686405Y-71201552D01*
X80734024Y-71011076D01*
X80781643Y-70915838D01*
X80876881Y-70820600D01*
X81019739Y-70772980D01*
X81114977Y-70772980D01*
X81257834Y-70820600D01*
X81305453Y-70868219D01*
X81876881Y-71201552D02*
X81781643Y-71153933D01*
X81734024Y-71106314D01*
X81686405Y-71011076D01*
X81686405Y-70963457D01*
X81734024Y-70868219D01*
X81781643Y-70820600D01*
X81876881Y-70772980D01*
X82067358Y-70772980D01*
X82162596Y-70820600D01*
X82210215Y-70868219D01*
X82257834Y-70963457D01*
X82257834Y-71011076D01*
X82210215Y-71106314D01*
X82162596Y-71153933D01*
X82067358Y-71201552D01*
X81876881Y-71201552D01*
X81781643Y-71249171D01*
X81734024Y-71296790D01*
X81686405Y-71392028D01*
X81686405Y-71582504D01*
X81734024Y-71677742D01*
X81781643Y-71725361D01*
X81876881Y-71772980D01*
X82067358Y-71772980D01*
X82162596Y-71725361D01*
X82210215Y-71677742D01*
X82257834Y-71582504D01*
X82257834Y-71392028D01*
X82210215Y-71296790D01*
X82162596Y-71249171D01*
X82067358Y-71201552D01*
G04 #@! TO.C,C9*
X94717702Y-54415986D02*
X94765321Y-54463605D01*
X94812940Y-54606462D01*
X94812940Y-54701700D01*
X94765321Y-54844558D01*
X94670083Y-54939796D01*
X94574845Y-54987415D01*
X94384369Y-55035034D01*
X94241512Y-55035034D01*
X94051036Y-54987415D01*
X93955798Y-54939796D01*
X93860560Y-54844558D01*
X93812940Y-54701700D01*
X93812940Y-54606462D01*
X93860560Y-54463605D01*
X93908179Y-54415986D01*
X94812940Y-53939796D02*
X94812940Y-53749320D01*
X94765321Y-53654081D01*
X94717702Y-53606462D01*
X94574845Y-53511224D01*
X94384369Y-53463605D01*
X94003417Y-53463605D01*
X93908179Y-53511224D01*
X93860560Y-53558843D01*
X93812940Y-53654081D01*
X93812940Y-53844558D01*
X93860560Y-53939796D01*
X93908179Y-53987415D01*
X94003417Y-54035034D01*
X94241512Y-54035034D01*
X94336750Y-53987415D01*
X94384369Y-53939796D01*
X94431988Y-53844558D01*
X94431988Y-53654081D01*
X94384369Y-53558843D01*
X94336750Y-53511224D01*
X94241512Y-53463605D01*
G04 #@! TO.C,C10*
X96829262Y-71677742D02*
X96781643Y-71725361D01*
X96638786Y-71772980D01*
X96543548Y-71772980D01*
X96400691Y-71725361D01*
X96305453Y-71630123D01*
X96257834Y-71534885D01*
X96210215Y-71344409D01*
X96210215Y-71201552D01*
X96257834Y-71011076D01*
X96305453Y-70915838D01*
X96400691Y-70820600D01*
X96543548Y-70772980D01*
X96638786Y-70772980D01*
X96781643Y-70820600D01*
X96829262Y-70868219D01*
X97781643Y-71772980D02*
X97210215Y-71772980D01*
X97495929Y-71772980D02*
X97495929Y-70772980D01*
X97400691Y-70915838D01*
X97305453Y-71011076D01*
X97210215Y-71058695D01*
X98400691Y-70772980D02*
X98495929Y-70772980D01*
X98591167Y-70820600D01*
X98638786Y-70868219D01*
X98686405Y-70963457D01*
X98734024Y-71153933D01*
X98734024Y-71392028D01*
X98686405Y-71582504D01*
X98638786Y-71677742D01*
X98591167Y-71725361D01*
X98495929Y-71772980D01*
X98400691Y-71772980D01*
X98305453Y-71725361D01*
X98257834Y-71677742D01*
X98210215Y-71582504D01*
X98162596Y-71392028D01*
X98162596Y-71153933D01*
X98210215Y-70963457D01*
X98257834Y-70868219D01*
X98305453Y-70820600D01*
X98400691Y-70772980D01*
G04 #@! TO.C,C1*
X30717702Y-54415986D02*
X30765321Y-54463605D01*
X30812940Y-54606462D01*
X30812940Y-54701700D01*
X30765321Y-54844558D01*
X30670083Y-54939796D01*
X30574845Y-54987415D01*
X30384369Y-55035034D01*
X30241512Y-55035034D01*
X30051036Y-54987415D01*
X29955798Y-54939796D01*
X29860560Y-54844558D01*
X29812940Y-54701700D01*
X29812940Y-54606462D01*
X29860560Y-54463605D01*
X29908179Y-54415986D01*
X30812940Y-53463605D02*
X30812940Y-54035034D01*
X30812940Y-53749320D02*
X29812940Y-53749320D01*
X29955798Y-53844558D01*
X30051036Y-53939796D01*
X30098655Y-54035034D01*
G04 #@! TO.C,D15*
X95333274Y-58218825D02*
X95333274Y-57218825D01*
X95571369Y-57218825D01*
X95714226Y-57266445D01*
X95809464Y-57361683D01*
X95857083Y-57456921D01*
X95904702Y-57647397D01*
X95904702Y-57790254D01*
X95857083Y-57980730D01*
X95809464Y-58075968D01*
X95714226Y-58171206D01*
X95571369Y-58218825D01*
X95333274Y-58218825D01*
X96857083Y-58218825D02*
X96285655Y-58218825D01*
X96571369Y-58218825D02*
X96571369Y-57218825D01*
X96476131Y-57361683D01*
X96380893Y-57456921D01*
X96285655Y-57504540D01*
X97761845Y-57218825D02*
X97285655Y-57218825D01*
X97238036Y-57695016D01*
X97285655Y-57647397D01*
X97380893Y-57599778D01*
X97618988Y-57599778D01*
X97714226Y-57647397D01*
X97761845Y-57695016D01*
X97809464Y-57790254D01*
X97809464Y-58028349D01*
X97761845Y-58123587D01*
X97714226Y-58171206D01*
X97618988Y-58218825D01*
X97380893Y-58218825D01*
X97285655Y-58171206D01*
X97238036Y-58123587D01*
G04 #@! TO.C,D13*
X92069025Y-47686125D02*
X91069025Y-47686125D01*
X91069025Y-47448030D01*
X91116645Y-47305173D01*
X91211883Y-47209935D01*
X91307121Y-47162316D01*
X91497597Y-47114697D01*
X91640454Y-47114697D01*
X91830930Y-47162316D01*
X91926168Y-47209935D01*
X92021406Y-47305173D01*
X92069025Y-47448030D01*
X92069025Y-47686125D01*
X92069025Y-46162316D02*
X92069025Y-46733744D01*
X92069025Y-46448030D02*
X91069025Y-46448030D01*
X91211883Y-46543268D01*
X91307121Y-46638506D01*
X91354740Y-46733744D01*
X91069025Y-45828982D02*
X91069025Y-45209935D01*
X91449978Y-45543268D01*
X91449978Y-45400411D01*
X91497597Y-45305173D01*
X91545216Y-45257554D01*
X91640454Y-45209935D01*
X91878549Y-45209935D01*
X91973787Y-45257554D01*
X92021406Y-45305173D01*
X92069025Y-45400411D01*
X92069025Y-45686125D01*
X92021406Y-45781363D01*
X91973787Y-45828982D01*
G04 #@! TO.C,D1*
X28069025Y-47209935D02*
X27069025Y-47209935D01*
X27069025Y-46971840D01*
X27116645Y-46828982D01*
X27211883Y-46733744D01*
X27307121Y-46686125D01*
X27497597Y-46638506D01*
X27640454Y-46638506D01*
X27830930Y-46686125D01*
X27926168Y-46733744D01*
X28021406Y-46828982D01*
X28069025Y-46971840D01*
X28069025Y-47209935D01*
X28069025Y-45686125D02*
X28069025Y-46257554D01*
X28069025Y-45971840D02*
X27069025Y-45971840D01*
X27211883Y-46067078D01*
X27307121Y-46162316D01*
X27354740Y-46257554D01*
G04 #@! TO.C,D3*
X31809464Y-58218825D02*
X31809464Y-57218825D01*
X32047560Y-57218825D01*
X32190417Y-57266445D01*
X32285655Y-57361683D01*
X32333274Y-57456921D01*
X32380893Y-57647397D01*
X32380893Y-57790254D01*
X32333274Y-57980730D01*
X32285655Y-58075968D01*
X32190417Y-58171206D01*
X32047560Y-58218825D01*
X31809464Y-58218825D01*
X32714226Y-57218825D02*
X33333274Y-57218825D01*
X32999940Y-57599778D01*
X33142798Y-57599778D01*
X33238036Y-57647397D01*
X33285655Y-57695016D01*
X33333274Y-57790254D01*
X33333274Y-58028349D01*
X33285655Y-58123587D01*
X33238036Y-58171206D01*
X33142798Y-58218825D01*
X32857083Y-58218825D01*
X32761845Y-58171206D01*
X32714226Y-58123587D01*
G04 #@! TO.C,D4*
X44069025Y-47209935D02*
X43069025Y-47209935D01*
X43069025Y-46971840D01*
X43116645Y-46828982D01*
X43211883Y-46733744D01*
X43307121Y-46686125D01*
X43497597Y-46638506D01*
X43640454Y-46638506D01*
X43830930Y-46686125D01*
X43926168Y-46733744D01*
X44021406Y-46828982D01*
X44069025Y-46971840D01*
X44069025Y-47209935D01*
X43402359Y-45781363D02*
X44069025Y-45781363D01*
X43021406Y-46019459D02*
X43735692Y-46257554D01*
X43735692Y-45638506D01*
G04 #@! TO.C,D6*
X47809464Y-58218825D02*
X47809464Y-57218825D01*
X48047560Y-57218825D01*
X48190417Y-57266445D01*
X48285655Y-57361683D01*
X48333274Y-57456921D01*
X48380893Y-57647397D01*
X48380893Y-57790254D01*
X48333274Y-57980730D01*
X48285655Y-58075968D01*
X48190417Y-58171206D01*
X48047560Y-58218825D01*
X47809464Y-58218825D01*
X49238036Y-57218825D02*
X49047560Y-57218825D01*
X48952321Y-57266445D01*
X48904702Y-57314064D01*
X48809464Y-57456921D01*
X48761845Y-57647397D01*
X48761845Y-58028349D01*
X48809464Y-58123587D01*
X48857083Y-58171206D01*
X48952321Y-58218825D01*
X49142798Y-58218825D01*
X49238036Y-58171206D01*
X49285655Y-58123587D01*
X49333274Y-58028349D01*
X49333274Y-57790254D01*
X49285655Y-57695016D01*
X49238036Y-57647397D01*
X49142798Y-57599778D01*
X48952321Y-57599778D01*
X48857083Y-57647397D01*
X48809464Y-57695016D01*
X48761845Y-57790254D01*
G04 #@! TO.C,D7*
X60069025Y-47209935D02*
X59069025Y-47209935D01*
X59069025Y-46971840D01*
X59116645Y-46828982D01*
X59211883Y-46733744D01*
X59307121Y-46686125D01*
X59497597Y-46638506D01*
X59640454Y-46638506D01*
X59830930Y-46686125D01*
X59926168Y-46733744D01*
X60021406Y-46828982D01*
X60069025Y-46971840D01*
X60069025Y-47209935D01*
X59069025Y-46305173D02*
X59069025Y-45638506D01*
X60069025Y-46067078D01*
G04 #@! TO.C,D9*
X63809464Y-58218825D02*
X63809464Y-57218825D01*
X64047560Y-57218825D01*
X64190417Y-57266445D01*
X64285655Y-57361683D01*
X64333274Y-57456921D01*
X64380893Y-57647397D01*
X64380893Y-57790254D01*
X64333274Y-57980730D01*
X64285655Y-58075968D01*
X64190417Y-58171206D01*
X64047560Y-58218825D01*
X63809464Y-58218825D01*
X64857083Y-58218825D02*
X65047560Y-58218825D01*
X65142798Y-58171206D01*
X65190417Y-58123587D01*
X65285655Y-57980730D01*
X65333274Y-57790254D01*
X65333274Y-57409302D01*
X65285655Y-57314064D01*
X65238036Y-57266445D01*
X65142798Y-57218825D01*
X64952321Y-57218825D01*
X64857083Y-57266445D01*
X64809464Y-57314064D01*
X64761845Y-57409302D01*
X64761845Y-57647397D01*
X64809464Y-57742635D01*
X64857083Y-57790254D01*
X64952321Y-57837873D01*
X65142798Y-57837873D01*
X65238036Y-57790254D01*
X65285655Y-57742635D01*
X65333274Y-57647397D01*
G04 #@! TO.C,D10*
X76069025Y-47686125D02*
X75069025Y-47686125D01*
X75069025Y-47448030D01*
X75116645Y-47305173D01*
X75211883Y-47209935D01*
X75307121Y-47162316D01*
X75497597Y-47114697D01*
X75640454Y-47114697D01*
X75830930Y-47162316D01*
X75926168Y-47209935D01*
X76021406Y-47305173D01*
X76069025Y-47448030D01*
X76069025Y-47686125D01*
X76069025Y-46162316D02*
X76069025Y-46733744D01*
X76069025Y-46448030D02*
X75069025Y-46448030D01*
X75211883Y-46543268D01*
X75307121Y-46638506D01*
X75354740Y-46733744D01*
X75069025Y-45543268D02*
X75069025Y-45448030D01*
X75116645Y-45352792D01*
X75164264Y-45305173D01*
X75259502Y-45257554D01*
X75449978Y-45209935D01*
X75688073Y-45209935D01*
X75878549Y-45257554D01*
X75973787Y-45305173D01*
X76021406Y-45352792D01*
X76069025Y-45448030D01*
X76069025Y-45543268D01*
X76021406Y-45638506D01*
X75973787Y-45686125D01*
X75878549Y-45733744D01*
X75688073Y-45781363D01*
X75449978Y-45781363D01*
X75259502Y-45733744D01*
X75164264Y-45686125D01*
X75116645Y-45638506D01*
X75069025Y-45543268D01*
G04 #@! TO.C,D12*
X79333274Y-58218825D02*
X79333274Y-57218825D01*
X79571369Y-57218825D01*
X79714226Y-57266445D01*
X79809464Y-57361683D01*
X79857083Y-57456921D01*
X79904702Y-57647397D01*
X79904702Y-57790254D01*
X79857083Y-57980730D01*
X79809464Y-58075968D01*
X79714226Y-58171206D01*
X79571369Y-58218825D01*
X79333274Y-58218825D01*
X80857083Y-58218825D02*
X80285655Y-58218825D01*
X80571369Y-58218825D02*
X80571369Y-57218825D01*
X80476131Y-57361683D01*
X80380893Y-57456921D01*
X80285655Y-57504540D01*
X81238036Y-57314064D02*
X81285655Y-57266445D01*
X81380893Y-57218825D01*
X81618988Y-57218825D01*
X81714226Y-57266445D01*
X81761845Y-57314064D01*
X81809464Y-57409302D01*
X81809464Y-57504540D01*
X81761845Y-57647397D01*
X81190417Y-58218825D01*
X81809464Y-58218825D01*
G04 #@! TO.C,D8*
X60160500Y-66757775D02*
X59160500Y-66757775D01*
X59160500Y-66519680D01*
X59208120Y-66376822D01*
X59303358Y-66281584D01*
X59398596Y-66233965D01*
X59589072Y-66186346D01*
X59731929Y-66186346D01*
X59922405Y-66233965D01*
X60017643Y-66281584D01*
X60112881Y-66376822D01*
X60160500Y-66519680D01*
X60160500Y-66757775D01*
X59589072Y-65614918D02*
X59541453Y-65710156D01*
X59493834Y-65757775D01*
X59398596Y-65805394D01*
X59350977Y-65805394D01*
X59255739Y-65757775D01*
X59208120Y-65710156D01*
X59160500Y-65614918D01*
X59160500Y-65424441D01*
X59208120Y-65329203D01*
X59255739Y-65281584D01*
X59350977Y-65233965D01*
X59398596Y-65233965D01*
X59493834Y-65281584D01*
X59541453Y-65329203D01*
X59589072Y-65424441D01*
X59589072Y-65614918D01*
X59636691Y-65710156D01*
X59684310Y-65757775D01*
X59779548Y-65805394D01*
X59970024Y-65805394D01*
X60065262Y-65757775D01*
X60112881Y-65710156D01*
X60160500Y-65614918D01*
X60160500Y-65424441D01*
X60112881Y-65329203D01*
X60065262Y-65281584D01*
X59970024Y-65233965D01*
X59779548Y-65233965D01*
X59684310Y-65281584D01*
X59636691Y-65329203D01*
X59589072Y-65424441D01*
G04 #@! TO.C,D5*
X44160500Y-66757775D02*
X43160500Y-66757775D01*
X43160500Y-66519680D01*
X43208120Y-66376822D01*
X43303358Y-66281584D01*
X43398596Y-66233965D01*
X43589072Y-66186346D01*
X43731929Y-66186346D01*
X43922405Y-66233965D01*
X44017643Y-66281584D01*
X44112881Y-66376822D01*
X44160500Y-66519680D01*
X44160500Y-66757775D01*
X43160500Y-65281584D02*
X43160500Y-65757775D01*
X43636691Y-65805394D01*
X43589072Y-65757775D01*
X43541453Y-65662537D01*
X43541453Y-65424441D01*
X43589072Y-65329203D01*
X43636691Y-65281584D01*
X43731929Y-65233965D01*
X43970024Y-65233965D01*
X44065262Y-65281584D01*
X44112881Y-65329203D01*
X44160500Y-65424441D01*
X44160500Y-65662537D01*
X44112881Y-65757775D01*
X44065262Y-65805394D01*
G04 #@! TO.C,D11*
X76160500Y-67233965D02*
X75160500Y-67233965D01*
X75160500Y-66995870D01*
X75208120Y-66853013D01*
X75303358Y-66757775D01*
X75398596Y-66710156D01*
X75589072Y-66662537D01*
X75731929Y-66662537D01*
X75922405Y-66710156D01*
X76017643Y-66757775D01*
X76112881Y-66853013D01*
X76160500Y-66995870D01*
X76160500Y-67233965D01*
X76160500Y-65710156D02*
X76160500Y-66281584D01*
X76160500Y-65995870D02*
X75160500Y-65995870D01*
X75303358Y-66091108D01*
X75398596Y-66186346D01*
X75446215Y-66281584D01*
X76160500Y-64757775D02*
X76160500Y-65329203D01*
X76160500Y-65043489D02*
X75160500Y-65043489D01*
X75303358Y-65138727D01*
X75398596Y-65233965D01*
X75446215Y-65329203D01*
G04 #@! TO.C,D14*
X92160500Y-67233965D02*
X91160500Y-67233965D01*
X91160500Y-66995870D01*
X91208120Y-66853013D01*
X91303358Y-66757775D01*
X91398596Y-66710156D01*
X91589072Y-66662537D01*
X91731929Y-66662537D01*
X91922405Y-66710156D01*
X92017643Y-66757775D01*
X92112881Y-66853013D01*
X92160500Y-66995870D01*
X92160500Y-67233965D01*
X92160500Y-65710156D02*
X92160500Y-66281584D01*
X92160500Y-65995870D02*
X91160500Y-65995870D01*
X91303358Y-66091108D01*
X91398596Y-66186346D01*
X91446215Y-66281584D01*
X91493834Y-64853013D02*
X92160500Y-64853013D01*
X91112881Y-65091108D02*
X91827167Y-65329203D01*
X91827167Y-64710156D01*
G04 #@! TO.C,D2*
X28160500Y-66757775D02*
X27160500Y-66757775D01*
X27160500Y-66519680D01*
X27208120Y-66376822D01*
X27303358Y-66281584D01*
X27398596Y-66233965D01*
X27589072Y-66186346D01*
X27731929Y-66186346D01*
X27922405Y-66233965D01*
X28017643Y-66281584D01*
X28112881Y-66376822D01*
X28160500Y-66519680D01*
X28160500Y-66757775D01*
X27255739Y-65805394D02*
X27208120Y-65757775D01*
X27160500Y-65662537D01*
X27160500Y-65424441D01*
X27208120Y-65329203D01*
X27255739Y-65281584D01*
X27350977Y-65233965D01*
X27446215Y-65233965D01*
X27589072Y-65281584D01*
X28160500Y-65853013D01*
X28160500Y-65233965D01*
G04 #@! TO.C,R15*
X96971502Y-63420780D02*
X96638169Y-62944590D01*
X96400074Y-63420780D02*
X96400074Y-62420780D01*
X96781026Y-62420780D01*
X96876264Y-62468400D01*
X96923883Y-62516019D01*
X96971502Y-62611257D01*
X96971502Y-62754114D01*
X96923883Y-62849352D01*
X96876264Y-62896971D01*
X96781026Y-62944590D01*
X96400074Y-62944590D01*
X97923883Y-63420780D02*
X97352455Y-63420780D01*
X97638169Y-63420780D02*
X97638169Y-62420780D01*
X97542931Y-62563638D01*
X97447693Y-62658876D01*
X97352455Y-62706495D01*
X98828645Y-62420780D02*
X98352455Y-62420780D01*
X98304836Y-62896971D01*
X98352455Y-62849352D01*
X98447693Y-62801733D01*
X98685788Y-62801733D01*
X98781026Y-62849352D01*
X98828645Y-62896971D01*
X98876264Y-62992209D01*
X98876264Y-63230304D01*
X98828645Y-63325542D01*
X98781026Y-63373161D01*
X98685788Y-63420780D01*
X98447693Y-63420780D01*
X98352455Y-63373161D01*
X98304836Y-63325542D01*
G04 #@! TO.C,R1*
X35845453Y-54601900D02*
X35512120Y-54125710D01*
X35274024Y-54601900D02*
X35274024Y-53601900D01*
X35654977Y-53601900D01*
X35750215Y-53649520D01*
X35797834Y-53697139D01*
X35845453Y-53792377D01*
X35845453Y-53935234D01*
X35797834Y-54030472D01*
X35750215Y-54078091D01*
X35654977Y-54125710D01*
X35274024Y-54125710D01*
X36797834Y-54601900D02*
X36226405Y-54601900D01*
X36512120Y-54601900D02*
X36512120Y-53601900D01*
X36416881Y-53744758D01*
X36321643Y-53839996D01*
X36226405Y-53887615D01*
G04 #@! TO.C,R2*
X33475660Y-54548066D02*
X32999470Y-54881400D01*
X33475660Y-55119495D02*
X32475660Y-55119495D01*
X32475660Y-54738542D01*
X32523280Y-54643304D01*
X32570899Y-54595685D01*
X32666137Y-54548066D01*
X32808994Y-54548066D01*
X32904232Y-54595685D01*
X32951851Y-54643304D01*
X32999470Y-54738542D01*
X32999470Y-55119495D01*
X32570899Y-54167114D02*
X32523280Y-54119495D01*
X32475660Y-54024257D01*
X32475660Y-53786161D01*
X32523280Y-53690923D01*
X32570899Y-53643304D01*
X32666137Y-53595685D01*
X32761375Y-53595685D01*
X32904232Y-53643304D01*
X33475660Y-54214733D01*
X33475660Y-53595685D01*
G04 #@! TO.C,R3*
X33447693Y-63420780D02*
X33114360Y-62944590D01*
X32876264Y-63420780D02*
X32876264Y-62420780D01*
X33257217Y-62420780D01*
X33352455Y-62468400D01*
X33400074Y-62516019D01*
X33447693Y-62611257D01*
X33447693Y-62754114D01*
X33400074Y-62849352D01*
X33352455Y-62896971D01*
X33257217Y-62944590D01*
X32876264Y-62944590D01*
X33781026Y-62420780D02*
X34400074Y-62420780D01*
X34066740Y-62801733D01*
X34209598Y-62801733D01*
X34304836Y-62849352D01*
X34352455Y-62896971D01*
X34400074Y-62992209D01*
X34400074Y-63230304D01*
X34352455Y-63325542D01*
X34304836Y-63373161D01*
X34209598Y-63420780D01*
X33923883Y-63420780D01*
X33828645Y-63373161D01*
X33781026Y-63325542D01*
G04 #@! TO.C,R4*
X51845453Y-54601900D02*
X51512120Y-54125710D01*
X51274024Y-54601900D02*
X51274024Y-53601900D01*
X51654977Y-53601900D01*
X51750215Y-53649520D01*
X51797834Y-53697139D01*
X51845453Y-53792377D01*
X51845453Y-53935234D01*
X51797834Y-54030472D01*
X51750215Y-54078091D01*
X51654977Y-54125710D01*
X51274024Y-54125710D01*
X52702596Y-53935234D02*
X52702596Y-54601900D01*
X52464500Y-53554281D02*
X52226405Y-54268567D01*
X52845453Y-54268567D01*
G04 #@! TO.C,R6*
X49447693Y-63420780D02*
X49114360Y-62944590D01*
X48876264Y-63420780D02*
X48876264Y-62420780D01*
X49257217Y-62420780D01*
X49352455Y-62468400D01*
X49400074Y-62516019D01*
X49447693Y-62611257D01*
X49447693Y-62754114D01*
X49400074Y-62849352D01*
X49352455Y-62896971D01*
X49257217Y-62944590D01*
X48876264Y-62944590D01*
X50304836Y-62420780D02*
X50114360Y-62420780D01*
X50019121Y-62468400D01*
X49971502Y-62516019D01*
X49876264Y-62658876D01*
X49828645Y-62849352D01*
X49828645Y-63230304D01*
X49876264Y-63325542D01*
X49923883Y-63373161D01*
X50019121Y-63420780D01*
X50209598Y-63420780D01*
X50304836Y-63373161D01*
X50352455Y-63325542D01*
X50400074Y-63230304D01*
X50400074Y-62992209D01*
X50352455Y-62896971D01*
X50304836Y-62849352D01*
X50209598Y-62801733D01*
X50019121Y-62801733D01*
X49923883Y-62849352D01*
X49876264Y-62896971D01*
X49828645Y-62992209D01*
G04 #@! TO.C,R7*
X67845453Y-54601900D02*
X67512120Y-54125710D01*
X67274024Y-54601900D02*
X67274024Y-53601900D01*
X67654977Y-53601900D01*
X67750215Y-53649520D01*
X67797834Y-53697139D01*
X67845453Y-53792377D01*
X67845453Y-53935234D01*
X67797834Y-54030472D01*
X67750215Y-54078091D01*
X67654977Y-54125710D01*
X67274024Y-54125710D01*
X68178786Y-53601900D02*
X68845453Y-53601900D01*
X68416881Y-54601900D01*
G04 #@! TO.C,R8*
X65475660Y-54548066D02*
X64999470Y-54881400D01*
X65475660Y-55119495D02*
X64475660Y-55119495D01*
X64475660Y-54738542D01*
X64523280Y-54643304D01*
X64570899Y-54595685D01*
X64666137Y-54548066D01*
X64808994Y-54548066D01*
X64904232Y-54595685D01*
X64951851Y-54643304D01*
X64999470Y-54738542D01*
X64999470Y-55119495D01*
X64904232Y-53976638D02*
X64856613Y-54071876D01*
X64808994Y-54119495D01*
X64713756Y-54167114D01*
X64666137Y-54167114D01*
X64570899Y-54119495D01*
X64523280Y-54071876D01*
X64475660Y-53976638D01*
X64475660Y-53786161D01*
X64523280Y-53690923D01*
X64570899Y-53643304D01*
X64666137Y-53595685D01*
X64713756Y-53595685D01*
X64808994Y-53643304D01*
X64856613Y-53690923D01*
X64904232Y-53786161D01*
X64904232Y-53976638D01*
X64951851Y-54071876D01*
X64999470Y-54119495D01*
X65094708Y-54167114D01*
X65285184Y-54167114D01*
X65380422Y-54119495D01*
X65428041Y-54071876D01*
X65475660Y-53976638D01*
X65475660Y-53786161D01*
X65428041Y-53690923D01*
X65380422Y-53643304D01*
X65285184Y-53595685D01*
X65094708Y-53595685D01*
X64999470Y-53643304D01*
X64951851Y-53690923D01*
X64904232Y-53786161D01*
G04 #@! TO.C,R9*
X65447693Y-63420780D02*
X65114360Y-62944590D01*
X64876264Y-63420780D02*
X64876264Y-62420780D01*
X65257217Y-62420780D01*
X65352455Y-62468400D01*
X65400074Y-62516019D01*
X65447693Y-62611257D01*
X65447693Y-62754114D01*
X65400074Y-62849352D01*
X65352455Y-62896971D01*
X65257217Y-62944590D01*
X64876264Y-62944590D01*
X65923883Y-63420780D02*
X66114360Y-63420780D01*
X66209598Y-63373161D01*
X66257217Y-63325542D01*
X66352455Y-63182685D01*
X66400074Y-62992209D01*
X66400074Y-62611257D01*
X66352455Y-62516019D01*
X66304836Y-62468400D01*
X66209598Y-62420780D01*
X66019121Y-62420780D01*
X65923883Y-62468400D01*
X65876264Y-62516019D01*
X65828645Y-62611257D01*
X65828645Y-62849352D01*
X65876264Y-62944590D01*
X65923883Y-62992209D01*
X66019121Y-63039828D01*
X66209598Y-63039828D01*
X66304836Y-62992209D01*
X66352455Y-62944590D01*
X66400074Y-62849352D01*
G04 #@! TO.C,R10*
X83369262Y-54601900D02*
X83035929Y-54125710D01*
X82797834Y-54601900D02*
X82797834Y-53601900D01*
X83178786Y-53601900D01*
X83274024Y-53649520D01*
X83321643Y-53697139D01*
X83369262Y-53792377D01*
X83369262Y-53935234D01*
X83321643Y-54030472D01*
X83274024Y-54078091D01*
X83178786Y-54125710D01*
X82797834Y-54125710D01*
X84321643Y-54601900D02*
X83750215Y-54601900D01*
X84035929Y-54601900D02*
X84035929Y-53601900D01*
X83940691Y-53744758D01*
X83845453Y-53839996D01*
X83750215Y-53887615D01*
X84940691Y-53601900D02*
X85035929Y-53601900D01*
X85131167Y-53649520D01*
X85178786Y-53697139D01*
X85226405Y-53792377D01*
X85274024Y-53982853D01*
X85274024Y-54220948D01*
X85226405Y-54411424D01*
X85178786Y-54506662D01*
X85131167Y-54554281D01*
X85035929Y-54601900D01*
X84940691Y-54601900D01*
X84845453Y-54554281D01*
X84797834Y-54506662D01*
X84750215Y-54411424D01*
X84702596Y-54220948D01*
X84702596Y-53982853D01*
X84750215Y-53792377D01*
X84797834Y-53697139D01*
X84845453Y-53649520D01*
X84940691Y-53601900D01*
G04 #@! TO.C,R11*
X81475660Y-55024257D02*
X80999470Y-55357590D01*
X81475660Y-55595685D02*
X80475660Y-55595685D01*
X80475660Y-55214733D01*
X80523280Y-55119495D01*
X80570899Y-55071876D01*
X80666137Y-55024257D01*
X80808994Y-55024257D01*
X80904232Y-55071876D01*
X80951851Y-55119495D01*
X80999470Y-55214733D01*
X80999470Y-55595685D01*
X81475660Y-54071876D02*
X81475660Y-54643304D01*
X81475660Y-54357590D02*
X80475660Y-54357590D01*
X80618518Y-54452828D01*
X80713756Y-54548066D01*
X80761375Y-54643304D01*
X81475660Y-53119495D02*
X81475660Y-53690923D01*
X81475660Y-53405209D02*
X80475660Y-53405209D01*
X80618518Y-53500447D01*
X80713756Y-53595685D01*
X80761375Y-53690923D01*
G04 #@! TO.C,R12*
X80971502Y-63420780D02*
X80638169Y-62944590D01*
X80400074Y-63420780D02*
X80400074Y-62420780D01*
X80781026Y-62420780D01*
X80876264Y-62468400D01*
X80923883Y-62516019D01*
X80971502Y-62611257D01*
X80971502Y-62754114D01*
X80923883Y-62849352D01*
X80876264Y-62896971D01*
X80781026Y-62944590D01*
X80400074Y-62944590D01*
X81923883Y-63420780D02*
X81352455Y-63420780D01*
X81638169Y-63420780D02*
X81638169Y-62420780D01*
X81542931Y-62563638D01*
X81447693Y-62658876D01*
X81352455Y-62706495D01*
X82304836Y-62516019D02*
X82352455Y-62468400D01*
X82447693Y-62420780D01*
X82685788Y-62420780D01*
X82781026Y-62468400D01*
X82828645Y-62516019D01*
X82876264Y-62611257D01*
X82876264Y-62706495D01*
X82828645Y-62849352D01*
X82257217Y-63420780D01*
X82876264Y-63420780D01*
G04 #@! TO.C,R13*
X99369262Y-54601900D02*
X99035929Y-54125710D01*
X98797834Y-54601900D02*
X98797834Y-53601900D01*
X99178786Y-53601900D01*
X99274024Y-53649520D01*
X99321643Y-53697139D01*
X99369262Y-53792377D01*
X99369262Y-53935234D01*
X99321643Y-54030472D01*
X99274024Y-54078091D01*
X99178786Y-54125710D01*
X98797834Y-54125710D01*
X100321643Y-54601900D02*
X99750215Y-54601900D01*
X100035929Y-54601900D02*
X100035929Y-53601900D01*
X99940691Y-53744758D01*
X99845453Y-53839996D01*
X99750215Y-53887615D01*
X100654977Y-53601900D02*
X101274024Y-53601900D01*
X100940691Y-53982853D01*
X101083548Y-53982853D01*
X101178786Y-54030472D01*
X101226405Y-54078091D01*
X101274024Y-54173329D01*
X101274024Y-54411424D01*
X101226405Y-54506662D01*
X101178786Y-54554281D01*
X101083548Y-54601900D01*
X100797834Y-54601900D01*
X100702596Y-54554281D01*
X100654977Y-54506662D01*
G04 #@! TO.C,R14*
X97475660Y-55024257D02*
X96999470Y-55357590D01*
X97475660Y-55595685D02*
X96475660Y-55595685D01*
X96475660Y-55214733D01*
X96523280Y-55119495D01*
X96570899Y-55071876D01*
X96666137Y-55024257D01*
X96808994Y-55024257D01*
X96904232Y-55071876D01*
X96951851Y-55119495D01*
X96999470Y-55214733D01*
X96999470Y-55595685D01*
X97475660Y-54071876D02*
X97475660Y-54643304D01*
X97475660Y-54357590D02*
X96475660Y-54357590D01*
X96618518Y-54452828D01*
X96713756Y-54548066D01*
X96761375Y-54643304D01*
X96808994Y-53214733D02*
X97475660Y-53214733D01*
X96428041Y-53452828D02*
X97142327Y-53690923D01*
X97142327Y-53071876D01*
G04 #@! TO.C,R5*
X49475660Y-54548066D02*
X48999470Y-54881400D01*
X49475660Y-55119495D02*
X48475660Y-55119495D01*
X48475660Y-54738542D01*
X48523280Y-54643304D01*
X48570899Y-54595685D01*
X48666137Y-54548066D01*
X48808994Y-54548066D01*
X48904232Y-54595685D01*
X48951851Y-54643304D01*
X48999470Y-54738542D01*
X48999470Y-55119495D01*
X48475660Y-53643304D02*
X48475660Y-54119495D01*
X48951851Y-54167114D01*
X48904232Y-54119495D01*
X48856613Y-54024257D01*
X48856613Y-53786161D01*
X48904232Y-53690923D01*
X48951851Y-53643304D01*
X49047089Y-53595685D01*
X49285184Y-53595685D01*
X49380422Y-53643304D01*
X49428041Y-53690923D01*
X49475660Y-53786161D01*
X49475660Y-54024257D01*
X49428041Y-54119495D01*
X49380422Y-54167114D01*
G04 #@! TO.C,Q5*
X97087059Y-47633878D02*
X97039440Y-47729116D01*
X96944201Y-47824354D01*
X96801344Y-47967211D01*
X96753725Y-48062449D01*
X96753725Y-48157687D01*
X96991820Y-48110068D02*
X96944201Y-48205306D01*
X96848963Y-48300544D01*
X96658487Y-48348163D01*
X96325154Y-48348163D01*
X96134678Y-48300544D01*
X96039440Y-48205306D01*
X95991820Y-48110068D01*
X95991820Y-47919592D01*
X96039440Y-47824354D01*
X96134678Y-47729116D01*
X96325154Y-47681497D01*
X96658487Y-47681497D01*
X96848963Y-47729116D01*
X96944201Y-47824354D01*
X96991820Y-47919592D01*
X96991820Y-48110068D01*
X95991820Y-46776735D02*
X95991820Y-47252925D01*
X96468011Y-47300544D01*
X96420392Y-47252925D01*
X96372773Y-47157687D01*
X96372773Y-46919592D01*
X96420392Y-46824354D01*
X96468011Y-46776735D01*
X96563249Y-46729116D01*
X96801344Y-46729116D01*
X96896582Y-46776735D01*
X96944201Y-46824354D01*
X96991820Y-46919592D01*
X96991820Y-47157687D01*
X96944201Y-47252925D01*
X96896582Y-47300544D01*
G04 #@! TO.C,Q4*
X81087059Y-47633878D02*
X81039440Y-47729116D01*
X80944201Y-47824354D01*
X80801344Y-47967211D01*
X80753725Y-48062449D01*
X80753725Y-48157687D01*
X80991820Y-48110068D02*
X80944201Y-48205306D01*
X80848963Y-48300544D01*
X80658487Y-48348163D01*
X80325154Y-48348163D01*
X80134678Y-48300544D01*
X80039440Y-48205306D01*
X79991820Y-48110068D01*
X79991820Y-47919592D01*
X80039440Y-47824354D01*
X80134678Y-47729116D01*
X80325154Y-47681497D01*
X80658487Y-47681497D01*
X80848963Y-47729116D01*
X80944201Y-47824354D01*
X80991820Y-47919592D01*
X80991820Y-48110068D01*
X80325154Y-46824354D02*
X80991820Y-46824354D01*
X79944201Y-47062449D02*
X80658487Y-47300544D01*
X80658487Y-46681497D01*
G04 #@! TO.C,Q3*
X65087059Y-47633878D02*
X65039440Y-47729116D01*
X64944201Y-47824354D01*
X64801344Y-47967211D01*
X64753725Y-48062449D01*
X64753725Y-48157687D01*
X64991820Y-48110068D02*
X64944201Y-48205306D01*
X64848963Y-48300544D01*
X64658487Y-48348163D01*
X64325154Y-48348163D01*
X64134678Y-48300544D01*
X64039440Y-48205306D01*
X63991820Y-48110068D01*
X63991820Y-47919592D01*
X64039440Y-47824354D01*
X64134678Y-47729116D01*
X64325154Y-47681497D01*
X64658487Y-47681497D01*
X64848963Y-47729116D01*
X64944201Y-47824354D01*
X64991820Y-47919592D01*
X64991820Y-48110068D01*
X63991820Y-47348163D02*
X63991820Y-46729116D01*
X64372773Y-47062449D01*
X64372773Y-46919592D01*
X64420392Y-46824354D01*
X64468011Y-46776735D01*
X64563249Y-46729116D01*
X64801344Y-46729116D01*
X64896582Y-46776735D01*
X64944201Y-46824354D01*
X64991820Y-46919592D01*
X64991820Y-47205306D01*
X64944201Y-47300544D01*
X64896582Y-47348163D01*
G04 #@! TO.C,Q2*
X49087059Y-47633878D02*
X49039440Y-47729116D01*
X48944201Y-47824354D01*
X48801344Y-47967211D01*
X48753725Y-48062449D01*
X48753725Y-48157687D01*
X48991820Y-48110068D02*
X48944201Y-48205306D01*
X48848963Y-48300544D01*
X48658487Y-48348163D01*
X48325154Y-48348163D01*
X48134678Y-48300544D01*
X48039440Y-48205306D01*
X47991820Y-48110068D01*
X47991820Y-47919592D01*
X48039440Y-47824354D01*
X48134678Y-47729116D01*
X48325154Y-47681497D01*
X48658487Y-47681497D01*
X48848963Y-47729116D01*
X48944201Y-47824354D01*
X48991820Y-47919592D01*
X48991820Y-48110068D01*
X48087059Y-47300544D02*
X48039440Y-47252925D01*
X47991820Y-47157687D01*
X47991820Y-46919592D01*
X48039440Y-46824354D01*
X48087059Y-46776735D01*
X48182297Y-46729116D01*
X48277535Y-46729116D01*
X48420392Y-46776735D01*
X48991820Y-47348163D01*
X48991820Y-46729116D01*
G04 #@! TO.C,Q1*
X33087059Y-47633878D02*
X33039440Y-47729116D01*
X32944201Y-47824354D01*
X32801344Y-47967211D01*
X32753725Y-48062449D01*
X32753725Y-48157687D01*
X32991820Y-48110068D02*
X32944201Y-48205306D01*
X32848963Y-48300544D01*
X32658487Y-48348163D01*
X32325154Y-48348163D01*
X32134678Y-48300544D01*
X32039440Y-48205306D01*
X31991820Y-48110068D01*
X31991820Y-47919592D01*
X32039440Y-47824354D01*
X32134678Y-47729116D01*
X32325154Y-47681497D01*
X32658487Y-47681497D01*
X32848963Y-47729116D01*
X32944201Y-47824354D01*
X32991820Y-47919592D01*
X32991820Y-48110068D01*
X32991820Y-46729116D02*
X32991820Y-47300544D01*
X32991820Y-47014830D02*
X31991820Y-47014830D01*
X32134678Y-47110068D01*
X32229916Y-47205306D01*
X32277535Y-47300544D01*
G04 #@! TO.C,J3*
X62849166Y-73112380D02*
X62849166Y-73826666D01*
X62801547Y-73969523D01*
X62706309Y-74064761D01*
X62563452Y-74112380D01*
X62468214Y-74112380D01*
X63230119Y-73112380D02*
X63849166Y-73112380D01*
X63515833Y-73493333D01*
X63658690Y-73493333D01*
X63753928Y-73540952D01*
X63801547Y-73588571D01*
X63849166Y-73683809D01*
X63849166Y-73921904D01*
X63801547Y-74017142D01*
X63753928Y-74064761D01*
X63658690Y-74112380D01*
X63372976Y-74112380D01*
X63277738Y-74064761D01*
X63230119Y-74017142D01*
G04 #@! TO.C,J2*
X37258666Y-73366380D02*
X37258666Y-74080666D01*
X37211047Y-74223523D01*
X37115809Y-74318761D01*
X36972952Y-74366380D01*
X36877714Y-74366380D01*
X37687238Y-73461619D02*
X37734857Y-73414000D01*
X37830095Y-73366380D01*
X38068190Y-73366380D01*
X38163428Y-73414000D01*
X38211047Y-73461619D01*
X38258666Y-73556857D01*
X38258666Y-73652095D01*
X38211047Y-73794952D01*
X37639619Y-74366380D01*
X38258666Y-74366380D01*
G04 #@! TD*
M02*
