G04 #@! TF.GenerationSoftware,KiCad,Pcbnew,5.0.2-bee76a0~70~ubuntu16.04.1*
G04 #@! TF.CreationDate,2018-12-22T18:20:01+02:00*
G04 #@! TF.ProjectId,psg14a_power,70736731-3461-45f7-906f-7765722e6b69,rev?*
G04 #@! TF.SameCoordinates,Original*
G04 #@! TF.FileFunction,Copper,L1,Top*
G04 #@! TF.FilePolarity,Positive*
%FSLAX46Y46*%
G04 Gerber Fmt 4.6, Leading zero omitted, Abs format (unit mm)*
G04 Created by KiCad (PCBNEW 5.0.2-bee76a0~70~ubuntu16.04.1) date сб, 22-гру-2018 18:20:01 +0200*
%MOMM*%
%LPD*%
G01*
G04 APERTURE LIST*
G04 #@! TA.AperFunction,NonConductor*
%ADD10C,0.300000*%
G04 #@! TD*
G04 #@! TA.AperFunction,ComponentPad*
%ADD11R,2.400000X2.400000*%
G04 #@! TD*
G04 #@! TA.AperFunction,ComponentPad*
%ADD12C,2.400000*%
G04 #@! TD*
G04 #@! TA.AperFunction,SMDPad,CuDef*
%ADD13R,1.300000X1.500000*%
G04 #@! TD*
G04 #@! TA.AperFunction,SMDPad,CuDef*
%ADD14R,1.500000X1.250000*%
G04 #@! TD*
G04 #@! TA.AperFunction,SMDPad,CuDef*
%ADD15R,1.250000X1.500000*%
G04 #@! TD*
G04 #@! TA.AperFunction,ComponentPad*
%ADD16R,2.200000X2.200000*%
G04 #@! TD*
G04 #@! TA.AperFunction,ComponentPad*
%ADD17O,2.200000X2.200000*%
G04 #@! TD*
G04 #@! TA.AperFunction,SMDPad,CuDef*
%ADD18R,1.500000X1.300000*%
G04 #@! TD*
G04 #@! TA.AperFunction,ComponentPad*
%ADD19O,1.800000X1.800000*%
G04 #@! TD*
G04 #@! TA.AperFunction,ComponentPad*
%ADD20R,1.800000X1.800000*%
G04 #@! TD*
G04 #@! TA.AperFunction,ComponentPad*
%ADD21O,1.998980X1.998980*%
G04 #@! TD*
G04 #@! TA.AperFunction,ComponentPad*
%ADD22R,1.998980X1.998980*%
G04 #@! TD*
G04 #@! TA.AperFunction,ViaPad*
%ADD23C,1.000000*%
G04 #@! TD*
G04 #@! TA.AperFunction,Conductor*
%ADD24C,0.400000*%
G04 #@! TD*
G04 #@! TA.AperFunction,Conductor*
%ADD25C,1.000000*%
G04 #@! TD*
G04 #@! TA.AperFunction,Conductor*
%ADD26C,0.254000*%
G04 #@! TD*
G04 APERTURE END LIST*
D10*
X54419857Y-82236571D02*
X54919857Y-83736571D01*
X55419857Y-82236571D01*
X57848428Y-83736571D02*
X56991285Y-83736571D01*
X57419857Y-83736571D02*
X57419857Y-82236571D01*
X57277000Y-82450857D01*
X57134142Y-82593714D01*
X56991285Y-82665142D01*
X58491285Y-83593714D02*
X58562714Y-83665142D01*
X58491285Y-83736571D01*
X58419857Y-83665142D01*
X58491285Y-83593714D01*
X58491285Y-83736571D01*
X59491285Y-82236571D02*
X59634142Y-82236571D01*
X59777000Y-82308000D01*
X59848428Y-82379428D01*
X59919857Y-82522285D01*
X59991285Y-82808000D01*
X59991285Y-83165142D01*
X59919857Y-83450857D01*
X59848428Y-83593714D01*
X59777000Y-83665142D01*
X59634142Y-83736571D01*
X59491285Y-83736571D01*
X59348428Y-83665142D01*
X59277000Y-83593714D01*
X59205571Y-83450857D01*
X59134142Y-83165142D01*
X59134142Y-82808000D01*
X59205571Y-82522285D01*
X59277000Y-82379428D01*
X59348428Y-82308000D01*
X59491285Y-82236571D01*
D11*
G04 #@! TO.P,J1,1*
G04 #@! TO.N,/GND*
X86042500Y-78676500D03*
D12*
G04 #@! TO.P,J1,2*
G04 #@! TO.N,/+24V*
X89542500Y-78676500D03*
G04 #@! TD*
D13*
G04 #@! TO.P,D16,2*
G04 #@! TO.N,/+24V*
X104000000Y-80350000D03*
G04 #@! TO.P,D16,1*
G04 #@! TO.N,Net-(D16-Pad1)*
X104000000Y-77650000D03*
G04 #@! TD*
G04 #@! TO.P,R16,2*
G04 #@! TO.N,/GND*
X101000000Y-80350000D03*
G04 #@! TO.P,R16,1*
G04 #@! TO.N,Net-(D16-Pad1)*
X101000000Y-77650000D03*
G04 #@! TD*
D14*
G04 #@! TO.P,C2,1*
G04 #@! TO.N,/+24V*
X34722120Y-69570600D03*
G04 #@! TO.P,C2,2*
G04 #@! TO.N,/GND*
X32222120Y-69570600D03*
G04 #@! TD*
D15*
G04 #@! TO.P,C3,2*
G04 #@! TO.N,Net-(C3-Pad2)*
X44610560Y-55499320D03*
G04 #@! TO.P,C3,1*
G04 #@! TO.N,/+24V*
X44610560Y-52999320D03*
G04 #@! TD*
D14*
G04 #@! TO.P,C4,1*
G04 #@! TO.N,/+24V*
X50722120Y-69570600D03*
G04 #@! TO.P,C4,2*
G04 #@! TO.N,/GND*
X48222120Y-69570600D03*
G04 #@! TD*
D15*
G04 #@! TO.P,C5,2*
G04 #@! TO.N,Net-(C5-Pad2)*
X60610560Y-55499320D03*
G04 #@! TO.P,C5,1*
G04 #@! TO.N,/+24V*
X60610560Y-52999320D03*
G04 #@! TD*
D14*
G04 #@! TO.P,C6,1*
G04 #@! TO.N,/+24V*
X66722120Y-69570600D03*
G04 #@! TO.P,C6,2*
G04 #@! TO.N,/GND*
X64222120Y-69570600D03*
G04 #@! TD*
D15*
G04 #@! TO.P,C7,2*
G04 #@! TO.N,Net-(C7-Pad2)*
X76610560Y-55499320D03*
G04 #@! TO.P,C7,1*
G04 #@! TO.N,/+24V*
X76610560Y-52999320D03*
G04 #@! TD*
D14*
G04 #@! TO.P,C8,1*
G04 #@! TO.N,/+24V*
X82722120Y-69570600D03*
G04 #@! TO.P,C8,2*
G04 #@! TO.N,/GND*
X80222120Y-69570600D03*
G04 #@! TD*
D15*
G04 #@! TO.P,C9,2*
G04 #@! TO.N,Net-(C9-Pad2)*
X92610560Y-55499320D03*
G04 #@! TO.P,C9,1*
G04 #@! TO.N,/+24V*
X92610560Y-52999320D03*
G04 #@! TD*
D14*
G04 #@! TO.P,C10,1*
G04 #@! TO.N,/+24V*
X98722120Y-69570600D03*
G04 #@! TO.P,C10,2*
G04 #@! TO.N,/GND*
X96222120Y-69570600D03*
G04 #@! TD*
D15*
G04 #@! TO.P,C1,2*
G04 #@! TO.N,Net-(C1-Pad2)*
X28610560Y-55499320D03*
G04 #@! TO.P,C1,1*
G04 #@! TO.N,/+24V*
X28610560Y-52999320D03*
G04 #@! TD*
D16*
G04 #@! TO.P,D15,1*
G04 #@! TO.N,/Out5*
X94007560Y-60457080D03*
D17*
G04 #@! TO.P,D15,2*
G04 #@! TO.N,/GND*
X99087560Y-60457080D03*
G04 #@! TD*
G04 #@! TO.P,D13,2*
G04 #@! TO.N,/+24V*
X94307280Y-43931840D03*
D16*
G04 #@! TO.P,D13,1*
G04 #@! TO.N,Net-(C9-Pad2)*
X94307280Y-49011840D03*
G04 #@! TD*
G04 #@! TO.P,D1,1*
G04 #@! TO.N,Net-(C1-Pad2)*
X30307280Y-49011840D03*
D17*
G04 #@! TO.P,D1,2*
G04 #@! TO.N,/+24V*
X30307280Y-43931840D03*
G04 #@! TD*
G04 #@! TO.P,D3,2*
G04 #@! TO.N,/GND*
X35087560Y-60457080D03*
D16*
G04 #@! TO.P,D3,1*
G04 #@! TO.N,/Out1*
X30007560Y-60457080D03*
G04 #@! TD*
G04 #@! TO.P,D4,1*
G04 #@! TO.N,Net-(C3-Pad2)*
X46307280Y-49011840D03*
D17*
G04 #@! TO.P,D4,2*
G04 #@! TO.N,/+24V*
X46307280Y-43931840D03*
G04 #@! TD*
G04 #@! TO.P,D6,2*
G04 #@! TO.N,/GND*
X51087560Y-60457080D03*
D16*
G04 #@! TO.P,D6,1*
G04 #@! TO.N,/Out2*
X46007560Y-60457080D03*
G04 #@! TD*
G04 #@! TO.P,D7,1*
G04 #@! TO.N,Net-(C5-Pad2)*
X62307280Y-49011840D03*
D17*
G04 #@! TO.P,D7,2*
G04 #@! TO.N,/+24V*
X62307280Y-43931840D03*
G04 #@! TD*
G04 #@! TO.P,D9,2*
G04 #@! TO.N,/GND*
X67087560Y-60457080D03*
D16*
G04 #@! TO.P,D9,1*
G04 #@! TO.N,/Out3*
X62007560Y-60457080D03*
G04 #@! TD*
G04 #@! TO.P,D10,1*
G04 #@! TO.N,Net-(C7-Pad2)*
X78307280Y-49011840D03*
D17*
G04 #@! TO.P,D10,2*
G04 #@! TO.N,/+24V*
X78307280Y-43931840D03*
G04 #@! TD*
G04 #@! TO.P,D12,2*
G04 #@! TO.N,/GND*
X83087560Y-60457080D03*
D16*
G04 #@! TO.P,D12,1*
G04 #@! TO.N,/Out4*
X78007560Y-60457080D03*
G04 #@! TD*
D13*
G04 #@! TO.P,D8,2*
G04 #@! TO.N,/Out3*
X61408120Y-64669680D03*
G04 #@! TO.P,D8,1*
G04 #@! TO.N,Net-(D8-Pad1)*
X61408120Y-67369680D03*
G04 #@! TD*
G04 #@! TO.P,D5,1*
G04 #@! TO.N,Net-(D5-Pad1)*
X45408120Y-67369680D03*
G04 #@! TO.P,D5,2*
G04 #@! TO.N,/Out2*
X45408120Y-64669680D03*
G04 #@! TD*
G04 #@! TO.P,D11,2*
G04 #@! TO.N,/Out4*
X77408120Y-64669680D03*
G04 #@! TO.P,D11,1*
G04 #@! TO.N,Net-(D11-Pad1)*
X77408120Y-67369680D03*
G04 #@! TD*
G04 #@! TO.P,D14,1*
G04 #@! TO.N,Net-(D14-Pad1)*
X93408120Y-67369680D03*
G04 #@! TO.P,D14,2*
G04 #@! TO.N,/Out5*
X93408120Y-64669680D03*
G04 #@! TD*
G04 #@! TO.P,D2,2*
G04 #@! TO.N,/Out1*
X29408120Y-64669680D03*
G04 #@! TO.P,D2,1*
G04 #@! TO.N,Net-(D2-Pad1)*
X29408120Y-67369680D03*
G04 #@! TD*
D18*
G04 #@! TO.P,R15,2*
G04 #@! TO.N,/GND*
X98964360Y-64668400D03*
G04 #@! TO.P,R15,1*
G04 #@! TO.N,Net-(D14-Pad1)*
X96264360Y-64668400D03*
G04 #@! TD*
G04 #@! TO.P,R1,1*
G04 #@! TO.N,Net-(C1-Pad2)*
X34662120Y-55849520D03*
G04 #@! TO.P,R1,2*
G04 #@! TO.N,/In1*
X37362120Y-55849520D03*
G04 #@! TD*
D13*
G04 #@! TO.P,R2,2*
G04 #@! TO.N,Net-(C1-Pad2)*
X31323280Y-55731400D03*
G04 #@! TO.P,R2,1*
G04 #@! TO.N,/+24V*
X31323280Y-53031400D03*
G04 #@! TD*
D18*
G04 #@! TO.P,R3,1*
G04 #@! TO.N,Net-(D2-Pad1)*
X32264360Y-64668400D03*
G04 #@! TO.P,R3,2*
G04 #@! TO.N,/GND*
X34964360Y-64668400D03*
G04 #@! TD*
G04 #@! TO.P,R4,2*
G04 #@! TO.N,/In2*
X53362120Y-55849520D03*
G04 #@! TO.P,R4,1*
G04 #@! TO.N,Net-(C3-Pad2)*
X50662120Y-55849520D03*
G04 #@! TD*
G04 #@! TO.P,R6,1*
G04 #@! TO.N,Net-(D5-Pad1)*
X48264360Y-64668400D03*
G04 #@! TO.P,R6,2*
G04 #@! TO.N,/GND*
X50964360Y-64668400D03*
G04 #@! TD*
G04 #@! TO.P,R7,2*
G04 #@! TO.N,/In3*
X69362120Y-55849520D03*
G04 #@! TO.P,R7,1*
G04 #@! TO.N,Net-(C5-Pad2)*
X66662120Y-55849520D03*
G04 #@! TD*
D13*
G04 #@! TO.P,R8,1*
G04 #@! TO.N,/+24V*
X63323280Y-53031400D03*
G04 #@! TO.P,R8,2*
G04 #@! TO.N,Net-(C5-Pad2)*
X63323280Y-55731400D03*
G04 #@! TD*
D18*
G04 #@! TO.P,R9,2*
G04 #@! TO.N,/GND*
X66964360Y-64668400D03*
G04 #@! TO.P,R9,1*
G04 #@! TO.N,Net-(D8-Pad1)*
X64264360Y-64668400D03*
G04 #@! TD*
G04 #@! TO.P,R10,1*
G04 #@! TO.N,Net-(C7-Pad2)*
X82662120Y-55849520D03*
G04 #@! TO.P,R10,2*
G04 #@! TO.N,/In4*
X85362120Y-55849520D03*
G04 #@! TD*
D13*
G04 #@! TO.P,R11,2*
G04 #@! TO.N,Net-(C7-Pad2)*
X79323280Y-55731400D03*
G04 #@! TO.P,R11,1*
G04 #@! TO.N,/+24V*
X79323280Y-53031400D03*
G04 #@! TD*
D18*
G04 #@! TO.P,R12,1*
G04 #@! TO.N,Net-(D11-Pad1)*
X80264360Y-64668400D03*
G04 #@! TO.P,R12,2*
G04 #@! TO.N,/GND*
X82964360Y-64668400D03*
G04 #@! TD*
G04 #@! TO.P,R13,2*
G04 #@! TO.N,/In5*
X101362120Y-55849520D03*
G04 #@! TO.P,R13,1*
G04 #@! TO.N,Net-(C9-Pad2)*
X98662120Y-55849520D03*
G04 #@! TD*
D13*
G04 #@! TO.P,R14,1*
G04 #@! TO.N,/+24V*
X95323280Y-53031400D03*
G04 #@! TO.P,R14,2*
G04 #@! TO.N,Net-(C9-Pad2)*
X95323280Y-55731400D03*
G04 #@! TD*
G04 #@! TO.P,R5,2*
G04 #@! TO.N,Net-(C3-Pad2)*
X47323280Y-55731400D03*
G04 #@! TO.P,R5,1*
G04 #@! TO.N,/+24V*
X47323280Y-53031400D03*
G04 #@! TD*
D19*
G04 #@! TO.P,Q5,3*
G04 #@! TO.N,/+24V*
X100159440Y-44998640D03*
G04 #@! TO.P,Q5,2*
G04 #@! TO.N,/Out5*
X100159440Y-47538640D03*
D20*
G04 #@! TO.P,Q5,1*
G04 #@! TO.N,Net-(C9-Pad2)*
X100159440Y-50078640D03*
G04 #@! TD*
G04 #@! TO.P,Q4,1*
G04 #@! TO.N,Net-(C7-Pad2)*
X84159440Y-50078640D03*
D19*
G04 #@! TO.P,Q4,2*
G04 #@! TO.N,/Out4*
X84159440Y-47538640D03*
G04 #@! TO.P,Q4,3*
G04 #@! TO.N,/+24V*
X84159440Y-44998640D03*
G04 #@! TD*
G04 #@! TO.P,Q3,3*
G04 #@! TO.N,/+24V*
X68159440Y-44998640D03*
G04 #@! TO.P,Q3,2*
G04 #@! TO.N,/Out3*
X68159440Y-47538640D03*
D20*
G04 #@! TO.P,Q3,1*
G04 #@! TO.N,Net-(C5-Pad2)*
X68159440Y-50078640D03*
G04 #@! TD*
G04 #@! TO.P,Q2,1*
G04 #@! TO.N,Net-(C3-Pad2)*
X52159440Y-50078640D03*
D19*
G04 #@! TO.P,Q2,2*
G04 #@! TO.N,/Out2*
X52159440Y-47538640D03*
G04 #@! TO.P,Q2,3*
G04 #@! TO.N,/+24V*
X52159440Y-44998640D03*
G04 #@! TD*
D20*
G04 #@! TO.P,Q1,1*
G04 #@! TO.N,Net-(C1-Pad2)*
X36159440Y-50078640D03*
D19*
G04 #@! TO.P,Q1,2*
G04 #@! TO.N,/Out1*
X36159440Y-47538640D03*
G04 #@! TO.P,Q1,3*
G04 #@! TO.N,/+24V*
X36159440Y-44998640D03*
G04 #@! TD*
D21*
G04 #@! TO.P,J3,4*
G04 #@! TO.N,/Out4*
X70802500Y-78676500D03*
D22*
G04 #@! TO.P,J3,1*
G04 #@! TO.N,/Out1*
X63182500Y-78676500D03*
D21*
G04 #@! TO.P,J3,2*
G04 #@! TO.N,/Out2*
X65722500Y-78676500D03*
G04 #@! TO.P,J3,3*
G04 #@! TO.N,/Out3*
X68262500Y-78676500D03*
G04 #@! TO.P,J3,5*
G04 #@! TO.N,/Out5*
X73342500Y-78676500D03*
G04 #@! TO.P,J3,6*
G04 #@! TO.N,/GND*
X75882500Y-78676500D03*
G04 #@! TD*
G04 #@! TO.P,J2,6*
G04 #@! TO.N,/GND*
X50927000Y-78613000D03*
G04 #@! TO.P,J2,5*
G04 #@! TO.N,/In5*
X48387000Y-78613000D03*
G04 #@! TO.P,J2,3*
G04 #@! TO.N,/In3*
X43307000Y-78613000D03*
G04 #@! TO.P,J2,2*
G04 #@! TO.N,/In2*
X40767000Y-78613000D03*
D22*
G04 #@! TO.P,J2,1*
G04 #@! TO.N,/In1*
X38227000Y-78613000D03*
D21*
G04 #@! TO.P,J2,4*
G04 #@! TO.N,/In4*
X45847000Y-78613000D03*
G04 #@! TD*
D23*
G04 #@! TO.N,/GND*
X105092500Y-63754000D03*
X109000000Y-72000000D03*
X109000000Y-64000000D03*
X109000000Y-56000000D03*
X109000000Y-50000000D03*
X82000000Y-83000000D03*
X57000000Y-78000000D03*
X104000000Y-42000000D03*
X89000000Y-42000000D03*
X73000000Y-42000000D03*
X58000000Y-42000000D03*
X40000000Y-42000000D03*
X41000000Y-71000000D03*
X34000000Y-74000000D03*
X35000000Y-67000000D03*
X94996000Y-82931000D03*
G04 #@! TO.N,/In5*
X101790500Y-65405000D03*
G04 #@! TO.N,/In3*
X70040500Y-64008000D03*
G04 #@! TO.N,/In2*
X53911500Y-64325500D03*
G04 #@! TO.N,/In1*
X38925500Y-65087500D03*
G04 #@! TO.N,/In4*
X86169500Y-65595500D03*
G04 #@! TD*
D24*
G04 #@! TO.N,/GND*
X97411160Y-66944240D02*
X96222120Y-68133280D01*
X96222120Y-68133280D02*
X96222120Y-69570600D01*
X97738520Y-66944240D02*
X97411160Y-66944240D01*
X98964360Y-64668400D02*
X98964360Y-65718400D01*
X98964360Y-65718400D02*
X97738520Y-66944240D01*
X98964360Y-64668400D02*
X98964360Y-60580280D01*
X98964360Y-60580280D02*
X99087560Y-60457080D01*
X81411160Y-66944240D02*
X80222120Y-68133280D01*
X80222120Y-68133280D02*
X80222120Y-69570600D01*
X81738520Y-66944240D02*
X81411160Y-66944240D01*
X82964360Y-64668400D02*
X82964360Y-65718400D01*
X82964360Y-65718400D02*
X81738520Y-66944240D01*
X82964360Y-64668400D02*
X82964360Y-60580280D01*
X82964360Y-60580280D02*
X83087560Y-60457080D01*
X65411160Y-66944240D02*
X64222120Y-68133280D01*
X64222120Y-68133280D02*
X64222120Y-69570600D01*
X65738520Y-66944240D02*
X65411160Y-66944240D01*
X66964360Y-64668400D02*
X66964360Y-65718400D01*
X66964360Y-65718400D02*
X65738520Y-66944240D01*
X66964360Y-64668400D02*
X66964360Y-60580280D01*
X66964360Y-60580280D02*
X67087560Y-60457080D01*
X49411160Y-66944240D02*
X48222120Y-68133280D01*
X48222120Y-68133280D02*
X48222120Y-69570600D01*
X49738520Y-66944240D02*
X49411160Y-66944240D01*
X50964360Y-64668400D02*
X50964360Y-65718400D01*
X50964360Y-65718400D02*
X49738520Y-66944240D01*
X50964360Y-64668400D02*
X50964360Y-60580280D01*
X50964360Y-60580280D02*
X51087560Y-60457080D01*
X34964360Y-60580280D02*
X35087560Y-60457080D01*
X34964360Y-64668400D02*
X34964360Y-60580280D01*
X34964360Y-65718400D02*
X33738520Y-66944240D01*
X34964360Y-64668400D02*
X34964360Y-65718400D01*
X33738520Y-66944240D02*
X33411160Y-66944240D01*
X32222120Y-68133280D02*
X32222120Y-69570600D01*
X33411160Y-66944240D02*
X32222120Y-68133280D01*
X75882500Y-78676500D02*
X77295992Y-78676500D01*
X75882500Y-80327500D02*
X75882500Y-78676500D01*
X51418508Y-80518000D02*
X75692000Y-80518000D01*
X50927000Y-80026492D02*
X51418508Y-80518000D01*
X50927000Y-78613000D02*
X50927000Y-80026492D01*
X75692000Y-80518000D02*
X75882500Y-80327500D01*
X105092500Y-67907500D02*
X105092500Y-63754000D01*
X86042500Y-78676500D02*
X86042500Y-77277010D01*
X86042500Y-77277010D02*
X88008510Y-75311000D01*
X88008510Y-75311000D02*
X97689000Y-75311000D01*
X97689000Y-75311000D02*
X105092500Y-67907500D01*
X84000000Y-78676500D02*
X86042500Y-78676500D01*
X83375500Y-78676500D02*
X83375500Y-80137000D01*
X77295992Y-78676500D02*
X83375500Y-78676500D01*
X83375500Y-78676500D02*
X84000000Y-78676500D01*
X83375500Y-80137000D02*
X83883500Y-80645000D01*
X83883500Y-80645000D02*
X99123500Y-80645000D01*
X99418500Y-80350000D02*
X101000000Y-80350000D01*
X99123500Y-80645000D02*
X99418500Y-80350000D01*
G04 #@! TO.N,/In5*
X101790500Y-65405000D02*
X101790500Y-57975500D01*
X101362120Y-57547120D02*
X101362120Y-55849520D01*
X101790500Y-57975500D02*
X101362120Y-57547120D01*
G04 #@! TO.N,/In3*
X70040500Y-64008000D02*
X70040500Y-57848500D01*
X69362120Y-57170120D02*
X69362120Y-55849520D01*
X70040500Y-57848500D02*
X69362120Y-57170120D01*
G04 #@! TO.N,/In2*
X53911500Y-64325500D02*
X53911500Y-58928000D01*
X53362120Y-58378620D02*
X53362120Y-55849520D01*
X53911500Y-58928000D02*
X53362120Y-58378620D01*
G04 #@! TO.N,/In1*
X37362120Y-63524120D02*
X38925500Y-65087500D01*
X37362120Y-55849520D02*
X37362120Y-63524120D01*
G04 #@! TO.N,/In4*
X85362120Y-64788120D02*
X85362120Y-55849520D01*
X86169500Y-65595500D02*
X85362120Y-64788120D01*
G04 #@! TO.N,/Out4*
X77408120Y-64669680D02*
X77408120Y-61056520D01*
X77408120Y-61056520D02*
X78007560Y-60457080D01*
X71801989Y-77677011D02*
X71801989Y-74121011D01*
X70802500Y-78676500D02*
X71801989Y-77677011D01*
X71801989Y-74121011D02*
X74168000Y-71755000D01*
X74168000Y-71755000D02*
X74168000Y-61722000D01*
X75432920Y-60457080D02*
X78007560Y-60457080D01*
X74168000Y-61722000D02*
X75432920Y-60457080D01*
G04 #@! TO.N,/Out1*
X29408120Y-61056520D02*
X30007560Y-60457080D01*
X29408120Y-64669680D02*
X29408120Y-61056520D01*
G04 #@! TO.N,/Out2*
X45408120Y-64669680D02*
X45408120Y-61056520D01*
X45408120Y-61056520D02*
X46007560Y-60457080D01*
X44507560Y-60457080D02*
X46007560Y-60457080D01*
X43561000Y-61403640D02*
X44507560Y-60457080D01*
X43497500Y-62166500D02*
X43561000Y-62103000D01*
X43497500Y-69532500D02*
X43497500Y-62166500D01*
X61674992Y-73215500D02*
X47180500Y-73215500D01*
X43561000Y-62103000D02*
X43561000Y-61403640D01*
X65722500Y-78676500D02*
X65722500Y-77263008D01*
X65722500Y-77263008D02*
X61674992Y-73215500D01*
X47180500Y-73215500D02*
X44965000Y-71000000D01*
X44965000Y-71000000D02*
X43497500Y-69532500D01*
G04 #@! TO.N,/Out3*
X61408120Y-64669680D02*
X61408120Y-61056520D01*
X61408120Y-61056520D02*
X62007560Y-60457080D01*
X60446920Y-60457080D02*
X62007560Y-60457080D01*
X68262500Y-78676500D02*
X68262500Y-77263008D01*
X59182000Y-68182508D02*
X59182000Y-61722000D01*
X68262500Y-77263008D02*
X59182000Y-68182508D01*
X59182000Y-61722000D02*
X60446920Y-60457080D01*
G04 #@! TO.N,/Out5*
X93408120Y-64669680D02*
X93408120Y-61056520D01*
X93408120Y-61056520D02*
X94007560Y-60457080D01*
X73342500Y-77263008D02*
X77390008Y-73215500D01*
X73342500Y-78676500D02*
X73342500Y-77263008D01*
X77390008Y-73215500D02*
X87884000Y-73215500D01*
X87884000Y-73215500D02*
X90995500Y-70104000D01*
X90995500Y-70104000D02*
X90995500Y-61595000D01*
X92133420Y-60457080D02*
X94007560Y-60457080D01*
X90995500Y-61595000D02*
X92133420Y-60457080D01*
G04 #@! TO.N,/+24V*
X95323280Y-53031400D02*
X92642640Y-53031400D01*
X92642640Y-53031400D02*
X92610560Y-52999320D01*
X103817040Y-67452240D02*
X101698680Y-69570600D01*
X101698680Y-69570600D02*
X98722120Y-69570600D01*
X100159440Y-44998640D02*
X101432232Y-44998640D01*
X101432232Y-44998640D02*
X103817040Y-47383448D01*
D25*
X100159440Y-44998640D02*
X95374080Y-44998640D01*
X95374080Y-44998640D02*
X94307280Y-43931840D01*
D24*
X79323280Y-53031400D02*
X76642640Y-53031400D01*
X76642640Y-53031400D02*
X76610560Y-52999320D01*
X87817040Y-67452240D02*
X85698680Y-69570600D01*
X85698680Y-69570600D02*
X82722120Y-69570600D01*
X84159440Y-44998640D02*
X85432232Y-44998640D01*
X85432232Y-44998640D02*
X87817040Y-47383448D01*
D25*
X84159440Y-44998640D02*
X79374080Y-44998640D01*
X79374080Y-44998640D02*
X78307280Y-43931840D01*
D24*
X63323280Y-53031400D02*
X60642640Y-53031400D01*
X60642640Y-53031400D02*
X60610560Y-52999320D01*
X71817040Y-67452240D02*
X69698680Y-69570600D01*
X69698680Y-69570600D02*
X66722120Y-69570600D01*
X68159440Y-44998640D02*
X69432232Y-44998640D01*
X69432232Y-44998640D02*
X71817040Y-47383448D01*
D25*
X68159440Y-44998640D02*
X63374080Y-44998640D01*
X63374080Y-44998640D02*
X62307280Y-43931840D01*
D24*
X47323280Y-53031400D02*
X44642640Y-53031400D01*
X44642640Y-53031400D02*
X44610560Y-52999320D01*
X55817040Y-67452240D02*
X53698680Y-69570600D01*
X53698680Y-69570600D02*
X50722120Y-69570600D01*
X52159440Y-44998640D02*
X53432232Y-44998640D01*
X53432232Y-44998640D02*
X55817040Y-47383448D01*
D25*
X52159440Y-44998640D02*
X47374080Y-44998640D01*
X47374080Y-44998640D02*
X46307280Y-43931840D01*
X31374080Y-44998640D02*
X30307280Y-43931840D01*
X36159440Y-44998640D02*
X31374080Y-44998640D01*
D24*
X28610560Y-51849320D02*
X27523440Y-50762200D01*
X28610560Y-52999320D02*
X28610560Y-51849320D01*
X27523440Y-46715680D02*
X30307280Y-43931840D01*
X27523440Y-50762200D02*
X27523440Y-46715680D01*
X28642640Y-53031400D02*
X28610560Y-52999320D01*
X31323280Y-53031400D02*
X28642640Y-53031400D01*
X55817040Y-47383448D02*
X55817040Y-67452240D01*
X87820500Y-47368208D02*
X87820500Y-67437000D01*
X103817040Y-47383448D02*
X103817040Y-67452240D01*
X71817040Y-47383448D02*
X71817040Y-67452240D01*
D25*
X45240480Y-44998640D02*
X46307280Y-43931840D01*
X36159440Y-44998640D02*
X45240480Y-44998640D01*
X61240480Y-44998640D02*
X62307280Y-43931840D01*
X52159440Y-44998640D02*
X61240480Y-44998640D01*
X77240480Y-44998640D02*
X78307280Y-43931840D01*
X68159440Y-44998640D02*
X77240480Y-44998640D01*
X84159440Y-44998640D02*
X93240480Y-44998640D01*
D24*
X37698680Y-69570600D02*
X34722120Y-69570600D01*
X37432232Y-44998640D02*
X40957500Y-48523908D01*
X36159440Y-44998640D02*
X37432232Y-44998640D01*
X40957500Y-48523908D02*
X40957500Y-65000000D01*
X40957500Y-66311780D02*
X37698680Y-69570600D01*
D25*
X104688640Y-44998640D02*
X100159440Y-44998640D01*
X106299000Y-46609000D02*
X104688640Y-44998640D01*
X106299000Y-68701000D02*
X106299000Y-46609000D01*
D24*
X104000000Y-80350000D02*
X105650000Y-80350000D01*
X105650000Y-80350000D02*
X106000000Y-80000000D01*
X106000000Y-73000000D02*
X104000000Y-71000000D01*
X106000000Y-80000000D02*
X106000000Y-73000000D01*
D25*
X104000000Y-71000000D02*
X106299000Y-68701000D01*
D24*
X40957500Y-65000000D02*
X40957500Y-66311780D01*
D25*
X94307280Y-43931840D02*
X93240480Y-44998640D01*
D24*
X44610560Y-51849320D02*
X44610560Y-52999320D01*
X45240480Y-44998640D02*
X44599860Y-44998640D01*
X44599860Y-44998640D02*
X43523440Y-46075060D01*
X43523440Y-46075060D02*
X43523440Y-50762200D01*
X43523440Y-50762200D02*
X44610560Y-51849320D01*
X61240480Y-44998640D02*
X60474860Y-44998640D01*
X60610560Y-51849320D02*
X60610560Y-52999320D01*
X60474860Y-44998640D02*
X59523440Y-45950060D01*
X59523440Y-45950060D02*
X59523440Y-50762200D01*
X59523440Y-50762200D02*
X60610560Y-51849320D01*
X76610560Y-51849320D02*
X76610560Y-52999320D01*
X77240480Y-44998640D02*
X76349860Y-44998640D01*
X75523440Y-50762200D02*
X76610560Y-51849320D01*
X76349860Y-44998640D02*
X75523440Y-45825060D01*
X75523440Y-45825060D02*
X75523440Y-50762200D01*
X92610560Y-51849320D02*
X92610560Y-52999320D01*
X93240480Y-44998640D02*
X92415360Y-44998640D01*
X91523440Y-50762200D02*
X92610560Y-51849320D01*
X92415360Y-44998640D02*
X91523440Y-45890560D01*
X91523440Y-45890560D02*
X91523440Y-50762200D01*
D25*
X104000000Y-71000000D02*
X104000000Y-71006000D01*
X96329500Y-78676500D02*
X89542500Y-78676500D01*
X104000000Y-71006000D02*
X96329500Y-78676500D01*
D24*
G04 #@! TO.N,Net-(C1-Pad2)*
X34859440Y-50078640D02*
X34574960Y-49794160D01*
X36159440Y-50078640D02*
X34859440Y-50078640D01*
X34574960Y-49794160D02*
X33985200Y-49794160D01*
X33202880Y-49011840D02*
X30307280Y-49011840D01*
X33985200Y-49794160D02*
X33202880Y-49011840D01*
X36159440Y-51378640D02*
X35290280Y-52247800D01*
X36159440Y-50078640D02*
X36159440Y-51378640D01*
X35290280Y-52247800D02*
X35290280Y-53177920D01*
X34662120Y-53806080D02*
X34662120Y-55849520D01*
X35290280Y-53177920D02*
X34662120Y-53806080D01*
X31441400Y-55849520D02*
X31323280Y-55731400D01*
X34662120Y-55849520D02*
X31441400Y-55849520D01*
X28842640Y-55731400D02*
X28610560Y-55499320D01*
X31323280Y-55731400D02*
X28842640Y-55731400D01*
G04 #@! TO.N,Net-(C3-Pad2)*
X47323280Y-55731400D02*
X44842640Y-55731400D01*
X44842640Y-55731400D02*
X44610560Y-55499320D01*
X50662120Y-55849520D02*
X47441400Y-55849520D01*
X47441400Y-55849520D02*
X47323280Y-55731400D01*
X51290280Y-53177920D02*
X50662120Y-53806080D01*
X50662120Y-53806080D02*
X50662120Y-55849520D01*
X51290280Y-52247800D02*
X51290280Y-53177920D01*
X52159440Y-50078640D02*
X52159440Y-51378640D01*
X52159440Y-51378640D02*
X51290280Y-52247800D01*
X49985200Y-49794160D02*
X49202880Y-49011840D01*
X49202880Y-49011840D02*
X46307280Y-49011840D01*
X50574960Y-49794160D02*
X49985200Y-49794160D01*
X52159440Y-50078640D02*
X50859440Y-50078640D01*
X50859440Y-50078640D02*
X50574960Y-49794160D01*
G04 #@! TO.N,Net-(C5-Pad2)*
X63323280Y-55731400D02*
X60842640Y-55731400D01*
X60842640Y-55731400D02*
X60610560Y-55499320D01*
X66662120Y-55849520D02*
X63441400Y-55849520D01*
X63441400Y-55849520D02*
X63323280Y-55731400D01*
X67290280Y-53177920D02*
X66662120Y-53806080D01*
X66662120Y-53806080D02*
X66662120Y-55849520D01*
X67290280Y-52247800D02*
X67290280Y-53177920D01*
X68159440Y-50078640D02*
X68159440Y-51378640D01*
X68159440Y-51378640D02*
X67290280Y-52247800D01*
X65985200Y-49794160D02*
X65202880Y-49011840D01*
X65202880Y-49011840D02*
X62307280Y-49011840D01*
X66574960Y-49794160D02*
X65985200Y-49794160D01*
X68159440Y-50078640D02*
X66859440Y-50078640D01*
X66859440Y-50078640D02*
X66574960Y-49794160D01*
G04 #@! TO.N,Net-(C7-Pad2)*
X79323280Y-55731400D02*
X76842640Y-55731400D01*
X76842640Y-55731400D02*
X76610560Y-55499320D01*
X82662120Y-55849520D02*
X79441400Y-55849520D01*
X79441400Y-55849520D02*
X79323280Y-55731400D01*
X83290280Y-53177920D02*
X82662120Y-53806080D01*
X82662120Y-53806080D02*
X82662120Y-55849520D01*
X83290280Y-52247800D02*
X83290280Y-53177920D01*
X84159440Y-50078640D02*
X84159440Y-51378640D01*
X84159440Y-51378640D02*
X83290280Y-52247800D01*
X81985200Y-49794160D02*
X81202880Y-49011840D01*
X81202880Y-49011840D02*
X78307280Y-49011840D01*
X82574960Y-49794160D02*
X81985200Y-49794160D01*
X84159440Y-50078640D02*
X82859440Y-50078640D01*
X82859440Y-50078640D02*
X82574960Y-49794160D01*
G04 #@! TO.N,Net-(C9-Pad2)*
X95323280Y-55731400D02*
X92842640Y-55731400D01*
X92842640Y-55731400D02*
X92610560Y-55499320D01*
X98662120Y-55849520D02*
X95441400Y-55849520D01*
X95441400Y-55849520D02*
X95323280Y-55731400D01*
X99290280Y-53177920D02*
X98662120Y-53806080D01*
X98662120Y-53806080D02*
X98662120Y-55849520D01*
X99290280Y-52247800D02*
X99290280Y-53177920D01*
X100159440Y-50078640D02*
X100159440Y-51378640D01*
X100159440Y-51378640D02*
X99290280Y-52247800D01*
X97985200Y-49794160D02*
X97202880Y-49011840D01*
X97202880Y-49011840D02*
X94307280Y-49011840D01*
X98574960Y-49794160D02*
X97985200Y-49794160D01*
X100159440Y-50078640D02*
X98859440Y-50078640D01*
X98859440Y-50078640D02*
X98574960Y-49794160D01*
G04 #@! TO.N,Net-(D11-Pad1)*
X79755080Y-66654680D02*
X79040080Y-67369680D01*
X79040080Y-67369680D02*
X77408120Y-67369680D01*
X79755080Y-66227680D02*
X79755080Y-66654680D01*
X80264360Y-64668400D02*
X80264360Y-65718400D01*
X80264360Y-65718400D02*
X79755080Y-66227680D01*
G04 #@! TO.N,Net-(D8-Pad1)*
X63755080Y-66654680D02*
X63040080Y-67369680D01*
X63040080Y-67369680D02*
X61408120Y-67369680D01*
X63755080Y-66227680D02*
X63755080Y-66654680D01*
X64264360Y-64668400D02*
X64264360Y-65718400D01*
X64264360Y-65718400D02*
X63755080Y-66227680D01*
G04 #@! TO.N,Net-(D5-Pad1)*
X47755080Y-66654680D02*
X47040080Y-67369680D01*
X47040080Y-67369680D02*
X45408120Y-67369680D01*
X47755080Y-66227680D02*
X47755080Y-66654680D01*
X48264360Y-64668400D02*
X48264360Y-65718400D01*
X48264360Y-65718400D02*
X47755080Y-66227680D01*
G04 #@! TO.N,Net-(D2-Pad1)*
X32264360Y-65718400D02*
X31755080Y-66227680D01*
X32264360Y-64668400D02*
X32264360Y-65718400D01*
X31755080Y-66227680D02*
X31755080Y-66654680D01*
X31040080Y-67369680D02*
X29408120Y-67369680D01*
X31755080Y-66654680D02*
X31040080Y-67369680D01*
G04 #@! TO.N,Net-(D14-Pad1)*
X95755080Y-66654680D02*
X95040080Y-67369680D01*
X95040080Y-67369680D02*
X93408120Y-67369680D01*
X95755080Y-66227680D02*
X95755080Y-66654680D01*
X96264360Y-64668400D02*
X96264360Y-65718400D01*
X96264360Y-65718400D02*
X95755080Y-66227680D01*
G04 #@! TO.N,Net-(D16-Pad1)*
X101000000Y-77650000D02*
X104000000Y-77650000D01*
G04 #@! TD*
D26*
G04 #@! TO.N,/GND*
G36*
X111484485Y-41191880D02*
X111935952Y-41378884D01*
X112323636Y-41676364D01*
X112621116Y-42064048D01*
X112808120Y-42515515D01*
X112873000Y-43008328D01*
X112873000Y-82991672D01*
X112808120Y-83484485D01*
X112621116Y-83935952D01*
X112323636Y-84323636D01*
X111935952Y-84621116D01*
X111484485Y-84808120D01*
X110991672Y-84873000D01*
X61062000Y-84873000D01*
X61062000Y-81268000D01*
X53492000Y-81268000D01*
X53492000Y-84873000D01*
X29008328Y-84873000D01*
X28515515Y-84808120D01*
X28064048Y-84621116D01*
X27676364Y-84323636D01*
X27378884Y-83935952D01*
X27191880Y-83484485D01*
X27127000Y-82991672D01*
X27127000Y-80555431D01*
X27765000Y-80555431D01*
X27765000Y-81444569D01*
X28105259Y-82266026D01*
X28733974Y-82894741D01*
X29555431Y-83235000D01*
X30444569Y-83235000D01*
X31266026Y-82894741D01*
X31894741Y-82266026D01*
X32235000Y-81444569D01*
X32235000Y-80635750D01*
X99715000Y-80635750D01*
X99715000Y-81226309D01*
X99811673Y-81459698D01*
X99990301Y-81638327D01*
X100223690Y-81735000D01*
X100714250Y-81735000D01*
X100873000Y-81576250D01*
X100873000Y-80477000D01*
X101127000Y-80477000D01*
X101127000Y-81576250D01*
X101285750Y-81735000D01*
X101776310Y-81735000D01*
X102009699Y-81638327D01*
X102188327Y-81459698D01*
X102285000Y-81226309D01*
X102285000Y-80635750D01*
X102126250Y-80477000D01*
X101127000Y-80477000D01*
X100873000Y-80477000D01*
X99873750Y-80477000D01*
X99715000Y-80635750D01*
X32235000Y-80635750D01*
X32235000Y-80555431D01*
X31894741Y-79733974D01*
X31266026Y-79105259D01*
X30444569Y-78765000D01*
X29555431Y-78765000D01*
X28733974Y-79105259D01*
X28105259Y-79733974D01*
X27765000Y-80555431D01*
X27127000Y-80555431D01*
X27127000Y-77613510D01*
X36580070Y-77613510D01*
X36580070Y-79612490D01*
X36629353Y-79860255D01*
X36769701Y-80070299D01*
X36979745Y-80210647D01*
X37227510Y-80259930D01*
X39226490Y-80259930D01*
X39474255Y-80210647D01*
X39684299Y-80070299D01*
X39783595Y-79921693D01*
X40129254Y-80152655D01*
X40606020Y-80247490D01*
X40927980Y-80247490D01*
X41404746Y-80152655D01*
X41945401Y-79791401D01*
X42037000Y-79654313D01*
X42128599Y-79791401D01*
X42669254Y-80152655D01*
X43146020Y-80247490D01*
X43467980Y-80247490D01*
X43944746Y-80152655D01*
X44485401Y-79791401D01*
X44577000Y-79654313D01*
X44668599Y-79791401D01*
X45209254Y-80152655D01*
X45686020Y-80247490D01*
X46007980Y-80247490D01*
X46484746Y-80152655D01*
X47025401Y-79791401D01*
X47117000Y-79654313D01*
X47208599Y-79791401D01*
X47749254Y-80152655D01*
X48226020Y-80247490D01*
X48547980Y-80247490D01*
X49024746Y-80152655D01*
X49565401Y-79791401D01*
X49677718Y-79623306D01*
X49967274Y-79936068D01*
X50546645Y-80202627D01*
X50800000Y-80083807D01*
X50800000Y-78740000D01*
X51054000Y-78740000D01*
X51054000Y-80083807D01*
X51307355Y-80202627D01*
X51886726Y-79936068D01*
X52319987Y-79468084D01*
X52516619Y-78993354D01*
X52397265Y-78740000D01*
X51054000Y-78740000D01*
X50800000Y-78740000D01*
X50780000Y-78740000D01*
X50780000Y-78486000D01*
X50800000Y-78486000D01*
X50800000Y-77142193D01*
X51054000Y-77142193D01*
X51054000Y-78486000D01*
X52397265Y-78486000D01*
X52516619Y-78232646D01*
X52319987Y-77757916D01*
X51886726Y-77289932D01*
X51307355Y-77023373D01*
X51054000Y-77142193D01*
X50800000Y-77142193D01*
X50546645Y-77023373D01*
X49967274Y-77289932D01*
X49677718Y-77602694D01*
X49565401Y-77434599D01*
X49024746Y-77073345D01*
X48547980Y-76978510D01*
X48226020Y-76978510D01*
X47749254Y-77073345D01*
X47208599Y-77434599D01*
X47117000Y-77571687D01*
X47025401Y-77434599D01*
X46484746Y-77073345D01*
X46007980Y-76978510D01*
X45686020Y-76978510D01*
X45209254Y-77073345D01*
X44668599Y-77434599D01*
X44577000Y-77571687D01*
X44485401Y-77434599D01*
X43944746Y-77073345D01*
X43467980Y-76978510D01*
X43146020Y-76978510D01*
X42669254Y-77073345D01*
X42128599Y-77434599D01*
X42037000Y-77571687D01*
X41945401Y-77434599D01*
X41404746Y-77073345D01*
X40927980Y-76978510D01*
X40606020Y-76978510D01*
X40129254Y-77073345D01*
X39783595Y-77304307D01*
X39684299Y-77155701D01*
X39474255Y-77015353D01*
X39226490Y-76966070D01*
X37227510Y-76966070D01*
X36979745Y-77015353D01*
X36769701Y-77155701D01*
X36629353Y-77365745D01*
X36580070Y-77613510D01*
X27127000Y-77613510D01*
X27127000Y-69856350D01*
X30837120Y-69856350D01*
X30837120Y-70321910D01*
X30933793Y-70555299D01*
X31112422Y-70733927D01*
X31345811Y-70830600D01*
X31936370Y-70830600D01*
X32095120Y-70671850D01*
X32095120Y-69697600D01*
X30995870Y-69697600D01*
X30837120Y-69856350D01*
X27127000Y-69856350D01*
X27127000Y-68819290D01*
X30837120Y-68819290D01*
X30837120Y-69284850D01*
X30995870Y-69443600D01*
X32095120Y-69443600D01*
X32095120Y-68469350D01*
X31936370Y-68310600D01*
X31345811Y-68310600D01*
X31112422Y-68407273D01*
X30933793Y-68585901D01*
X30837120Y-68819290D01*
X27127000Y-68819290D01*
X27127000Y-63919680D01*
X28110680Y-63919680D01*
X28110680Y-65419680D01*
X28159963Y-65667445D01*
X28300311Y-65877489D01*
X28510355Y-66017837D01*
X28519620Y-66019680D01*
X28510355Y-66021523D01*
X28300311Y-66161871D01*
X28159963Y-66371915D01*
X28110680Y-66619680D01*
X28110680Y-68119680D01*
X28159963Y-68367445D01*
X28300311Y-68577489D01*
X28510355Y-68717837D01*
X28758120Y-68767120D01*
X30058120Y-68767120D01*
X30305885Y-68717837D01*
X30515929Y-68577489D01*
X30656277Y-68367445D01*
X30688653Y-68204680D01*
X30957847Y-68204680D01*
X31040080Y-68221037D01*
X31122313Y-68204680D01*
X31122317Y-68204680D01*
X31365881Y-68156232D01*
X31642081Y-67971681D01*
X31688667Y-67901960D01*
X32287362Y-67303266D01*
X32357081Y-67256681D01*
X32541632Y-66980481D01*
X32590080Y-66736916D01*
X32606438Y-66654680D01*
X32590263Y-66573364D01*
X32796640Y-66366987D01*
X32866361Y-66320401D01*
X33050912Y-66044201D01*
X33068647Y-65955042D01*
X33262125Y-65916557D01*
X33472169Y-65776209D01*
X33612517Y-65566165D01*
X33618081Y-65538191D01*
X33676033Y-65678099D01*
X33854662Y-65856727D01*
X34088051Y-65953400D01*
X34678610Y-65953400D01*
X34837360Y-65794650D01*
X34837360Y-64795400D01*
X35091360Y-64795400D01*
X35091360Y-65794650D01*
X35250110Y-65953400D01*
X35840669Y-65953400D01*
X36074058Y-65856727D01*
X36252687Y-65678099D01*
X36349360Y-65444710D01*
X36349360Y-64954150D01*
X36190610Y-64795400D01*
X35091360Y-64795400D01*
X34837360Y-64795400D01*
X34817360Y-64795400D01*
X34817360Y-64541400D01*
X34837360Y-64541400D01*
X34837360Y-63542150D01*
X35091360Y-63542150D01*
X35091360Y-64541400D01*
X36190610Y-64541400D01*
X36349360Y-64382650D01*
X36349360Y-63892090D01*
X36252687Y-63658701D01*
X36074058Y-63480073D01*
X35840669Y-63383400D01*
X35250110Y-63383400D01*
X35091360Y-63542150D01*
X34837360Y-63542150D01*
X34678610Y-63383400D01*
X34088051Y-63383400D01*
X33854662Y-63480073D01*
X33676033Y-63658701D01*
X33618081Y-63798609D01*
X33612517Y-63770635D01*
X33472169Y-63560591D01*
X33262125Y-63420243D01*
X33014360Y-63370960D01*
X31514360Y-63370960D01*
X31266595Y-63420243D01*
X31056551Y-63560591D01*
X30916203Y-63770635D01*
X30866920Y-64018400D01*
X30866920Y-65318400D01*
X30916203Y-65566165D01*
X31054525Y-65773176D01*
X30968528Y-65901880D01*
X30920080Y-66145444D01*
X30920080Y-66145447D01*
X30903723Y-66227680D01*
X30919897Y-66308995D01*
X30694213Y-66534680D01*
X30688653Y-66534680D01*
X30656277Y-66371915D01*
X30515929Y-66161871D01*
X30305885Y-66021523D01*
X30296620Y-66019680D01*
X30305885Y-66017837D01*
X30515929Y-65877489D01*
X30656277Y-65667445D01*
X30705560Y-65419680D01*
X30705560Y-63919680D01*
X30656277Y-63671915D01*
X30515929Y-63461871D01*
X30305885Y-63321523D01*
X30243120Y-63309038D01*
X30243120Y-62204520D01*
X31107560Y-62204520D01*
X31355325Y-62155237D01*
X31565369Y-62014889D01*
X31705717Y-61804845D01*
X31755000Y-61557080D01*
X31755000Y-60853202D01*
X33398385Y-60853202D01*
X33613026Y-61371412D01*
X34075168Y-61866092D01*
X34691437Y-62146263D01*
X34960560Y-62028684D01*
X34960560Y-60584080D01*
X33516435Y-60584080D01*
X33398385Y-60853202D01*
X31755000Y-60853202D01*
X31755000Y-60060958D01*
X33398385Y-60060958D01*
X33516435Y-60330080D01*
X34960560Y-60330080D01*
X34960560Y-58885476D01*
X34691437Y-58767897D01*
X34075168Y-59048068D01*
X33613026Y-59542748D01*
X33398385Y-60060958D01*
X31755000Y-60060958D01*
X31755000Y-59357080D01*
X31705717Y-59109315D01*
X31565369Y-58899271D01*
X31355325Y-58758923D01*
X31107560Y-58709640D01*
X28907560Y-58709640D01*
X28659795Y-58758923D01*
X28449751Y-58899271D01*
X28309403Y-59109315D01*
X28260120Y-59357080D01*
X28260120Y-61557080D01*
X28309403Y-61804845D01*
X28449751Y-62014889D01*
X28573121Y-62097323D01*
X28573120Y-63309038D01*
X28510355Y-63321523D01*
X28300311Y-63461871D01*
X28159963Y-63671915D01*
X28110680Y-63919680D01*
X27127000Y-63919680D01*
X27127000Y-51546627D01*
X27465319Y-51884946D01*
X27387403Y-52001555D01*
X27338120Y-52249320D01*
X27338120Y-53749320D01*
X27387403Y-53997085D01*
X27527751Y-54207129D01*
X27590894Y-54249320D01*
X27527751Y-54291511D01*
X27387403Y-54501555D01*
X27338120Y-54749320D01*
X27338120Y-56249320D01*
X27387403Y-56497085D01*
X27527751Y-56707129D01*
X27737795Y-56847477D01*
X27985560Y-56896760D01*
X29235560Y-56896760D01*
X29483325Y-56847477D01*
X29693369Y-56707129D01*
X29787402Y-56566400D01*
X30042747Y-56566400D01*
X30075123Y-56729165D01*
X30215471Y-56939209D01*
X30425515Y-57079557D01*
X30673280Y-57128840D01*
X31973280Y-57128840D01*
X32221045Y-57079557D01*
X32431089Y-56939209D01*
X32571437Y-56729165D01*
X32580317Y-56684520D01*
X33301478Y-56684520D01*
X33313963Y-56747285D01*
X33454311Y-56957329D01*
X33664355Y-57097677D01*
X33912120Y-57146960D01*
X35412120Y-57146960D01*
X35659885Y-57097677D01*
X35869929Y-56957329D01*
X36010277Y-56747285D01*
X36012120Y-56738020D01*
X36013963Y-56747285D01*
X36154311Y-56957329D01*
X36364355Y-57097677D01*
X36527120Y-57130053D01*
X36527120Y-59505312D01*
X36099952Y-59048068D01*
X35483683Y-58767897D01*
X35214560Y-58885476D01*
X35214560Y-60330080D01*
X35234560Y-60330080D01*
X35234560Y-60584080D01*
X35214560Y-60584080D01*
X35214560Y-62028684D01*
X35483683Y-62146263D01*
X36099952Y-61866092D01*
X36527121Y-61408848D01*
X36527121Y-63441882D01*
X36510763Y-63524120D01*
X36575568Y-63849920D01*
X36575569Y-63849921D01*
X36760120Y-64126121D01*
X36829838Y-64172705D01*
X37790500Y-65133368D01*
X37790500Y-65313266D01*
X37963293Y-65730426D01*
X38282574Y-66049707D01*
X38699734Y-66222500D01*
X39151266Y-66222500D01*
X39568426Y-66049707D01*
X39887707Y-65730426D01*
X40060500Y-65313266D01*
X40060500Y-64861734D01*
X39887707Y-64444574D01*
X39568426Y-64125293D01*
X39151266Y-63952500D01*
X38971368Y-63952500D01*
X38197120Y-63178253D01*
X38197120Y-57130053D01*
X38359885Y-57097677D01*
X38569929Y-56957329D01*
X38710277Y-56747285D01*
X38759560Y-56499520D01*
X38759560Y-55199520D01*
X38710277Y-54951755D01*
X38569929Y-54741711D01*
X38359885Y-54601363D01*
X38112120Y-54552080D01*
X36612120Y-54552080D01*
X36364355Y-54601363D01*
X36154311Y-54741711D01*
X36013963Y-54951755D01*
X36012120Y-54961020D01*
X36010277Y-54951755D01*
X35869929Y-54741711D01*
X35659885Y-54601363D01*
X35497120Y-54568987D01*
X35497120Y-54151948D01*
X35822565Y-53826504D01*
X35892281Y-53779921D01*
X36076832Y-53503721D01*
X36125280Y-53260157D01*
X36125280Y-53260154D01*
X36141637Y-53177921D01*
X36125280Y-53095688D01*
X36125280Y-52593667D01*
X36691722Y-52027226D01*
X36761441Y-51980641D01*
X36945992Y-51704441D01*
X36961579Y-51626080D01*
X37059440Y-51626080D01*
X37307205Y-51576797D01*
X37517249Y-51436449D01*
X37657597Y-51226405D01*
X37706880Y-50978640D01*
X37706880Y-49178640D01*
X37657597Y-48930875D01*
X37517249Y-48720831D01*
X37308744Y-48581511D01*
X37605378Y-48137567D01*
X37724512Y-47538640D01*
X37605378Y-46939713D01*
X37266113Y-46431967D01*
X37021677Y-46268640D01*
X37223719Y-46133640D01*
X37386365Y-46133640D01*
X40122500Y-48869776D01*
X40122501Y-64917759D01*
X40122500Y-64917764D01*
X40122501Y-65965910D01*
X37352813Y-68735600D01*
X36077789Y-68735600D01*
X36070277Y-68697835D01*
X35929929Y-68487791D01*
X35719885Y-68347443D01*
X35472120Y-68298160D01*
X33972120Y-68298160D01*
X33724355Y-68347443D01*
X33514311Y-68487791D01*
X33473466Y-68548920D01*
X33331818Y-68407273D01*
X33098429Y-68310600D01*
X32507870Y-68310600D01*
X32349120Y-68469350D01*
X32349120Y-69443600D01*
X32369120Y-69443600D01*
X32369120Y-69697600D01*
X32349120Y-69697600D01*
X32349120Y-70671850D01*
X32507870Y-70830600D01*
X33098429Y-70830600D01*
X33331818Y-70733927D01*
X33473466Y-70592280D01*
X33514311Y-70653409D01*
X33724355Y-70793757D01*
X33972120Y-70843040D01*
X35472120Y-70843040D01*
X35719885Y-70793757D01*
X35929929Y-70653409D01*
X36070277Y-70443365D01*
X36077789Y-70405600D01*
X37616447Y-70405600D01*
X37698680Y-70421957D01*
X37780913Y-70405600D01*
X37780917Y-70405600D01*
X38024481Y-70357152D01*
X38300681Y-70172601D01*
X38347267Y-70102880D01*
X41489786Y-66960363D01*
X41559501Y-66913781D01*
X41677679Y-66736916D01*
X41744052Y-66637581D01*
X41764520Y-66534680D01*
X41792500Y-66394017D01*
X41792500Y-66394014D01*
X41808857Y-66311781D01*
X41792500Y-66229548D01*
X41792500Y-62166500D01*
X42646143Y-62166500D01*
X42662501Y-62248738D01*
X42662500Y-69450267D01*
X42646143Y-69532500D01*
X42662500Y-69614733D01*
X42662500Y-69614736D01*
X42710948Y-69858300D01*
X42895499Y-70134501D01*
X42965220Y-70181087D01*
X44432715Y-71648584D01*
X44432721Y-71648588D01*
X46531915Y-73747783D01*
X46578499Y-73817501D01*
X46854699Y-74002052D01*
X47098263Y-74050500D01*
X47098266Y-74050500D01*
X47180499Y-74066857D01*
X47262732Y-74050500D01*
X61329125Y-74050500D01*
X64339531Y-77060906D01*
X64181990Y-77029570D01*
X62183010Y-77029570D01*
X61935245Y-77078853D01*
X61725201Y-77219201D01*
X61584853Y-77429245D01*
X61535570Y-77677010D01*
X61535570Y-79675990D01*
X61584853Y-79923755D01*
X61725201Y-80133799D01*
X61935245Y-80274147D01*
X62183010Y-80323430D01*
X64181990Y-80323430D01*
X64429755Y-80274147D01*
X64639799Y-80133799D01*
X64739095Y-79985193D01*
X65084754Y-80216155D01*
X65561520Y-80310990D01*
X65883480Y-80310990D01*
X66360246Y-80216155D01*
X66900901Y-79854901D01*
X66992500Y-79717813D01*
X67084099Y-79854901D01*
X67624754Y-80216155D01*
X68101520Y-80310990D01*
X68423480Y-80310990D01*
X68900246Y-80216155D01*
X69440901Y-79854901D01*
X69532500Y-79717813D01*
X69624099Y-79854901D01*
X70164754Y-80216155D01*
X70641520Y-80310990D01*
X70963480Y-80310990D01*
X71440246Y-80216155D01*
X71980901Y-79854901D01*
X72072500Y-79717813D01*
X72164099Y-79854901D01*
X72704754Y-80216155D01*
X73181520Y-80310990D01*
X73503480Y-80310990D01*
X73980246Y-80216155D01*
X74520901Y-79854901D01*
X74633218Y-79686806D01*
X74922774Y-79999568D01*
X75502145Y-80266127D01*
X75755500Y-80147307D01*
X75755500Y-78803500D01*
X76009500Y-78803500D01*
X76009500Y-80147307D01*
X76262855Y-80266127D01*
X76842226Y-79999568D01*
X77275487Y-79531584D01*
X77472119Y-79056854D01*
X77427552Y-78962250D01*
X84207500Y-78962250D01*
X84207500Y-80002810D01*
X84304173Y-80236199D01*
X84482802Y-80414827D01*
X84716191Y-80511500D01*
X85756750Y-80511500D01*
X85915500Y-80352750D01*
X85915500Y-78803500D01*
X84366250Y-78803500D01*
X84207500Y-78962250D01*
X77427552Y-78962250D01*
X77352765Y-78803500D01*
X76009500Y-78803500D01*
X75755500Y-78803500D01*
X75735500Y-78803500D01*
X75735500Y-78549500D01*
X75755500Y-78549500D01*
X75755500Y-77205693D01*
X76009500Y-77205693D01*
X76009500Y-78549500D01*
X77352765Y-78549500D01*
X77472119Y-78296146D01*
X77275487Y-77821416D01*
X76842226Y-77353432D01*
X76835180Y-77350190D01*
X84207500Y-77350190D01*
X84207500Y-78390750D01*
X84366250Y-78549500D01*
X85915500Y-78549500D01*
X85915500Y-77000250D01*
X85756750Y-76841500D01*
X84716191Y-76841500D01*
X84482802Y-76938173D01*
X84304173Y-77116801D01*
X84207500Y-77350190D01*
X76835180Y-77350190D01*
X76262855Y-77086873D01*
X76009500Y-77205693D01*
X75755500Y-77205693D01*
X75502145Y-77086873D01*
X74922774Y-77353432D01*
X74633218Y-77666194D01*
X74520901Y-77498099D01*
X74381453Y-77404923D01*
X77735876Y-74050500D01*
X87801767Y-74050500D01*
X87884000Y-74066857D01*
X87966233Y-74050500D01*
X87966237Y-74050500D01*
X88209801Y-74002052D01*
X88486001Y-73817501D01*
X88532587Y-73747780D01*
X91527786Y-70752583D01*
X91597501Y-70706001D01*
X91782052Y-70429801D01*
X91830500Y-70186237D01*
X91830500Y-70186233D01*
X91846857Y-70104001D01*
X91830500Y-70021769D01*
X91830500Y-69856350D01*
X94837120Y-69856350D01*
X94837120Y-70321910D01*
X94933793Y-70555299D01*
X95112422Y-70733927D01*
X95345811Y-70830600D01*
X95936370Y-70830600D01*
X96095120Y-70671850D01*
X96095120Y-69697600D01*
X94995870Y-69697600D01*
X94837120Y-69856350D01*
X91830500Y-69856350D01*
X91830500Y-68819290D01*
X94837120Y-68819290D01*
X94837120Y-69284850D01*
X94995870Y-69443600D01*
X96095120Y-69443600D01*
X96095120Y-68469350D01*
X95936370Y-68310600D01*
X95345811Y-68310600D01*
X95112422Y-68407273D01*
X94933793Y-68585901D01*
X94837120Y-68819290D01*
X91830500Y-68819290D01*
X91830500Y-61940867D01*
X92260120Y-61511248D01*
X92260120Y-61557080D01*
X92309403Y-61804845D01*
X92449751Y-62014889D01*
X92573121Y-62097323D01*
X92573120Y-63309038D01*
X92510355Y-63321523D01*
X92300311Y-63461871D01*
X92159963Y-63671915D01*
X92110680Y-63919680D01*
X92110680Y-65419680D01*
X92159963Y-65667445D01*
X92300311Y-65877489D01*
X92510355Y-66017837D01*
X92519620Y-66019680D01*
X92510355Y-66021523D01*
X92300311Y-66161871D01*
X92159963Y-66371915D01*
X92110680Y-66619680D01*
X92110680Y-68119680D01*
X92159963Y-68367445D01*
X92300311Y-68577489D01*
X92510355Y-68717837D01*
X92758120Y-68767120D01*
X94058120Y-68767120D01*
X94305885Y-68717837D01*
X94515929Y-68577489D01*
X94656277Y-68367445D01*
X94688653Y-68204680D01*
X94957847Y-68204680D01*
X95040080Y-68221037D01*
X95122313Y-68204680D01*
X95122317Y-68204680D01*
X95365881Y-68156232D01*
X95642081Y-67971681D01*
X95688667Y-67901960D01*
X96287362Y-67303266D01*
X96357081Y-67256681D01*
X96541632Y-66980481D01*
X96590080Y-66736916D01*
X96606438Y-66654680D01*
X96590263Y-66573364D01*
X96796640Y-66366987D01*
X96866361Y-66320401D01*
X97050912Y-66044201D01*
X97068647Y-65955042D01*
X97262125Y-65916557D01*
X97472169Y-65776209D01*
X97612517Y-65566165D01*
X97618081Y-65538191D01*
X97676033Y-65678099D01*
X97854662Y-65856727D01*
X98088051Y-65953400D01*
X98678610Y-65953400D01*
X98837360Y-65794650D01*
X98837360Y-64795400D01*
X99091360Y-64795400D01*
X99091360Y-65794650D01*
X99250110Y-65953400D01*
X99840669Y-65953400D01*
X100074058Y-65856727D01*
X100252687Y-65678099D01*
X100349360Y-65444710D01*
X100349360Y-64954150D01*
X100190610Y-64795400D01*
X99091360Y-64795400D01*
X98837360Y-64795400D01*
X98817360Y-64795400D01*
X98817360Y-64541400D01*
X98837360Y-64541400D01*
X98837360Y-63542150D01*
X99091360Y-63542150D01*
X99091360Y-64541400D01*
X100190610Y-64541400D01*
X100349360Y-64382650D01*
X100349360Y-63892090D01*
X100252687Y-63658701D01*
X100074058Y-63480073D01*
X99840669Y-63383400D01*
X99250110Y-63383400D01*
X99091360Y-63542150D01*
X98837360Y-63542150D01*
X98678610Y-63383400D01*
X98088051Y-63383400D01*
X97854662Y-63480073D01*
X97676033Y-63658701D01*
X97618081Y-63798609D01*
X97612517Y-63770635D01*
X97472169Y-63560591D01*
X97262125Y-63420243D01*
X97014360Y-63370960D01*
X95514360Y-63370960D01*
X95266595Y-63420243D01*
X95056551Y-63560591D01*
X94916203Y-63770635D01*
X94866920Y-64018400D01*
X94866920Y-65318400D01*
X94916203Y-65566165D01*
X95054525Y-65773176D01*
X94968528Y-65901880D01*
X94920080Y-66145444D01*
X94920080Y-66145447D01*
X94903723Y-66227680D01*
X94919897Y-66308995D01*
X94694213Y-66534680D01*
X94688653Y-66534680D01*
X94656277Y-66371915D01*
X94515929Y-66161871D01*
X94305885Y-66021523D01*
X94296620Y-66019680D01*
X94305885Y-66017837D01*
X94515929Y-65877489D01*
X94656277Y-65667445D01*
X94705560Y-65419680D01*
X94705560Y-63919680D01*
X94656277Y-63671915D01*
X94515929Y-63461871D01*
X94305885Y-63321523D01*
X94243120Y-63309038D01*
X94243120Y-62204520D01*
X95107560Y-62204520D01*
X95355325Y-62155237D01*
X95565369Y-62014889D01*
X95705717Y-61804845D01*
X95755000Y-61557080D01*
X95755000Y-60853202D01*
X97398385Y-60853202D01*
X97613026Y-61371412D01*
X98075168Y-61866092D01*
X98691437Y-62146263D01*
X98960560Y-62028684D01*
X98960560Y-60584080D01*
X99214560Y-60584080D01*
X99214560Y-62028684D01*
X99483683Y-62146263D01*
X100099952Y-61866092D01*
X100562094Y-61371412D01*
X100776735Y-60853202D01*
X100658685Y-60584080D01*
X99214560Y-60584080D01*
X98960560Y-60584080D01*
X97516435Y-60584080D01*
X97398385Y-60853202D01*
X95755000Y-60853202D01*
X95755000Y-60060958D01*
X97398385Y-60060958D01*
X97516435Y-60330080D01*
X98960560Y-60330080D01*
X98960560Y-58885476D01*
X99214560Y-58885476D01*
X99214560Y-60330080D01*
X100658685Y-60330080D01*
X100776735Y-60060958D01*
X100562094Y-59542748D01*
X100099952Y-59048068D01*
X99483683Y-58767897D01*
X99214560Y-58885476D01*
X98960560Y-58885476D01*
X98691437Y-58767897D01*
X98075168Y-59048068D01*
X97613026Y-59542748D01*
X97398385Y-60060958D01*
X95755000Y-60060958D01*
X95755000Y-59357080D01*
X95705717Y-59109315D01*
X95565369Y-58899271D01*
X95355325Y-58758923D01*
X95107560Y-58709640D01*
X92907560Y-58709640D01*
X92659795Y-58758923D01*
X92449751Y-58899271D01*
X92309403Y-59109315D01*
X92260120Y-59357080D01*
X92260120Y-59622080D01*
X92215657Y-59622080D01*
X92133420Y-59605722D01*
X92051183Y-59622080D01*
X91807619Y-59670528D01*
X91531419Y-59855079D01*
X91484835Y-59924798D01*
X90463218Y-60946415D01*
X90393500Y-60992999D01*
X90346916Y-61062717D01*
X90208948Y-61269200D01*
X90144143Y-61595000D01*
X90160501Y-61677238D01*
X90160500Y-69758131D01*
X87538133Y-72380500D01*
X77472245Y-72380500D01*
X77390008Y-72364142D01*
X77307771Y-72380500D01*
X77064207Y-72428948D01*
X76788007Y-72613499D01*
X76741424Y-72683216D01*
X72810218Y-76614423D01*
X72740500Y-76661007D01*
X72693917Y-76730724D01*
X72693916Y-76730725D01*
X72636989Y-76815922D01*
X72636989Y-74466878D01*
X74700283Y-72403585D01*
X74770001Y-72357001D01*
X74954552Y-72080801D01*
X75003000Y-71837237D01*
X75003000Y-71837236D01*
X75019358Y-71755000D01*
X75003000Y-71672763D01*
X75003000Y-69856350D01*
X78837120Y-69856350D01*
X78837120Y-70321910D01*
X78933793Y-70555299D01*
X79112422Y-70733927D01*
X79345811Y-70830600D01*
X79936370Y-70830600D01*
X80095120Y-70671850D01*
X80095120Y-69697600D01*
X78995870Y-69697600D01*
X78837120Y-69856350D01*
X75003000Y-69856350D01*
X75003000Y-68819290D01*
X78837120Y-68819290D01*
X78837120Y-69284850D01*
X78995870Y-69443600D01*
X80095120Y-69443600D01*
X80095120Y-68469350D01*
X79936370Y-68310600D01*
X79345811Y-68310600D01*
X79112422Y-68407273D01*
X78933793Y-68585901D01*
X78837120Y-68819290D01*
X75003000Y-68819290D01*
X75003000Y-62067867D01*
X75778788Y-61292080D01*
X76260120Y-61292080D01*
X76260120Y-61557080D01*
X76309403Y-61804845D01*
X76449751Y-62014889D01*
X76573121Y-62097323D01*
X76573120Y-63309038D01*
X76510355Y-63321523D01*
X76300311Y-63461871D01*
X76159963Y-63671915D01*
X76110680Y-63919680D01*
X76110680Y-65419680D01*
X76159963Y-65667445D01*
X76300311Y-65877489D01*
X76510355Y-66017837D01*
X76519620Y-66019680D01*
X76510355Y-66021523D01*
X76300311Y-66161871D01*
X76159963Y-66371915D01*
X76110680Y-66619680D01*
X76110680Y-68119680D01*
X76159963Y-68367445D01*
X76300311Y-68577489D01*
X76510355Y-68717837D01*
X76758120Y-68767120D01*
X78058120Y-68767120D01*
X78305885Y-68717837D01*
X78515929Y-68577489D01*
X78656277Y-68367445D01*
X78688653Y-68204680D01*
X78957847Y-68204680D01*
X79040080Y-68221037D01*
X79122313Y-68204680D01*
X79122317Y-68204680D01*
X79365881Y-68156232D01*
X79642081Y-67971681D01*
X79688667Y-67901960D01*
X80287362Y-67303266D01*
X80357081Y-67256681D01*
X80541632Y-66980481D01*
X80590080Y-66736916D01*
X80606438Y-66654680D01*
X80590263Y-66573364D01*
X80796640Y-66366987D01*
X80866361Y-66320401D01*
X81050912Y-66044201D01*
X81068647Y-65955042D01*
X81262125Y-65916557D01*
X81472169Y-65776209D01*
X81612517Y-65566165D01*
X81618081Y-65538191D01*
X81676033Y-65678099D01*
X81854662Y-65856727D01*
X82088051Y-65953400D01*
X82678610Y-65953400D01*
X82837360Y-65794650D01*
X82837360Y-64795400D01*
X83091360Y-64795400D01*
X83091360Y-65794650D01*
X83250110Y-65953400D01*
X83840669Y-65953400D01*
X84074058Y-65856727D01*
X84252687Y-65678099D01*
X84349360Y-65444710D01*
X84349360Y-64954150D01*
X84190610Y-64795400D01*
X83091360Y-64795400D01*
X82837360Y-64795400D01*
X82817360Y-64795400D01*
X82817360Y-64541400D01*
X82837360Y-64541400D01*
X82837360Y-63542150D01*
X83091360Y-63542150D01*
X83091360Y-64541400D01*
X84190610Y-64541400D01*
X84349360Y-64382650D01*
X84349360Y-63892090D01*
X84252687Y-63658701D01*
X84074058Y-63480073D01*
X83840669Y-63383400D01*
X83250110Y-63383400D01*
X83091360Y-63542150D01*
X82837360Y-63542150D01*
X82678610Y-63383400D01*
X82088051Y-63383400D01*
X81854662Y-63480073D01*
X81676033Y-63658701D01*
X81618081Y-63798609D01*
X81612517Y-63770635D01*
X81472169Y-63560591D01*
X81262125Y-63420243D01*
X81014360Y-63370960D01*
X79514360Y-63370960D01*
X79266595Y-63420243D01*
X79056551Y-63560591D01*
X78916203Y-63770635D01*
X78866920Y-64018400D01*
X78866920Y-65318400D01*
X78916203Y-65566165D01*
X79054525Y-65773176D01*
X78968528Y-65901880D01*
X78920080Y-66145444D01*
X78920080Y-66145447D01*
X78903723Y-66227680D01*
X78919897Y-66308995D01*
X78694213Y-66534680D01*
X78688653Y-66534680D01*
X78656277Y-66371915D01*
X78515929Y-66161871D01*
X78305885Y-66021523D01*
X78296620Y-66019680D01*
X78305885Y-66017837D01*
X78515929Y-65877489D01*
X78656277Y-65667445D01*
X78705560Y-65419680D01*
X78705560Y-63919680D01*
X78656277Y-63671915D01*
X78515929Y-63461871D01*
X78305885Y-63321523D01*
X78243120Y-63309038D01*
X78243120Y-62204520D01*
X79107560Y-62204520D01*
X79355325Y-62155237D01*
X79565369Y-62014889D01*
X79705717Y-61804845D01*
X79755000Y-61557080D01*
X79755000Y-60853202D01*
X81398385Y-60853202D01*
X81613026Y-61371412D01*
X82075168Y-61866092D01*
X82691437Y-62146263D01*
X82960560Y-62028684D01*
X82960560Y-60584080D01*
X81516435Y-60584080D01*
X81398385Y-60853202D01*
X79755000Y-60853202D01*
X79755000Y-60060958D01*
X81398385Y-60060958D01*
X81516435Y-60330080D01*
X82960560Y-60330080D01*
X82960560Y-58885476D01*
X82691437Y-58767897D01*
X82075168Y-59048068D01*
X81613026Y-59542748D01*
X81398385Y-60060958D01*
X79755000Y-60060958D01*
X79755000Y-59357080D01*
X79705717Y-59109315D01*
X79565369Y-58899271D01*
X79355325Y-58758923D01*
X79107560Y-58709640D01*
X76907560Y-58709640D01*
X76659795Y-58758923D01*
X76449751Y-58899271D01*
X76309403Y-59109315D01*
X76260120Y-59357080D01*
X76260120Y-59622080D01*
X75515152Y-59622080D01*
X75432919Y-59605723D01*
X75350686Y-59622080D01*
X75350683Y-59622080D01*
X75107119Y-59670528D01*
X74830919Y-59855079D01*
X74784335Y-59924798D01*
X73635718Y-61073415D01*
X73566000Y-61119999D01*
X73519416Y-61189717D01*
X73381448Y-61396200D01*
X73316643Y-61722000D01*
X73333001Y-61804238D01*
X73333000Y-71409132D01*
X71269707Y-73472426D01*
X71199989Y-73519010D01*
X71153405Y-73588728D01*
X71015437Y-73795211D01*
X70950632Y-74121011D01*
X70966990Y-74203249D01*
X70966989Y-77042708D01*
X70963480Y-77042010D01*
X70641520Y-77042010D01*
X70164754Y-77136845D01*
X69624099Y-77498099D01*
X69532500Y-77635187D01*
X69440901Y-77498099D01*
X69110948Y-77277632D01*
X69113857Y-77263007D01*
X69097500Y-77180774D01*
X69097500Y-77180771D01*
X69049052Y-76937207D01*
X68911085Y-76730725D01*
X68911084Y-76730723D01*
X68911083Y-76730722D01*
X68864501Y-76661007D01*
X68794786Y-76614425D01*
X62036710Y-69856350D01*
X62837120Y-69856350D01*
X62837120Y-70321910D01*
X62933793Y-70555299D01*
X63112422Y-70733927D01*
X63345811Y-70830600D01*
X63936370Y-70830600D01*
X64095120Y-70671850D01*
X64095120Y-69697600D01*
X62995870Y-69697600D01*
X62837120Y-69856350D01*
X62036710Y-69856350D01*
X60999650Y-68819290D01*
X62837120Y-68819290D01*
X62837120Y-69284850D01*
X62995870Y-69443600D01*
X64095120Y-69443600D01*
X64095120Y-68469350D01*
X63936370Y-68310600D01*
X63345811Y-68310600D01*
X63112422Y-68407273D01*
X62933793Y-68585901D01*
X62837120Y-68819290D01*
X60999650Y-68819290D01*
X60947479Y-68767120D01*
X62058120Y-68767120D01*
X62305885Y-68717837D01*
X62515929Y-68577489D01*
X62656277Y-68367445D01*
X62688653Y-68204680D01*
X62957847Y-68204680D01*
X63040080Y-68221037D01*
X63122313Y-68204680D01*
X63122317Y-68204680D01*
X63365881Y-68156232D01*
X63642081Y-67971681D01*
X63688667Y-67901960D01*
X64287362Y-67303266D01*
X64357081Y-67256681D01*
X64541632Y-66980481D01*
X64590080Y-66736916D01*
X64606438Y-66654680D01*
X64590263Y-66573364D01*
X64796640Y-66366987D01*
X64866361Y-66320401D01*
X65050912Y-66044201D01*
X65068647Y-65955042D01*
X65262125Y-65916557D01*
X65472169Y-65776209D01*
X65612517Y-65566165D01*
X65618081Y-65538191D01*
X65676033Y-65678099D01*
X65854662Y-65856727D01*
X66088051Y-65953400D01*
X66678610Y-65953400D01*
X66837360Y-65794650D01*
X66837360Y-64795400D01*
X67091360Y-64795400D01*
X67091360Y-65794650D01*
X67250110Y-65953400D01*
X67840669Y-65953400D01*
X68074058Y-65856727D01*
X68252687Y-65678099D01*
X68349360Y-65444710D01*
X68349360Y-64954150D01*
X68190610Y-64795400D01*
X67091360Y-64795400D01*
X66837360Y-64795400D01*
X66817360Y-64795400D01*
X66817360Y-64541400D01*
X66837360Y-64541400D01*
X66837360Y-63542150D01*
X67091360Y-63542150D01*
X67091360Y-64541400D01*
X68190610Y-64541400D01*
X68349360Y-64382650D01*
X68349360Y-63892090D01*
X68252687Y-63658701D01*
X68074058Y-63480073D01*
X67840669Y-63383400D01*
X67250110Y-63383400D01*
X67091360Y-63542150D01*
X66837360Y-63542150D01*
X66678610Y-63383400D01*
X66088051Y-63383400D01*
X65854662Y-63480073D01*
X65676033Y-63658701D01*
X65618081Y-63798609D01*
X65612517Y-63770635D01*
X65472169Y-63560591D01*
X65262125Y-63420243D01*
X65014360Y-63370960D01*
X63514360Y-63370960D01*
X63266595Y-63420243D01*
X63056551Y-63560591D01*
X62916203Y-63770635D01*
X62866920Y-64018400D01*
X62866920Y-65318400D01*
X62916203Y-65566165D01*
X63054525Y-65773176D01*
X62968528Y-65901880D01*
X62920080Y-66145444D01*
X62920080Y-66145447D01*
X62903723Y-66227680D01*
X62919897Y-66308995D01*
X62694213Y-66534680D01*
X62688653Y-66534680D01*
X62656277Y-66371915D01*
X62515929Y-66161871D01*
X62305885Y-66021523D01*
X62296620Y-66019680D01*
X62305885Y-66017837D01*
X62515929Y-65877489D01*
X62656277Y-65667445D01*
X62705560Y-65419680D01*
X62705560Y-63919680D01*
X62656277Y-63671915D01*
X62515929Y-63461871D01*
X62305885Y-63321523D01*
X62243120Y-63309038D01*
X62243120Y-62204520D01*
X63107560Y-62204520D01*
X63355325Y-62155237D01*
X63565369Y-62014889D01*
X63705717Y-61804845D01*
X63755000Y-61557080D01*
X63755000Y-60853202D01*
X65398385Y-60853202D01*
X65613026Y-61371412D01*
X66075168Y-61866092D01*
X66691437Y-62146263D01*
X66960560Y-62028684D01*
X66960560Y-60584080D01*
X67214560Y-60584080D01*
X67214560Y-62028684D01*
X67483683Y-62146263D01*
X68099952Y-61866092D01*
X68562094Y-61371412D01*
X68776735Y-60853202D01*
X68658685Y-60584080D01*
X67214560Y-60584080D01*
X66960560Y-60584080D01*
X65516435Y-60584080D01*
X65398385Y-60853202D01*
X63755000Y-60853202D01*
X63755000Y-60060958D01*
X65398385Y-60060958D01*
X65516435Y-60330080D01*
X66960560Y-60330080D01*
X66960560Y-58885476D01*
X67214560Y-58885476D01*
X67214560Y-60330080D01*
X68658685Y-60330080D01*
X68776735Y-60060958D01*
X68562094Y-59542748D01*
X68099952Y-59048068D01*
X67483683Y-58767897D01*
X67214560Y-58885476D01*
X66960560Y-58885476D01*
X66691437Y-58767897D01*
X66075168Y-59048068D01*
X65613026Y-59542748D01*
X65398385Y-60060958D01*
X63755000Y-60060958D01*
X63755000Y-59357080D01*
X63705717Y-59109315D01*
X63565369Y-58899271D01*
X63355325Y-58758923D01*
X63107560Y-58709640D01*
X60907560Y-58709640D01*
X60659795Y-58758923D01*
X60449751Y-58899271D01*
X60309403Y-59109315D01*
X60260120Y-59357080D01*
X60260120Y-59642879D01*
X60121119Y-59670528D01*
X59844919Y-59855079D01*
X59798335Y-59924798D01*
X58649718Y-61073415D01*
X58580000Y-61119999D01*
X58533416Y-61189717D01*
X58395448Y-61396200D01*
X58330643Y-61722000D01*
X58347001Y-61804238D01*
X58347000Y-68100275D01*
X58330643Y-68182508D01*
X58347000Y-68264741D01*
X58347000Y-68264744D01*
X58395448Y-68508308D01*
X58579999Y-68784509D01*
X58649720Y-68831095D01*
X67223546Y-77404923D01*
X67084099Y-77498099D01*
X66992500Y-77635187D01*
X66900901Y-77498099D01*
X66570949Y-77277632D01*
X66573858Y-77263008D01*
X66549826Y-77142193D01*
X66509052Y-76937207D01*
X66324501Y-76661007D01*
X66254783Y-76614423D01*
X62323579Y-72683220D01*
X62276993Y-72613499D01*
X62000793Y-72428948D01*
X61757229Y-72380500D01*
X61757225Y-72380500D01*
X61674992Y-72364143D01*
X61592759Y-72380500D01*
X47526368Y-72380500D01*
X45613588Y-70467721D01*
X45613584Y-70467715D01*
X45002219Y-69856350D01*
X46837120Y-69856350D01*
X46837120Y-70321910D01*
X46933793Y-70555299D01*
X47112422Y-70733927D01*
X47345811Y-70830600D01*
X47936370Y-70830600D01*
X48095120Y-70671850D01*
X48095120Y-69697600D01*
X46995870Y-69697600D01*
X46837120Y-69856350D01*
X45002219Y-69856350D01*
X44332500Y-69186633D01*
X44332500Y-68819290D01*
X46837120Y-68819290D01*
X46837120Y-69284850D01*
X46995870Y-69443600D01*
X48095120Y-69443600D01*
X48095120Y-68469350D01*
X47936370Y-68310600D01*
X47345811Y-68310600D01*
X47112422Y-68407273D01*
X46933793Y-68585901D01*
X46837120Y-68819290D01*
X44332500Y-68819290D01*
X44332500Y-68598997D01*
X44510355Y-68717837D01*
X44758120Y-68767120D01*
X46058120Y-68767120D01*
X46305885Y-68717837D01*
X46515929Y-68577489D01*
X46656277Y-68367445D01*
X46688653Y-68204680D01*
X46957847Y-68204680D01*
X47040080Y-68221037D01*
X47122313Y-68204680D01*
X47122317Y-68204680D01*
X47365881Y-68156232D01*
X47642081Y-67971681D01*
X47688667Y-67901960D01*
X48287362Y-67303266D01*
X48357081Y-67256681D01*
X48541632Y-66980481D01*
X48590080Y-66736916D01*
X48606438Y-66654680D01*
X48590263Y-66573364D01*
X48796640Y-66366987D01*
X48866361Y-66320401D01*
X49050912Y-66044201D01*
X49068647Y-65955042D01*
X49262125Y-65916557D01*
X49472169Y-65776209D01*
X49612517Y-65566165D01*
X49618081Y-65538191D01*
X49676033Y-65678099D01*
X49854662Y-65856727D01*
X50088051Y-65953400D01*
X50678610Y-65953400D01*
X50837360Y-65794650D01*
X50837360Y-64795400D01*
X51091360Y-64795400D01*
X51091360Y-65794650D01*
X51250110Y-65953400D01*
X51840669Y-65953400D01*
X52074058Y-65856727D01*
X52252687Y-65678099D01*
X52349360Y-65444710D01*
X52349360Y-64954150D01*
X52190610Y-64795400D01*
X51091360Y-64795400D01*
X50837360Y-64795400D01*
X50817360Y-64795400D01*
X50817360Y-64541400D01*
X50837360Y-64541400D01*
X50837360Y-63542150D01*
X51091360Y-63542150D01*
X51091360Y-64541400D01*
X52190610Y-64541400D01*
X52349360Y-64382650D01*
X52349360Y-63892090D01*
X52252687Y-63658701D01*
X52074058Y-63480073D01*
X51840669Y-63383400D01*
X51250110Y-63383400D01*
X51091360Y-63542150D01*
X50837360Y-63542150D01*
X50678610Y-63383400D01*
X50088051Y-63383400D01*
X49854662Y-63480073D01*
X49676033Y-63658701D01*
X49618081Y-63798609D01*
X49612517Y-63770635D01*
X49472169Y-63560591D01*
X49262125Y-63420243D01*
X49014360Y-63370960D01*
X47514360Y-63370960D01*
X47266595Y-63420243D01*
X47056551Y-63560591D01*
X46916203Y-63770635D01*
X46866920Y-64018400D01*
X46866920Y-65318400D01*
X46916203Y-65566165D01*
X47054525Y-65773176D01*
X46968528Y-65901880D01*
X46920080Y-66145444D01*
X46920080Y-66145447D01*
X46903723Y-66227680D01*
X46919897Y-66308995D01*
X46694213Y-66534680D01*
X46688653Y-66534680D01*
X46656277Y-66371915D01*
X46515929Y-66161871D01*
X46305885Y-66021523D01*
X46296620Y-66019680D01*
X46305885Y-66017837D01*
X46515929Y-65877489D01*
X46656277Y-65667445D01*
X46705560Y-65419680D01*
X46705560Y-63919680D01*
X46656277Y-63671915D01*
X46515929Y-63461871D01*
X46305885Y-63321523D01*
X46243120Y-63309038D01*
X46243120Y-62204520D01*
X47107560Y-62204520D01*
X47355325Y-62155237D01*
X47565369Y-62014889D01*
X47705717Y-61804845D01*
X47755000Y-61557080D01*
X47755000Y-60853202D01*
X49398385Y-60853202D01*
X49613026Y-61371412D01*
X50075168Y-61866092D01*
X50691437Y-62146263D01*
X50960560Y-62028684D01*
X50960560Y-60584080D01*
X51214560Y-60584080D01*
X51214560Y-62028684D01*
X51483683Y-62146263D01*
X52099952Y-61866092D01*
X52562094Y-61371412D01*
X52776735Y-60853202D01*
X52658685Y-60584080D01*
X51214560Y-60584080D01*
X50960560Y-60584080D01*
X49516435Y-60584080D01*
X49398385Y-60853202D01*
X47755000Y-60853202D01*
X47755000Y-60060958D01*
X49398385Y-60060958D01*
X49516435Y-60330080D01*
X50960560Y-60330080D01*
X50960560Y-58885476D01*
X51214560Y-58885476D01*
X51214560Y-60330080D01*
X52658685Y-60330080D01*
X52776735Y-60060958D01*
X52562094Y-59542748D01*
X52099952Y-59048068D01*
X51483683Y-58767897D01*
X51214560Y-58885476D01*
X50960560Y-58885476D01*
X50691437Y-58767897D01*
X50075168Y-59048068D01*
X49613026Y-59542748D01*
X49398385Y-60060958D01*
X47755000Y-60060958D01*
X47755000Y-59357080D01*
X47705717Y-59109315D01*
X47565369Y-58899271D01*
X47355325Y-58758923D01*
X47107560Y-58709640D01*
X44907560Y-58709640D01*
X44659795Y-58758923D01*
X44449751Y-58899271D01*
X44309403Y-59109315D01*
X44260120Y-59357080D01*
X44260120Y-59654941D01*
X44181759Y-59670528D01*
X43905559Y-59855079D01*
X43858974Y-59924798D01*
X43028718Y-60755055D01*
X42959000Y-60801639D01*
X42912416Y-60871357D01*
X42774448Y-61077840D01*
X42752195Y-61189717D01*
X42726000Y-61321403D01*
X42726000Y-61321407D01*
X42709643Y-61403640D01*
X42726000Y-61485873D01*
X42726000Y-61818173D01*
X42710948Y-61840700D01*
X42646143Y-62166500D01*
X41792500Y-62166500D01*
X41792500Y-48606145D01*
X41808858Y-48523908D01*
X41744052Y-48198107D01*
X41606084Y-47991624D01*
X41559501Y-47921907D01*
X41489783Y-47875323D01*
X39748099Y-46133640D01*
X42683735Y-46133640D01*
X42688440Y-46157293D01*
X42688441Y-50679962D01*
X42672083Y-50762200D01*
X42736888Y-51088000D01*
X42736889Y-51088001D01*
X42921440Y-51364201D01*
X42991158Y-51410785D01*
X43465319Y-51884946D01*
X43387403Y-52001555D01*
X43338120Y-52249320D01*
X43338120Y-53749320D01*
X43387403Y-53997085D01*
X43527751Y-54207129D01*
X43590894Y-54249320D01*
X43527751Y-54291511D01*
X43387403Y-54501555D01*
X43338120Y-54749320D01*
X43338120Y-56249320D01*
X43387403Y-56497085D01*
X43527751Y-56707129D01*
X43737795Y-56847477D01*
X43985560Y-56896760D01*
X45235560Y-56896760D01*
X45483325Y-56847477D01*
X45693369Y-56707129D01*
X45787402Y-56566400D01*
X46042747Y-56566400D01*
X46075123Y-56729165D01*
X46215471Y-56939209D01*
X46425515Y-57079557D01*
X46673280Y-57128840D01*
X47973280Y-57128840D01*
X48221045Y-57079557D01*
X48431089Y-56939209D01*
X48571437Y-56729165D01*
X48580317Y-56684520D01*
X49301478Y-56684520D01*
X49313963Y-56747285D01*
X49454311Y-56957329D01*
X49664355Y-57097677D01*
X49912120Y-57146960D01*
X51412120Y-57146960D01*
X51659885Y-57097677D01*
X51869929Y-56957329D01*
X52010277Y-56747285D01*
X52012120Y-56738020D01*
X52013963Y-56747285D01*
X52154311Y-56957329D01*
X52364355Y-57097677D01*
X52527120Y-57130053D01*
X52527120Y-58296387D01*
X52510763Y-58378620D01*
X52527120Y-58460853D01*
X52527120Y-58460856D01*
X52575568Y-58704420D01*
X52760119Y-58980621D01*
X52829840Y-59027207D01*
X53076501Y-59273868D01*
X53076500Y-63555367D01*
X52949293Y-63682574D01*
X52776500Y-64099734D01*
X52776500Y-64551266D01*
X52949293Y-64968426D01*
X53268574Y-65287707D01*
X53685734Y-65460500D01*
X54137266Y-65460500D01*
X54554426Y-65287707D01*
X54873707Y-64968426D01*
X54982041Y-64706884D01*
X54982041Y-67106370D01*
X53352813Y-68735600D01*
X52077789Y-68735600D01*
X52070277Y-68697835D01*
X51929929Y-68487791D01*
X51719885Y-68347443D01*
X51472120Y-68298160D01*
X49972120Y-68298160D01*
X49724355Y-68347443D01*
X49514311Y-68487791D01*
X49473466Y-68548920D01*
X49331818Y-68407273D01*
X49098429Y-68310600D01*
X48507870Y-68310600D01*
X48349120Y-68469350D01*
X48349120Y-69443600D01*
X48369120Y-69443600D01*
X48369120Y-69697600D01*
X48349120Y-69697600D01*
X48349120Y-70671850D01*
X48507870Y-70830600D01*
X49098429Y-70830600D01*
X49331818Y-70733927D01*
X49473466Y-70592280D01*
X49514311Y-70653409D01*
X49724355Y-70793757D01*
X49972120Y-70843040D01*
X51472120Y-70843040D01*
X51719885Y-70793757D01*
X51929929Y-70653409D01*
X52070277Y-70443365D01*
X52077789Y-70405600D01*
X53616447Y-70405600D01*
X53698680Y-70421957D01*
X53780913Y-70405600D01*
X53780917Y-70405600D01*
X54024481Y-70357152D01*
X54300681Y-70172601D01*
X54347267Y-70102880D01*
X56349325Y-68100823D01*
X56419041Y-68054241D01*
X56603592Y-67778041D01*
X56652040Y-67534477D01*
X56652040Y-67534474D01*
X56668397Y-67452241D01*
X56652040Y-67370008D01*
X56652040Y-47465685D01*
X56668398Y-47383448D01*
X56603592Y-47057647D01*
X56515907Y-46926417D01*
X56419041Y-46781447D01*
X56349323Y-46734863D01*
X55748100Y-46133640D01*
X58688440Y-46133640D01*
X58688441Y-50679962D01*
X58672083Y-50762200D01*
X58736888Y-51088000D01*
X58736889Y-51088001D01*
X58921440Y-51364201D01*
X58991158Y-51410785D01*
X59465319Y-51884946D01*
X59387403Y-52001555D01*
X59338120Y-52249320D01*
X59338120Y-53749320D01*
X59387403Y-53997085D01*
X59527751Y-54207129D01*
X59590894Y-54249320D01*
X59527751Y-54291511D01*
X59387403Y-54501555D01*
X59338120Y-54749320D01*
X59338120Y-56249320D01*
X59387403Y-56497085D01*
X59527751Y-56707129D01*
X59737795Y-56847477D01*
X59985560Y-56896760D01*
X61235560Y-56896760D01*
X61483325Y-56847477D01*
X61693369Y-56707129D01*
X61787402Y-56566400D01*
X62042747Y-56566400D01*
X62075123Y-56729165D01*
X62215471Y-56939209D01*
X62425515Y-57079557D01*
X62673280Y-57128840D01*
X63973280Y-57128840D01*
X64221045Y-57079557D01*
X64431089Y-56939209D01*
X64571437Y-56729165D01*
X64580317Y-56684520D01*
X65301478Y-56684520D01*
X65313963Y-56747285D01*
X65454311Y-56957329D01*
X65664355Y-57097677D01*
X65912120Y-57146960D01*
X67412120Y-57146960D01*
X67659885Y-57097677D01*
X67869929Y-56957329D01*
X68010277Y-56747285D01*
X68012120Y-56738020D01*
X68013963Y-56747285D01*
X68154311Y-56957329D01*
X68364355Y-57097677D01*
X68519052Y-57128448D01*
X68510763Y-57170120D01*
X68527120Y-57252353D01*
X68527120Y-57252356D01*
X68575568Y-57495920D01*
X68760119Y-57772121D01*
X68829840Y-57818707D01*
X69205501Y-58194369D01*
X69205500Y-63237867D01*
X69078293Y-63365074D01*
X68905500Y-63782234D01*
X68905500Y-64233766D01*
X69078293Y-64650926D01*
X69397574Y-64970207D01*
X69814734Y-65143000D01*
X70266266Y-65143000D01*
X70683426Y-64970207D01*
X70982041Y-64671592D01*
X70982041Y-67106370D01*
X69352813Y-68735600D01*
X68077789Y-68735600D01*
X68070277Y-68697835D01*
X67929929Y-68487791D01*
X67719885Y-68347443D01*
X67472120Y-68298160D01*
X65972120Y-68298160D01*
X65724355Y-68347443D01*
X65514311Y-68487791D01*
X65473466Y-68548920D01*
X65331818Y-68407273D01*
X65098429Y-68310600D01*
X64507870Y-68310600D01*
X64349120Y-68469350D01*
X64349120Y-69443600D01*
X64369120Y-69443600D01*
X64369120Y-69697600D01*
X64349120Y-69697600D01*
X64349120Y-70671850D01*
X64507870Y-70830600D01*
X65098429Y-70830600D01*
X65331818Y-70733927D01*
X65473466Y-70592280D01*
X65514311Y-70653409D01*
X65724355Y-70793757D01*
X65972120Y-70843040D01*
X67472120Y-70843040D01*
X67719885Y-70793757D01*
X67929929Y-70653409D01*
X68070277Y-70443365D01*
X68077789Y-70405600D01*
X69616447Y-70405600D01*
X69698680Y-70421957D01*
X69780913Y-70405600D01*
X69780917Y-70405600D01*
X70024481Y-70357152D01*
X70300681Y-70172601D01*
X70347267Y-70102880D01*
X72349325Y-68100823D01*
X72419041Y-68054241D01*
X72603592Y-67778041D01*
X72652040Y-67534477D01*
X72652040Y-67534474D01*
X72668397Y-67452241D01*
X72652040Y-67370008D01*
X72652040Y-47465685D01*
X72668398Y-47383448D01*
X72603592Y-47057647D01*
X72515907Y-46926417D01*
X72419041Y-46781447D01*
X72349323Y-46734863D01*
X71748100Y-46133640D01*
X74688440Y-46133640D01*
X74688441Y-50679962D01*
X74672083Y-50762200D01*
X74736888Y-51088000D01*
X74736889Y-51088001D01*
X74921440Y-51364201D01*
X74991158Y-51410785D01*
X75465319Y-51884946D01*
X75387403Y-52001555D01*
X75338120Y-52249320D01*
X75338120Y-53749320D01*
X75387403Y-53997085D01*
X75527751Y-54207129D01*
X75590894Y-54249320D01*
X75527751Y-54291511D01*
X75387403Y-54501555D01*
X75338120Y-54749320D01*
X75338120Y-56249320D01*
X75387403Y-56497085D01*
X75527751Y-56707129D01*
X75737795Y-56847477D01*
X75985560Y-56896760D01*
X77235560Y-56896760D01*
X77483325Y-56847477D01*
X77693369Y-56707129D01*
X77787402Y-56566400D01*
X78042747Y-56566400D01*
X78075123Y-56729165D01*
X78215471Y-56939209D01*
X78425515Y-57079557D01*
X78673280Y-57128840D01*
X79973280Y-57128840D01*
X80221045Y-57079557D01*
X80431089Y-56939209D01*
X80571437Y-56729165D01*
X80580317Y-56684520D01*
X81301478Y-56684520D01*
X81313963Y-56747285D01*
X81454311Y-56957329D01*
X81664355Y-57097677D01*
X81912120Y-57146960D01*
X83412120Y-57146960D01*
X83659885Y-57097677D01*
X83869929Y-56957329D01*
X84010277Y-56747285D01*
X84012120Y-56738020D01*
X84013963Y-56747285D01*
X84154311Y-56957329D01*
X84364355Y-57097677D01*
X84527121Y-57130053D01*
X84527121Y-59505312D01*
X84099952Y-59048068D01*
X83483683Y-58767897D01*
X83214560Y-58885476D01*
X83214560Y-60330080D01*
X83234560Y-60330080D01*
X83234560Y-60584080D01*
X83214560Y-60584080D01*
X83214560Y-62028684D01*
X83483683Y-62146263D01*
X84099952Y-61866092D01*
X84527120Y-61408848D01*
X84527120Y-64705887D01*
X84510763Y-64788120D01*
X84527120Y-64870353D01*
X84527120Y-64870356D01*
X84575568Y-65113920D01*
X84760119Y-65390121D01*
X84829840Y-65436707D01*
X85034500Y-65641367D01*
X85034500Y-65821266D01*
X85207293Y-66238426D01*
X85526574Y-66557707D01*
X85943734Y-66730500D01*
X86395266Y-66730500D01*
X86812426Y-66557707D01*
X86985501Y-66384632D01*
X86985501Y-67102910D01*
X85352813Y-68735600D01*
X84077789Y-68735600D01*
X84070277Y-68697835D01*
X83929929Y-68487791D01*
X83719885Y-68347443D01*
X83472120Y-68298160D01*
X81972120Y-68298160D01*
X81724355Y-68347443D01*
X81514311Y-68487791D01*
X81473466Y-68548920D01*
X81331818Y-68407273D01*
X81098429Y-68310600D01*
X80507870Y-68310600D01*
X80349120Y-68469350D01*
X80349120Y-69443600D01*
X80369120Y-69443600D01*
X80369120Y-69697600D01*
X80349120Y-69697600D01*
X80349120Y-70671850D01*
X80507870Y-70830600D01*
X81098429Y-70830600D01*
X81331818Y-70733927D01*
X81473466Y-70592280D01*
X81514311Y-70653409D01*
X81724355Y-70793757D01*
X81972120Y-70843040D01*
X83472120Y-70843040D01*
X83719885Y-70793757D01*
X83929929Y-70653409D01*
X84070277Y-70443365D01*
X84077789Y-70405600D01*
X85616447Y-70405600D01*
X85698680Y-70421957D01*
X85780913Y-70405600D01*
X85780917Y-70405600D01*
X86024481Y-70357152D01*
X86300681Y-70172601D01*
X86347267Y-70102880D01*
X88388287Y-68061862D01*
X88422501Y-68039001D01*
X88445362Y-68004787D01*
X88465624Y-67984525D01*
X88603592Y-67778041D01*
X88606442Y-67763714D01*
X88607052Y-67762801D01*
X88655500Y-67519237D01*
X88655500Y-67517079D01*
X88668397Y-67452241D01*
X88655500Y-67387403D01*
X88655500Y-47448290D01*
X88668398Y-47383448D01*
X88655500Y-47318606D01*
X88655500Y-47285971D01*
X88607052Y-47042407D01*
X88422501Y-46766207D01*
X88296428Y-46681968D01*
X87748100Y-46133640D01*
X90688440Y-46133640D01*
X90688441Y-50679962D01*
X90672083Y-50762200D01*
X90736888Y-51088000D01*
X90736889Y-51088001D01*
X90921440Y-51364201D01*
X90991158Y-51410785D01*
X91465319Y-51884946D01*
X91387403Y-52001555D01*
X91338120Y-52249320D01*
X91338120Y-53749320D01*
X91387403Y-53997085D01*
X91527751Y-54207129D01*
X91590894Y-54249320D01*
X91527751Y-54291511D01*
X91387403Y-54501555D01*
X91338120Y-54749320D01*
X91338120Y-56249320D01*
X91387403Y-56497085D01*
X91527751Y-56707129D01*
X91737795Y-56847477D01*
X91985560Y-56896760D01*
X93235560Y-56896760D01*
X93483325Y-56847477D01*
X93693369Y-56707129D01*
X93787402Y-56566400D01*
X94042747Y-56566400D01*
X94075123Y-56729165D01*
X94215471Y-56939209D01*
X94425515Y-57079557D01*
X94673280Y-57128840D01*
X95973280Y-57128840D01*
X96221045Y-57079557D01*
X96431089Y-56939209D01*
X96571437Y-56729165D01*
X96580317Y-56684520D01*
X97301478Y-56684520D01*
X97313963Y-56747285D01*
X97454311Y-56957329D01*
X97664355Y-57097677D01*
X97912120Y-57146960D01*
X99412120Y-57146960D01*
X99659885Y-57097677D01*
X99869929Y-56957329D01*
X100010277Y-56747285D01*
X100012120Y-56738020D01*
X100013963Y-56747285D01*
X100154311Y-56957329D01*
X100364355Y-57097677D01*
X100527120Y-57130053D01*
X100527120Y-57464887D01*
X100510763Y-57547120D01*
X100527120Y-57629353D01*
X100527120Y-57629356D01*
X100575568Y-57872920D01*
X100760119Y-58149121D01*
X100829840Y-58195707D01*
X100955501Y-58321368D01*
X100955500Y-64634867D01*
X100828293Y-64762074D01*
X100655500Y-65179234D01*
X100655500Y-65630766D01*
X100828293Y-66047926D01*
X101147574Y-66367207D01*
X101564734Y-66540000D01*
X102016266Y-66540000D01*
X102433426Y-66367207D01*
X102752707Y-66047926D01*
X102925500Y-65630766D01*
X102925500Y-65179234D01*
X102752707Y-64762074D01*
X102625500Y-64634867D01*
X102625500Y-58057737D01*
X102641858Y-57975500D01*
X102577052Y-57649699D01*
X102538544Y-57592068D01*
X102392501Y-57373499D01*
X102322780Y-57326913D01*
X102197120Y-57201253D01*
X102197120Y-57130053D01*
X102359885Y-57097677D01*
X102569929Y-56957329D01*
X102710277Y-56747285D01*
X102759560Y-56499520D01*
X102759560Y-55199520D01*
X102710277Y-54951755D01*
X102569929Y-54741711D01*
X102359885Y-54601363D01*
X102112120Y-54552080D01*
X100612120Y-54552080D01*
X100364355Y-54601363D01*
X100154311Y-54741711D01*
X100013963Y-54951755D01*
X100012120Y-54961020D01*
X100010277Y-54951755D01*
X99869929Y-54741711D01*
X99659885Y-54601363D01*
X99497120Y-54568987D01*
X99497120Y-54151948D01*
X99822565Y-53826504D01*
X99892281Y-53779921D01*
X100076832Y-53503721D01*
X100125280Y-53260157D01*
X100125280Y-53260154D01*
X100141637Y-53177921D01*
X100125280Y-53095688D01*
X100125280Y-52593667D01*
X100691722Y-52027226D01*
X100761441Y-51980641D01*
X100945992Y-51704441D01*
X100961579Y-51626080D01*
X101059440Y-51626080D01*
X101307205Y-51576797D01*
X101517249Y-51436449D01*
X101657597Y-51226405D01*
X101706880Y-50978640D01*
X101706880Y-49178640D01*
X101657597Y-48930875D01*
X101517249Y-48720831D01*
X101308744Y-48581511D01*
X101605378Y-48137567D01*
X101724512Y-47538640D01*
X101605378Y-46939713D01*
X101266113Y-46431967D01*
X101021677Y-46268640D01*
X101223719Y-46133640D01*
X101386365Y-46133640D01*
X102982040Y-47729316D01*
X102982041Y-67106370D01*
X101352813Y-68735600D01*
X100077789Y-68735600D01*
X100070277Y-68697835D01*
X99929929Y-68487791D01*
X99719885Y-68347443D01*
X99472120Y-68298160D01*
X97972120Y-68298160D01*
X97724355Y-68347443D01*
X97514311Y-68487791D01*
X97473466Y-68548920D01*
X97331818Y-68407273D01*
X97098429Y-68310600D01*
X96507870Y-68310600D01*
X96349120Y-68469350D01*
X96349120Y-69443600D01*
X96369120Y-69443600D01*
X96369120Y-69697600D01*
X96349120Y-69697600D01*
X96349120Y-70671850D01*
X96507870Y-70830600D01*
X97098429Y-70830600D01*
X97331818Y-70733927D01*
X97473466Y-70592280D01*
X97514311Y-70653409D01*
X97724355Y-70793757D01*
X97972120Y-70843040D01*
X99472120Y-70843040D01*
X99719885Y-70793757D01*
X99929929Y-70653409D01*
X100070277Y-70443365D01*
X100077789Y-70405600D01*
X101616447Y-70405600D01*
X101698680Y-70421957D01*
X101780913Y-70405600D01*
X101780917Y-70405600D01*
X102024481Y-70357152D01*
X102300681Y-70172601D01*
X102347267Y-70102880D01*
X104349325Y-68100823D01*
X104419041Y-68054241D01*
X104603592Y-67778041D01*
X104652040Y-67534477D01*
X104652040Y-67534474D01*
X104668397Y-67452241D01*
X104652040Y-67370008D01*
X104652040Y-47465685D01*
X104668398Y-47383448D01*
X104603592Y-47057647D01*
X104515907Y-46926417D01*
X104419041Y-46781447D01*
X104349323Y-46734863D01*
X103748100Y-46133640D01*
X104218509Y-46133640D01*
X105164001Y-47079133D01*
X105164000Y-68230868D01*
X103276482Y-70118387D01*
X103181711Y-70181711D01*
X103106308Y-70294560D01*
X95859369Y-77541500D01*
X91002582Y-77541500D01*
X90581944Y-77120862D01*
X89907504Y-76841500D01*
X89177496Y-76841500D01*
X88503056Y-77120862D01*
X87986862Y-77637056D01*
X87877500Y-77901079D01*
X87877500Y-77350190D01*
X87780827Y-77116801D01*
X87602198Y-76938173D01*
X87368809Y-76841500D01*
X86328250Y-76841500D01*
X86169500Y-77000250D01*
X86169500Y-78549500D01*
X86189500Y-78549500D01*
X86189500Y-78803500D01*
X86169500Y-78803500D01*
X86169500Y-80352750D01*
X86328250Y-80511500D01*
X87368809Y-80511500D01*
X87602198Y-80414827D01*
X87780827Y-80236199D01*
X87877500Y-80002810D01*
X87877500Y-79451921D01*
X87986862Y-79715944D01*
X88503056Y-80232138D01*
X89177496Y-80511500D01*
X89907504Y-80511500D01*
X90581944Y-80232138D01*
X91002582Y-79811500D01*
X96217717Y-79811500D01*
X96329500Y-79833735D01*
X96441283Y-79811500D01*
X96772355Y-79745646D01*
X97147789Y-79494789D01*
X97211113Y-79400018D01*
X99702560Y-76908571D01*
X99702560Y-78400000D01*
X99751843Y-78647765D01*
X99892191Y-78857809D01*
X100102235Y-78998157D01*
X100130209Y-79003721D01*
X99990301Y-79061673D01*
X99811673Y-79240302D01*
X99715000Y-79473691D01*
X99715000Y-80064250D01*
X99873750Y-80223000D01*
X100873000Y-80223000D01*
X100873000Y-80203000D01*
X101127000Y-80203000D01*
X101127000Y-80223000D01*
X102126250Y-80223000D01*
X102285000Y-80064250D01*
X102285000Y-79473691D01*
X102188327Y-79240302D01*
X102009699Y-79061673D01*
X101869791Y-79003721D01*
X101897765Y-78998157D01*
X102107809Y-78857809D01*
X102248157Y-78647765D01*
X102280533Y-78485000D01*
X102719467Y-78485000D01*
X102751843Y-78647765D01*
X102892191Y-78857809D01*
X103102235Y-78998157D01*
X103111500Y-79000000D01*
X103102235Y-79001843D01*
X102892191Y-79142191D01*
X102751843Y-79352235D01*
X102702560Y-79600000D01*
X102702560Y-81100000D01*
X102751843Y-81347765D01*
X102892191Y-81557809D01*
X103102235Y-81698157D01*
X103350000Y-81747440D01*
X104650000Y-81747440D01*
X104897765Y-81698157D01*
X105107809Y-81557809D01*
X105248157Y-81347765D01*
X105280533Y-81185000D01*
X105567767Y-81185000D01*
X105650000Y-81201357D01*
X105732233Y-81185000D01*
X105732237Y-81185000D01*
X105975801Y-81136552D01*
X106252001Y-80952001D01*
X106298587Y-80882280D01*
X106532280Y-80648587D01*
X106602001Y-80602001D01*
X106633118Y-80555431D01*
X107765000Y-80555431D01*
X107765000Y-81444569D01*
X108105259Y-82266026D01*
X108733974Y-82894741D01*
X109555431Y-83235000D01*
X110444569Y-83235000D01*
X111266026Y-82894741D01*
X111894741Y-82266026D01*
X112235000Y-81444569D01*
X112235000Y-80555431D01*
X111894741Y-79733974D01*
X111266026Y-79105259D01*
X110444569Y-78765000D01*
X109555431Y-78765000D01*
X108733974Y-79105259D01*
X108105259Y-79733974D01*
X107765000Y-80555431D01*
X106633118Y-80555431D01*
X106786552Y-80325801D01*
X106835000Y-80082237D01*
X106835000Y-80082236D01*
X106851358Y-80000000D01*
X106835000Y-79917763D01*
X106835000Y-73082232D01*
X106851357Y-72999999D01*
X106835000Y-72917766D01*
X106835000Y-72917763D01*
X106786552Y-72674199D01*
X106602001Y-72397999D01*
X106532283Y-72351415D01*
X105392999Y-71212132D01*
X107022521Y-69582610D01*
X107117289Y-69519289D01*
X107368146Y-69143855D01*
X107434000Y-68812783D01*
X107434000Y-68812782D01*
X107456235Y-68701000D01*
X107434000Y-68589217D01*
X107434000Y-46720783D01*
X107456235Y-46609000D01*
X107368146Y-46166145D01*
X107307285Y-46075060D01*
X107117289Y-45790711D01*
X107022521Y-45727389D01*
X105850563Y-44555431D01*
X107765000Y-44555431D01*
X107765000Y-45444569D01*
X108105259Y-46266026D01*
X108733974Y-46894741D01*
X109555431Y-47235000D01*
X110444569Y-47235000D01*
X111266026Y-46894741D01*
X111894741Y-46266026D01*
X112235000Y-45444569D01*
X112235000Y-44555431D01*
X111894741Y-43733974D01*
X111266026Y-43105259D01*
X110444569Y-42765000D01*
X109555431Y-42765000D01*
X108733974Y-43105259D01*
X108105259Y-43733974D01*
X107765000Y-44555431D01*
X105850563Y-44555431D01*
X105570253Y-44275122D01*
X105506929Y-44180351D01*
X105131495Y-43929494D01*
X104800423Y-43863640D01*
X104688640Y-43841405D01*
X104576857Y-43863640D01*
X101223719Y-43863640D01*
X100758367Y-43552702D01*
X100310622Y-43463640D01*
X100008258Y-43463640D01*
X99560513Y-43552702D01*
X99095161Y-43863640D01*
X96062704Y-43863640D01*
X95941614Y-43254877D01*
X95558145Y-42680975D01*
X94984243Y-42297506D01*
X94478160Y-42196840D01*
X94136400Y-42196840D01*
X93630317Y-42297506D01*
X93056415Y-42680975D01*
X92672946Y-43254877D01*
X92551856Y-43863640D01*
X85223719Y-43863640D01*
X84758367Y-43552702D01*
X84310622Y-43463640D01*
X84008258Y-43463640D01*
X83560513Y-43552702D01*
X83095161Y-43863640D01*
X80062704Y-43863640D01*
X79941614Y-43254877D01*
X79558145Y-42680975D01*
X78984243Y-42297506D01*
X78478160Y-42196840D01*
X78136400Y-42196840D01*
X77630317Y-42297506D01*
X77056415Y-42680975D01*
X76672946Y-43254877D01*
X76551856Y-43863640D01*
X69223719Y-43863640D01*
X68758367Y-43552702D01*
X68310622Y-43463640D01*
X68008258Y-43463640D01*
X67560513Y-43552702D01*
X67095161Y-43863640D01*
X64062704Y-43863640D01*
X63941614Y-43254877D01*
X63558145Y-42680975D01*
X62984243Y-42297506D01*
X62478160Y-42196840D01*
X62136400Y-42196840D01*
X61630317Y-42297506D01*
X61056415Y-42680975D01*
X60672946Y-43254877D01*
X60551856Y-43863640D01*
X53223719Y-43863640D01*
X52758367Y-43552702D01*
X52310622Y-43463640D01*
X52008258Y-43463640D01*
X51560513Y-43552702D01*
X51095161Y-43863640D01*
X48062704Y-43863640D01*
X47941614Y-43254877D01*
X47558145Y-42680975D01*
X46984243Y-42297506D01*
X46478160Y-42196840D01*
X46136400Y-42196840D01*
X45630317Y-42297506D01*
X45056415Y-42680975D01*
X44672946Y-43254877D01*
X44551856Y-43863640D01*
X37223719Y-43863640D01*
X36758367Y-43552702D01*
X36310622Y-43463640D01*
X36008258Y-43463640D01*
X35560513Y-43552702D01*
X35095161Y-43863640D01*
X32062704Y-43863640D01*
X31941614Y-43254877D01*
X31558145Y-42680975D01*
X30984243Y-42297506D01*
X30478160Y-42196840D01*
X30136400Y-42196840D01*
X29630317Y-42297506D01*
X29056415Y-42680975D01*
X28672946Y-43254877D01*
X28538290Y-43931840D01*
X28635865Y-44422386D01*
X27127000Y-45931253D01*
X27127000Y-43008328D01*
X27191880Y-42515515D01*
X27378884Y-42064048D01*
X27676364Y-41676364D01*
X28064048Y-41378884D01*
X28515515Y-41191880D01*
X29008328Y-41127000D01*
X110991672Y-41127000D01*
X111484485Y-41191880D01*
X111484485Y-41191880D01*
G37*
X111484485Y-41191880D02*
X111935952Y-41378884D01*
X112323636Y-41676364D01*
X112621116Y-42064048D01*
X112808120Y-42515515D01*
X112873000Y-43008328D01*
X112873000Y-82991672D01*
X112808120Y-83484485D01*
X112621116Y-83935952D01*
X112323636Y-84323636D01*
X111935952Y-84621116D01*
X111484485Y-84808120D01*
X110991672Y-84873000D01*
X61062000Y-84873000D01*
X61062000Y-81268000D01*
X53492000Y-81268000D01*
X53492000Y-84873000D01*
X29008328Y-84873000D01*
X28515515Y-84808120D01*
X28064048Y-84621116D01*
X27676364Y-84323636D01*
X27378884Y-83935952D01*
X27191880Y-83484485D01*
X27127000Y-82991672D01*
X27127000Y-80555431D01*
X27765000Y-80555431D01*
X27765000Y-81444569D01*
X28105259Y-82266026D01*
X28733974Y-82894741D01*
X29555431Y-83235000D01*
X30444569Y-83235000D01*
X31266026Y-82894741D01*
X31894741Y-82266026D01*
X32235000Y-81444569D01*
X32235000Y-80635750D01*
X99715000Y-80635750D01*
X99715000Y-81226309D01*
X99811673Y-81459698D01*
X99990301Y-81638327D01*
X100223690Y-81735000D01*
X100714250Y-81735000D01*
X100873000Y-81576250D01*
X100873000Y-80477000D01*
X101127000Y-80477000D01*
X101127000Y-81576250D01*
X101285750Y-81735000D01*
X101776310Y-81735000D01*
X102009699Y-81638327D01*
X102188327Y-81459698D01*
X102285000Y-81226309D01*
X102285000Y-80635750D01*
X102126250Y-80477000D01*
X101127000Y-80477000D01*
X100873000Y-80477000D01*
X99873750Y-80477000D01*
X99715000Y-80635750D01*
X32235000Y-80635750D01*
X32235000Y-80555431D01*
X31894741Y-79733974D01*
X31266026Y-79105259D01*
X30444569Y-78765000D01*
X29555431Y-78765000D01*
X28733974Y-79105259D01*
X28105259Y-79733974D01*
X27765000Y-80555431D01*
X27127000Y-80555431D01*
X27127000Y-77613510D01*
X36580070Y-77613510D01*
X36580070Y-79612490D01*
X36629353Y-79860255D01*
X36769701Y-80070299D01*
X36979745Y-80210647D01*
X37227510Y-80259930D01*
X39226490Y-80259930D01*
X39474255Y-80210647D01*
X39684299Y-80070299D01*
X39783595Y-79921693D01*
X40129254Y-80152655D01*
X40606020Y-80247490D01*
X40927980Y-80247490D01*
X41404746Y-80152655D01*
X41945401Y-79791401D01*
X42037000Y-79654313D01*
X42128599Y-79791401D01*
X42669254Y-80152655D01*
X43146020Y-80247490D01*
X43467980Y-80247490D01*
X43944746Y-80152655D01*
X44485401Y-79791401D01*
X44577000Y-79654313D01*
X44668599Y-79791401D01*
X45209254Y-80152655D01*
X45686020Y-80247490D01*
X46007980Y-80247490D01*
X46484746Y-80152655D01*
X47025401Y-79791401D01*
X47117000Y-79654313D01*
X47208599Y-79791401D01*
X47749254Y-80152655D01*
X48226020Y-80247490D01*
X48547980Y-80247490D01*
X49024746Y-80152655D01*
X49565401Y-79791401D01*
X49677718Y-79623306D01*
X49967274Y-79936068D01*
X50546645Y-80202627D01*
X50800000Y-80083807D01*
X50800000Y-78740000D01*
X51054000Y-78740000D01*
X51054000Y-80083807D01*
X51307355Y-80202627D01*
X51886726Y-79936068D01*
X52319987Y-79468084D01*
X52516619Y-78993354D01*
X52397265Y-78740000D01*
X51054000Y-78740000D01*
X50800000Y-78740000D01*
X50780000Y-78740000D01*
X50780000Y-78486000D01*
X50800000Y-78486000D01*
X50800000Y-77142193D01*
X51054000Y-77142193D01*
X51054000Y-78486000D01*
X52397265Y-78486000D01*
X52516619Y-78232646D01*
X52319987Y-77757916D01*
X51886726Y-77289932D01*
X51307355Y-77023373D01*
X51054000Y-77142193D01*
X50800000Y-77142193D01*
X50546645Y-77023373D01*
X49967274Y-77289932D01*
X49677718Y-77602694D01*
X49565401Y-77434599D01*
X49024746Y-77073345D01*
X48547980Y-76978510D01*
X48226020Y-76978510D01*
X47749254Y-77073345D01*
X47208599Y-77434599D01*
X47117000Y-77571687D01*
X47025401Y-77434599D01*
X46484746Y-77073345D01*
X46007980Y-76978510D01*
X45686020Y-76978510D01*
X45209254Y-77073345D01*
X44668599Y-77434599D01*
X44577000Y-77571687D01*
X44485401Y-77434599D01*
X43944746Y-77073345D01*
X43467980Y-76978510D01*
X43146020Y-76978510D01*
X42669254Y-77073345D01*
X42128599Y-77434599D01*
X42037000Y-77571687D01*
X41945401Y-77434599D01*
X41404746Y-77073345D01*
X40927980Y-76978510D01*
X40606020Y-76978510D01*
X40129254Y-77073345D01*
X39783595Y-77304307D01*
X39684299Y-77155701D01*
X39474255Y-77015353D01*
X39226490Y-76966070D01*
X37227510Y-76966070D01*
X36979745Y-77015353D01*
X36769701Y-77155701D01*
X36629353Y-77365745D01*
X36580070Y-77613510D01*
X27127000Y-77613510D01*
X27127000Y-69856350D01*
X30837120Y-69856350D01*
X30837120Y-70321910D01*
X30933793Y-70555299D01*
X31112422Y-70733927D01*
X31345811Y-70830600D01*
X31936370Y-70830600D01*
X32095120Y-70671850D01*
X32095120Y-69697600D01*
X30995870Y-69697600D01*
X30837120Y-69856350D01*
X27127000Y-69856350D01*
X27127000Y-68819290D01*
X30837120Y-68819290D01*
X30837120Y-69284850D01*
X30995870Y-69443600D01*
X32095120Y-69443600D01*
X32095120Y-68469350D01*
X31936370Y-68310600D01*
X31345811Y-68310600D01*
X31112422Y-68407273D01*
X30933793Y-68585901D01*
X30837120Y-68819290D01*
X27127000Y-68819290D01*
X27127000Y-63919680D01*
X28110680Y-63919680D01*
X28110680Y-65419680D01*
X28159963Y-65667445D01*
X28300311Y-65877489D01*
X28510355Y-66017837D01*
X28519620Y-66019680D01*
X28510355Y-66021523D01*
X28300311Y-66161871D01*
X28159963Y-66371915D01*
X28110680Y-66619680D01*
X28110680Y-68119680D01*
X28159963Y-68367445D01*
X28300311Y-68577489D01*
X28510355Y-68717837D01*
X28758120Y-68767120D01*
X30058120Y-68767120D01*
X30305885Y-68717837D01*
X30515929Y-68577489D01*
X30656277Y-68367445D01*
X30688653Y-68204680D01*
X30957847Y-68204680D01*
X31040080Y-68221037D01*
X31122313Y-68204680D01*
X31122317Y-68204680D01*
X31365881Y-68156232D01*
X31642081Y-67971681D01*
X31688667Y-67901960D01*
X32287362Y-67303266D01*
X32357081Y-67256681D01*
X32541632Y-66980481D01*
X32590080Y-66736916D01*
X32606438Y-66654680D01*
X32590263Y-66573364D01*
X32796640Y-66366987D01*
X32866361Y-66320401D01*
X33050912Y-66044201D01*
X33068647Y-65955042D01*
X33262125Y-65916557D01*
X33472169Y-65776209D01*
X33612517Y-65566165D01*
X33618081Y-65538191D01*
X33676033Y-65678099D01*
X33854662Y-65856727D01*
X34088051Y-65953400D01*
X34678610Y-65953400D01*
X34837360Y-65794650D01*
X34837360Y-64795400D01*
X35091360Y-64795400D01*
X35091360Y-65794650D01*
X35250110Y-65953400D01*
X35840669Y-65953400D01*
X36074058Y-65856727D01*
X36252687Y-65678099D01*
X36349360Y-65444710D01*
X36349360Y-64954150D01*
X36190610Y-64795400D01*
X35091360Y-64795400D01*
X34837360Y-64795400D01*
X34817360Y-64795400D01*
X34817360Y-64541400D01*
X34837360Y-64541400D01*
X34837360Y-63542150D01*
X35091360Y-63542150D01*
X35091360Y-64541400D01*
X36190610Y-64541400D01*
X36349360Y-64382650D01*
X36349360Y-63892090D01*
X36252687Y-63658701D01*
X36074058Y-63480073D01*
X35840669Y-63383400D01*
X35250110Y-63383400D01*
X35091360Y-63542150D01*
X34837360Y-63542150D01*
X34678610Y-63383400D01*
X34088051Y-63383400D01*
X33854662Y-63480073D01*
X33676033Y-63658701D01*
X33618081Y-63798609D01*
X33612517Y-63770635D01*
X33472169Y-63560591D01*
X33262125Y-63420243D01*
X33014360Y-63370960D01*
X31514360Y-63370960D01*
X31266595Y-63420243D01*
X31056551Y-63560591D01*
X30916203Y-63770635D01*
X30866920Y-64018400D01*
X30866920Y-65318400D01*
X30916203Y-65566165D01*
X31054525Y-65773176D01*
X30968528Y-65901880D01*
X30920080Y-66145444D01*
X30920080Y-66145447D01*
X30903723Y-66227680D01*
X30919897Y-66308995D01*
X30694213Y-66534680D01*
X30688653Y-66534680D01*
X30656277Y-66371915D01*
X30515929Y-66161871D01*
X30305885Y-66021523D01*
X30296620Y-66019680D01*
X30305885Y-66017837D01*
X30515929Y-65877489D01*
X30656277Y-65667445D01*
X30705560Y-65419680D01*
X30705560Y-63919680D01*
X30656277Y-63671915D01*
X30515929Y-63461871D01*
X30305885Y-63321523D01*
X30243120Y-63309038D01*
X30243120Y-62204520D01*
X31107560Y-62204520D01*
X31355325Y-62155237D01*
X31565369Y-62014889D01*
X31705717Y-61804845D01*
X31755000Y-61557080D01*
X31755000Y-60853202D01*
X33398385Y-60853202D01*
X33613026Y-61371412D01*
X34075168Y-61866092D01*
X34691437Y-62146263D01*
X34960560Y-62028684D01*
X34960560Y-60584080D01*
X33516435Y-60584080D01*
X33398385Y-60853202D01*
X31755000Y-60853202D01*
X31755000Y-60060958D01*
X33398385Y-60060958D01*
X33516435Y-60330080D01*
X34960560Y-60330080D01*
X34960560Y-58885476D01*
X34691437Y-58767897D01*
X34075168Y-59048068D01*
X33613026Y-59542748D01*
X33398385Y-60060958D01*
X31755000Y-60060958D01*
X31755000Y-59357080D01*
X31705717Y-59109315D01*
X31565369Y-58899271D01*
X31355325Y-58758923D01*
X31107560Y-58709640D01*
X28907560Y-58709640D01*
X28659795Y-58758923D01*
X28449751Y-58899271D01*
X28309403Y-59109315D01*
X28260120Y-59357080D01*
X28260120Y-61557080D01*
X28309403Y-61804845D01*
X28449751Y-62014889D01*
X28573121Y-62097323D01*
X28573120Y-63309038D01*
X28510355Y-63321523D01*
X28300311Y-63461871D01*
X28159963Y-63671915D01*
X28110680Y-63919680D01*
X27127000Y-63919680D01*
X27127000Y-51546627D01*
X27465319Y-51884946D01*
X27387403Y-52001555D01*
X27338120Y-52249320D01*
X27338120Y-53749320D01*
X27387403Y-53997085D01*
X27527751Y-54207129D01*
X27590894Y-54249320D01*
X27527751Y-54291511D01*
X27387403Y-54501555D01*
X27338120Y-54749320D01*
X27338120Y-56249320D01*
X27387403Y-56497085D01*
X27527751Y-56707129D01*
X27737795Y-56847477D01*
X27985560Y-56896760D01*
X29235560Y-56896760D01*
X29483325Y-56847477D01*
X29693369Y-56707129D01*
X29787402Y-56566400D01*
X30042747Y-56566400D01*
X30075123Y-56729165D01*
X30215471Y-56939209D01*
X30425515Y-57079557D01*
X30673280Y-57128840D01*
X31973280Y-57128840D01*
X32221045Y-57079557D01*
X32431089Y-56939209D01*
X32571437Y-56729165D01*
X32580317Y-56684520D01*
X33301478Y-56684520D01*
X33313963Y-56747285D01*
X33454311Y-56957329D01*
X33664355Y-57097677D01*
X33912120Y-57146960D01*
X35412120Y-57146960D01*
X35659885Y-57097677D01*
X35869929Y-56957329D01*
X36010277Y-56747285D01*
X36012120Y-56738020D01*
X36013963Y-56747285D01*
X36154311Y-56957329D01*
X36364355Y-57097677D01*
X36527120Y-57130053D01*
X36527120Y-59505312D01*
X36099952Y-59048068D01*
X35483683Y-58767897D01*
X35214560Y-58885476D01*
X35214560Y-60330080D01*
X35234560Y-60330080D01*
X35234560Y-60584080D01*
X35214560Y-60584080D01*
X35214560Y-62028684D01*
X35483683Y-62146263D01*
X36099952Y-61866092D01*
X36527121Y-61408848D01*
X36527121Y-63441882D01*
X36510763Y-63524120D01*
X36575568Y-63849920D01*
X36575569Y-63849921D01*
X36760120Y-64126121D01*
X36829838Y-64172705D01*
X37790500Y-65133368D01*
X37790500Y-65313266D01*
X37963293Y-65730426D01*
X38282574Y-66049707D01*
X38699734Y-66222500D01*
X39151266Y-66222500D01*
X39568426Y-66049707D01*
X39887707Y-65730426D01*
X40060500Y-65313266D01*
X40060500Y-64861734D01*
X39887707Y-64444574D01*
X39568426Y-64125293D01*
X39151266Y-63952500D01*
X38971368Y-63952500D01*
X38197120Y-63178253D01*
X38197120Y-57130053D01*
X38359885Y-57097677D01*
X38569929Y-56957329D01*
X38710277Y-56747285D01*
X38759560Y-56499520D01*
X38759560Y-55199520D01*
X38710277Y-54951755D01*
X38569929Y-54741711D01*
X38359885Y-54601363D01*
X38112120Y-54552080D01*
X36612120Y-54552080D01*
X36364355Y-54601363D01*
X36154311Y-54741711D01*
X36013963Y-54951755D01*
X36012120Y-54961020D01*
X36010277Y-54951755D01*
X35869929Y-54741711D01*
X35659885Y-54601363D01*
X35497120Y-54568987D01*
X35497120Y-54151948D01*
X35822565Y-53826504D01*
X35892281Y-53779921D01*
X36076832Y-53503721D01*
X36125280Y-53260157D01*
X36125280Y-53260154D01*
X36141637Y-53177921D01*
X36125280Y-53095688D01*
X36125280Y-52593667D01*
X36691722Y-52027226D01*
X36761441Y-51980641D01*
X36945992Y-51704441D01*
X36961579Y-51626080D01*
X37059440Y-51626080D01*
X37307205Y-51576797D01*
X37517249Y-51436449D01*
X37657597Y-51226405D01*
X37706880Y-50978640D01*
X37706880Y-49178640D01*
X37657597Y-48930875D01*
X37517249Y-48720831D01*
X37308744Y-48581511D01*
X37605378Y-48137567D01*
X37724512Y-47538640D01*
X37605378Y-46939713D01*
X37266113Y-46431967D01*
X37021677Y-46268640D01*
X37223719Y-46133640D01*
X37386365Y-46133640D01*
X40122500Y-48869776D01*
X40122501Y-64917759D01*
X40122500Y-64917764D01*
X40122501Y-65965910D01*
X37352813Y-68735600D01*
X36077789Y-68735600D01*
X36070277Y-68697835D01*
X35929929Y-68487791D01*
X35719885Y-68347443D01*
X35472120Y-68298160D01*
X33972120Y-68298160D01*
X33724355Y-68347443D01*
X33514311Y-68487791D01*
X33473466Y-68548920D01*
X33331818Y-68407273D01*
X33098429Y-68310600D01*
X32507870Y-68310600D01*
X32349120Y-68469350D01*
X32349120Y-69443600D01*
X32369120Y-69443600D01*
X32369120Y-69697600D01*
X32349120Y-69697600D01*
X32349120Y-70671850D01*
X32507870Y-70830600D01*
X33098429Y-70830600D01*
X33331818Y-70733927D01*
X33473466Y-70592280D01*
X33514311Y-70653409D01*
X33724355Y-70793757D01*
X33972120Y-70843040D01*
X35472120Y-70843040D01*
X35719885Y-70793757D01*
X35929929Y-70653409D01*
X36070277Y-70443365D01*
X36077789Y-70405600D01*
X37616447Y-70405600D01*
X37698680Y-70421957D01*
X37780913Y-70405600D01*
X37780917Y-70405600D01*
X38024481Y-70357152D01*
X38300681Y-70172601D01*
X38347267Y-70102880D01*
X41489786Y-66960363D01*
X41559501Y-66913781D01*
X41677679Y-66736916D01*
X41744052Y-66637581D01*
X41764520Y-66534680D01*
X41792500Y-66394017D01*
X41792500Y-66394014D01*
X41808857Y-66311781D01*
X41792500Y-66229548D01*
X41792500Y-62166500D01*
X42646143Y-62166500D01*
X42662501Y-62248738D01*
X42662500Y-69450267D01*
X42646143Y-69532500D01*
X42662500Y-69614733D01*
X42662500Y-69614736D01*
X42710948Y-69858300D01*
X42895499Y-70134501D01*
X42965220Y-70181087D01*
X44432715Y-71648584D01*
X44432721Y-71648588D01*
X46531915Y-73747783D01*
X46578499Y-73817501D01*
X46854699Y-74002052D01*
X47098263Y-74050500D01*
X47098266Y-74050500D01*
X47180499Y-74066857D01*
X47262732Y-74050500D01*
X61329125Y-74050500D01*
X64339531Y-77060906D01*
X64181990Y-77029570D01*
X62183010Y-77029570D01*
X61935245Y-77078853D01*
X61725201Y-77219201D01*
X61584853Y-77429245D01*
X61535570Y-77677010D01*
X61535570Y-79675990D01*
X61584853Y-79923755D01*
X61725201Y-80133799D01*
X61935245Y-80274147D01*
X62183010Y-80323430D01*
X64181990Y-80323430D01*
X64429755Y-80274147D01*
X64639799Y-80133799D01*
X64739095Y-79985193D01*
X65084754Y-80216155D01*
X65561520Y-80310990D01*
X65883480Y-80310990D01*
X66360246Y-80216155D01*
X66900901Y-79854901D01*
X66992500Y-79717813D01*
X67084099Y-79854901D01*
X67624754Y-80216155D01*
X68101520Y-80310990D01*
X68423480Y-80310990D01*
X68900246Y-80216155D01*
X69440901Y-79854901D01*
X69532500Y-79717813D01*
X69624099Y-79854901D01*
X70164754Y-80216155D01*
X70641520Y-80310990D01*
X70963480Y-80310990D01*
X71440246Y-80216155D01*
X71980901Y-79854901D01*
X72072500Y-79717813D01*
X72164099Y-79854901D01*
X72704754Y-80216155D01*
X73181520Y-80310990D01*
X73503480Y-80310990D01*
X73980246Y-80216155D01*
X74520901Y-79854901D01*
X74633218Y-79686806D01*
X74922774Y-79999568D01*
X75502145Y-80266127D01*
X75755500Y-80147307D01*
X75755500Y-78803500D01*
X76009500Y-78803500D01*
X76009500Y-80147307D01*
X76262855Y-80266127D01*
X76842226Y-79999568D01*
X77275487Y-79531584D01*
X77472119Y-79056854D01*
X77427552Y-78962250D01*
X84207500Y-78962250D01*
X84207500Y-80002810D01*
X84304173Y-80236199D01*
X84482802Y-80414827D01*
X84716191Y-80511500D01*
X85756750Y-80511500D01*
X85915500Y-80352750D01*
X85915500Y-78803500D01*
X84366250Y-78803500D01*
X84207500Y-78962250D01*
X77427552Y-78962250D01*
X77352765Y-78803500D01*
X76009500Y-78803500D01*
X75755500Y-78803500D01*
X75735500Y-78803500D01*
X75735500Y-78549500D01*
X75755500Y-78549500D01*
X75755500Y-77205693D01*
X76009500Y-77205693D01*
X76009500Y-78549500D01*
X77352765Y-78549500D01*
X77472119Y-78296146D01*
X77275487Y-77821416D01*
X76842226Y-77353432D01*
X76835180Y-77350190D01*
X84207500Y-77350190D01*
X84207500Y-78390750D01*
X84366250Y-78549500D01*
X85915500Y-78549500D01*
X85915500Y-77000250D01*
X85756750Y-76841500D01*
X84716191Y-76841500D01*
X84482802Y-76938173D01*
X84304173Y-77116801D01*
X84207500Y-77350190D01*
X76835180Y-77350190D01*
X76262855Y-77086873D01*
X76009500Y-77205693D01*
X75755500Y-77205693D01*
X75502145Y-77086873D01*
X74922774Y-77353432D01*
X74633218Y-77666194D01*
X74520901Y-77498099D01*
X74381453Y-77404923D01*
X77735876Y-74050500D01*
X87801767Y-74050500D01*
X87884000Y-74066857D01*
X87966233Y-74050500D01*
X87966237Y-74050500D01*
X88209801Y-74002052D01*
X88486001Y-73817501D01*
X88532587Y-73747780D01*
X91527786Y-70752583D01*
X91597501Y-70706001D01*
X91782052Y-70429801D01*
X91830500Y-70186237D01*
X91830500Y-70186233D01*
X91846857Y-70104001D01*
X91830500Y-70021769D01*
X91830500Y-69856350D01*
X94837120Y-69856350D01*
X94837120Y-70321910D01*
X94933793Y-70555299D01*
X95112422Y-70733927D01*
X95345811Y-70830600D01*
X95936370Y-70830600D01*
X96095120Y-70671850D01*
X96095120Y-69697600D01*
X94995870Y-69697600D01*
X94837120Y-69856350D01*
X91830500Y-69856350D01*
X91830500Y-68819290D01*
X94837120Y-68819290D01*
X94837120Y-69284850D01*
X94995870Y-69443600D01*
X96095120Y-69443600D01*
X96095120Y-68469350D01*
X95936370Y-68310600D01*
X95345811Y-68310600D01*
X95112422Y-68407273D01*
X94933793Y-68585901D01*
X94837120Y-68819290D01*
X91830500Y-68819290D01*
X91830500Y-61940867D01*
X92260120Y-61511248D01*
X92260120Y-61557080D01*
X92309403Y-61804845D01*
X92449751Y-62014889D01*
X92573121Y-62097323D01*
X92573120Y-63309038D01*
X92510355Y-63321523D01*
X92300311Y-63461871D01*
X92159963Y-63671915D01*
X92110680Y-63919680D01*
X92110680Y-65419680D01*
X92159963Y-65667445D01*
X92300311Y-65877489D01*
X92510355Y-66017837D01*
X92519620Y-66019680D01*
X92510355Y-66021523D01*
X92300311Y-66161871D01*
X92159963Y-66371915D01*
X92110680Y-66619680D01*
X92110680Y-68119680D01*
X92159963Y-68367445D01*
X92300311Y-68577489D01*
X92510355Y-68717837D01*
X92758120Y-68767120D01*
X94058120Y-68767120D01*
X94305885Y-68717837D01*
X94515929Y-68577489D01*
X94656277Y-68367445D01*
X94688653Y-68204680D01*
X94957847Y-68204680D01*
X95040080Y-68221037D01*
X95122313Y-68204680D01*
X95122317Y-68204680D01*
X95365881Y-68156232D01*
X95642081Y-67971681D01*
X95688667Y-67901960D01*
X96287362Y-67303266D01*
X96357081Y-67256681D01*
X96541632Y-66980481D01*
X96590080Y-66736916D01*
X96606438Y-66654680D01*
X96590263Y-66573364D01*
X96796640Y-66366987D01*
X96866361Y-66320401D01*
X97050912Y-66044201D01*
X97068647Y-65955042D01*
X97262125Y-65916557D01*
X97472169Y-65776209D01*
X97612517Y-65566165D01*
X97618081Y-65538191D01*
X97676033Y-65678099D01*
X97854662Y-65856727D01*
X98088051Y-65953400D01*
X98678610Y-65953400D01*
X98837360Y-65794650D01*
X98837360Y-64795400D01*
X99091360Y-64795400D01*
X99091360Y-65794650D01*
X99250110Y-65953400D01*
X99840669Y-65953400D01*
X100074058Y-65856727D01*
X100252687Y-65678099D01*
X100349360Y-65444710D01*
X100349360Y-64954150D01*
X100190610Y-64795400D01*
X99091360Y-64795400D01*
X98837360Y-64795400D01*
X98817360Y-64795400D01*
X98817360Y-64541400D01*
X98837360Y-64541400D01*
X98837360Y-63542150D01*
X99091360Y-63542150D01*
X99091360Y-64541400D01*
X100190610Y-64541400D01*
X100349360Y-64382650D01*
X100349360Y-63892090D01*
X100252687Y-63658701D01*
X100074058Y-63480073D01*
X99840669Y-63383400D01*
X99250110Y-63383400D01*
X99091360Y-63542150D01*
X98837360Y-63542150D01*
X98678610Y-63383400D01*
X98088051Y-63383400D01*
X97854662Y-63480073D01*
X97676033Y-63658701D01*
X97618081Y-63798609D01*
X97612517Y-63770635D01*
X97472169Y-63560591D01*
X97262125Y-63420243D01*
X97014360Y-63370960D01*
X95514360Y-63370960D01*
X95266595Y-63420243D01*
X95056551Y-63560591D01*
X94916203Y-63770635D01*
X94866920Y-64018400D01*
X94866920Y-65318400D01*
X94916203Y-65566165D01*
X95054525Y-65773176D01*
X94968528Y-65901880D01*
X94920080Y-66145444D01*
X94920080Y-66145447D01*
X94903723Y-66227680D01*
X94919897Y-66308995D01*
X94694213Y-66534680D01*
X94688653Y-66534680D01*
X94656277Y-66371915D01*
X94515929Y-66161871D01*
X94305885Y-66021523D01*
X94296620Y-66019680D01*
X94305885Y-66017837D01*
X94515929Y-65877489D01*
X94656277Y-65667445D01*
X94705560Y-65419680D01*
X94705560Y-63919680D01*
X94656277Y-63671915D01*
X94515929Y-63461871D01*
X94305885Y-63321523D01*
X94243120Y-63309038D01*
X94243120Y-62204520D01*
X95107560Y-62204520D01*
X95355325Y-62155237D01*
X95565369Y-62014889D01*
X95705717Y-61804845D01*
X95755000Y-61557080D01*
X95755000Y-60853202D01*
X97398385Y-60853202D01*
X97613026Y-61371412D01*
X98075168Y-61866092D01*
X98691437Y-62146263D01*
X98960560Y-62028684D01*
X98960560Y-60584080D01*
X99214560Y-60584080D01*
X99214560Y-62028684D01*
X99483683Y-62146263D01*
X100099952Y-61866092D01*
X100562094Y-61371412D01*
X100776735Y-60853202D01*
X100658685Y-60584080D01*
X99214560Y-60584080D01*
X98960560Y-60584080D01*
X97516435Y-60584080D01*
X97398385Y-60853202D01*
X95755000Y-60853202D01*
X95755000Y-60060958D01*
X97398385Y-60060958D01*
X97516435Y-60330080D01*
X98960560Y-60330080D01*
X98960560Y-58885476D01*
X99214560Y-58885476D01*
X99214560Y-60330080D01*
X100658685Y-60330080D01*
X100776735Y-60060958D01*
X100562094Y-59542748D01*
X100099952Y-59048068D01*
X99483683Y-58767897D01*
X99214560Y-58885476D01*
X98960560Y-58885476D01*
X98691437Y-58767897D01*
X98075168Y-59048068D01*
X97613026Y-59542748D01*
X97398385Y-60060958D01*
X95755000Y-60060958D01*
X95755000Y-59357080D01*
X95705717Y-59109315D01*
X95565369Y-58899271D01*
X95355325Y-58758923D01*
X95107560Y-58709640D01*
X92907560Y-58709640D01*
X92659795Y-58758923D01*
X92449751Y-58899271D01*
X92309403Y-59109315D01*
X92260120Y-59357080D01*
X92260120Y-59622080D01*
X92215657Y-59622080D01*
X92133420Y-59605722D01*
X92051183Y-59622080D01*
X91807619Y-59670528D01*
X91531419Y-59855079D01*
X91484835Y-59924798D01*
X90463218Y-60946415D01*
X90393500Y-60992999D01*
X90346916Y-61062717D01*
X90208948Y-61269200D01*
X90144143Y-61595000D01*
X90160501Y-61677238D01*
X90160500Y-69758131D01*
X87538133Y-72380500D01*
X77472245Y-72380500D01*
X77390008Y-72364142D01*
X77307771Y-72380500D01*
X77064207Y-72428948D01*
X76788007Y-72613499D01*
X76741424Y-72683216D01*
X72810218Y-76614423D01*
X72740500Y-76661007D01*
X72693917Y-76730724D01*
X72693916Y-76730725D01*
X72636989Y-76815922D01*
X72636989Y-74466878D01*
X74700283Y-72403585D01*
X74770001Y-72357001D01*
X74954552Y-72080801D01*
X75003000Y-71837237D01*
X75003000Y-71837236D01*
X75019358Y-71755000D01*
X75003000Y-71672763D01*
X75003000Y-69856350D01*
X78837120Y-69856350D01*
X78837120Y-70321910D01*
X78933793Y-70555299D01*
X79112422Y-70733927D01*
X79345811Y-70830600D01*
X79936370Y-70830600D01*
X80095120Y-70671850D01*
X80095120Y-69697600D01*
X78995870Y-69697600D01*
X78837120Y-69856350D01*
X75003000Y-69856350D01*
X75003000Y-68819290D01*
X78837120Y-68819290D01*
X78837120Y-69284850D01*
X78995870Y-69443600D01*
X80095120Y-69443600D01*
X80095120Y-68469350D01*
X79936370Y-68310600D01*
X79345811Y-68310600D01*
X79112422Y-68407273D01*
X78933793Y-68585901D01*
X78837120Y-68819290D01*
X75003000Y-68819290D01*
X75003000Y-62067867D01*
X75778788Y-61292080D01*
X76260120Y-61292080D01*
X76260120Y-61557080D01*
X76309403Y-61804845D01*
X76449751Y-62014889D01*
X76573121Y-62097323D01*
X76573120Y-63309038D01*
X76510355Y-63321523D01*
X76300311Y-63461871D01*
X76159963Y-63671915D01*
X76110680Y-63919680D01*
X76110680Y-65419680D01*
X76159963Y-65667445D01*
X76300311Y-65877489D01*
X76510355Y-66017837D01*
X76519620Y-66019680D01*
X76510355Y-66021523D01*
X76300311Y-66161871D01*
X76159963Y-66371915D01*
X76110680Y-66619680D01*
X76110680Y-68119680D01*
X76159963Y-68367445D01*
X76300311Y-68577489D01*
X76510355Y-68717837D01*
X76758120Y-68767120D01*
X78058120Y-68767120D01*
X78305885Y-68717837D01*
X78515929Y-68577489D01*
X78656277Y-68367445D01*
X78688653Y-68204680D01*
X78957847Y-68204680D01*
X79040080Y-68221037D01*
X79122313Y-68204680D01*
X79122317Y-68204680D01*
X79365881Y-68156232D01*
X79642081Y-67971681D01*
X79688667Y-67901960D01*
X80287362Y-67303266D01*
X80357081Y-67256681D01*
X80541632Y-66980481D01*
X80590080Y-66736916D01*
X80606438Y-66654680D01*
X80590263Y-66573364D01*
X80796640Y-66366987D01*
X80866361Y-66320401D01*
X81050912Y-66044201D01*
X81068647Y-65955042D01*
X81262125Y-65916557D01*
X81472169Y-65776209D01*
X81612517Y-65566165D01*
X81618081Y-65538191D01*
X81676033Y-65678099D01*
X81854662Y-65856727D01*
X82088051Y-65953400D01*
X82678610Y-65953400D01*
X82837360Y-65794650D01*
X82837360Y-64795400D01*
X83091360Y-64795400D01*
X83091360Y-65794650D01*
X83250110Y-65953400D01*
X83840669Y-65953400D01*
X84074058Y-65856727D01*
X84252687Y-65678099D01*
X84349360Y-65444710D01*
X84349360Y-64954150D01*
X84190610Y-64795400D01*
X83091360Y-64795400D01*
X82837360Y-64795400D01*
X82817360Y-64795400D01*
X82817360Y-64541400D01*
X82837360Y-64541400D01*
X82837360Y-63542150D01*
X83091360Y-63542150D01*
X83091360Y-64541400D01*
X84190610Y-64541400D01*
X84349360Y-64382650D01*
X84349360Y-63892090D01*
X84252687Y-63658701D01*
X84074058Y-63480073D01*
X83840669Y-63383400D01*
X83250110Y-63383400D01*
X83091360Y-63542150D01*
X82837360Y-63542150D01*
X82678610Y-63383400D01*
X82088051Y-63383400D01*
X81854662Y-63480073D01*
X81676033Y-63658701D01*
X81618081Y-63798609D01*
X81612517Y-63770635D01*
X81472169Y-63560591D01*
X81262125Y-63420243D01*
X81014360Y-63370960D01*
X79514360Y-63370960D01*
X79266595Y-63420243D01*
X79056551Y-63560591D01*
X78916203Y-63770635D01*
X78866920Y-64018400D01*
X78866920Y-65318400D01*
X78916203Y-65566165D01*
X79054525Y-65773176D01*
X78968528Y-65901880D01*
X78920080Y-66145444D01*
X78920080Y-66145447D01*
X78903723Y-66227680D01*
X78919897Y-66308995D01*
X78694213Y-66534680D01*
X78688653Y-66534680D01*
X78656277Y-66371915D01*
X78515929Y-66161871D01*
X78305885Y-66021523D01*
X78296620Y-66019680D01*
X78305885Y-66017837D01*
X78515929Y-65877489D01*
X78656277Y-65667445D01*
X78705560Y-65419680D01*
X78705560Y-63919680D01*
X78656277Y-63671915D01*
X78515929Y-63461871D01*
X78305885Y-63321523D01*
X78243120Y-63309038D01*
X78243120Y-62204520D01*
X79107560Y-62204520D01*
X79355325Y-62155237D01*
X79565369Y-62014889D01*
X79705717Y-61804845D01*
X79755000Y-61557080D01*
X79755000Y-60853202D01*
X81398385Y-60853202D01*
X81613026Y-61371412D01*
X82075168Y-61866092D01*
X82691437Y-62146263D01*
X82960560Y-62028684D01*
X82960560Y-60584080D01*
X81516435Y-60584080D01*
X81398385Y-60853202D01*
X79755000Y-60853202D01*
X79755000Y-60060958D01*
X81398385Y-60060958D01*
X81516435Y-60330080D01*
X82960560Y-60330080D01*
X82960560Y-58885476D01*
X82691437Y-58767897D01*
X82075168Y-59048068D01*
X81613026Y-59542748D01*
X81398385Y-60060958D01*
X79755000Y-60060958D01*
X79755000Y-59357080D01*
X79705717Y-59109315D01*
X79565369Y-58899271D01*
X79355325Y-58758923D01*
X79107560Y-58709640D01*
X76907560Y-58709640D01*
X76659795Y-58758923D01*
X76449751Y-58899271D01*
X76309403Y-59109315D01*
X76260120Y-59357080D01*
X76260120Y-59622080D01*
X75515152Y-59622080D01*
X75432919Y-59605723D01*
X75350686Y-59622080D01*
X75350683Y-59622080D01*
X75107119Y-59670528D01*
X74830919Y-59855079D01*
X74784335Y-59924798D01*
X73635718Y-61073415D01*
X73566000Y-61119999D01*
X73519416Y-61189717D01*
X73381448Y-61396200D01*
X73316643Y-61722000D01*
X73333001Y-61804238D01*
X73333000Y-71409132D01*
X71269707Y-73472426D01*
X71199989Y-73519010D01*
X71153405Y-73588728D01*
X71015437Y-73795211D01*
X70950632Y-74121011D01*
X70966990Y-74203249D01*
X70966989Y-77042708D01*
X70963480Y-77042010D01*
X70641520Y-77042010D01*
X70164754Y-77136845D01*
X69624099Y-77498099D01*
X69532500Y-77635187D01*
X69440901Y-77498099D01*
X69110948Y-77277632D01*
X69113857Y-77263007D01*
X69097500Y-77180774D01*
X69097500Y-77180771D01*
X69049052Y-76937207D01*
X68911085Y-76730725D01*
X68911084Y-76730723D01*
X68911083Y-76730722D01*
X68864501Y-76661007D01*
X68794786Y-76614425D01*
X62036710Y-69856350D01*
X62837120Y-69856350D01*
X62837120Y-70321910D01*
X62933793Y-70555299D01*
X63112422Y-70733927D01*
X63345811Y-70830600D01*
X63936370Y-70830600D01*
X64095120Y-70671850D01*
X64095120Y-69697600D01*
X62995870Y-69697600D01*
X62837120Y-69856350D01*
X62036710Y-69856350D01*
X60999650Y-68819290D01*
X62837120Y-68819290D01*
X62837120Y-69284850D01*
X62995870Y-69443600D01*
X64095120Y-69443600D01*
X64095120Y-68469350D01*
X63936370Y-68310600D01*
X63345811Y-68310600D01*
X63112422Y-68407273D01*
X62933793Y-68585901D01*
X62837120Y-68819290D01*
X60999650Y-68819290D01*
X60947479Y-68767120D01*
X62058120Y-68767120D01*
X62305885Y-68717837D01*
X62515929Y-68577489D01*
X62656277Y-68367445D01*
X62688653Y-68204680D01*
X62957847Y-68204680D01*
X63040080Y-68221037D01*
X63122313Y-68204680D01*
X63122317Y-68204680D01*
X63365881Y-68156232D01*
X63642081Y-67971681D01*
X63688667Y-67901960D01*
X64287362Y-67303266D01*
X64357081Y-67256681D01*
X64541632Y-66980481D01*
X64590080Y-66736916D01*
X64606438Y-66654680D01*
X64590263Y-66573364D01*
X64796640Y-66366987D01*
X64866361Y-66320401D01*
X65050912Y-66044201D01*
X65068647Y-65955042D01*
X65262125Y-65916557D01*
X65472169Y-65776209D01*
X65612517Y-65566165D01*
X65618081Y-65538191D01*
X65676033Y-65678099D01*
X65854662Y-65856727D01*
X66088051Y-65953400D01*
X66678610Y-65953400D01*
X66837360Y-65794650D01*
X66837360Y-64795400D01*
X67091360Y-64795400D01*
X67091360Y-65794650D01*
X67250110Y-65953400D01*
X67840669Y-65953400D01*
X68074058Y-65856727D01*
X68252687Y-65678099D01*
X68349360Y-65444710D01*
X68349360Y-64954150D01*
X68190610Y-64795400D01*
X67091360Y-64795400D01*
X66837360Y-64795400D01*
X66817360Y-64795400D01*
X66817360Y-64541400D01*
X66837360Y-64541400D01*
X66837360Y-63542150D01*
X67091360Y-63542150D01*
X67091360Y-64541400D01*
X68190610Y-64541400D01*
X68349360Y-64382650D01*
X68349360Y-63892090D01*
X68252687Y-63658701D01*
X68074058Y-63480073D01*
X67840669Y-63383400D01*
X67250110Y-63383400D01*
X67091360Y-63542150D01*
X66837360Y-63542150D01*
X66678610Y-63383400D01*
X66088051Y-63383400D01*
X65854662Y-63480073D01*
X65676033Y-63658701D01*
X65618081Y-63798609D01*
X65612517Y-63770635D01*
X65472169Y-63560591D01*
X65262125Y-63420243D01*
X65014360Y-63370960D01*
X63514360Y-63370960D01*
X63266595Y-63420243D01*
X63056551Y-63560591D01*
X62916203Y-63770635D01*
X62866920Y-64018400D01*
X62866920Y-65318400D01*
X62916203Y-65566165D01*
X63054525Y-65773176D01*
X62968528Y-65901880D01*
X62920080Y-66145444D01*
X62920080Y-66145447D01*
X62903723Y-66227680D01*
X62919897Y-66308995D01*
X62694213Y-66534680D01*
X62688653Y-66534680D01*
X62656277Y-66371915D01*
X62515929Y-66161871D01*
X62305885Y-66021523D01*
X62296620Y-66019680D01*
X62305885Y-66017837D01*
X62515929Y-65877489D01*
X62656277Y-65667445D01*
X62705560Y-65419680D01*
X62705560Y-63919680D01*
X62656277Y-63671915D01*
X62515929Y-63461871D01*
X62305885Y-63321523D01*
X62243120Y-63309038D01*
X62243120Y-62204520D01*
X63107560Y-62204520D01*
X63355325Y-62155237D01*
X63565369Y-62014889D01*
X63705717Y-61804845D01*
X63755000Y-61557080D01*
X63755000Y-60853202D01*
X65398385Y-60853202D01*
X65613026Y-61371412D01*
X66075168Y-61866092D01*
X66691437Y-62146263D01*
X66960560Y-62028684D01*
X66960560Y-60584080D01*
X67214560Y-60584080D01*
X67214560Y-62028684D01*
X67483683Y-62146263D01*
X68099952Y-61866092D01*
X68562094Y-61371412D01*
X68776735Y-60853202D01*
X68658685Y-60584080D01*
X67214560Y-60584080D01*
X66960560Y-60584080D01*
X65516435Y-60584080D01*
X65398385Y-60853202D01*
X63755000Y-60853202D01*
X63755000Y-60060958D01*
X65398385Y-60060958D01*
X65516435Y-60330080D01*
X66960560Y-60330080D01*
X66960560Y-58885476D01*
X67214560Y-58885476D01*
X67214560Y-60330080D01*
X68658685Y-60330080D01*
X68776735Y-60060958D01*
X68562094Y-59542748D01*
X68099952Y-59048068D01*
X67483683Y-58767897D01*
X67214560Y-58885476D01*
X66960560Y-58885476D01*
X66691437Y-58767897D01*
X66075168Y-59048068D01*
X65613026Y-59542748D01*
X65398385Y-60060958D01*
X63755000Y-60060958D01*
X63755000Y-59357080D01*
X63705717Y-59109315D01*
X63565369Y-58899271D01*
X63355325Y-58758923D01*
X63107560Y-58709640D01*
X60907560Y-58709640D01*
X60659795Y-58758923D01*
X60449751Y-58899271D01*
X60309403Y-59109315D01*
X60260120Y-59357080D01*
X60260120Y-59642879D01*
X60121119Y-59670528D01*
X59844919Y-59855079D01*
X59798335Y-59924798D01*
X58649718Y-61073415D01*
X58580000Y-61119999D01*
X58533416Y-61189717D01*
X58395448Y-61396200D01*
X58330643Y-61722000D01*
X58347001Y-61804238D01*
X58347000Y-68100275D01*
X58330643Y-68182508D01*
X58347000Y-68264741D01*
X58347000Y-68264744D01*
X58395448Y-68508308D01*
X58579999Y-68784509D01*
X58649720Y-68831095D01*
X67223546Y-77404923D01*
X67084099Y-77498099D01*
X66992500Y-77635187D01*
X66900901Y-77498099D01*
X66570949Y-77277632D01*
X66573858Y-77263008D01*
X66549826Y-77142193D01*
X66509052Y-76937207D01*
X66324501Y-76661007D01*
X66254783Y-76614423D01*
X62323579Y-72683220D01*
X62276993Y-72613499D01*
X62000793Y-72428948D01*
X61757229Y-72380500D01*
X61757225Y-72380500D01*
X61674992Y-72364143D01*
X61592759Y-72380500D01*
X47526368Y-72380500D01*
X45613588Y-70467721D01*
X45613584Y-70467715D01*
X45002219Y-69856350D01*
X46837120Y-69856350D01*
X46837120Y-70321910D01*
X46933793Y-70555299D01*
X47112422Y-70733927D01*
X47345811Y-70830600D01*
X47936370Y-70830600D01*
X48095120Y-70671850D01*
X48095120Y-69697600D01*
X46995870Y-69697600D01*
X46837120Y-69856350D01*
X45002219Y-69856350D01*
X44332500Y-69186633D01*
X44332500Y-68819290D01*
X46837120Y-68819290D01*
X46837120Y-69284850D01*
X46995870Y-69443600D01*
X48095120Y-69443600D01*
X48095120Y-68469350D01*
X47936370Y-68310600D01*
X47345811Y-68310600D01*
X47112422Y-68407273D01*
X46933793Y-68585901D01*
X46837120Y-68819290D01*
X44332500Y-68819290D01*
X44332500Y-68598997D01*
X44510355Y-68717837D01*
X44758120Y-68767120D01*
X46058120Y-68767120D01*
X46305885Y-68717837D01*
X46515929Y-68577489D01*
X46656277Y-68367445D01*
X46688653Y-68204680D01*
X46957847Y-68204680D01*
X47040080Y-68221037D01*
X47122313Y-68204680D01*
X47122317Y-68204680D01*
X47365881Y-68156232D01*
X47642081Y-67971681D01*
X47688667Y-67901960D01*
X48287362Y-67303266D01*
X48357081Y-67256681D01*
X48541632Y-66980481D01*
X48590080Y-66736916D01*
X48606438Y-66654680D01*
X48590263Y-66573364D01*
X48796640Y-66366987D01*
X48866361Y-66320401D01*
X49050912Y-66044201D01*
X49068647Y-65955042D01*
X49262125Y-65916557D01*
X49472169Y-65776209D01*
X49612517Y-65566165D01*
X49618081Y-65538191D01*
X49676033Y-65678099D01*
X49854662Y-65856727D01*
X50088051Y-65953400D01*
X50678610Y-65953400D01*
X50837360Y-65794650D01*
X50837360Y-64795400D01*
X51091360Y-64795400D01*
X51091360Y-65794650D01*
X51250110Y-65953400D01*
X51840669Y-65953400D01*
X52074058Y-65856727D01*
X52252687Y-65678099D01*
X52349360Y-65444710D01*
X52349360Y-64954150D01*
X52190610Y-64795400D01*
X51091360Y-64795400D01*
X50837360Y-64795400D01*
X50817360Y-64795400D01*
X50817360Y-64541400D01*
X50837360Y-64541400D01*
X50837360Y-63542150D01*
X51091360Y-63542150D01*
X51091360Y-64541400D01*
X52190610Y-64541400D01*
X52349360Y-64382650D01*
X52349360Y-63892090D01*
X52252687Y-63658701D01*
X52074058Y-63480073D01*
X51840669Y-63383400D01*
X51250110Y-63383400D01*
X51091360Y-63542150D01*
X50837360Y-63542150D01*
X50678610Y-63383400D01*
X50088051Y-63383400D01*
X49854662Y-63480073D01*
X49676033Y-63658701D01*
X49618081Y-63798609D01*
X49612517Y-63770635D01*
X49472169Y-63560591D01*
X49262125Y-63420243D01*
X49014360Y-63370960D01*
X47514360Y-63370960D01*
X47266595Y-63420243D01*
X47056551Y-63560591D01*
X46916203Y-63770635D01*
X46866920Y-64018400D01*
X46866920Y-65318400D01*
X46916203Y-65566165D01*
X47054525Y-65773176D01*
X46968528Y-65901880D01*
X46920080Y-66145444D01*
X46920080Y-66145447D01*
X46903723Y-66227680D01*
X46919897Y-66308995D01*
X46694213Y-66534680D01*
X46688653Y-66534680D01*
X46656277Y-66371915D01*
X46515929Y-66161871D01*
X46305885Y-66021523D01*
X46296620Y-66019680D01*
X46305885Y-66017837D01*
X46515929Y-65877489D01*
X46656277Y-65667445D01*
X46705560Y-65419680D01*
X46705560Y-63919680D01*
X46656277Y-63671915D01*
X46515929Y-63461871D01*
X46305885Y-63321523D01*
X46243120Y-63309038D01*
X46243120Y-62204520D01*
X47107560Y-62204520D01*
X47355325Y-62155237D01*
X47565369Y-62014889D01*
X47705717Y-61804845D01*
X47755000Y-61557080D01*
X47755000Y-60853202D01*
X49398385Y-60853202D01*
X49613026Y-61371412D01*
X50075168Y-61866092D01*
X50691437Y-62146263D01*
X50960560Y-62028684D01*
X50960560Y-60584080D01*
X51214560Y-60584080D01*
X51214560Y-62028684D01*
X51483683Y-62146263D01*
X52099952Y-61866092D01*
X52562094Y-61371412D01*
X52776735Y-60853202D01*
X52658685Y-60584080D01*
X51214560Y-60584080D01*
X50960560Y-60584080D01*
X49516435Y-60584080D01*
X49398385Y-60853202D01*
X47755000Y-60853202D01*
X47755000Y-60060958D01*
X49398385Y-60060958D01*
X49516435Y-60330080D01*
X50960560Y-60330080D01*
X50960560Y-58885476D01*
X51214560Y-58885476D01*
X51214560Y-60330080D01*
X52658685Y-60330080D01*
X52776735Y-60060958D01*
X52562094Y-59542748D01*
X52099952Y-59048068D01*
X51483683Y-58767897D01*
X51214560Y-58885476D01*
X50960560Y-58885476D01*
X50691437Y-58767897D01*
X50075168Y-59048068D01*
X49613026Y-59542748D01*
X49398385Y-60060958D01*
X47755000Y-60060958D01*
X47755000Y-59357080D01*
X47705717Y-59109315D01*
X47565369Y-58899271D01*
X47355325Y-58758923D01*
X47107560Y-58709640D01*
X44907560Y-58709640D01*
X44659795Y-58758923D01*
X44449751Y-58899271D01*
X44309403Y-59109315D01*
X44260120Y-59357080D01*
X44260120Y-59654941D01*
X44181759Y-59670528D01*
X43905559Y-59855079D01*
X43858974Y-59924798D01*
X43028718Y-60755055D01*
X42959000Y-60801639D01*
X42912416Y-60871357D01*
X42774448Y-61077840D01*
X42752195Y-61189717D01*
X42726000Y-61321403D01*
X42726000Y-61321407D01*
X42709643Y-61403640D01*
X42726000Y-61485873D01*
X42726000Y-61818173D01*
X42710948Y-61840700D01*
X42646143Y-62166500D01*
X41792500Y-62166500D01*
X41792500Y-48606145D01*
X41808858Y-48523908D01*
X41744052Y-48198107D01*
X41606084Y-47991624D01*
X41559501Y-47921907D01*
X41489783Y-47875323D01*
X39748099Y-46133640D01*
X42683735Y-46133640D01*
X42688440Y-46157293D01*
X42688441Y-50679962D01*
X42672083Y-50762200D01*
X42736888Y-51088000D01*
X42736889Y-51088001D01*
X42921440Y-51364201D01*
X42991158Y-51410785D01*
X43465319Y-51884946D01*
X43387403Y-52001555D01*
X43338120Y-52249320D01*
X43338120Y-53749320D01*
X43387403Y-53997085D01*
X43527751Y-54207129D01*
X43590894Y-54249320D01*
X43527751Y-54291511D01*
X43387403Y-54501555D01*
X43338120Y-54749320D01*
X43338120Y-56249320D01*
X43387403Y-56497085D01*
X43527751Y-56707129D01*
X43737795Y-56847477D01*
X43985560Y-56896760D01*
X45235560Y-56896760D01*
X45483325Y-56847477D01*
X45693369Y-56707129D01*
X45787402Y-56566400D01*
X46042747Y-56566400D01*
X46075123Y-56729165D01*
X46215471Y-56939209D01*
X46425515Y-57079557D01*
X46673280Y-57128840D01*
X47973280Y-57128840D01*
X48221045Y-57079557D01*
X48431089Y-56939209D01*
X48571437Y-56729165D01*
X48580317Y-56684520D01*
X49301478Y-56684520D01*
X49313963Y-56747285D01*
X49454311Y-56957329D01*
X49664355Y-57097677D01*
X49912120Y-57146960D01*
X51412120Y-57146960D01*
X51659885Y-57097677D01*
X51869929Y-56957329D01*
X52010277Y-56747285D01*
X52012120Y-56738020D01*
X52013963Y-56747285D01*
X52154311Y-56957329D01*
X52364355Y-57097677D01*
X52527120Y-57130053D01*
X52527120Y-58296387D01*
X52510763Y-58378620D01*
X52527120Y-58460853D01*
X52527120Y-58460856D01*
X52575568Y-58704420D01*
X52760119Y-58980621D01*
X52829840Y-59027207D01*
X53076501Y-59273868D01*
X53076500Y-63555367D01*
X52949293Y-63682574D01*
X52776500Y-64099734D01*
X52776500Y-64551266D01*
X52949293Y-64968426D01*
X53268574Y-65287707D01*
X53685734Y-65460500D01*
X54137266Y-65460500D01*
X54554426Y-65287707D01*
X54873707Y-64968426D01*
X54982041Y-64706884D01*
X54982041Y-67106370D01*
X53352813Y-68735600D01*
X52077789Y-68735600D01*
X52070277Y-68697835D01*
X51929929Y-68487791D01*
X51719885Y-68347443D01*
X51472120Y-68298160D01*
X49972120Y-68298160D01*
X49724355Y-68347443D01*
X49514311Y-68487791D01*
X49473466Y-68548920D01*
X49331818Y-68407273D01*
X49098429Y-68310600D01*
X48507870Y-68310600D01*
X48349120Y-68469350D01*
X48349120Y-69443600D01*
X48369120Y-69443600D01*
X48369120Y-69697600D01*
X48349120Y-69697600D01*
X48349120Y-70671850D01*
X48507870Y-70830600D01*
X49098429Y-70830600D01*
X49331818Y-70733927D01*
X49473466Y-70592280D01*
X49514311Y-70653409D01*
X49724355Y-70793757D01*
X49972120Y-70843040D01*
X51472120Y-70843040D01*
X51719885Y-70793757D01*
X51929929Y-70653409D01*
X52070277Y-70443365D01*
X52077789Y-70405600D01*
X53616447Y-70405600D01*
X53698680Y-70421957D01*
X53780913Y-70405600D01*
X53780917Y-70405600D01*
X54024481Y-70357152D01*
X54300681Y-70172601D01*
X54347267Y-70102880D01*
X56349325Y-68100823D01*
X56419041Y-68054241D01*
X56603592Y-67778041D01*
X56652040Y-67534477D01*
X56652040Y-67534474D01*
X56668397Y-67452241D01*
X56652040Y-67370008D01*
X56652040Y-47465685D01*
X56668398Y-47383448D01*
X56603592Y-47057647D01*
X56515907Y-46926417D01*
X56419041Y-46781447D01*
X56349323Y-46734863D01*
X55748100Y-46133640D01*
X58688440Y-46133640D01*
X58688441Y-50679962D01*
X58672083Y-50762200D01*
X58736888Y-51088000D01*
X58736889Y-51088001D01*
X58921440Y-51364201D01*
X58991158Y-51410785D01*
X59465319Y-51884946D01*
X59387403Y-52001555D01*
X59338120Y-52249320D01*
X59338120Y-53749320D01*
X59387403Y-53997085D01*
X59527751Y-54207129D01*
X59590894Y-54249320D01*
X59527751Y-54291511D01*
X59387403Y-54501555D01*
X59338120Y-54749320D01*
X59338120Y-56249320D01*
X59387403Y-56497085D01*
X59527751Y-56707129D01*
X59737795Y-56847477D01*
X59985560Y-56896760D01*
X61235560Y-56896760D01*
X61483325Y-56847477D01*
X61693369Y-56707129D01*
X61787402Y-56566400D01*
X62042747Y-56566400D01*
X62075123Y-56729165D01*
X62215471Y-56939209D01*
X62425515Y-57079557D01*
X62673280Y-57128840D01*
X63973280Y-57128840D01*
X64221045Y-57079557D01*
X64431089Y-56939209D01*
X64571437Y-56729165D01*
X64580317Y-56684520D01*
X65301478Y-56684520D01*
X65313963Y-56747285D01*
X65454311Y-56957329D01*
X65664355Y-57097677D01*
X65912120Y-57146960D01*
X67412120Y-57146960D01*
X67659885Y-57097677D01*
X67869929Y-56957329D01*
X68010277Y-56747285D01*
X68012120Y-56738020D01*
X68013963Y-56747285D01*
X68154311Y-56957329D01*
X68364355Y-57097677D01*
X68519052Y-57128448D01*
X68510763Y-57170120D01*
X68527120Y-57252353D01*
X68527120Y-57252356D01*
X68575568Y-57495920D01*
X68760119Y-57772121D01*
X68829840Y-57818707D01*
X69205501Y-58194369D01*
X69205500Y-63237867D01*
X69078293Y-63365074D01*
X68905500Y-63782234D01*
X68905500Y-64233766D01*
X69078293Y-64650926D01*
X69397574Y-64970207D01*
X69814734Y-65143000D01*
X70266266Y-65143000D01*
X70683426Y-64970207D01*
X70982041Y-64671592D01*
X70982041Y-67106370D01*
X69352813Y-68735600D01*
X68077789Y-68735600D01*
X68070277Y-68697835D01*
X67929929Y-68487791D01*
X67719885Y-68347443D01*
X67472120Y-68298160D01*
X65972120Y-68298160D01*
X65724355Y-68347443D01*
X65514311Y-68487791D01*
X65473466Y-68548920D01*
X65331818Y-68407273D01*
X65098429Y-68310600D01*
X64507870Y-68310600D01*
X64349120Y-68469350D01*
X64349120Y-69443600D01*
X64369120Y-69443600D01*
X64369120Y-69697600D01*
X64349120Y-69697600D01*
X64349120Y-70671850D01*
X64507870Y-70830600D01*
X65098429Y-70830600D01*
X65331818Y-70733927D01*
X65473466Y-70592280D01*
X65514311Y-70653409D01*
X65724355Y-70793757D01*
X65972120Y-70843040D01*
X67472120Y-70843040D01*
X67719885Y-70793757D01*
X67929929Y-70653409D01*
X68070277Y-70443365D01*
X68077789Y-70405600D01*
X69616447Y-70405600D01*
X69698680Y-70421957D01*
X69780913Y-70405600D01*
X69780917Y-70405600D01*
X70024481Y-70357152D01*
X70300681Y-70172601D01*
X70347267Y-70102880D01*
X72349325Y-68100823D01*
X72419041Y-68054241D01*
X72603592Y-67778041D01*
X72652040Y-67534477D01*
X72652040Y-67534474D01*
X72668397Y-67452241D01*
X72652040Y-67370008D01*
X72652040Y-47465685D01*
X72668398Y-47383448D01*
X72603592Y-47057647D01*
X72515907Y-46926417D01*
X72419041Y-46781447D01*
X72349323Y-46734863D01*
X71748100Y-46133640D01*
X74688440Y-46133640D01*
X74688441Y-50679962D01*
X74672083Y-50762200D01*
X74736888Y-51088000D01*
X74736889Y-51088001D01*
X74921440Y-51364201D01*
X74991158Y-51410785D01*
X75465319Y-51884946D01*
X75387403Y-52001555D01*
X75338120Y-52249320D01*
X75338120Y-53749320D01*
X75387403Y-53997085D01*
X75527751Y-54207129D01*
X75590894Y-54249320D01*
X75527751Y-54291511D01*
X75387403Y-54501555D01*
X75338120Y-54749320D01*
X75338120Y-56249320D01*
X75387403Y-56497085D01*
X75527751Y-56707129D01*
X75737795Y-56847477D01*
X75985560Y-56896760D01*
X77235560Y-56896760D01*
X77483325Y-56847477D01*
X77693369Y-56707129D01*
X77787402Y-56566400D01*
X78042747Y-56566400D01*
X78075123Y-56729165D01*
X78215471Y-56939209D01*
X78425515Y-57079557D01*
X78673280Y-57128840D01*
X79973280Y-57128840D01*
X80221045Y-57079557D01*
X80431089Y-56939209D01*
X80571437Y-56729165D01*
X80580317Y-56684520D01*
X81301478Y-56684520D01*
X81313963Y-56747285D01*
X81454311Y-56957329D01*
X81664355Y-57097677D01*
X81912120Y-57146960D01*
X83412120Y-57146960D01*
X83659885Y-57097677D01*
X83869929Y-56957329D01*
X84010277Y-56747285D01*
X84012120Y-56738020D01*
X84013963Y-56747285D01*
X84154311Y-56957329D01*
X84364355Y-57097677D01*
X84527121Y-57130053D01*
X84527121Y-59505312D01*
X84099952Y-59048068D01*
X83483683Y-58767897D01*
X83214560Y-58885476D01*
X83214560Y-60330080D01*
X83234560Y-60330080D01*
X83234560Y-60584080D01*
X83214560Y-60584080D01*
X83214560Y-62028684D01*
X83483683Y-62146263D01*
X84099952Y-61866092D01*
X84527120Y-61408848D01*
X84527120Y-64705887D01*
X84510763Y-64788120D01*
X84527120Y-64870353D01*
X84527120Y-64870356D01*
X84575568Y-65113920D01*
X84760119Y-65390121D01*
X84829840Y-65436707D01*
X85034500Y-65641367D01*
X85034500Y-65821266D01*
X85207293Y-66238426D01*
X85526574Y-66557707D01*
X85943734Y-66730500D01*
X86395266Y-66730500D01*
X86812426Y-66557707D01*
X86985501Y-66384632D01*
X86985501Y-67102910D01*
X85352813Y-68735600D01*
X84077789Y-68735600D01*
X84070277Y-68697835D01*
X83929929Y-68487791D01*
X83719885Y-68347443D01*
X83472120Y-68298160D01*
X81972120Y-68298160D01*
X81724355Y-68347443D01*
X81514311Y-68487791D01*
X81473466Y-68548920D01*
X81331818Y-68407273D01*
X81098429Y-68310600D01*
X80507870Y-68310600D01*
X80349120Y-68469350D01*
X80349120Y-69443600D01*
X80369120Y-69443600D01*
X80369120Y-69697600D01*
X80349120Y-69697600D01*
X80349120Y-70671850D01*
X80507870Y-70830600D01*
X81098429Y-70830600D01*
X81331818Y-70733927D01*
X81473466Y-70592280D01*
X81514311Y-70653409D01*
X81724355Y-70793757D01*
X81972120Y-70843040D01*
X83472120Y-70843040D01*
X83719885Y-70793757D01*
X83929929Y-70653409D01*
X84070277Y-70443365D01*
X84077789Y-70405600D01*
X85616447Y-70405600D01*
X85698680Y-70421957D01*
X85780913Y-70405600D01*
X85780917Y-70405600D01*
X86024481Y-70357152D01*
X86300681Y-70172601D01*
X86347267Y-70102880D01*
X88388287Y-68061862D01*
X88422501Y-68039001D01*
X88445362Y-68004787D01*
X88465624Y-67984525D01*
X88603592Y-67778041D01*
X88606442Y-67763714D01*
X88607052Y-67762801D01*
X88655500Y-67519237D01*
X88655500Y-67517079D01*
X88668397Y-67452241D01*
X88655500Y-67387403D01*
X88655500Y-47448290D01*
X88668398Y-47383448D01*
X88655500Y-47318606D01*
X88655500Y-47285971D01*
X88607052Y-47042407D01*
X88422501Y-46766207D01*
X88296428Y-46681968D01*
X87748100Y-46133640D01*
X90688440Y-46133640D01*
X90688441Y-50679962D01*
X90672083Y-50762200D01*
X90736888Y-51088000D01*
X90736889Y-51088001D01*
X90921440Y-51364201D01*
X90991158Y-51410785D01*
X91465319Y-51884946D01*
X91387403Y-52001555D01*
X91338120Y-52249320D01*
X91338120Y-53749320D01*
X91387403Y-53997085D01*
X91527751Y-54207129D01*
X91590894Y-54249320D01*
X91527751Y-54291511D01*
X91387403Y-54501555D01*
X91338120Y-54749320D01*
X91338120Y-56249320D01*
X91387403Y-56497085D01*
X91527751Y-56707129D01*
X91737795Y-56847477D01*
X91985560Y-56896760D01*
X93235560Y-56896760D01*
X93483325Y-56847477D01*
X93693369Y-56707129D01*
X93787402Y-56566400D01*
X94042747Y-56566400D01*
X94075123Y-56729165D01*
X94215471Y-56939209D01*
X94425515Y-57079557D01*
X94673280Y-57128840D01*
X95973280Y-57128840D01*
X96221045Y-57079557D01*
X96431089Y-56939209D01*
X96571437Y-56729165D01*
X96580317Y-56684520D01*
X97301478Y-56684520D01*
X97313963Y-56747285D01*
X97454311Y-56957329D01*
X97664355Y-57097677D01*
X97912120Y-57146960D01*
X99412120Y-57146960D01*
X99659885Y-57097677D01*
X99869929Y-56957329D01*
X100010277Y-56747285D01*
X100012120Y-56738020D01*
X100013963Y-56747285D01*
X100154311Y-56957329D01*
X100364355Y-57097677D01*
X100527120Y-57130053D01*
X100527120Y-57464887D01*
X100510763Y-57547120D01*
X100527120Y-57629353D01*
X100527120Y-57629356D01*
X100575568Y-57872920D01*
X100760119Y-58149121D01*
X100829840Y-58195707D01*
X100955501Y-58321368D01*
X100955500Y-64634867D01*
X100828293Y-64762074D01*
X100655500Y-65179234D01*
X100655500Y-65630766D01*
X100828293Y-66047926D01*
X101147574Y-66367207D01*
X101564734Y-66540000D01*
X102016266Y-66540000D01*
X102433426Y-66367207D01*
X102752707Y-66047926D01*
X102925500Y-65630766D01*
X102925500Y-65179234D01*
X102752707Y-64762074D01*
X102625500Y-64634867D01*
X102625500Y-58057737D01*
X102641858Y-57975500D01*
X102577052Y-57649699D01*
X102538544Y-57592068D01*
X102392501Y-57373499D01*
X102322780Y-57326913D01*
X102197120Y-57201253D01*
X102197120Y-57130053D01*
X102359885Y-57097677D01*
X102569929Y-56957329D01*
X102710277Y-56747285D01*
X102759560Y-56499520D01*
X102759560Y-55199520D01*
X102710277Y-54951755D01*
X102569929Y-54741711D01*
X102359885Y-54601363D01*
X102112120Y-54552080D01*
X100612120Y-54552080D01*
X100364355Y-54601363D01*
X100154311Y-54741711D01*
X100013963Y-54951755D01*
X100012120Y-54961020D01*
X100010277Y-54951755D01*
X99869929Y-54741711D01*
X99659885Y-54601363D01*
X99497120Y-54568987D01*
X99497120Y-54151948D01*
X99822565Y-53826504D01*
X99892281Y-53779921D01*
X100076832Y-53503721D01*
X100125280Y-53260157D01*
X100125280Y-53260154D01*
X100141637Y-53177921D01*
X100125280Y-53095688D01*
X100125280Y-52593667D01*
X100691722Y-52027226D01*
X100761441Y-51980641D01*
X100945992Y-51704441D01*
X100961579Y-51626080D01*
X101059440Y-51626080D01*
X101307205Y-51576797D01*
X101517249Y-51436449D01*
X101657597Y-51226405D01*
X101706880Y-50978640D01*
X101706880Y-49178640D01*
X101657597Y-48930875D01*
X101517249Y-48720831D01*
X101308744Y-48581511D01*
X101605378Y-48137567D01*
X101724512Y-47538640D01*
X101605378Y-46939713D01*
X101266113Y-46431967D01*
X101021677Y-46268640D01*
X101223719Y-46133640D01*
X101386365Y-46133640D01*
X102982040Y-47729316D01*
X102982041Y-67106370D01*
X101352813Y-68735600D01*
X100077789Y-68735600D01*
X100070277Y-68697835D01*
X99929929Y-68487791D01*
X99719885Y-68347443D01*
X99472120Y-68298160D01*
X97972120Y-68298160D01*
X97724355Y-68347443D01*
X97514311Y-68487791D01*
X97473466Y-68548920D01*
X97331818Y-68407273D01*
X97098429Y-68310600D01*
X96507870Y-68310600D01*
X96349120Y-68469350D01*
X96349120Y-69443600D01*
X96369120Y-69443600D01*
X96369120Y-69697600D01*
X96349120Y-69697600D01*
X96349120Y-70671850D01*
X96507870Y-70830600D01*
X97098429Y-70830600D01*
X97331818Y-70733927D01*
X97473466Y-70592280D01*
X97514311Y-70653409D01*
X97724355Y-70793757D01*
X97972120Y-70843040D01*
X99472120Y-70843040D01*
X99719885Y-70793757D01*
X99929929Y-70653409D01*
X100070277Y-70443365D01*
X100077789Y-70405600D01*
X101616447Y-70405600D01*
X101698680Y-70421957D01*
X101780913Y-70405600D01*
X101780917Y-70405600D01*
X102024481Y-70357152D01*
X102300681Y-70172601D01*
X102347267Y-70102880D01*
X104349325Y-68100823D01*
X104419041Y-68054241D01*
X104603592Y-67778041D01*
X104652040Y-67534477D01*
X104652040Y-67534474D01*
X104668397Y-67452241D01*
X104652040Y-67370008D01*
X104652040Y-47465685D01*
X104668398Y-47383448D01*
X104603592Y-47057647D01*
X104515907Y-46926417D01*
X104419041Y-46781447D01*
X104349323Y-46734863D01*
X103748100Y-46133640D01*
X104218509Y-46133640D01*
X105164001Y-47079133D01*
X105164000Y-68230868D01*
X103276482Y-70118387D01*
X103181711Y-70181711D01*
X103106308Y-70294560D01*
X95859369Y-77541500D01*
X91002582Y-77541500D01*
X90581944Y-77120862D01*
X89907504Y-76841500D01*
X89177496Y-76841500D01*
X88503056Y-77120862D01*
X87986862Y-77637056D01*
X87877500Y-77901079D01*
X87877500Y-77350190D01*
X87780827Y-77116801D01*
X87602198Y-76938173D01*
X87368809Y-76841500D01*
X86328250Y-76841500D01*
X86169500Y-77000250D01*
X86169500Y-78549500D01*
X86189500Y-78549500D01*
X86189500Y-78803500D01*
X86169500Y-78803500D01*
X86169500Y-80352750D01*
X86328250Y-80511500D01*
X87368809Y-80511500D01*
X87602198Y-80414827D01*
X87780827Y-80236199D01*
X87877500Y-80002810D01*
X87877500Y-79451921D01*
X87986862Y-79715944D01*
X88503056Y-80232138D01*
X89177496Y-80511500D01*
X89907504Y-80511500D01*
X90581944Y-80232138D01*
X91002582Y-79811500D01*
X96217717Y-79811500D01*
X96329500Y-79833735D01*
X96441283Y-79811500D01*
X96772355Y-79745646D01*
X97147789Y-79494789D01*
X97211113Y-79400018D01*
X99702560Y-76908571D01*
X99702560Y-78400000D01*
X99751843Y-78647765D01*
X99892191Y-78857809D01*
X100102235Y-78998157D01*
X100130209Y-79003721D01*
X99990301Y-79061673D01*
X99811673Y-79240302D01*
X99715000Y-79473691D01*
X99715000Y-80064250D01*
X99873750Y-80223000D01*
X100873000Y-80223000D01*
X100873000Y-80203000D01*
X101127000Y-80203000D01*
X101127000Y-80223000D01*
X102126250Y-80223000D01*
X102285000Y-80064250D01*
X102285000Y-79473691D01*
X102188327Y-79240302D01*
X102009699Y-79061673D01*
X101869791Y-79003721D01*
X101897765Y-78998157D01*
X102107809Y-78857809D01*
X102248157Y-78647765D01*
X102280533Y-78485000D01*
X102719467Y-78485000D01*
X102751843Y-78647765D01*
X102892191Y-78857809D01*
X103102235Y-78998157D01*
X103111500Y-79000000D01*
X103102235Y-79001843D01*
X102892191Y-79142191D01*
X102751843Y-79352235D01*
X102702560Y-79600000D01*
X102702560Y-81100000D01*
X102751843Y-81347765D01*
X102892191Y-81557809D01*
X103102235Y-81698157D01*
X103350000Y-81747440D01*
X104650000Y-81747440D01*
X104897765Y-81698157D01*
X105107809Y-81557809D01*
X105248157Y-81347765D01*
X105280533Y-81185000D01*
X105567767Y-81185000D01*
X105650000Y-81201357D01*
X105732233Y-81185000D01*
X105732237Y-81185000D01*
X105975801Y-81136552D01*
X106252001Y-80952001D01*
X106298587Y-80882280D01*
X106532280Y-80648587D01*
X106602001Y-80602001D01*
X106633118Y-80555431D01*
X107765000Y-80555431D01*
X107765000Y-81444569D01*
X108105259Y-82266026D01*
X108733974Y-82894741D01*
X109555431Y-83235000D01*
X110444569Y-83235000D01*
X111266026Y-82894741D01*
X111894741Y-82266026D01*
X112235000Y-81444569D01*
X112235000Y-80555431D01*
X111894741Y-79733974D01*
X111266026Y-79105259D01*
X110444569Y-78765000D01*
X109555431Y-78765000D01*
X108733974Y-79105259D01*
X108105259Y-79733974D01*
X107765000Y-80555431D01*
X106633118Y-80555431D01*
X106786552Y-80325801D01*
X106835000Y-80082237D01*
X106835000Y-80082236D01*
X106851358Y-80000000D01*
X106835000Y-79917763D01*
X106835000Y-73082232D01*
X106851357Y-72999999D01*
X106835000Y-72917766D01*
X106835000Y-72917763D01*
X106786552Y-72674199D01*
X106602001Y-72397999D01*
X106532283Y-72351415D01*
X105392999Y-71212132D01*
X107022521Y-69582610D01*
X107117289Y-69519289D01*
X107368146Y-69143855D01*
X107434000Y-68812783D01*
X107434000Y-68812782D01*
X107456235Y-68701000D01*
X107434000Y-68589217D01*
X107434000Y-46720783D01*
X107456235Y-46609000D01*
X107368146Y-46166145D01*
X107307285Y-46075060D01*
X107117289Y-45790711D01*
X107022521Y-45727389D01*
X105850563Y-44555431D01*
X107765000Y-44555431D01*
X107765000Y-45444569D01*
X108105259Y-46266026D01*
X108733974Y-46894741D01*
X109555431Y-47235000D01*
X110444569Y-47235000D01*
X111266026Y-46894741D01*
X111894741Y-46266026D01*
X112235000Y-45444569D01*
X112235000Y-44555431D01*
X111894741Y-43733974D01*
X111266026Y-43105259D01*
X110444569Y-42765000D01*
X109555431Y-42765000D01*
X108733974Y-43105259D01*
X108105259Y-43733974D01*
X107765000Y-44555431D01*
X105850563Y-44555431D01*
X105570253Y-44275122D01*
X105506929Y-44180351D01*
X105131495Y-43929494D01*
X104800423Y-43863640D01*
X104688640Y-43841405D01*
X104576857Y-43863640D01*
X101223719Y-43863640D01*
X100758367Y-43552702D01*
X100310622Y-43463640D01*
X100008258Y-43463640D01*
X99560513Y-43552702D01*
X99095161Y-43863640D01*
X96062704Y-43863640D01*
X95941614Y-43254877D01*
X95558145Y-42680975D01*
X94984243Y-42297506D01*
X94478160Y-42196840D01*
X94136400Y-42196840D01*
X93630317Y-42297506D01*
X93056415Y-42680975D01*
X92672946Y-43254877D01*
X92551856Y-43863640D01*
X85223719Y-43863640D01*
X84758367Y-43552702D01*
X84310622Y-43463640D01*
X84008258Y-43463640D01*
X83560513Y-43552702D01*
X83095161Y-43863640D01*
X80062704Y-43863640D01*
X79941614Y-43254877D01*
X79558145Y-42680975D01*
X78984243Y-42297506D01*
X78478160Y-42196840D01*
X78136400Y-42196840D01*
X77630317Y-42297506D01*
X77056415Y-42680975D01*
X76672946Y-43254877D01*
X76551856Y-43863640D01*
X69223719Y-43863640D01*
X68758367Y-43552702D01*
X68310622Y-43463640D01*
X68008258Y-43463640D01*
X67560513Y-43552702D01*
X67095161Y-43863640D01*
X64062704Y-43863640D01*
X63941614Y-43254877D01*
X63558145Y-42680975D01*
X62984243Y-42297506D01*
X62478160Y-42196840D01*
X62136400Y-42196840D01*
X61630317Y-42297506D01*
X61056415Y-42680975D01*
X60672946Y-43254877D01*
X60551856Y-43863640D01*
X53223719Y-43863640D01*
X52758367Y-43552702D01*
X52310622Y-43463640D01*
X52008258Y-43463640D01*
X51560513Y-43552702D01*
X51095161Y-43863640D01*
X48062704Y-43863640D01*
X47941614Y-43254877D01*
X47558145Y-42680975D01*
X46984243Y-42297506D01*
X46478160Y-42196840D01*
X46136400Y-42196840D01*
X45630317Y-42297506D01*
X45056415Y-42680975D01*
X44672946Y-43254877D01*
X44551856Y-43863640D01*
X37223719Y-43863640D01*
X36758367Y-43552702D01*
X36310622Y-43463640D01*
X36008258Y-43463640D01*
X35560513Y-43552702D01*
X35095161Y-43863640D01*
X32062704Y-43863640D01*
X31941614Y-43254877D01*
X31558145Y-42680975D01*
X30984243Y-42297506D01*
X30478160Y-42196840D01*
X30136400Y-42196840D01*
X29630317Y-42297506D01*
X29056415Y-42680975D01*
X28672946Y-43254877D01*
X28538290Y-43931840D01*
X28635865Y-44422386D01*
X27127000Y-45931253D01*
X27127000Y-43008328D01*
X27191880Y-42515515D01*
X27378884Y-42064048D01*
X27676364Y-41676364D01*
X28064048Y-41378884D01*
X28515515Y-41191880D01*
X29008328Y-41127000D01*
X110991672Y-41127000D01*
X111484485Y-41191880D01*
G04 #@! TD*
M02*
