<?xml version="1.0" encoding="UTF-8" standalone="no"?>
<!DOCTYPE svg PUBLIC "-//W3C//DTD SVG 1.1//EN"
 "http://www.w3.org/Graphics/SVG/1.1/DTD/svg11.dtd">
<!-- Generated by graphviz version 2.43.0 (0)
 -->
<!-- Title: clock_and_timers.h Pages: 1 -->
<svg width="572pt" height="82pt"
 viewBox="0.00 0.00 572.00 82.00" xmlns="http://www.w3.org/2000/svg" xmlns:xlink="http://www.w3.org/1999/xlink">
<g id="graph0" class="graph" transform="scale(1 1) rotate(0) translate(4 78)">
<title>clock_and_timers.h</title>
<!-- Node1 -->
<g id="Node000001" class="node">
<title>Node1</title>
<g id="a_Node000001"><a xlink:title="Contains clocks and timer functions prototypes.">
<polygon fill="#999999" stroke="#666666" points="344.5,-74 233.5,-74 233.5,-55 344.5,-55 344.5,-74"/>
<text text-anchor="middle" x="289" y="-62" font-family="Helvetica,sans-Serif" font-size="10.00">clock_and_timers.h</text>
</a>
</g>
</g>
<!-- Node2 -->
<g id="Node000002" class="node">
<title>Node2</title>
<g id="a_Node000002"><a xlink:href="../../d4/dfb/buttons_8c.html" target="_top" xlink:title="Contains functions to check the button state in non&#45;blocking mode.">
<polygon fill="white" stroke="#666666" points="62,-19 0,-19 0,0 62,0 62,-19"/>
<text text-anchor="middle" x="31" y="-7" font-family="Helvetica,sans-Serif" font-size="10.00">buttons.c</text>
</a>
</g>
</g>
<!-- Node1&#45;&gt;Node2 -->
<g id="edge1_Node000001_Node000002" class="edge">
<title>Node1&#45;&gt;Node2</title>
<g id="a_edge1_Node000001_Node000002"><a xlink:title=" ">
<path fill="none" stroke="#63b8ff" d="M236.85,-52.98C192.67,-44.03 127.66,-30.8 71,-19 68.08,-18.39 65.04,-17.75 62,-17.11"/>
<polygon fill="#63b8ff" stroke="#63b8ff" points="236.28,-56.43 246.78,-54.99 237.67,-49.57 236.28,-56.43"/>
</a>
</g>
</g>
<!-- Node3 -->
<g id="Node000003" class="node">
<title>Node3</title>
<g id="a_Node000003"><a xlink:href="../../db/de5/clock__and__timers_8c.html" target="_top" xlink:title="Contains functions for clock system Project uses HSI without PLL. Clock is ~8Mhz for core and buses.">
<polygon fill="white" stroke="#666666" points="190,-19 80,-19 80,0 190,0 190,-19"/>
<text text-anchor="middle" x="135" y="-7" font-family="Helvetica,sans-Serif" font-size="10.00">clock_and_timers.c</text>
</a>
</g>
</g>
<!-- Node1&#45;&gt;Node3 -->
<g id="edge2_Node000001_Node000003" class="edge">
<title>Node1&#45;&gt;Node3</title>
<g id="a_edge2_Node000001_Node000003"><a xlink:title=" ">
<path fill="none" stroke="#63b8ff" d="M254.62,-51.67C225.91,-41.79 185.64,-27.93 159.94,-19.08"/>
<polygon fill="#63b8ff" stroke="#63b8ff" points="253.66,-55.04 264.26,-54.98 255.94,-48.42 253.66,-55.04"/>
</a>
</g>
</g>
<!-- Node4 -->
<g id="Node000004" class="node">
<title>Node4</title>
<g id="a_Node000004"><a xlink:href="../../d6/dcc/led__control_8c.html" target="_top" xlink:title="Contains led blinking functions.">
<polygon fill="white" stroke="#666666" points="287.5,-19 208.5,-19 208.5,0 287.5,0 287.5,-19"/>
<text text-anchor="middle" x="248" y="-7" font-family="Helvetica,sans-Serif" font-size="10.00">led_control.c</text>
</a>
</g>
</g>
<!-- Node1&#45;&gt;Node4 -->
<g id="edge3_Node000001_Node000004" class="edge">
<title>Node1&#45;&gt;Node4</title>
<g id="a_edge3_Node000001_Node000004"><a xlink:title=" ">
<path fill="none" stroke="#63b8ff" d="M275.98,-46.67C268.88,-37.5 260.4,-26.52 254.64,-19.09"/>
<polygon fill="#63b8ff" stroke="#63b8ff" points="273.34,-48.98 282.23,-54.75 278.88,-44.7 273.34,-48.98"/>
</a>
</g>
</g>
<!-- Node5 -->
<g id="Node000005" class="node">
<title>Node5</title>
<g id="a_Node000005"><a xlink:href="../../d0/d29/main_8c.html" target="_top" xlink:title="Main file for psg14a_emu.">
<polygon fill="white" stroke="#666666" points="356,-19 306,-19 306,0 356,0 356,-19"/>
<text text-anchor="middle" x="331" y="-7" font-family="Helvetica,sans-Serif" font-size="10.00">main.c</text>
</a>
</g>
</g>
<!-- Node1&#45;&gt;Node5 -->
<g id="edge4_Node000001_Node000005" class="edge">
<title>Node1&#45;&gt;Node5</title>
<g id="a_edge4_Node000001_Node000005"><a xlink:title=" ">
<path fill="none" stroke="#63b8ff" d="M302.33,-46.67C309.61,-37.5 318.3,-26.52 324.19,-19.09"/>
<polygon fill="#63b8ff" stroke="#63b8ff" points="299.4,-44.74 295.94,-54.75 304.89,-49.08 299.4,-44.74"/>
</a>
</g>
</g>
<!-- Node6 -->
<g id="Node000006" class="node">
<title>Node6</title>
<g id="a_Node000006"><a xlink:href="../../d4/de7/main__cycle_8c.html" target="_top" xlink:title="Contains functions that are called in while(1) main cycle and after it.">
<polygon fill="white" stroke="#666666" points="454,-19 374,-19 374,0 454,0 454,-19"/>
<text text-anchor="middle" x="414" y="-7" font-family="Helvetica,sans-Serif" font-size="10.00">main_cycle.c</text>
</a>
</g>
</g>
<!-- Node1&#45;&gt;Node6 -->
<g id="edge5_Node000001_Node000006" class="edge">
<title>Node1&#45;&gt;Node6</title>
<g id="a_edge5_Node000001_Node000006"><a xlink:title=" ">
<path fill="none" stroke="#63b8ff" d="M318.41,-51.03C341.53,-41.23 373.13,-27.83 393.55,-19.17"/>
<polygon fill="#63b8ff" stroke="#63b8ff" points="316.92,-47.86 309.08,-54.98 319.66,-54.3 316.92,-47.86"/>
</a>
</g>
</g>
<!-- Node7 -->
<g id="Node000007" class="node">
<title>Node7</title>
<g id="a_Node000007"><a xlink:href="../../de/d3c/main__outputs_8c.html" target="_top" xlink:title="Contains functions for controlling main outputs.">
<polygon fill="white" stroke="#666666" points="564,-19 472,-19 472,0 564,0 564,-19"/>
<text text-anchor="middle" x="518" y="-7" font-family="Helvetica,sans-Serif" font-size="10.00">main_outputs.c</text>
</a>
</g>
</g>
<!-- Node1&#45;&gt;Node7 -->
<g id="edge6_Node000001_Node000007" class="edge">
<title>Node1&#45;&gt;Node7</title>
<g id="a_edge6_Node000001_Node000007"><a xlink:title=" ">
<path fill="none" stroke="#63b8ff" d="M335.71,-52.69C378.61,-42.76 441.36,-28.24 480.92,-19.08"/>
<polygon fill="#63b8ff" stroke="#63b8ff" points="334.75,-49.32 325.79,-54.98 336.32,-56.14 334.75,-49.32"/>
</a>
</g>
</g>
</g>
</svg>
