<?xml version="1.0" encoding="UTF-8" standalone="no"?>
<!DOCTYPE svg PUBLIC "-//W3C//DTD SVG 1.1//EN"
 "http://www.w3.org/Graphics/SVG/1.1/DTD/svg11.dtd">
<!-- Generated by graphviz version 2.43.0 (0)
 -->
<!-- Title: Sleep_on Pages: 1 -->
<svg width="350pt" height="64pt"
 viewBox="0.00 0.00 350.00 64.00" xmlns="http://www.w3.org/2000/svg" xmlns:xlink="http://www.w3.org/1999/xlink">
<g id="graph0" class="graph" transform="scale(1 1) rotate(0) translate(4 60)">
<title>Sleep_on</title>
<!-- Node1 -->
<g id="Node000001" class="node">
<title>Node1</title>
<g id="a_Node000001"><a xlink:title=" ">
<polygon fill="#999999" stroke="#666666" points="61,-37 0,-37 0,-18 61,-18 61,-37"/>
<text text-anchor="middle" x="30.5" y="-25" font-family="Helvetica,sans-Serif" font-size="10.00">Sleep_on</text>
</a>
</g>
</g>
<!-- Node2 -->
<g id="Node000002" class="node">
<title>Node2</title>
<g id="a_Node000002"><a xlink:href="../../d2/da8/gpio__exti_8c.html#ade791aabc006cd8fde8672093b7a0b54" target="_top" xlink:title=" ">
<polygon fill="white" stroke="#666666" points="210.5,-56 100.5,-56 100.5,-37 210.5,-37 210.5,-56"/>
<text text-anchor="middle" x="155.5" y="-44" font-family="Helvetica,sans-Serif" font-size="10.00">Exti_Clear_Pending</text>
</a>
</g>
</g>
<!-- Node1&#45;&gt;Node2 -->
<g id="edge1_Node000001_Node000002" class="edge">
<title>Node1&#45;&gt;Node2</title>
<g id="a_edge1_Node000001_Node000002"><a xlink:title=" ">
<path fill="none" stroke="#63b8ff" d="M61.27,-32.1C70.13,-33.47 80.19,-35.02 90.34,-36.59"/>
<polygon fill="#63b8ff" stroke="#63b8ff" points="90.07,-40.09 100.49,-38.16 91.14,-33.17 90.07,-40.09"/>
</a>
</g>
</g>
<!-- Node3 -->
<g id="Node000003" class="node">
<title>Node3</title>
<g id="a_Node000003"><a xlink:href="../../d2/da8/gpio__exti_8c.html#a2ad13e4a65086eb7203938837ff05111" target="_top" xlink:title=" ">
<polygon fill="white" stroke="#666666" points="214,-19 97,-19 97,0 214,0 214,-19"/>
<text text-anchor="middle" x="155.5" y="-7" font-family="Helvetica,sans-Serif" font-size="10.00">Gpio_Reset_all_Outs</text>
</a>
</g>
</g>
<!-- Node1&#45;&gt;Node3 -->
<g id="edge2_Node000001_Node000003" class="edge">
<title>Node1&#45;&gt;Node3</title>
<g id="a_edge2_Node000001_Node000003"><a xlink:title=" ">
<path fill="none" stroke="#63b8ff" d="M61.27,-23.14C69.02,-22.01 77.7,-20.74 86.55,-19.44"/>
<polygon fill="#63b8ff" stroke="#63b8ff" points="87.2,-22.89 96.58,-17.98 86.18,-15.96 87.2,-22.89"/>
</a>
</g>
</g>
<!-- Node4 -->
<g id="Node000004" class="node">
<title>Node4</title>
<g id="a_Node000004"><a xlink:href="../../d2/da8/gpio__exti_8c.html#a2eaab98c926e448a6e93701b03612772" target="_top" xlink:title=" ">
<polygon fill="white" stroke="#666666" points="342,-19 250,-19 250,0 342,0 342,-19"/>
<text text-anchor="middle" x="296" y="-7" font-family="Helvetica,sans-Serif" font-size="10.00">Gpio_Reset_Pin</text>
</a>
</g>
</g>
<!-- Node3&#45;&gt;Node4 -->
<g id="edge3_Node000003_Node000004" class="edge">
<title>Node3&#45;&gt;Node4</title>
<g id="a_edge3_Node000003_Node000004"><a xlink:title=" ">
<path fill="none" stroke="#63b8ff" d="M214.03,-9.5C222.49,-9.5 231.18,-9.5 239.59,-9.5"/>
<polygon fill="#63b8ff" stroke="#63b8ff" points="239.67,-13 249.67,-9.5 239.67,-6 239.67,-13"/>
</a>
</g>
</g>
</g>
</svg>
