M48
;DRILL file {KiCad (5.0.0)} date 10/17/18 22:36:40
;FORMAT={3:3/ absolute / metric / suppress leading zeros}
FMAT,2
METRIC,TZ
T1C0.400
T2C0.500
T3C0.900
T4C1.000
T5C1.520
T6C2.500
T7C3.200
%
G90
G05
M71
T1
X63625Y-53400
X63850Y-45850
X65050Y-69800
X67900Y-47650
X68050Y-56450
X69250Y-46050
X72000Y-50400
X72400Y-42200
X73150Y-68300
X73600Y-52350
X74350Y-78050
X76500Y-72000
X77350Y-65950
X77650Y-49100
X78000Y-62450
X78150Y-41200
X79750Y-73000
X80250Y-55650
X80800Y-63200
X80850Y-49750
T2
X92750Y-74400
X99100Y-37750
X99150Y-60800
T3
X83050Y-24700
X85590Y-24700
T4
X68500Y-38950
X71040Y-38950
T5
X104450Y-50190
X104450Y-55270
X104450Y-60350
X79600Y-84750
X84680Y-84750
X89760Y-84750
X94840Y-84750
X104400Y-34220
X104400Y-39300
X104400Y-44380
X104400Y-66160
X104400Y-71240
X104400Y-76320
T6
X69900Y-33100
T7
X104400Y-84700
X65000Y-84700
X65000Y-25100
X104400Y-25100
T0
M30
