G04 #@! TF.GenerationSoftware,KiCad,Pcbnew,(5.0.0)*
G04 #@! TF.CreationDate,2018-10-17T22:36:33+03:00*
G04 #@! TF.ProjectId,psg14_emu,70736731345F656D752E6B696361645F,rev?*
G04 #@! TF.SameCoordinates,Original*
G04 #@! TF.FileFunction,Copper,L1,Top,Signal*
G04 #@! TF.FilePolarity,Positive*
%FSLAX46Y46*%
G04 Gerber Fmt 4.6, Leading zero omitted, Abs format (unit mm)*
G04 Created by KiCad (PCBNEW (5.0.0)) date 10/17/18 22:36:33*
%MOMM*%
%LPD*%
G01*
G04 APERTURE LIST*
G04 #@! TA.AperFunction,SMDPad,CuDef*
%ADD10R,1.450000X0.450000*%
G04 #@! TD*
G04 #@! TA.AperFunction,SMDPad,CuDef*
%ADD11R,1.500000X1.780000*%
G04 #@! TD*
G04 #@! TA.AperFunction,SMDPad,CuDef*
%ADD12R,2.400000X0.740000*%
G04 #@! TD*
G04 #@! TA.AperFunction,SMDPad,CuDef*
%ADD13R,1.250000X1.500000*%
G04 #@! TD*
G04 #@! TA.AperFunction,ComponentPad*
%ADD14C,3.000000*%
G04 #@! TD*
G04 #@! TA.AperFunction,ComponentPad*
%ADD15R,3.000000X3.000000*%
G04 #@! TD*
G04 #@! TA.AperFunction,ComponentPad*
%ADD16C,1.800000*%
G04 #@! TD*
G04 #@! TA.AperFunction,ComponentPad*
%ADD17R,1.800000X1.800000*%
G04 #@! TD*
G04 #@! TA.AperFunction,ComponentPad*
%ADD18O,1.700000X1.700000*%
G04 #@! TD*
G04 #@! TA.AperFunction,ComponentPad*
%ADD19R,1.700000X1.700000*%
G04 #@! TD*
G04 #@! TA.AperFunction,SMDPad,CuDef*
%ADD20R,1.300000X1.500000*%
G04 #@! TD*
G04 #@! TA.AperFunction,SMDPad,CuDef*
%ADD21R,1.500000X1.300000*%
G04 #@! TD*
G04 #@! TA.AperFunction,ViaPad*
%ADD22C,0.800000*%
G04 #@! TD*
G04 #@! TA.AperFunction,ViaPad*
%ADD23C,0.950000*%
G04 #@! TD*
G04 #@! TA.AperFunction,Conductor*
%ADD24C,0.250000*%
G04 #@! TD*
G04 #@! TA.AperFunction,Conductor*
%ADD25C,0.400000*%
G04 #@! TD*
G04 #@! TA.AperFunction,Conductor*
%ADD26C,0.254000*%
G04 #@! TD*
G04 APERTURE END LIST*
D10*
G04 #@! TO.P,U1,20*
G04 #@! TO.N,/SWDCLK*
X69650000Y-53775000D03*
G04 #@! TO.P,U1,19*
G04 #@! TO.N,/SWDIO*
X69650000Y-53125000D03*
G04 #@! TO.P,U1,18*
G04 #@! TO.N,/B1*
X69650000Y-52475000D03*
G04 #@! TO.P,U1,17*
G04 #@! TO.N,/B0*
X69650000Y-51825000D03*
G04 #@! TO.P,U1,16*
G04 #@! TO.N,+BATT*
X69650000Y-51175000D03*
G04 #@! TO.P,U1,15*
G04 #@! TO.N,-BATT*
X69650000Y-50525000D03*
G04 #@! TO.P,U1,14*
G04 #@! TO.N,Net-(D1-Pad2)*
X69650000Y-49875000D03*
G04 #@! TO.P,U1,13*
G04 #@! TO.N,/DO7*
X69650000Y-49225000D03*
G04 #@! TO.P,U1,12*
G04 #@! TO.N,/DO6*
X69650000Y-48575000D03*
G04 #@! TO.P,U1,11*
G04 #@! TO.N,/DO5*
X69650000Y-47925000D03*
G04 #@! TO.P,U1,10*
G04 #@! TO.N,/DO4*
X75550000Y-47925000D03*
G04 #@! TO.P,U1,9*
G04 #@! TO.N,/DO3*
X75550000Y-48575000D03*
G04 #@! TO.P,U1,8*
G04 #@! TO.N,/DO2*
X75550000Y-49225000D03*
G04 #@! TO.P,U1,7*
G04 #@! TO.N,/DO1*
X75550000Y-49875000D03*
G04 #@! TO.P,U1,6*
G04 #@! TO.N,/DO0*
X75550000Y-50525000D03*
G04 #@! TO.P,U1,5*
G04 #@! TO.N,+BATT*
X75550000Y-51175000D03*
G04 #@! TO.P,U1,4*
G04 #@! TO.N,/NRST*
X75550000Y-51825000D03*
G04 #@! TO.P,U1,3*
G04 #@! TO.N,Net-(U1-Pad3)*
X75550000Y-52475000D03*
G04 #@! TO.P,U1,2*
G04 #@! TO.N,Net-(U1-Pad2)*
X75550000Y-53125000D03*
G04 #@! TO.P,U1,1*
G04 #@! TO.N,Net-(R1-Pad2)*
X75550000Y-53775000D03*
G04 #@! TD*
D11*
G04 #@! TO.P,U2,1*
G04 #@! TO.N,Net-(R6-Pad1)*
X87135000Y-36760000D03*
G04 #@! TO.P,U2,9*
G04 #@! TO.N,/GND_O*
X96665000Y-54540000D03*
G04 #@! TO.P,U2,2*
G04 #@! TO.N,-BATT*
X87135000Y-39300000D03*
G04 #@! TO.P,U2,10*
G04 #@! TO.N,/OUT0*
X96665000Y-52000000D03*
G04 #@! TO.P,U2,3*
G04 #@! TO.N,Net-(R7-Pad1)*
X87135000Y-41840000D03*
G04 #@! TO.P,U2,11*
G04 #@! TO.N,/GND_O*
X96665000Y-49460000D03*
G04 #@! TO.P,U2,4*
G04 #@! TO.N,-BATT*
X87135000Y-44380000D03*
G04 #@! TO.P,U2,12*
G04 #@! TO.N,/OUT2*
X96665000Y-46920000D03*
G04 #@! TO.P,U2,5*
G04 #@! TO.N,Net-(R8-Pad1)*
X87135000Y-46920000D03*
G04 #@! TO.P,U2,13*
G04 #@! TO.N,/GND_O*
X96665000Y-44380000D03*
G04 #@! TO.P,U2,6*
G04 #@! TO.N,-BATT*
X87135000Y-49460000D03*
G04 #@! TO.P,U2,14*
G04 #@! TO.N,/OUT1*
X96665000Y-41840000D03*
G04 #@! TO.P,U2,7*
G04 #@! TO.N,Net-(R9-Pad1)*
X87135000Y-52000000D03*
G04 #@! TO.P,U2,15*
G04 #@! TO.N,/GND_O*
X96665000Y-39300000D03*
G04 #@! TO.P,U2,8*
G04 #@! TO.N,-BATT*
X87135000Y-54540000D03*
G04 #@! TO.P,U2,16*
G04 #@! TO.N,/OUT3*
X96665000Y-36760000D03*
G04 #@! TD*
G04 #@! TO.P,U3,16*
G04 #@! TO.N,/OUT7*
X96665000Y-60060000D03*
G04 #@! TO.P,U3,8*
G04 #@! TO.N,-BATT*
X87135000Y-77840000D03*
G04 #@! TO.P,U3,15*
G04 #@! TO.N,/GND_O*
X96665000Y-62600000D03*
G04 #@! TO.P,U3,7*
G04 #@! TO.N,Net-(R13-Pad1)*
X87135000Y-75300000D03*
G04 #@! TO.P,U3,14*
G04 #@! TO.N,/OUT5*
X96665000Y-65140000D03*
G04 #@! TO.P,U3,6*
G04 #@! TO.N,-BATT*
X87135000Y-72760000D03*
G04 #@! TO.P,U3,13*
G04 #@! TO.N,/GND_O*
X96665000Y-67680000D03*
G04 #@! TO.P,U3,5*
G04 #@! TO.N,Net-(R12-Pad1)*
X87135000Y-70220000D03*
G04 #@! TO.P,U3,12*
G04 #@! TO.N,/OUT6*
X96665000Y-70220000D03*
G04 #@! TO.P,U3,4*
G04 #@! TO.N,-BATT*
X87135000Y-67680000D03*
G04 #@! TO.P,U3,11*
G04 #@! TO.N,/GND_O*
X96665000Y-72760000D03*
G04 #@! TO.P,U3,3*
G04 #@! TO.N,Net-(R11-Pad1)*
X87135000Y-65140000D03*
G04 #@! TO.P,U3,10*
G04 #@! TO.N,/OUT4*
X96665000Y-75300000D03*
G04 #@! TO.P,U3,2*
G04 #@! TO.N,-BATT*
X87135000Y-62600000D03*
G04 #@! TO.P,U3,9*
G04 #@! TO.N,/GND_O*
X96665000Y-77840000D03*
G04 #@! TO.P,U3,1*
G04 #@! TO.N,Net-(R10-Pad1)*
X87135000Y-60060000D03*
G04 #@! TD*
D12*
G04 #@! TO.P,J3,10*
G04 #@! TO.N,/NRST*
X74400000Y-65990000D03*
G04 #@! TO.P,J3,9*
G04 #@! TO.N,-BATT*
X70500000Y-65990000D03*
G04 #@! TO.P,J3,8*
G04 #@! TO.N,Net-(J3-Pad8)*
X74400000Y-64720000D03*
G04 #@! TO.P,J3,7*
G04 #@! TO.N,Net-(J3-Pad7)*
X70500000Y-64720000D03*
G04 #@! TO.P,J3,6*
G04 #@! TO.N,Net-(J3-Pad6)*
X74400000Y-63450000D03*
G04 #@! TO.P,J3,5*
G04 #@! TO.N,-BATT*
X70500000Y-63450000D03*
G04 #@! TO.P,J3,4*
G04 #@! TO.N,/SWDCLK*
X74400000Y-62180000D03*
G04 #@! TO.P,J3,3*
G04 #@! TO.N,-BATT*
X70500000Y-62180000D03*
G04 #@! TO.P,J3,2*
G04 #@! TO.N,/SWDIO*
X74400000Y-60910000D03*
G04 #@! TO.P,J3,1*
G04 #@! TO.N,+BATT*
X70500000Y-60910000D03*
G04 #@! TD*
D13*
G04 #@! TO.P,C1,1*
G04 #@! TO.N,+BATT*
X78350000Y-52150000D03*
G04 #@! TO.P,C1,2*
G04 #@! TO.N,-BATT*
X78350000Y-54650000D03*
G04 #@! TD*
G04 #@! TO.P,C2,2*
G04 #@! TO.N,-BATT*
X65500000Y-64950000D03*
G04 #@! TO.P,C2,1*
G04 #@! TO.N,+BATT*
X65500000Y-62450000D03*
G04 #@! TD*
D14*
G04 #@! TO.P,J4,3*
G04 #@! TO.N,/OUT0*
X104400000Y-34220000D03*
G04 #@! TO.P,J4,2*
G04 #@! TO.N,/OUT1*
X104400000Y-39300000D03*
D15*
G04 #@! TO.P,J4,1*
G04 #@! TO.N,/OUT2*
X104400000Y-44380000D03*
G04 #@! TD*
G04 #@! TO.P,J5,1*
G04 #@! TO.N,/OUT5*
X104450000Y-60350000D03*
D14*
G04 #@! TO.P,J5,2*
G04 #@! TO.N,/OUT4*
X104450000Y-55270000D03*
G04 #@! TO.P,J5,3*
G04 #@! TO.N,/OUT3*
X104450000Y-50190000D03*
G04 #@! TD*
G04 #@! TO.P,J6,3*
G04 #@! TO.N,/OUT6*
X104400000Y-66160000D03*
G04 #@! TO.P,J6,2*
G04 #@! TO.N,/OUT7*
X104400000Y-71240000D03*
D15*
G04 #@! TO.P,J6,1*
G04 #@! TO.N,/GND_O*
X104400000Y-76320000D03*
G04 #@! TD*
D14*
G04 #@! TO.P,J1,4*
G04 #@! TO.N,/B1*
X94840000Y-84750000D03*
D15*
G04 #@! TO.P,J1,1*
G04 #@! TO.N,-BATT*
X79600000Y-84750000D03*
D14*
G04 #@! TO.P,J1,3*
X89760000Y-84750000D03*
G04 #@! TO.P,J1,2*
G04 #@! TO.N,/B0*
X84680000Y-84750000D03*
G04 #@! TD*
D16*
G04 #@! TO.P,D1,2*
G04 #@! TO.N,Net-(D1-Pad2)*
X85590000Y-24700000D03*
D17*
G04 #@! TO.P,D1,1*
G04 #@! TO.N,Net-(D1-Pad1)*
X83050000Y-24700000D03*
G04 #@! TD*
D18*
G04 #@! TO.P,J2,2*
G04 #@! TO.N,+BATT*
X71040000Y-38950000D03*
D19*
G04 #@! TO.P,J2,1*
G04 #@! TO.N,-BATT*
X68500000Y-38950000D03*
G04 #@! TD*
D20*
G04 #@! TO.P,R3,2*
G04 #@! TO.N,/B1*
X65850000Y-54950000D03*
G04 #@! TO.P,R3,1*
G04 #@! TO.N,+BATT*
X65850000Y-57650000D03*
G04 #@! TD*
G04 #@! TO.P,R9,1*
G04 #@! TO.N,Net-(R9-Pad1)*
X83050000Y-52000000D03*
G04 #@! TO.P,R9,2*
G04 #@! TO.N,/DO0*
X83050000Y-54700000D03*
G04 #@! TD*
G04 #@! TO.P,R13,2*
G04 #@! TO.N,/DO4*
X83050000Y-78050000D03*
G04 #@! TO.P,R13,1*
G04 #@! TO.N,Net-(R13-Pad1)*
X83050000Y-75350000D03*
G04 #@! TD*
G04 #@! TO.P,R12,1*
G04 #@! TO.N,Net-(R12-Pad1)*
X83050000Y-70200000D03*
G04 #@! TO.P,R12,2*
G04 #@! TO.N,/DO6*
X83050000Y-72900000D03*
G04 #@! TD*
G04 #@! TO.P,R11,2*
G04 #@! TO.N,/DO5*
X83050000Y-67850000D03*
G04 #@! TO.P,R11,1*
G04 #@! TO.N,Net-(R11-Pad1)*
X83050000Y-65150000D03*
G04 #@! TD*
G04 #@! TO.P,R10,1*
G04 #@! TO.N,Net-(R10-Pad1)*
X83050000Y-60100000D03*
G04 #@! TO.P,R10,2*
G04 #@! TO.N,/DO7*
X83050000Y-62800000D03*
G04 #@! TD*
G04 #@! TO.P,R8,2*
G04 #@! TO.N,/DO2*
X83050000Y-49650000D03*
G04 #@! TO.P,R8,1*
G04 #@! TO.N,Net-(R8-Pad1)*
X83050000Y-46950000D03*
G04 #@! TD*
G04 #@! TO.P,R7,1*
G04 #@! TO.N,Net-(R7-Pad1)*
X83050000Y-41850000D03*
G04 #@! TO.P,R7,2*
G04 #@! TO.N,/DO1*
X83050000Y-44550000D03*
G04 #@! TD*
G04 #@! TO.P,R6,2*
G04 #@! TO.N,/DO3*
X83050000Y-39450000D03*
G04 #@! TO.P,R6,1*
G04 #@! TO.N,Net-(R6-Pad1)*
X83050000Y-36750000D03*
G04 #@! TD*
D21*
G04 #@! TO.P,R5,1*
G04 #@! TO.N,-BATT*
X85500000Y-30900000D03*
G04 #@! TO.P,R5,2*
G04 #@! TO.N,Net-(D1-Pad1)*
X82800000Y-30900000D03*
G04 #@! TD*
D20*
G04 #@! TO.P,R4,2*
G04 #@! TO.N,/B0*
X65800000Y-52100000D03*
G04 #@! TO.P,R4,1*
G04 #@! TO.N,+BATT*
X65800000Y-49400000D03*
G04 #@! TD*
G04 #@! TO.P,R1,1*
G04 #@! TO.N,-BATT*
X78400000Y-60200000D03*
G04 #@! TO.P,R1,2*
G04 #@! TO.N,Net-(R1-Pad2)*
X78400000Y-57500000D03*
G04 #@! TD*
D21*
G04 #@! TO.P,R2,2*
G04 #@! TO.N,/NRST*
X73750000Y-71450000D03*
G04 #@! TO.P,R2,1*
G04 #@! TO.N,+BATT*
X71050000Y-71450000D03*
G04 #@! TD*
D22*
G04 #@! TO.N,/NRST*
X77350000Y-65950000D03*
X73600000Y-52350000D03*
G04 #@! TO.N,-BATT*
X80250000Y-55650000D03*
X72000000Y-50400000D03*
X73150000Y-68300000D03*
X78000000Y-62450000D03*
G04 #@! TO.N,/B0*
X63625010Y-53400000D03*
G04 #@! TO.N,/DO2*
X80850000Y-49750000D03*
X77650000Y-49100000D03*
G04 #@! TO.N,/DO7*
X80800000Y-63200000D03*
X72400000Y-42200000D03*
G04 #@! TO.N,/DO5*
X63850000Y-45850000D03*
X69250000Y-46050000D03*
G04 #@! TO.N,/DO6*
X67900000Y-47650000D03*
X65050000Y-69800000D03*
X76500000Y-72000000D03*
X79750000Y-73000000D03*
G04 #@! TO.N,/DO4*
X78150000Y-41200000D03*
X74350000Y-78050000D03*
G04 #@! TO.N,/B1*
X68050000Y-56450000D03*
D23*
G04 #@! TO.N,/OUT7*
X99150000Y-60800000D03*
G04 #@! TO.N,/OUT3*
X99100000Y-37750000D03*
G04 #@! TO.N,/OUT4*
X92750000Y-74400000D03*
G04 #@! TD*
D24*
G04 #@! TO.N,/NRST*
X74400000Y-70800000D02*
X73750000Y-71450000D01*
X74400000Y-65990000D02*
X74400000Y-70800000D01*
X74400000Y-65990000D02*
X77310000Y-65990000D01*
X77310000Y-65990000D02*
X77350000Y-65950000D01*
X74125000Y-51825000D02*
X75550000Y-51825000D01*
X73600000Y-52350000D02*
X74125000Y-51825000D01*
G04 #@! TO.N,+BATT*
X69650000Y-51175000D02*
X72350000Y-51175000D01*
X72350000Y-51175000D02*
X75550000Y-51175000D01*
X66700000Y-49400000D02*
X67500000Y-50200000D01*
X65800000Y-49400000D02*
X66700000Y-49400000D01*
X67500000Y-50200000D02*
X67500000Y-50550000D01*
X68125000Y-51175000D02*
X69650000Y-51175000D01*
X67500000Y-50550000D02*
X68125000Y-51175000D01*
X77475000Y-52150000D02*
X77350000Y-52025000D01*
X78350000Y-52150000D02*
X77475000Y-52150000D01*
X77350000Y-52025000D02*
X77350000Y-51550000D01*
X76975000Y-51175000D02*
X75550000Y-51175000D01*
X77350000Y-51550000D02*
X76975000Y-51175000D01*
X66750000Y-57650000D02*
X67900000Y-58800000D01*
X65850000Y-57650000D02*
X66750000Y-57650000D01*
X67900000Y-58800000D02*
X69300000Y-58800000D01*
X70500000Y-60000000D02*
X70500000Y-60910000D01*
X69300000Y-58800000D02*
X70500000Y-60000000D01*
X70500000Y-60910000D02*
X65860000Y-60910000D01*
X65500000Y-61270000D02*
X65500000Y-62450000D01*
X65860000Y-60910000D02*
X65500000Y-61270000D01*
X70050000Y-71450000D02*
X68000000Y-69400000D01*
X71050000Y-71450000D02*
X70050000Y-71450000D01*
X68000000Y-69400000D02*
X66450000Y-69400000D01*
X66450000Y-69400000D02*
X63750000Y-66700000D01*
X63750000Y-66700000D02*
X63750000Y-63150000D01*
X64450000Y-62450000D02*
X65500000Y-62450000D01*
X63750000Y-63150000D02*
X64450000Y-62450000D01*
X70190001Y-39799999D02*
X70190001Y-41759999D01*
X71040000Y-38950000D02*
X70190001Y-39799999D01*
X65800000Y-46150000D02*
X65800000Y-49400000D01*
X70190001Y-41759999D02*
X65800000Y-46150000D01*
X64850000Y-49400000D02*
X65800000Y-49400000D01*
X62600000Y-51650000D02*
X64850000Y-49400000D01*
X62600000Y-55550000D02*
X62600000Y-51650000D01*
X65850000Y-57650000D02*
X64700000Y-57650000D01*
X64700000Y-57650000D02*
X62600000Y-55550000D01*
G04 #@! TO.N,-BATT*
X65500000Y-64950000D02*
X66375000Y-64950000D01*
X88135000Y-54540000D02*
X89350000Y-53325000D01*
X87135000Y-54540000D02*
X88135000Y-54540000D01*
X89350000Y-40550000D02*
X88500000Y-39700000D01*
X88135000Y-39300000D02*
X87135000Y-39300000D01*
X88500000Y-39665000D02*
X88135000Y-39300000D01*
X88500000Y-39700000D02*
X88500000Y-39665000D01*
X89290000Y-49460000D02*
X89350000Y-49400000D01*
X87135000Y-49460000D02*
X89290000Y-49460000D01*
X89350000Y-53325000D02*
X89350000Y-49400000D01*
X88155000Y-44400000D02*
X89350000Y-44400000D01*
X88135000Y-44380000D02*
X88155000Y-44400000D01*
X87135000Y-44380000D02*
X88135000Y-44380000D01*
X89350000Y-49400000D02*
X89350000Y-44400000D01*
X89350000Y-44400000D02*
X89350000Y-40550000D01*
X89340000Y-77840000D02*
X87135000Y-77840000D01*
X89350000Y-77850000D02*
X89340000Y-77840000D01*
X88135000Y-72760000D02*
X88245000Y-72650000D01*
X87135000Y-72760000D02*
X88135000Y-72760000D01*
X89310000Y-72760000D02*
X89350000Y-72800000D01*
X87135000Y-72760000D02*
X89310000Y-72760000D01*
X88135000Y-67680000D02*
X88215000Y-67600000D01*
X87135000Y-67680000D02*
X88135000Y-67680000D01*
X89320000Y-67680000D02*
X89350000Y-67650000D01*
X87135000Y-67680000D02*
X89320000Y-67680000D01*
X89350000Y-67650000D02*
X89350000Y-72800000D01*
X78350000Y-54650000D02*
X79250000Y-54650000D01*
X79250000Y-54650000D02*
X80250000Y-55650000D01*
X71875000Y-50525000D02*
X69650000Y-50525000D01*
X72000000Y-50400000D02*
X71875000Y-50525000D01*
X80649999Y-56049999D02*
X81049999Y-56049999D01*
X80250000Y-55650000D02*
X80649999Y-56049999D01*
X82250000Y-57250000D02*
X89350000Y-57250000D01*
X81049999Y-56049999D02*
X82250000Y-57250000D01*
X89350000Y-53325000D02*
X89350000Y-57250000D01*
X70500000Y-63450000D02*
X70500000Y-62180000D01*
X71950000Y-63450000D02*
X72450000Y-63950000D01*
X70500000Y-63450000D02*
X71950000Y-63450000D01*
X71950000Y-65990000D02*
X70500000Y-65990000D01*
X72450000Y-65490000D02*
X71950000Y-65990000D01*
X72450000Y-63950000D02*
X72450000Y-65490000D01*
X68010000Y-64950000D02*
X65500000Y-64950000D01*
X70500000Y-65990000D02*
X69050000Y-65990000D01*
X69050000Y-65990000D02*
X68010000Y-64950000D01*
X72190000Y-68300000D02*
X73150000Y-68300000D01*
X70500000Y-65990000D02*
X70500000Y-66610000D01*
X70500000Y-66610000D02*
X72190000Y-68300000D01*
X78400000Y-60200000D02*
X78400000Y-62050000D01*
X78400000Y-62050000D02*
X78000000Y-62450000D01*
X85500000Y-30900000D02*
X85600000Y-30900000D01*
X89350000Y-33750000D02*
X89350000Y-40550000D01*
X86500000Y-30900000D02*
X89350000Y-33750000D01*
X85500000Y-30900000D02*
X86500000Y-30900000D01*
X87135000Y-77980000D02*
X87135000Y-77840000D01*
X83450000Y-81665000D02*
X87135000Y-77980000D01*
X83450000Y-82650000D02*
X83450000Y-81665000D01*
X81350000Y-84750000D02*
X83450000Y-82650000D01*
X79600000Y-84750000D02*
X81350000Y-84750000D01*
X89350000Y-82218680D02*
X89350000Y-77650000D01*
X89760000Y-82628680D02*
X89350000Y-82218680D01*
X89760000Y-84750000D02*
X89760000Y-82628680D01*
X89350000Y-72800000D02*
X89350000Y-77650000D01*
X89350000Y-77650000D02*
X89350000Y-77850000D01*
X88135000Y-62600000D02*
X89350000Y-62600000D01*
X87135000Y-62600000D02*
X88135000Y-62600000D01*
X89350000Y-57250000D02*
X89350000Y-62600000D01*
X89350000Y-62600000D02*
X89350000Y-67650000D01*
G04 #@! TO.N,Net-(R1-Pad2)*
X75550000Y-55550000D02*
X75550000Y-53775000D01*
X78400000Y-57500000D02*
X77500000Y-57500000D01*
X77500000Y-57500000D02*
X75550000Y-55550000D01*
G04 #@! TO.N,/B0*
X65800000Y-52100000D02*
X67150000Y-52100000D01*
X68675000Y-51825000D02*
X69650000Y-51825000D01*
X67425000Y-51825000D02*
X68675000Y-51825000D01*
X67150000Y-52100000D02*
X67425000Y-51825000D01*
X65800000Y-52100000D02*
X64900000Y-52100000D01*
X63625010Y-53374990D02*
X63625010Y-53400000D01*
X64900000Y-52100000D02*
X63625010Y-53374990D01*
G04 #@! TO.N,Net-(D1-Pad1)*
X82800000Y-24950000D02*
X83050000Y-24700000D01*
X82800000Y-30900000D02*
X82800000Y-24950000D01*
G04 #@! TO.N,/DO3*
X76525000Y-48575000D02*
X75550000Y-48575000D01*
X77277999Y-45322001D02*
X77277999Y-47822001D01*
X77277999Y-47822001D02*
X76525000Y-48575000D01*
X83050000Y-39550000D02*
X77277999Y-45322001D01*
X83050000Y-39450000D02*
X83050000Y-39550000D01*
G04 #@! TO.N,Net-(R6-Pad1)*
X87125000Y-36750000D02*
X87135000Y-36760000D01*
X83050000Y-36750000D02*
X87125000Y-36750000D01*
G04 #@! TO.N,Net-(R7-Pad1)*
X87125000Y-41850000D02*
X87135000Y-41840000D01*
X83050000Y-41850000D02*
X87125000Y-41850000D01*
G04 #@! TO.N,/DO1*
X83050000Y-44550000D02*
X83050000Y-44650000D01*
X83050000Y-44650000D02*
X80600000Y-47100000D01*
X77627998Y-49875000D02*
X76525000Y-49875000D01*
X76525000Y-49875000D02*
X75550000Y-49875000D01*
X77727999Y-49975001D02*
X77627998Y-49875000D01*
X78472001Y-49975001D02*
X77727999Y-49975001D01*
X80600000Y-47100000D02*
X80600000Y-47847002D01*
X80600000Y-47847002D02*
X78472001Y-49975001D01*
G04 #@! TO.N,/DO2*
X83050000Y-49650000D02*
X80950000Y-49650000D01*
X80950000Y-49650000D02*
X80850000Y-49750000D01*
X77525000Y-49225000D02*
X75550000Y-49225000D01*
X77650000Y-49100000D02*
X77525000Y-49225000D01*
G04 #@! TO.N,Net-(R8-Pad1)*
X87105000Y-46950000D02*
X87135000Y-46920000D01*
X83050000Y-46950000D02*
X87105000Y-46950000D01*
G04 #@! TO.N,Net-(R10-Pad1)*
X87095000Y-60100000D02*
X87135000Y-60060000D01*
X83050000Y-60100000D02*
X87095000Y-60100000D01*
G04 #@! TO.N,/DO7*
X83050000Y-62800000D02*
X81200000Y-62800000D01*
X81200000Y-62800000D02*
X80800000Y-63200000D01*
X67975000Y-49225000D02*
X68675000Y-49225000D01*
X68675000Y-49225000D02*
X69650000Y-49225000D01*
X67124998Y-48374998D02*
X67975000Y-49225000D01*
X67124998Y-46909317D02*
X67124998Y-48374998D01*
X71834315Y-42200000D02*
X67124998Y-46909317D01*
X72400000Y-42200000D02*
X71834315Y-42200000D01*
G04 #@! TO.N,/DO5*
X82150000Y-67850000D02*
X76250000Y-73750000D01*
X83050000Y-67850000D02*
X82150000Y-67850000D01*
X76250000Y-73750000D02*
X67300000Y-73750000D01*
X67300000Y-73750000D02*
X61700000Y-68150000D01*
X61700000Y-68150000D02*
X61700000Y-48000000D01*
X61700000Y-48000000D02*
X63850000Y-45850000D01*
X69250000Y-47525000D02*
X69650000Y-47925000D01*
X69250000Y-46050000D02*
X69250000Y-47525000D01*
G04 #@! TO.N,Net-(R11-Pad1)*
X87125000Y-65150000D02*
X87135000Y-65140000D01*
X83050000Y-65150000D02*
X87125000Y-65150000D01*
G04 #@! TO.N,Net-(R12-Pad1)*
X87115000Y-70200000D02*
X87135000Y-70220000D01*
X83050000Y-70200000D02*
X87115000Y-70200000D01*
G04 #@! TO.N,/DO6*
X68549999Y-48299999D02*
X67900000Y-47650000D01*
X68549999Y-48449999D02*
X68549999Y-48299999D01*
X68675000Y-48575000D02*
X68549999Y-48449999D01*
X69650000Y-48575000D02*
X68675000Y-48575000D01*
X65050000Y-70365685D02*
X67684315Y-73000000D01*
X65050000Y-69800000D02*
X65050000Y-70365685D01*
X67684315Y-73000000D02*
X75500000Y-73000000D01*
X75500000Y-73000000D02*
X76500000Y-72000000D01*
X82950000Y-73000000D02*
X83050000Y-72900000D01*
X79750000Y-73000000D02*
X82950000Y-73000000D01*
G04 #@! TO.N,/DO4*
X75550000Y-47925000D02*
X75550000Y-43800000D01*
X75550000Y-43800000D02*
X78150000Y-41200000D01*
X82850000Y-78250000D02*
X83050000Y-78050000D01*
X74350000Y-78050000D02*
X83050000Y-78050000D01*
G04 #@! TO.N,Net-(R13-Pad1)*
X87085000Y-75350000D02*
X87135000Y-75300000D01*
X83050000Y-75350000D02*
X87085000Y-75350000D01*
G04 #@! TO.N,Net-(R9-Pad1)*
X83050000Y-52000000D02*
X87135000Y-52000000D01*
G04 #@! TO.N,/DO0*
X82150000Y-54700000D02*
X80550000Y-53100000D01*
X83050000Y-54700000D02*
X82150000Y-54700000D01*
X80550000Y-53100000D02*
X80550000Y-51550000D01*
X79525000Y-50525000D02*
X75550000Y-50525000D01*
X80550000Y-51550000D02*
X79525000Y-50525000D01*
G04 #@! TO.N,/B1*
X66750000Y-54950000D02*
X67300000Y-54400000D01*
X65850000Y-54950000D02*
X66750000Y-54950000D01*
X67300000Y-54400000D02*
X67300000Y-53150000D01*
X67975000Y-52475000D02*
X69650000Y-52475000D01*
X67300000Y-53150000D02*
X67975000Y-52475000D01*
X67250000Y-56450000D02*
X68050000Y-56450000D01*
X65850000Y-54950000D02*
X65850000Y-55050000D01*
X65850000Y-55050000D02*
X67250000Y-56450000D01*
G04 #@! TO.N,Net-(D1-Pad2)*
X70625000Y-49875000D02*
X69650000Y-49875000D01*
X71350000Y-49150000D02*
X70625000Y-49875000D01*
X71350000Y-45950000D02*
X71350000Y-49150000D01*
X85590000Y-23427208D02*
X84812792Y-22650000D01*
X85590000Y-24700000D02*
X85590000Y-23427208D01*
X84812792Y-22650000D02*
X80900000Y-22650000D01*
X80900000Y-22650000D02*
X78500000Y-25050000D01*
X78500000Y-25050000D02*
X78500000Y-38800000D01*
X78500000Y-38800000D02*
X71350000Y-45950000D01*
D25*
G04 #@! TO.N,/GND_O*
X97815000Y-77840000D02*
X98800000Y-76855000D01*
X96665000Y-77840000D02*
X97815000Y-77840000D01*
X97860000Y-72760000D02*
X96665000Y-72760000D01*
X98800000Y-73700000D02*
X97860000Y-72760000D01*
X95515000Y-72760000D02*
X94150000Y-71395000D01*
X96665000Y-72760000D02*
X95515000Y-72760000D01*
X95300000Y-62600000D02*
X96665000Y-62600000D01*
X94150000Y-63750000D02*
X95300000Y-62600000D01*
X95335000Y-67500000D02*
X94150000Y-67500000D01*
X95515000Y-67680000D02*
X95335000Y-67500000D01*
X96665000Y-67680000D02*
X95515000Y-67680000D01*
X94150000Y-71395000D02*
X94150000Y-67500000D01*
X94150000Y-67500000D02*
X94150000Y-63750000D01*
X97815000Y-54540000D02*
X99000000Y-53355000D01*
X96665000Y-54540000D02*
X97815000Y-54540000D01*
X99000000Y-53355000D02*
X99000000Y-49850000D01*
X98610000Y-49460000D02*
X96665000Y-49460000D01*
X99000000Y-49850000D02*
X98610000Y-49460000D01*
X95515000Y-49460000D02*
X94250000Y-48195000D01*
X96665000Y-49460000D02*
X95515000Y-49460000D01*
X94250000Y-46935000D02*
X94150000Y-46835000D01*
X94250000Y-48195000D02*
X94250000Y-46935000D01*
X94900000Y-39300000D02*
X96665000Y-39300000D01*
X94150000Y-40050000D02*
X94900000Y-39300000D01*
X94150000Y-46835000D02*
X94150000Y-44250000D01*
X95385000Y-44250000D02*
X94150000Y-44250000D01*
X95515000Y-44380000D02*
X95385000Y-44250000D01*
X96665000Y-44380000D02*
X95515000Y-44380000D01*
X94150000Y-44250000D02*
X94150000Y-40050000D01*
X102220000Y-76600000D02*
X98800000Y-76600000D01*
X102500000Y-76320000D02*
X102220000Y-76600000D01*
X104400000Y-76320000D02*
X102500000Y-76320000D01*
X98800000Y-76855000D02*
X98800000Y-76600000D01*
X98800000Y-76600000D02*
X98800000Y-73700000D01*
X94150000Y-63750000D02*
X94150000Y-55650000D01*
X95260000Y-54540000D02*
X96665000Y-54540000D01*
X94150000Y-55650000D02*
X95260000Y-54540000D01*
G04 #@! TO.N,/OUT7*
X97405000Y-60800000D02*
X96665000Y-60060000D01*
X99150000Y-60800000D02*
X97405000Y-60800000D01*
G04 #@! TO.N,/OUT6*
X102900001Y-67659999D02*
X101090001Y-67659999D01*
X104400000Y-66160000D02*
X102900001Y-67659999D01*
X98530000Y-70220000D02*
X96665000Y-70220000D01*
X101090001Y-67659999D02*
X98530000Y-70220000D01*
G04 #@! TO.N,/OUT3*
X97655000Y-37750000D02*
X96665000Y-36760000D01*
X99100000Y-37750000D02*
X97655000Y-37750000D01*
G04 #@! TO.N,/OUT4*
X93650000Y-75300000D02*
X96665000Y-75300000D01*
X92750000Y-74400000D02*
X93650000Y-75300000D01*
G04 #@! TO.N,/OUT5*
X102550000Y-60350000D02*
X99300000Y-63600000D01*
X104450000Y-60350000D02*
X102550000Y-60350000D01*
X97815000Y-65140000D02*
X96665000Y-65140000D01*
X99300000Y-63655000D02*
X97815000Y-65140000D01*
X99300000Y-63600000D02*
X99300000Y-63655000D01*
G04 #@! TO.N,/OUT2*
X96665000Y-46780000D02*
X96665000Y-46920000D01*
X99065000Y-44380000D02*
X96665000Y-46780000D01*
X104400000Y-44380000D02*
X99065000Y-44380000D01*
G04 #@! TO.N,/OUT1*
X101860000Y-41840000D02*
X96665000Y-41840000D01*
X104400000Y-39300000D02*
X101860000Y-41840000D01*
G04 #@! TO.N,/OUT0*
X104400000Y-34220000D02*
X93730000Y-34220000D01*
X93730000Y-34220000D02*
X92850000Y-35100000D01*
X92850000Y-35100000D02*
X92850000Y-50150000D01*
X94700000Y-52000000D02*
X96665000Y-52000000D01*
X92850000Y-50150000D02*
X94700000Y-52000000D01*
D24*
G04 #@! TO.N,/SWDCLK*
X72950000Y-62180000D02*
X72350000Y-61580000D01*
X74400000Y-62180000D02*
X72950000Y-62180000D01*
X72350000Y-61580000D02*
X72350000Y-57950000D01*
X69650000Y-55250000D02*
X69650000Y-53775000D01*
X72350000Y-57950000D02*
X69650000Y-55250000D01*
G04 #@! TO.N,/SWDIO*
X74400000Y-60910000D02*
X74400000Y-56900000D01*
X70625000Y-53125000D02*
X69650000Y-53125000D01*
X74400000Y-56900000D02*
X70625000Y-53125000D01*
G04 #@! TD*
D26*
G04 #@! TO.N,/GND_O*
G36*
X109290000Y-89290000D02*
X60710000Y-89290000D01*
X60710000Y-84479872D01*
X62765000Y-84479872D01*
X62765000Y-84920128D01*
X62850890Y-85351925D01*
X63019369Y-85758669D01*
X63263962Y-86124729D01*
X63575271Y-86436038D01*
X63941331Y-86680631D01*
X64348075Y-86849110D01*
X64779872Y-86935000D01*
X65220128Y-86935000D01*
X65651925Y-86849110D01*
X66058669Y-86680631D01*
X66424729Y-86436038D01*
X66736038Y-86124729D01*
X66980631Y-85758669D01*
X67149110Y-85351925D01*
X67235000Y-84920128D01*
X67235000Y-84479872D01*
X67149110Y-84048075D01*
X66980631Y-83641331D01*
X66736038Y-83275271D01*
X66424729Y-82963962D01*
X66058669Y-82719369D01*
X65651925Y-82550890D01*
X65220128Y-82465000D01*
X64779872Y-82465000D01*
X64348075Y-82550890D01*
X63941331Y-82719369D01*
X63575271Y-82963962D01*
X63263962Y-83275271D01*
X63019369Y-83641331D01*
X62850890Y-84048075D01*
X62765000Y-84479872D01*
X60710000Y-84479872D01*
X60710000Y-48000000D01*
X60936324Y-48000000D01*
X60940001Y-48037333D01*
X60940000Y-68112678D01*
X60936324Y-68150000D01*
X60940000Y-68187322D01*
X60940000Y-68187332D01*
X60950997Y-68298985D01*
X60969810Y-68361003D01*
X60994454Y-68442246D01*
X61065026Y-68574276D01*
X61087695Y-68601898D01*
X61159999Y-68690001D01*
X61189003Y-68713804D01*
X66736201Y-74261003D01*
X66759999Y-74290001D01*
X66788997Y-74313799D01*
X66875723Y-74384974D01*
X67007753Y-74455546D01*
X67151014Y-74499003D01*
X67262667Y-74510000D01*
X67262677Y-74510000D01*
X67300000Y-74513676D01*
X67337323Y-74510000D01*
X76212678Y-74510000D01*
X76250000Y-74513676D01*
X76287322Y-74510000D01*
X76287333Y-74510000D01*
X76398986Y-74499003D01*
X76542247Y-74455546D01*
X76674276Y-74384974D01*
X76790001Y-74290001D01*
X76813804Y-74260997D01*
X81785032Y-69289770D01*
X81774188Y-69325518D01*
X81761928Y-69450000D01*
X81761928Y-70950000D01*
X81774188Y-71074482D01*
X81810498Y-71194180D01*
X81869463Y-71304494D01*
X81948815Y-71401185D01*
X82045506Y-71480537D01*
X82155820Y-71539502D01*
X82190427Y-71550000D01*
X82155820Y-71560498D01*
X82045506Y-71619463D01*
X81948815Y-71698815D01*
X81869463Y-71795506D01*
X81810498Y-71905820D01*
X81774188Y-72025518D01*
X81761928Y-72150000D01*
X81761928Y-72240000D01*
X80453711Y-72240000D01*
X80409774Y-72196063D01*
X80240256Y-72082795D01*
X80051898Y-72004774D01*
X79851939Y-71965000D01*
X79648061Y-71965000D01*
X79448102Y-72004774D01*
X79259744Y-72082795D01*
X79090226Y-72196063D01*
X78946063Y-72340226D01*
X78832795Y-72509744D01*
X78754774Y-72698102D01*
X78715000Y-72898061D01*
X78715000Y-73101939D01*
X78754774Y-73301898D01*
X78832795Y-73490256D01*
X78946063Y-73659774D01*
X79090226Y-73803937D01*
X79259744Y-73917205D01*
X79448102Y-73995226D01*
X79648061Y-74035000D01*
X79851939Y-74035000D01*
X80051898Y-73995226D01*
X80240256Y-73917205D01*
X80409774Y-73803937D01*
X80453711Y-73760000D01*
X81772762Y-73760000D01*
X81774188Y-73774482D01*
X81810498Y-73894180D01*
X81869463Y-74004494D01*
X81948815Y-74101185D01*
X81977834Y-74125000D01*
X81948815Y-74148815D01*
X81869463Y-74245506D01*
X81810498Y-74355820D01*
X81774188Y-74475518D01*
X81761928Y-74600000D01*
X81761928Y-76100000D01*
X81774188Y-76224482D01*
X81810498Y-76344180D01*
X81869463Y-76454494D01*
X81948815Y-76551185D01*
X82045506Y-76630537D01*
X82155820Y-76689502D01*
X82190427Y-76700000D01*
X82155820Y-76710498D01*
X82045506Y-76769463D01*
X81948815Y-76848815D01*
X81869463Y-76945506D01*
X81810498Y-77055820D01*
X81774188Y-77175518D01*
X81762913Y-77290000D01*
X75053711Y-77290000D01*
X75009774Y-77246063D01*
X74840256Y-77132795D01*
X74651898Y-77054774D01*
X74451939Y-77015000D01*
X74248061Y-77015000D01*
X74048102Y-77054774D01*
X73859744Y-77132795D01*
X73690226Y-77246063D01*
X73546063Y-77390226D01*
X73432795Y-77559744D01*
X73354774Y-77748102D01*
X73315000Y-77948061D01*
X73315000Y-78151939D01*
X73354774Y-78351898D01*
X73432795Y-78540256D01*
X73546063Y-78709774D01*
X73690226Y-78853937D01*
X73859744Y-78967205D01*
X74048102Y-79045226D01*
X74248061Y-79085000D01*
X74451939Y-79085000D01*
X74651898Y-79045226D01*
X74840256Y-78967205D01*
X75009774Y-78853937D01*
X75053711Y-78810000D01*
X81762913Y-78810000D01*
X81774188Y-78924482D01*
X81810498Y-79044180D01*
X81869463Y-79154494D01*
X81948815Y-79251185D01*
X82045506Y-79330537D01*
X82155820Y-79389502D01*
X82275518Y-79425812D01*
X82400000Y-79438072D01*
X83700000Y-79438072D01*
X83824482Y-79425812D01*
X83944180Y-79389502D01*
X84054494Y-79330537D01*
X84151185Y-79251185D01*
X84230537Y-79154494D01*
X84289502Y-79044180D01*
X84325812Y-78924482D01*
X84338072Y-78800000D01*
X84338072Y-77300000D01*
X84325812Y-77175518D01*
X84289502Y-77055820D01*
X84230537Y-76945506D01*
X84151185Y-76848815D01*
X84054494Y-76769463D01*
X83944180Y-76710498D01*
X83909573Y-76700000D01*
X83944180Y-76689502D01*
X84054494Y-76630537D01*
X84151185Y-76551185D01*
X84230537Y-76454494D01*
X84289502Y-76344180D01*
X84325812Y-76224482D01*
X84337087Y-76110000D01*
X85746928Y-76110000D01*
X85746928Y-76190000D01*
X85759188Y-76314482D01*
X85795498Y-76434180D01*
X85854463Y-76544494D01*
X85875395Y-76570000D01*
X85854463Y-76595506D01*
X85795498Y-76705820D01*
X85759188Y-76825518D01*
X85746928Y-76950000D01*
X85746928Y-78293270D01*
X82938998Y-81101201D01*
X82910000Y-81124999D01*
X82886202Y-81153997D01*
X82886201Y-81153998D01*
X82815026Y-81240724D01*
X82744454Y-81372754D01*
X82700998Y-81516015D01*
X82686324Y-81665000D01*
X82690001Y-81702332D01*
X82690000Y-82335197D01*
X81738072Y-83287126D01*
X81738072Y-83250000D01*
X81725812Y-83125518D01*
X81689502Y-83005820D01*
X81630537Y-82895506D01*
X81551185Y-82798815D01*
X81454494Y-82719463D01*
X81344180Y-82660498D01*
X81224482Y-82624188D01*
X81100000Y-82611928D01*
X78100000Y-82611928D01*
X77975518Y-82624188D01*
X77855820Y-82660498D01*
X77745506Y-82719463D01*
X77648815Y-82798815D01*
X77569463Y-82895506D01*
X77510498Y-83005820D01*
X77474188Y-83125518D01*
X77461928Y-83250000D01*
X77461928Y-86250000D01*
X77474188Y-86374482D01*
X77510498Y-86494180D01*
X77569463Y-86604494D01*
X77648815Y-86701185D01*
X77745506Y-86780537D01*
X77855820Y-86839502D01*
X77975518Y-86875812D01*
X78100000Y-86888072D01*
X81100000Y-86888072D01*
X81224482Y-86875812D01*
X81344180Y-86839502D01*
X81454494Y-86780537D01*
X81551185Y-86701185D01*
X81630537Y-86604494D01*
X81689502Y-86494180D01*
X81725812Y-86374482D01*
X81738072Y-86250000D01*
X81738072Y-85404326D01*
X81774276Y-85384974D01*
X81890001Y-85290001D01*
X81913804Y-85260998D01*
X82545000Y-84629802D01*
X82545000Y-84960279D01*
X82627047Y-85372756D01*
X82787988Y-85761302D01*
X83021637Y-86110983D01*
X83319017Y-86408363D01*
X83668698Y-86642012D01*
X84057244Y-86802953D01*
X84469721Y-86885000D01*
X84890279Y-86885000D01*
X85302756Y-86802953D01*
X85691302Y-86642012D01*
X86040983Y-86408363D01*
X86338363Y-86110983D01*
X86572012Y-85761302D01*
X86732953Y-85372756D01*
X86815000Y-84960279D01*
X86815000Y-84539721D01*
X86732953Y-84127244D01*
X86572012Y-83738698D01*
X86338363Y-83389017D01*
X86040983Y-83091637D01*
X85691302Y-82857988D01*
X85302756Y-82697047D01*
X84890279Y-82615000D01*
X84469721Y-82615000D01*
X84212076Y-82666249D01*
X84213676Y-82650001D01*
X84210000Y-82612678D01*
X84210000Y-81979801D01*
X86821730Y-79368072D01*
X87885000Y-79368072D01*
X88009482Y-79355812D01*
X88129180Y-79319502D01*
X88239494Y-79260537D01*
X88336185Y-79181185D01*
X88415537Y-79084494D01*
X88474502Y-78974180D01*
X88510812Y-78854482D01*
X88523072Y-78730000D01*
X88523072Y-78600000D01*
X88590001Y-78600000D01*
X88590000Y-82181357D01*
X88586324Y-82218680D01*
X88590000Y-82256002D01*
X88590000Y-82256012D01*
X88600997Y-82367665D01*
X88630523Y-82465000D01*
X88644454Y-82510926D01*
X88715026Y-82642956D01*
X88720808Y-82650001D01*
X88809999Y-82758681D01*
X88839003Y-82782484D01*
X88865943Y-82809424D01*
X88748698Y-82857988D01*
X88399017Y-83091637D01*
X88101637Y-83389017D01*
X87867988Y-83738698D01*
X87707047Y-84127244D01*
X87625000Y-84539721D01*
X87625000Y-84960279D01*
X87707047Y-85372756D01*
X87867988Y-85761302D01*
X88101637Y-86110983D01*
X88399017Y-86408363D01*
X88748698Y-86642012D01*
X89137244Y-86802953D01*
X89549721Y-86885000D01*
X89970279Y-86885000D01*
X90382756Y-86802953D01*
X90771302Y-86642012D01*
X91120983Y-86408363D01*
X91418363Y-86110983D01*
X91652012Y-85761302D01*
X91812953Y-85372756D01*
X91895000Y-84960279D01*
X91895000Y-84539721D01*
X92705000Y-84539721D01*
X92705000Y-84960279D01*
X92787047Y-85372756D01*
X92947988Y-85761302D01*
X93181637Y-86110983D01*
X93479017Y-86408363D01*
X93828698Y-86642012D01*
X94217244Y-86802953D01*
X94629721Y-86885000D01*
X95050279Y-86885000D01*
X95462756Y-86802953D01*
X95851302Y-86642012D01*
X96200983Y-86408363D01*
X96498363Y-86110983D01*
X96732012Y-85761302D01*
X96892953Y-85372756D01*
X96975000Y-84960279D01*
X96975000Y-84539721D01*
X96963096Y-84479872D01*
X102165000Y-84479872D01*
X102165000Y-84920128D01*
X102250890Y-85351925D01*
X102419369Y-85758669D01*
X102663962Y-86124729D01*
X102975271Y-86436038D01*
X103341331Y-86680631D01*
X103748075Y-86849110D01*
X104179872Y-86935000D01*
X104620128Y-86935000D01*
X105051925Y-86849110D01*
X105458669Y-86680631D01*
X105824729Y-86436038D01*
X106136038Y-86124729D01*
X106380631Y-85758669D01*
X106549110Y-85351925D01*
X106635000Y-84920128D01*
X106635000Y-84479872D01*
X106549110Y-84048075D01*
X106380631Y-83641331D01*
X106136038Y-83275271D01*
X105824729Y-82963962D01*
X105458669Y-82719369D01*
X105051925Y-82550890D01*
X104620128Y-82465000D01*
X104179872Y-82465000D01*
X103748075Y-82550890D01*
X103341331Y-82719369D01*
X102975271Y-82963962D01*
X102663962Y-83275271D01*
X102419369Y-83641331D01*
X102250890Y-84048075D01*
X102165000Y-84479872D01*
X96963096Y-84479872D01*
X96892953Y-84127244D01*
X96732012Y-83738698D01*
X96498363Y-83389017D01*
X96200983Y-83091637D01*
X95851302Y-82857988D01*
X95462756Y-82697047D01*
X95050279Y-82615000D01*
X94629721Y-82615000D01*
X94217244Y-82697047D01*
X93828698Y-82857988D01*
X93479017Y-83091637D01*
X93181637Y-83389017D01*
X92947988Y-83738698D01*
X92787047Y-84127244D01*
X92705000Y-84539721D01*
X91895000Y-84539721D01*
X91812953Y-84127244D01*
X91652012Y-83738698D01*
X91418363Y-83389017D01*
X91120983Y-83091637D01*
X90771302Y-82857988D01*
X90520000Y-82753895D01*
X90520000Y-82666013D01*
X90523677Y-82628680D01*
X90509003Y-82479694D01*
X90465546Y-82336433D01*
X90422559Y-82256012D01*
X90394974Y-82204404D01*
X90300001Y-82088679D01*
X90270997Y-82064876D01*
X90110000Y-81903879D01*
X90110000Y-78125750D01*
X95280000Y-78125750D01*
X95280000Y-78792542D01*
X95304403Y-78915223D01*
X95352270Y-79030785D01*
X95421763Y-79134789D01*
X95510211Y-79223237D01*
X95614215Y-79292730D01*
X95729777Y-79340597D01*
X95852458Y-79365000D01*
X96379250Y-79365000D01*
X96538000Y-79206250D01*
X96538000Y-77967000D01*
X96792000Y-77967000D01*
X96792000Y-79206250D01*
X96950750Y-79365000D01*
X97477542Y-79365000D01*
X97600223Y-79340597D01*
X97715785Y-79292730D01*
X97819789Y-79223237D01*
X97908237Y-79134789D01*
X97977730Y-79030785D01*
X98025597Y-78915223D01*
X98050000Y-78792542D01*
X98050000Y-78125750D01*
X97891250Y-77967000D01*
X96792000Y-77967000D01*
X96538000Y-77967000D01*
X95438750Y-77967000D01*
X95280000Y-78125750D01*
X90110000Y-78125750D01*
X90110000Y-77887322D01*
X90113676Y-77849999D01*
X90110000Y-77812677D01*
X90110000Y-74290675D01*
X91640000Y-74290675D01*
X91640000Y-74509325D01*
X91682657Y-74723775D01*
X91766331Y-74925782D01*
X91887807Y-75107584D01*
X92042416Y-75262193D01*
X92224218Y-75383669D01*
X92426225Y-75467343D01*
X92640675Y-75510000D01*
X92679132Y-75510000D01*
X93030558Y-75861426D01*
X93056709Y-75893291D01*
X93183854Y-75997636D01*
X93328913Y-76075172D01*
X93486311Y-76122918D01*
X93608981Y-76135000D01*
X93608983Y-76135000D01*
X93649999Y-76139040D01*
X93691015Y-76135000D01*
X95276928Y-76135000D01*
X95276928Y-76190000D01*
X95289188Y-76314482D01*
X95325498Y-76434180D01*
X95384463Y-76544494D01*
X95405287Y-76569869D01*
X95352270Y-76649215D01*
X95304403Y-76764777D01*
X95280000Y-76887458D01*
X95280000Y-77554250D01*
X95438750Y-77713000D01*
X96538000Y-77713000D01*
X96538000Y-77693000D01*
X96792000Y-77693000D01*
X96792000Y-77713000D01*
X97891250Y-77713000D01*
X98050000Y-77554250D01*
X98050000Y-76887458D01*
X98025597Y-76764777D01*
X97977730Y-76649215D01*
X97948688Y-76605750D01*
X102265000Y-76605750D01*
X102265000Y-77882542D01*
X102289403Y-78005223D01*
X102337270Y-78120785D01*
X102406763Y-78224789D01*
X102495211Y-78313237D01*
X102599215Y-78382730D01*
X102714777Y-78430597D01*
X102837458Y-78455000D01*
X104114250Y-78455000D01*
X104273000Y-78296250D01*
X104273000Y-76447000D01*
X104527000Y-76447000D01*
X104527000Y-78296250D01*
X104685750Y-78455000D01*
X105962542Y-78455000D01*
X106085223Y-78430597D01*
X106200785Y-78382730D01*
X106304789Y-78313237D01*
X106393237Y-78224789D01*
X106462730Y-78120785D01*
X106510597Y-78005223D01*
X106535000Y-77882542D01*
X106535000Y-76605750D01*
X106376250Y-76447000D01*
X104527000Y-76447000D01*
X104273000Y-76447000D01*
X102423750Y-76447000D01*
X102265000Y-76605750D01*
X97948688Y-76605750D01*
X97924713Y-76569869D01*
X97945537Y-76544494D01*
X98004502Y-76434180D01*
X98040812Y-76314482D01*
X98053072Y-76190000D01*
X98053072Y-74757458D01*
X102265000Y-74757458D01*
X102265000Y-76034250D01*
X102423750Y-76193000D01*
X104273000Y-76193000D01*
X104273000Y-74343750D01*
X104527000Y-74343750D01*
X104527000Y-76193000D01*
X106376250Y-76193000D01*
X106535000Y-76034250D01*
X106535000Y-74757458D01*
X106510597Y-74634777D01*
X106462730Y-74519215D01*
X106393237Y-74415211D01*
X106304789Y-74326763D01*
X106200785Y-74257270D01*
X106085223Y-74209403D01*
X105962542Y-74185000D01*
X104685750Y-74185000D01*
X104527000Y-74343750D01*
X104273000Y-74343750D01*
X104114250Y-74185000D01*
X102837458Y-74185000D01*
X102714777Y-74209403D01*
X102599215Y-74257270D01*
X102495211Y-74326763D01*
X102406763Y-74415211D01*
X102337270Y-74519215D01*
X102289403Y-74634777D01*
X102265000Y-74757458D01*
X98053072Y-74757458D01*
X98053072Y-74410000D01*
X98040812Y-74285518D01*
X98004502Y-74165820D01*
X97945537Y-74055506D01*
X97924713Y-74030131D01*
X97977730Y-73950785D01*
X98025597Y-73835223D01*
X98050000Y-73712542D01*
X98050000Y-73045750D01*
X97891250Y-72887000D01*
X96792000Y-72887000D01*
X96792000Y-72907000D01*
X96538000Y-72907000D01*
X96538000Y-72887000D01*
X95438750Y-72887000D01*
X95280000Y-73045750D01*
X95280000Y-73712542D01*
X95304403Y-73835223D01*
X95352270Y-73950785D01*
X95405287Y-74030131D01*
X95384463Y-74055506D01*
X95325498Y-74165820D01*
X95289188Y-74285518D01*
X95276928Y-74410000D01*
X95276928Y-74465000D01*
X93995868Y-74465000D01*
X93860000Y-74329132D01*
X93860000Y-74290675D01*
X93817343Y-74076225D01*
X93733669Y-73874218D01*
X93612193Y-73692416D01*
X93457584Y-73537807D01*
X93275782Y-73416331D01*
X93073775Y-73332657D01*
X92859325Y-73290000D01*
X92640675Y-73290000D01*
X92426225Y-73332657D01*
X92224218Y-73416331D01*
X92042416Y-73537807D01*
X91887807Y-73692416D01*
X91766331Y-73874218D01*
X91682657Y-74076225D01*
X91640000Y-74290675D01*
X90110000Y-74290675D01*
X90110000Y-72837333D01*
X90113677Y-72800000D01*
X90110000Y-72762667D01*
X90110000Y-69330000D01*
X95276928Y-69330000D01*
X95276928Y-71110000D01*
X95289188Y-71234482D01*
X95325498Y-71354180D01*
X95384463Y-71464494D01*
X95405287Y-71489869D01*
X95352270Y-71569215D01*
X95304403Y-71684777D01*
X95280000Y-71807458D01*
X95280000Y-72474250D01*
X95438750Y-72633000D01*
X96538000Y-72633000D01*
X96538000Y-72613000D01*
X96792000Y-72613000D01*
X96792000Y-72633000D01*
X97891250Y-72633000D01*
X98050000Y-72474250D01*
X98050000Y-71807458D01*
X98025597Y-71684777D01*
X97977730Y-71569215D01*
X97924713Y-71489869D01*
X97945537Y-71464494D01*
X98004502Y-71354180D01*
X98040812Y-71234482D01*
X98053072Y-71110000D01*
X98053072Y-71055000D01*
X98488982Y-71055000D01*
X98530000Y-71059040D01*
X98571018Y-71055000D01*
X98571019Y-71055000D01*
X98693689Y-71042918D01*
X98737193Y-71029721D01*
X102265000Y-71029721D01*
X102265000Y-71450279D01*
X102347047Y-71862756D01*
X102507988Y-72251302D01*
X102741637Y-72600983D01*
X103039017Y-72898363D01*
X103388698Y-73132012D01*
X103777244Y-73292953D01*
X104189721Y-73375000D01*
X104610279Y-73375000D01*
X105022756Y-73292953D01*
X105411302Y-73132012D01*
X105760983Y-72898363D01*
X106058363Y-72600983D01*
X106292012Y-72251302D01*
X106452953Y-71862756D01*
X106535000Y-71450279D01*
X106535000Y-71029721D01*
X106452953Y-70617244D01*
X106292012Y-70228698D01*
X106058363Y-69879017D01*
X105760983Y-69581637D01*
X105411302Y-69347988D01*
X105022756Y-69187047D01*
X104610279Y-69105000D01*
X104189721Y-69105000D01*
X103777244Y-69187047D01*
X103388698Y-69347988D01*
X103039017Y-69581637D01*
X102741637Y-69879017D01*
X102507988Y-70228698D01*
X102347047Y-70617244D01*
X102265000Y-71029721D01*
X98737193Y-71029721D01*
X98851087Y-70995172D01*
X98996146Y-70917636D01*
X99123291Y-70813291D01*
X99149446Y-70781421D01*
X101435869Y-68494999D01*
X102858983Y-68494999D01*
X102900001Y-68499039D01*
X102941019Y-68494999D01*
X102941020Y-68494999D01*
X103063690Y-68482917D01*
X103221088Y-68435171D01*
X103366147Y-68357635D01*
X103493292Y-68253290D01*
X103519447Y-68221421D01*
X103600941Y-68139926D01*
X103777244Y-68212953D01*
X104189721Y-68295000D01*
X104610279Y-68295000D01*
X105022756Y-68212953D01*
X105411302Y-68052012D01*
X105760983Y-67818363D01*
X106058363Y-67520983D01*
X106292012Y-67171302D01*
X106452953Y-66782756D01*
X106535000Y-66370279D01*
X106535000Y-65949721D01*
X106452953Y-65537244D01*
X106292012Y-65148698D01*
X106058363Y-64799017D01*
X105760983Y-64501637D01*
X105411302Y-64267988D01*
X105022756Y-64107047D01*
X104610279Y-64025000D01*
X104189721Y-64025000D01*
X103777244Y-64107047D01*
X103388698Y-64267988D01*
X103039017Y-64501637D01*
X102741637Y-64799017D01*
X102507988Y-65148698D01*
X102347047Y-65537244D01*
X102265000Y-65949721D01*
X102265000Y-66370279D01*
X102347047Y-66782756D01*
X102364545Y-66824999D01*
X101131019Y-66824999D01*
X101090000Y-66820959D01*
X101048982Y-66824999D01*
X100926312Y-66837081D01*
X100768914Y-66884827D01*
X100623855Y-66962363D01*
X100496710Y-67066708D01*
X100470562Y-67098570D01*
X98184133Y-69385000D01*
X98053072Y-69385000D01*
X98053072Y-69330000D01*
X98040812Y-69205518D01*
X98004502Y-69085820D01*
X97945537Y-68975506D01*
X97924713Y-68950131D01*
X97977730Y-68870785D01*
X98025597Y-68755223D01*
X98050000Y-68632542D01*
X98050000Y-67965750D01*
X97891250Y-67807000D01*
X96792000Y-67807000D01*
X96792000Y-67827000D01*
X96538000Y-67827000D01*
X96538000Y-67807000D01*
X95438750Y-67807000D01*
X95280000Y-67965750D01*
X95280000Y-68632542D01*
X95304403Y-68755223D01*
X95352270Y-68870785D01*
X95405287Y-68950131D01*
X95384463Y-68975506D01*
X95325498Y-69085820D01*
X95289188Y-69205518D01*
X95276928Y-69330000D01*
X90110000Y-69330000D01*
X90110000Y-67687323D01*
X90113676Y-67650001D01*
X90110000Y-67612678D01*
X90110000Y-64250000D01*
X95276928Y-64250000D01*
X95276928Y-66030000D01*
X95289188Y-66154482D01*
X95325498Y-66274180D01*
X95384463Y-66384494D01*
X95405287Y-66409869D01*
X95352270Y-66489215D01*
X95304403Y-66604777D01*
X95280000Y-66727458D01*
X95280000Y-67394250D01*
X95438750Y-67553000D01*
X96538000Y-67553000D01*
X96538000Y-67533000D01*
X96792000Y-67533000D01*
X96792000Y-67553000D01*
X97891250Y-67553000D01*
X98050000Y-67394250D01*
X98050000Y-66727458D01*
X98025597Y-66604777D01*
X97977730Y-66489215D01*
X97924713Y-66409869D01*
X97945537Y-66384494D01*
X98004502Y-66274180D01*
X98040812Y-66154482D01*
X98053072Y-66030000D01*
X98053072Y-65940354D01*
X98136087Y-65915172D01*
X98281146Y-65837636D01*
X98408291Y-65733291D01*
X98434446Y-65701421D01*
X99861426Y-64274441D01*
X99893291Y-64248291D01*
X99944627Y-64185737D01*
X99997636Y-64121146D01*
X100041173Y-64039694D01*
X102311928Y-61768940D01*
X102311928Y-61850000D01*
X102324188Y-61974482D01*
X102360498Y-62094180D01*
X102419463Y-62204494D01*
X102498815Y-62301185D01*
X102595506Y-62380537D01*
X102705820Y-62439502D01*
X102825518Y-62475812D01*
X102950000Y-62488072D01*
X105950000Y-62488072D01*
X106074482Y-62475812D01*
X106194180Y-62439502D01*
X106304494Y-62380537D01*
X106401185Y-62301185D01*
X106480537Y-62204494D01*
X106539502Y-62094180D01*
X106575812Y-61974482D01*
X106588072Y-61850000D01*
X106588072Y-58850000D01*
X106575812Y-58725518D01*
X106539502Y-58605820D01*
X106480537Y-58495506D01*
X106401185Y-58398815D01*
X106304494Y-58319463D01*
X106194180Y-58260498D01*
X106074482Y-58224188D01*
X105950000Y-58211928D01*
X102950000Y-58211928D01*
X102825518Y-58224188D01*
X102705820Y-58260498D01*
X102595506Y-58319463D01*
X102498815Y-58398815D01*
X102419463Y-58495506D01*
X102360498Y-58605820D01*
X102324188Y-58725518D01*
X102311928Y-58850000D01*
X102311928Y-59549646D01*
X102228913Y-59574828D01*
X102083854Y-59652364D01*
X101956709Y-59756709D01*
X101930559Y-59788573D01*
X98738579Y-62980554D01*
X98706709Y-63006709D01*
X98602365Y-63133854D01*
X98602364Y-63133855D01*
X98558829Y-63215303D01*
X97966418Y-63807714D01*
X97977730Y-63790785D01*
X98025597Y-63675223D01*
X98050000Y-63552542D01*
X98050000Y-62885750D01*
X97891250Y-62727000D01*
X96792000Y-62727000D01*
X96792000Y-62747000D01*
X96538000Y-62747000D01*
X96538000Y-62727000D01*
X95438750Y-62727000D01*
X95280000Y-62885750D01*
X95280000Y-63552542D01*
X95304403Y-63675223D01*
X95352270Y-63790785D01*
X95405287Y-63870131D01*
X95384463Y-63895506D01*
X95325498Y-64005820D01*
X95289188Y-64125518D01*
X95276928Y-64250000D01*
X90110000Y-64250000D01*
X90110000Y-62637333D01*
X90113677Y-62600000D01*
X90110000Y-62562667D01*
X90110000Y-59170000D01*
X95276928Y-59170000D01*
X95276928Y-60950000D01*
X95289188Y-61074482D01*
X95325498Y-61194180D01*
X95384463Y-61304494D01*
X95405287Y-61329869D01*
X95352270Y-61409215D01*
X95304403Y-61524777D01*
X95280000Y-61647458D01*
X95280000Y-62314250D01*
X95438750Y-62473000D01*
X96538000Y-62473000D01*
X96538000Y-62453000D01*
X96792000Y-62453000D01*
X96792000Y-62473000D01*
X97891250Y-62473000D01*
X98050000Y-62314250D01*
X98050000Y-61647458D01*
X98047522Y-61635000D01*
X98415223Y-61635000D01*
X98442416Y-61662193D01*
X98624218Y-61783669D01*
X98826225Y-61867343D01*
X99040675Y-61910000D01*
X99259325Y-61910000D01*
X99473775Y-61867343D01*
X99675782Y-61783669D01*
X99857584Y-61662193D01*
X100012193Y-61507584D01*
X100133669Y-61325782D01*
X100217343Y-61123775D01*
X100260000Y-60909325D01*
X100260000Y-60690675D01*
X100217343Y-60476225D01*
X100133669Y-60274218D01*
X100012193Y-60092416D01*
X99857584Y-59937807D01*
X99675782Y-59816331D01*
X99473775Y-59732657D01*
X99259325Y-59690000D01*
X99040675Y-59690000D01*
X98826225Y-59732657D01*
X98624218Y-59816331D01*
X98442416Y-59937807D01*
X98415223Y-59965000D01*
X98053072Y-59965000D01*
X98053072Y-59170000D01*
X98040812Y-59045518D01*
X98004502Y-58925820D01*
X97945537Y-58815506D01*
X97866185Y-58718815D01*
X97769494Y-58639463D01*
X97659180Y-58580498D01*
X97539482Y-58544188D01*
X97415000Y-58531928D01*
X95915000Y-58531928D01*
X95790518Y-58544188D01*
X95670820Y-58580498D01*
X95560506Y-58639463D01*
X95463815Y-58718815D01*
X95384463Y-58815506D01*
X95325498Y-58925820D01*
X95289188Y-59045518D01*
X95276928Y-59170000D01*
X90110000Y-59170000D01*
X90110000Y-57287333D01*
X90113677Y-57250000D01*
X90110000Y-57212667D01*
X90110000Y-54825750D01*
X95280000Y-54825750D01*
X95280000Y-55492542D01*
X95304403Y-55615223D01*
X95352270Y-55730785D01*
X95421763Y-55834789D01*
X95510211Y-55923237D01*
X95614215Y-55992730D01*
X95729777Y-56040597D01*
X95852458Y-56065000D01*
X96379250Y-56065000D01*
X96538000Y-55906250D01*
X96538000Y-54667000D01*
X96792000Y-54667000D01*
X96792000Y-55906250D01*
X96950750Y-56065000D01*
X97477542Y-56065000D01*
X97600223Y-56040597D01*
X97715785Y-55992730D01*
X97819789Y-55923237D01*
X97908237Y-55834789D01*
X97977730Y-55730785D01*
X98025597Y-55615223D01*
X98050000Y-55492542D01*
X98050000Y-55059721D01*
X102315000Y-55059721D01*
X102315000Y-55480279D01*
X102397047Y-55892756D01*
X102557988Y-56281302D01*
X102791637Y-56630983D01*
X103089017Y-56928363D01*
X103438698Y-57162012D01*
X103827244Y-57322953D01*
X104239721Y-57405000D01*
X104660279Y-57405000D01*
X105072756Y-57322953D01*
X105461302Y-57162012D01*
X105810983Y-56928363D01*
X106108363Y-56630983D01*
X106342012Y-56281302D01*
X106502953Y-55892756D01*
X106585000Y-55480279D01*
X106585000Y-55059721D01*
X106502953Y-54647244D01*
X106342012Y-54258698D01*
X106108363Y-53909017D01*
X105810983Y-53611637D01*
X105461302Y-53377988D01*
X105072756Y-53217047D01*
X104660279Y-53135000D01*
X104239721Y-53135000D01*
X103827244Y-53217047D01*
X103438698Y-53377988D01*
X103089017Y-53611637D01*
X102791637Y-53909017D01*
X102557988Y-54258698D01*
X102397047Y-54647244D01*
X102315000Y-55059721D01*
X98050000Y-55059721D01*
X98050000Y-54825750D01*
X97891250Y-54667000D01*
X96792000Y-54667000D01*
X96538000Y-54667000D01*
X95438750Y-54667000D01*
X95280000Y-54825750D01*
X90110000Y-54825750D01*
X90110000Y-53362324D01*
X90113676Y-53325001D01*
X90110000Y-53287678D01*
X90110000Y-49437322D01*
X90113676Y-49400000D01*
X90110000Y-49362677D01*
X90110000Y-44437332D01*
X90113677Y-44400000D01*
X90110000Y-44362667D01*
X90110000Y-40587333D01*
X90113677Y-40550000D01*
X90110000Y-40512667D01*
X90110000Y-35100000D01*
X92010960Y-35100000D01*
X92015000Y-35141019D01*
X92015001Y-50108971D01*
X92010960Y-50150000D01*
X92027082Y-50313688D01*
X92074828Y-50471086D01*
X92150110Y-50611928D01*
X92152365Y-50616146D01*
X92256710Y-50743291D01*
X92288574Y-50769441D01*
X94080559Y-52561427D01*
X94106709Y-52593291D01*
X94222200Y-52688072D01*
X94233854Y-52697636D01*
X94378913Y-52775172D01*
X94536311Y-52822918D01*
X94699999Y-52839040D01*
X94741018Y-52835000D01*
X95276928Y-52835000D01*
X95276928Y-52890000D01*
X95289188Y-53014482D01*
X95325498Y-53134180D01*
X95384463Y-53244494D01*
X95405287Y-53269869D01*
X95352270Y-53349215D01*
X95304403Y-53464777D01*
X95280000Y-53587458D01*
X95280000Y-54254250D01*
X95438750Y-54413000D01*
X96538000Y-54413000D01*
X96538000Y-54393000D01*
X96792000Y-54393000D01*
X96792000Y-54413000D01*
X97891250Y-54413000D01*
X98050000Y-54254250D01*
X98050000Y-53587458D01*
X98025597Y-53464777D01*
X97977730Y-53349215D01*
X97924713Y-53269869D01*
X97945537Y-53244494D01*
X98004502Y-53134180D01*
X98040812Y-53014482D01*
X98053072Y-52890000D01*
X98053072Y-51110000D01*
X98040812Y-50985518D01*
X98004502Y-50865820D01*
X97945537Y-50755506D01*
X97924713Y-50730131D01*
X97977730Y-50650785D01*
X98025597Y-50535223D01*
X98050000Y-50412542D01*
X98050000Y-49979721D01*
X102315000Y-49979721D01*
X102315000Y-50400279D01*
X102397047Y-50812756D01*
X102557988Y-51201302D01*
X102791637Y-51550983D01*
X103089017Y-51848363D01*
X103438698Y-52082012D01*
X103827244Y-52242953D01*
X104239721Y-52325000D01*
X104660279Y-52325000D01*
X105072756Y-52242953D01*
X105461302Y-52082012D01*
X105810983Y-51848363D01*
X106108363Y-51550983D01*
X106342012Y-51201302D01*
X106502953Y-50812756D01*
X106585000Y-50400279D01*
X106585000Y-49979721D01*
X106502953Y-49567244D01*
X106342012Y-49178698D01*
X106108363Y-48829017D01*
X105810983Y-48531637D01*
X105461302Y-48297988D01*
X105072756Y-48137047D01*
X104660279Y-48055000D01*
X104239721Y-48055000D01*
X103827244Y-48137047D01*
X103438698Y-48297988D01*
X103089017Y-48531637D01*
X102791637Y-48829017D01*
X102557988Y-49178698D01*
X102397047Y-49567244D01*
X102315000Y-49979721D01*
X98050000Y-49979721D01*
X98050000Y-49745750D01*
X97891250Y-49587000D01*
X96792000Y-49587000D01*
X96792000Y-49607000D01*
X96538000Y-49607000D01*
X96538000Y-49587000D01*
X95438750Y-49587000D01*
X95280000Y-49745750D01*
X95280000Y-50412542D01*
X95304403Y-50535223D01*
X95352270Y-50650785D01*
X95405287Y-50730131D01*
X95384463Y-50755506D01*
X95325498Y-50865820D01*
X95289188Y-50985518D01*
X95276928Y-51110000D01*
X95276928Y-51165000D01*
X95045868Y-51165000D01*
X93685000Y-49804133D01*
X93685000Y-40950000D01*
X95276928Y-40950000D01*
X95276928Y-42730000D01*
X95289188Y-42854482D01*
X95325498Y-42974180D01*
X95384463Y-43084494D01*
X95405287Y-43109869D01*
X95352270Y-43189215D01*
X95304403Y-43304777D01*
X95280000Y-43427458D01*
X95280000Y-44094250D01*
X95438750Y-44253000D01*
X96538000Y-44253000D01*
X96538000Y-44233000D01*
X96792000Y-44233000D01*
X96792000Y-44253000D01*
X96812000Y-44253000D01*
X96812000Y-44507000D01*
X96792000Y-44507000D01*
X96792000Y-44527000D01*
X96538000Y-44527000D01*
X96538000Y-44507000D01*
X95438750Y-44507000D01*
X95280000Y-44665750D01*
X95280000Y-45332542D01*
X95304403Y-45455223D01*
X95352270Y-45570785D01*
X95405287Y-45650131D01*
X95384463Y-45675506D01*
X95325498Y-45785820D01*
X95289188Y-45905518D01*
X95276928Y-46030000D01*
X95276928Y-47810000D01*
X95289188Y-47934482D01*
X95325498Y-48054180D01*
X95384463Y-48164494D01*
X95405287Y-48189869D01*
X95352270Y-48269215D01*
X95304403Y-48384777D01*
X95280000Y-48507458D01*
X95280000Y-49174250D01*
X95438750Y-49333000D01*
X96538000Y-49333000D01*
X96538000Y-49313000D01*
X96792000Y-49313000D01*
X96792000Y-49333000D01*
X97891250Y-49333000D01*
X98050000Y-49174250D01*
X98050000Y-48507458D01*
X98025597Y-48384777D01*
X97977730Y-48269215D01*
X97924713Y-48189869D01*
X97945537Y-48164494D01*
X98004502Y-48054180D01*
X98040812Y-47934482D01*
X98053072Y-47810000D01*
X98053072Y-46572796D01*
X99410869Y-45215000D01*
X102261928Y-45215000D01*
X102261928Y-45880000D01*
X102274188Y-46004482D01*
X102310498Y-46124180D01*
X102369463Y-46234494D01*
X102448815Y-46331185D01*
X102545506Y-46410537D01*
X102655820Y-46469502D01*
X102775518Y-46505812D01*
X102900000Y-46518072D01*
X105900000Y-46518072D01*
X106024482Y-46505812D01*
X106144180Y-46469502D01*
X106254494Y-46410537D01*
X106351185Y-46331185D01*
X106430537Y-46234494D01*
X106489502Y-46124180D01*
X106525812Y-46004482D01*
X106538072Y-45880000D01*
X106538072Y-42880000D01*
X106525812Y-42755518D01*
X106489502Y-42635820D01*
X106430537Y-42525506D01*
X106351185Y-42428815D01*
X106254494Y-42349463D01*
X106144180Y-42290498D01*
X106024482Y-42254188D01*
X105900000Y-42241928D01*
X102900000Y-42241928D01*
X102775518Y-42254188D01*
X102655820Y-42290498D01*
X102545506Y-42349463D01*
X102473776Y-42408331D01*
X102479446Y-42401421D01*
X103600941Y-41279926D01*
X103777244Y-41352953D01*
X104189721Y-41435000D01*
X104610279Y-41435000D01*
X105022756Y-41352953D01*
X105411302Y-41192012D01*
X105760983Y-40958363D01*
X106058363Y-40660983D01*
X106292012Y-40311302D01*
X106452953Y-39922756D01*
X106535000Y-39510279D01*
X106535000Y-39089721D01*
X106452953Y-38677244D01*
X106292012Y-38288698D01*
X106058363Y-37939017D01*
X105760983Y-37641637D01*
X105411302Y-37407988D01*
X105022756Y-37247047D01*
X104610279Y-37165000D01*
X104189721Y-37165000D01*
X103777244Y-37247047D01*
X103388698Y-37407988D01*
X103039017Y-37641637D01*
X102741637Y-37939017D01*
X102507988Y-38288698D01*
X102347047Y-38677244D01*
X102265000Y-39089721D01*
X102265000Y-39510279D01*
X102347047Y-39922756D01*
X102420074Y-40099059D01*
X101514133Y-41005000D01*
X98053072Y-41005000D01*
X98053072Y-40950000D01*
X98040812Y-40825518D01*
X98004502Y-40705820D01*
X97945537Y-40595506D01*
X97924713Y-40570131D01*
X97977730Y-40490785D01*
X98025597Y-40375223D01*
X98050000Y-40252542D01*
X98050000Y-39585750D01*
X97891250Y-39427000D01*
X96792000Y-39427000D01*
X96792000Y-39447000D01*
X96538000Y-39447000D01*
X96538000Y-39427000D01*
X95438750Y-39427000D01*
X95280000Y-39585750D01*
X95280000Y-40252542D01*
X95304403Y-40375223D01*
X95352270Y-40490785D01*
X95405287Y-40570131D01*
X95384463Y-40595506D01*
X95325498Y-40705820D01*
X95289188Y-40825518D01*
X95276928Y-40950000D01*
X93685000Y-40950000D01*
X93685000Y-35870000D01*
X95276928Y-35870000D01*
X95276928Y-37650000D01*
X95289188Y-37774482D01*
X95325498Y-37894180D01*
X95384463Y-38004494D01*
X95405287Y-38029869D01*
X95352270Y-38109215D01*
X95304403Y-38224777D01*
X95280000Y-38347458D01*
X95280000Y-39014250D01*
X95438750Y-39173000D01*
X96538000Y-39173000D01*
X96538000Y-39153000D01*
X96792000Y-39153000D01*
X96792000Y-39173000D01*
X97891250Y-39173000D01*
X98050000Y-39014250D01*
X98050000Y-38585000D01*
X98365223Y-38585000D01*
X98392416Y-38612193D01*
X98574218Y-38733669D01*
X98776225Y-38817343D01*
X98990675Y-38860000D01*
X99209325Y-38860000D01*
X99423775Y-38817343D01*
X99625782Y-38733669D01*
X99807584Y-38612193D01*
X99962193Y-38457584D01*
X100083669Y-38275782D01*
X100167343Y-38073775D01*
X100210000Y-37859325D01*
X100210000Y-37640675D01*
X100167343Y-37426225D01*
X100083669Y-37224218D01*
X99962193Y-37042416D01*
X99807584Y-36887807D01*
X99625782Y-36766331D01*
X99423775Y-36682657D01*
X99209325Y-36640000D01*
X98990675Y-36640000D01*
X98776225Y-36682657D01*
X98574218Y-36766331D01*
X98392416Y-36887807D01*
X98365223Y-36915000D01*
X98053072Y-36915000D01*
X98053072Y-35870000D01*
X98040812Y-35745518D01*
X98004502Y-35625820D01*
X97945537Y-35515506D01*
X97866185Y-35418815D01*
X97769494Y-35339463D01*
X97659180Y-35280498D01*
X97539482Y-35244188D01*
X97415000Y-35231928D01*
X95915000Y-35231928D01*
X95790518Y-35244188D01*
X95670820Y-35280498D01*
X95560506Y-35339463D01*
X95463815Y-35418815D01*
X95384463Y-35515506D01*
X95325498Y-35625820D01*
X95289188Y-35745518D01*
X95276928Y-35870000D01*
X93685000Y-35870000D01*
X93685000Y-35445868D01*
X94075868Y-35055000D01*
X102434961Y-35055000D01*
X102507988Y-35231302D01*
X102741637Y-35580983D01*
X103039017Y-35878363D01*
X103388698Y-36112012D01*
X103777244Y-36272953D01*
X104189721Y-36355000D01*
X104610279Y-36355000D01*
X105022756Y-36272953D01*
X105411302Y-36112012D01*
X105760983Y-35878363D01*
X106058363Y-35580983D01*
X106292012Y-35231302D01*
X106452953Y-34842756D01*
X106535000Y-34430279D01*
X106535000Y-34009721D01*
X106452953Y-33597244D01*
X106292012Y-33208698D01*
X106058363Y-32859017D01*
X105760983Y-32561637D01*
X105411302Y-32327988D01*
X105022756Y-32167047D01*
X104610279Y-32085000D01*
X104189721Y-32085000D01*
X103777244Y-32167047D01*
X103388698Y-32327988D01*
X103039017Y-32561637D01*
X102741637Y-32859017D01*
X102507988Y-33208698D01*
X102434961Y-33385000D01*
X93771018Y-33385000D01*
X93730000Y-33380960D01*
X93688981Y-33385000D01*
X93566311Y-33397082D01*
X93408913Y-33444828D01*
X93263854Y-33522364D01*
X93136709Y-33626709D01*
X93110563Y-33658568D01*
X92288578Y-34480555D01*
X92256709Y-34506709D01*
X92152365Y-34633854D01*
X92152364Y-34633855D01*
X92074828Y-34778914D01*
X92027082Y-34936312D01*
X92010960Y-35100000D01*
X90110000Y-35100000D01*
X90110000Y-33787325D01*
X90113676Y-33750000D01*
X90110000Y-33712675D01*
X90110000Y-33712667D01*
X90099003Y-33601014D01*
X90055546Y-33457753D01*
X89984974Y-33325724D01*
X89890001Y-33209999D01*
X89861004Y-33186202D01*
X87063804Y-30389003D01*
X87040001Y-30359999D01*
X86924276Y-30265026D01*
X86887622Y-30245434D01*
X86875812Y-30125518D01*
X86839502Y-30005820D01*
X86780537Y-29895506D01*
X86701185Y-29798815D01*
X86604494Y-29719463D01*
X86494180Y-29660498D01*
X86374482Y-29624188D01*
X86250000Y-29611928D01*
X84750000Y-29611928D01*
X84625518Y-29624188D01*
X84505820Y-29660498D01*
X84395506Y-29719463D01*
X84298815Y-29798815D01*
X84219463Y-29895506D01*
X84160498Y-30005820D01*
X84150000Y-30040427D01*
X84139502Y-30005820D01*
X84080537Y-29895506D01*
X84001185Y-29798815D01*
X83904494Y-29719463D01*
X83794180Y-29660498D01*
X83674482Y-29624188D01*
X83560000Y-29612913D01*
X83560000Y-26238072D01*
X83950000Y-26238072D01*
X84074482Y-26225812D01*
X84194180Y-26189502D01*
X84304494Y-26130537D01*
X84401185Y-26051185D01*
X84480537Y-25954494D01*
X84539502Y-25844180D01*
X84545056Y-25825873D01*
X84611495Y-25892312D01*
X84862905Y-26060299D01*
X85142257Y-26176011D01*
X85438816Y-26235000D01*
X85741184Y-26235000D01*
X86037743Y-26176011D01*
X86317095Y-26060299D01*
X86568505Y-25892312D01*
X86782312Y-25678505D01*
X86950299Y-25427095D01*
X87066011Y-25147743D01*
X87119293Y-24879872D01*
X102165000Y-24879872D01*
X102165000Y-25320128D01*
X102250890Y-25751925D01*
X102419369Y-26158669D01*
X102663962Y-26524729D01*
X102975271Y-26836038D01*
X103341331Y-27080631D01*
X103748075Y-27249110D01*
X104179872Y-27335000D01*
X104620128Y-27335000D01*
X105051925Y-27249110D01*
X105458669Y-27080631D01*
X105824729Y-26836038D01*
X106136038Y-26524729D01*
X106380631Y-26158669D01*
X106549110Y-25751925D01*
X106635000Y-25320128D01*
X106635000Y-24879872D01*
X106549110Y-24448075D01*
X106380631Y-24041331D01*
X106136038Y-23675271D01*
X105824729Y-23363962D01*
X105458669Y-23119369D01*
X105051925Y-22950890D01*
X104620128Y-22865000D01*
X104179872Y-22865000D01*
X103748075Y-22950890D01*
X103341331Y-23119369D01*
X102975271Y-23363962D01*
X102663962Y-23675271D01*
X102419369Y-24041331D01*
X102250890Y-24448075D01*
X102165000Y-24879872D01*
X87119293Y-24879872D01*
X87125000Y-24851184D01*
X87125000Y-24548816D01*
X87066011Y-24252257D01*
X86950299Y-23972905D01*
X86782312Y-23721495D01*
X86568505Y-23507688D01*
X86347028Y-23359702D01*
X86339003Y-23278222D01*
X86295546Y-23134961D01*
X86263109Y-23074276D01*
X86224974Y-23002931D01*
X86153799Y-22916205D01*
X86130001Y-22887207D01*
X86101002Y-22863409D01*
X85376595Y-22139002D01*
X85352793Y-22109999D01*
X85237068Y-22015026D01*
X85105039Y-21944454D01*
X84961778Y-21900997D01*
X84850125Y-21890000D01*
X84850114Y-21890000D01*
X84812792Y-21886324D01*
X84775470Y-21890000D01*
X80937333Y-21890000D01*
X80900000Y-21886323D01*
X80862667Y-21890000D01*
X80751014Y-21900997D01*
X80607753Y-21944454D01*
X80475724Y-22015026D01*
X80359999Y-22109999D01*
X80336201Y-22138997D01*
X77989003Y-24486196D01*
X77959999Y-24509999D01*
X77904871Y-24577174D01*
X77865026Y-24625724D01*
X77825324Y-24700001D01*
X77794454Y-24757754D01*
X77750997Y-24901015D01*
X77740000Y-25012668D01*
X77740000Y-25012678D01*
X77736324Y-25050000D01*
X77740000Y-25087322D01*
X77740001Y-38485197D01*
X70839003Y-45386196D01*
X70809999Y-45409999D01*
X70781723Y-45444454D01*
X70715026Y-45525724D01*
X70686648Y-45578815D01*
X70644454Y-45657754D01*
X70600997Y-45801015D01*
X70590000Y-45912668D01*
X70590000Y-45912678D01*
X70586324Y-45950000D01*
X70590000Y-45987323D01*
X70590000Y-47101646D01*
X70499482Y-47074188D01*
X70375000Y-47061928D01*
X70010000Y-47061928D01*
X70010000Y-46753711D01*
X70053937Y-46709774D01*
X70167205Y-46540256D01*
X70245226Y-46351898D01*
X70285000Y-46151939D01*
X70285000Y-45948061D01*
X70245226Y-45748102D01*
X70167205Y-45559744D01*
X70053937Y-45390226D01*
X69909774Y-45246063D01*
X69881767Y-45227349D01*
X71967845Y-43141272D01*
X72098102Y-43195226D01*
X72298061Y-43235000D01*
X72501939Y-43235000D01*
X72701898Y-43195226D01*
X72890256Y-43117205D01*
X73059774Y-43003937D01*
X73203937Y-42859774D01*
X73317205Y-42690256D01*
X73395226Y-42501898D01*
X73435000Y-42301939D01*
X73435000Y-42098061D01*
X73395226Y-41898102D01*
X73317205Y-41709744D01*
X73203937Y-41540226D01*
X73059774Y-41396063D01*
X72890256Y-41282795D01*
X72701898Y-41204774D01*
X72501939Y-41165000D01*
X72298061Y-41165000D01*
X72098102Y-41204774D01*
X71909744Y-41282795D01*
X71740226Y-41396063D01*
X71685276Y-41451013D01*
X71549344Y-41492247D01*
X71542068Y-41494454D01*
X71410038Y-41565026D01*
X71337841Y-41624277D01*
X71294314Y-41659999D01*
X71270516Y-41688997D01*
X70882089Y-42077424D01*
X70895547Y-42052246D01*
X70910276Y-42003689D01*
X70939004Y-41908985D01*
X70950001Y-41797332D01*
X70950001Y-41797322D01*
X70953677Y-41759999D01*
X70950001Y-41722676D01*
X70950001Y-40433321D01*
X70967050Y-40435000D01*
X71112950Y-40435000D01*
X71331111Y-40413513D01*
X71611034Y-40328599D01*
X71869014Y-40190706D01*
X72095134Y-40005134D01*
X72280706Y-39779014D01*
X72418599Y-39521034D01*
X72503513Y-39241111D01*
X72532185Y-38950000D01*
X72503513Y-38658889D01*
X72418599Y-38378966D01*
X72280706Y-38120986D01*
X72095134Y-37894866D01*
X71869014Y-37709294D01*
X71611034Y-37571401D01*
X71331111Y-37486487D01*
X71112950Y-37465000D01*
X70967050Y-37465000D01*
X70748889Y-37486487D01*
X70468966Y-37571401D01*
X70210986Y-37709294D01*
X69984866Y-37894866D01*
X69960393Y-37924687D01*
X69939502Y-37855820D01*
X69880537Y-37745506D01*
X69801185Y-37648815D01*
X69704494Y-37569463D01*
X69594180Y-37510498D01*
X69474482Y-37474188D01*
X69350000Y-37461928D01*
X67650000Y-37461928D01*
X67525518Y-37474188D01*
X67405820Y-37510498D01*
X67295506Y-37569463D01*
X67198815Y-37648815D01*
X67119463Y-37745506D01*
X67060498Y-37855820D01*
X67024188Y-37975518D01*
X67011928Y-38100000D01*
X67011928Y-39800000D01*
X67024188Y-39924482D01*
X67060498Y-40044180D01*
X67119463Y-40154494D01*
X67198815Y-40251185D01*
X67295506Y-40330537D01*
X67405820Y-40389502D01*
X67525518Y-40425812D01*
X67650000Y-40438072D01*
X69350000Y-40438072D01*
X69430001Y-40430193D01*
X69430002Y-41445196D01*
X65289003Y-45586196D01*
X65259999Y-45609999D01*
X65220809Y-45657753D01*
X65165026Y-45725724D01*
X65124782Y-45801015D01*
X65094454Y-45857754D01*
X65050997Y-46001015D01*
X65040000Y-46112668D01*
X65040000Y-46112678D01*
X65036324Y-46150000D01*
X65040000Y-46187323D01*
X65040001Y-48022762D01*
X65025518Y-48024188D01*
X64905820Y-48060498D01*
X64795506Y-48119463D01*
X64698815Y-48198815D01*
X64619463Y-48295506D01*
X64560498Y-48405820D01*
X64524188Y-48525518D01*
X64511928Y-48650000D01*
X64511928Y-48718948D01*
X64425724Y-48765026D01*
X64309999Y-48859999D01*
X64286201Y-48888997D01*
X62460000Y-50715199D01*
X62460000Y-48314801D01*
X63889802Y-46885000D01*
X63951939Y-46885000D01*
X64151898Y-46845226D01*
X64340256Y-46767205D01*
X64509774Y-46653937D01*
X64653937Y-46509774D01*
X64767205Y-46340256D01*
X64845226Y-46151898D01*
X64885000Y-45951939D01*
X64885000Y-45748061D01*
X64845226Y-45548102D01*
X64767205Y-45359744D01*
X64653937Y-45190226D01*
X64509774Y-45046063D01*
X64340256Y-44932795D01*
X64151898Y-44854774D01*
X63951939Y-44815000D01*
X63748061Y-44815000D01*
X63548102Y-44854774D01*
X63359744Y-44932795D01*
X63190226Y-45046063D01*
X63046063Y-45190226D01*
X62932795Y-45359744D01*
X62854774Y-45548102D01*
X62815000Y-45748061D01*
X62815000Y-45810198D01*
X61188998Y-47436201D01*
X61160000Y-47459999D01*
X61136202Y-47488997D01*
X61136201Y-47488998D01*
X61065026Y-47575724D01*
X60994454Y-47707754D01*
X60964790Y-47805546D01*
X60950998Y-47851014D01*
X60940034Y-47962332D01*
X60936324Y-48000000D01*
X60710000Y-48000000D01*
X60710000Y-32914344D01*
X68015000Y-32914344D01*
X68015000Y-33285656D01*
X68087439Y-33649834D01*
X68229534Y-33992882D01*
X68435825Y-34301618D01*
X68698382Y-34564175D01*
X69007118Y-34770466D01*
X69350166Y-34912561D01*
X69714344Y-34985000D01*
X70085656Y-34985000D01*
X70449834Y-34912561D01*
X70792882Y-34770466D01*
X71101618Y-34564175D01*
X71364175Y-34301618D01*
X71570466Y-33992882D01*
X71712561Y-33649834D01*
X71785000Y-33285656D01*
X71785000Y-32914344D01*
X71712561Y-32550166D01*
X71570466Y-32207118D01*
X71364175Y-31898382D01*
X71101618Y-31635825D01*
X70792882Y-31429534D01*
X70449834Y-31287439D01*
X70085656Y-31215000D01*
X69714344Y-31215000D01*
X69350166Y-31287439D01*
X69007118Y-31429534D01*
X68698382Y-31635825D01*
X68435825Y-31898382D01*
X68229534Y-32207118D01*
X68087439Y-32550166D01*
X68015000Y-32914344D01*
X60710000Y-32914344D01*
X60710000Y-24879872D01*
X62765000Y-24879872D01*
X62765000Y-25320128D01*
X62850890Y-25751925D01*
X63019369Y-26158669D01*
X63263962Y-26524729D01*
X63575271Y-26836038D01*
X63941331Y-27080631D01*
X64348075Y-27249110D01*
X64779872Y-27335000D01*
X65220128Y-27335000D01*
X65651925Y-27249110D01*
X66058669Y-27080631D01*
X66424729Y-26836038D01*
X66736038Y-26524729D01*
X66980631Y-26158669D01*
X67149110Y-25751925D01*
X67235000Y-25320128D01*
X67235000Y-24879872D01*
X67149110Y-24448075D01*
X66980631Y-24041331D01*
X66736038Y-23675271D01*
X66424729Y-23363962D01*
X66058669Y-23119369D01*
X65651925Y-22950890D01*
X65220128Y-22865000D01*
X64779872Y-22865000D01*
X64348075Y-22950890D01*
X63941331Y-23119369D01*
X63575271Y-23363962D01*
X63263962Y-23675271D01*
X63019369Y-24041331D01*
X62850890Y-24448075D01*
X62765000Y-24879872D01*
X60710000Y-24879872D01*
X60710000Y-20710000D01*
X109290001Y-20710000D01*
X109290000Y-89290000D01*
X109290000Y-89290000D01*
G37*
X109290000Y-89290000D02*
X60710000Y-89290000D01*
X60710000Y-84479872D01*
X62765000Y-84479872D01*
X62765000Y-84920128D01*
X62850890Y-85351925D01*
X63019369Y-85758669D01*
X63263962Y-86124729D01*
X63575271Y-86436038D01*
X63941331Y-86680631D01*
X64348075Y-86849110D01*
X64779872Y-86935000D01*
X65220128Y-86935000D01*
X65651925Y-86849110D01*
X66058669Y-86680631D01*
X66424729Y-86436038D01*
X66736038Y-86124729D01*
X66980631Y-85758669D01*
X67149110Y-85351925D01*
X67235000Y-84920128D01*
X67235000Y-84479872D01*
X67149110Y-84048075D01*
X66980631Y-83641331D01*
X66736038Y-83275271D01*
X66424729Y-82963962D01*
X66058669Y-82719369D01*
X65651925Y-82550890D01*
X65220128Y-82465000D01*
X64779872Y-82465000D01*
X64348075Y-82550890D01*
X63941331Y-82719369D01*
X63575271Y-82963962D01*
X63263962Y-83275271D01*
X63019369Y-83641331D01*
X62850890Y-84048075D01*
X62765000Y-84479872D01*
X60710000Y-84479872D01*
X60710000Y-48000000D01*
X60936324Y-48000000D01*
X60940001Y-48037333D01*
X60940000Y-68112678D01*
X60936324Y-68150000D01*
X60940000Y-68187322D01*
X60940000Y-68187332D01*
X60950997Y-68298985D01*
X60969810Y-68361003D01*
X60994454Y-68442246D01*
X61065026Y-68574276D01*
X61087695Y-68601898D01*
X61159999Y-68690001D01*
X61189003Y-68713804D01*
X66736201Y-74261003D01*
X66759999Y-74290001D01*
X66788997Y-74313799D01*
X66875723Y-74384974D01*
X67007753Y-74455546D01*
X67151014Y-74499003D01*
X67262667Y-74510000D01*
X67262677Y-74510000D01*
X67300000Y-74513676D01*
X67337323Y-74510000D01*
X76212678Y-74510000D01*
X76250000Y-74513676D01*
X76287322Y-74510000D01*
X76287333Y-74510000D01*
X76398986Y-74499003D01*
X76542247Y-74455546D01*
X76674276Y-74384974D01*
X76790001Y-74290001D01*
X76813804Y-74260997D01*
X81785032Y-69289770D01*
X81774188Y-69325518D01*
X81761928Y-69450000D01*
X81761928Y-70950000D01*
X81774188Y-71074482D01*
X81810498Y-71194180D01*
X81869463Y-71304494D01*
X81948815Y-71401185D01*
X82045506Y-71480537D01*
X82155820Y-71539502D01*
X82190427Y-71550000D01*
X82155820Y-71560498D01*
X82045506Y-71619463D01*
X81948815Y-71698815D01*
X81869463Y-71795506D01*
X81810498Y-71905820D01*
X81774188Y-72025518D01*
X81761928Y-72150000D01*
X81761928Y-72240000D01*
X80453711Y-72240000D01*
X80409774Y-72196063D01*
X80240256Y-72082795D01*
X80051898Y-72004774D01*
X79851939Y-71965000D01*
X79648061Y-71965000D01*
X79448102Y-72004774D01*
X79259744Y-72082795D01*
X79090226Y-72196063D01*
X78946063Y-72340226D01*
X78832795Y-72509744D01*
X78754774Y-72698102D01*
X78715000Y-72898061D01*
X78715000Y-73101939D01*
X78754774Y-73301898D01*
X78832795Y-73490256D01*
X78946063Y-73659774D01*
X79090226Y-73803937D01*
X79259744Y-73917205D01*
X79448102Y-73995226D01*
X79648061Y-74035000D01*
X79851939Y-74035000D01*
X80051898Y-73995226D01*
X80240256Y-73917205D01*
X80409774Y-73803937D01*
X80453711Y-73760000D01*
X81772762Y-73760000D01*
X81774188Y-73774482D01*
X81810498Y-73894180D01*
X81869463Y-74004494D01*
X81948815Y-74101185D01*
X81977834Y-74125000D01*
X81948815Y-74148815D01*
X81869463Y-74245506D01*
X81810498Y-74355820D01*
X81774188Y-74475518D01*
X81761928Y-74600000D01*
X81761928Y-76100000D01*
X81774188Y-76224482D01*
X81810498Y-76344180D01*
X81869463Y-76454494D01*
X81948815Y-76551185D01*
X82045506Y-76630537D01*
X82155820Y-76689502D01*
X82190427Y-76700000D01*
X82155820Y-76710498D01*
X82045506Y-76769463D01*
X81948815Y-76848815D01*
X81869463Y-76945506D01*
X81810498Y-77055820D01*
X81774188Y-77175518D01*
X81762913Y-77290000D01*
X75053711Y-77290000D01*
X75009774Y-77246063D01*
X74840256Y-77132795D01*
X74651898Y-77054774D01*
X74451939Y-77015000D01*
X74248061Y-77015000D01*
X74048102Y-77054774D01*
X73859744Y-77132795D01*
X73690226Y-77246063D01*
X73546063Y-77390226D01*
X73432795Y-77559744D01*
X73354774Y-77748102D01*
X73315000Y-77948061D01*
X73315000Y-78151939D01*
X73354774Y-78351898D01*
X73432795Y-78540256D01*
X73546063Y-78709774D01*
X73690226Y-78853937D01*
X73859744Y-78967205D01*
X74048102Y-79045226D01*
X74248061Y-79085000D01*
X74451939Y-79085000D01*
X74651898Y-79045226D01*
X74840256Y-78967205D01*
X75009774Y-78853937D01*
X75053711Y-78810000D01*
X81762913Y-78810000D01*
X81774188Y-78924482D01*
X81810498Y-79044180D01*
X81869463Y-79154494D01*
X81948815Y-79251185D01*
X82045506Y-79330537D01*
X82155820Y-79389502D01*
X82275518Y-79425812D01*
X82400000Y-79438072D01*
X83700000Y-79438072D01*
X83824482Y-79425812D01*
X83944180Y-79389502D01*
X84054494Y-79330537D01*
X84151185Y-79251185D01*
X84230537Y-79154494D01*
X84289502Y-79044180D01*
X84325812Y-78924482D01*
X84338072Y-78800000D01*
X84338072Y-77300000D01*
X84325812Y-77175518D01*
X84289502Y-77055820D01*
X84230537Y-76945506D01*
X84151185Y-76848815D01*
X84054494Y-76769463D01*
X83944180Y-76710498D01*
X83909573Y-76700000D01*
X83944180Y-76689502D01*
X84054494Y-76630537D01*
X84151185Y-76551185D01*
X84230537Y-76454494D01*
X84289502Y-76344180D01*
X84325812Y-76224482D01*
X84337087Y-76110000D01*
X85746928Y-76110000D01*
X85746928Y-76190000D01*
X85759188Y-76314482D01*
X85795498Y-76434180D01*
X85854463Y-76544494D01*
X85875395Y-76570000D01*
X85854463Y-76595506D01*
X85795498Y-76705820D01*
X85759188Y-76825518D01*
X85746928Y-76950000D01*
X85746928Y-78293270D01*
X82938998Y-81101201D01*
X82910000Y-81124999D01*
X82886202Y-81153997D01*
X82886201Y-81153998D01*
X82815026Y-81240724D01*
X82744454Y-81372754D01*
X82700998Y-81516015D01*
X82686324Y-81665000D01*
X82690001Y-81702332D01*
X82690000Y-82335197D01*
X81738072Y-83287126D01*
X81738072Y-83250000D01*
X81725812Y-83125518D01*
X81689502Y-83005820D01*
X81630537Y-82895506D01*
X81551185Y-82798815D01*
X81454494Y-82719463D01*
X81344180Y-82660498D01*
X81224482Y-82624188D01*
X81100000Y-82611928D01*
X78100000Y-82611928D01*
X77975518Y-82624188D01*
X77855820Y-82660498D01*
X77745506Y-82719463D01*
X77648815Y-82798815D01*
X77569463Y-82895506D01*
X77510498Y-83005820D01*
X77474188Y-83125518D01*
X77461928Y-83250000D01*
X77461928Y-86250000D01*
X77474188Y-86374482D01*
X77510498Y-86494180D01*
X77569463Y-86604494D01*
X77648815Y-86701185D01*
X77745506Y-86780537D01*
X77855820Y-86839502D01*
X77975518Y-86875812D01*
X78100000Y-86888072D01*
X81100000Y-86888072D01*
X81224482Y-86875812D01*
X81344180Y-86839502D01*
X81454494Y-86780537D01*
X81551185Y-86701185D01*
X81630537Y-86604494D01*
X81689502Y-86494180D01*
X81725812Y-86374482D01*
X81738072Y-86250000D01*
X81738072Y-85404326D01*
X81774276Y-85384974D01*
X81890001Y-85290001D01*
X81913804Y-85260998D01*
X82545000Y-84629802D01*
X82545000Y-84960279D01*
X82627047Y-85372756D01*
X82787988Y-85761302D01*
X83021637Y-86110983D01*
X83319017Y-86408363D01*
X83668698Y-86642012D01*
X84057244Y-86802953D01*
X84469721Y-86885000D01*
X84890279Y-86885000D01*
X85302756Y-86802953D01*
X85691302Y-86642012D01*
X86040983Y-86408363D01*
X86338363Y-86110983D01*
X86572012Y-85761302D01*
X86732953Y-85372756D01*
X86815000Y-84960279D01*
X86815000Y-84539721D01*
X86732953Y-84127244D01*
X86572012Y-83738698D01*
X86338363Y-83389017D01*
X86040983Y-83091637D01*
X85691302Y-82857988D01*
X85302756Y-82697047D01*
X84890279Y-82615000D01*
X84469721Y-82615000D01*
X84212076Y-82666249D01*
X84213676Y-82650001D01*
X84210000Y-82612678D01*
X84210000Y-81979801D01*
X86821730Y-79368072D01*
X87885000Y-79368072D01*
X88009482Y-79355812D01*
X88129180Y-79319502D01*
X88239494Y-79260537D01*
X88336185Y-79181185D01*
X88415537Y-79084494D01*
X88474502Y-78974180D01*
X88510812Y-78854482D01*
X88523072Y-78730000D01*
X88523072Y-78600000D01*
X88590001Y-78600000D01*
X88590000Y-82181357D01*
X88586324Y-82218680D01*
X88590000Y-82256002D01*
X88590000Y-82256012D01*
X88600997Y-82367665D01*
X88630523Y-82465000D01*
X88644454Y-82510926D01*
X88715026Y-82642956D01*
X88720808Y-82650001D01*
X88809999Y-82758681D01*
X88839003Y-82782484D01*
X88865943Y-82809424D01*
X88748698Y-82857988D01*
X88399017Y-83091637D01*
X88101637Y-83389017D01*
X87867988Y-83738698D01*
X87707047Y-84127244D01*
X87625000Y-84539721D01*
X87625000Y-84960279D01*
X87707047Y-85372756D01*
X87867988Y-85761302D01*
X88101637Y-86110983D01*
X88399017Y-86408363D01*
X88748698Y-86642012D01*
X89137244Y-86802953D01*
X89549721Y-86885000D01*
X89970279Y-86885000D01*
X90382756Y-86802953D01*
X90771302Y-86642012D01*
X91120983Y-86408363D01*
X91418363Y-86110983D01*
X91652012Y-85761302D01*
X91812953Y-85372756D01*
X91895000Y-84960279D01*
X91895000Y-84539721D01*
X92705000Y-84539721D01*
X92705000Y-84960279D01*
X92787047Y-85372756D01*
X92947988Y-85761302D01*
X93181637Y-86110983D01*
X93479017Y-86408363D01*
X93828698Y-86642012D01*
X94217244Y-86802953D01*
X94629721Y-86885000D01*
X95050279Y-86885000D01*
X95462756Y-86802953D01*
X95851302Y-86642012D01*
X96200983Y-86408363D01*
X96498363Y-86110983D01*
X96732012Y-85761302D01*
X96892953Y-85372756D01*
X96975000Y-84960279D01*
X96975000Y-84539721D01*
X96963096Y-84479872D01*
X102165000Y-84479872D01*
X102165000Y-84920128D01*
X102250890Y-85351925D01*
X102419369Y-85758669D01*
X102663962Y-86124729D01*
X102975271Y-86436038D01*
X103341331Y-86680631D01*
X103748075Y-86849110D01*
X104179872Y-86935000D01*
X104620128Y-86935000D01*
X105051925Y-86849110D01*
X105458669Y-86680631D01*
X105824729Y-86436038D01*
X106136038Y-86124729D01*
X106380631Y-85758669D01*
X106549110Y-85351925D01*
X106635000Y-84920128D01*
X106635000Y-84479872D01*
X106549110Y-84048075D01*
X106380631Y-83641331D01*
X106136038Y-83275271D01*
X105824729Y-82963962D01*
X105458669Y-82719369D01*
X105051925Y-82550890D01*
X104620128Y-82465000D01*
X104179872Y-82465000D01*
X103748075Y-82550890D01*
X103341331Y-82719369D01*
X102975271Y-82963962D01*
X102663962Y-83275271D01*
X102419369Y-83641331D01*
X102250890Y-84048075D01*
X102165000Y-84479872D01*
X96963096Y-84479872D01*
X96892953Y-84127244D01*
X96732012Y-83738698D01*
X96498363Y-83389017D01*
X96200983Y-83091637D01*
X95851302Y-82857988D01*
X95462756Y-82697047D01*
X95050279Y-82615000D01*
X94629721Y-82615000D01*
X94217244Y-82697047D01*
X93828698Y-82857988D01*
X93479017Y-83091637D01*
X93181637Y-83389017D01*
X92947988Y-83738698D01*
X92787047Y-84127244D01*
X92705000Y-84539721D01*
X91895000Y-84539721D01*
X91812953Y-84127244D01*
X91652012Y-83738698D01*
X91418363Y-83389017D01*
X91120983Y-83091637D01*
X90771302Y-82857988D01*
X90520000Y-82753895D01*
X90520000Y-82666013D01*
X90523677Y-82628680D01*
X90509003Y-82479694D01*
X90465546Y-82336433D01*
X90422559Y-82256012D01*
X90394974Y-82204404D01*
X90300001Y-82088679D01*
X90270997Y-82064876D01*
X90110000Y-81903879D01*
X90110000Y-78125750D01*
X95280000Y-78125750D01*
X95280000Y-78792542D01*
X95304403Y-78915223D01*
X95352270Y-79030785D01*
X95421763Y-79134789D01*
X95510211Y-79223237D01*
X95614215Y-79292730D01*
X95729777Y-79340597D01*
X95852458Y-79365000D01*
X96379250Y-79365000D01*
X96538000Y-79206250D01*
X96538000Y-77967000D01*
X96792000Y-77967000D01*
X96792000Y-79206250D01*
X96950750Y-79365000D01*
X97477542Y-79365000D01*
X97600223Y-79340597D01*
X97715785Y-79292730D01*
X97819789Y-79223237D01*
X97908237Y-79134789D01*
X97977730Y-79030785D01*
X98025597Y-78915223D01*
X98050000Y-78792542D01*
X98050000Y-78125750D01*
X97891250Y-77967000D01*
X96792000Y-77967000D01*
X96538000Y-77967000D01*
X95438750Y-77967000D01*
X95280000Y-78125750D01*
X90110000Y-78125750D01*
X90110000Y-77887322D01*
X90113676Y-77849999D01*
X90110000Y-77812677D01*
X90110000Y-74290675D01*
X91640000Y-74290675D01*
X91640000Y-74509325D01*
X91682657Y-74723775D01*
X91766331Y-74925782D01*
X91887807Y-75107584D01*
X92042416Y-75262193D01*
X92224218Y-75383669D01*
X92426225Y-75467343D01*
X92640675Y-75510000D01*
X92679132Y-75510000D01*
X93030558Y-75861426D01*
X93056709Y-75893291D01*
X93183854Y-75997636D01*
X93328913Y-76075172D01*
X93486311Y-76122918D01*
X93608981Y-76135000D01*
X93608983Y-76135000D01*
X93649999Y-76139040D01*
X93691015Y-76135000D01*
X95276928Y-76135000D01*
X95276928Y-76190000D01*
X95289188Y-76314482D01*
X95325498Y-76434180D01*
X95384463Y-76544494D01*
X95405287Y-76569869D01*
X95352270Y-76649215D01*
X95304403Y-76764777D01*
X95280000Y-76887458D01*
X95280000Y-77554250D01*
X95438750Y-77713000D01*
X96538000Y-77713000D01*
X96538000Y-77693000D01*
X96792000Y-77693000D01*
X96792000Y-77713000D01*
X97891250Y-77713000D01*
X98050000Y-77554250D01*
X98050000Y-76887458D01*
X98025597Y-76764777D01*
X97977730Y-76649215D01*
X97948688Y-76605750D01*
X102265000Y-76605750D01*
X102265000Y-77882542D01*
X102289403Y-78005223D01*
X102337270Y-78120785D01*
X102406763Y-78224789D01*
X102495211Y-78313237D01*
X102599215Y-78382730D01*
X102714777Y-78430597D01*
X102837458Y-78455000D01*
X104114250Y-78455000D01*
X104273000Y-78296250D01*
X104273000Y-76447000D01*
X104527000Y-76447000D01*
X104527000Y-78296250D01*
X104685750Y-78455000D01*
X105962542Y-78455000D01*
X106085223Y-78430597D01*
X106200785Y-78382730D01*
X106304789Y-78313237D01*
X106393237Y-78224789D01*
X106462730Y-78120785D01*
X106510597Y-78005223D01*
X106535000Y-77882542D01*
X106535000Y-76605750D01*
X106376250Y-76447000D01*
X104527000Y-76447000D01*
X104273000Y-76447000D01*
X102423750Y-76447000D01*
X102265000Y-76605750D01*
X97948688Y-76605750D01*
X97924713Y-76569869D01*
X97945537Y-76544494D01*
X98004502Y-76434180D01*
X98040812Y-76314482D01*
X98053072Y-76190000D01*
X98053072Y-74757458D01*
X102265000Y-74757458D01*
X102265000Y-76034250D01*
X102423750Y-76193000D01*
X104273000Y-76193000D01*
X104273000Y-74343750D01*
X104527000Y-74343750D01*
X104527000Y-76193000D01*
X106376250Y-76193000D01*
X106535000Y-76034250D01*
X106535000Y-74757458D01*
X106510597Y-74634777D01*
X106462730Y-74519215D01*
X106393237Y-74415211D01*
X106304789Y-74326763D01*
X106200785Y-74257270D01*
X106085223Y-74209403D01*
X105962542Y-74185000D01*
X104685750Y-74185000D01*
X104527000Y-74343750D01*
X104273000Y-74343750D01*
X104114250Y-74185000D01*
X102837458Y-74185000D01*
X102714777Y-74209403D01*
X102599215Y-74257270D01*
X102495211Y-74326763D01*
X102406763Y-74415211D01*
X102337270Y-74519215D01*
X102289403Y-74634777D01*
X102265000Y-74757458D01*
X98053072Y-74757458D01*
X98053072Y-74410000D01*
X98040812Y-74285518D01*
X98004502Y-74165820D01*
X97945537Y-74055506D01*
X97924713Y-74030131D01*
X97977730Y-73950785D01*
X98025597Y-73835223D01*
X98050000Y-73712542D01*
X98050000Y-73045750D01*
X97891250Y-72887000D01*
X96792000Y-72887000D01*
X96792000Y-72907000D01*
X96538000Y-72907000D01*
X96538000Y-72887000D01*
X95438750Y-72887000D01*
X95280000Y-73045750D01*
X95280000Y-73712542D01*
X95304403Y-73835223D01*
X95352270Y-73950785D01*
X95405287Y-74030131D01*
X95384463Y-74055506D01*
X95325498Y-74165820D01*
X95289188Y-74285518D01*
X95276928Y-74410000D01*
X95276928Y-74465000D01*
X93995868Y-74465000D01*
X93860000Y-74329132D01*
X93860000Y-74290675D01*
X93817343Y-74076225D01*
X93733669Y-73874218D01*
X93612193Y-73692416D01*
X93457584Y-73537807D01*
X93275782Y-73416331D01*
X93073775Y-73332657D01*
X92859325Y-73290000D01*
X92640675Y-73290000D01*
X92426225Y-73332657D01*
X92224218Y-73416331D01*
X92042416Y-73537807D01*
X91887807Y-73692416D01*
X91766331Y-73874218D01*
X91682657Y-74076225D01*
X91640000Y-74290675D01*
X90110000Y-74290675D01*
X90110000Y-72837333D01*
X90113677Y-72800000D01*
X90110000Y-72762667D01*
X90110000Y-69330000D01*
X95276928Y-69330000D01*
X95276928Y-71110000D01*
X95289188Y-71234482D01*
X95325498Y-71354180D01*
X95384463Y-71464494D01*
X95405287Y-71489869D01*
X95352270Y-71569215D01*
X95304403Y-71684777D01*
X95280000Y-71807458D01*
X95280000Y-72474250D01*
X95438750Y-72633000D01*
X96538000Y-72633000D01*
X96538000Y-72613000D01*
X96792000Y-72613000D01*
X96792000Y-72633000D01*
X97891250Y-72633000D01*
X98050000Y-72474250D01*
X98050000Y-71807458D01*
X98025597Y-71684777D01*
X97977730Y-71569215D01*
X97924713Y-71489869D01*
X97945537Y-71464494D01*
X98004502Y-71354180D01*
X98040812Y-71234482D01*
X98053072Y-71110000D01*
X98053072Y-71055000D01*
X98488982Y-71055000D01*
X98530000Y-71059040D01*
X98571018Y-71055000D01*
X98571019Y-71055000D01*
X98693689Y-71042918D01*
X98737193Y-71029721D01*
X102265000Y-71029721D01*
X102265000Y-71450279D01*
X102347047Y-71862756D01*
X102507988Y-72251302D01*
X102741637Y-72600983D01*
X103039017Y-72898363D01*
X103388698Y-73132012D01*
X103777244Y-73292953D01*
X104189721Y-73375000D01*
X104610279Y-73375000D01*
X105022756Y-73292953D01*
X105411302Y-73132012D01*
X105760983Y-72898363D01*
X106058363Y-72600983D01*
X106292012Y-72251302D01*
X106452953Y-71862756D01*
X106535000Y-71450279D01*
X106535000Y-71029721D01*
X106452953Y-70617244D01*
X106292012Y-70228698D01*
X106058363Y-69879017D01*
X105760983Y-69581637D01*
X105411302Y-69347988D01*
X105022756Y-69187047D01*
X104610279Y-69105000D01*
X104189721Y-69105000D01*
X103777244Y-69187047D01*
X103388698Y-69347988D01*
X103039017Y-69581637D01*
X102741637Y-69879017D01*
X102507988Y-70228698D01*
X102347047Y-70617244D01*
X102265000Y-71029721D01*
X98737193Y-71029721D01*
X98851087Y-70995172D01*
X98996146Y-70917636D01*
X99123291Y-70813291D01*
X99149446Y-70781421D01*
X101435869Y-68494999D01*
X102858983Y-68494999D01*
X102900001Y-68499039D01*
X102941019Y-68494999D01*
X102941020Y-68494999D01*
X103063690Y-68482917D01*
X103221088Y-68435171D01*
X103366147Y-68357635D01*
X103493292Y-68253290D01*
X103519447Y-68221421D01*
X103600941Y-68139926D01*
X103777244Y-68212953D01*
X104189721Y-68295000D01*
X104610279Y-68295000D01*
X105022756Y-68212953D01*
X105411302Y-68052012D01*
X105760983Y-67818363D01*
X106058363Y-67520983D01*
X106292012Y-67171302D01*
X106452953Y-66782756D01*
X106535000Y-66370279D01*
X106535000Y-65949721D01*
X106452953Y-65537244D01*
X106292012Y-65148698D01*
X106058363Y-64799017D01*
X105760983Y-64501637D01*
X105411302Y-64267988D01*
X105022756Y-64107047D01*
X104610279Y-64025000D01*
X104189721Y-64025000D01*
X103777244Y-64107047D01*
X103388698Y-64267988D01*
X103039017Y-64501637D01*
X102741637Y-64799017D01*
X102507988Y-65148698D01*
X102347047Y-65537244D01*
X102265000Y-65949721D01*
X102265000Y-66370279D01*
X102347047Y-66782756D01*
X102364545Y-66824999D01*
X101131019Y-66824999D01*
X101090000Y-66820959D01*
X101048982Y-66824999D01*
X100926312Y-66837081D01*
X100768914Y-66884827D01*
X100623855Y-66962363D01*
X100496710Y-67066708D01*
X100470562Y-67098570D01*
X98184133Y-69385000D01*
X98053072Y-69385000D01*
X98053072Y-69330000D01*
X98040812Y-69205518D01*
X98004502Y-69085820D01*
X97945537Y-68975506D01*
X97924713Y-68950131D01*
X97977730Y-68870785D01*
X98025597Y-68755223D01*
X98050000Y-68632542D01*
X98050000Y-67965750D01*
X97891250Y-67807000D01*
X96792000Y-67807000D01*
X96792000Y-67827000D01*
X96538000Y-67827000D01*
X96538000Y-67807000D01*
X95438750Y-67807000D01*
X95280000Y-67965750D01*
X95280000Y-68632542D01*
X95304403Y-68755223D01*
X95352270Y-68870785D01*
X95405287Y-68950131D01*
X95384463Y-68975506D01*
X95325498Y-69085820D01*
X95289188Y-69205518D01*
X95276928Y-69330000D01*
X90110000Y-69330000D01*
X90110000Y-67687323D01*
X90113676Y-67650001D01*
X90110000Y-67612678D01*
X90110000Y-64250000D01*
X95276928Y-64250000D01*
X95276928Y-66030000D01*
X95289188Y-66154482D01*
X95325498Y-66274180D01*
X95384463Y-66384494D01*
X95405287Y-66409869D01*
X95352270Y-66489215D01*
X95304403Y-66604777D01*
X95280000Y-66727458D01*
X95280000Y-67394250D01*
X95438750Y-67553000D01*
X96538000Y-67553000D01*
X96538000Y-67533000D01*
X96792000Y-67533000D01*
X96792000Y-67553000D01*
X97891250Y-67553000D01*
X98050000Y-67394250D01*
X98050000Y-66727458D01*
X98025597Y-66604777D01*
X97977730Y-66489215D01*
X97924713Y-66409869D01*
X97945537Y-66384494D01*
X98004502Y-66274180D01*
X98040812Y-66154482D01*
X98053072Y-66030000D01*
X98053072Y-65940354D01*
X98136087Y-65915172D01*
X98281146Y-65837636D01*
X98408291Y-65733291D01*
X98434446Y-65701421D01*
X99861426Y-64274441D01*
X99893291Y-64248291D01*
X99944627Y-64185737D01*
X99997636Y-64121146D01*
X100041173Y-64039694D01*
X102311928Y-61768940D01*
X102311928Y-61850000D01*
X102324188Y-61974482D01*
X102360498Y-62094180D01*
X102419463Y-62204494D01*
X102498815Y-62301185D01*
X102595506Y-62380537D01*
X102705820Y-62439502D01*
X102825518Y-62475812D01*
X102950000Y-62488072D01*
X105950000Y-62488072D01*
X106074482Y-62475812D01*
X106194180Y-62439502D01*
X106304494Y-62380537D01*
X106401185Y-62301185D01*
X106480537Y-62204494D01*
X106539502Y-62094180D01*
X106575812Y-61974482D01*
X106588072Y-61850000D01*
X106588072Y-58850000D01*
X106575812Y-58725518D01*
X106539502Y-58605820D01*
X106480537Y-58495506D01*
X106401185Y-58398815D01*
X106304494Y-58319463D01*
X106194180Y-58260498D01*
X106074482Y-58224188D01*
X105950000Y-58211928D01*
X102950000Y-58211928D01*
X102825518Y-58224188D01*
X102705820Y-58260498D01*
X102595506Y-58319463D01*
X102498815Y-58398815D01*
X102419463Y-58495506D01*
X102360498Y-58605820D01*
X102324188Y-58725518D01*
X102311928Y-58850000D01*
X102311928Y-59549646D01*
X102228913Y-59574828D01*
X102083854Y-59652364D01*
X101956709Y-59756709D01*
X101930559Y-59788573D01*
X98738579Y-62980554D01*
X98706709Y-63006709D01*
X98602365Y-63133854D01*
X98602364Y-63133855D01*
X98558829Y-63215303D01*
X97966418Y-63807714D01*
X97977730Y-63790785D01*
X98025597Y-63675223D01*
X98050000Y-63552542D01*
X98050000Y-62885750D01*
X97891250Y-62727000D01*
X96792000Y-62727000D01*
X96792000Y-62747000D01*
X96538000Y-62747000D01*
X96538000Y-62727000D01*
X95438750Y-62727000D01*
X95280000Y-62885750D01*
X95280000Y-63552542D01*
X95304403Y-63675223D01*
X95352270Y-63790785D01*
X95405287Y-63870131D01*
X95384463Y-63895506D01*
X95325498Y-64005820D01*
X95289188Y-64125518D01*
X95276928Y-64250000D01*
X90110000Y-64250000D01*
X90110000Y-62637333D01*
X90113677Y-62600000D01*
X90110000Y-62562667D01*
X90110000Y-59170000D01*
X95276928Y-59170000D01*
X95276928Y-60950000D01*
X95289188Y-61074482D01*
X95325498Y-61194180D01*
X95384463Y-61304494D01*
X95405287Y-61329869D01*
X95352270Y-61409215D01*
X95304403Y-61524777D01*
X95280000Y-61647458D01*
X95280000Y-62314250D01*
X95438750Y-62473000D01*
X96538000Y-62473000D01*
X96538000Y-62453000D01*
X96792000Y-62453000D01*
X96792000Y-62473000D01*
X97891250Y-62473000D01*
X98050000Y-62314250D01*
X98050000Y-61647458D01*
X98047522Y-61635000D01*
X98415223Y-61635000D01*
X98442416Y-61662193D01*
X98624218Y-61783669D01*
X98826225Y-61867343D01*
X99040675Y-61910000D01*
X99259325Y-61910000D01*
X99473775Y-61867343D01*
X99675782Y-61783669D01*
X99857584Y-61662193D01*
X100012193Y-61507584D01*
X100133669Y-61325782D01*
X100217343Y-61123775D01*
X100260000Y-60909325D01*
X100260000Y-60690675D01*
X100217343Y-60476225D01*
X100133669Y-60274218D01*
X100012193Y-60092416D01*
X99857584Y-59937807D01*
X99675782Y-59816331D01*
X99473775Y-59732657D01*
X99259325Y-59690000D01*
X99040675Y-59690000D01*
X98826225Y-59732657D01*
X98624218Y-59816331D01*
X98442416Y-59937807D01*
X98415223Y-59965000D01*
X98053072Y-59965000D01*
X98053072Y-59170000D01*
X98040812Y-59045518D01*
X98004502Y-58925820D01*
X97945537Y-58815506D01*
X97866185Y-58718815D01*
X97769494Y-58639463D01*
X97659180Y-58580498D01*
X97539482Y-58544188D01*
X97415000Y-58531928D01*
X95915000Y-58531928D01*
X95790518Y-58544188D01*
X95670820Y-58580498D01*
X95560506Y-58639463D01*
X95463815Y-58718815D01*
X95384463Y-58815506D01*
X95325498Y-58925820D01*
X95289188Y-59045518D01*
X95276928Y-59170000D01*
X90110000Y-59170000D01*
X90110000Y-57287333D01*
X90113677Y-57250000D01*
X90110000Y-57212667D01*
X90110000Y-54825750D01*
X95280000Y-54825750D01*
X95280000Y-55492542D01*
X95304403Y-55615223D01*
X95352270Y-55730785D01*
X95421763Y-55834789D01*
X95510211Y-55923237D01*
X95614215Y-55992730D01*
X95729777Y-56040597D01*
X95852458Y-56065000D01*
X96379250Y-56065000D01*
X96538000Y-55906250D01*
X96538000Y-54667000D01*
X96792000Y-54667000D01*
X96792000Y-55906250D01*
X96950750Y-56065000D01*
X97477542Y-56065000D01*
X97600223Y-56040597D01*
X97715785Y-55992730D01*
X97819789Y-55923237D01*
X97908237Y-55834789D01*
X97977730Y-55730785D01*
X98025597Y-55615223D01*
X98050000Y-55492542D01*
X98050000Y-55059721D01*
X102315000Y-55059721D01*
X102315000Y-55480279D01*
X102397047Y-55892756D01*
X102557988Y-56281302D01*
X102791637Y-56630983D01*
X103089017Y-56928363D01*
X103438698Y-57162012D01*
X103827244Y-57322953D01*
X104239721Y-57405000D01*
X104660279Y-57405000D01*
X105072756Y-57322953D01*
X105461302Y-57162012D01*
X105810983Y-56928363D01*
X106108363Y-56630983D01*
X106342012Y-56281302D01*
X106502953Y-55892756D01*
X106585000Y-55480279D01*
X106585000Y-55059721D01*
X106502953Y-54647244D01*
X106342012Y-54258698D01*
X106108363Y-53909017D01*
X105810983Y-53611637D01*
X105461302Y-53377988D01*
X105072756Y-53217047D01*
X104660279Y-53135000D01*
X104239721Y-53135000D01*
X103827244Y-53217047D01*
X103438698Y-53377988D01*
X103089017Y-53611637D01*
X102791637Y-53909017D01*
X102557988Y-54258698D01*
X102397047Y-54647244D01*
X102315000Y-55059721D01*
X98050000Y-55059721D01*
X98050000Y-54825750D01*
X97891250Y-54667000D01*
X96792000Y-54667000D01*
X96538000Y-54667000D01*
X95438750Y-54667000D01*
X95280000Y-54825750D01*
X90110000Y-54825750D01*
X90110000Y-53362324D01*
X90113676Y-53325001D01*
X90110000Y-53287678D01*
X90110000Y-49437322D01*
X90113676Y-49400000D01*
X90110000Y-49362677D01*
X90110000Y-44437332D01*
X90113677Y-44400000D01*
X90110000Y-44362667D01*
X90110000Y-40587333D01*
X90113677Y-40550000D01*
X90110000Y-40512667D01*
X90110000Y-35100000D01*
X92010960Y-35100000D01*
X92015000Y-35141019D01*
X92015001Y-50108971D01*
X92010960Y-50150000D01*
X92027082Y-50313688D01*
X92074828Y-50471086D01*
X92150110Y-50611928D01*
X92152365Y-50616146D01*
X92256710Y-50743291D01*
X92288574Y-50769441D01*
X94080559Y-52561427D01*
X94106709Y-52593291D01*
X94222200Y-52688072D01*
X94233854Y-52697636D01*
X94378913Y-52775172D01*
X94536311Y-52822918D01*
X94699999Y-52839040D01*
X94741018Y-52835000D01*
X95276928Y-52835000D01*
X95276928Y-52890000D01*
X95289188Y-53014482D01*
X95325498Y-53134180D01*
X95384463Y-53244494D01*
X95405287Y-53269869D01*
X95352270Y-53349215D01*
X95304403Y-53464777D01*
X95280000Y-53587458D01*
X95280000Y-54254250D01*
X95438750Y-54413000D01*
X96538000Y-54413000D01*
X96538000Y-54393000D01*
X96792000Y-54393000D01*
X96792000Y-54413000D01*
X97891250Y-54413000D01*
X98050000Y-54254250D01*
X98050000Y-53587458D01*
X98025597Y-53464777D01*
X97977730Y-53349215D01*
X97924713Y-53269869D01*
X97945537Y-53244494D01*
X98004502Y-53134180D01*
X98040812Y-53014482D01*
X98053072Y-52890000D01*
X98053072Y-51110000D01*
X98040812Y-50985518D01*
X98004502Y-50865820D01*
X97945537Y-50755506D01*
X97924713Y-50730131D01*
X97977730Y-50650785D01*
X98025597Y-50535223D01*
X98050000Y-50412542D01*
X98050000Y-49979721D01*
X102315000Y-49979721D01*
X102315000Y-50400279D01*
X102397047Y-50812756D01*
X102557988Y-51201302D01*
X102791637Y-51550983D01*
X103089017Y-51848363D01*
X103438698Y-52082012D01*
X103827244Y-52242953D01*
X104239721Y-52325000D01*
X104660279Y-52325000D01*
X105072756Y-52242953D01*
X105461302Y-52082012D01*
X105810983Y-51848363D01*
X106108363Y-51550983D01*
X106342012Y-51201302D01*
X106502953Y-50812756D01*
X106585000Y-50400279D01*
X106585000Y-49979721D01*
X106502953Y-49567244D01*
X106342012Y-49178698D01*
X106108363Y-48829017D01*
X105810983Y-48531637D01*
X105461302Y-48297988D01*
X105072756Y-48137047D01*
X104660279Y-48055000D01*
X104239721Y-48055000D01*
X103827244Y-48137047D01*
X103438698Y-48297988D01*
X103089017Y-48531637D01*
X102791637Y-48829017D01*
X102557988Y-49178698D01*
X102397047Y-49567244D01*
X102315000Y-49979721D01*
X98050000Y-49979721D01*
X98050000Y-49745750D01*
X97891250Y-49587000D01*
X96792000Y-49587000D01*
X96792000Y-49607000D01*
X96538000Y-49607000D01*
X96538000Y-49587000D01*
X95438750Y-49587000D01*
X95280000Y-49745750D01*
X95280000Y-50412542D01*
X95304403Y-50535223D01*
X95352270Y-50650785D01*
X95405287Y-50730131D01*
X95384463Y-50755506D01*
X95325498Y-50865820D01*
X95289188Y-50985518D01*
X95276928Y-51110000D01*
X95276928Y-51165000D01*
X95045868Y-51165000D01*
X93685000Y-49804133D01*
X93685000Y-40950000D01*
X95276928Y-40950000D01*
X95276928Y-42730000D01*
X95289188Y-42854482D01*
X95325498Y-42974180D01*
X95384463Y-43084494D01*
X95405287Y-43109869D01*
X95352270Y-43189215D01*
X95304403Y-43304777D01*
X95280000Y-43427458D01*
X95280000Y-44094250D01*
X95438750Y-44253000D01*
X96538000Y-44253000D01*
X96538000Y-44233000D01*
X96792000Y-44233000D01*
X96792000Y-44253000D01*
X96812000Y-44253000D01*
X96812000Y-44507000D01*
X96792000Y-44507000D01*
X96792000Y-44527000D01*
X96538000Y-44527000D01*
X96538000Y-44507000D01*
X95438750Y-44507000D01*
X95280000Y-44665750D01*
X95280000Y-45332542D01*
X95304403Y-45455223D01*
X95352270Y-45570785D01*
X95405287Y-45650131D01*
X95384463Y-45675506D01*
X95325498Y-45785820D01*
X95289188Y-45905518D01*
X95276928Y-46030000D01*
X95276928Y-47810000D01*
X95289188Y-47934482D01*
X95325498Y-48054180D01*
X95384463Y-48164494D01*
X95405287Y-48189869D01*
X95352270Y-48269215D01*
X95304403Y-48384777D01*
X95280000Y-48507458D01*
X95280000Y-49174250D01*
X95438750Y-49333000D01*
X96538000Y-49333000D01*
X96538000Y-49313000D01*
X96792000Y-49313000D01*
X96792000Y-49333000D01*
X97891250Y-49333000D01*
X98050000Y-49174250D01*
X98050000Y-48507458D01*
X98025597Y-48384777D01*
X97977730Y-48269215D01*
X97924713Y-48189869D01*
X97945537Y-48164494D01*
X98004502Y-48054180D01*
X98040812Y-47934482D01*
X98053072Y-47810000D01*
X98053072Y-46572796D01*
X99410869Y-45215000D01*
X102261928Y-45215000D01*
X102261928Y-45880000D01*
X102274188Y-46004482D01*
X102310498Y-46124180D01*
X102369463Y-46234494D01*
X102448815Y-46331185D01*
X102545506Y-46410537D01*
X102655820Y-46469502D01*
X102775518Y-46505812D01*
X102900000Y-46518072D01*
X105900000Y-46518072D01*
X106024482Y-46505812D01*
X106144180Y-46469502D01*
X106254494Y-46410537D01*
X106351185Y-46331185D01*
X106430537Y-46234494D01*
X106489502Y-46124180D01*
X106525812Y-46004482D01*
X106538072Y-45880000D01*
X106538072Y-42880000D01*
X106525812Y-42755518D01*
X106489502Y-42635820D01*
X106430537Y-42525506D01*
X106351185Y-42428815D01*
X106254494Y-42349463D01*
X106144180Y-42290498D01*
X106024482Y-42254188D01*
X105900000Y-42241928D01*
X102900000Y-42241928D01*
X102775518Y-42254188D01*
X102655820Y-42290498D01*
X102545506Y-42349463D01*
X102473776Y-42408331D01*
X102479446Y-42401421D01*
X103600941Y-41279926D01*
X103777244Y-41352953D01*
X104189721Y-41435000D01*
X104610279Y-41435000D01*
X105022756Y-41352953D01*
X105411302Y-41192012D01*
X105760983Y-40958363D01*
X106058363Y-40660983D01*
X106292012Y-40311302D01*
X106452953Y-39922756D01*
X106535000Y-39510279D01*
X106535000Y-39089721D01*
X106452953Y-38677244D01*
X106292012Y-38288698D01*
X106058363Y-37939017D01*
X105760983Y-37641637D01*
X105411302Y-37407988D01*
X105022756Y-37247047D01*
X104610279Y-37165000D01*
X104189721Y-37165000D01*
X103777244Y-37247047D01*
X103388698Y-37407988D01*
X103039017Y-37641637D01*
X102741637Y-37939017D01*
X102507988Y-38288698D01*
X102347047Y-38677244D01*
X102265000Y-39089721D01*
X102265000Y-39510279D01*
X102347047Y-39922756D01*
X102420074Y-40099059D01*
X101514133Y-41005000D01*
X98053072Y-41005000D01*
X98053072Y-40950000D01*
X98040812Y-40825518D01*
X98004502Y-40705820D01*
X97945537Y-40595506D01*
X97924713Y-40570131D01*
X97977730Y-40490785D01*
X98025597Y-40375223D01*
X98050000Y-40252542D01*
X98050000Y-39585750D01*
X97891250Y-39427000D01*
X96792000Y-39427000D01*
X96792000Y-39447000D01*
X96538000Y-39447000D01*
X96538000Y-39427000D01*
X95438750Y-39427000D01*
X95280000Y-39585750D01*
X95280000Y-40252542D01*
X95304403Y-40375223D01*
X95352270Y-40490785D01*
X95405287Y-40570131D01*
X95384463Y-40595506D01*
X95325498Y-40705820D01*
X95289188Y-40825518D01*
X95276928Y-40950000D01*
X93685000Y-40950000D01*
X93685000Y-35870000D01*
X95276928Y-35870000D01*
X95276928Y-37650000D01*
X95289188Y-37774482D01*
X95325498Y-37894180D01*
X95384463Y-38004494D01*
X95405287Y-38029869D01*
X95352270Y-38109215D01*
X95304403Y-38224777D01*
X95280000Y-38347458D01*
X95280000Y-39014250D01*
X95438750Y-39173000D01*
X96538000Y-39173000D01*
X96538000Y-39153000D01*
X96792000Y-39153000D01*
X96792000Y-39173000D01*
X97891250Y-39173000D01*
X98050000Y-39014250D01*
X98050000Y-38585000D01*
X98365223Y-38585000D01*
X98392416Y-38612193D01*
X98574218Y-38733669D01*
X98776225Y-38817343D01*
X98990675Y-38860000D01*
X99209325Y-38860000D01*
X99423775Y-38817343D01*
X99625782Y-38733669D01*
X99807584Y-38612193D01*
X99962193Y-38457584D01*
X100083669Y-38275782D01*
X100167343Y-38073775D01*
X100210000Y-37859325D01*
X100210000Y-37640675D01*
X100167343Y-37426225D01*
X100083669Y-37224218D01*
X99962193Y-37042416D01*
X99807584Y-36887807D01*
X99625782Y-36766331D01*
X99423775Y-36682657D01*
X99209325Y-36640000D01*
X98990675Y-36640000D01*
X98776225Y-36682657D01*
X98574218Y-36766331D01*
X98392416Y-36887807D01*
X98365223Y-36915000D01*
X98053072Y-36915000D01*
X98053072Y-35870000D01*
X98040812Y-35745518D01*
X98004502Y-35625820D01*
X97945537Y-35515506D01*
X97866185Y-35418815D01*
X97769494Y-35339463D01*
X97659180Y-35280498D01*
X97539482Y-35244188D01*
X97415000Y-35231928D01*
X95915000Y-35231928D01*
X95790518Y-35244188D01*
X95670820Y-35280498D01*
X95560506Y-35339463D01*
X95463815Y-35418815D01*
X95384463Y-35515506D01*
X95325498Y-35625820D01*
X95289188Y-35745518D01*
X95276928Y-35870000D01*
X93685000Y-35870000D01*
X93685000Y-35445868D01*
X94075868Y-35055000D01*
X102434961Y-35055000D01*
X102507988Y-35231302D01*
X102741637Y-35580983D01*
X103039017Y-35878363D01*
X103388698Y-36112012D01*
X103777244Y-36272953D01*
X104189721Y-36355000D01*
X104610279Y-36355000D01*
X105022756Y-36272953D01*
X105411302Y-36112012D01*
X105760983Y-35878363D01*
X106058363Y-35580983D01*
X106292012Y-35231302D01*
X106452953Y-34842756D01*
X106535000Y-34430279D01*
X106535000Y-34009721D01*
X106452953Y-33597244D01*
X106292012Y-33208698D01*
X106058363Y-32859017D01*
X105760983Y-32561637D01*
X105411302Y-32327988D01*
X105022756Y-32167047D01*
X104610279Y-32085000D01*
X104189721Y-32085000D01*
X103777244Y-32167047D01*
X103388698Y-32327988D01*
X103039017Y-32561637D01*
X102741637Y-32859017D01*
X102507988Y-33208698D01*
X102434961Y-33385000D01*
X93771018Y-33385000D01*
X93730000Y-33380960D01*
X93688981Y-33385000D01*
X93566311Y-33397082D01*
X93408913Y-33444828D01*
X93263854Y-33522364D01*
X93136709Y-33626709D01*
X93110563Y-33658568D01*
X92288578Y-34480555D01*
X92256709Y-34506709D01*
X92152365Y-34633854D01*
X92152364Y-34633855D01*
X92074828Y-34778914D01*
X92027082Y-34936312D01*
X92010960Y-35100000D01*
X90110000Y-35100000D01*
X90110000Y-33787325D01*
X90113676Y-33750000D01*
X90110000Y-33712675D01*
X90110000Y-33712667D01*
X90099003Y-33601014D01*
X90055546Y-33457753D01*
X89984974Y-33325724D01*
X89890001Y-33209999D01*
X89861004Y-33186202D01*
X87063804Y-30389003D01*
X87040001Y-30359999D01*
X86924276Y-30265026D01*
X86887622Y-30245434D01*
X86875812Y-30125518D01*
X86839502Y-30005820D01*
X86780537Y-29895506D01*
X86701185Y-29798815D01*
X86604494Y-29719463D01*
X86494180Y-29660498D01*
X86374482Y-29624188D01*
X86250000Y-29611928D01*
X84750000Y-29611928D01*
X84625518Y-29624188D01*
X84505820Y-29660498D01*
X84395506Y-29719463D01*
X84298815Y-29798815D01*
X84219463Y-29895506D01*
X84160498Y-30005820D01*
X84150000Y-30040427D01*
X84139502Y-30005820D01*
X84080537Y-29895506D01*
X84001185Y-29798815D01*
X83904494Y-29719463D01*
X83794180Y-29660498D01*
X83674482Y-29624188D01*
X83560000Y-29612913D01*
X83560000Y-26238072D01*
X83950000Y-26238072D01*
X84074482Y-26225812D01*
X84194180Y-26189502D01*
X84304494Y-26130537D01*
X84401185Y-26051185D01*
X84480537Y-25954494D01*
X84539502Y-25844180D01*
X84545056Y-25825873D01*
X84611495Y-25892312D01*
X84862905Y-26060299D01*
X85142257Y-26176011D01*
X85438816Y-26235000D01*
X85741184Y-26235000D01*
X86037743Y-26176011D01*
X86317095Y-26060299D01*
X86568505Y-25892312D01*
X86782312Y-25678505D01*
X86950299Y-25427095D01*
X87066011Y-25147743D01*
X87119293Y-24879872D01*
X102165000Y-24879872D01*
X102165000Y-25320128D01*
X102250890Y-25751925D01*
X102419369Y-26158669D01*
X102663962Y-26524729D01*
X102975271Y-26836038D01*
X103341331Y-27080631D01*
X103748075Y-27249110D01*
X104179872Y-27335000D01*
X104620128Y-27335000D01*
X105051925Y-27249110D01*
X105458669Y-27080631D01*
X105824729Y-26836038D01*
X106136038Y-26524729D01*
X106380631Y-26158669D01*
X106549110Y-25751925D01*
X106635000Y-25320128D01*
X106635000Y-24879872D01*
X106549110Y-24448075D01*
X106380631Y-24041331D01*
X106136038Y-23675271D01*
X105824729Y-23363962D01*
X105458669Y-23119369D01*
X105051925Y-22950890D01*
X104620128Y-22865000D01*
X104179872Y-22865000D01*
X103748075Y-22950890D01*
X103341331Y-23119369D01*
X102975271Y-23363962D01*
X102663962Y-23675271D01*
X102419369Y-24041331D01*
X102250890Y-24448075D01*
X102165000Y-24879872D01*
X87119293Y-24879872D01*
X87125000Y-24851184D01*
X87125000Y-24548816D01*
X87066011Y-24252257D01*
X86950299Y-23972905D01*
X86782312Y-23721495D01*
X86568505Y-23507688D01*
X86347028Y-23359702D01*
X86339003Y-23278222D01*
X86295546Y-23134961D01*
X86263109Y-23074276D01*
X86224974Y-23002931D01*
X86153799Y-22916205D01*
X86130001Y-22887207D01*
X86101002Y-22863409D01*
X85376595Y-22139002D01*
X85352793Y-22109999D01*
X85237068Y-22015026D01*
X85105039Y-21944454D01*
X84961778Y-21900997D01*
X84850125Y-21890000D01*
X84850114Y-21890000D01*
X84812792Y-21886324D01*
X84775470Y-21890000D01*
X80937333Y-21890000D01*
X80900000Y-21886323D01*
X80862667Y-21890000D01*
X80751014Y-21900997D01*
X80607753Y-21944454D01*
X80475724Y-22015026D01*
X80359999Y-22109999D01*
X80336201Y-22138997D01*
X77989003Y-24486196D01*
X77959999Y-24509999D01*
X77904871Y-24577174D01*
X77865026Y-24625724D01*
X77825324Y-24700001D01*
X77794454Y-24757754D01*
X77750997Y-24901015D01*
X77740000Y-25012668D01*
X77740000Y-25012678D01*
X77736324Y-25050000D01*
X77740000Y-25087322D01*
X77740001Y-38485197D01*
X70839003Y-45386196D01*
X70809999Y-45409999D01*
X70781723Y-45444454D01*
X70715026Y-45525724D01*
X70686648Y-45578815D01*
X70644454Y-45657754D01*
X70600997Y-45801015D01*
X70590000Y-45912668D01*
X70590000Y-45912678D01*
X70586324Y-45950000D01*
X70590000Y-45987323D01*
X70590000Y-47101646D01*
X70499482Y-47074188D01*
X70375000Y-47061928D01*
X70010000Y-47061928D01*
X70010000Y-46753711D01*
X70053937Y-46709774D01*
X70167205Y-46540256D01*
X70245226Y-46351898D01*
X70285000Y-46151939D01*
X70285000Y-45948061D01*
X70245226Y-45748102D01*
X70167205Y-45559744D01*
X70053937Y-45390226D01*
X69909774Y-45246063D01*
X69881767Y-45227349D01*
X71967845Y-43141272D01*
X72098102Y-43195226D01*
X72298061Y-43235000D01*
X72501939Y-43235000D01*
X72701898Y-43195226D01*
X72890256Y-43117205D01*
X73059774Y-43003937D01*
X73203937Y-42859774D01*
X73317205Y-42690256D01*
X73395226Y-42501898D01*
X73435000Y-42301939D01*
X73435000Y-42098061D01*
X73395226Y-41898102D01*
X73317205Y-41709744D01*
X73203937Y-41540226D01*
X73059774Y-41396063D01*
X72890256Y-41282795D01*
X72701898Y-41204774D01*
X72501939Y-41165000D01*
X72298061Y-41165000D01*
X72098102Y-41204774D01*
X71909744Y-41282795D01*
X71740226Y-41396063D01*
X71685276Y-41451013D01*
X71549344Y-41492247D01*
X71542068Y-41494454D01*
X71410038Y-41565026D01*
X71337841Y-41624277D01*
X71294314Y-41659999D01*
X71270516Y-41688997D01*
X70882089Y-42077424D01*
X70895547Y-42052246D01*
X70910276Y-42003689D01*
X70939004Y-41908985D01*
X70950001Y-41797332D01*
X70950001Y-41797322D01*
X70953677Y-41759999D01*
X70950001Y-41722676D01*
X70950001Y-40433321D01*
X70967050Y-40435000D01*
X71112950Y-40435000D01*
X71331111Y-40413513D01*
X71611034Y-40328599D01*
X71869014Y-40190706D01*
X72095134Y-40005134D01*
X72280706Y-39779014D01*
X72418599Y-39521034D01*
X72503513Y-39241111D01*
X72532185Y-38950000D01*
X72503513Y-38658889D01*
X72418599Y-38378966D01*
X72280706Y-38120986D01*
X72095134Y-37894866D01*
X71869014Y-37709294D01*
X71611034Y-37571401D01*
X71331111Y-37486487D01*
X71112950Y-37465000D01*
X70967050Y-37465000D01*
X70748889Y-37486487D01*
X70468966Y-37571401D01*
X70210986Y-37709294D01*
X69984866Y-37894866D01*
X69960393Y-37924687D01*
X69939502Y-37855820D01*
X69880537Y-37745506D01*
X69801185Y-37648815D01*
X69704494Y-37569463D01*
X69594180Y-37510498D01*
X69474482Y-37474188D01*
X69350000Y-37461928D01*
X67650000Y-37461928D01*
X67525518Y-37474188D01*
X67405820Y-37510498D01*
X67295506Y-37569463D01*
X67198815Y-37648815D01*
X67119463Y-37745506D01*
X67060498Y-37855820D01*
X67024188Y-37975518D01*
X67011928Y-38100000D01*
X67011928Y-39800000D01*
X67024188Y-39924482D01*
X67060498Y-40044180D01*
X67119463Y-40154494D01*
X67198815Y-40251185D01*
X67295506Y-40330537D01*
X67405820Y-40389502D01*
X67525518Y-40425812D01*
X67650000Y-40438072D01*
X69350000Y-40438072D01*
X69430001Y-40430193D01*
X69430002Y-41445196D01*
X65289003Y-45586196D01*
X65259999Y-45609999D01*
X65220809Y-45657753D01*
X65165026Y-45725724D01*
X65124782Y-45801015D01*
X65094454Y-45857754D01*
X65050997Y-46001015D01*
X65040000Y-46112668D01*
X65040000Y-46112678D01*
X65036324Y-46150000D01*
X65040000Y-46187323D01*
X65040001Y-48022762D01*
X65025518Y-48024188D01*
X64905820Y-48060498D01*
X64795506Y-48119463D01*
X64698815Y-48198815D01*
X64619463Y-48295506D01*
X64560498Y-48405820D01*
X64524188Y-48525518D01*
X64511928Y-48650000D01*
X64511928Y-48718948D01*
X64425724Y-48765026D01*
X64309999Y-48859999D01*
X64286201Y-48888997D01*
X62460000Y-50715199D01*
X62460000Y-48314801D01*
X63889802Y-46885000D01*
X63951939Y-46885000D01*
X64151898Y-46845226D01*
X64340256Y-46767205D01*
X64509774Y-46653937D01*
X64653937Y-46509774D01*
X64767205Y-46340256D01*
X64845226Y-46151898D01*
X64885000Y-45951939D01*
X64885000Y-45748061D01*
X64845226Y-45548102D01*
X64767205Y-45359744D01*
X64653937Y-45190226D01*
X64509774Y-45046063D01*
X64340256Y-44932795D01*
X64151898Y-44854774D01*
X63951939Y-44815000D01*
X63748061Y-44815000D01*
X63548102Y-44854774D01*
X63359744Y-44932795D01*
X63190226Y-45046063D01*
X63046063Y-45190226D01*
X62932795Y-45359744D01*
X62854774Y-45548102D01*
X62815000Y-45748061D01*
X62815000Y-45810198D01*
X61188998Y-47436201D01*
X61160000Y-47459999D01*
X61136202Y-47488997D01*
X61136201Y-47488998D01*
X61065026Y-47575724D01*
X60994454Y-47707754D01*
X60964790Y-47805546D01*
X60950998Y-47851014D01*
X60940034Y-47962332D01*
X60936324Y-48000000D01*
X60710000Y-48000000D01*
X60710000Y-32914344D01*
X68015000Y-32914344D01*
X68015000Y-33285656D01*
X68087439Y-33649834D01*
X68229534Y-33992882D01*
X68435825Y-34301618D01*
X68698382Y-34564175D01*
X69007118Y-34770466D01*
X69350166Y-34912561D01*
X69714344Y-34985000D01*
X70085656Y-34985000D01*
X70449834Y-34912561D01*
X70792882Y-34770466D01*
X71101618Y-34564175D01*
X71364175Y-34301618D01*
X71570466Y-33992882D01*
X71712561Y-33649834D01*
X71785000Y-33285656D01*
X71785000Y-32914344D01*
X71712561Y-32550166D01*
X71570466Y-32207118D01*
X71364175Y-31898382D01*
X71101618Y-31635825D01*
X70792882Y-31429534D01*
X70449834Y-31287439D01*
X70085656Y-31215000D01*
X69714344Y-31215000D01*
X69350166Y-31287439D01*
X69007118Y-31429534D01*
X68698382Y-31635825D01*
X68435825Y-31898382D01*
X68229534Y-32207118D01*
X68087439Y-32550166D01*
X68015000Y-32914344D01*
X60710000Y-32914344D01*
X60710000Y-24879872D01*
X62765000Y-24879872D01*
X62765000Y-25320128D01*
X62850890Y-25751925D01*
X63019369Y-26158669D01*
X63263962Y-26524729D01*
X63575271Y-26836038D01*
X63941331Y-27080631D01*
X64348075Y-27249110D01*
X64779872Y-27335000D01*
X65220128Y-27335000D01*
X65651925Y-27249110D01*
X66058669Y-27080631D01*
X66424729Y-26836038D01*
X66736038Y-26524729D01*
X66980631Y-26158669D01*
X67149110Y-25751925D01*
X67235000Y-25320128D01*
X67235000Y-24879872D01*
X67149110Y-24448075D01*
X66980631Y-24041331D01*
X66736038Y-23675271D01*
X66424729Y-23363962D01*
X66058669Y-23119369D01*
X65651925Y-22950890D01*
X65220128Y-22865000D01*
X64779872Y-22865000D01*
X64348075Y-22950890D01*
X63941331Y-23119369D01*
X63575271Y-23363962D01*
X63263962Y-23675271D01*
X63019369Y-24041331D01*
X62850890Y-24448075D01*
X62765000Y-24879872D01*
X60710000Y-24879872D01*
X60710000Y-20710000D01*
X109290001Y-20710000D01*
X109290000Y-89290000D01*
G04 #@! TD*
M02*
