<?xml version="1.0" encoding="UTF-8" standalone="no"?>
<!DOCTYPE svg PUBLIC "-//W3C//DTD SVG 1.1//EN"
 "http://www.w3.org/Graphics/SVG/1.1/DTD/svg11.dtd">
<!-- Generated by graphviz version 2.43.0 (0)
 -->
<!-- Title: gpio_exti.h Pages: 1 -->
<svg width="436pt" height="137pt"
 viewBox="0.00 0.00 435.50 137.00" xmlns="http://www.w3.org/2000/svg" xmlns:xlink="http://www.w3.org/1999/xlink">
<g id="graph0" class="graph" transform="scale(1 1) rotate(0) translate(4 133)">
<title>gpio_exti.h</title>
<!-- Node1 -->
<g id="Node000001" class="node">
<title>Node1</title>
<g id="a_Node000001"><a xlink:title="Contains GPIO and EXTI hardware abstraction layer prototypes.">
<polygon fill="#999999" stroke="#666666" points="248.5,-129 177.5,-129 177.5,-110 248.5,-110 248.5,-129"/>
<text text-anchor="middle" x="213" y="-117" font-family="Helvetica,sans-Serif" font-size="10.00">gpio_exti.h</text>
</a>
</g>
</g>
<!-- Node2 -->
<g id="Node000002" class="node">
<title>Node2</title>
<g id="a_Node000002"><a xlink:href="../../d4/dfb/buttons_8c.html" target="_top" xlink:title="Contains functions to check the button state in non&#45;blocking mode.">
<polygon fill="white" stroke="#666666" points="62,-74 0,-74 0,-55 62,-55 62,-74"/>
<text text-anchor="middle" x="31" y="-62" font-family="Helvetica,sans-Serif" font-size="10.00">buttons.c</text>
</a>
</g>
</g>
<!-- Node1&#45;&gt;Node2 -->
<g id="edge1_Node000001_Node000002" class="edge">
<title>Node1&#45;&gt;Node2</title>
<g id="a_edge1_Node000001_Node000002"><a xlink:title=" ">
<path fill="none" stroke="#63b8ff" d="M174.14,-107.18C140.1,-97.27 91.38,-83.08 60.47,-74.08"/>
<polygon fill="#63b8ff" stroke="#63b8ff" points="173.18,-110.55 183.76,-109.98 175.14,-103.83 173.18,-110.55"/>
</a>
</g>
</g>
<!-- Node3 -->
<g id="Node000003" class="node">
<title>Node3</title>
<g id="a_Node000003"><a xlink:href="../../d2/da8/gpio__exti_8c.html" target="_top" xlink:title="Contains GPIO and EXTI HAL functions.">
<polygon fill="white" stroke="#666666" points="150,-74 80,-74 80,-55 150,-55 150,-74"/>
<text text-anchor="middle" x="115" y="-62" font-family="Helvetica,sans-Serif" font-size="10.00">gpio_exti.c</text>
</a>
</g>
</g>
<!-- Node1&#45;&gt;Node3 -->
<g id="edge2_Node000001_Node000003" class="edge">
<title>Node1&#45;&gt;Node3</title>
<g id="a_edge2_Node000001_Node000003"><a xlink:title=" ">
<path fill="none" stroke="#63b8ff" d="M187.97,-104.97C170.06,-95.28 146.47,-82.52 131.03,-74.17"/>
<polygon fill="#63b8ff" stroke="#63b8ff" points="186.79,-108.31 197.25,-109.98 190.12,-102.15 186.79,-108.31"/>
</a>
</g>
</g>
<!-- Node4 -->
<g id="Node000004" class="node">
<title>Node4</title>
<g id="a_Node000004"><a xlink:href="../../db/da0/led_8h.html" target="_top" xlink:title="contains functions to turn LED on and off">
<polygon fill="white" stroke="#666666" points="209.5,-74 168.5,-74 168.5,-55 209.5,-55 209.5,-74"/>
<text text-anchor="middle" x="189" y="-62" font-family="Helvetica,sans-Serif" font-size="10.00">led.h</text>
</a>
</g>
</g>
<!-- Node1&#45;&gt;Node4 -->
<g id="edge3_Node000001_Node000004" class="edge">
<title>Node1&#45;&gt;Node4</title>
<g id="a_edge3_Node000001_Node000004"><a xlink:title=" ">
<path fill="none" stroke="#63b8ff" d="M204.86,-100.53C200.82,-91.6 196.12,-81.22 192.89,-74.09"/>
<polygon fill="#63b8ff" stroke="#63b8ff" points="201.72,-102.08 209.04,-109.75 208.1,-99.19 201.72,-102.08"/>
</a>
</g>
</g>
<!-- Node6 -->
<g id="Node000006" class="node">
<title>Node6</title>
<g id="a_Node000006"><a xlink:href="../../d0/d29/main_8c.html" target="_top" xlink:title="Main file for psg14a_emu.">
<polygon fill="white" stroke="#666666" points="280,-19 230,-19 230,0 280,0 280,-19"/>
<text text-anchor="middle" x="255" y="-7" font-family="Helvetica,sans-Serif" font-size="10.00">main.c</text>
</a>
</g>
</g>
<!-- Node1&#45;&gt;Node6 -->
<g id="edge7_Node000001_Node000006" class="edge">
<title>Node1&#45;&gt;Node6</title>
<g id="a_edge7_Node000001_Node000006"><a xlink:title=" ">
<path fill="none" stroke="#63b8ff" d="M220.15,-100.12C229.31,-76.56 244.83,-36.66 251.63,-19.16"/>
<polygon fill="#63b8ff" stroke="#63b8ff" points="216.8,-99.07 216.44,-109.66 223.32,-101.61 216.8,-99.07"/>
</a>
</g>
</g>
<!-- Node8 -->
<g id="Node000008" class="node">
<title>Node8</title>
<g id="a_Node000008"><a xlink:href="../../de/d3c/main__outputs_8c.html" target="_top" xlink:title="Contains functions for controlling main outputs.">
<polygon fill="white" stroke="#666666" points="358,-74 266,-74 266,-55 358,-55 358,-74"/>
<text text-anchor="middle" x="312" y="-62" font-family="Helvetica,sans-Serif" font-size="10.00">main_outputs.c</text>
</a>
</g>
</g>
<!-- Node1&#45;&gt;Node8 -->
<g id="edge8_Node000001_Node000008" class="edge">
<title>Node1&#45;&gt;Node8</title>
<g id="a_edge8_Node000001_Node000008"><a xlink:title=" ">
<path fill="none" stroke="#63b8ff" d="M237.78,-105.23C255.94,-95.51 280.06,-82.6 295.8,-74.17"/>
<polygon fill="#63b8ff" stroke="#63b8ff" points="236.07,-102.18 228.91,-109.98 239.37,-108.35 236.07,-102.18"/>
</a>
</g>
</g>
<!-- Node9 -->
<g id="Node000009" class="node">
<title>Node9</title>
<g id="a_Node000009"><a xlink:href="../../d9/dbd/sleep_8c.html" target="_top" xlink:title=" ">
<polygon fill="white" stroke="#666666" points="427.5,-74 376.5,-74 376.5,-55 427.5,-55 427.5,-74"/>
<text text-anchor="middle" x="402" y="-62" font-family="Helvetica,sans-Serif" font-size="10.00">sleep.c</text>
</a>
</g>
</g>
<!-- Node1&#45;&gt;Node9 -->
<g id="edge9_Node000001_Node000009" class="edge">
<title>Node1&#45;&gt;Node9</title>
<g id="a_edge9_Node000001_Node000009"><a xlink:title=" ">
<path fill="none" stroke="#63b8ff" d="M253.38,-107.18C290.56,-96.75 344.62,-81.59 376.26,-72.72"/>
<polygon fill="#63b8ff" stroke="#63b8ff" points="252.05,-103.91 243.37,-109.98 253.94,-110.65 252.05,-103.91"/>
</a>
</g>
</g>
<!-- Node5 -->
<g id="Node000005" class="node">
<title>Node5</title>
<g id="a_Node000005"><a xlink:href="../../d6/dcc/led__control_8c.html" target="_top" xlink:title="Contains led blinking functions.">
<polygon fill="white" stroke="#666666" points="113.5,-19 34.5,-19 34.5,0 113.5,0 113.5,-19"/>
<text text-anchor="middle" x="74" y="-7" font-family="Helvetica,sans-Serif" font-size="10.00">led_control.c</text>
</a>
</g>
</g>
<!-- Node4&#45;&gt;Node5 -->
<g id="edge4_Node000004_Node000005" class="edge">
<title>Node4&#45;&gt;Node5</title>
<g id="a_edge4_Node000004_Node000005"><a xlink:title=" ">
<path fill="none" stroke="#63b8ff" d="M161.37,-50.77C140.16,-40.99 111.44,-27.75 92.81,-19.17"/>
<polygon fill="#63b8ff" stroke="#63b8ff" points="159.98,-53.98 170.52,-54.98 162.91,-47.62 159.98,-53.98"/>
</a>
</g>
</g>
<!-- Node4&#45;&gt;Node6 -->
<g id="edge5_Node000004_Node000006" class="edge">
<title>Node4&#45;&gt;Node6</title>
<g id="a_edge5_Node000004_Node000006"><a xlink:title=" ">
<path fill="none" stroke="#63b8ff" d="M207.55,-48.6C219.38,-39.11 234.29,-27.13 244.2,-19.17"/>
<polygon fill="#63b8ff" stroke="#63b8ff" points="205.21,-45.99 199.6,-54.98 209.59,-51.45 205.21,-45.99"/>
</a>
</g>
</g>
<!-- Node7 -->
<g id="Node000007" class="node">
<title>Node7</title>
<g id="a_Node000007"><a xlink:href="../../d4/de7/main__cycle_8c.html" target="_top" xlink:title="Contains functions that are called in while(1) main cycle and after it.">
<polygon fill="white" stroke="#666666" points="212,-19 132,-19 132,0 212,0 212,-19"/>
<text text-anchor="middle" x="172" y="-7" font-family="Helvetica,sans-Serif" font-size="10.00">main_cycle.c</text>
</a>
</g>
</g>
<!-- Node4&#45;&gt;Node7 -->
<g id="edge6_Node000004_Node000007" class="edge">
<title>Node4&#45;&gt;Node7</title>
<g id="a_edge6_Node000004_Node000007"><a xlink:title=" ">
<path fill="none" stroke="#63b8ff" d="M183.05,-44.95C180.23,-36.15 176.99,-26.06 174.75,-19.09"/>
<polygon fill="#63b8ff" stroke="#63b8ff" points="179.81,-46.29 186.19,-54.75 186.47,-44.16 179.81,-46.29"/>
</a>
</g>
</g>
</g>
</svg>
