<?xml version="1.0" encoding="UTF-8" standalone="no"?>
<!DOCTYPE svg PUBLIC "-//W3C//DTD SVG 1.1//EN"
 "http://www.w3.org/Graphics/SVG/1.1/DTD/svg11.dtd">
<!-- Generated by graphviz version 2.43.0 (0)
 -->
<!-- Title: main.c Pages: 1 -->
<!--zoomable 192 -->

<svg id="main" version="1.1" xmlns="http://www.w3.org/2000/svg" xmlns:xlink="http://www.w3.org/1999/xlink" xml:space="preserve" onload="init(evt)">

<style type="text/css"><![CDATA[
.node, .edge {opacity: 0.7;}
.node.selected, .edge.selected {opacity: 1;}
.edge:hover path { stroke: red; }
.edge:hover polygon { stroke: red; fill: red; }
]]></style>

<defs>
  <circle id="rim" cx="0" cy="0" r="7"/>
  <circle id="rim2" cx="0" cy="0" r="3.5"/>
  <g id="zoomPlus">
    <use xlink:href="#rim" fill="#404040"><set attributeName="fill" to="#808080" begin="zoomplus.mouseover" end="zoomplus.mouseout"/></use>
    <path d="M-4,0h8M0,-4v8" fill="none" stroke="white" stroke-width="1.5" pointer-events="none"/>
  </g>
  <g id="zoomMin">
    <use xlink:href="#rim" fill="#404040"><set attributeName="fill" to="#808080" begin="zoomminus.mouseover" end="zoomminus.mouseout"/></use>
    <path d="M-4,0h8" fill="none" stroke="white" stroke-width="1.5" pointer-events="none"/>
  </g>
  <g id="arrowUp" transform="translate(30 24)">
    <use xlink:href="#rim"/>
    <path pointer-events="none" fill="none" stroke="white" stroke-width="1.5" d="M0,-3.0v7 M-2.5,-0.5L0,-3.0L2.5,-0.5"/>
  </g>
  <g id="arrowRight" transform="rotate(90) translate(36 -43)">
    <use xlink:href="#rim"/>
    <path pointer-events="none" fill="none" stroke="white" stroke-width="1.5" d="M0,-3.0v7 M-2.5,-0.5L0,-3.0L2.5,-0.5"/>
  </g>
  <g id="arrowDown" transform="rotate(180) translate(-30 -48)">
    <use xlink:href="#rim"/>
    <path pointer-events="none" fill="none" stroke="white" stroke-width="1.5" d="M0,-3.0v7 M-2.5,-0.5L0,-3.0L2.5,-0.5"/>
  </g>
  <g id="arrowLeft" transform="rotate(270) translate(-36 17)">
    <use xlink:href="#rim"/>
    <path pointer-events="none" fill="none" stroke="white" stroke-width="1.5" d="M0,-3.0v7 M-2.5,-0.5L0,-3.0L2.5,-0.5"/>
  </g>
  <g id="resetDef">
    <use xlink:href="#rim2" fill="#404040"><set attributeName="fill" to="#808080" begin="reset.mouseover" end="reset.mouseout"/></use>
  </g>
</defs>
<script type="application/ecmascript">
var viewWidth = 523;
var viewHeight = 192;
var sectionId = 'dynsection-0';
</script>
<script type="application/ecmascript" xlink:href="../../svg.min.js"/>
<svg id="graph" class="graph">
<g id="viewport">
<title>main.c</title>
<!-- Node1 -->
<g id="Node000001" class="node">
<title>Node1</title>
<g id="a_Node000001"><a xlink:title="Main file for psg14a_emu.">
<polygon fill="#999999" stroke="#666666" points="269.19,-184 219.19,-184 219.19,-165 269.19,-165 269.19,-184"/>
<text text-anchor="middle" x="244.19" y="-172" font-family="Helvetica,sans-Serif" font-size="10.00">main.c</text>
</a>
</g>
</g>
<!-- Node2 -->
<g id="Node000002" class="node">
<title>Node2</title>
<g id="a_Node000002"><a xlink:title=" ">
<polygon fill="#e0e0e0" stroke="#999999" points="162.69,-19 109.69,-19 109.69,0 162.69,0 162.69,-19"/>
<text text-anchor="middle" x="136.19" y="-7" font-family="Helvetica,sans-Serif" font-size="10.00">stdint.h</text>
</a>
</g>
</g>
<!-- Node1&#45;&gt;Node2 -->
<g id="edge1_Node000001_Node000002" class="edge">
<title>Node1&#45;&gt;Node2</title>
<g id="a_edge1_Node000001_Node000002"><a xlink:title=" ">
<path fill="none" stroke="#63b8ff" d="M219.17,-172.63C164.21,-170.15 35.68,-160.98 9.19,-129 -26.36,-86.09 55.56,-43.39 103.91,-22.95"/>
<polygon fill="#63b8ff" stroke="#63b8ff" points="105.46,-26.1 113.37,-19.05 102.79,-19.63 105.46,-26.1"/>
</a>
</g>
</g>
<!-- Node3 -->
<g id="Node000003" class="node">
<title>Node3</title>
<g id="a_Node000003"><a xlink:href="../../d7/dae/gpio__exti_8h.html" target="_top" xlink:title="Contains GPIO and EXTI hardware abstraction layer prototypes.">
<polygon fill="white" stroke="#666666" points="171.69,-74 100.69,-74 100.69,-55 171.69,-55 171.69,-74"/>
<text text-anchor="middle" x="136.19" y="-62" font-family="Helvetica,sans-Serif" font-size="10.00">gpio_exti.h</text>
</a>
</g>
</g>
<!-- Node1&#45;&gt;Node3 -->
<g id="edge2_Node000001_Node000003" class="edge">
<title>Node1&#45;&gt;Node3</title>
<g id="a_edge2_Node000001_Node000003"><a xlink:title=" ">
<path fill="none" stroke="#63b8ff" d="M238.85,-164.63C230.82,-151.72 214.7,-127.4 197.19,-110 185.7,-98.59 171.09,-87.83 159.06,-79.75"/>
<polygon fill="#63b8ff" stroke="#63b8ff" points="160.73,-76.67 150.45,-74.13 156.91,-82.53 160.73,-76.67"/>
</a>
</g>
</g>
<!-- Node4 -->
<g id="Node000004" class="node">
<title>Node4</title>
<g id="a_Node000004"><a xlink:href="../../d1/daf/clock__and__timers_8h.html" target="_top" xlink:title="Contains clocks and timer functions prototypes.">
<polygon fill="white" stroke="#666666" points="188.69,-129 77.69,-129 77.69,-110 188.69,-110 188.69,-129"/>
<text text-anchor="middle" x="133.19" y="-117" font-family="Helvetica,sans-Serif" font-size="10.00">clock_and_timers.h</text>
</a>
</g>
</g>
<!-- Node1&#45;&gt;Node4 -->
<g id="edge4_Node000001_Node000004" class="edge">
<title>Node1&#45;&gt;Node4</title>
<g id="a_edge4_Node000001_Node000004"><a xlink:title=" ">
<path fill="none" stroke="#63b8ff" d="M226.35,-164.98C208.58,-156.5 181.04,-143.35 160.51,-133.54"/>
<polygon fill="#63b8ff" stroke="#63b8ff" points="161.88,-130.32 151.34,-129.17 158.86,-136.64 161.88,-130.32"/>
</a>
</g>
</g>
<!-- Node5 -->
<g id="Node000005" class="node">
<title>Node5</title>
<g id="a_Node000005"><a xlink:href="../../d8/de2/main__outputs_8h.html" target="_top" xlink:title="Contains functions prototypes for controlling main outputs.">
<polygon fill="white" stroke="#666666" points="371.19,-74 279.19,-74 279.19,-55 371.19,-55 371.19,-74"/>
<text text-anchor="middle" x="325.19" y="-62" font-family="Helvetica,sans-Serif" font-size="10.00">main_outputs.h</text>
</a>
</g>
</g>
<!-- Node1&#45;&gt;Node5 -->
<g id="edge5_Node000001_Node000005" class="edge">
<title>Node1&#45;&gt;Node5</title>
<g id="a_edge5_Node000001_Node000005"><a xlink:title=" ">
<path fill="none" stroke="#63b8ff" d="M261.9,-164.95C275.86,-157.34 294.8,-144.97 306.19,-129 315.69,-115.68 320.49,-97.57 322.89,-84.09"/>
<polygon fill="#63b8ff" stroke="#63b8ff" points="326.37,-84.48 324.39,-74.08 319.45,-83.45 326.37,-84.48"/>
</a>
</g>
</g>
<!-- Node6 -->
<g id="Node000006" class="node">
<title>Node6</title>
<g id="a_Node000006"><a xlink:href="../../d9/d81/sleep_8h.html" target="_top" xlink:title=" ">
<polygon fill="white" stroke="#666666" points="297.19,-129 245.19,-129 245.19,-110 297.19,-110 297.19,-129"/>
<text text-anchor="middle" x="271.19" y="-117" font-family="Helvetica,sans-Serif" font-size="10.00">sleep.h</text>
</a>
</g>
</g>
<!-- Node1&#45;&gt;Node6 -->
<g id="edge7_Node000001_Node000006" class="edge">
<title>Node1&#45;&gt;Node6</title>
<g id="a_edge7_Node000001_Node000006"><a xlink:title=" ">
<path fill="none" stroke="#63b8ff" d="M248.64,-164.75C252.3,-157.57 257.59,-147.18 262.13,-138.27"/>
<polygon fill="#63b8ff" stroke="#63b8ff" points="265.39,-139.59 266.81,-129.09 259.15,-136.41 265.39,-139.59"/>
</a>
</g>
</g>
<!-- Node7 -->
<g id="Node000007" class="node">
<title>Node7</title>
<g id="a_Node000007"><a xlink:href="../../de/d05/buttons_8h.html" target="_top" xlink:title="Contains functions prototypes to check the button state in non&#45;blocking mode.">
<polygon fill="white" stroke="#666666" points="415.19,-129 353.19,-129 353.19,-110 415.19,-110 415.19,-129"/>
<text text-anchor="middle" x="384.19" y="-117" font-family="Helvetica,sans-Serif" font-size="10.00">buttons.h</text>
</a>
</g>
</g>
<!-- Node1&#45;&gt;Node7 -->
<g id="edge8_Node000001_Node000007" class="edge">
<title>Node1&#45;&gt;Node7</title>
<g id="a_edge8_Node000001_Node000007"><a xlink:title=" ">
<path fill="none" stroke="#63b8ff" d="M266.68,-164.98C289.71,-156.27 325.73,-142.63 351.82,-132.75"/>
<polygon fill="#63b8ff" stroke="#63b8ff" points="353.17,-135.98 361.28,-129.17 350.69,-129.44 353.17,-135.98"/>
</a>
</g>
</g>
<!-- Node8 -->
<g id="Node000008" class="node">
<title>Node8</title>
<g id="a_Node000008"><a xlink:href="../../db/da0/led_8h.html" target="_top" xlink:title="contains functions to turn LED on and off">
<polygon fill="white" stroke="#666666" points="59.69,-129 18.69,-129 18.69,-110 59.69,-110 59.69,-129"/>
<text text-anchor="middle" x="39.19" y="-117" font-family="Helvetica,sans-Serif" font-size="10.00">led.h</text>
</a>
</g>
</g>
<!-- Node1&#45;&gt;Node8 -->
<g id="edge10_Node000001_Node000008" class="edge">
<title>Node1&#45;&gt;Node8</title>
<g id="a_edge10_Node000001_Node000008"><a xlink:title=" ">
<path fill="none" stroke="#63b8ff" d="M219.04,-167.46C186.62,-159.6 128.28,-145.22 69.56,-129.3"/>
<polygon fill="#63b8ff" stroke="#63b8ff" points="70.32,-125.88 59.75,-126.63 68.48,-132.64 70.32,-125.88"/>
</a>
</g>
</g>
<!-- Node9 -->
<g id="Node000009" class="node">
<title>Node9</title>
<g id="a_Node000009"><a xlink:href="../../de/d0f/main__cycle_8h.html" target="_top" xlink:title="Contains prototypes of functions that are called in while(1) main cycle and after it.">
<polygon fill="white" stroke="#666666" points="514.69,-129 433.69,-129 433.69,-110 514.69,-110 514.69,-129"/>
<text text-anchor="middle" x="474.19" y="-117" font-family="Helvetica,sans-Serif" font-size="10.00">main_cycle.h</text>
</a>
</g>
</g>
<!-- Node1&#45;&gt;Node9 -->
<g id="edge12_Node000001_Node000009" class="edge">
<title>Node1&#45;&gt;Node9</title>
<g id="a_edge12_Node000001_Node000009"><a xlink:title=" ">
<path fill="none" stroke="#63b8ff" d="M269.24,-167.73C307.06,-159.01 379.41,-142.34 427.23,-131.32"/>
<polygon fill="#63b8ff" stroke="#63b8ff" points="428.09,-134.71 437.04,-129.06 426.51,-127.89 428.09,-134.71"/>
</a>
</g>
</g>
<!-- Node3&#45;&gt;Node2 -->
<g id="edge3_Node000003_Node000002" class="edge">
<title>Node3&#45;&gt;Node2</title>
<g id="a_edge3_Node000003_Node000002"><a xlink:title=" ">
<path fill="none" stroke="#63b8ff" d="M136.19,-54.75C136.19,-47.8 136.19,-37.85 136.19,-29.13"/>
<polygon fill="#63b8ff" stroke="#63b8ff" points="139.69,-29.09 136.19,-19.09 132.69,-29.09 139.69,-29.09"/>
</a>
</g>
</g>
<!-- Node5&#45;&gt;Node2 -->
<g id="edge6_Node000005_Node000002" class="edge">
<title>Node5&#45;&gt;Node2</title>
<g id="a_edge6_Node000005_Node000002"><a xlink:title=" ">
<path fill="none" stroke="#63b8ff" d="M294.82,-54.98C261.58,-45.66 208.29,-30.72 172.77,-20.76"/>
<polygon fill="#63b8ff" stroke="#63b8ff" points="173.38,-17.3 162.81,-17.97 171.49,-24.04 173.38,-17.3"/>
</a>
</g>
</g>
<!-- Node7&#45;&gt;Node5 -->
<g id="edge9_Node000007_Node000005" class="edge">
<title>Node7&#45;&gt;Node5</title>
<g id="a_edge9_Node000007_Node000005"><a xlink:title=" ">
<path fill="none" stroke="#63b8ff" d="M374.71,-109.98C365.98,-102.15 352.84,-90.34 342.29,-80.86"/>
<polygon fill="#63b8ff" stroke="#63b8ff" points="344.62,-78.25 334.84,-74.17 339.94,-83.46 344.62,-78.25"/>
</a>
</g>
</g>
<!-- Node8&#45;&gt;Node3 -->
<g id="edge11_Node000008_Node000003" class="edge">
<title>Node8&#45;&gt;Node3</title>
<g id="a_edge11_Node000008_Node000003"><a xlink:title=" ">
<path fill="none" stroke="#63b8ff" d="M54.77,-109.98C69.95,-101.69 93.28,-88.94 111.08,-79.22"/>
<polygon fill="#63b8ff" stroke="#63b8ff" points="113.22,-82.04 120.32,-74.17 109.86,-75.89 113.22,-82.04"/>
</a>
</g>
</g>
</g>
</svg>

<g id="navigator" transform="translate(0 0)" fill="#404254">
  <rect fill="#f2f5e9" fill-opacity="0.5" stroke="#606060" stroke-width=".5" x="0" y="0" width="60" height="60"/>
  <use id="zoomplus" xlink:href="#zoomPlus" x="17" y="9" onmousedown="handleZoom(evt,'in')"/>
  <use id="zoomminus" xlink:href="#zoomMin" x="42" y="9" onmousedown="handleZoom(evt,'out')"/>
  <use id="reset" xlink:href="#resetDef" x="30" y="36" onmousedown="handleReset()"/>
   <use id="arrowup" xlink:href="#arrowUp" x="0" y="0" onmousedown="handlePan(0,-1)"/>
  <use id="arrowright" xlink:href="#arrowRight" x="0" y="0" onmousedown="handlePan(1,0)"/>
  <use id="arrowdown" xlink:href="#arrowDown" x="0" y="0" onmousedown="handlePan(0,1)"/>
  <use id="arrowleft" xlink:href="#arrowLeft" x="0" y="0" onmousedown="handlePan(-1,0)"/>
</g>
<svg viewBox="0 0 15 15" width="100%" height="30px" preserveAspectRatio="xMaxYMin meet">
 <g id="arrow_out" transform="scale(0.3 0.3)">
  <a xlink:href="main_8c__incl_org.svg" target="_base">
   <rect id="button" ry="5" rx="5" y="6" x="6" height="38" width="38"
        fill="#f2f5e9" fill-opacity="0.5" stroke="#606060" stroke-width="1.0"/>
   <path id="arrow"
     d="M 11.500037,31.436501 C 11.940474,20.09759 22.043105,11.32322 32.158766,21.979434 L 37.068811,17.246167 C 37.068811,17.246167 37.088388,32 37.088388,32 L 22.160133,31.978069 C 22.160133,31.978069 26.997745,27.140456 26.997745,27.140456 C 18.528582,18.264221 13.291696,25.230495 11.500037,31.436501 z"
     style="fill:#404040;"/>
  </a>
 </g>
</svg>

<style type='text/css'>
<![CDATA[
[data-mouse-over-selected='false'] { opacity: 0.7; }
[data-mouse-over-selected='true']  { opacity: 1.0; }
]]>
</style>
<script type="application/ecmascript"><![CDATA[
document.addEventListener('DOMContentLoaded', (event) => {
  highlightEdges();
  highlightAdjacentNodes();
});
]]></script>
</svg>
