<?xml version="1.0" encoding="UTF-8" standalone="no"?>
<!DOCTYPE svg PUBLIC "-//W3C//DTD SVG 1.1//EN"
 "http://www.w3.org/Graphics/SVG/1.1/DTD/svg11.dtd">
<!-- Generated by graphviz version 2.43.0 (0)
 -->
<!-- Title: main_cycle.c Pages: 1 -->
<svg width="494pt" height="192pt"
 viewBox="0.00 0.00 494.00 192.00" xmlns="http://www.w3.org/2000/svg" xmlns:xlink="http://www.w3.org/1999/xlink">

<svg id="main" version="1.1" xmlns="http://www.w3.org/2000/svg" xmlns:xlink="http://www.w3.org/1999/xlink" xml:space="preserve">

<style type="text/css"><![CDATA[
.node, .edge {opacity: 0.7;}
.node.selected, .edge.selected {opacity: 1;}
.edge:hover path { stroke: red; }
.edge:hover polygon { stroke: red; fill: red; }
]]></style>
<script type="application/ecmascript" xlink:href="../../svg.min.js"/>
<svg id="graph" class="graph">
<g id="graph0" class="graph" transform="scale(1 1) rotate(0) translate(4 188)">
<title>main_cycle.c</title>
<!-- Node1 -->
<g id="Node000001" class="node">
<title>Node1</title>
<g id="a_Node000001"><a xlink:title="Contains functions that are called in while(1) main cycle and after it.">
<polygon fill="#999999" stroke="#666666" points="242.5,-184 162.5,-184 162.5,-165 242.5,-165 242.5,-184"/>
<text text-anchor="middle" x="202.5" y="-172" font-family="Helvetica,sans-Serif" font-size="10.00">main_cycle.c</text>
</a>
</g>
</g>
<!-- Node2 -->
<g id="Node000002" class="node">
<title>Node2</title>
<g id="a_Node000002"><a xlink:href="../../de/d0f/main__cycle_8h.html" target="_top" xlink:title="Contains prototypes of functions that are called in while(1) main cycle and after it.">
<polygon fill="white" stroke="#666666" points="81,-129 0,-129 0,-110 81,-110 81,-129"/>
<text text-anchor="middle" x="40.5" y="-117" font-family="Helvetica,sans-Serif" font-size="10.00">main_cycle.h</text>
</a>
</g>
</g>
<!-- Node1&#45;&gt;Node2 -->
<g id="edge1_Node000001_Node000002" class="edge">
<title>Node1&#45;&gt;Node2</title>
<g id="a_edge1_Node000001_Node000002"><a xlink:title=" ">
<path fill="none" stroke="#63b8ff" d="M176.47,-164.98C149.39,-156.13 106.79,-142.19 76.49,-132.28"/>
<polygon fill="#63b8ff" stroke="#63b8ff" points="77.32,-128.87 66.73,-129.08 75.15,-135.52 77.32,-128.87"/>
</a>
</g>
</g>
<!-- Node3 -->
<g id="Node000003" class="node">
<title>Node3</title>
<g id="a_Node000003"><a xlink:href="../../d8/de2/main__outputs_8h.html" target="_top" xlink:title="Contains functions prototypes for controlling main outputs.">
<polygon fill="white" stroke="#666666" points="265.5,-74 173.5,-74 173.5,-55 265.5,-55 265.5,-74"/>
<text text-anchor="middle" x="219.5" y="-62" font-family="Helvetica,sans-Serif" font-size="10.00">main_outputs.h</text>
</a>
</g>
</g>
<!-- Node1&#45;&gt;Node3 -->
<g id="edge2_Node000001_Node000003" class="edge">
<title>Node1&#45;&gt;Node3</title>
<g id="a_edge2_Node000001_Node000003"><a xlink:title=" ">
<path fill="none" stroke="#63b8ff" d="M197.45,-164.75C190.98,-152.39 181.32,-129.19 187.5,-110 190.84,-99.62 197.6,-89.62 204.05,-81.74"/>
<polygon fill="#63b8ff" stroke="#63b8ff" points="206.79,-83.92 210.75,-74.1 201.53,-79.31 206.79,-83.92"/>
</a>
</g>
</g>
<!-- Node5 -->
<g id="Node000005" class="node">
<title>Node5</title>
<g id="a_Node000005"><a xlink:href="../../db/da0/led_8h.html" target="_top" xlink:title="contains functions to turn LED on and off">
<polygon fill="white" stroke="#666666" points="140,-129 99,-129 99,-110 140,-110 140,-129"/>
<text text-anchor="middle" x="119.5" y="-117" font-family="Helvetica,sans-Serif" font-size="10.00">led.h</text>
</a>
</g>
</g>
<!-- Node1&#45;&gt;Node5 -->
<g id="edge4_Node000001_Node000005" class="edge">
<title>Node1&#45;&gt;Node5</title>
<g id="a_edge4_Node000001_Node000005"><a xlink:title=" ">
<path fill="none" stroke="#63b8ff" d="M189.16,-164.98C176.41,-156.84 156.95,-144.41 141.83,-134.76"/>
<polygon fill="#63b8ff" stroke="#63b8ff" points="143.39,-131.6 133.08,-129.17 139.62,-137.5 143.39,-131.6"/>
</a>
</g>
</g>
<!-- Node7 -->
<g id="Node000007" class="node">
<title>Node7</title>
<g id="a_Node000007"><a xlink:href="../../dc/df9/led__control_8h.html" target="_top" xlink:title="Contains led blinking function prototypes.">
<polygon fill="white" stroke="#666666" points="276.5,-129 196.5,-129 196.5,-110 276.5,-110 276.5,-129"/>
<text text-anchor="middle" x="236.5" y="-117" font-family="Helvetica,sans-Serif" font-size="10.00">led_control.h</text>
</a>
</g>
</g>
<!-- Node1&#45;&gt;Node7 -->
<g id="edge7_Node000001_Node000007" class="edge">
<title>Node1&#45;&gt;Node7</title>
<g id="a_edge7_Node000001_Node000007"><a xlink:title=" ">
<path fill="none" stroke="#63b8ff" d="M208.11,-164.75C212.82,-157.42 219.67,-146.73 225.47,-137.7"/>
<polygon fill="#63b8ff" stroke="#63b8ff" points="228.54,-139.4 230.99,-129.09 222.64,-135.62 228.54,-139.4"/>
</a>
</g>
</g>
<!-- Node8 -->
<g id="Node000008" class="node">
<title>Node8</title>
<g id="a_Node000008"><a xlink:href="../../de/d05/buttons_8h.html" target="_top" xlink:title="Contains functions prototypes to check the button state in non&#45;blocking mode.">
<polygon fill="white" stroke="#666666" points="356.5,-129 294.5,-129 294.5,-110 356.5,-110 356.5,-129"/>
<text text-anchor="middle" x="325.5" y="-117" font-family="Helvetica,sans-Serif" font-size="10.00">buttons.h</text>
</a>
</g>
</g>
<!-- Node1&#45;&gt;Node8 -->
<g id="edge8_Node000001_Node000008" class="edge">
<title>Node1&#45;&gt;Node8</title>
<g id="a_edge8_Node000001_Node000008"><a xlink:title=" ">
<path fill="none" stroke="#63b8ff" d="M222.26,-164.98C242.23,-156.38 273.3,-142.99 296.15,-133.15"/>
<polygon fill="#63b8ff" stroke="#63b8ff" points="297.58,-136.34 305.38,-129.17 294.81,-129.91 297.58,-136.34"/>
</a>
</g>
</g>
<!-- Node9 -->
<g id="Node000009" class="node">
<title>Node9</title>
<g id="a_Node000009"><a xlink:href="../../d1/daf/clock__and__timers_8h.html" target="_top" xlink:title="Contains clocks and timer functions prototypes.">
<polygon fill="white" stroke="#666666" points="486,-129 375,-129 375,-110 486,-110 486,-129"/>
<text text-anchor="middle" x="430.5" y="-117" font-family="Helvetica,sans-Serif" font-size="10.00">clock_and_timers.h</text>
</a>
</g>
</g>
<!-- Node1&#45;&gt;Node9 -->
<g id="edge10_Node000001_Node000009" class="edge">
<title>Node1&#45;&gt;Node9</title>
<g id="a_edge10_Node000001_Node000009"><a xlink:title=" ">
<path fill="none" stroke="#63b8ff" d="M239.13,-164.98C278.41,-155.86 340.87,-141.33 383.69,-131.38"/>
<polygon fill="#63b8ff" stroke="#63b8ff" points="384.63,-134.76 393.58,-129.08 383.05,-127.94 384.63,-134.76"/>
</a>
</g>
</g>
<!-- Node4 -->
<g id="Node000004" class="node">
<title>Node4</title>
<g id="a_Node000004"><a xlink:title=" ">
<polygon fill="#e0e0e0" stroke="#999999" points="196,-19 143,-19 143,0 196,0 196,-19"/>
<text text-anchor="middle" x="169.5" y="-7" font-family="Helvetica,sans-Serif" font-size="10.00">stdint.h</text>
</a>
</g>
</g>
<!-- Node3&#45;&gt;Node4 -->
<g id="edge3_Node000003_Node000004" class="edge">
<title>Node3&#45;&gt;Node4</title>
<g id="a_edge3_Node000003_Node000004"><a xlink:title=" ">
<path fill="none" stroke="#63b8ff" d="M211.24,-54.75C204.04,-47.11 193.39,-35.82 184.65,-26.56"/>
<polygon fill="#63b8ff" stroke="#63b8ff" points="187.01,-23.96 177.6,-19.09 181.92,-28.76 187.01,-23.96"/>
</a>
</g>
</g>
<!-- Node6 -->
<g id="Node000006" class="node">
<title>Node6</title>
<g id="a_Node000006"><a xlink:href="../../d7/dae/gpio__exti_8h.html" target="_top" xlink:title="Contains GPIO and EXTI hardware abstraction layer prototypes.">
<polygon fill="white" stroke="#666666" points="155,-74 84,-74 84,-55 155,-55 155,-74"/>
<text text-anchor="middle" x="119.5" y="-62" font-family="Helvetica,sans-Serif" font-size="10.00">gpio_exti.h</text>
</a>
</g>
</g>
<!-- Node5&#45;&gt;Node6 -->
<g id="edge5_Node000005_Node000006" class="edge">
<title>Node5&#45;&gt;Node6</title>
<g id="a_edge5_Node000005_Node000006"><a xlink:title=" ">
<path fill="none" stroke="#63b8ff" d="M119.5,-109.75C119.5,-102.8 119.5,-92.85 119.5,-84.13"/>
<polygon fill="#63b8ff" stroke="#63b8ff" points="123,-84.09 119.5,-74.09 116,-84.09 123,-84.09"/>
</a>
</g>
</g>
<!-- Node6&#45;&gt;Node4 -->
<g id="edge6_Node000006_Node000004" class="edge">
<title>Node6&#45;&gt;Node4</title>
<g id="a_edge6_Node000006_Node000004"><a xlink:title=" ">
<path fill="none" stroke="#63b8ff" d="M127.76,-54.75C134.96,-47.11 145.61,-35.82 154.35,-26.56"/>
<polygon fill="#63b8ff" stroke="#63b8ff" points="157.08,-28.76 161.4,-19.09 151.99,-23.96 157.08,-28.76"/>
</a>
</g>
</g>
<!-- Node8&#45;&gt;Node3 -->
<g id="edge9_Node000008_Node000003" class="edge">
<title>Node8&#45;&gt;Node3</title>
<g id="a_edge9_Node000008_Node000003"><a xlink:title=" ">
<path fill="none" stroke="#63b8ff" d="M308.47,-109.98C291.57,-101.54 265.44,-88.47 245.86,-78.68"/>
<polygon fill="#63b8ff" stroke="#63b8ff" points="247.35,-75.51 236.84,-74.17 244.22,-81.77 247.35,-75.51"/>
</a>
</g>
</g>
</g>
</svg>
</svg>

<style type='text/css'>
<![CDATA[
[data-mouse-over-selected='false'] { opacity: 0.7; }
[data-mouse-over-selected='true']  { opacity: 1.0; }
]]>
</style>
<script type="application/ecmascript"><![CDATA[
document.addEventListener('DOMContentLoaded', (event) => {
  highlightEdges();
  highlightAdjacentNodes();
});
]]></script>
</svg>
