<?xml version="1.0" encoding="UTF-8" standalone="no"?>
<!DOCTYPE svg PUBLIC "-//W3C//DTD SVG 1.1//EN"
 "http://www.w3.org/Graphics/SVG/1.1/DTD/svg11.dtd">
<!-- Generated by graphviz version 2.43.0 (0)
 -->
<!-- Title: mainCyclePreRun Pages: 1 -->
<svg width="239pt" height="138pt"
 viewBox="0.00 0.00 239.00 138.00" xmlns="http://www.w3.org/2000/svg" xmlns:xlink="http://www.w3.org/1999/xlink">
<g id="graph0" class="graph" transform="scale(1 1) rotate(0) translate(4 134)">
<title>mainCyclePreRun</title>
<!-- Node1 -->
<g id="Node000001" class="node">
<title>Node1</title>
<g id="a_Node000001"><a xlink:title="This function is called before main cycle and makes 5s pause to connect debugger if needed.">
<polygon fill="#999999" stroke="#666666" points="103,-74 0,-74 0,-55 103,-55 103,-74"/>
<text text-anchor="middle" x="51.5" y="-62" font-family="Helvetica,sans-Serif" font-size="10.00">mainCyclePreRun</text>
</a>
</g>
</g>
<!-- Node2 -->
<g id="Node000002" class="node">
<title>Node2</title>
<g id="a_Node000002"><a xlink:href="../../d2/da8/gpio__exti_8c.html#a2eaab98c926e448a6e93701b03612772" target="_top" xlink:title=" ">
<polygon fill="white" stroke="#666666" points="231,-130 139,-130 139,-111 231,-111 231,-130"/>
<text text-anchor="middle" x="185" y="-118" font-family="Helvetica,sans-Serif" font-size="10.00">Gpio_Reset_Pin</text>
</a>
</g>
</g>
<!-- Node1&#45;&gt;Node2 -->
<g id="edge1_Node000001_Node000002" class="edge">
<title>Node1&#45;&gt;Node2</title>
<g id="a_edge1_Node000001_Node000002"><a xlink:title=" ">
<path fill="none" stroke="#63b8ff" d="M73.74,-74.07C91.2,-81.88 116.61,-93.11 139,-102.5 142.65,-104.03 146.48,-105.61 150.29,-107.16"/>
<polygon fill="#63b8ff" stroke="#63b8ff" points="149.07,-110.44 159.65,-110.93 151.69,-103.95 149.07,-110.44"/>
</a>
</g>
</g>
<!-- Node3 -->
<g id="Node000003" class="node">
<title>Node3</title>
<g id="a_Node000003"><a xlink:href="../../d2/da8/gpio__exti_8c.html#a0975a2cf0136c0695f87e6260079ff83" target="_top" xlink:title=" ">
<polygon fill="white" stroke="#666666" points="225,-93 145,-93 145,-74 225,-74 225,-93"/>
<text text-anchor="middle" x="185" y="-81" font-family="Helvetica,sans-Serif" font-size="10.00">Gpio_Set_Pin</text>
</a>
</g>
</g>
<!-- Node1&#45;&gt;Node3 -->
<g id="edge2_Node000001_Node000003" class="edge">
<title>Node1&#45;&gt;Node3</title>
<g id="a_edge2_Node000001_Node000003"><a xlink:title=" ">
<path fill="none" stroke="#63b8ff" d="M103.34,-71.85C113.64,-73.33 124.45,-74.9 134.7,-76.38"/>
<polygon fill="#63b8ff" stroke="#63b8ff" points="134.32,-79.86 144.71,-77.82 135.32,-72.93 134.32,-79.86"/>
</a>
</g>
</g>
<!-- Node4 -->
<g id="Node000004" class="node">
<title>Node4</title>
<g id="a_Node000004"><a xlink:href="../../db/de5/clock__and__timers_8c.html#a8a4e699fbe055adaac0e209980ed3288" target="_top" xlink:title="Checks if timer timeout has expired.">
<polygon fill="white" stroke="#666666" points="229.5,-56 140.5,-56 140.5,-37 229.5,-37 229.5,-56"/>
<text text-anchor="middle" x="185" y="-44" font-family="Helvetica,sans-Serif" font-size="10.00">IsExpiredTimer</text>
</a>
</g>
</g>
<!-- Node1&#45;&gt;Node4 -->
<g id="edge3_Node000001_Node000004" class="edge">
<title>Node1&#45;&gt;Node4</title>
<g id="a_edge3_Node000001_Node000004"><a xlink:title=" ">
<path fill="none" stroke="#63b8ff" d="M103.34,-57.54C112.07,-56.35 121.17,-55.1 129.97,-53.9"/>
<polygon fill="#63b8ff" stroke="#63b8ff" points="130.71,-57.33 140.14,-52.5 129.76,-50.39 130.71,-57.33"/>
</a>
</g>
</g>
<!-- Node5 -->
<g id="Node000005" class="node">
<title>Node5</title>
<g id="a_Node000005"><a xlink:href="../../db/de5/clock__and__timers_8c.html#aa9cb67dffbf08af7059377c84e10d7e4" target="_top" xlink:title="Resets software timer.">
<polygon fill="white" stroke="#666666" points="221,-19 149,-19 149,0 221,0 221,-19"/>
<text text-anchor="middle" x="185" y="-7" font-family="Helvetica,sans-Serif" font-size="10.00">ResetTimer</text>
</a>
</g>
</g>
<!-- Node1&#45;&gt;Node5 -->
<g id="edge4_Node000001_Node000005" class="edge">
<title>Node1&#45;&gt;Node5</title>
<g id="a_edge4_Node000001_Node000005"><a xlink:title=" ">
<path fill="none" stroke="#63b8ff" d="M75.41,-54.92C96.49,-46.1 127.98,-32.93 151.63,-23.04"/>
<polygon fill="#63b8ff" stroke="#63b8ff" points="153.04,-26.24 160.92,-19.16 150.34,-19.78 153.04,-26.24"/>
</a>
</g>
</g>
</g>
</svg>
