<svg xmlns="http://www.w3.org/2000/svg" xmlns:xlink="http://www.w3.org/1999/xlink" contentStyleType="text/css" height="137px" preserveAspectRatio="none" style="width:408px;height:137px;background:#FFFFFF;" version="1.1" viewBox="0 0 408 137" width="408px" zoomAndPan="magnify"><defs/><g><text fill="#000000" font-family="sans-serif" font-size="14" font-weight="bold" lengthAdjust="spacing" textLength="124.79" x="140.1758" y="32.9951">Cyclogram_Cold</text><line style="stroke:#333333;stroke-width:0.5;" x1="10" x2="10" y1="47.2969" y2="107.2969"/><line style="stroke:#333333;stroke-width:0.5;" x1="396.1416" x2="396.1416" y1="47.2969" y2="107.2969"/><line style="stroke:#333333;stroke-width:0.5;stroke-dasharray:3.0,5.0;" x1="91.1416" x2="91.1416" y1="47.2969" y2="107.2969"/><line style="stroke:#333333;stroke-width:0.5;stroke-dasharray:3.0,5.0;" x1="141.1416" x2="141.1416" y1="47.2969" y2="107.2969"/><line style="stroke:#333333;stroke-width:0.5;stroke-dasharray:3.0,5.0;" x1="191.1416" x2="191.1416" y1="47.2969" y2="107.2969"/><line style="stroke:#333333;stroke-width:0.5;stroke-dasharray:3.0,5.0;" x1="241.1416" x2="241.1416" y1="47.2969" y2="107.2969"/><line style="stroke:#333333;stroke-width:0.5;stroke-dasharray:3.0,5.0;" x1="291.1416" x2="291.1416" y1="47.2969" y2="107.2969"/><line style="stroke:#333333;stroke-width:0.5;stroke-dasharray:3.0,5.0;" x1="341.1416" x2="341.1416" y1="47.2969" y2="107.2969"/><line style="stroke:#333333;stroke-width:0.5;stroke-dasharray:3.0,5.0;" x1="391.1416" x2="391.1416" y1="47.2969" y2="107.2969"/><line style="stroke:#333333;stroke-width:0.5;" x1="10" x2="396.1416" y1="47.2969" y2="47.2969"/><text fill="#333333" font-family="sans-serif" font-size="14" font-weight="bold" lengthAdjust="spacing" textLength="71.1416" x="15" y="67.1436">STARTER</text><line style="stroke:#006400;stroke-width:2.0;" x1="91.1416" x2="91.1416" y1="69.2969" y2="69.2969"/><line style="stroke:#006400;stroke-width:2.0;" x1="91.1416" x2="91.1416" y1="55.2969" y2="69.2969"/><line style="stroke:#006400;stroke-width:2.0;" x1="91.1416" x2="341.1416" y1="55.2969" y2="55.2969"/><line style="stroke:#006400;stroke-width:2.0;" x1="341.1416" x2="341.1416" y1="55.2969" y2="69.2969"/><line style="stroke:#006400;stroke-width:2.0;" x1="341.1416" x2="391.1416" y1="69.2969" y2="69.2969"/><line style="stroke:#333333;stroke-width:0.5;" x1="10" x2="396.1416" y1="77.2969" y2="77.2969"/><text fill="#333333" font-family="sans-serif" font-size="14" font-weight="bold" lengthAdjust="spacing" textLength="54.4346" x="15" y="97.1436">SHUNT</text><line style="stroke:#006400;stroke-width:2.0;" x1="91.1416" x2="141.1416" y1="99.2969" y2="99.2969"/><line style="stroke:#006400;stroke-width:2.0;" x1="141.1416" x2="141.1416" y1="85.2969" y2="99.2969"/><line style="stroke:#006400;stroke-width:2.0;" x1="141.1416" x2="341.1416" y1="85.2969" y2="85.2969"/><line style="stroke:#006400;stroke-width:2.0;" x1="341.1416" x2="341.1416" y1="85.2969" y2="99.2969"/><line style="stroke:#006400;stroke-width:2.0;" x1="341.1416" x2="391.1416" y1="99.2969" y2="99.2969"/><line style="stroke:#333333;stroke-width:2.0;" x1="91.1416" x2="91.1416" y1="107.2969" y2="112.2969"/><line style="stroke:#333333;stroke-width:2.0;" x1="141.1416" x2="141.1416" y1="107.2969" y2="112.2969"/><line style="stroke:#333333;stroke-width:2.0;" x1="191.1416" x2="191.1416" y1="107.2969" y2="112.2969"/><line style="stroke:#333333;stroke-width:2.0;" x1="241.1416" x2="241.1416" y1="107.2969" y2="112.2969"/><line style="stroke:#333333;stroke-width:2.0;" x1="291.1416" x2="291.1416" y1="107.2969" y2="112.2969"/><line style="stroke:#333333;stroke-width:2.0;" x1="341.1416" x2="341.1416" y1="107.2969" y2="112.2969"/><line style="stroke:#333333;stroke-width:2.0;" x1="391.1416" x2="391.1416" y1="107.2969" y2="112.2969"/><line style="stroke:#333333;stroke-width:2.0;" x1="91.1416" x2="391.1416" y1="107.2969" y2="107.2969"/><text fill="#333333" font-family="sans-serif" font-size="11" lengthAdjust="spacing" textLength="6.9985" x="87.6423" y="123.5073">0</text><text fill="#333333" font-family="sans-serif" font-size="11" lengthAdjust="spacing" textLength="27.9941" x="127.1445" y="123.5073">5000</text><text fill="#333333" font-family="sans-serif" font-size="11" lengthAdjust="spacing" textLength="34.9927" x="323.6453" y="123.5073">25000</text><!--SRC=[AyaioKbLSAvCpibFBqhCZNVEpqdXIihCIoogL50A3d4C2d4DKb98B5PmzeY7SX7I7g5-8N1948VBmO0BeL0XirWX8pCzWyl1oDJ005qc9x-Som4k3jADJJrC7AWQ0000]--></g></svg>