<svg xmlns="http://www.w3.org/2000/svg" xmlns:xlink="http://www.w3.org/1999/xlink" contentStyleType="text/css" height="130.936px" preserveAspectRatio="none" style="width:3000px;height:130px;background:#FFFFFF;" version="1.1" viewBox="0 0 3000 130" width="3000.5684px" zoomAndPan="magnify"><defs/><g><text fill="#000000" font-family="sans-serif" font-size="8.0753" font-weight="bold" lengthAdjust="spacing" textLength="74.9257" x="1461.9604" y="19.0319">Cyclogram_Start</text><line style="stroke:#333333;stroke-width:0.2884052634711639;" x1="5.7681" x2="5.7681" y1="27.2813" y2="113.8029"/><line style="stroke:#333333;stroke-width:0.2884052634711639;" x1="2993.6551" x2="2993.6551" y1="27.2813" y2="113.8029"/><line style="stroke:#333333;stroke-width:0.2884052634711639;stroke-dasharray:3.0,5.0;" x1="77.8779" x2="77.8779" y1="27.2813" y2="113.8029"/><line style="stroke:#333333;stroke-width:0.2884052634711639;stroke-dasharray:3.0,5.0;" x1="106.7184" x2="106.7184" y1="27.2813" y2="113.8029"/><line style="stroke:#333333;stroke-width:0.2884052634711639;stroke-dasharray:3.0,5.0;" x1="135.5589" x2="135.5589" y1="27.2813" y2="113.8029"/><line style="stroke:#333333;stroke-width:0.2884052634711639;stroke-dasharray:3.0,5.0;" x1="164.3994" x2="164.3994" y1="27.2813" y2="113.8029"/><line style="stroke:#333333;stroke-width:0.2884052634711639;stroke-dasharray:3.0,5.0;" x1="193.24" x2="193.24" y1="27.2813" y2="113.8029"/><line style="stroke:#333333;stroke-width:0.2884052634711639;stroke-dasharray:3.0,5.0;" x1="222.0805" x2="222.0805" y1="27.2813" y2="113.8029"/><line style="stroke:#333333;stroke-width:0.2884052634711639;stroke-dasharray:3.0,5.0;" x1="250.921" x2="250.921" y1="27.2813" y2="113.8029"/><line style="stroke:#333333;stroke-width:0.2884052634711639;stroke-dasharray:3.0,5.0;" x1="279.7616" x2="279.7616" y1="27.2813" y2="113.8029"/><line style="stroke:#333333;stroke-width:0.2884052634711639;stroke-dasharray:3.0,5.0;" x1="308.6021" x2="308.6021" y1="27.2813" y2="113.8029"/><line style="stroke:#333333;stroke-width:0.2884052634711639;stroke-dasharray:3.0,5.0;" x1="337.4426" x2="337.4426" y1="27.2813" y2="113.8029"/><line style="stroke:#333333;stroke-width:0.2884052634711639;stroke-dasharray:3.0,5.0;" x1="366.2831" x2="366.2831" y1="27.2813" y2="113.8029"/><line style="stroke:#333333;stroke-width:0.2884052634711639;stroke-dasharray:3.0,5.0;" x1="395.1237" x2="395.1237" y1="27.2813" y2="113.8029"/><line style="stroke:#333333;stroke-width:0.2884052634711639;stroke-dasharray:3.0,5.0;" x1="423.9642" x2="423.9642" y1="27.2813" y2="113.8029"/><line style="stroke:#333333;stroke-width:0.2884052634711639;stroke-dasharray:3.0,5.0;" x1="452.8047" x2="452.8047" y1="27.2813" y2="113.8029"/><line style="stroke:#333333;stroke-width:0.2884052634711639;stroke-dasharray:3.0,5.0;" x1="481.6452" x2="481.6452" y1="27.2813" y2="113.8029"/><line style="stroke:#333333;stroke-width:0.2884052634711639;stroke-dasharray:3.0,5.0;" x1="510.4858" x2="510.4858" y1="27.2813" y2="113.8029"/><line style="stroke:#333333;stroke-width:0.2884052634711639;stroke-dasharray:3.0,5.0;" x1="539.3263" x2="539.3263" y1="27.2813" y2="113.8029"/><line style="stroke:#333333;stroke-width:0.2884052634711639;stroke-dasharray:3.0,5.0;" x1="568.1668" x2="568.1668" y1="27.2813" y2="113.8029"/><line style="stroke:#333333;stroke-width:0.2884052634711639;stroke-dasharray:3.0,5.0;" x1="597.0073" x2="597.0073" y1="27.2813" y2="113.8029"/><line style="stroke:#333333;stroke-width:0.2884052634711639;stroke-dasharray:3.0,5.0;" x1="625.8479" x2="625.8479" y1="27.2813" y2="113.8029"/><line style="stroke:#333333;stroke-width:0.2884052634711639;stroke-dasharray:3.0,5.0;" x1="654.6884" x2="654.6884" y1="27.2813" y2="113.8029"/><line style="stroke:#333333;stroke-width:0.2884052634711639;stroke-dasharray:3.0,5.0;" x1="683.5289" x2="683.5289" y1="27.2813" y2="113.8029"/><line style="stroke:#333333;stroke-width:0.2884052634711639;stroke-dasharray:3.0,5.0;" x1="712.3695" x2="712.3695" y1="27.2813" y2="113.8029"/><line style="stroke:#333333;stroke-width:0.2884052634711639;stroke-dasharray:3.0,5.0;" x1="741.21" x2="741.21" y1="27.2813" y2="113.8029"/><line style="stroke:#333333;stroke-width:0.2884052634711639;stroke-dasharray:3.0,5.0;" x1="770.0505" x2="770.0505" y1="27.2813" y2="113.8029"/><line style="stroke:#333333;stroke-width:0.2884052634711639;stroke-dasharray:3.0,5.0;" x1="798.891" x2="798.891" y1="27.2813" y2="113.8029"/><line style="stroke:#333333;stroke-width:0.2884052634711639;stroke-dasharray:3.0,5.0;" x1="827.7316" x2="827.7316" y1="27.2813" y2="113.8029"/><line style="stroke:#333333;stroke-width:0.2884052634711639;stroke-dasharray:3.0,5.0;" x1="856.5721" x2="856.5721" y1="27.2813" y2="113.8029"/><line style="stroke:#333333;stroke-width:0.2884052634711639;stroke-dasharray:3.0,5.0;" x1="885.4126" x2="885.4126" y1="27.2813" y2="113.8029"/><line style="stroke:#333333;stroke-width:0.2884052634711639;stroke-dasharray:3.0,5.0;" x1="914.2531" x2="914.2531" y1="27.2813" y2="113.8029"/><line style="stroke:#333333;stroke-width:0.2884052634711639;stroke-dasharray:3.0,5.0;" x1="943.0937" x2="943.0937" y1="27.2813" y2="113.8029"/><line style="stroke:#333333;stroke-width:0.2884052634711639;stroke-dasharray:3.0,5.0;" x1="971.9342" x2="971.9342" y1="27.2813" y2="113.8029"/><line style="stroke:#333333;stroke-width:0.2884052634711639;stroke-dasharray:3.0,5.0;" x1="1000.7747" x2="1000.7747" y1="27.2813" y2="113.8029"/><line style="stroke:#333333;stroke-width:0.2884052634711639;stroke-dasharray:3.0,5.0;" x1="1029.6152" x2="1029.6152" y1="27.2813" y2="113.8029"/><line style="stroke:#333333;stroke-width:0.2884052634711639;stroke-dasharray:3.0,5.0;" x1="1058.4558" x2="1058.4558" y1="27.2813" y2="113.8029"/><line style="stroke:#333333;stroke-width:0.2884052634711639;stroke-dasharray:3.0,5.0;" x1="1087.2963" x2="1087.2963" y1="27.2813" y2="113.8029"/><line style="stroke:#333333;stroke-width:0.2884052634711639;stroke-dasharray:3.0,5.0;" x1="1116.1368" x2="1116.1368" y1="27.2813" y2="113.8029"/><line style="stroke:#333333;stroke-width:0.2884052634711639;stroke-dasharray:3.0,5.0;" x1="1144.9773" x2="1144.9773" y1="27.2813" y2="113.8029"/><line style="stroke:#333333;stroke-width:0.2884052634711639;stroke-dasharray:3.0,5.0;" x1="1173.8179" x2="1173.8179" y1="27.2813" y2="113.8029"/><line style="stroke:#333333;stroke-width:0.2884052634711639;stroke-dasharray:3.0,5.0;" x1="1202.6584" x2="1202.6584" y1="27.2813" y2="113.8029"/><line style="stroke:#333333;stroke-width:0.2884052634711639;stroke-dasharray:3.0,5.0;" x1="1231.4989" x2="1231.4989" y1="27.2813" y2="113.8029"/><line style="stroke:#333333;stroke-width:0.2884052634711639;stroke-dasharray:3.0,5.0;" x1="1260.3395" x2="1260.3395" y1="27.2813" y2="113.8029"/><line style="stroke:#333333;stroke-width:0.2884052634711639;stroke-dasharray:3.0,5.0;" x1="1289.18" x2="1289.18" y1="27.2813" y2="113.8029"/><line style="stroke:#333333;stroke-width:0.2884052634711639;stroke-dasharray:3.0,5.0;" x1="1318.0205" x2="1318.0205" y1="27.2813" y2="113.8029"/><line style="stroke:#333333;stroke-width:0.2884052634711639;stroke-dasharray:3.0,5.0;" x1="1346.861" x2="1346.861" y1="27.2813" y2="113.8029"/><line style="stroke:#333333;stroke-width:0.2884052634711639;stroke-dasharray:3.0,5.0;" x1="1375.7016" x2="1375.7016" y1="27.2813" y2="113.8029"/><line style="stroke:#333333;stroke-width:0.2884052634711639;stroke-dasharray:3.0,5.0;" x1="1404.5421" x2="1404.5421" y1="27.2813" y2="113.8029"/><line style="stroke:#333333;stroke-width:0.2884052634711639;stroke-dasharray:3.0,5.0;" x1="1433.3826" x2="1433.3826" y1="27.2813" y2="113.8029"/><line style="stroke:#333333;stroke-width:0.2884052634711639;stroke-dasharray:3.0,5.0;" x1="1462.2231" x2="1462.2231" y1="27.2813" y2="113.8029"/><line style="stroke:#333333;stroke-width:0.2884052634711639;stroke-dasharray:3.0,5.0;" x1="1491.0637" x2="1491.0637" y1="27.2813" y2="113.8029"/><line style="stroke:#333333;stroke-width:0.2884052634711639;stroke-dasharray:3.0,5.0;" x1="1519.9042" x2="1519.9042" y1="27.2813" y2="113.8029"/><line style="stroke:#333333;stroke-width:0.2884052634711639;stroke-dasharray:3.0,5.0;" x1="1548.7447" x2="1548.7447" y1="27.2813" y2="113.8029"/><line style="stroke:#333333;stroke-width:0.2884052634711639;stroke-dasharray:3.0,5.0;" x1="1577.5852" x2="1577.5852" y1="27.2813" y2="113.8029"/><line style="stroke:#333333;stroke-width:0.2884052634711639;stroke-dasharray:3.0,5.0;" x1="1606.4258" x2="1606.4258" y1="27.2813" y2="113.8029"/><line style="stroke:#333333;stroke-width:0.2884052634711639;stroke-dasharray:3.0,5.0;" x1="1635.2663" x2="1635.2663" y1="27.2813" y2="113.8029"/><line style="stroke:#333333;stroke-width:0.2884052634711639;stroke-dasharray:3.0,5.0;" x1="1664.1068" x2="1664.1068" y1="27.2813" y2="113.8029"/><line style="stroke:#333333;stroke-width:0.2884052634711639;stroke-dasharray:3.0,5.0;" x1="1692.9473" x2="1692.9473" y1="27.2813" y2="113.8029"/><line style="stroke:#333333;stroke-width:0.2884052634711639;stroke-dasharray:3.0,5.0;" x1="1721.7879" x2="1721.7879" y1="27.2813" y2="113.8029"/><line style="stroke:#333333;stroke-width:0.2884052634711639;stroke-dasharray:3.0,5.0;" x1="1750.6284" x2="1750.6284" y1="27.2813" y2="113.8029"/><line style="stroke:#333333;stroke-width:0.2884052634711639;stroke-dasharray:3.0,5.0;" x1="1779.4689" x2="1779.4689" y1="27.2813" y2="113.8029"/><line style="stroke:#333333;stroke-width:0.2884052634711639;stroke-dasharray:3.0,5.0;" x1="1808.3095" x2="1808.3095" y1="27.2813" y2="113.8029"/><line style="stroke:#333333;stroke-width:0.2884052634711639;stroke-dasharray:3.0,5.0;" x1="1837.15" x2="1837.15" y1="27.2813" y2="113.8029"/><line style="stroke:#333333;stroke-width:0.2884052634711639;stroke-dasharray:3.0,5.0;" x1="1865.9905" x2="1865.9905" y1="27.2813" y2="113.8029"/><line style="stroke:#333333;stroke-width:0.2884052634711639;stroke-dasharray:3.0,5.0;" x1="1894.831" x2="1894.831" y1="27.2813" y2="113.8029"/><line style="stroke:#333333;stroke-width:0.2884052634711639;stroke-dasharray:3.0,5.0;" x1="1923.6716" x2="1923.6716" y1="27.2813" y2="113.8029"/><line style="stroke:#333333;stroke-width:0.2884052634711639;stroke-dasharray:3.0,5.0;" x1="1952.5121" x2="1952.5121" y1="27.2813" y2="113.8029"/><line style="stroke:#333333;stroke-width:0.2884052634711639;stroke-dasharray:3.0,5.0;" x1="1981.3526" x2="1981.3526" y1="27.2813" y2="113.8029"/><line style="stroke:#333333;stroke-width:0.2884052634711639;stroke-dasharray:3.0,5.0;" x1="2010.1931" x2="2010.1931" y1="27.2813" y2="113.8029"/><line style="stroke:#333333;stroke-width:0.2884052634711639;stroke-dasharray:3.0,5.0;" x1="2039.0337" x2="2039.0337" y1="27.2813" y2="113.8029"/><line style="stroke:#333333;stroke-width:0.2884052634711639;stroke-dasharray:3.0,5.0;" x1="2067.8742" x2="2067.8742" y1="27.2813" y2="113.8029"/><line style="stroke:#333333;stroke-width:0.2884052634711639;stroke-dasharray:3.0,5.0;" x1="2096.7147" x2="2096.7147" y1="27.2813" y2="113.8029"/><line style="stroke:#333333;stroke-width:0.2884052634711639;stroke-dasharray:3.0,5.0;" x1="2125.5552" x2="2125.5552" y1="27.2813" y2="113.8029"/><line style="stroke:#333333;stroke-width:0.2884052634711639;stroke-dasharray:3.0,5.0;" x1="2154.3958" x2="2154.3958" y1="27.2813" y2="113.8029"/><line style="stroke:#333333;stroke-width:0.2884052634711639;stroke-dasharray:3.0,5.0;" x1="2183.2363" x2="2183.2363" y1="27.2813" y2="113.8029"/><line style="stroke:#333333;stroke-width:0.2884052634711639;stroke-dasharray:3.0,5.0;" x1="2212.0768" x2="2212.0768" y1="27.2813" y2="113.8029"/><line style="stroke:#333333;stroke-width:0.2884052634711639;stroke-dasharray:3.0,5.0;" x1="2240.9173" x2="2240.9173" y1="27.2813" y2="113.8029"/><line style="stroke:#333333;stroke-width:0.2884052634711639;stroke-dasharray:3.0,5.0;" x1="2269.7579" x2="2269.7579" y1="27.2813" y2="113.8029"/><line style="stroke:#333333;stroke-width:0.2884052634711639;stroke-dasharray:3.0,5.0;" x1="2298.5984" x2="2298.5984" y1="27.2813" y2="113.8029"/><line style="stroke:#333333;stroke-width:0.2884052634711639;stroke-dasharray:3.0,5.0;" x1="2327.4389" x2="2327.4389" y1="27.2813" y2="113.8029"/><line style="stroke:#333333;stroke-width:0.2884052634711639;stroke-dasharray:3.0,5.0;" x1="2356.2795" x2="2356.2795" y1="27.2813" y2="113.8029"/><line style="stroke:#333333;stroke-width:0.2884052634711639;stroke-dasharray:3.0,5.0;" x1="2385.12" x2="2385.12" y1="27.2813" y2="113.8029"/><line style="stroke:#333333;stroke-width:0.2884052634711639;stroke-dasharray:3.0,5.0;" x1="2413.9605" x2="2413.9605" y1="27.2813" y2="113.8029"/><line style="stroke:#333333;stroke-width:0.2884052634711639;stroke-dasharray:3.0,5.0;" x1="2442.801" x2="2442.801" y1="27.2813" y2="113.8029"/><line style="stroke:#333333;stroke-width:0.2884052634711639;stroke-dasharray:3.0,5.0;" x1="2471.6416" x2="2471.6416" y1="27.2813" y2="113.8029"/><line style="stroke:#333333;stroke-width:0.2884052634711639;stroke-dasharray:3.0,5.0;" x1="2500.4821" x2="2500.4821" y1="27.2813" y2="113.8029"/><line style="stroke:#333333;stroke-width:0.2884052634711639;stroke-dasharray:3.0,5.0;" x1="2529.3226" x2="2529.3226" y1="27.2813" y2="113.8029"/><line style="stroke:#333333;stroke-width:0.2884052634711639;stroke-dasharray:3.0,5.0;" x1="2558.1631" x2="2558.1631" y1="27.2813" y2="113.8029"/><line style="stroke:#333333;stroke-width:0.2884052634711639;stroke-dasharray:3.0,5.0;" x1="2587.0037" x2="2587.0037" y1="27.2813" y2="113.8029"/><line style="stroke:#333333;stroke-width:0.2884052634711639;stroke-dasharray:3.0,5.0;" x1="2615.8442" x2="2615.8442" y1="27.2813" y2="113.8029"/><line style="stroke:#333333;stroke-width:0.2884052634711639;stroke-dasharray:3.0,5.0;" x1="2644.6847" x2="2644.6847" y1="27.2813" y2="113.8029"/><line style="stroke:#333333;stroke-width:0.2884052634711639;stroke-dasharray:3.0,5.0;" x1="2673.5252" x2="2673.5252" y1="27.2813" y2="113.8029"/><line style="stroke:#333333;stroke-width:0.2884052634711639;stroke-dasharray:3.0,5.0;" x1="2702.3658" x2="2702.3658" y1="27.2813" y2="113.8029"/><line style="stroke:#333333;stroke-width:0.2884052634711639;stroke-dasharray:3.0,5.0;" x1="2731.2063" x2="2731.2063" y1="27.2813" y2="113.8029"/><line style="stroke:#333333;stroke-width:0.2884052634711639;stroke-dasharray:3.0,5.0;" x1="2760.0468" x2="2760.0468" y1="27.2813" y2="113.8029"/><line style="stroke:#333333;stroke-width:0.2884052634711639;stroke-dasharray:3.0,5.0;" x1="2788.8873" x2="2788.8873" y1="27.2813" y2="113.8029"/><line style="stroke:#333333;stroke-width:0.2884052634711639;stroke-dasharray:3.0,5.0;" x1="2817.7279" x2="2817.7279" y1="27.2813" y2="113.8029"/><line style="stroke:#333333;stroke-width:0.2884052634711639;stroke-dasharray:3.0,5.0;" x1="2846.5684" x2="2846.5684" y1="27.2813" y2="113.8029"/><line style="stroke:#333333;stroke-width:0.2884052634711639;stroke-dasharray:3.0,5.0;" x1="2875.4089" x2="2875.4089" y1="27.2813" y2="113.8029"/><line style="stroke:#333333;stroke-width:0.2884052634711639;stroke-dasharray:3.0,5.0;" x1="2904.2495" x2="2904.2495" y1="27.2813" y2="113.8029"/><line style="stroke:#333333;stroke-width:0.2884052634711639;stroke-dasharray:3.0,5.0;" x1="2933.09" x2="2933.09" y1="27.2813" y2="113.8029"/><line style="stroke:#333333;stroke-width:0.2884052634711639;stroke-dasharray:3.0,5.0;" x1="2961.9305" x2="2961.9305" y1="27.2813" y2="113.8029"/><line style="stroke:#333333;stroke-width:0.2884052634711639;stroke-dasharray:3.0,5.0;" x1="2990.771" x2="2990.771" y1="27.2813" y2="113.8029"/><line style="stroke:#333333;stroke-width:0.2884052634711639;" x1="5.7681" x2="2993.6551" y1="27.2813" y2="27.2813"/><text fill="#333333" font-family="sans-serif" font-size="8.0753" font-weight="bold" lengthAdjust="spacing" textLength="41.0352" x="8.6522" y="38.7291">STARTER</text><line style="stroke:#006400;stroke-width:1.1536210538846556;" x1="77.8779" x2="77.8779" y1="39.9712" y2="39.9712"/><line style="stroke:#006400;stroke-width:1.1536210538846556;" x1="77.8779" x2="77.8779" y1="31.8958" y2="39.9712"/><line style="stroke:#006400;stroke-width:1.1536210538846556;" x1="77.8779" x2="2769.6603" y1="31.8958" y2="31.8958"/><line style="stroke:#006400;stroke-width:1.1536210538846556;" x1="2769.6603" x2="2769.6603" y1="31.8958" y2="39.9712"/><line style="stroke:#006400;stroke-width:1.1536210538846556;" x1="2769.6603" x2="2990.771" y1="39.9712" y2="39.9712"/><line style="stroke:#333333;stroke-width:0.2884052634711639;" x1="5.7681" x2="2993.6551" y1="44.5857" y2="44.5857"/><text fill="#333333" font-family="sans-serif" font-size="8.0753" font-weight="bold" lengthAdjust="spacing" textLength="66.3417" x="8.6522" y="56.0334">PRIMING_FUEL</text><line style="stroke:#006400;stroke-width:1.1536210538846556;" x1="77.8779" x2="270.148" y1="57.2755" y2="57.2755"/><line style="stroke:#006400;stroke-width:1.1536210538846556;" x1="270.148" x2="270.148" y1="49.2001" y2="57.2755"/><line style="stroke:#006400;stroke-width:1.1536210538846556;" x1="270.148" x2="750.8235" y1="49.2001" y2="49.2001"/><line style="stroke:#006400;stroke-width:1.1536210538846556;" x1="750.8235" x2="750.8235" y1="49.2001" y2="57.2755"/><line style="stroke:#006400;stroke-width:1.1536210538846556;" x1="750.8235" x2="779.664" y1="57.2755" y2="57.2755"/><line style="stroke:#006400;stroke-width:1.1536210538846556;" x1="779.664" x2="779.664" y1="49.2001" y2="57.2755"/><line style="stroke:#006400;stroke-width:1.1536210538846556;" x1="779.664" x2="1260.3395" y1="49.2001" y2="49.2001"/><line style="stroke:#006400;stroke-width:1.1536210538846556;" x1="1260.3395" x2="1260.3395" y1="49.2001" y2="57.2755"/><line style="stroke:#006400;stroke-width:1.1536210538846556;" x1="1260.3395" x2="1289.18" y1="57.2755" y2="57.2755"/><line style="stroke:#006400;stroke-width:1.1536210538846556;" x1="1289.18" x2="1289.18" y1="49.2001" y2="57.2755"/><line style="stroke:#006400;stroke-width:1.1536210538846556;" x1="1289.18" x2="1769.8554" y1="49.2001" y2="49.2001"/><line style="stroke:#006400;stroke-width:1.1536210538846556;" x1="1769.8554" x2="1769.8554" y1="49.2001" y2="57.2755"/><line style="stroke:#006400;stroke-width:1.1536210538846556;" x1="1769.8554" x2="1798.6959" y1="57.2755" y2="57.2755"/><line style="stroke:#006400;stroke-width:1.1536210538846556;" x1="1798.6959" x2="1798.6959" y1="49.2001" y2="57.2755"/><line style="stroke:#006400;stroke-width:1.1536210538846556;" x1="1798.6959" x2="2279.3714" y1="49.2001" y2="49.2001"/><line style="stroke:#006400;stroke-width:1.1536210538846556;" x1="2279.3714" x2="2279.3714" y1="49.2001" y2="57.2755"/><line style="stroke:#006400;stroke-width:1.1536210538846556;" x1="2279.3714" x2="2308.2119" y1="57.2755" y2="57.2755"/><line style="stroke:#006400;stroke-width:1.1536210538846556;" x1="2308.2119" x2="2308.2119" y1="49.2001" y2="57.2755"/><line style="stroke:#006400;stroke-width:1.1536210538846556;" x1="2308.2119" x2="2788.8873" y1="49.2001" y2="49.2001"/><line style="stroke:#006400;stroke-width:1.1536210538846556;" x1="2788.8873" x2="2788.8873" y1="49.2001" y2="57.2755"/><line style="stroke:#006400;stroke-width:1.1536210538846556;" x1="2788.8873" x2="2817.7279" y1="57.2755" y2="57.2755"/><line style="stroke:#006400;stroke-width:1.1536210538846556;" x1="2817.7279" x2="2817.7279" y1="49.2001" y2="57.2755"/><line style="stroke:#006400;stroke-width:1.1536210538846556;" x1="2817.7279" x2="2961.9305" y1="49.2001" y2="49.2001"/><line style="stroke:#006400;stroke-width:1.1536210538846556;" x1="2961.9305" x2="2961.9305" y1="49.2001" y2="57.2755"/><line style="stroke:#006400;stroke-width:1.1536210538846556;" x1="2961.9305" x2="2990.771" y1="57.2755" y2="57.2755"/><line style="stroke:#333333;stroke-width:0.2884052634711639;" x1="5.7681" x2="2993.6551" y1="61.89" y2="61.89"/><text fill="#333333" font-family="sans-serif" font-size="8.0753" font-weight="bold" lengthAdjust="spacing" textLength="30.46" x="8.6522" y="73.3377">SPARK</text><line style="stroke:#006400;stroke-width:1.1536210538846556;" x1="77.8779" x2="270.148" y1="74.5798" y2="74.5798"/><line style="stroke:#006400;stroke-width:1.1536210538846556;" x1="270.148" x2="270.148" y1="66.5045" y2="74.5798"/><line style="stroke:#006400;stroke-width:1.1536210538846556;" x1="270.148" x2="2961.9305" y1="66.5045" y2="66.5045"/><line style="stroke:#006400;stroke-width:1.1536210538846556;" x1="2961.9305" x2="2961.9305" y1="66.5045" y2="74.5798"/><line style="stroke:#006400;stroke-width:1.1536210538846556;" x1="2961.9305" x2="2990.771" y1="74.5798" y2="74.5798"/><line style="stroke:#333333;stroke-width:0.2884052634711639;" x1="5.7681" x2="2993.6551" y1="79.1943" y2="79.1943"/><text fill="#333333" font-family="sans-serif" font-size="8.0753" font-weight="bold" lengthAdjust="spacing" textLength="31.3984" x="8.6522" y="90.6421">SHUNT</text><line style="stroke:#006400;stroke-width:1.1536210538846556;" x1="77.8779" x2="270.148" y1="91.8841" y2="91.8841"/><line style="stroke:#006400;stroke-width:1.1536210538846556;" x1="270.148" x2="270.148" y1="83.8088" y2="91.8841"/><line style="stroke:#006400;stroke-width:1.1536210538846556;" x1="270.148" x2="2769.6603" y1="83.8088" y2="83.8088"/><line style="stroke:#006400;stroke-width:1.1536210538846556;" x1="2769.6603" x2="2769.6603" y1="83.8088" y2="91.8841"/><line style="stroke:#006400;stroke-width:1.1536210538846556;" x1="2769.6603" x2="2990.771" y1="91.8841" y2="91.8841"/><line style="stroke:#333333;stroke-width:0.2884052634711639;" x1="5.7681" x2="2993.6551" y1="96.4986" y2="96.4986"/><text fill="#333333" font-family="sans-serif" font-size="8.0753" font-weight="bold" lengthAdjust="spacing" textLength="17.4874" x="8.6522" y="107.9464">36V</text><line style="stroke:#006400;stroke-width:1.1536210538846556;" x1="77.8779" x2="1039.2287" y1="109.1884" y2="109.1884"/><line style="stroke:#006400;stroke-width:1.1536210538846556;" x1="1039.2287" x2="1039.2287" y1="101.1131" y2="109.1884"/><line style="stroke:#006400;stroke-width:1.1536210538846556;" x1="1039.2287" x2="2769.6603" y1="101.1131" y2="101.1131"/><line style="stroke:#006400;stroke-width:1.1536210538846556;" x1="2769.6603" x2="2769.6603" y1="101.1131" y2="109.1884"/><line style="stroke:#006400;stroke-width:1.1536210538846556;" x1="2769.6603" x2="2990.771" y1="109.1884" y2="109.1884"/><line style="stroke:#333333;stroke-width:1.1536210538846556;" x1="77.8779" x2="77.8779" y1="113.8029" y2="116.687"/><line style="stroke:#333333;stroke-width:1.1536210538846556;" x1="106.7184" x2="106.7184" y1="113.8029" y2="116.687"/><line style="stroke:#333333;stroke-width:1.1536210538846556;" x1="135.5589" x2="135.5589" y1="113.8029" y2="116.687"/><line style="stroke:#333333;stroke-width:1.1536210538846556;" x1="164.3994" x2="164.3994" y1="113.8029" y2="116.687"/><line style="stroke:#333333;stroke-width:1.1536210538846556;" x1="193.24" x2="193.24" y1="113.8029" y2="116.687"/><line style="stroke:#333333;stroke-width:1.1536210538846556;" x1="222.0805" x2="222.0805" y1="113.8029" y2="116.687"/><line style="stroke:#333333;stroke-width:1.1536210538846556;" x1="250.921" x2="250.921" y1="113.8029" y2="116.687"/><line style="stroke:#333333;stroke-width:1.1536210538846556;" x1="279.7616" x2="279.7616" y1="113.8029" y2="116.687"/><line style="stroke:#333333;stroke-width:1.1536210538846556;" x1="308.6021" x2="308.6021" y1="113.8029" y2="116.687"/><line style="stroke:#333333;stroke-width:1.1536210538846556;" x1="337.4426" x2="337.4426" y1="113.8029" y2="116.687"/><line style="stroke:#333333;stroke-width:1.1536210538846556;" x1="366.2831" x2="366.2831" y1="113.8029" y2="116.687"/><line style="stroke:#333333;stroke-width:1.1536210538846556;" x1="395.1237" x2="395.1237" y1="113.8029" y2="116.687"/><line style="stroke:#333333;stroke-width:1.1536210538846556;" x1="423.9642" x2="423.9642" y1="113.8029" y2="116.687"/><line style="stroke:#333333;stroke-width:1.1536210538846556;" x1="452.8047" x2="452.8047" y1="113.8029" y2="116.687"/><line style="stroke:#333333;stroke-width:1.1536210538846556;" x1="481.6452" x2="481.6452" y1="113.8029" y2="116.687"/><line style="stroke:#333333;stroke-width:1.1536210538846556;" x1="510.4858" x2="510.4858" y1="113.8029" y2="116.687"/><line style="stroke:#333333;stroke-width:1.1536210538846556;" x1="539.3263" x2="539.3263" y1="113.8029" y2="116.687"/><line style="stroke:#333333;stroke-width:1.1536210538846556;" x1="568.1668" x2="568.1668" y1="113.8029" y2="116.687"/><line style="stroke:#333333;stroke-width:1.1536210538846556;" x1="597.0073" x2="597.0073" y1="113.8029" y2="116.687"/><line style="stroke:#333333;stroke-width:1.1536210538846556;" x1="625.8479" x2="625.8479" y1="113.8029" y2="116.687"/><line style="stroke:#333333;stroke-width:1.1536210538846556;" x1="654.6884" x2="654.6884" y1="113.8029" y2="116.687"/><line style="stroke:#333333;stroke-width:1.1536210538846556;" x1="683.5289" x2="683.5289" y1="113.8029" y2="116.687"/><line style="stroke:#333333;stroke-width:1.1536210538846556;" x1="712.3695" x2="712.3695" y1="113.8029" y2="116.687"/><line style="stroke:#333333;stroke-width:1.1536210538846556;" x1="741.21" x2="741.21" y1="113.8029" y2="116.687"/><line style="stroke:#333333;stroke-width:1.1536210538846556;" x1="770.0505" x2="770.0505" y1="113.8029" y2="116.687"/><line style="stroke:#333333;stroke-width:1.1536210538846556;" x1="798.891" x2="798.891" y1="113.8029" y2="116.687"/><line style="stroke:#333333;stroke-width:1.1536210538846556;" x1="827.7316" x2="827.7316" y1="113.8029" y2="116.687"/><line style="stroke:#333333;stroke-width:1.1536210538846556;" x1="856.5721" x2="856.5721" y1="113.8029" y2="116.687"/><line style="stroke:#333333;stroke-width:1.1536210538846556;" x1="885.4126" x2="885.4126" y1="113.8029" y2="116.687"/><line style="stroke:#333333;stroke-width:1.1536210538846556;" x1="914.2531" x2="914.2531" y1="113.8029" y2="116.687"/><line style="stroke:#333333;stroke-width:1.1536210538846556;" x1="943.0937" x2="943.0937" y1="113.8029" y2="116.687"/><line style="stroke:#333333;stroke-width:1.1536210538846556;" x1="971.9342" x2="971.9342" y1="113.8029" y2="116.687"/><line style="stroke:#333333;stroke-width:1.1536210538846556;" x1="1000.7747" x2="1000.7747" y1="113.8029" y2="116.687"/><line style="stroke:#333333;stroke-width:1.1536210538846556;" x1="1029.6152" x2="1029.6152" y1="113.8029" y2="116.687"/><line style="stroke:#333333;stroke-width:1.1536210538846556;" x1="1058.4558" x2="1058.4558" y1="113.8029" y2="116.687"/><line style="stroke:#333333;stroke-width:1.1536210538846556;" x1="1087.2963" x2="1087.2963" y1="113.8029" y2="116.687"/><line style="stroke:#333333;stroke-width:1.1536210538846556;" x1="1116.1368" x2="1116.1368" y1="113.8029" y2="116.687"/><line style="stroke:#333333;stroke-width:1.1536210538846556;" x1="1144.9773" x2="1144.9773" y1="113.8029" y2="116.687"/><line style="stroke:#333333;stroke-width:1.1536210538846556;" x1="1173.8179" x2="1173.8179" y1="113.8029" y2="116.687"/><line style="stroke:#333333;stroke-width:1.1536210538846556;" x1="1202.6584" x2="1202.6584" y1="113.8029" y2="116.687"/><line style="stroke:#333333;stroke-width:1.1536210538846556;" x1="1231.4989" x2="1231.4989" y1="113.8029" y2="116.687"/><line style="stroke:#333333;stroke-width:1.1536210538846556;" x1="1260.3395" x2="1260.3395" y1="113.8029" y2="116.687"/><line style="stroke:#333333;stroke-width:1.1536210538846556;" x1="1289.18" x2="1289.18" y1="113.8029" y2="116.687"/><line style="stroke:#333333;stroke-width:1.1536210538846556;" x1="1318.0205" x2="1318.0205" y1="113.8029" y2="116.687"/><line style="stroke:#333333;stroke-width:1.1536210538846556;" x1="1346.861" x2="1346.861" y1="113.8029" y2="116.687"/><line style="stroke:#333333;stroke-width:1.1536210538846556;" x1="1375.7016" x2="1375.7016" y1="113.8029" y2="116.687"/><line style="stroke:#333333;stroke-width:1.1536210538846556;" x1="1404.5421" x2="1404.5421" y1="113.8029" y2="116.687"/><line style="stroke:#333333;stroke-width:1.1536210538846556;" x1="1433.3826" x2="1433.3826" y1="113.8029" y2="116.687"/><line style="stroke:#333333;stroke-width:1.1536210538846556;" x1="1462.2231" x2="1462.2231" y1="113.8029" y2="116.687"/><line style="stroke:#333333;stroke-width:1.1536210538846556;" x1="1491.0637" x2="1491.0637" y1="113.8029" y2="116.687"/><line style="stroke:#333333;stroke-width:1.1536210538846556;" x1="1519.9042" x2="1519.9042" y1="113.8029" y2="116.687"/><line style="stroke:#333333;stroke-width:1.1536210538846556;" x1="1548.7447" x2="1548.7447" y1="113.8029" y2="116.687"/><line style="stroke:#333333;stroke-width:1.1536210538846556;" x1="1577.5852" x2="1577.5852" y1="113.8029" y2="116.687"/><line style="stroke:#333333;stroke-width:1.1536210538846556;" x1="1606.4258" x2="1606.4258" y1="113.8029" y2="116.687"/><line style="stroke:#333333;stroke-width:1.1536210538846556;" x1="1635.2663" x2="1635.2663" y1="113.8029" y2="116.687"/><line style="stroke:#333333;stroke-width:1.1536210538846556;" x1="1664.1068" x2="1664.1068" y1="113.8029" y2="116.687"/><line style="stroke:#333333;stroke-width:1.1536210538846556;" x1="1692.9473" x2="1692.9473" y1="113.8029" y2="116.687"/><line style="stroke:#333333;stroke-width:1.1536210538846556;" x1="1721.7879" x2="1721.7879" y1="113.8029" y2="116.687"/><line style="stroke:#333333;stroke-width:1.1536210538846556;" x1="1750.6284" x2="1750.6284" y1="113.8029" y2="116.687"/><line style="stroke:#333333;stroke-width:1.1536210538846556;" x1="1779.4689" x2="1779.4689" y1="113.8029" y2="116.687"/><line style="stroke:#333333;stroke-width:1.1536210538846556;" x1="1808.3095" x2="1808.3095" y1="113.8029" y2="116.687"/><line style="stroke:#333333;stroke-width:1.1536210538846556;" x1="1837.15" x2="1837.15" y1="113.8029" y2="116.687"/><line style="stroke:#333333;stroke-width:1.1536210538846556;" x1="1865.9905" x2="1865.9905" y1="113.8029" y2="116.687"/><line style="stroke:#333333;stroke-width:1.1536210538846556;" x1="1894.831" x2="1894.831" y1="113.8029" y2="116.687"/><line style="stroke:#333333;stroke-width:1.1536210538846556;" x1="1923.6716" x2="1923.6716" y1="113.8029" y2="116.687"/><line style="stroke:#333333;stroke-width:1.1536210538846556;" x1="1952.5121" x2="1952.5121" y1="113.8029" y2="116.687"/><line style="stroke:#333333;stroke-width:1.1536210538846556;" x1="1981.3526" x2="1981.3526" y1="113.8029" y2="116.687"/><line style="stroke:#333333;stroke-width:1.1536210538846556;" x1="2010.1931" x2="2010.1931" y1="113.8029" y2="116.687"/><line style="stroke:#333333;stroke-width:1.1536210538846556;" x1="2039.0337" x2="2039.0337" y1="113.8029" y2="116.687"/><line style="stroke:#333333;stroke-width:1.1536210538846556;" x1="2067.8742" x2="2067.8742" y1="113.8029" y2="116.687"/><line style="stroke:#333333;stroke-width:1.1536210538846556;" x1="2096.7147" x2="2096.7147" y1="113.8029" y2="116.687"/><line style="stroke:#333333;stroke-width:1.1536210538846556;" x1="2125.5552" x2="2125.5552" y1="113.8029" y2="116.687"/><line style="stroke:#333333;stroke-width:1.1536210538846556;" x1="2154.3958" x2="2154.3958" y1="113.8029" y2="116.687"/><line style="stroke:#333333;stroke-width:1.1536210538846556;" x1="2183.2363" x2="2183.2363" y1="113.8029" y2="116.687"/><line style="stroke:#333333;stroke-width:1.1536210538846556;" x1="2212.0768" x2="2212.0768" y1="113.8029" y2="116.687"/><line style="stroke:#333333;stroke-width:1.1536210538846556;" x1="2240.9173" x2="2240.9173" y1="113.8029" y2="116.687"/><line style="stroke:#333333;stroke-width:1.1536210538846556;" x1="2269.7579" x2="2269.7579" y1="113.8029" y2="116.687"/><line style="stroke:#333333;stroke-width:1.1536210538846556;" x1="2298.5984" x2="2298.5984" y1="113.8029" y2="116.687"/><line style="stroke:#333333;stroke-width:1.1536210538846556;" x1="2327.4389" x2="2327.4389" y1="113.8029" y2="116.687"/><line style="stroke:#333333;stroke-width:1.1536210538846556;" x1="2356.2795" x2="2356.2795" y1="113.8029" y2="116.687"/><line style="stroke:#333333;stroke-width:1.1536210538846556;" x1="2385.12" x2="2385.12" y1="113.8029" y2="116.687"/><line style="stroke:#333333;stroke-width:1.1536210538846556;" x1="2413.9605" x2="2413.9605" y1="113.8029" y2="116.687"/><line style="stroke:#333333;stroke-width:1.1536210538846556;" x1="2442.801" x2="2442.801" y1="113.8029" y2="116.687"/><line style="stroke:#333333;stroke-width:1.1536210538846556;" x1="2471.6416" x2="2471.6416" y1="113.8029" y2="116.687"/><line style="stroke:#333333;stroke-width:1.1536210538846556;" x1="2500.4821" x2="2500.4821" y1="113.8029" y2="116.687"/><line style="stroke:#333333;stroke-width:1.1536210538846556;" x1="2529.3226" x2="2529.3226" y1="113.8029" y2="116.687"/><line style="stroke:#333333;stroke-width:1.1536210538846556;" x1="2558.1631" x2="2558.1631" y1="113.8029" y2="116.687"/><line style="stroke:#333333;stroke-width:1.1536210538846556;" x1="2587.0037" x2="2587.0037" y1="113.8029" y2="116.687"/><line style="stroke:#333333;stroke-width:1.1536210538846556;" x1="2615.8442" x2="2615.8442" y1="113.8029" y2="116.687"/><line style="stroke:#333333;stroke-width:1.1536210538846556;" x1="2644.6847" x2="2644.6847" y1="113.8029" y2="116.687"/><line style="stroke:#333333;stroke-width:1.1536210538846556;" x1="2673.5252" x2="2673.5252" y1="113.8029" y2="116.687"/><line style="stroke:#333333;stroke-width:1.1536210538846556;" x1="2702.3658" x2="2702.3658" y1="113.8029" y2="116.687"/><line style="stroke:#333333;stroke-width:1.1536210538846556;" x1="2731.2063" x2="2731.2063" y1="113.8029" y2="116.687"/><line style="stroke:#333333;stroke-width:1.1536210538846556;" x1="2760.0468" x2="2760.0468" y1="113.8029" y2="116.687"/><line style="stroke:#333333;stroke-width:1.1536210538846556;" x1="2788.8873" x2="2788.8873" y1="113.8029" y2="116.687"/><line style="stroke:#333333;stroke-width:1.1536210538846556;" x1="2817.7279" x2="2817.7279" y1="113.8029" y2="116.687"/><line style="stroke:#333333;stroke-width:1.1536210538846556;" x1="2846.5684" x2="2846.5684" y1="113.8029" y2="116.687"/><line style="stroke:#333333;stroke-width:1.1536210538846556;" x1="2875.4089" x2="2875.4089" y1="113.8029" y2="116.687"/><line style="stroke:#333333;stroke-width:1.1536210538846556;" x1="2904.2495" x2="2904.2495" y1="113.8029" y2="116.687"/><line style="stroke:#333333;stroke-width:1.1536210538846556;" x1="2933.09" x2="2933.09" y1="113.8029" y2="116.687"/><line style="stroke:#333333;stroke-width:1.1536210538846556;" x1="2961.9305" x2="2961.9305" y1="113.8029" y2="116.687"/><line style="stroke:#333333;stroke-width:1.1536210538846556;" x1="2990.771" x2="2990.771" y1="113.8029" y2="116.687"/><line style="stroke:#333333;stroke-width:1.1536210538846556;" x1="77.8779" x2="2990.771" y1="113.8029" y2="113.8029"/><text fill="#333333" font-family="sans-serif" font-size="6.3449" lengthAdjust="spacing" textLength="4.0368" x="75.8595" y="123.1533">0</text><text fill="#333333" font-family="sans-serif" font-size="6.3449" lengthAdjust="spacing" textLength="16.1473" x="262.0744" y="123.1533">2000</text><text fill="#333333" font-family="sans-serif" font-size="6.3449" lengthAdjust="spacing" textLength="16.1473" x="742.7498" y="123.1533">7000</text><text fill="#333333" font-family="sans-serif" font-size="6.3449" lengthAdjust="spacing" textLength="16.1473" x="771.5904" y="123.1533">7300</text><text fill="#333333" font-family="sans-serif" font-size="6.3449" lengthAdjust="spacing" textLength="20.1841" x="1029.1367" y="123.1533">10000</text><text fill="#333333" font-family="sans-serif" font-size="6.3449" lengthAdjust="spacing" textLength="20.1841" x="1250.2474" y="123.1533">12300</text><text fill="#333333" font-family="sans-serif" font-size="6.3449" lengthAdjust="spacing" textLength="20.1841" x="1279.0879" y="123.1533">12600</text><text fill="#333333" font-family="sans-serif" font-size="6.3449" lengthAdjust="spacing" textLength="20.1841" x="1759.7633" y="123.1533">17600</text><text fill="#333333" font-family="sans-serif" font-size="6.3449" lengthAdjust="spacing" textLength="20.1841" x="1788.6039" y="123.1533">17900</text><text fill="#333333" font-family="sans-serif" font-size="6.3449" lengthAdjust="spacing" textLength="20.1841" x="2269.2793" y="123.1533">22900</text><text fill="#333333" font-family="sans-serif" font-size="6.3449" lengthAdjust="spacing" textLength="20.1841" x="2298.1198" y="123.1533">23200</text><text fill="#333333" font-family="sans-serif" font-size="6.3449" lengthAdjust="spacing" textLength="20.1841" x="2759.5683" y="123.1533">28000</text><text fill="#333333" font-family="sans-serif" font-size="6.3449" lengthAdjust="spacing" textLength="20.1841" x="2778.7953" y="123.1533">28200</text><text fill="#333333" font-family="sans-serif" font-size="6.3449" lengthAdjust="spacing" textLength="20.1841" x="2807.6358" y="123.1533">28500</text><text fill="#333333" font-family="sans-serif" font-size="6.3449" lengthAdjust="spacing" textLength="20.1841" x="2951.8384" y="123.1533">30000</text><!--SRC=[AyaioKbLSAvCpibFBqhCZGykIImguIfEJWIA6XiO66YP6XXm9MNc9HPLAYW5XpW6XRW6AIaa5YiuUyH3kN3fW21FNqy_ztYtK5SVc1faCOGv0Ov1td1JG1o4b4UeNmXS2iI1IncRXS4aW4mk1mCkX1iKCeiLCZBJCxWSZ2o0haQJoSal1qf0nP5TXD2cROf36gnNstXKBq8lA5tWrWiBPt2yOj445qTL3OfgRB484mUhDeGP0am0M1H3HO5A0G00]--></g></svg>