<?xml version="1.0" encoding="UTF-8" standalone="no"?>
<!DOCTYPE svg PUBLIC "-//W3C//DTD SVG 1.1//EN"
 "http://www.w3.org/Graphics/SVG/1.1/DTD/svg11.dtd">
<!-- Generated by graphviz version 2.43.0 (0)
 -->
<!-- Title: main_outputs.h Pages: 1 -->
<svg width="413pt" height="137pt"
 viewBox="0.00 0.00 413.00 137.00" xmlns="http://www.w3.org/2000/svg" xmlns:xlink="http://www.w3.org/1999/xlink">

<svg id="main" version="1.1" xmlns="http://www.w3.org/2000/svg" xmlns:xlink="http://www.w3.org/1999/xlink" xml:space="preserve">

<style type="text/css"><![CDATA[
.node, .edge {opacity: 0.7;}
.node.selected, .edge.selected {opacity: 1;}
.edge:hover path { stroke: red; }
.edge:hover polygon { stroke: red; fill: red; }
]]></style>
<script type="application/ecmascript" xlink:href="../../svg.min.js"/>
<svg id="graph" class="graph">
<g id="graph0" class="graph" transform="scale(1 1) rotate(0) translate(4 133)">
<title>main_outputs.h</title>
<!-- Node1 -->
<g id="Node000001" class="node">
<title>Node1</title>
<g id="a_Node000001"><a xlink:title="Contains functions prototypes for controlling main outputs.">
<polygon fill="#999999" stroke="#666666" points="214,-129 122,-129 122,-110 214,-110 214,-129"/>
<text text-anchor="middle" x="168" y="-117" font-family="Helvetica,sans-Serif" font-size="10.00">main_outputs.h</text>
</a>
</g>
</g>
<!-- Node2 -->
<g id="Node000002" class="node">
<title>Node2</title>
<g id="a_Node000002"><a xlink:href="../../d4/dfb/buttons_8c.html" target="_top" xlink:title="Contains functions to check the button state in non&#45;blocking mode.">
<polygon fill="white" stroke="#666666" points="62,-19 0,-19 0,0 62,0 62,-19"/>
<text text-anchor="middle" x="31" y="-7" font-family="Helvetica,sans-Serif" font-size="10.00">buttons.c</text>
</a>
</g>
</g>
<!-- Node1&#45;&gt;Node2 -->
<g id="edge1_Node000001_Node000002" class="edge">
<title>Node1&#45;&gt;Node2</title>
<g id="a_edge1_Node000001_Node000002"><a xlink:title=" ">
<path fill="none" stroke="#63b8ff" d="M111.96,-108.57C90.01,-102.08 66.25,-91.43 50,-74 35.56,-58.51 32.06,-32.49 31.24,-19.07"/>
<polygon fill="#63b8ff" stroke="#63b8ff" points="111.31,-112.02 121.88,-111.27 113.15,-105.26 111.31,-112.02"/>
</a>
</g>
</g>
<!-- Node3 -->
<g id="Node000003" class="node">
<title>Node3</title>
<g id="a_Node000003"><a xlink:href="../../de/d05/buttons_8h.html" target="_top" xlink:title="Contains functions prototypes to check the button state in non&#45;blocking mode.">
<polygon fill="white" stroke="#666666" points="121,-74 59,-74 59,-55 121,-55 121,-74"/>
<text text-anchor="middle" x="90" y="-62" font-family="Helvetica,sans-Serif" font-size="10.00">buttons.h</text>
</a>
</g>
</g>
<!-- Node1&#45;&gt;Node3 -->
<g id="edge2_Node000001_Node000003" class="edge">
<title>Node1&#45;&gt;Node3</title>
<g id="a_edge2_Node000001_Node000003"><a xlink:title=" ">
<path fill="none" stroke="#63b8ff" d="M146.88,-104.15C132.79,-94.57 114.71,-82.29 102.76,-74.17"/>
<polygon fill="#63b8ff" stroke="#63b8ff" points="145.23,-107.26 155.47,-109.98 149.16,-101.47 145.23,-107.26"/>
</a>
</g>
</g>
<!-- Node4 -->
<g id="Node000004" class="node">
<title>Node4</title>
<g id="a_Node000004"><a xlink:href="../../d0/d29/main_8c.html" target="_top" xlink:title="Main file for psg14a_emu.">
<polygon fill="white" stroke="#666666" points="130,-19 80,-19 80,0 130,0 130,-19"/>
<text text-anchor="middle" x="105" y="-7" font-family="Helvetica,sans-Serif" font-size="10.00">main.c</text>
</a>
</g>
</g>
<!-- Node1&#45;&gt;Node4 -->
<g id="edge7_Node000001_Node000004" class="edge">
<title>Node1&#45;&gt;Node4</title>
<g id="a_edge7_Node000001_Node000004"><a xlink:title=" ">
<path fill="none" stroke="#63b8ff" d="M157.65,-100.76C143.96,-77.28 120.35,-36.81 110.05,-19.16"/>
<polygon fill="#63b8ff" stroke="#63b8ff" points="154.78,-102.79 162.84,-109.66 160.83,-99.26 154.78,-102.79"/>
</a>
</g>
</g>
<!-- Node5 -->
<g id="Node000005" class="node">
<title>Node5</title>
<g id="a_Node000005"><a xlink:href="../../d4/de7/main__cycle_8c.html" target="_top" xlink:title="Contains functions that are called in while(1) main cycle and after it.">
<polygon fill="white" stroke="#666666" points="228,-19 148,-19 148,0 228,0 228,-19"/>
<text text-anchor="middle" x="188" y="-7" font-family="Helvetica,sans-Serif" font-size="10.00">main_cycle.c</text>
</a>
</g>
</g>
<!-- Node1&#45;&gt;Node5 -->
<g id="edge8_Node000001_Node000005" class="edge">
<title>Node1&#45;&gt;Node5</title>
<g id="a_edge8_Node000001_Node000005"><a xlink:title=" ">
<path fill="none" stroke="#63b8ff" d="M171.46,-99.8C175.83,-76.2 183.17,-36.58 186.4,-19.16"/>
<polygon fill="#63b8ff" stroke="#63b8ff" points="168.02,-99.19 169.64,-109.66 174.9,-100.47 168.02,-99.19"/>
</a>
</g>
</g>
<!-- Node6 -->
<g id="Node000006" class="node">
<title>Node6</title>
<g id="a_Node000006"><a xlink:href="../../d6/dcc/led__control_8c.html" target="_top" xlink:title="Contains led blinking functions.">
<polygon fill="white" stroke="#666666" points="294.5,-74 215.5,-74 215.5,-55 294.5,-55 294.5,-74"/>
<text text-anchor="middle" x="255" y="-62" font-family="Helvetica,sans-Serif" font-size="10.00">led_control.c</text>
</a>
</g>
</g>
<!-- Node1&#45;&gt;Node6 -->
<g id="edge6_Node000001_Node000006" class="edge">
<title>Node1&#45;&gt;Node6</title>
<g id="a_edge6_Node000001_Node000006"><a xlink:title=" ">
<path fill="none" stroke="#63b8ff" d="M190.66,-104.7C206.51,-95.04 227.19,-82.44 240.77,-74.17"/>
<polygon fill="#63b8ff" stroke="#63b8ff" points="188.7,-101.79 181.98,-109.98 192.34,-107.77 188.7,-101.79"/>
</a>
</g>
</g>
<!-- Node7 -->
<g id="Node000007" class="node">
<title>Node7</title>
<g id="a_Node000007"><a xlink:href="../../de/d3c/main__outputs_8c.html" target="_top" xlink:title="Contains functions for controlling main outputs.">
<polygon fill="white" stroke="#666666" points="405,-74 313,-74 313,-55 405,-55 405,-74"/>
<text text-anchor="middle" x="359" y="-62" font-family="Helvetica,sans-Serif" font-size="10.00">main_outputs.c</text>
</a>
</g>
</g>
<!-- Node1&#45;&gt;Node7 -->
<g id="edge9_Node000001_Node000007" class="edge">
<title>Node1&#45;&gt;Node7</title>
<g id="a_edge9_Node000001_Node000007"><a xlink:title=" ">
<path fill="none" stroke="#63b8ff" d="M208.78,-107.18C244.5,-97.27 295.63,-83.08 328.07,-74.08"/>
<polygon fill="#63b8ff" stroke="#63b8ff" points="207.39,-103.94 198.69,-109.98 209.26,-110.68 207.39,-103.94"/>
</a>
</g>
</g>
<!-- Node3&#45;&gt;Node2 -->
<g id="edge3_Node000003_Node000002" class="edge">
<title>Node3&#45;&gt;Node2</title>
<g id="a_edge3_Node000003_Node000002"><a xlink:title=" ">
<path fill="none" stroke="#63b8ff" d="M72.8,-48.04C62.33,-38.64 49.35,-26.98 40.65,-19.17"/>
<polygon fill="#63b8ff" stroke="#63b8ff" points="70.74,-50.91 80.52,-54.98 75.42,-45.7 70.74,-50.91"/>
</a>
</g>
</g>
<!-- Node3&#45;&gt;Node4 -->
<g id="edge4_Node000003_Node000004" class="edge">
<title>Node3&#45;&gt;Node4</title>
<g id="a_edge4_Node000003_Node000004"><a xlink:title=" ">
<path fill="none" stroke="#63b8ff" d="M95.25,-44.95C97.74,-36.15 100.6,-26.06 102.57,-19.09"/>
<polygon fill="#63b8ff" stroke="#63b8ff" points="91.83,-44.17 92.48,-54.75 98.57,-46.08 91.83,-44.17"/>
</a>
</g>
</g>
<!-- Node3&#45;&gt;Node5 -->
<g id="edge5_Node000003_Node000005" class="edge">
<title>Node3&#45;&gt;Node5</title>
<g id="a_edge5_Node000003_Node000005"><a xlink:title=" ">
<path fill="none" stroke="#63b8ff" d="M115.03,-49.97C132.94,-40.28 156.53,-27.52 171.97,-19.17"/>
<polygon fill="#63b8ff" stroke="#63b8ff" points="112.88,-47.15 105.75,-54.98 116.21,-53.31 112.88,-47.15"/>
</a>
</g>
</g>
</g>
</svg>
</svg>

<style type='text/css'>
<![CDATA[
[data-mouse-over-selected='false'] { opacity: 0.7; }
[data-mouse-over-selected='true']  { opacity: 1.0; }
]]>
</style>
<script type="application/ecmascript"><![CDATA[
document.addEventListener('DOMContentLoaded', (event) => {
  highlightEdges();
  highlightAdjacentNodes();
});
]]></script>
</svg>
