<?xml version="1.0" encoding="UTF-8" standalone="no"?>
<!DOCTYPE svg PUBLIC "-//W3C//DTD SVG 1.1//EN"
 "http://www.w3.org/Graphics/SVG/1.1/DTD/svg11.dtd">
<!-- Generated by graphviz version 2.43.0 (0)
 -->
<!-- Title: gpio_exti.c Pages: 1 -->
<svg width="288pt" height="137pt"
 viewBox="0.00 0.00 287.50 137.00" xmlns="http://www.w3.org/2000/svg" xmlns:xlink="http://www.w3.org/1999/xlink">
<g id="graph0" class="graph" transform="scale(1 1) rotate(0) translate(4 133)">
<title>gpio_exti.c</title>
<!-- Node1 -->
<g id="Node000001" class="node">
<title>Node1</title>
<g id="a_Node000001"><a xlink:title="Contains GPIO and EXTI HAL functions.">
<polygon fill="#999999" stroke="#666666" points="167.5,-129 97.5,-129 97.5,-110 167.5,-110 167.5,-129"/>
<text text-anchor="middle" x="132.5" y="-117" font-family="Helvetica,sans-Serif" font-size="10.00">gpio_exti.c</text>
</a>
</g>
</g>
<!-- Node2 -->
<g id="Node000002" class="node">
<title>Node2</title>
<g id="a_Node000002"><a xlink:href="../../d7/dae/gpio__exti_8h.html" target="_top" xlink:title="Contains GPIO and EXTI hardware abstraction layer prototypes.">
<polygon fill="white" stroke="#666666" points="71,-74 0,-74 0,-55 71,-55 71,-74"/>
<text text-anchor="middle" x="35.5" y="-62" font-family="Helvetica,sans-Serif" font-size="10.00">gpio_exti.h</text>
</a>
</g>
</g>
<!-- Node1&#45;&gt;Node2 -->
<g id="edge1_Node000001_Node000002" class="edge">
<title>Node1&#45;&gt;Node2</title>
<g id="a_edge1_Node000001_Node000002"><a xlink:title=" ">
<path fill="none" stroke="#63b8ff" d="M116.92,-109.98C101.73,-101.69 78.4,-88.94 60.6,-79.22"/>
<polygon fill="#63b8ff" stroke="#63b8ff" points="61.82,-75.89 51.37,-74.17 58.47,-82.04 61.82,-75.89"/>
</a>
</g>
</g>
<!-- Node3 -->
<g id="Node000003" class="node">
<title>Node3</title>
<g id="a_Node000003"><a xlink:title=" ">
<polygon fill="#e0e0e0" stroke="#999999" points="94,-19 41,-19 41,0 94,0 94,-19"/>
<text text-anchor="middle" x="67.5" y="-7" font-family="Helvetica,sans-Serif" font-size="10.00">stdint.h</text>
</a>
</g>
</g>
<!-- Node1&#45;&gt;Node3 -->
<g id="edge4_Node000001_Node000003" class="edge">
<title>Node1&#45;&gt;Node3</title>
<g id="a_edge4_Node000001_Node000003"><a xlink:title=" ">
<path fill="none" stroke="#63b8ff" d="M127.18,-109.66C116.46,-91.85 92.1,-51.37 78.04,-28.01"/>
<polygon fill="#63b8ff" stroke="#63b8ff" points="80.87,-25.92 72.71,-19.16 74.87,-29.53 80.87,-25.92"/>
</a>
</g>
</g>
<!-- Node4 -->
<g id="Node000004" class="node">
<title>Node4</title>
<g id="a_Node000004"><a xlink:title=" ">
<polygon fill="#e0e0e0" stroke="#999999" points="205.5,-74 127.5,-74 127.5,-55 205.5,-55 205.5,-74"/>
<text text-anchor="middle" x="166.5" y="-62" font-family="Helvetica,sans-Serif" font-size="10.00">stm32f0xx.h</text>
</a>
</g>
</g>
<!-- Node1&#45;&gt;Node4 -->
<g id="edge3_Node000001_Node000004" class="edge">
<title>Node1&#45;&gt;Node4</title>
<g id="a_edge3_Node000001_Node000004"><a xlink:title=" ">
<path fill="none" stroke="#63b8ff" d="M138.11,-109.75C142.82,-102.42 149.67,-91.73 155.47,-82.7"/>
<polygon fill="#63b8ff" stroke="#63b8ff" points="158.54,-84.4 160.99,-74.09 152.64,-80.62 158.54,-84.4"/>
</a>
</g>
</g>
<!-- Node5 -->
<g id="Node000005" class="node">
<title>Node5</title>
<g id="a_Node000005"><a xlink:title=" ">
<polygon fill="#e0e0e0" stroke="#999999" points="279.5,-74 223.5,-74 223.5,-55 279.5,-55 279.5,-74"/>
<text text-anchor="middle" x="251.5" y="-62" font-family="Helvetica,sans-Serif" font-size="10.00">stddef.h</text>
</a>
</g>
</g>
<!-- Node1&#45;&gt;Node5 -->
<g id="edge5_Node000001_Node000005" class="edge">
<title>Node1&#45;&gt;Node5</title>
<g id="a_edge5_Node000001_Node000005"><a xlink:title=" ">
<path fill="none" stroke="#63b8ff" d="M151.62,-109.98C170.85,-101.42 200.73,-88.11 222.81,-78.28"/>
<polygon fill="#63b8ff" stroke="#63b8ff" points="224.32,-81.44 232.03,-74.17 221.47,-75.04 224.32,-81.44"/>
</a>
</g>
</g>
<!-- Node2&#45;&gt;Node3 -->
<g id="edge2_Node000002_Node000003" class="edge">
<title>Node2&#45;&gt;Node3</title>
<g id="a_edge2_Node000002_Node000003"><a xlink:title=" ">
<path fill="none" stroke="#63b8ff" d="M40.78,-54.75C45.21,-47.42 51.66,-36.73 57.12,-27.7"/>
<polygon fill="#63b8ff" stroke="#63b8ff" points="60.14,-29.46 62.31,-19.09 54.15,-25.84 60.14,-29.46"/>
</a>
</g>
</g>
</g>
</svg>
